<?xml version="1.0" encoding="UTF-8"?>
<svg width="214px" height="214px" viewBox="0 0 214 214" version="1.1" xmlns="http://www.w3.org/2000/svg" xmlns:xlink="http://www.w3.org/1999/xlink">
    <!-- Generator: Sketch 55.2 (78181) - https://sketchapp.com -->
    <title>Auth0_logo</title>
    <desc>Created with Sketch.</desc>
    <defs>
        <polygon id="path-1" points="0 0.0493506494 48.7455505 0.0493506494 48.7455505 54.5454545 0 54.5454545"></polygon>
    </defs>
    <g id="Exports" stroke="none" stroke-width="1" fill="none" fill-rule="evenodd">
        <g id="Homepage-New" transform="translate(-1508.000000, -5234.000000)">
            <g id="Group-6" transform="translate(1540.000000, 5314.000000)">
                <path d="M74.576526,30.3572078 L68.0661364,30.3572078 C68.0180844,30.3572078 67.9732792,30.3348052 67.9443831,30.2964935 C67.9158117,30.2581818 67.9067208,30.2088312 67.9197078,30.1630519 L71.1749026,18.8107792 C71.1937338,18.7451948 71.253474,18.7003896 71.3213312,18.7003896 C71.3891883,18.7003896 71.4489286,18.7451948 71.4674351,18.8107792 L74.7229545,30.1630519 C74.7359416,30.2088312 74.7268506,30.2581818 74.6979545,30.2964935 C74.6693831,30.3348052 74.6242532,30.3572078 74.576526,30.3572078 L74.576526,30.3572078 Z M77.5979545,40.189026 L81.8408117,40.189026 L75.3882143,17.6864286 C74.8710065,15.8818831 73.1982792,14.6214935 71.3213312,14.6214935 C69.4440584,14.6214935 67.7716558,15.8818831 67.2541234,17.6864286 L60.801526,40.189026 L65.0447078,40.189026 L66.9122403,33.6763636 C66.9310714,33.6111039 66.9908117,33.5662987 67.0586688,33.5662987 L75.5843182,33.5662987 C75.6521753,33.5662987 75.7115909,33.6111039 75.7304221,33.6763636 L77.5979545,40.189026 Z M101.438539,27.265974 L103.921656,27.265974 C104.005747,27.265974 104.073929,27.3341558 104.073929,27.4182468 L104.073929,36.2929221 C104.073929,38.626039 105.971656,40.5237662 108.304773,40.5237662 C109.150227,40.5237662 109.985292,40.4016883 110.787565,40.1604545 L110.787565,37.2471429 C110.319383,37.2883766 109.781721,37.315 109.400552,37.315 C108.712565,37.315 108.1525,36.7549351 108.1525,36.0669481 L108.1525,27.4182468 C108.1525,27.3341558 108.220682,27.265974 108.304773,27.265974 L110.787565,27.265974 L110.787565,24.0572078 L108.304773,24.0572078 C108.220682,24.0572078 108.1525,23.989026 108.1525,23.9049351 L108.1525,18.577987 L104.073929,18.577987 L104.073929,23.9049351 C104.073929,23.989026 104.005747,24.0572078 103.921656,24.0572078 L101.438539,24.0572078 L101.438539,27.265974 Z M124.960617,40.189026 L129.039188,40.189026 L129.039188,29.0490909 C129.039188,26.1120779 126.649578,23.7224675 123.712565,23.7224675 C121.550877,23.7224675 119.816136,24.6516883 118.974903,25.2059091 C118.928149,25.2367532 118.868084,25.2393506 118.819058,25.2127273 C118.769383,25.1861039 118.739188,25.1348052 118.739188,25.0786364 L118.739188,14.9562338 L114.660292,14.9562338 L114.660292,40.189026 L118.739188,40.189026 L118.738864,28.126039 C118.738864,28.0692208 118.770357,28.0169481 118.821006,27.990974 C119.588214,27.5951948 121.101526,26.9315584 122.616786,26.9315584 C123.24276,26.9315584 123.831396,27.1753896 124.273929,27.6179221 C124.716786,28.0607792 124.960617,28.6490909 124.960617,29.2750649 L124.960617,40.189026 Z M84.1203571,24.0572078 L84.1203571,35.1971429 C84.1203571,38.1341558 86.5099675,40.5237662 89.4469805,40.5237662 C92.0083442,40.5237662 93.9434091,39.2523377 94.6567208,38.7062338 C94.6963312,38.6757143 94.7482792,38.6669481 94.7956818,38.6822078 C94.8434091,38.6971429 94.8800974,38.7348052 94.8947078,38.7822078 L95.3249026,40.189026 L98.4995779,40.189026 L98.4995779,24.0572078 L94.4206818,24.0572078 L94.4206818,36.1201948 C94.4206818,36.177013 94.3888636,36.2292857 94.3382143,36.2552597 C93.5713312,36.651039 92.0586688,37.315 90.5427597,37.315 C89.2502273,37.315 88.1989286,36.2633766 88.1989286,34.9711688 L88.1989286,24.0572078 L84.1203571,24.0572078 Z M140.959968,37.3146753 C139.706396,37.3146753 138.715487,36.6049351 137.930747,35.1455195 C136.983019,33.3822078 136.460942,30.6929221 136.460942,27.5727922 C136.460942,24.4523377 136.983019,21.7630519 137.930747,20.0000649 C138.715487,18.5403247 139.706396,17.8305844 140.959968,17.8305844 C142.213539,17.8305844 143.204448,18.5403247 143.989188,20.0000649 C144.936916,21.7627273 145.458669,24.4523377 145.458669,27.5727922 C145.458669,30.6929221 144.936916,33.3822078 143.989188,35.1451948 C143.204448,36.6049351 142.213539,37.3146753 140.959968,37.3146753 L140.959968,37.3146753 Z M140.959968,14.6214935 C138.33724,14.6214935 136.119058,15.8572078 134.545032,18.1948701 C132.980422,20.5179221 132.153474,23.7611039 132.153474,27.5727922 C132.153474,31.3844805 132.980422,34.6273377 134.545032,36.951039 C136.119058,39.2883766 138.33724,40.5237662 140.959968,40.5237662 C143.58237,40.5237662 145.800877,39.2883766 147.374903,36.951039 C148.939188,34.6273377 149.766136,31.3844805 149.766136,27.5727922 C149.766136,23.7611039 148.939188,20.5179221 147.374903,18.1948701 C145.800877,15.8572078 143.58237,14.6214935 140.959968,14.6214935 L140.959968,14.6214935 Z" id="Fill-1" fill="#16214D"></path>
                <g id="Group-5" transform="translate(0.000000, 0.275325)">
                    <mask id="mask-2" fill="white">
                        <use xlink:href="#path-1"></use>
                    </mask>
                    <g id="Clip-4"></g>
                    <path d="M1.19863636,16.887987 L1.19831169,16.8876623 C-2.14714286,27.187013 1.7362987,38.1 10.0492857,44.137013 L10.0505844,44.1324675 L15.522013,27.2944805 L1.20448052,16.8922078 L18.9022078,16.8922078 L24.3733117,0.0538961039 L24.3749351,0.0493506494 L6.66941558,0.0493506494 L1.19863636,16.887987 Z M10.0522078,44.1357143 L10.0476623,44.1386364 L24.372013,54.5454545 L38.6996104,44.1357143 L24.3765584,33.7285714 L10.0522078,44.1357143 Z M38.6996104,44.1357143 L33.2288312,27.2964286 L47.5496104,16.8922078 L29.8476623,16.8922078 L24.3765584,0.0538961039 L24.3749351,0.0493506494 L42.0794805,0.0493506494 L47.5518831,16.8902597 L47.5522078,16.8902597 L47.5567532,16.8876623 C50.7343506,26.6577922 47.4616234,37.7701299 38.6996104,44.1357143 L38.6996104,44.1357143 Z" id="Fill-3" fill="#EB5424" mask="url(#mask-2)"></path>
                </g>
            </g>
        </g>
    </g>
</svg>