<?xml version="1.0" encoding="UTF-8"?>
<svg width="214px" height="214px" viewBox="0 0 214 214" version="1.1" xmlns="http://www.w3.org/2000/svg" xmlns:xlink="http://www.w3.org/1999/xlink">
    <!-- Generator: Sketch 53.2 (72643) - https://sketchapp.com -->
    <title>bereta_logo</title>
    <desc>Created with Sketch.</desc>
    <defs>
        <polygon id="path-1" points="0.0639914945 0.108991495 23.7080194 0.108991495 23.7080194 23.7529648 0.0639914945 23.7529648"></polygon>
        <polygon id="path-3" points="0 0.159477521 135.504769 0.159477521 135.504769 86.9380316 0 86.9380316"></polygon>
    </defs>
    <g id="Exports" stroke="none" stroke-width="1" fill="none" fill-rule="evenodd">
        <g id="Homepage-New" transform="translate(-270.000000, -4716.000000)">
            <g id="Group-23" transform="translate(309.000000, 4778.000000)">
                <g id="Group-3" transform="translate(126.123937, 0.073269)">
                    <mask id="mask-2" fill="white">
                        <use xlink:href="#path-1"></use>
                    </mask>
                    <g id="Clip-2"></g>
                    <path d="M17.4729222,16.0014459 L16.2455832,16.0014459 L16.2455832,10.8866829 L15.1846476,16.0014459 L14.1998967,16.0014459 L13.0097388,10.8999878 L13.0097388,16.0014459 L11.7820352,16.0014459 L11.7820352,7.86043742 L13.5408445,7.86043742 L14.6832503,13.6984083 L15.781367,7.86043742 L17.4729222,7.86043742 L17.4729222,16.0014459 Z M10.7958262,9.08777643 L9.49704131,9.08777643 L9.49704131,16.0014459 L8.26970231,16.0014459 L8.26970231,9.08777643 L6.96636087,9.08777643 L6.96636087,7.86043742 L10.7958262,7.86043742 L10.7958262,9.08777643 Z M11.8861057,0.108918591 C5.3568226,0.108918591 0.0639914945,5.4017497 0.0639914945,11.9310328 C0.0639914945,18.4599514 5.3568226,23.7529648 11.8861057,23.7529648 C18.4152066,23.7529648 23.7080377,18.4599514 23.7080377,11.9310328 C23.7080377,5.4017497 18.4152066,0.108918591 11.8861057,0.108918591 L11.8861057,0.108918591 Z" id="Fill-1" fill="#000000" mask="url(#mask-2)"></path>
                </g>
                <path d="M39.9520535,39.0170595 L37.9358931,39.0170595 L37.9358931,46.1204617 L39.9520535,46.1204617 C40.4866221,46.1204617 40.9378979,45.9316403 41.3064277,45.5538153 C41.6749575,45.1761725 41.8590401,44.7234386 41.8590401,44.1952491 L41.8590401,40.9543013 C41.8590401,39.6628068 41.2234994,39.0170595 39.9520535,39.0170595" id="Fill-4" fill="#000000"></path>
                <path d="M14.3995079,47.8749149 L12.9984751,47.8749149 L12.9984751,54.502983 L14.3995079,54.502983 C15.5366282,54.502983 16.3247205,53.9181106 16.7632382,52.7483657 C16.9174301,52.3506744 16.9947084,51.8917436 16.9947084,51.3717558 C16.9947084,50.1289247 16.7550365,49.2230923 16.2758748,48.6546233 C15.8535784,48.135 15.228062,47.8749149 14.3995079,47.8749149" id="Fill-6" fill="#000000"></path>
                <path d="M16.4951519,43.1474544 C16.624921,42.7656197 16.6901701,42.2988518 16.6901701,41.7464216 C16.6901701,40.8203584 16.4665371,40.121938 16.02,39.6506136 C15.605723,39.212096 15.0655043,38.9926549 14.3995261,38.9926549 L12.9983111,38.9926549 L12.9983111,44.6704192 L14.3995261,44.6704192 C15.4393196,44.6704192 16.13774,44.1630073 16.4951519,43.1474544" id="Fill-8" fill="#000000"></path>
                <path d="M14.3124787,68.9255832 C14.3997813,68.6691434 14.4435237,68.3551094 14.4435237,67.9840279 C14.4435237,67.3617922 14.2933414,66.8924727 13.9931592,66.5757047 C13.7148481,66.2809903 13.3517861,66.1337242 12.9043378,66.1337242 L11.9627825,66.1337242 L11.9627825,69.948791 L12.9043378,69.948791 C13.6029405,69.948791 14.07226,69.6077825 14.3124787,68.9255832" id="Fill-10" fill="#000000"></path>
                <path d="M23.4511057,66.1500365 L22.096367,66.1500365 L22.096367,70.923062 L23.4511057,70.923062 C23.810158,70.923062 24.1136209,70.796209 24.3613123,70.542503 C24.6088214,70.2886148 24.7325759,69.9844228 24.7325759,69.6297448 L24.7325759,67.4519198 C24.7325759,66.5839976 24.3053584,66.1500365 23.4511057,66.1500365" id="Fill-12" fill="#000000"></path>
                <g id="Group-16" transform="translate(0.000000, 1.349089)">
                    <mask id="mask-4" fill="white">
                        <use xlink:href="#path-3"></use>
                    </mask>
                    <g id="Clip-15"></g>
                    <path d="M97.2164945,74.0444107 C97.2164945,75.0377278 96.8669198,75.8823208 96.1684994,76.5781896 C95.4697145,77.2742406 94.6263973,77.622175 93.638548,77.622175 C92.6505164,77.622175 91.8113913,77.2729648 91.1209903,76.5741798 C90.4305893,75.8757594 90.0852066,75.0324423 90.0852066,74.0444107 L90.0852066,65.8981166 C90.0852066,64.9047995 90.434599,64.0600243 91.1332017,63.3639733 C91.8318044,62.6681045 92.6669198,62.3201701 93.638548,62.3201701 C94.6316829,62.3201701 95.4764581,62.6697448 96.1723269,63.3681652 C96.8685601,64.0669502 97.2164945,64.9102673 97.2164945,65.8981166 L97.2164945,74.0444107 Z M87.7730559,67.5847509 L85.4395808,67.5847509 L85.4395808,65.8407047 C85.4395808,65.4805589 85.3125456,65.1734508 85.0588396,64.9197448 C84.8049514,64.6658566 84.4980255,64.5390036 84.1376974,64.5390036 C83.7830194,64.5390036 83.4801033,64.6658566 83.2291312,64.9197448 C82.9777947,65.1734508 82.8522175,65.4805589 82.8522175,65.8407047 L82.8522175,74.036209 C82.8522175,74.3963548 82.9777947,74.7020049 83.2291312,74.9529769 C83.4801033,75.2043135 83.7830194,75.3297084 84.1376974,75.3297084 C84.4980255,75.3297084 84.8049514,75.2043135 85.0588396,74.9529769 C85.3125456,74.7020049 85.4395808,74.3963548 85.4395808,74.036209 L85.4395808,71.9812272 L87.7730559,71.9812272 L87.7730559,74.0608141 C87.7730559,75.0541312 87.4236634,75.8961725 86.7250608,76.5863913 C86.0262758,77.2769745 85.1884265,77.622175 84.2115128,77.622175 C83.2178311,77.622175 82.3746962,77.2756987 81.6817436,76.5823815 C80.9884265,75.8892467 80.6419502,75.0488457 80.6419502,74.0608141 L80.6419502,65.8817132 C80.6419502,64.8938639 80.9911604,64.0518226 81.6899453,63.3555893 C82.3883657,62.6599028 83.2291312,62.3119684 84.2115128,62.3119684 C85.2048299,62.3119684 86.0466889,62.6615431 86.7372722,63.3599635 C87.4274909,64.0587485 87.7730559,64.8991495 87.7730559,65.8817132 L87.7730559,67.5847509 Z M77.0215371,51.3628797 L73.5248785,51.3628797 L72.7085358,56.4678007 L69.2239064,56.4678007 L72.9886695,34.2442892 L77.6064095,34.2442892 L81.3226914,56.4678007 L77.8136391,56.4678007 L77.0215371,51.3628797 Z M74.0131531,67.5847509 L71.6800425,67.5847509 L71.6800425,65.8407047 C71.6800425,65.4805589 71.552825,65.1734508 71.2991191,64.9197448 C71.0454131,64.6658566 70.7384872,64.5390036 70.3781592,64.5390036 C70.0231166,64.5390036 69.7203827,64.6658566 69.4694107,64.9197448 C69.2180741,65.1734508 69.0926792,65.4805589 69.0926792,65.8407047 L69.0926792,74.036209 C69.0926792,74.3963548 69.2180741,74.7020049 69.4694107,74.9529769 C69.7203827,75.2043135 70.0231166,75.3297084 70.3781592,75.3297084 C70.7384872,75.3297084 71.0454131,75.2043135 71.2991191,74.9529769 C71.552825,74.7020049 71.6800425,74.3963548 71.6800425,74.036209 L71.6800425,71.0969016 L70.4273694,71.0969016 L70.4273694,68.8454435 L74.0131531,68.8454435 L74.0131531,74.0608141 C74.0131531,75.0541312 73.6637606,75.8961725 72.965158,76.5863913 C72.266373,77.2769745 71.428706,77.622175 70.45161,77.622175 C69.4584751,77.622175 68.615158,77.2729648 67.9220231,76.5741798 C67.2285237,75.8757594 66.8820474,75.0377278 66.8820474,74.0608141 L66.8820474,65.8817132 C66.8820474,64.8938639 67.2312576,64.0518226 67.9300425,63.3555893 C68.6284629,62.6599028 69.4694107,62.3119684 70.45161,62.3119684 C71.4451094,62.3119684 72.2871507,62.6615431 72.9773694,63.3599635 C73.6677704,64.0587485 74.0131531,64.8991495 74.0131531,65.8817132 L74.0131531,67.5847509 Z M66.1147327,56.4678007 L62.7642467,56.4678007 L62.7642467,37.5949575 L59.206531,37.5949575 L59.206531,34.2442892 L69.6604192,34.2442892 L69.6604192,37.5949575 L66.1147327,37.5949575 L66.1147327,56.4678007 Z M64.8381835,77.4339004 L62.4265188,77.4339004 L59.3280984,67.8712637 L59.3280984,77.4339004 L57.0766403,77.4339004 L57.0766403,62.500243 L59.6064095,62.500243 L62.5867254,72.5296476 L62.5867254,62.500243 L64.8381835,62.500243 L64.8381835,77.4339004 Z M51.8047691,77.4339004 L54.0564095,77.4339004 L54.0564095,62.500243 L51.8047691,62.500243 L51.8047691,77.4339004 Z M46.9322296,77.4339004 L44.7709903,77.4339004 L43.5019137,69.2874241 L42.3066525,77.4339004 L40.1534326,77.4339004 L37.6561057,62.500243 L40.0140036,62.500243 L41.193226,70.499271 L42.2736634,62.500243 L44.6315614,62.500243 L45.8107837,70.499271 L46.9078068,62.500243 L49.2657047,62.500243 L46.9322296,77.4339004 Z M36.037819,64.7518834 L31.8788275,64.7518834 L31.8788275,68.8454435 L34.9161908,68.8454435 L34.9161908,71.0969016 L31.8788275,71.0969016 L31.8788275,75.18226 L36.037819,75.18226 L36.037819,77.4339004 L29.6273694,77.4339004 L29.6273694,62.500243 L36.037819,62.500243 L36.037819,64.7518834 Z M24.9653402,77.4339004 L23.5920109,71.7927704 C23.5265796,71.7984204 23.4584143,71.8009721 23.3875152,71.8009721 L22.0962029,71.8009721 L22.0962029,77.4339004 L19.8447448,77.4339004 L19.8447448,62.500243 L23.3898846,62.500243 C24.6452916,62.500243 25.5649757,62.8469016 26.1491191,63.5400365 C26.6672843,64.1458688 26.9268226,64.9866343 26.9268226,66.0617861 L26.9268226,68.2314095 C26.9268226,69.2903402 26.5262151,70.1828676 25.7251823,70.908627 L27.3934083,77.4339004 L24.9653402,77.4339004 Z M18.1276731,55.6880923 C17.2750608,56.2080802 16.429921,56.4678007 15.593712,56.4678007 L9.39195018,56.4678007 L9.39195018,34.2442892 L14.3993621,34.2442892 C15.7234812,34.2442892 16.9172843,34.5934994 17.9816829,35.2921021 C18.8911604,35.8849939 19.5410996,36.7990279 19.9309538,38.0334751 C20.1423755,38.6998177 20.247904,39.4875456 20.247904,40.3972053 C20.247904,41.8837181 19.8538578,43.0777035 19.0659478,43.9793439 C18.7329587,44.3531592 18.3431045,44.6414945 17.8962029,44.8443499 C18.6354496,45.1288578 19.265158,45.6893074 19.7849635,46.5258809 C20.1341738,47.0943499 20.3900668,47.8255772 20.5526428,48.7190158 C20.633384,49.1819563 20.6743925,49.6979344 20.6743925,50.2662211 C20.6743925,51.6716282 20.4102977,52.8657959 19.8822904,53.8483597 C19.4680134,54.6120292 18.8831409,55.2251519 18.1276731,55.6880923 L18.1276731,55.6880923 Z M16.5886695,75.6734508 C16.3103584,76.1868773 15.9172236,76.5987849 15.4094471,76.9099028 C14.8364216,77.2592953 14.2688639,77.4339004 13.706774,77.4339004 L9.53921628,77.4339004 L9.53921628,62.500243 L12.9044654,62.500243 C13.7940765,62.500243 14.5962029,62.7351762 15.311209,63.2043135 C15.9225091,63.6030984 16.3592041,64.2169502 16.6211118,65.0465978 C16.7632746,65.4942284 16.8341738,66.0236938 16.8341738,66.6349939 C16.8341738,67.6337789 16.5695322,68.4360875 16.0398846,69.0419198 C15.8160693,69.2932564 15.5539793,69.4868165 15.2539793,69.623147 C15.7504557,69.8143378 16.1738457,70.190887 16.5230559,70.7529769 C16.7576245,71.1351762 16.929678,71.626367 17.0386695,72.2267315 C17.0935298,72.5378493 17.1208688,72.8845079 17.1208688,73.2665249 C17.1208688,74.2108141 16.9431652,75.0131227 16.5886695,75.6734508 L16.5886695,75.6734508 Z M22.6592041,34.2442892 L32.1990583,34.2442892 L32.1990583,37.5949575 L26.0098724,37.5949575 L26.0098724,43.6868165 L30.529921,43.6868165 L30.529921,47.0374848 L26.0098724,47.0374848 L26.0098724,53.117497 L32.1990583,53.117497 L32.1990583,56.4678007 L22.6592041,56.4678007 L22.6592041,34.2442892 Z M34.5852066,34.2442892 L39.8610875,34.2442892 C41.7292527,34.2442892 43.0974787,34.7602673 43.9668591,35.7916768 C44.738548,36.6931349 45.1243925,37.9443499 45.1243925,39.5442284 L45.1243925,42.773147 C45.1243925,44.3489672 44.5282199,45.677096 43.3364216,46.7571689 L45.8189854,56.4678007 L42.2049514,56.4678007 L40.1616343,48.0730863 C40.0643074,48.0814702 39.9629708,48.0852977 39.8578068,48.0852977 L37.9360571,48.0852977 L37.9360571,56.4678007 L34.5852066,56.4678007 L34.5852066,34.2442892 Z M47.9455954,34.2442892 L57.4859964,34.2442892 L57.4859964,37.5949575 L51.2964459,37.5949575 L51.2964459,43.6868165 L55.8168591,43.6868165 L55.8168591,47.0374848 L51.2964459,47.0374848 L51.2964459,53.117497 L57.4859964,53.117497 L57.4859964,56.4678007 L47.9455954,56.4678007 L47.9455954,34.2442892 Z M117.086665,31.3565614 L117.087758,31.3565614 C119.572327,28.0995747 121.042436,24.0016403 121.042436,19.6232078 C121.042436,8.87861482 112.571902,0.159477521 100.339702,0.159477521 L4.54547388,0.159477521 L1.23927704,0.159477521 C0.455194411,0.159477521 -9.11300121e-05,0.614398542 -9.11300121e-05,1.39939247 L-9.11300121e-05,85.6979344 C-9.11300121e-05,86.4829283 0.455194411,86.9380316 1.23927704,86.9380316 L108.107989,86.9380316 C123.851792,86.9380316 135.504769,74.0455043 135.504769,58.4254557 C135.504769,45.8201701 128.113761,35.1216889 117.086665,31.3565614 L117.086665,31.3565614 Z" id="Fill-14" fill="#000000" mask="url(#mask-4)"></path>
                </g>
                <path d="M93.5812637,65.9207898 C93.2264034,65.9207898 92.9222114,66.0449089 92.6683232,66.2929648 C92.4146173,66.5412029 92.287582,66.8452126 92.287582,67.2051762 L92.287582,75.3780802 C92.287582,75.7325759 92.4146173,76.0353098 92.6683232,76.2860996 C92.9222114,76.5370717 93.2264034,76.6624666 93.5812637,76.6624666 C93.9415917,76.6624666 94.2457837,76.5370717 94.4942041,76.2860996 C94.7424423,76.0353098 94.8665614,75.7325759 94.8665614,75.3780802 L94.8665614,67.2051762 C94.8665614,66.8452126 94.7424423,66.5412029 94.4942041,66.2929648 C94.2457837,66.0449089 93.9415917,65.9207898 93.5812637,65.9207898" id="Fill-17" fill="#000000"></path>
                <path d="M12.9043196,72.1021385 L11.9627643,72.1021385 L11.9627643,76.5560267 L12.9043196,76.5560267 C13.6683536,76.5560267 14.197819,76.1628919 14.4925334,75.3771689 C14.5962394,75.1096112 14.6481835,74.8014095 14.6481835,74.452017 C14.6481835,73.6169016 14.4870656,73.0083354 14.1650122,72.6261361 C13.8812333,72.2769259 13.4609417,72.1021385 12.9043196,72.1021385" id="Fill-19" fill="#000000"></path>
                <polygon id="Fill-21" fill="#000000" points="74.0365371 49.4465431 76.522017 49.4465431 75.2791859 40.6863973"></polygon>
            </g>
        </g>
    </g>
</svg>