<?xml version="1.0" encoding="UTF-8"?>
<svg width="214px" height="214px" viewBox="0 0 214 214" version="1.1" xmlns="http://www.w3.org/2000/svg" xmlns:xlink="http://www.w3.org/1999/xlink">
    <!-- Generator: Sketch 57.1 (83088) - https://sketch.com -->
    <title>craftwand_logo</title>
    <desc>Created with Sketch.</desc>
    <defs>
        <polygon id="path-1" points="5.64373898e-05 0.151901235 149.35794 0.151901235 149.35794 27.0899471 5.64373898e-05 27.0899471"></polygon>
    </defs>
    <g id="Exports" stroke="none" stroke-width="1" fill="none" fill-rule="evenodd">
        <g id="Homepage-New" transform="translate(-2499.000000, -5234.000000)">
            <g id="Group-5" transform="translate(2528.000000, 5327.000000)">
                <polygon id="Fill-1" fill="#292A21" points="144.94448 26.8996966 159.979965 26.8996966 159.979965 22.8071393 144.94448 22.8071393"></polygon>
                <g id="Group-4" transform="translate(0.000000, 0.130314)">
                    <mask id="mask-2" fill="white">
                        <use xlink:href="#path-1"></use>
                    </mask>
                    <g id="Clip-3"></g>
                    <path d="M100.272649,19.024 L102.29734,5.05602822 L104.538751,19.024 L100.272649,19.024 Z M100.239069,0.578567901 L95.6538131,26.7680564 L99.1388219,26.7680564 L99.8471111,21.8653404 L104.999563,21.8653404 L105.77981,26.7680564 L109.335647,26.7680564 L104.253743,0.578567901 L100.239069,0.578567901 Z M136.464536,17.211231 C136.464536,21.5103492 136.395683,23.7478095 133.444007,23.7478095 L131.383478,23.7478095 L131.383478,3.52826808 L132.87794,3.52826808 C136.109545,3.52826808 136.464536,5.41073721 136.464536,10.9181799 L136.464536,17.211231 Z M133.410427,0.578567901 L127.759069,0.578567901 L127.759069,26.7680564 L134.333743,26.7680564 C136.036741,26.7680564 137.603725,26.1303139 138.278998,25.3119718 C139.484783,23.8905961 140.267287,22.5044938 140.267287,13.1962751 C140.267287,4.87825044 139.484783,0.578567901 133.410427,0.578567901 L133.410427,0.578567901 Z M120.981785,0.578567901 L124.143125,0.578567901 L124.143125,26.7680564 L120.981785,26.7680564 L115.083231,7.07959083 L115.083231,26.7680564 L111.91794,26.7680564 L111.91794,0.578567901 L115.901855,0.578567901 L120.981785,17.60206 L120.981785,0.578567901 Z M12.8979753,16.0012134 C12.9355062,20.8003668 12.8979753,23.5347584 10.9102504,25.4911605 C9.73748148,26.6613898 8.31384832,27.0900317 6.43222575,27.0900317 C0.213954145,27.0900317 5.64373898e-05,21.5461869 5.64373898e-05,17.0678801 L5.64373898e-05,12.5187443 C5.64373898e-05,7.11825044 0.248945326,3.74160141 1.98947443,1.92855026 C3.05501235,0.827174603 4.47695238,0.151901235 6.43222575,0.151901235 C8.31384832,0.151901235 9.73748148,0.758320988 10.6263704,1.64608113 C12.2241129,3.27853263 12.5418554,5.6618836 12.5077108,9.99881481 L9.09522399,9.99881481 C9.30940388,4.27521693 8.31384832,2.99662787 6.39356614,2.99662787 C5.57832804,2.99662787 5.08083245,3.27853263 4.58333686,3.99218342 C4.0138836,4.8077037 3.80224339,6.44354145 3.80224339,13.3717954 C3.80224339,21.5837178 3.83525926,24.2800141 6.64612346,24.2800141 C9.38164374,24.2800141 9.38164374,21.6156049 9.38164374,18.5242469 L9.38164374,16.0012134 L12.8979753,16.0012134 Z M23.9845362,9.22562257 C23.928381,12.2907372 22.9283104,13.6954638 20.8274286,13.6954638 L19.4057707,13.6954638 L19.4057707,3.17468783 L21.4310265,3.17468783 C23.1729665,3.17468783 23.9901799,4.55994356 23.9901799,7.54576367 C23.9901799,7.64198942 23.9901799,9.13024339 23.9845362,9.22562257 L23.9845362,9.22562257 Z M21.8924021,0.578567901 L16.0102152,0.578567901 L16.0102152,26.7694674 L19.4057707,26.7694674 L19.4057707,16.4665397 L21.0125432,16.4665397 L23.8572698,26.7838589 L27.5911675,26.7838589 L24.4049947,15.3033651 C26.444642,14.4680917 27.6131781,12.7642469 27.6831605,9.37010229 C27.6851358,9.26004938 27.6865467,7.76220106 27.6865467,7.6510194 C27.6865467,2.78216578 25.8751887,0.578567901 21.8924021,0.578567901 L21.8924021,0.578567901 Z M95.8603739,0.578567901 L91.490709,26.7680564 L88.0073933,26.7680564 L84.5599153,6.86597531 L81.6119083,26.7680564 L78.1283104,26.7680564 L73.1877813,0.578567901 L76.7029841,0.578567901 L79.8008325,20.6905961 L82.8535309,0.578567901 L86.1206914,0.578567901 L89.6031605,21.0139824 L92.4120494,0.578567901 L95.8603739,0.578567901 Z M34.4852769,19.024 L36.5091217,5.05602822 L38.7499683,19.024 L34.4852769,19.024 Z M34.4494392,0.578567901 L29.8641834,26.7680564 L33.3469347,26.7680564 L34.0574815,21.8653404 L39.2093686,21.8653404 L39.991873,26.7680564 L43.5471464,26.7680564 L38.4641129,0.578567901 L34.4494392,0.578567901 Z M58.5806561,0.578567901 L72.0093686,0.578567901 L72.0093686,3.45828571 L66.5374815,3.45828571 L66.5374815,26.7680564 L62.9122257,26.7680564 L62.9122257,3.45828571 L58.5806561,3.45828571 L58.5806561,0.578567901 Z M45.9319083,0.578567901 L57.3031958,0.578567901 L57.3031958,3.66851499 L49.5568818,3.66851499 L49.5568818,11.5965573 L56.0243245,11.5965573 L56.0243245,14.7581799 L49.5568818,14.7581799 L49.5568818,26.7680564 L45.9319083,26.7680564 L45.9319083,0.578567901 Z M147.080974,2.23444092 L146.8366,2.23444092 L146.8366,1.63846208 L147.124995,1.63846208 C147.417623,1.63846208 147.583266,1.7375097 147.583266,1.92008466 C147.583266,2.15176014 147.457129,2.22964374 147.080974,2.23444092 L147.080974,2.23444092 Z M148.053108,1.90879718 C148.053108,1.51119577 147.78757,1.29024339 147.318293,1.29024339 L146.395541,1.29024339 L146.395541,3.41003175 L146.8366,3.41003175 L146.8366,2.58237743 L146.838293,2.58237743 C146.915048,2.58237743 146.983337,2.58378836 147.083795,2.58322399 L147.517799,3.41003175 L147.997799,3.41003175 L147.497764,2.51126631 C147.838646,2.45087831 148.053108,2.22287125 148.053108,1.90879718 L148.053108,1.90879718 Z M147.156882,4.03394709 C146.23272,4.03394709 145.486899,3.28304762 145.486899,2.35860317 C145.486899,1.42851499 146.23272,0.682694885 147.156882,0.682694885 C148.081044,0.682694885 148.827146,1.42851499 148.827146,2.35860317 C148.827146,3.28304762 148.081044,4.03394709 147.156882,4.03394709 L147.156882,4.03394709 Z M147.151238,0.151901235 C145.935577,0.151901235 144.944536,1.13729806 144.944536,2.35860317 C144.944536,3.57426455 145.935577,4.56474074 147.151238,4.56474074 C148.372825,4.56474074 149.35794,3.57426455 149.35794,2.35860317 C149.35794,1.13729806 148.372825,0.151901235 147.151238,0.151901235 L147.151238,0.151901235 Z" id="Fill-2" fill="#292A21" mask="url(#mask-2)"></path>
                </g>
            </g>
        </g>
    </g>
</svg>