<?xml version="1.0" encoding="UTF-8"?>
<svg width="214px" height="214px" viewBox="0 0 214 214" version="1.1" xmlns="http://www.w3.org/2000/svg" xmlns:xlink="http://www.w3.org/1999/xlink">
    <!-- Generator: Sketch 55.2 (78181) - https://sketchapp.com -->
    <title>ctrl-D_logo</title>
    <desc>Created with Sketch.</desc>
    <defs>
        <polygon id="path-1" points="0 0.0753488372 35.2988372 0.0753488372 35.2988372 38.372093 0 38.372093"></polygon>
        <polygon id="path-3" points="0 39.1387874 149.763787 39.1387874 149.763787 0.000249169435 0 0.000249169435"></polygon>
    </defs>
    <g id="Exports" stroke="none" stroke-width="1" fill="none" fill-rule="evenodd">
        <g id="Homepage-New" transform="translate(-1253.000000, -4966.000000)">
            <g id="Group-12" transform="translate(1285.000000, 5054.000000)">
                <g id="Group-3" transform="translate(0.000000, 0.766694)">
                    <mask id="mask-2" fill="white">
                        <use xlink:href="#path-1"></use>
                    </mask>
                    <g id="Clip-2"></g>
                    <path d="M0,19.3281728 L0,19.2220266 C0,8.49179402 8.2589701,0.0753488372 19.4112957,0.0753488372 C26.9342193,0.0753488372 31.7730897,3.2313289 35.0352159,7.75524917 L27.3553156,13.6999336 C25.2503322,11.0692027 22.8303987,9.38581395 19.3066445,9.38581395 C14.1508306,9.38581395 10.5209302,13.7522591 10.5209302,19.1173754 L10.5209302,19.2220266 C10.5209302,24.746113 14.1508306,29.0607309 19.3066445,29.0607309 C23.1463455,29.0607309 25.4083056,27.2706977 27.6174419,24.5891362 L35.2988372,30.0603987 C31.826412,34.8474419 27.1440199,38.3721927 18.9906977,38.3721927 C8.46976744,38.3721927 0,30.3225249 0,19.3281728" id="Fill-1" fill="#231F20" mask="url(#mask-2)"></path>
                </g>
                <path d="M39.237608,29.5643023 L39.237608,17.9903821 L35.8708306,17.9903821 L35.8708306,9.9422093 L39.237608,9.9422093 L39.237608,2.73523256 L49.233289,2.73523256 L49.233289,9.9422093 L55.861196,9.9422093 L55.861196,17.9903821 L49.233289,17.9903821 L49.233289,27.6162957 C49.233289,29.6166279 50.127309,30.4583223 51.9691694,30.4583223 C53.2842857,30.4583223 54.5470764,30.0890532 55.7565449,29.5119767 L55.7565449,37.3488538 C53.9680066,38.3495183 51.600897,38.9804153 48.812691,38.9804153 C42.8151827,38.9804153 39.237608,36.3501827 39.237608,29.5643023" id="Fill-4" fill="#231F20"></path>
                <path d="M58.5061296,9.94240864 L68.5013123,9.94240864 L68.5013123,15.6762957 C70.1323754,11.7837708 72.7621096,9.25818937 77.4958306,9.46898671 L77.4958306,19.9889203 L76.6546346,19.9889203 C71.4469934,19.9889203 68.5013123,22.9879236 68.5013123,29.5645017 L68.5013123,38.4010465 L58.5061296,38.4010465 L58.5061296,9.94240864 Z" id="Fill-6" fill="#231F20"></path>
                <mask id="mask-4" fill="white">
                    <use xlink:href="#path-3"></use>
                </mask>
                <g id="Clip-9"></g>
                <polygon id="Fill-8" fill="#231F20" mask="url(#mask-4)" points="80.1333887 38.4007475 90.1285714 38.4007475 90.1285714 -0.000249169435 80.1333887 -0.000249169435"></polygon>
                <polygon id="Fill-10" fill="#231F20" mask="url(#mask-4)" points="93.8083056 26.354402 111.062292 26.354402 111.062292 17.5701827 93.8083056 17.5701827"></polygon>
                <path d="M129.14108,29.3535548 C135.244236,29.3535548 139.294734,25.9867774 139.294734,20.042093 L139.294734,19.9374419 C139.294734,14.0445847 135.244236,10.6264784 129.14108,10.6264784 L124.984934,10.6264784 L124.984934,29.3535548 L129.14108,29.3535548 Z M114.77995,1.57813953 L128.984103,1.57813953 C142.135266,1.57813953 149.763837,9.15388704 149.763837,19.7789701 L149.763837,19.8841196 C149.763837,30.5101993 142.030116,38.400897 128.774302,38.400897 L114.77995,38.400897 L114.77995,1.57813953 Z" id="Fill-11" fill="#231F20" mask="url(#mask-4)"></path>
            </g>
        </g>
    </g>
</svg>