<?xml version="1.0" encoding="UTF-8"?>
<svg width="214px" height="214px" viewBox="0 0 214 214" version="1.1" xmlns="http://www.w3.org/2000/svg" xmlns:xlink="http://www.w3.org/1999/xlink">
    <!-- Generator: Sketch 56.3 (81716) - https://sketch.com -->
    <title>Auth0_logo</title>
    <desc>Created with Sketch.</desc>
    <defs>
        <polygon id="path-1" points="0.0132919255 0.0428074534 10.0063354 0.0428074534 10.0063354 45.4658385 0.0132919255 45.4658385"></polygon>
        <polygon id="path-3" points="0 0.0427080745 9.99324224 0.0427080745 9.99324224 45.4658137 0 45.4658137"></polygon>
        <polygon id="path-5" points="0 50.4156522 159.907826 50.4156522 159.907826 0 0 0"></polygon>
    </defs>
    <g id="Exports" stroke="none" stroke-width="1" fill="none" fill-rule="evenodd">
        <g id="Homepage-New" transform="translate(-1767.000000, -5234.000000)">
            <g id="Group-36" transform="translate(1794.000000, 5314.000000)">
                <path d="M30.9631553,21.9651429 L31.0404224,21.9017888 C31.2379379,21.7338385 32.9211677,20.3845217 35.7062609,20.6443975 C35.3889938,23.465764 33.6953292,24.8245217 33.5455155,24.9400497 L33.4598012,25.0051429 C32.618559,25.6893665 31.3770683,25.561913 30.6925963,24.7206708 C30.0130932,23.8851429 30.1350807,22.6520994 30.9631553,21.9651429 M29.2831553,25.8675031 C30.0299876,26.7852671 31.1211677,27.2612919 32.2212919,27.2612919 C33.0602981,27.2612919 33.9045217,26.9845217 34.6053913,26.4155776 L34.6180621,26.4061366 C34.7360745,26.3194286 37.5067578,24.2242733 37.5728447,19.8779379 L37.5845217,19.1154534 L36.8359503,18.9718509 C32.8588075,18.2103602 30.3554534,20.1022857 29.8553292,20.5248944 L29.8217888,20.5512298 C28.2120994,21.8692422 27.9706087,24.254087 29.2831553,25.8675031" id="Fill-1" fill="#010202"></path>
                <path d="M18.0616149,17.3868323 C15.6322981,13.0228571 15.5840994,6.3110559 17.8568944,2.27031056 C23.5262112,4.95627329 27.3050932,11.2929193 27.3258027,15.7878261 C27.3331677,17.4079503 26.8725466,19.4951553 24.811677,20.8198758 C24.4824845,17.6581366 23.7118012,14.5498137 22.562236,12.1229814 L20.9202484,12.9008696 C22.0193789,15.2206211 22.746087,18.2086957 23.0395031,21.2335404 C20.5361491,20.8941615 18.967205,19.0131677 18.0616149,17.3868323 M24.9602484,22.8154037 C27.6757764,21.4884472 29.1575155,19.0101863 29.1428571,15.7796273 C29.1150311,9.76919255 24.0464596,2.81590062 17.8437267,0.279503106 L17.1612422,0 L16.7478261,0.610931677 C13.6899379,5.12670807 13.567205,13.0489441 16.4740373,18.2708075 C18.0814907,21.157764 20.4303106,22.8320497 23.1632298,23.072795 C23.244472,25.2196273 23.0993789,27.3197516 22.7036025,29.1458385 L12.4653416,29.1458385 L12.4653416,30.9627329 L37.8176398,30.9627329 L37.8176398,29.1458385 L24.5572671,29.1458385 C24.931677,27.2203727 25.0591304,25.0380124 24.9602484,22.8154037" id="Fill-3" fill="#010202"></path>
                <g id="Group-7" transform="translate(38.012422, 4.949814)">
                    <mask id="mask-2" fill="white">
                        <use xlink:href="#path-1"></use>
                    </mask>
                    <g id="Clip-6"></g>
                    <polygon id="Fill-5" fill="#010202" mask="url(#mask-2)" points="0.0132919255 1.85970186 8.18944099 1.85970186 8.18944099 43.6490186 0.0132919255 43.6490186 0.0132919255 45.465913 10.0063354 45.465913 10.0063354 0.0428074534 0.0132919255 0.0428074534"></polygon>
                </g>
                <g id="Group-10" transform="translate(0.000000, 4.949814)">
                    <mask id="mask-4" fill="white">
                        <use xlink:href="#path-3"></use>
                    </mask>
                    <g id="Clip-9"></g>
                    <polygon id="Fill-8" fill="#010202" mask="url(#mask-4)" points="-4.9689441e-05 45.4658137 9.99324224 45.4658137 9.99324224 43.6489193 1.81684472 43.6489193 1.81684472 1.85960248 9.99324224 1.85960248 9.99324224 0.0427080745 -4.9689441e-05 0.0427080745"></polygon>
                </g>
                <mask id="mask-6" fill="white">
                    <use xlink:href="#path-5"></use>
                </mask>
                <g id="Clip-12"></g>
                <polygon id="Fill-11" fill="#49B75E" mask="url(#mask-6)" points="12.4653416 35.8896894 31.0176398 35.8896894 31.0176398 34.072795 12.4653416 34.072795"></polygon>
                <polygon id="Fill-13" fill="#010202" mask="url(#mask-6)" points="14.146087 40.816646 25.5667081 40.816646 25.5667081 38.9997516 14.146087 38.9997516"></polygon>
                <polygon id="Fill-14" fill="#010202" mask="url(#mask-6)" points="14.146087 45.7436025 31.0173913 45.7436025 31.0173913 43.9267081 14.146087 43.9267081"></polygon>
                <path d="M64.4736894,28.2919503 L64.4736894,17.288472 L67.212323,17.288472 C68.1576646,17.288472 68.9521988,17.422882 69.5964224,17.6919503 C70.2403975,17.9607702 70.757913,18.3483478 71.1492174,18.853441 C71.5405217,19.3587826 71.8215155,19.9659876 71.9929441,20.6750559 C72.1638758,21.3841242 72.2495901,22.1789068 72.2495901,23.0591553 C72.2495901,24.0211429 72.127354,24.8362981 71.8826335,25.5043727 C71.6381615,26.1731925 71.3119503,26.7148075 70.9047453,27.1304596 C70.4970435,27.5461118 70.0324472,27.8437516 69.5107081,28.022882 C68.9892174,28.2027578 68.4510807,28.2919503 67.896795,28.2919503 L64.4736894,28.2919503 Z M71.6505839,30.8472298 C72.6366708,30.3990311 73.4600248,29.7833789 74.1199006,29.0010186 C74.7800248,28.2186584 75.273441,27.2894658 75.5994037,26.213441 C75.9256149,25.1376646 76.0885963,23.964 76.0885963,22.6924472 C76.0885963,21.241764 75.8885963,19.9781615 75.4895901,18.9023851 C75.0895901,17.8263602 74.5358012,16.9302112 73.8267329,16.2124472 C73.1176646,15.495677 72.277913,14.9575404 71.3082236,14.5987826 C70.3380373,14.2402733 69.2910807,14.0608944 68.1661118,14.0608944 L60.6346832,14.0608944 L60.6346832,31.519528 L68.1661118,31.519528 C69.5025093,31.519528 70.664,31.295677 71.6505839,30.8472298 L71.6505839,30.8472298 Z" id="Fill-15" fill="#010202" mask="url(#mask-6)"></path>
                <path d="M80.7227329,23.8417143 C80.7386335,23.5972422 80.7918012,23.3199752 80.8817391,23.0104099 C80.9711801,22.7008447 81.1262112,22.4074286 81.3463354,22.129913 C81.5664596,21.8531429 81.8596273,21.6208447 82.2265839,21.4332671 C82.5930435,21.2456894 83.0536646,21.1520248 83.6079503,21.1520248 C84.4554037,21.1520248 85.0874534,21.3803478 85.5028571,21.8364969 C85.9187578,22.2931429 86.2079503,22.9614658 86.3711801,23.8417143 L80.7227329,23.8417143 Z M88.4862112,20.8342609 C87.9726708,20.1333913 87.3162733,19.574882 86.517764,19.1589814 C85.7190062,18.7433292 84.7818634,18.5353789 83.7058385,18.5353789 C82.7438509,18.5353789 81.8675776,18.7068075 81.0772671,19.0491677 C80.2864596,19.3912795 79.6057143,19.8600994 79.035528,20.4551304 C78.4645963,21.0504099 78.0245963,21.7552547 77.7150311,22.5701615 C77.4052174,23.3855652 77.2504348,24.2658137 77.2504348,25.2109068 C77.2504348,26.1890435 77.4009938,27.0859379 77.7028571,27.9005963 C78.004472,28.716 78.4320497,29.4166211 78.9865839,30.0034534 C79.5406211,30.5902857 80.2171429,31.0427081 81.0161491,31.3607205 C81.8146584,31.6784845 82.7113043,31.8374907 83.7058385,31.8374907 C85.1401242,31.8374907 86.3627329,31.5117764 87.3736646,30.859354 C88.3840994,30.207677 89.1341615,29.123205 89.6231056,27.6071801 L86.5667081,27.6071801 C86.4524224,27.9984845 86.1426087,28.3696646 85.6375155,28.7197267 C85.1321739,29.0705342 84.5286957,29.245441 83.8280745,29.245441 C82.8501863,29.245441 82.1001242,28.9930186 81.5783851,28.487677 C81.056646,27.9823354 80.7714286,27.1671801 80.7227329,26.0422112 L89.8432298,26.0422112 C89.908323,25.0640745 89.8270807,24.1269317 89.5990062,23.2305342 C89.3704348,22.3341366 88.9997516,21.5351304 88.4862112,20.8342609 L88.4862112,20.8342609 Z" id="Fill-16" fill="#010202" mask="url(#mask-6)"></path>
                <polygon id="Fill-17" fill="#010202" mask="url(#mask-6)" points="98.8462609 18.8778882 96.1806708 27.5096894 96.1319752 27.5096894 93.466882 18.8778882 89.8234037 18.8778882 94.1516025 31.5196273 98.0147081 31.5196273 102.293963 18.8778882"></polygon>
                <path d="M114.018534,21.0050932 C113.830957,21.3474534 113.582261,21.612795 113.272696,21.7998758 C112.962634,21.9874534 112.604373,22.113913 112.196671,22.1790062 C111.788969,22.2443478 111.365366,22.276646 110.925366,22.276646 L107.942012,22.276646 L107.942012,17.0438509 L110.925366,17.0438509 C111.365366,17.0438509 111.788969,17.076646 112.196671,17.1417391 C112.604373,17.2070807 112.962634,17.3337888 113.272696,17.5208696 C113.582261,17.7084472 113.830957,17.9730435 114.018534,18.3154037 C114.205615,18.657764 114.299776,19.1062112 114.299776,19.6602484 C114.299776,20.2147826 114.205615,20.6629814 114.018534,21.0050932 M116.634683,23.5238509 C117.115429,23.0021118 117.466236,22.4031056 117.68636,21.7265839 C117.906236,21.0503106 118.016547,20.3616149 118.016547,19.6602484 C118.016547,18.9432298 117.906236,18.250559 117.68636,17.5819876 C117.466236,16.9136646 117.115429,16.318882 116.634683,15.7968944 C116.153938,15.2754037 115.530335,14.8557764 114.764373,14.537764 C113.997913,14.2197516 113.06872,14.0607453 111.976547,14.0607453 L104.103006,14.0607453 L104.103006,31.5196273 L107.942012,31.5196273 L107.942012,25.26 L111.976547,25.26 C113.06872,25.26 113.997913,25.1009938 114.764373,24.7832298 C115.530335,24.4652174 116.153938,24.0455901 116.634683,23.5238509" id="Fill-18" fill="#010202" mask="url(#mask-6)"></path>
                <polygon id="Fill-19" fill="#010202" mask="url(#mask-6)" points="119.618385 31.5195031 123.090683 31.5195031 123.090683 14.0608696 119.618385 14.0608696"></polygon>
                <path d="M133.352298,26.629118 C133.352298,26.8248944 133.331677,27.085764 133.29118,27.4117267 C133.250435,27.7379379 133.140124,28.059677 132.960994,28.3776894 C132.781615,28.6954534 132.504596,28.9687453 132.129938,29.1965714 C131.754286,29.4251429 131.225093,29.5389317 130.540373,29.5389317 C130.262857,29.5389317 129.994037,29.5145839 129.733665,29.4656398 C129.472547,29.4166957 129.244472,29.3309814 129.048944,29.2089938 C128.853168,29.0867578 128.698137,28.9195528 128.584348,28.7076273 C128.470062,28.4961988 128.412919,28.2348323 128.412919,27.9252671 C128.412919,27.5993043 128.470062,27.3304845 128.584348,27.1183106 C128.698137,26.9066335 128.848944,26.7312298 129.036522,26.5925963 C129.223851,26.4542112 129.443975,26.3441491 129.696646,26.2624099 C129.949317,26.1811677 130.206211,26.1158261 130.467081,26.066882 C130.743851,26.0179379 131.02087,25.9771925 131.298385,25.9443975 C131.575404,25.9120994 131.84,25.8711056 132.093168,25.8221615 C132.34559,25.7734658 132.581863,25.7123478 132.802236,25.6390559 C133.02236,25.5655155 133.205466,25.4639006 133.352298,25.3332174 L133.352298,26.629118 Z M133.584845,30.9205466 C133.625093,31.1245217 133.678261,31.3240248 133.743602,31.5195528 L137.264596,31.5195528 C137.101366,31.2591801 136.987329,30.8678758 136.922236,30.3458882 C136.856894,29.8243975 136.824596,29.278559 136.824596,28.7076273 L136.824596,22.1299876 C136.824596,21.3640248 136.653416,20.7486211 136.311056,20.2837764 C135.968696,19.8191801 135.528696,19.4566957 134.990559,19.1958261 C134.452671,18.935205 133.857391,18.7598012 133.205466,18.6701118 C132.553292,18.5806708 131.909565,18.5354534 131.274037,18.5354534 C130.572671,18.5354534 129.876025,18.6052671 129.183354,18.7434037 C128.490186,18.8820373 127.866584,19.1143354 127.312547,19.4400497 C126.758261,19.7665093 126.301615,20.1983106 125.943354,20.7361988 C125.584348,21.274087 125.381118,21.9506087 125.331925,22.765764 L128.804224,22.765764 C128.869317,22.0810435 129.09764,21.5920994 129.488944,21.2986832 C129.880248,21.0050186 130.417888,20.8584348 131.102609,20.8584348 C131.412174,20.8584348 131.701615,20.8790559 131.970683,20.9198012 C132.239752,20.9605466 132.476025,21.0420373 132.68,21.1640248 C132.883478,21.2865093 133.046708,21.457441 133.169193,21.6775652 C133.29118,21.8979379 133.352298,22.1953292 133.352298,22.570236 C133.368447,22.9287453 133.262609,23.2020373 133.034534,23.3893665 C132.805963,23.5769441 132.496646,23.7193043 132.105093,23.8171925 C131.714037,23.9150807 131.26559,23.9886211 130.760248,24.0373168 C130.254907,24.0862609 129.741615,24.1516025 129.219876,24.2328447 C128.698137,24.3145839 128.18087,24.424646 127.667081,24.5630311 C127.153789,24.7016646 126.697143,24.9096149 126.29764,25.1866335 C125.898385,25.4639006 125.572422,25.8345839 125.319752,26.2991801 C125.066832,26.7637764 124.941118,27.3545839 124.941118,28.0718509 C124.941118,28.7240248 125.050932,29.2862609 125.271056,29.7593043 C125.490932,30.2318509 125.796522,30.6234037 126.187826,30.9327205 C126.57913,31.2425342 127.035031,31.4708571 127.557267,31.617441 C128.078509,31.7640248 128.641242,31.8375652 129.244472,31.8375652 C130.026832,31.8375652 130.792795,31.7232795 131.542857,31.4949565 C132.292422,31.2671304 132.944596,30.8678758 133.49913,30.2969441 C133.515031,30.509118 133.543851,30.7168199 133.584845,30.9205466 L133.584845,30.9205466 Z" id="Fill-20" fill="#010202" mask="url(#mask-6)"></path>
                <path d="M150.848174,31.5195776 L150.848174,23.7439255 C150.848174,22.9613168 150.778857,22.2485217 150.640472,21.6042981 C150.50159,20.9605714 150.261342,20.4147329 149.918981,19.9660373 C149.576621,19.5178385 149.10805,19.167528 148.513019,18.9146087 C147.917739,18.6619379 147.156,18.5354783 146.226807,18.5354783 C145.492894,18.5354783 144.775876,18.7029317 144.074758,19.0368447 C143.373888,19.3712547 142.803205,19.9046708 142.363205,20.6383354 L142.289913,20.6383354 L142.289913,18.8778385 L138.989043,18.8778385 L138.989043,31.5195776 L142.461093,31.5195776 L142.461093,24.8932422 C142.461093,23.6055404 142.67277,22.6800745 143.09687,22.1178385 C143.520472,21.555354 144.205193,21.2741118 145.150783,21.2741118 C145.982087,21.2741118 146.56072,21.5307578 146.886932,22.0445466 C147.212894,22.558087 147.375876,23.3367205 147.375876,24.3794534 L147.375876,31.5195776 L150.848174,31.5195776 Z" id="Fill-21" fill="#010202" mask="url(#mask-6)"></path>
                <path d="M159.907752,21.2008944 L159.907752,18.877913 L157.364894,18.877913 L157.364894,15.0880994 L153.892348,15.0880994 L153.892348,18.877913 L151.789491,18.877913 L151.789491,21.2008944 L153.892348,21.2008944 L153.892348,28.6587826 C153.892348,29.294559 153.998186,29.8080994 154.21036,30.1994037 C154.422037,30.5902112 154.711478,30.892323 155.078435,31.104 C155.445143,31.3159255 155.868745,31.4585342 156.349988,31.5318261 C156.830484,31.605118 157.340298,31.6418882 157.878186,31.6418882 C158.220298,31.6418882 158.570857,31.633441 158.929615,31.6175404 C159.288124,31.6008944 159.614335,31.5683478 159.907752,31.5196522 L159.907752,28.8299627 C159.744522,28.8627578 159.573093,28.8871056 159.394211,28.9032547 C159.214584,28.9196522 159.027255,28.9278509 158.831727,28.9278509 C158.245143,28.9278509 157.85359,28.8299627 157.658062,28.6344348 C157.462286,28.4386584 157.364894,28.047354 157.364894,27.4605217 L157.364894,21.2008944 L159.907752,21.2008944 Z" id="Fill-22" fill="#010202" mask="url(#mask-6)"></path>
                <polygon id="Fill-23" fill="#49B75E" mask="url(#mask-6)" points="60.2134658 43.4839752 63.0604224 37.3845963 63.9150807 37.3845963 61.0681242 43.4839752"></polygon>
                <polygon id="Fill-24" fill="#49B75E" mask="url(#mask-6)" points="63.2268571 43.4839752 66.0738137 37.3845963 66.928472 37.3845963 64.0815155 43.4839752"></polygon>
                <path d="M69.6304348,42.6219379 C69.3457143,42.6219379 69.0880745,42.5712547 68.8590062,42.4698882 C68.6296894,42.3685217 68.438882,42.2346087 68.2868323,42.0679006 C68.1345342,41.901441 68.0078261,41.7031801 67.9064596,41.4738634 C67.8050932,41.2445466 67.7325466,41.0077764 67.6893168,40.7640497 C67.6458385,40.520323 67.6239752,40.2676522 67.6239752,40.0070311 C67.6239752,39.6880248 67.6612422,39.3804472 67.7362733,39.0833043 C67.8110559,38.7864099 67.9258385,38.508646 68.0803727,38.2502609 C68.2349068,37.9918758 68.4450932,37.7841739 68.7104348,37.6274037 C68.9760248,37.4703851 69.2828571,37.3918758 69.6304348,37.3918758 C70.0267081,37.3918758 70.3573913,37.4932422 70.6229814,37.6962236 C70.888323,37.8989565 71.0818634,38.1498882 71.2023602,38.449764 L70.4344099,38.8189565 C70.3285714,38.6159752 70.2137888,38.4639255 70.090559,38.362559 C69.9673292,38.2611925 69.8140373,38.2105093 69.6304348,38.2105093 C69.3695652,38.2105093 69.1524224,38.3071553 68.9785093,38.5004472 C68.8045963,38.6934907 68.6836025,38.9193292 68.6162733,39.1774658 C68.5486957,39.4358509 68.5151553,39.7126211 68.5151553,40.0070311 C68.5151553,40.4850435 68.6113043,40.9041739 68.8045963,41.263677 C68.9976398,41.6234286 69.2731677,41.8035528 69.6304348,41.8035528 C69.968323,41.8035528 70.238882,41.5861615 70.4418634,41.1513789 L71.2239752,41.4485217 C70.9054658,42.230882 70.3740373,42.6219379 69.6304348,42.6219379" id="Fill-25" fill="#49B75E" mask="url(#mask-6)"></path>
                <path d="M74.0056646,41.8324224 C74.3050435,41.8324224 74.5358509,41.7308075 74.6973416,41.5280745 C74.8593292,41.3253416 74.9400745,41.0475776 74.9400745,40.6950311 C74.9400745,40.3427329 74.8593292,40.0624845 74.6973416,39.8547826 C74.5358509,39.6473292 74.3050435,39.5432298 74.0056646,39.5432298 C73.7107578,39.5432298 73.4816894,39.6473292 73.3172174,39.8547826 C73.1529938,40.0624845 73.0712547,40.3427329 73.0712547,40.6950311 C73.0712547,41.0428571 73.1529938,41.3193789 73.3172174,41.5245963 C73.4816894,41.7298137 73.7107578,41.8324224 74.0056646,41.8324224 M74.0056646,42.6291925 C73.4598261,42.6291925 73.027528,42.4565217 72.7087702,42.1111801 C72.3902609,41.7658385 72.2307578,41.2940373 72.2307578,40.6950311 C72.2307578,40.1012422 72.3902609,39.6291925 72.7087702,39.278882 C73.027528,38.9288199 73.4598261,38.7536646 74.0056646,38.7536646 C74.5562236,38.7536646 74.9895155,38.9288199 75.3057888,39.278882 C75.6223106,39.6291925 75.7805714,40.1012422 75.7805714,40.6950311 C75.7805714,41.2890683 75.6223106,41.7598758 75.3057888,42.1074534 C74.9895155,42.4552795 74.5562236,42.6291925 74.0056646,42.6291925" id="Fill-26" fill="#49B75E" mask="url(#mask-6)"></path>
                <path d="M77.2944348,42.5423602 L76.3453665,38.8407453 L77.0986584,38.8407453 L77.5694658,40.7458385 C77.6032547,40.8906832 77.6276025,41.0114286 77.641764,41.1080745 C77.6710807,40.9341615 77.6926957,40.8111801 77.7071056,40.7386335 L78.1490932,38.8407453 L78.7866087,38.8407453 L79.2283478,40.7458385 C79.2524472,40.8231056 79.276795,40.9463354 79.300646,41.1152795 C79.3153043,41.013913 79.3394037,40.8906832 79.3731925,40.7458385 L79.8295901,38.8407453 L80.5903354,38.8407453 L79.6340621,42.5423602 L78.996795,42.5423602 L78.5692174,40.6879503 C78.5401491,40.5719255 78.5063602,40.4029814 78.4678509,40.1808696 C78.4581615,40.2437267 78.4375404,40.3413665 78.406236,40.4742857 C78.3749317,40.6069565 78.3565466,40.6782609 78.3518261,40.6879503 L77.9461118,42.5423602 L77.2944348,42.5423602 Z" id="Fill-27" fill="#49B75E" mask="url(#mask-6)"></path>
                <path d="M82.9301118,41.8324224 C83.2294907,41.8324224 83.4600497,41.7308075 83.6217888,41.5280745 C83.783528,41.3253416 83.8645217,41.0475776 83.8645217,40.6950311 C83.8645217,40.3427329 83.783528,40.0624845 83.6217888,39.8547826 C83.4600497,39.6473292 83.2294907,39.5432298 82.9301118,39.5432298 C82.635205,39.5432298 82.4061366,39.6473292 82.2416646,39.8547826 C82.077441,40.0624845 81.9957019,40.3427329 81.9957019,40.6950311 C81.9957019,41.0428571 82.077441,41.3193789 82.2416646,41.5245963 C82.4061366,41.7298137 82.635205,41.8324224 82.9301118,41.8324224 M82.9301118,42.6291925 C82.3842733,42.6291925 81.9519752,42.4565217 81.6332174,42.1111801 C81.3147081,41.7658385 81.155205,41.2940373 81.155205,40.6950311 C81.155205,40.1012422 81.3147081,39.6291925 81.6332174,39.278882 C81.9519752,38.9288199 82.3842733,38.7536646 82.9301118,38.7536646 C83.4806708,38.7536646 83.9139627,38.9288199 84.230236,39.278882 C84.5467578,39.6291925 84.7047702,40.1012422 84.7047702,40.6950311 C84.7047702,41.2890683 84.5467578,41.7598758 84.230236,42.1074534 C83.9139627,42.4552795 83.4806708,42.6291925 82.9301118,42.6291925" id="Fill-28" fill="#49B75E" mask="url(#mask-6)"></path>
                <path d="M88.3554286,38.753764 C88.6888447,38.753764 88.9785342,38.8191056 89.2247453,38.9492919 L89.2247453,40.3184845 L88.4133168,40.3184845 L88.4133168,39.5289193 L88.3410186,39.5289193 C87.9594037,39.5289193 87.6649938,39.6181118 87.4572919,39.7967453 C87.2495901,39.9756273 87.1459876,40.2437019 87.1459876,40.6009689 L87.1459876,41.8106584 L88.181764,41.8106584 L88.181764,42.5423354 L85.5303354,42.5423354 L85.5303354,41.8106584 L86.3126957,41.8106584 L86.3126957,39.5723975 L85.5303354,39.5723975 L85.5303354,38.8407205 L87.0878509,38.8407205 L87.0878509,39.4347578 C87.1894658,39.2223354 87.3561739,39.0556273 87.5877267,38.934882 C87.819528,38.8141366 88.0754286,38.753764 88.3554286,38.753764" id="Fill-29" fill="#49B75E" mask="url(#mask-6)"></path>
                <polygon id="Fill-30" fill="#49B75E" mask="url(#mask-6)" points="92.7020621 42.5423602 91.6444224 40.4993789 91.0938634 41.028323 91.0938634 42.5423602 90.2610683 42.5423602 90.2610683 37.703354 91.0938634 37.3122981 91.0938634 40.1085714 92.3833043 38.8407453 93.3758509 38.8407453 92.2600745 39.9130435 93.6146087 42.5423602"></polygon>
                <path d="M97.9393292,42.6292174 C97.5288944,42.6292174 97.159205,42.5109565 96.8307578,42.2744348 C96.502559,42.037913 96.2705093,41.7213913 96.135354,41.3253665 L96.9179627,41.035677 C97.0287702,41.2721988 97.1823106,41.461764 97.3775901,41.6043727 C97.573118,41.7467329 97.7845466,41.8177888 98.0116273,41.8177888 C98.2337391,41.8177888 98.4123727,41.7599006 98.5477764,41.6441242 C98.6829317,41.5280994 98.7505093,41.3613913 98.7505093,41.1442484 C98.7505093,40.9608944 98.6588323,40.7976646 98.4752298,40.6553043 C98.2916273,40.5129441 98.0357267,40.3690932 97.7072795,40.2242484 C97.4995776,40.1325714 97.333118,40.0530683 97.2076522,39.9852422 C97.0819379,39.9176646 96.9405714,39.8235031 96.7838012,39.7027578 C96.6267826,39.5820124 96.509764,39.4396522 96.4324969,39.2751801 C96.3552298,39.111205 96.3167205,38.9278509 96.3167205,38.7248696 C96.3167205,38.3482236 96.4600745,38.0307081 96.747528,37.772323 C97.0347329,37.5139379 97.4128696,37.3847453 97.881441,37.3847453 C98.253118,37.3847453 98.5775901,37.4861118 98.8556025,37.6890932 C99.1333665,37.8915776 99.3179627,38.1499627 99.4096398,38.464 L98.6347329,38.7248696 C98.4608199,38.372323 98.1927453,38.1959255 97.8307578,38.1959255 C97.6421863,38.1959255 97.4876522,38.2443727 97.3669068,38.3407702 C97.2461615,38.4374161 97.1857888,38.5703354 97.1857888,38.7392795 C97.1857888,38.7780373 97.1905093,38.8153043 97.2001988,38.8515776 C97.2096398,38.8876025 97.2270311,38.9216398 97.250882,38.9529441 C97.2749814,38.9844969 97.298087,39.0135652 97.3199503,39.0399006 C97.3415652,39.0664845 97.3751056,39.0953043 97.4213168,39.1268571 C97.4672795,39.1584099 97.5057888,39.1835031 97.5370932,39.202882 C97.568646,39.2222609 97.6156025,39.2476025 97.6784596,39.2789068 C97.7410683,39.3104596 97.7892671,39.3333168 97.8233043,39.3477267 C97.8568447,39.3621366 97.9127453,39.3877267 97.989764,39.4237516 C98.0672795,39.4600248 98.1224348,39.4853665 98.156472,39.4997764 C98.359205,39.5917019 98.5283975,39.6774161 98.6635528,39.7569193 C98.7987081,39.8366708 98.9485217,39.941764 99.1127453,40.0721988 C99.2767205,40.2026335 99.4026832,40.3569193 99.4893913,40.5355528 C99.5763478,40.7144348 99.6198261,40.9102112 99.6198261,41.1226335 C99.6198261,41.5859876 99.4565963,41.9531925 99.1306335,42.2237516 C98.8046708,42.4940621 98.4076522,42.6292174 97.9393292,42.6292174" id="Fill-31" fill="#49B75E" mask="url(#mask-6)"></path>
                <path d="M102.372323,41.8324224 C102.657043,41.8324224 102.878161,41.7345342 103.03518,41.5390062 C103.192199,41.3432298 103.27046,41.062236 103.27046,40.6950311 C103.27046,40.3427329 103.192199,40.0624845 103.03518,39.8547826 C102.878161,39.6473292 102.654807,39.5432298 102.365118,39.5432298 C102.017292,39.5432298 101.756422,39.6664596 101.582758,39.9129193 L101.582758,41.4629814 C101.756422,41.7091925 102.019776,41.8324224 102.372323,41.8324224 L102.372323,41.8324224 Z M100.749963,43.9981366 L100.749963,38.8406211 L101.582758,38.8406211 L101.582758,39.1231056 C101.80959,38.8768944 102.111453,38.7536646 102.488348,38.7536646 C102.985491,38.7536646 103.380522,38.9250932 103.672447,39.2679503 C103.964621,39.6110559 104.110708,40.0865839 104.110708,40.6950311 C104.110708,41.2890683 103.960149,41.7598758 103.658037,42.1074534 C103.356174,42.4552795 102.968596,42.6291925 102.495553,42.6291925 C102.108969,42.6291925 101.80487,42.5012422 101.582758,42.2453416 L101.582758,43.6142857 L100.749963,43.9981366 Z" id="Fill-32" fill="#49B75E" mask="url(#mask-6)"></path>
                <path d="M106.67528,41.8976894 C107.022857,41.8976894 107.315031,41.7744596 107.551801,41.528 L107.551801,41.050236 C107.329689,40.9389317 107.066335,40.8832795 106.762484,40.8832795 C106.530435,40.8832795 106.338634,40.9267578 106.186335,41.0137143 C106.034286,41.1009193 105.958012,41.2286211 105.958012,41.3978137 C105.958012,41.5476273 106.020621,41.6683727 106.146584,41.7600497 C106.27205,41.8517267 106.448199,41.8976894 106.67528,41.8976894 M106.52323,42.629118 C106.117516,42.629118 105.787826,42.5230311 105.53441,42.3106087 C105.280994,42.0981863 105.154037,41.7938385 105.154037,41.3978137 C105.154037,40.9970683 105.29913,40.6927205 105.58882,40.4850186 C105.878261,40.2775652 106.226087,40.1734658 106.631553,40.1734658 C106.984348,40.1734658 107.290932,40.2388075 107.551801,40.3692422 L107.551801,40.1518509 C107.551801,39.7076273 107.308075,39.4855155 106.820124,39.4855155 C106.41441,39.4855155 106.023354,39.6109814 105.64646,39.8621615 L105.393292,39.1811677 C105.841988,38.8961988 106.342112,38.7538385 106.892671,38.7538385 C107.872795,38.7538385 108.36323,39.2171925 108.36323,40.144646 L108.36323,42.5424099 L107.551801,42.5424099 L107.551801,42.252472 C107.290932,42.5036522 106.948075,42.629118 106.52323,42.629118" id="Fill-33" fill="#49B75E" mask="url(#mask-6)"></path>
                <path d="M111.340199,42.6292174 C110.81846,42.6292174 110.40554,42.4580373 110.101441,42.1149317 C109.797342,41.7720745 109.645043,41.2987826 109.645043,40.6950559 C109.645043,40.0965466 109.801068,39.6230062 110.112373,39.2751801 C110.423925,38.9278509 110.838087,38.7536894 111.354857,38.7536894 C112.141689,38.7536894 112.649019,39.0893416 112.876099,39.760646 L112.086286,40.0287205 C111.960571,39.7052422 111.719081,39.5432547 111.362062,39.5432547 C111.086534,39.5432547 110.87287,39.647354 110.72082,39.8548075 C110.569019,40.0625093 110.492745,40.3427578 110.492745,40.6950559 C110.492745,41.0476025 110.569019,41.3253665 110.72082,41.5280994 C110.87287,41.7308323 111.081814,41.8324472 111.347404,41.8324472 C111.733739,41.8324472 111.987155,41.6513292 112.108149,41.2890932 L112.897714,41.5353043 C112.675354,42.2644969 112.156099,42.6292174 111.340199,42.6292174" id="Fill-34" fill="#49B75E" mask="url(#mask-6)"></path>
                <path d="M114.860447,40.3039006 L116.599081,40.3039006 C116.574733,40.0335901 116.489267,39.8293665 116.341938,39.6917267 C116.194609,39.554087 116.017217,39.4855155 115.809516,39.4855155 C115.543925,39.4855155 115.330261,39.5578137 115.168522,39.7026584 C115.006534,39.8475031 114.903925,40.048 114.860447,40.3039006 M117.417714,40.5066335 C117.417714,40.7193043 117.407776,40.8884969 117.388894,41.0137143 L114.867652,41.0137143 C114.92082,41.2845217 115.028398,41.4979379 115.190137,41.6549565 C115.351876,41.8119752 115.560571,41.8904845 115.816969,41.8904845 C116.140199,41.8904845 116.413242,41.7694907 116.635602,41.528 L117.134981,42.0569441 C116.787404,42.438559 116.345665,42.629118 115.809516,42.629118 C115.263925,42.629118 114.83287,42.4529689 114.516348,42.1001739 C114.200323,41.7478758 114.041814,41.2770683 114.041814,40.6877516 C114.041814,40.0892422 114.201317,39.6169441 114.520075,39.2716025 C114.838832,38.9267578 115.268646,38.7538385 115.809516,38.7538385 C116.283056,38.7538385 116.668894,38.9021615 116.968522,39.1993043 C117.267901,39.4961988 117.417714,39.9322236 117.417714,40.5066335" id="Fill-35" fill="#49B75E" mask="url(#mask-6)"></path>
            </g>
        </g>
    </g>
</svg>