<?xml version="1.0" encoding="utf-8"?>
<!-- Generator: Adobe Illustrator 25.1.0, SVG Export Plug-In . SVG Version: 6.00 Build 0)  -->
<svg version="1.1" id="Layer_1" xmlns="http://www.w3.org/2000/svg" xmlns:xlink="http://www.w3.org/1999/xlink" x="0px" y="0px"
	 viewBox="0 0 214 214" style="enable-background:new 0 0 214 214;" xml:space="preserve">
<style type="text/css">
	.st0{fill:#4D4D4D;}
	.st1{fill:url(#SVGID_1_);}
	.st2{fill:url(#SVGID_2_);}
	.st3{fill:url(#SVGID_3_);}
</style>
<desc>Created with Sketch.</desc>
<g>
	<path class="st0" d="M130.3,117.5v-4.7c0-8.1-4.5-12.4-12.9-12.4H109V130h8.4C125.9,130.1,130.3,125.8,130.3,117.5z M117.1,104.2
		c6.4,0,9,2.5,9,8.6v4.7c0,6.1-2.7,8.7-9,8.7h-3.9v-22L117.1,104.2L117.1,104.2z M139.1,115.4l4.9,2.2c3.2,1.4,3.7,2.7,3.7,4.7
		c0,3.1-1.7,4.5-5.6,4.5c-3.5,0-6.4-0.3-8.2-0.5l-0.4,0v3.4l0.2,0c1.2,0.3,4.9,0.8,8.3,0.8c6.4,0,9.9-2.9,9.9-8.2
		c0-4-1.8-6.4-6.2-8.4l-5-2.2c-3.1-1.4-3.7-2.6-3.7-4.5c0-2.6,1.6-3.6,5.6-3.6c3,0,6.4,0.4,7.8,0.5l0.4,0v-3.4l-0.2,0
		c-1.1-0.3-4.5-0.8-8-0.8c-6.5,0-9.7,2.4-9.7,7.3C132.9,111.1,134.7,113.4,139.1,115.4z M99.5,141.8l-5-2.2
		c-3.1-1.4-3.7-2.6-3.7-4.5c0-2.6,1.6-3.6,5.6-3.6c3.1,0,6.7,0.4,7.8,0.5l0.4,0v-3.4l-0.2,0c-1-0.3-4.5-0.8-8-0.8
		c-6.5,0-9.7,2.4-9.7,7.3c0,3.9,1.8,6.2,6.1,8.1l4.9,2.2c3.2,1.4,3.7,2.7,3.7,4.7c0,3.1-1.7,4.5-5.6,4.5c-3.5,0-6.4-0.3-8.2-0.5
		l-0.4,0v3.4l0.2,0c1.2,0.3,4.9,0.8,8.3,0.8c6.4,0,9.9-2.8,9.9-8.2C105.7,146.2,103.9,143.7,99.5,141.8L99.5,141.8z M130.3,135.2
		c-2.1,0-4.2,0.7-6.5,2.2c-1-1.5-2.5-2.2-4.8-2.2c-2.5,0-4.6,1-6,1.9v-1.4h-4.1v22.1h4.1v-17.3c1.4-0.8,3.5-1.8,5.2-1.8
		c2.6,0,2.6,1.4,2.6,4.5v14.6h4.1v-14.5c0-0.9,0-1.9-0.1-2.8c1.8-1,3.7-1.6,5.1-1.6c2.9,0,2.9,1.4,2.9,4.5v14.6h4.1v-14.6
		C136.8,140,136.8,135.2,130.3,135.2z M141.3,135.7h4.1v22.1h-4.1V135.7z M156.6,130.2h-4.1v5.6h-4.3v3.2l4.3,0.3v13.3
		c0,4.2,1.5,5.8,5.6,5.8c1.7,0,3.5-0.4,4-0.6l0.2-0.1v-3l-0.4,0c-0.7,0.1-2.3,0.2-3.5,0.2c-1.8,0-1.8-0.1-1.8-2.5v-13.2h5.7v-3.6
		h-5.7L156.6,130.2L156.6,130.2z M176,135.2c-2.3,0-4.5,0.5-6.6,1.6V127h-4.1v30.9h4.1v-17.6c1.5-0.7,3.8-1.4,5.9-1.4
		c2.5,0,3.7,0.7,3.7,5.1v13.9h4.1v-14C183.1,138,180.7,135.2,176,135.2L176,135.2z"/>
	
		<radialGradient id="SVGID_1_" cx="-191.8444" cy="494.7917" r="2.0134" gradientTransform="matrix(37.21 0 0 -37.21 7169.8618 18465.8398)" gradientUnits="userSpaceOnUse">
		<stop  offset="0.2384" style="stop-color:#E7B041"/>
		<stop  offset="0.8817" style="stop-color:#C7352D"/>
	</radialGradient>
	<path class="st1" d="M67.9,55.6H31c0,6.8,1.8,13.1,5,18.6c6.4,11.1,18.3,18.6,32,18.6s25.6-7.5,32-18.6
		C93.5,63.1,81.6,55.6,67.9,55.6z"/>
	
		<linearGradient id="SVGID_2_" gradientUnits="userSpaceOnUse" x1="-193.6994" y1="497.6524" x2="-194.7057" y2="497.0053" gradientTransform="matrix(68.979 0 0 -55.583 13459.8887 27744.4395)">
		<stop  offset="9.999999e-02" style="stop-color:#C9382F"/>
		<stop  offset="0.1968" style="stop-color:#D15734"/>
		<stop  offset="0.4753" style="stop-color:#E7AE40"/>
		<stop  offset="0.9" style="stop-color:#C9382F"/>
	</linearGradient>
	<path class="st2" d="M69.6,96c16.6,0,26-8.5,30.3-21.8c-6.4,11.1-18.3,18.6-32,18.6s-25.6,7.5-32,18.6c-3.1,5.4-4.9,11.7-5,18.4
		c1-5.5,4-10.6,6.6-15.2C44,103.5,55.9,96,69.6,96z"/>
	
		<radialGradient id="SVGID_3_" cx="-192.9708" cy="497.8333" r="1.2534" gradientTransform="matrix(55.8145 0 0 -55.815 10870.1494 27861.3672)" gradientUnits="userSpaceOnUse">
		<stop  offset="0.2384" style="stop-color:#E7AE40"/>
		<stop  offset="0.8517" style="stop-color:#C9382F"/>
	</radialGradient>
	<path class="st3" d="M100.5,75.3c-0.2-0.4-0.4-0.7-0.6-1.1C95.6,87.5,86.2,96,69.6,96c-13.7,0-25.6,7.5-32,18.6
		c-2.6,4.5-5.7,9.7-6.6,15.2v0.2h36.9c13.7,0,25.6-7.5,32-18.6c3.1-5.5,5-11.8,5-18.6C104.9,86.4,103.3,80.5,100.5,75.3z"/>
</g>
</svg>
