<?xml version="1.0" encoding="utf-8"?>
<!-- Generator: Adobe Illustrator 25.1.0, SVG Export Plug-In . SVG Version: 6.00 Build 0)  -->
<svg version="1.1" id="Layer_1" xmlns="http://www.w3.org/2000/svg" xmlns:xlink="http://www.w3.org/1999/xlink" x="0px" y="0px"
	 viewBox="0 0 214 214" style="enable-background:new 0 0 214 214;" xml:space="preserve">
<style type="text/css">
	.st0{fill-rule:evenodd;clip-rule:evenodd;fill:url(#SVGID_1_);}
	.st1{fill-rule:evenodd;clip-rule:evenodd;fill:url(#SVGID_2_);}
	.st2{fill:url(#SVGID_3_);}
	.st3{fill:url(#SVGID_4_);}
	.st4{fill:url(#SVGID_5_);}
	.st5{fill:url(#SVGID_6_);}
	.st6{fill:url(#SVGID_7_);}
	.st7{fill-rule:evenodd;clip-rule:evenodd;fill:url(#SVGID_8_);}
	.st8{fill:url(#SVGID_9_);}
	.st9{fill-rule:evenodd;clip-rule:evenodd;fill:url(#SVGID_10_);}
	.st10{fill:url(#SVGID_11_);}
	.st11{fill:url(#SVGID_12_);}
	.st12{fill:url(#SVGID_13_);}
	.st13{fill:url(#SVGID_14_);}
	.st14{fill:#333333;}
	.st15{fill-rule:evenodd;clip-rule:evenodd;fill:#333333;}
</style>
<desc>Created with Sketch.</desc>
<linearGradient id="SVGID_1_" gradientUnits="userSpaceOnUse" x1="37.7713" y1="141.217" x2="37.7713" y2="79.217" gradientTransform="matrix(1 0 0 -1 0 216)">
	<stop  offset="0" style="stop-color:#318BE0"/>
	<stop  offset="1" style="stop-color:#1F69BA"/>
</linearGradient>
<path class="st0" d="M37.8,74.8c12.5,0,23.7,7.5,28.5,19.1c4.8,11.6,2.1,24.9-6.7,33.8c-8.8,8.9-22.1,11.5-33.6,6.7
	c-11.5-4.8-19-16.1-19-28.6C7,88.7,20.8,74.8,37.8,74.8z M36.9,120.1v6.1h10.4c0.7,0,1.4-0.1,2-0.3c0.7-0.2,1.3-0.5,1.9-1
	c0.5-0.4,0.8-0.9,1.1-1.5c0.3-0.8,0.5-1.7,0.5-2.6v-13.8h7.7v-6.8h-23v6.8H45v10.2c0,0.4,0,0.7-0.1,1.1c-0.1,0.4-0.3,0.8-0.6,1.1
	c-0.3,0.3-0.6,0.5-1,0.6c-0.3,0.1-0.7,0.1-1,0.1L36.9,120.1z M33.1,126.2v-6.1h-0.6c-1.5,0-3.1-0.3-4.5-0.8
	c-1.5-0.7-2.7-1.9-3.3-3.4c-0.5-1-0.9-2.1-1-3.3c-0.2-0.8-0.3-1.8-0.4-2.9c-0.1-1.3-0.2-2.6-0.2-3.9c0-1.3,0-2.6,0.2-3.8
	c0.1-1.1,0.3-2,0.4-2.8c0.1-0.7,0.3-1.3,0.5-1.9c0.2-0.4,0.3-0.9,0.6-1.3c0.8-1.4,2-2.6,3.4-3.3c1.7-0.8,3.6-1.2,5.6-1.1h18v-6.3
	H31.6c-3.4-0.1-6.9,0.7-9.8,2.5c-1.4,0.9-2.7,2.1-3.6,3.5c-0.9,1.4-1.5,2.9-2,4.5c-0.4,1.6-0.7,3.3-0.9,5c-0.1,1.7-0.2,3.4-0.2,5.1
	c0,1.4,0,2.9,0.2,4.5c0.1,1.5,0.3,3.1,0.7,4.6c0.3,1.5,0.9,2.9,1.6,4.3c0.7,1.4,1.7,2.6,2.9,3.6c1.1,0.9,2.4,1.6,3.7,2.2
	c1.8,0.7,3.8,1.1,5.7,1L33.1,126.2z"/>
<linearGradient id="SVGID_2_" gradientUnits="userSpaceOnUse" x1="141.2962" y1="141.217" x2="141.2962" y2="79.217" gradientTransform="matrix(1 0 0 -1 0 216)">
	<stop  offset="0" style="stop-color:#318BE0"/>
	<stop  offset="1" style="stop-color:#1F69BA"/>
</linearGradient>
<path class="st1" d="M202.8,95.4c-0.1,0.1-0.1,0.3-0.2,0.4l-5.1,13.6c-0.2,0.4-0.3,0.7-0.4,1c-0.1,0.3-0.3,0.5-0.5,0.8
	c-0.2,0.2-0.5,0.4-0.8,0.5c-0.4,0.1-0.7,0.2-1.1,0.2c-0.4,0-0.8-0.1-1.2-0.2c-0.3-0.1-0.6-0.3-0.8-0.5c-0.2-0.2-0.4-0.5-0.5-0.8
	c-0.1-0.3-0.3-0.6-0.4-1l-5-13.5c0-0.1-0.1-0.3-0.2-0.4l0,0c-0.1-0.2-0.1-0.2-0.3-0.2c-0.2,0-0.3,0.1-0.3,0.3v0.3l0.1,15.8h-3.7
	V93.7c0-0.5,0.1-1.1,0.4-1.5c0.2-0.3,0.6-0.6,0.9-0.8c0.3-0.2,0.7-0.3,1-0.3h0.7c0.5,0,1,0.1,1.4,0.2c0.3,0.1,0.7,0.3,0.9,0.6
	c0.3,0.2,0.5,0.5,0.6,0.8c0.2,0.3,0.3,0.6,0.5,1l5.1,13.5c0.1,0.2,0.2,0.4,0.3,0.5c0.1,0.1,0.2,0.2,0.3,0.2c0.1,0,0.2-0.1,0.3-0.2
	c0.1-0.2,0.2-0.4,0.3-0.5l5.1-13.5c0.2-0.5,0.4-1,0.7-1.4c0.2-0.3,0.5-0.6,0.8-0.8c0.3-0.2,0.6-0.3,0.9-0.4c0.3-0.1,0.7-0.1,1-0.1
	c0.8,0,1.6,0.2,2.3,0.6c0.6,0.5,1,1.2,0.9,2v17.9h-3.7l0.1-15.8c0-0.3,0-0.4-0.1-0.5c-0.1-0.1-0.1-0.1-0.2-0.1
	C202.9,95.2,202.9,95.2,202.8,95.4z M121.7,91h1.9c0.7,0,1.4,0.1,2.1,0.2c0.7,0.1,1.4,0.4,2,0.6c0.7,0.3,1.3,0.7,1.8,1.2
	c0.5,0.5,0.9,1.1,1.2,1.8c0.3,0.7,0.5,1.4,0.7,2.1c0.2,0.7,0.3,1.5,0.3,2.2v2.1c0,0.7,0,1.4-0.1,2.1c0,0.7-0.1,1.5-0.3,2.2
	c-0.1,0.7-0.4,1.4-0.7,2.1c-0.3,0.7-0.7,1.3-1.2,1.8c-0.5,0.5-1.1,0.9-1.8,1.2c-0.7,0.3-1.3,0.5-2,0.6c-0.7,0.1-1.4,0.2-2.1,0.2
	h-3.8c-0.7,0-1.4-0.1-2.1-0.2c-0.7-0.1-1.4-0.3-2-0.6c-0.7-0.3-1.3-0.7-1.8-1.2c-0.6-0.6-1-1.2-1.3-2c-0.3-0.7-0.5-1.4-0.7-2.2
	c-0.1-0.7-0.2-1.5-0.2-2.2v-2c0-0.6,0-1.4,0.1-2.2c0-0.7,0.1-1.5,0.3-2.2c0.1-0.7,0.4-1.4,0.7-2.1c0.3-0.7,0.7-1.3,1.3-1.8
	c0.5-0.5,1.1-0.9,1.8-1.2c0.7-0.3,1.3-0.5,2-0.6c0.7-0.1,1.4-0.2,2.1-0.2L121.7,91L121.7,91z M93.7,101.6L93.7,101.6v-0.1V101.6z
	 M93.7,108.8v-7.2h-9v3.6H90v2c0,0.2,0,0.4,0,0.5c0,0.2-0.1,0.4-0.3,0.5c-0.1,0.1-0.3,0.2-0.5,0.3c-0.2,0-0.3,0-0.5,0H84
	c-0.7,0-1.5-0.1-2.2-0.4c-0.7-0.3-1.3-0.9-1.6-1.7c-0.1-0.2-0.2-0.4-0.3-0.6c-0.1-0.3-0.2-0.6-0.3-1c-0.1-0.4-0.1-0.9-0.2-1.4
	c-0.1-0.6-0.1-1.3-0.1-2c0-0.7,0-1.3,0.1-2c0.1-0.5,0.1-1,0.2-1.4c0.1-0.3,0.1-0.7,0.3-1c0.1-0.2,0.2-0.4,0.3-0.6
	c0.4-0.7,1-1.3,1.7-1.6c0.8-0.4,1.8-0.6,2.7-0.6h8.7v-3h-9.8c-1.7-0.1-3.3,0.4-4.7,1.2c-0.7,0.4-1.3,1-1.7,1.8
	c-0.4,0.7-0.7,1.4-0.9,2.2c-0.2,0.8-0.4,1.7-0.4,2.5c-0.1,0.9-0.1,1.7-0.1,2.5c0,0.8,0,1.5,0.1,2.2c0,0.8,0.2,1.5,0.3,2.3
	c0.2,0.7,0.4,1.5,0.8,2.1c0.4,0.7,0.8,1.3,1.4,1.8c0.5,0.4,1.1,0.8,1.8,1.1c0.9,0.4,1.8,0.5,2.8,0.5h8.3c0.3,0,0.6-0.1,0.9-0.1
	c0.3-0.1,0.7-0.2,0.9-0.5c0.2-0.2,0.4-0.4,0.5-0.7C93.6,109.7,93.7,109.3,93.7,108.8z M112.2,108.5v3l-13.1,0c-0.3,0-0.6,0-0.9-0.1
	c-0.3-0.1-0.6-0.2-0.8-0.4c-0.2-0.2-0.3-0.4-0.5-0.6c-0.2-0.3-0.2-0.7-0.2-1.1V91.3h3.7v16.6c0,0.2,0.1,0.3,0.2,0.4
	c0.1,0.1,0.2,0.1,0.3,0.1c0.2,0.1,0.4,0.1,0.7,0.1H112.2z M115.5,103.6c-0.1-0.7-0.1-1.4-0.1-2.2h0c0-1.2,0.1-2.4,0.3-3.6
	c0.2-0.7,0.5-1.4,0.9-2c0.5-0.7,1.3-1.2,2.2-1.4c0.9-0.2,1.9-0.3,2.8-0.3c1,0,1.9,0.1,2.8,0.3c0.9,0.2,1.7,0.7,2.2,1.4
	c0.2,0.2,0.3,0.5,0.5,0.7c0.2,0.4,0.3,0.7,0.4,1.1c0.1,0.5,0.2,1.1,0.3,1.6c0.1,0.7,0.1,1.5,0.1,2.2c0,0.7,0,1.4-0.1,2.1
	c-0.1,0.5-0.1,1.1-0.3,1.6c-0.1,0.4-0.2,0.8-0.4,1.1c-0.1,0.3-0.3,0.5-0.5,0.8c-0.3,0.4-0.6,0.7-1,0.9c-0.4,0.2-0.8,0.4-1.2,0.5
	c-0.4,0.1-0.9,0.2-1.4,0.2h-3c-0.5,0-0.9-0.1-1.4-0.2c-0.4-0.1-0.8-0.3-1.2-0.5c-0.4-0.2-0.7-0.5-0.9-0.9c-0.2-0.2-0.3-0.5-0.5-0.8
	c-0.2-0.4-0.3-0.7-0.4-1.1C115.6,104.7,115.5,104.1,115.5,103.6z M134.5,111.6h3.7V95.8c0-0.2,0-0.4,0-0.6c0-0.2,0.2-0.4,0.3-0.5
	c0.1-0.1,0.3-0.2,0.4-0.3c0.2,0,0.4,0,0.5,0h6c0.3,0,0.7,0,1,0.1c0.4,0,0.8,0.2,1,0.5c0.2,0.3,0.4,0.6,0.5,1
	c0.2,0.6,0.2,1.2,0.2,1.8v0.6c0,0.3,0,0.5-0.1,0.8c0,0.3-0.1,0.5-0.1,0.8c0,0.2-0.1,0.4-0.2,0.6c-0.2,0.4-0.5,0.6-0.9,0.8
	c-0.3,0.1-0.7,0.1-1.1,0.1h-3.7c-0.4,0-0.9,0.1-1.2,0.4c-0.3,0.2-0.4,0.6-0.4,1v0.5c0,0.3,0.1,0.7,0.3,0.9c0.2,0.3,0.4,0.6,0.6,0.8
	l6.4,6.6h4.7l-7.5-7.2v-0.1h2.5c0.5,0,1-0.1,1.5-0.2c0.4-0.1,0.7-0.3,1-0.5c0.3-0.2,0.5-0.4,0.7-0.7c0.2-0.2,0.3-0.5,0.5-0.7
	c0.4-0.7,0.6-1.5,0.7-2.3c0.1-0.8,0.1-1.5,0.1-2.3c0-0.8,0-1.5-0.1-2.3c-0.1-0.8-0.4-1.5-0.8-2.2c-0.2-0.4-0.6-0.8-0.9-1
	c-0.3-0.2-0.7-0.4-1.1-0.6c-0.4-0.1-0.7-0.2-1.1-0.2h-10.4c-0.4,0-0.8,0-1.2,0.1c-0.4,0.1-0.8,0.3-1.2,0.7c-0.4,0.3-0.6,0.8-0.7,1.3
	c-0.1,0.4-0.1,0.9-0.1,1.3L134.5,111.6L134.5,111.6z M158.8,91.3v20.3h-3.7V91.3H158.8z M170.7,108.8h-0.9c-0.4,0-0.7-0.1-1-0.2
	c-0.4-0.1-0.7-0.2-1-0.4c-0.3-0.2-0.6-0.4-0.9-0.7c-0.4-0.5-0.7-1.1-0.8-1.7c-0.1-0.6-0.1-1.2-0.1-1.8V91.3h-3.7v13.2
	c0,0.9,0.1,1.8,0.3,2.7c0.2,1,0.7,1.8,1.4,2.5c0.5,0.5,1,0.9,1.6,1.2c0.6,0.3,1.2,0.5,1.8,0.7c0.6,0.1,1.2,0.2,1.8,0.3h3.1
	c0.6,0,1.2-0.1,1.8-0.3c0.6-0.2,1.2-0.4,1.8-0.7c0.6-0.3,1.2-0.7,1.6-1.2c0.7-0.7,1.2-1.6,1.4-2.5c0.2-0.9,0.3-1.8,0.3-2.7V91.3
	h-3.7v13.5c0,0.3,0,0.7-0.1,1c-0.1,0.3-0.2,0.7-0.3,1c-0.1,0.3-0.3,0.6-0.5,0.8c-0.3,0.3-0.6,0.5-0.9,0.7c-0.3,0.2-0.7,0.3-1,0.4
	c-0.3,0.1-0.7,0.1-1,0.2L170.7,108.8L170.7,108.8z"/>
<linearGradient id="SVGID_3_" gradientUnits="userSpaceOnUse" x1="80.6284" y1="141.217" x2="80.6284" y2="79.217" gradientTransform="matrix(1 0 0 -1 0 216)">
	<stop  offset="0" style="stop-color:#318BE0"/>
	<stop  offset="1" style="stop-color:#1F69BA"/>
</linearGradient>
<path class="st2" d="M79.8,126.2v-8h-3.4v-1.4h8.5v1.4h-3.4v8H79.8z"/>
<linearGradient id="SVGID_4_" gradientUnits="userSpaceOnUse" x1="92.3167" y1="141.217" x2="92.3167" y2="79.217" gradientTransform="matrix(1 0 0 -1 0 216)">
	<stop  offset="0" style="stop-color:#318BE0"/>
	<stop  offset="1" style="stop-color:#1F69BA"/>
</linearGradient>
<path class="st3" d="M90,126.2c-0.4,0.1-0.8-0.1-1.1-0.3c-0.3-0.3-0.4-0.7-0.3-1.1v-6.7c0-0.4,0.1-0.7,0.3-1
	c0.3-0.3,0.7-0.4,1.1-0.4H96v1.4h-5c-0.2,0-0.3,0-0.5,0.1c-0.1,0.1-0.2,0.3-0.1,0.5v1.9h5.5v1.4h-5.5v2.2c0,0.1,0,0.3,0.1,0.4
	c0.1,0.1,0.3,0.1,0.6,0.1H96v1.4L90,126.2z"/>
<linearGradient id="SVGID_5_" gradientUnits="userSpaceOnUse" x1="102.7063" y1="141.217" x2="102.7063" y2="79.217" gradientTransform="matrix(1 0 0 -1 0 216)">
	<stop  offset="0" style="stop-color:#318BE0"/>
	<stop  offset="1" style="stop-color:#1F69BA"/>
</linearGradient>
<path class="st4" d="M102.7,126.2c-1,0.1-2-0.3-2.8-1.1c-0.7-1-1-2.2-0.9-3.5c-0.1-1.3,0.2-2.6,0.9-3.7c0.8-0.8,1.8-1.3,2.9-1.2h3.5
	v1.4h-2.8c-1,0-1.9,0.1-2.3,0.9c-0.4,0.8-0.6,1.7-0.5,2.5c-0.1,0.8,0.1,1.6,0.4,2.3c0.5,0.7,1.3,0.9,2.3,0.9h3v1.4H102.7z"/>
<linearGradient id="SVGID_6_" gradientUnits="userSpaceOnUse" x1="114.3945" y1="141.217" x2="114.3945" y2="79.217" gradientTransform="matrix(1 0 0 -1 0 216)">
	<stop  offset="0" style="stop-color:#318BE0"/>
	<stop  offset="1" style="stop-color:#1F69BA"/>
</linearGradient>
<path class="st5" d="M118.3,126.2h-1.6V122h-4.5v4.2h-1.6v-9.5h1.6v3.9h4.5v-3.9h1.6V126.2z"/>
<linearGradient id="SVGID_7_" gradientUnits="userSpaceOnUse" x1="127.0108" y1="141.217" x2="127.0108" y2="79.217" gradientTransform="matrix(1 0 0 -1 0 216)">
	<stop  offset="0" style="stop-color:#318BE0"/>
	<stop  offset="1" style="stop-color:#1F69BA"/>
</linearGradient>
<path class="st6" d="M131.3,124.9c0,0.4-0.1,0.7-0.4,1c-0.3,0.3-0.6,0.4-1,0.3c-0.6,0-1.1-0.3-1.4-0.8l-3.8-6.1
	c-0.1-0.2-0.2-0.2-0.2-0.2c-0.1,0-0.2,0.1-0.2,0.3v6.8h-1.6V118c0-0.8,0.5-1.3,1.4-1.3c0.6-0.1,1.1,0.2,1.4,0.7l3.8,6.2
	c0.1,0.1,0.1,0.2,0.2,0.2c0.1,0,0.1-0.2,0.1-0.2v-6.8h1.6L131.3,124.9z"/>
<linearGradient id="SVGID_8_" gradientUnits="userSpaceOnUse" x1="139.9975" y1="141.217" x2="139.9975" y2="79.217" gradientTransform="matrix(1 0 0 -1 0 216)">
	<stop  offset="0" style="stop-color:#318BE0"/>
	<stop  offset="1" style="stop-color:#1F69BA"/>
</linearGradient>
<path class="st7" d="M144.6,121.5c0-1.2-0.1-2.8-1-3.8c-1-1-2.5-1-3.6-1c0,0,0,0,0,0c-1.1,0-2.6,0-3.6,1c-1,1-1,2.5-1,3.8
	c0,1,0,2.8,1,3.8c1,1,2.6,1,3.6,1c1,0,2.7,0,3.6-1C144.5,124.3,144.6,122.7,144.6,121.5z M140,124.8c-0.8,0.1-1.7-0.1-2.3-0.8h0
	c-0.5-0.8-0.7-1.7-0.6-2.6c-0.1-0.9,0.1-1.8,0.6-2.6c0.6-0.6,1.5-0.9,2.3-0.7c0.8-0.1,1.7,0.2,2.3,0.7c0.5,0.8,0.7,1.7,0.6,2.6
	c0.1,0.9-0.1,1.8-0.6,2.6C141.7,124.7,140.8,125,140,124.8z"/>
<linearGradient id="SVGID_9_" gradientUnits="userSpaceOnUse" x1="152.0572" y1="141.217" x2="152.0572" y2="79.217" gradientTransform="matrix(1 0 0 -1 0 216)">
	<stop  offset="0" style="stop-color:#318BE0"/>
	<stop  offset="1" style="stop-color:#1F69BA"/>
</linearGradient>
<path class="st8" d="M149.5,126.2c-0.3,0-0.6-0.1-0.9-0.2c-0.2-0.2-0.3-0.5-0.3-0.8v-8.4h1.8v7.5c0,0.1,0,0.3,0.1,0.4
	c0.1,0.1,0.3,0.1,0.4,0.1h5.1v1.4H149.5z"/>
<linearGradient id="SVGID_10_" gradientUnits="userSpaceOnUse" x1="162.632" y1="141.217" x2="162.632" y2="79.217" gradientTransform="matrix(1 0 0 -1 0 216)">
	<stop  offset="0" style="stop-color:#318BE0"/>
	<stop  offset="1" style="stop-color:#1F69BA"/>
</linearGradient>
<path class="st9" d="M167.3,121.5c0-1.2-0.1-2.8-1-3.8c-1-1-2.5-1-3.6-1c0,0,0,0,0,0c-1.1,0-2.6,0-3.6,1c-1,1-1,2.5-1,3.8
	c0,1,0,2.8,1,3.8c1,1,2.6,1,3.6,1c1,0,2.7,0,3.6-1C167.2,124.3,167.3,122.7,167.3,121.5z M162.6,124.8c-0.8,0.1-1.7-0.1-2.3-0.8
	c-0.5-0.8-0.7-1.7-0.6-2.6c-0.1-0.9,0.1-1.8,0.6-2.6c0.6-0.6,1.5-0.9,2.3-0.7c0.8-0.1,1.7,0.2,2.3,0.7c0.5,0.8,0.7,1.7,0.6,2.6
	c0.1,0.9-0.1,1.8-0.6,2.6C164.3,124.7,163.5,125,162.6,124.8z"/>
<linearGradient id="SVGID_11_" gradientUnits="userSpaceOnUse" x1="174.8768" y1="141.217" x2="174.8768" y2="79.217" gradientTransform="matrix(1 0 0 -1 0 216)">
	<stop  offset="0" style="stop-color:#318BE0"/>
	<stop  offset="1" style="stop-color:#1F69BA"/>
</linearGradient>
<path class="st10" d="M179.1,125c0,0.3-0.1,0.7-0.3,0.9c-0.3,0.2-0.6,0.3-0.9,0.3H174c-0.8,0-1.5-0.2-2.1-0.7c-1.1-1-1.2-2.6-1.2-4
	c0-1.5,0.1-3.3,1.5-4.2c0.7-0.4,1.4-0.6,2.2-0.6h4.6v1.4h-4.1c-0.8-0.1-1.6,0.3-2,1c-0.3,0.7-0.4,1.5-0.4,2.3c0,0.8,0.1,1.6,0.4,2.3
	c0.3,0.7,1,1.1,1.8,1h2.3c0.2,0,0.3,0,0.5-0.1c0.1-0.1,0.2-0.3,0.1-0.5v-2.6h1.7V125z"/>
<linearGradient id="SVGID_12_" gradientUnits="userSpaceOnUse" x1="183.7825" y1="141.217" x2="183.7825" y2="79.217" gradientTransform="matrix(1 0 0 -1 0 216)">
	<stop  offset="0" style="stop-color:#318BE0"/>
	<stop  offset="1" style="stop-color:#1F69BA"/>
</linearGradient>
<path class="st11" d="M182.9,126.2v-9.5h1.9v9.5H182.9z"/>
<linearGradient id="SVGID_13_" gradientUnits="userSpaceOnUse" x1="192.8731" y1="141.217" x2="192.8731" y2="79.217" gradientTransform="matrix(1 0 0 -1 0 216)">
	<stop  offset="0" style="stop-color:#318BE0"/>
	<stop  offset="1" style="stop-color:#1F69BA"/>
</linearGradient>
<path class="st12" d="M190.6,126.2c-0.4,0.1-0.8-0.1-1.1-0.3c-0.3-0.3-0.4-0.7-0.3-1.1v-6.7c0-0.4,0.1-0.7,0.3-1
	c0.3-0.3,0.7-0.4,1.1-0.4h5.9v1.4h-5c-0.2,0-0.3,0-0.5,0.1c-0.1,0.1-0.2,0.3-0.1,0.5v1.9h5.5v1.4h-5.5v2.2c0,0.1,0,0.3,0.1,0.4
	c0.1,0.1,0.3,0.1,0.6,0.1h4.9v1.4L190.6,126.2z"/>
<linearGradient id="SVGID_14_" gradientUnits="userSpaceOnUse" x1="203.0775" y1="141.217" x2="203.0775" y2="79.217" gradientTransform="matrix(1 0 0 -1 0 216)">
	<stop  offset="0" style="stop-color:#318BE0"/>
	<stop  offset="1" style="stop-color:#1F69BA"/>
</linearGradient>
<path class="st13" d="M199.3,124.7h5c0.8,0,0.9-0.7,0.9-1c0-0.3-0.1-0.8-0.9-1.1l-3.6-1.2c-0.4-0.1-0.8-0.4-1.1-0.7
	c-0.3-0.5-0.5-1.1-0.5-1.8c-0.1-0.6,0.2-1.3,0.6-1.8c0.4-0.4,0.9-0.6,1.5-0.5h5.2v1.4h-4.6c-0.3,0-0.5,0-0.7,0.2
	c-0.2,0.2-0.2,0.5-0.2,0.7c0,0.4,0.1,0.8,0.8,1.1l3.3,1.1c0.5,0.1,0.9,0.4,1.3,0.7c0.4,0.5,0.6,1.2,0.6,1.8c0,0.6-0.1,1.2-0.5,1.8
	c-0.4,0.5-1,0.8-1.6,0.7h-5.6V124.7z"/>
<path class="st14" d="M79.8,126.2v-8h-3.4v-1.4h8.5v1.4h-3.4v8H79.8z"/>
<path class="st14" d="M90,126.2c-0.4,0.1-0.8-0.1-1.1-0.3c-0.3-0.3-0.4-0.7-0.3-1.1v-6.7c0-0.4,0.1-0.7,0.3-1
	c0.3-0.3,0.7-0.4,1.1-0.4H96v1.4h-5c-0.2,0-0.3,0-0.5,0.1c-0.1,0.1-0.2,0.3-0.1,0.5v1.9h5.5v1.4h-5.5v2.2c0,0.1,0,0.3,0.1,0.4
	c0.1,0.1,0.3,0.1,0.6,0.1H96v1.4L90,126.2z"/>
<path class="st14" d="M102.7,126.2c-1,0.1-2-0.3-2.8-1.1c-0.7-1-1-2.2-0.9-3.5c-0.1-1.3,0.2-2.6,0.9-3.7c0.8-0.8,1.8-1.3,2.9-1.2
	h3.5v1.4h-2.8c-1,0-1.9,0.1-2.3,0.9c-0.4,0.8-0.6,1.7-0.5,2.5c-0.1,0.8,0.1,1.6,0.4,2.3c0.5,0.7,1.3,0.9,2.3,0.9h3v1.4H102.7z"/>
<path class="st14" d="M118.3,126.2h-1.6V122h-4.5v4.2h-1.6v-9.5h1.6v3.9h4.5v-3.9h1.6V126.2z"/>
<path class="st14" d="M131.3,124.9c0,0.4-0.1,0.7-0.4,1c-0.3,0.3-0.6,0.4-1,0.3c-0.6,0-1.1-0.3-1.4-0.8l-3.8-6.1
	c-0.1-0.2-0.2-0.2-0.2-0.2c-0.1,0-0.2,0.1-0.2,0.3v6.8h-1.6V118c0-0.8,0.5-1.3,1.4-1.3c0.6-0.1,1.1,0.2,1.4,0.7l3.8,6.2
	c0.1,0.1,0.1,0.2,0.2,0.2c0.1,0,0.1-0.2,0.1-0.2v-6.8h1.6L131.3,124.9z"/>
<path class="st15" d="M144.6,121.5c0-1.2-0.1-2.8-1-3.8c-1-1-2.5-1-3.6-1c0,0,0,0,0,0c-1.1,0-2.6,0-3.6,1c-1,1-1,2.5-1,3.8
	c0,1,0,2.8,1,3.8c1,1,2.6,1,3.6,1c1,0,2.7,0,3.6-1C144.5,124.3,144.6,122.7,144.6,121.5z M140,124.8c-0.8,0.1-1.7-0.1-2.3-0.8h0
	c-0.5-0.8-0.7-1.7-0.6-2.6c-0.1-0.9,0.1-1.8,0.6-2.6c0.6-0.6,1.5-0.9,2.3-0.7c0.8-0.1,1.7,0.2,2.3,0.7c0.5,0.8,0.7,1.7,0.6,2.6
	c0.1,0.9-0.1,1.8-0.6,2.6C141.7,124.7,140.8,125,140,124.8z"/>
<path class="st14" d="M149.5,126.2c-0.3,0-0.6-0.1-0.9-0.2c-0.2-0.2-0.3-0.5-0.3-0.8v-8.4h1.8v7.5c0,0.1,0,0.3,0.1,0.4
	c0.1,0.1,0.3,0.1,0.4,0.1h5.1v1.4H149.5z"/>
<path class="st15" d="M167.3,121.5c0-1.2-0.1-2.8-1-3.8c-1-1-2.5-1-3.6-1c0,0,0,0,0,0c-1.1,0-2.6,0-3.6,1c-1,1-1,2.5-1,3.8
	c0,1,0,2.8,1,3.8c1,1,2.6,1,3.6,1c1,0,2.7,0,3.6-1C167.2,124.3,167.3,122.7,167.3,121.5z M162.6,124.8c-0.9,0.1-1.7-0.1-2.3-0.8
	c-0.5-0.8-0.7-1.7-0.6-2.6c-0.1-0.9,0.1-1.8,0.6-2.6c0.6-0.6,1.5-0.9,2.3-0.7c0.8-0.1,1.7,0.2,2.3,0.7c0.5,0.8,0.7,1.7,0.6,2.6
	c0.1,0.9-0.1,1.8-0.6,2.6C164.3,124.7,163.5,125,162.6,124.8z"/>
<path class="st14" d="M179.1,125c0,0.3-0.1,0.7-0.3,0.9c-0.3,0.2-0.6,0.3-0.9,0.3H174c-0.8,0-1.5-0.2-2.1-0.7c-1.1-1-1.2-2.6-1.2-4
	c0-1.5,0.1-3.3,1.5-4.2c0.7-0.4,1.4-0.6,2.2-0.6h4.6v1.4h-4.1c-0.8-0.1-1.6,0.3-2,1c-0.3,0.7-0.4,1.5-0.4,2.3c0,0.8,0.1,1.6,0.4,2.3
	c0.3,0.7,1,1.1,1.8,1h2.3c0.2,0,0.3,0,0.5-0.1c0.1-0.1,0.2-0.3,0.1-0.5v-2.6h1.7V125z"/>
<path class="st14" d="M182.9,126.2v-9.5h1.9v9.5H182.9z"/>
<path class="st14" d="M190.6,126.2c-0.4,0.1-0.8-0.1-1.1-0.3c-0.3-0.3-0.4-0.7-0.3-1.1v-6.7c0-0.4,0.1-0.7,0.3-1
	c0.3-0.3,0.7-0.4,1.1-0.4h5.9v1.4h-5c-0.2,0-0.3,0-0.5,0.1c-0.1,0.1-0.2,0.3-0.1,0.5v1.9h5.5v1.4h-5.5v2.2c0,0.1,0,0.3,0.1,0.4
	c0.1,0.1,0.3,0.1,0.6,0.1h4.9v1.4L190.6,126.2z"/>
<path class="st14" d="M199.3,124.7h5c0.8,0,0.9-0.7,0.9-1s-0.1-0.8-0.9-1.1l-3.6-1.2c-0.4-0.1-0.8-0.4-1.1-0.7
	c-0.3-0.5-0.5-1.1-0.5-1.8c-0.1-0.6,0.2-1.3,0.6-1.8c0.4-0.4,0.9-0.6,1.5-0.5h5.2v1.4h-4.6c-0.3,0-0.5,0-0.7,0.2
	c-0.2,0.2-0.2,0.5-0.2,0.7c0,0.4,0.1,0.8,0.8,1.1l3.3,1.1c0.5,0.1,0.9,0.4,1.3,0.7c0.4,0.5,0.6,1.2,0.6,1.8c0,0.6-0.1,1.2-0.5,1.8
	c-0.4,0.5-1,0.8-1.6,0.7h-5.6V124.7z"/>
</svg>
