<?xml version="1.0" encoding="UTF-8"?>
<svg width="214px" height="214px" viewBox="0 0 214 214" version="1.1" xmlns="http://www.w3.org/2000/svg" xmlns:xlink="http://www.w3.org/1999/xlink">
    <!-- Generator: Sketch 58 (84663) - https://sketch.com -->
    <title>irian_logo</title>
    <desc>Created with Sketch.</desc>
    <defs>
        <polygon id="path-1" points="0 0.000330188679 139.527104 0.000330188679 139.527104 61.832783 0 61.832783"></polygon>
    </defs>
    <g id="Exports" stroke="none" stroke-width="1" fill="none" fill-rule="evenodd">
        <g id="Homepage-New" transform="translate(-1787.000000, -4719.000000)">
            <g id="Group-3" transform="translate(1825.000000, 4795.000000)">
                <mask id="mask-2" fill="white">
                    <use xlink:href="#path-1"></use>
                </mask>
                <g id="Clip-2"></g>
                <path d="M136.065406,47.0396698 C135.440689,46.683066 134.98767,46.1851415 134.70767,45.547217 C134.349745,44.7574057 134.172104,43.253066 134.172104,41.0335377 L134.172104,26.0786321 C134.172104,22.9174057 133.890783,20.5697642 133.330783,19.0403302 C132.513896,16.847217 131.41767,15.272217 130.040783,14.3166509 C128.663896,13.3604245 127.018896,12.8816509 125.105783,12.8816509 C121.383236,12.8816509 117.469179,15.3554245 113.363613,20.3023113 L113.363613,12.8816509 L111.719274,12.8816509 L101.161821,17.1655189 L101.736349,18.543066 C102.730217,18.1607075 103.584745,17.9691981 104.298613,17.9691981 C104.961632,17.9691981 105.489934,18.1356132 105.88616,18.4658019 C106.281066,18.7979717 106.574274,19.4226887 106.765123,20.3399528 C106.957292,21.2591981 107.052387,23.8214623 107.052387,28.0287264 L107.052387,41.0335377 C107.052387,43.5839151 106.740689,45.3121226 106.115311,46.2175 C105.489934,47.1228774 104.285406,47.5752358 102.501066,47.5752358 L101.736349,47.5752358 L101.736349,48.9514623 L119.06333,48.9514623 L119.06333,47.5752358 C117.150877,47.5752358 115.882292,47.4028774 115.256915,47.0581604 C114.632198,46.7154245 114.142198,46.1732547 113.784934,45.4329717 C113.503613,44.8723113 113.363613,43.4056132 113.363613,41.0335377 L113.363613,22.5594811 C116.372292,19.2450472 119.394179,17.5868396 122.429274,17.5868396 C124.393236,17.5868396 125.788613,18.3073113 126.617387,19.7475943 C127.44616,21.1885377 127.860217,23.5025 127.860217,26.6901415 L127.860217,41.0335377 C127.860217,43.0483491 127.808708,44.246934 127.70767,44.6299528 C127.452764,45.5987264 126.999745,46.3310849 126.349274,46.8290094 C125.700123,47.3262736 124.55767,47.5752358 122.926538,47.5752358 L122.200123,47.5752358 L122.200123,48.9514623 L139.527104,48.9514623 L139.527104,47.5752358 C137.843802,47.5752358 136.690123,47.396934 136.065406,47.0396698 L136.065406,47.0396698 Z M88.4924811,41.417217 C85.3305943,43.9675943 82.780217,45.2408019 80.8420094,45.2408019 C79.4136132,45.2408019 78.1522925,44.6358962 77.056066,43.4247642 C75.9591792,42.2142925 75.411066,40.6901415 75.411066,38.8536321 C75.411066,37.4001415 75.844934,36.0615566 76.7106887,34.837217 C77.5777642,33.6128774 79.0193679,32.4407075 81.0335189,31.318066 C82.1555,30.6814623 84.6424811,29.5964623 88.4924811,28.0676887 L88.4924811,41.417217 Z M96.640217,44.8214623 C96.2571981,44.8214623 95.9190849,44.6933491 95.6265377,44.4384434 C95.3333302,44.1841981 95.1226698,43.6796698 94.9945566,42.9275 C94.8671038,42.1759906 94.8043679,40.1294811 94.8043679,36.7886321 L94.8043679,24.8925943 C94.8043679,21.5015566 94.5745566,19.2575943 94.1155943,18.1607075 C93.4017264,16.4774057 92.2922925,15.2405189 90.7879528,14.4500472 C88.7982358,13.4040094 86.2485189,12.8816509 83.1374811,12.8816509 C79.0827642,12.8816509 75.9327642,13.8002358 73.6894623,15.6360849 C71.4448396,17.4725943 70.3228585,19.4860849 70.3228585,21.6791981 C70.3228585,22.826934 70.6226698,23.7316509 71.2222925,24.3953302 C71.8212547,25.0583491 72.5932358,25.3891981 73.5355943,25.3891981 C74.5050283,25.3891981 75.2895566,25.0715566 75.8885189,24.4336321 C76.4874811,23.7963679 76.7872925,22.8903302 76.7872925,21.7175 L76.7106887,19.4992925 C76.7106887,18.3766509 77.1954057,17.382783 78.1641792,16.5157075 C79.1078585,15.6486321 80.3837075,15.2154245 81.9897453,15.2154245 C84.1062547,15.2154245 85.7195566,15.8658962 86.8283302,17.1655189 C87.9371038,18.4658019 88.4924811,20.8636321 88.4924811,24.3576887 L88.4924811,25.7339151 C82.4738019,27.9270283 78.1701226,29.7886321 75.5821038,31.3187264 C72.9940849,32.8488208 71.1773868,34.4799528 70.1313491,36.2141038 C69.3672925,37.4641981 68.9842736,38.9434434 68.9842736,40.6525 C68.9842736,43.3547642 69.7688019,45.5353302 71.3365377,47.1928774 C72.904934,48.8504245 74.899934,49.6785377 77.3235189,49.6785377 C78.8787075,49.6785377 80.3454057,49.3595755 81.7222925,48.7216509 C82.640217,48.2891038 84.8967264,46.683066 88.4924811,43.9028774 C88.5175755,45.9936321 88.8992736,47.4735377 89.640217,48.3406132 C90.3791792,49.2063679 91.3737075,49.6402358 92.6238019,49.6402358 C95.2237075,49.6402358 97.9523868,47.727783 100.809179,43.9028774 L100.809179,41.7606132 C99.2790849,43.2907075 98.2455943,44.2218396 97.7106887,44.5526887 C97.404934,44.7323113 97.0470094,44.8214623 96.640217,44.8214623 L96.640217,44.8214623 Z M63.085783,43.8645755 C62.4227642,43.8645755 61.9004057,43.7054245 61.5173868,43.3858019 C61.1356887,43.0675 60.8543679,42.5002358 60.676066,41.6846698 C60.4462547,40.5613679 60.3320094,38.1014623 60.3320094,34.3016509 L60.3320094,20.7995755 C60.3320094,18.632217 60.5043679,17.1655189 60.8490849,16.4008019 C61.1924811,15.6360849 61.6573868,15.0873113 62.2451226,14.7558019 C62.8321981,14.4249528 63.9792736,14.2585377 65.6876698,14.2585377 L65.6876698,12.8816509 L48.665783,12.8816509 L48.665783,14.2585377 C50.3239906,14.2585377 51.4644623,14.4368396 52.0891792,14.7947642 C52.7145566,15.1520283 53.1854057,15.6928774 53.5043679,16.4199528 C53.8239906,17.1463679 53.9831415,18.6058019 53.9831415,20.7995755 L53.9831415,48.9514623 L55.6651226,48.9514623 L66.2225755,44.6675943 L65.6876698,43.2907075 C64.6680472,43.673066 63.7996509,43.8645755 63.085783,43.8645755 L63.085783,43.8645755 Z M57.1575755,54.0693868 C56.0871038,54.0693868 55.1751226,54.4517453 54.4229528,55.2164623 C53.6701226,55.9811792 53.2937075,56.8997642 53.2937075,57.9702358 C53.2937075,59.0420283 53.6701226,59.9526887 54.4229528,60.7048585 C55.1751226,61.4563679 56.0871038,61.832783 57.1575755,61.832783 C58.2538019,61.832783 59.1789906,61.4563679 59.9305,60.7048585 C60.6833302,59.9526887 61.0590849,59.0420283 61.0590849,57.9702358 C61.0590849,56.8997642 60.676066,55.9811792 59.9113491,55.2164623 C59.1459717,54.4517453 58.2287075,54.0693868 57.1575755,54.0693868 L57.1575755,54.0693868 Z M41.3296509,12.8816509 C38.2430472,12.8816509 35.2343679,15.5079717 32.3016321,20.761934 L32.3016321,12.8816509 L30.694934,12.8816509 L20.0998396,17.1655189 L20.4828585,18.543066 C21.4773868,18.1607075 22.370217,17.9691981 23.1600283,17.9691981 C23.8230472,17.9691981 24.3777642,18.1481604 24.8241792,18.5047642 C25.269934,18.8626887 25.5763491,19.4286321 25.7421038,20.207217 C25.9078585,20.9851415 25.9897453,23.4140094 25.9897453,27.4931604 L25.9897453,41.0725 C25.9897453,43.1137264 25.9270094,44.3486321 25.7995566,44.7825 C25.5453113,45.6753302 25.0982358,46.3264623 24.4609717,46.7332547 C23.5938962,47.2939151 22.2671981,47.5752358 20.4828585,47.5752358 L20.4828585,48.9514623 L38.4220094,48.9514623 L38.4220094,47.5752358 C36.8404057,47.5752358 35.629934,47.3454245 34.7886132,46.8864623 C33.9466321,46.4275 33.360217,45.8536321 33.0287075,45.1655189 C32.5439906,44.1703302 32.3016321,42.7049528 32.3016321,40.7660849 L32.3016321,23.9746698 C33.5266321,21.5781604 34.7113491,19.857217 35.8597453,18.8111792 C36.3946509,18.3007075 36.8919151,18.0458019 37.3508774,18.0458019 C37.8864434,18.0458019 38.7086132,18.4849528 39.8187075,19.3652358 C40.9281415,20.2448585 41.9272925,20.6853302 42.820783,20.6853302 C43.7387075,20.6853302 44.5291792,20.3399528 45.1928585,19.6525 C45.855217,18.963066 46.1867264,18.1217453 46.1867264,17.127217 C46.1867264,16.0052358 45.7277642,15.0179717 44.8098396,14.162783 C43.8919151,13.3089151 42.7309717,12.8816509 41.3296509,12.8816509 L41.3296509,12.8816509 Z M12.7181415,45.4138208 C12.3991792,44.6867453 12.2406887,43.2273113 12.2406887,41.0335377 L12.2406887,12.8816509 L10.5573868,12.8816509 L-6.60377359e-05,17.1655189 L0.5355,18.543066 C1.55512264,18.1607075 2.42285849,17.9691981 3.13672642,17.9691981 C3.79974528,17.9691981 4.32276415,18.1283491 4.70512264,18.4473113 C5.08682075,18.766934 5.36814151,19.3335377 5.5464434,20.1497642 C5.77625472,21.2717453 5.89116038,23.7316509 5.89116038,27.5314623 L5.89116038,41.0335377 C5.89116038,43.2015566 5.71880189,44.6675943 5.37408491,45.4329717 C5.0300283,46.1983491 4.56512264,46.7464623 3.97738679,47.0779717 C3.39163208,47.4101415 2.24323585,47.5752358 0.5355,47.5752358 L0.5355,48.9514623 L17.5567264,48.9514623 L17.5567264,47.5752358 C15.8991792,47.5752358 14.7587075,47.396934 14.1339906,47.0390094 C13.5086132,46.683066 13.0371038,46.1408962 12.7181415,45.4138208 L12.7181415,45.4138208 Z M9.06625472,7.76438679 C10.1373868,7.76438679 11.0480472,7.38268868 11.800217,6.6179717 C12.5523868,5.85259434 12.9288019,4.93466981 12.9288019,3.86353774 C12.9288019,2.79306604 12.5523868,1.88108491 11.800217,1.12825472 C11.0480472,0.376745283 10.1373868,0.000330188679 9.06625472,0.000330188679 C7.96870755,0.000330188679 7.04351887,0.376745283 6.29200943,1.12825472 C5.5405,1.88108491 5.16408491,2.79306604 5.16408491,3.86353774 C5.16408491,4.93466981 5.54578302,5.85259434 6.31182075,6.6179717 C7.07653774,7.38268868 7.99380189,7.76438679 9.06625472,7.76438679 L9.06625472,7.76438679 Z" id="Fill-1" fill="#2A90CE" mask="url(#mask-2)"></path>
            </g>
        </g>
    </g>
</svg>