<?xml version="1.0" encoding="UTF-8"?>
<svg width="214px" height="214px" viewBox="0 0 214 214" version="1.1" xmlns="http://www.w3.org/2000/svg" xmlns:xlink="http://www.w3.org/1999/xlink">
    <!-- Generator: Sketch 57.1 (83088) - https://sketch.com -->
    <title>microsoft_logo</title>
    <desc>Created with Sketch.</desc>
    <defs>
        <polygon id="path-1" points="0.0726259915 0.0521768598 19.2922514 0.0521768598 19.2922514 23.8064302 0.0726259915 23.8064302"></polygon>
        <polygon id="path-3" points="0.0214195049 0.0487369902 3.73398414 0.0487369902 3.73398414 9.95788961 0.0214195049 9.95788961"></polygon>
        <polygon id="path-5" points="0 0.0508444173 17.2701376 0.0508444173 17.2701376 17.3215375 0 17.3215375"></polygon>
    </defs>
    <g id="Exports" stroke="none" stroke-width="1" fill="none" fill-rule="evenodd">
        <g id="Homepage-New" transform="translate(-2017.000000, -4966.000000)">
            <g id="Group-38" transform="translate(2039.000000, 5053.000000)">
                <path d="M0,0 L17.2696766,0 C17.2686394,5.75655888 17.2696766,11.5131178 17.2686394,17.2696766 L0,17.2696766 L0,0 Z" id="Fill-1" fill="#F25022"></path>
                <path d="M17.2696766,0 L19.0329469,0 C19.0329469,5.75655888 19.0319097,11.5131178 19.0339841,17.2696766 C24.7895058,17.2696766 30.5460647,17.2686394 36.3015863,17.2696766 C36.3036608,11.5131178 36.3026236,5.75655888 36.3026236,0 L170,0 L170,13.4309335 C168.767785,13.4350824 167.53557,13.4215985 166.304393,13.4392312 C166.276388,11.8802929 166.301281,10.3213545 166.290909,8.76345333 C165.058694,9.1347773 163.83374,9.52995729 162.595302,9.88261135 C162.565223,11.0650397 162.593228,12.2485052 162.579744,13.4309335 C160.758389,13.4298963 158.937035,13.4330079 157.11568,13.4288591 C157.138499,12.4974375 157.051373,11.5587553 157.185174,10.6325198 C157.296156,9.90231849 157.719341,9.17211714 158.430872,8.8899939 C159.328066,8.52178157 160.331056,8.76656498 161.183649,9.14203783 C161.178462,8.0747407 161.191946,7.00744356 161.176388,5.94118365 C159.382001,5.44746797 157.325198,5.54392923 155.733069,6.58010982 C154.706223,7.23770592 153.961501,8.28944478 153.62648,9.45527761 C153.230262,10.7466138 153.43252,12.1105552 153.36925,13.4361196 C152.505247,13.4298963 151.642282,13.4215985 150.780354,13.4413057 C150.789689,14.4391092 150.78554,15.4369128 150.782428,16.4336791 C151.648505,16.4513118 152.515619,16.4305674 153.381696,16.4471629 C153.374436,20.6458206 153.379622,24.8434411 153.379622,29.0420988 L157.114643,29.0420988 C157.114643,24.8424039 157.113606,20.642709 157.11568,16.443014 C158.937035,16.4399024 160.759426,16.4409396 162.581818,16.4419768 C162.587004,19.119036 162.576632,21.795058 162.585967,24.4710799 C162.602563,25.7178157 162.815192,27.0506406 163.640714,28.0349603 C164.355461,28.9062233 165.490177,29.3045149 166.585479,29.3854179 C167.739902,29.4673581 168.932703,29.3262965 170,28.8626602 L170,36.3026236 L36.3026236,36.3026236 L36.3026236,19.0329469 C30.5460647,19.0329469 24.7895058,19.0319097 19.0339841,19.0339841 C19.0319097,24.7895058 19.0339841,30.5460647 19.0329469,36.3026236 L17.2696766,36.3026236 C17.2696766,30.5460647 17.2707138,24.790543 17.2696766,19.0339841 C11.5131178,19.0308725 5.75655888,19.0339841 0,19.0319097 L0,17.2696766 L17.2686394,17.2696766 C17.2696766,11.5131178 17.2686394,5.75655888 17.2696766,0" id="Fill-3" fill="#FEFEFE"></path>
                <path d="M19.0329469,0 L36.3026236,0 C36.3026236,5.75655888 36.3036608,11.5131178 36.3015863,17.2696766 C30.5460647,17.2686394 24.7895058,17.2696766 19.0339841,17.2696766 C19.0319097,11.5131178 19.0329469,5.75655888 19.0329469,0" id="Fill-5" fill="#80BA01"></path>
                <g id="Group-9" transform="translate(150.707749, 5.600976)">
                    <mask id="mask-2" fill="white">
                        <use xlink:href="#path-1"></use>
                    </mask>
                    <g id="Clip-8"></g>
                    <path d="M5.02534106,0.979123246 C6.61747041,-0.057057352 8.67427334,-0.153518609 10.4685564,0.340197071 C10.4842184,1.40645699 10.4707346,2.47375412 10.4759207,3.54105125 C9.62332764,3.1655784 8.62033801,2.920795 7.7231446,3.28900732 C7.01150946,3.57113057 6.58832459,4.30133191 6.477446,5.03153325 C6.34364491,5.95776876 6.4307712,6.89645088 6.40795241,7.82787248 C8.22930689,7.83202135 10.0506614,7.8289097 11.8720159,7.82994692 C11.8854997,6.64751861 11.8574948,5.46405308 11.8875741,4.28162477 C13.1260122,3.92897071 14.3509664,3.53379073 15.5831812,3.16246675 C15.5935534,4.72036791 15.5685564,6.27930628 15.596665,7.83824466 C16.8278426,7.82061196 18.0600574,7.83409579 19.2922721,7.82994692 L19.2922721,10.8627718 C18.0559085,10.8119481 16.8185076,10.849288 15.582144,10.8451391 C15.5873301,12.5887023 15.5831812,14.3322654 15.5842184,16.0768658 C15.6038218,17.0425156 15.5323575,18.0133514 15.6454143,18.9758896 C15.7138707,19.5432477 15.920277,20.1719054 16.4523697,20.4653344 C17.3433398,20.9642361 18.4739073,20.7464204 19.2922721,20.1987694 L19.2922721,23.2616736 C18.224975,23.7253099 17.0321745,23.8663716 15.8777511,23.7844314 C14.7823453,23.7035284 13.6477328,23.3052367 12.932986,22.4339738 C12.1074643,21.4496541 11.8947309,20.1168292 11.8781354,18.8700933 C11.8688005,16.1940714 11.8792764,13.5180494 11.8740903,10.8409902 C10.0516986,10.839953 8.22930689,10.8389158 6.40795241,10.8420275 C6.40587797,15.0417224 6.40681147,19.2414173 6.40681147,23.4411123 L2.67189384,23.4411123 C2.67189384,19.2424545 2.66670775,15.044834 2.67396827,10.8461763 C1.80778768,10.8295808 0.940777303,10.8503252 0.0747004271,10.8326925 C0.0778120805,9.83592617 0.0819609518,8.83812264 0.0726259915,7.8403191 C0.934553996,7.82061196 1.79751922,7.8289097 2.66152166,7.83513301 C2.72468822,6.50956864 2.52253447,5.14562721 2.91864796,3.85429103 C3.25377303,2.68845821 3.99849542,1.63671934 5.02534106,0.979123246" id="Fill-7" fill="#777777" mask="url(#mask-2)"></path>
                </g>
                <path d="M75.7656187,6.79792556 C76.5186388,6.6838316 77.333892,6.94106162 77.8327938,7.53020134 C78.4177846,8.17535082 78.5256553,9.20219646 78.0920982,9.95625381 C77.6130073,10.8067724 76.5404204,11.2019524 75.6058871,10.9976205 C74.6360885,10.8233679 73.8280958,9.92202563 73.8716589,8.91696156 C73.8436541,7.85899939 74.7284009,6.9161684 75.7656187,6.79792556" id="Fill-10" fill="#777777"></path>
                <path d="M47.1415497,7.26052471 L52.5734594,7.26052471 C54.2641245,11.5535692 55.9672361,15.8424649 57.6599756,20.1355095 C58.0924954,21.2090299 58.4970104,22.2949969 58.9502746,23.3602196 C61.1253203,17.9957291 63.3314826,12.6447224 65.4899329,7.27297132 C67.2314216,7.24496644 68.9739475,7.26674802 70.7164735,7.26259915 C70.7123246,14.5220866 70.714399,21.7815741 70.7154362,29.0410616 C69.4583282,29.03795 68.2022575,29.0514338 66.9461867,29.0338011 C66.9596705,23.6765711 66.9451495,18.3193411 66.95241,12.9610738 C66.9544844,12.7204393 66.9461867,12.4798048 66.9295912,12.2391702 C66.8559487,12.3511897 66.790604,12.4673581 66.733557,12.5876754 C64.5751068,18.071446 62.3751678,23.5396583 60.2291641,29.028615 C59.3350824,29.0607688 58.4399634,29.0306894 57.5448444,29.0452105 C55.3179378,23.5614399 53.119036,18.0652227 50.9035387,12.5773032 C50.8454545,12.4632093 50.7832215,12.352227 50.7158023,12.2453935 C50.6701647,14.5926174 50.7085418,16.9419158 50.6960952,19.2891397 C50.6971324,22.5397804 50.6940207,25.790421 50.6971324,29.0410616 C49.5115924,29.0441733 48.3260525,29.0410616 47.1415497,29.0420988 C47.140352,21.7815741 47.1394753,14.5210494 47.1415497,7.26052471" id="Fill-12" fill="#777777"></path>
                <path d="M86.0445095,13.4164228 C87.847194,12.903 89.7909402,12.9237444 91.5924838,13.4330183 C91.9638078,13.5367401 92.3238261,13.6809134 92.6578103,13.8769475 C92.6370659,15.0666364 92.6578103,16.2573624 92.6462971,17.4480885 C91.442191,16.5280763 89.9143691,15.9451599 88.3834356,16.1380824 C87.1678164,16.2480275 86.0081031,16.8786559 85.2811171,17.8609012 C84.3465839,19.0785949 84.1308426,20.6956174 84.2916113,22.1850622 C84.4119286,23.3508951 84.8942349,24.5156907 85.8006595,25.2883142 C86.7424533,26.1254527 88.0629353,26.422097 89.2951501,26.3287474 C90.5128438,26.188723 91.6620811,25.673122 92.6462971,24.9533966 C92.656773,26.0808523 92.6412148,27.2083081 92.6545949,28.3357639 C91.127914,29.2443667 89.2971208,29.4787779 87.5495125,29.3926888 C85.761349,29.298302 83.9783716,28.6209988 82.6839237,27.3638908 C81.2774564,26.0082471 80.5140641,24.0748731 80.4238261,22.1383874 C80.3325509,20.1251477 80.742252,18.0247816 81.9008243,16.3434515 C82.8716602,14.9089793 84.390147,13.893543 86.0445095,13.4164228" id="Fill-14" fill="#777777"></path>
                <path d="M111.349481,13.1477523 C113.141794,12.9195644 115.032642,13.0212117 116.696339,13.7783807 C118.140146,14.4297535 119.310128,15.6339634 119.958389,17.0756962 C120.650214,18.6107785 120.818243,20.3346345 120.701037,21.9993691 C120.585906,23.6246894 120.075595,25.2531214 119.059121,26.5444576 C118.018792,27.9156595 116.450519,28.8450067 114.771263,29.1904002 C113.33565,29.489119 111.833862,29.4880818 110.398353,29.1862514 C108.680824,28.8190763 107.090665,27.8223099 106.083423,26.3722794 C104.901098,24.6919866 104.56504,22.5553179 104.715436,20.5420781 C104.817084,18.8337804 105.348139,17.1119988 106.439292,15.7719134 C107.634167,14.2710592 109.466931,13.3852752 111.349481,13.1477523" id="Fill-16" fill="#777777"></path>
                <path d="M126.843431,13.1788999 C128.570398,12.8749951 130.378269,13.0979969 132.012924,13.717216 C132.014999,14.8623045 132.012924,16.0063557 132.013962,17.150407 C130.871985,16.3652331 129.477031,15.9430854 128.091204,15.9918347 C127.393156,16.0188023 126.625615,16.3144094 126.307189,16.9782288 C126.054212,17.6347877 126.229398,18.4956785 126.848617,18.888784 C127.907616,19.5972038 129.170948,19.8979969 130.268324,20.5327743 C131.132326,21.0181922 131.970398,21.6529695 132.408104,22.5677956 C133.230618,24.2812794 132.882113,26.5455259 131.436231,27.8233783 C130.055694,29.1136772 128.067348,29.4704802 126.238733,29.4020238 C124.940136,29.3180092 123.635316,29.0618164 122.441582,28.5307608 C122.446664,27.3265509 122.434218,26.1233783 122.447702,24.9202056 C123.451728,25.6493697 124.610301,26.1710903 125.836292,26.3826827 C126.689923,26.5216699 127.618232,26.5278932 128.413882,26.1461971 C129.175096,25.7676126 129.312009,24.6857944 128.859782,24.0240494 C128.436597,23.5137383 127.815304,23.2326522 127.229276,22.9567523 C126.128788,22.4619994 124.97229,22.0481495 124.005707,21.3065387 C123.326225,20.7765204 122.811765,20.0297236 122.610545,19.1875027 C122.31193,17.945953 122.405176,16.5467462 123.127079,15.4618164 C123.951667,14.1974478 125.384065,13.4392416 126.843431,13.1788999" id="Fill-18" fill="#777777"></path>
                <path d="M141.118649,13.1425869 C142.98253,12.9112874 144.961541,13.0367907 146.662578,13.8956071 C148.1458,14.6372178 149.296074,15.9773032 149.870693,17.5269067 C150.319808,18.7124466 150.477466,19.9923734 150.451535,21.2546675 C150.45475,23.1403295 149.945477,25.0757779 148.761907,26.571446 C147.654262,28.0194021 145.959345,28.9601586 144.170144,29.2557657 C142.420358,29.5389262 140.572035,29.4652837 138.909375,28.8107993 C137.224933,28.1480171 135.824689,26.7954851 135.115232,25.1297132 C134.375696,23.4317877 134.297905,21.5212325 134.528167,19.7071385 C134.769839,17.8930445 135.591315,16.1194021 136.991559,14.9131178 C138.138826,13.9059793 139.615824,13.3355095 141.118649,13.1425869" id="Fill-20" fill="#777777"></path>
                <path d="M101.009415,13.6705101 C102.04041,13.051291 103.350416,12.9994301 104.475901,13.3780146 C104.470611,14.6237132 104.475901,15.8694118 104.47279,17.1151104 C103.736261,16.6379902 102.81739,16.4336583 101.948201,16.5218218 C100.888061,16.6421391 100.047915,17.4563551 99.6122831,18.3898511 C99.1394155,19.3783197 99.050111,20.4965442 99.0801904,21.5772215 C99.0801904,24.065507 99.0812276,26.5537926 99.0801904,29.0420781 L95.3980671,29.0420781 C95.3949555,23.8415717 95.402216,18.6398206 95.3949555,13.4392105 C96.6241623,13.4236522 97.8531617,13.4298755 99.0822648,13.4360988 C99.0770787,14.3291434 99.0822648,15.2221879 99.0792569,16.1162697 C99.478482,15.1443966 100.072912,14.2005284 101.009415,13.6705101" id="Fill-22" fill="#777777"></path>
                <path d="M74.2108603,13.4361196 C75.4492984,13.4309335 76.6887736,13.4184869 77.9272117,13.4423429 C77.9126907,18.6419158 77.9261745,23.8425259 77.9209884,29.0420988 L74.2129347,29.0420988 C74.2098231,23.8404515 74.2139719,18.6388041 74.2108603,13.4361196" id="Fill-24" fill="#777777"></path>
                <path d="M112.463484,16.1121208 C113.58565,16.0384783 114.780629,16.355867 115.587585,17.1721574 C116.450446,18.0206016 116.78443,19.2518829 116.876846,20.4259097 C116.943124,21.7110226 116.89033,23.0501745 116.350873,24.2407968 C115.994174,25.0436034 115.340623,25.7219439 114.516138,26.0434814 C113.551422,26.4137682 112.467633,26.4355497 111.4718,26.1772825 C110.458542,25.9107175 109.598689,25.1784417 109.130904,24.2459829 C108.529214,23.0448847 108.439079,21.65605 108.563442,20.3387834 C108.676498,19.1407968 109.093564,17.9085821 110.006315,17.0819195 C110.667957,16.4637376 111.57044,16.1619073 112.463484,16.1121208" id="Fill-26" fill="#FEFEFE"></path>
                <path d="M142.126794,16.1152636 C143.181644,16.0416211 144.308063,16.2853673 145.119271,16.9979359 C145.867105,17.6181922 146.280955,18.5475394 146.470766,19.4831098 C146.684329,20.5804863 146.682254,21.7162398 146.501882,22.8188023 C146.358746,23.6402788 146.074549,24.4596809 145.536129,25.1100165 C144.993768,25.7634637 144.186708,26.1617553 143.353822,26.284147 C142.459844,26.4179481 141.518051,26.3536406 140.681949,25.9937261 C139.77957,25.6120299 139.080589,24.8310049 138.712273,23.9327743 C138.269484,22.8623655 138.181321,21.6768255 138.269484,20.531737 C138.354536,19.4229512 138.66871,18.2851232 139.401089,17.4231952 C140.068954,16.6183142 141.093829,16.1733478 142.126794,16.1152636" id="Fill-28" fill="#FEFEFE"></path>
                <g id="Group-32" transform="translate(166.266016, 16.388041)">
                    <mask id="mask-4" fill="white">
                        <use xlink:href="#path-3"></use>
                    </mask>
                    <g id="Clip-31"></g>
                    <path d="M0.0239078707,0.0580945699 C1.26027151,0.0622434411 2.49767236,0.0249035998 3.734036,0.0757272727 L3.734036,9.41172483 C2.91567114,9.95927212 1.785,10.1771916 0.894133618,9.67828981 C0.362040879,9.38475717 0.155634533,8.75620317 0.0870744356,8.18884503 C-0.0258785845,7.22630689 0.045585723,6.25547102 0.0259823063,5.28982123 C0.0249450885,3.54522087 0.0290939597,1.80165772 0.0239078707,0.0580945699" id="Fill-30" fill="#FEFEFE" mask="url(#mask-4)"></path>
                </g>
                <g id="Group-35" transform="translate(0.000000, 18.981086)">
                    <mask id="mask-6" fill="white">
                        <use xlink:href="#path-5"></use>
                    </mask>
                    <g id="Clip-34"></g>
                    <path d="M0,0.0508444173 C5.75655888,0.052918853 11.5131178,0.0498071995 17.2696766,0.052918853 C17.2707138,5.80947773 17.2696766,11.5649994 17.2696766,17.3215583 L0,17.3215583 L0,0.0508444173 Z" id="Fill-33" fill="#02A4EF" mask="url(#mask-6)"></path>
                </g>
                <path d="M19.0339634,19.0339634 C24.7894851,19.031889 30.5460439,19.0329262 36.3026028,19.0329262 L36.3026028,36.3026028 L19.0329262,36.3026028 C19.0339634,30.5460439 19.031889,24.7894851 19.0339634,19.0339634" id="Fill-36" fill="#FFB902"></path>
            </g>
        </g>
    </g>
</svg>