<?xml version="1.0" encoding="UTF-8"?>
<svg width="214px" height="214px" viewBox="0 0 214 214" version="1.1" xmlns="http://www.w3.org/2000/svg" xmlns:xlink="http://www.w3.org/1999/xlink">
    <!-- Generator: Sketch 55.2 (78181) - https://sketchapp.com -->
    <title>progress_logo</title>
    <desc>Created with Sketch.</desc>
    <defs>
        <polygon id="path-1" points="0.225597999 0.226317804 5.09207987 0.226317804 5.09207987 5.09207458 0.225597999 5.09207458"></polygon>
    </defs>
    <g id="Exports" stroke="none" stroke-width="1" fill="none" fill-rule="evenodd">
        <g id="Homepage-New" transform="translate(-1767.000000, -4966.000000)">
            <g id="Group-8" transform="translate(1789.000000, 5051.000000)">
                <path d="M0,27.1618136 L7.92013311,31.7158902 L7.92013311,22.5794509 L0,27.1618136 Z M19.3477537,15.9887687 L16.0948419,14.1218802 L8.51414309,9.7375208 C8.14642263,9.53951747 7.69384359,9.53951747 7.32612313,9.7375208 L0.594009983,13.641015 L0,13.9804493 L11.4276206,20.5711314 L11.4276206,33.780782 L18.1597338,29.905574 L18.7537438,29.5661398 C19.093178,29.3398502 19.3194676,28.9721298 19.3477537,28.5478369 L19.3477537,15.9887687 Z M31.6522463,9.56780366 L31.6522463,9.56780366 L31.6522463,26.4829451 C31.6239601,26.9072379 31.3976705,27.2749584 31.0582363,27.5012479 L30.4925125,27.8406822 L26.2778702,30.2732945 L23.4209651,31.9421797 L22.8269551,32.281614 L22.8269551,14.0087354 L6.98668885,4.87229617 L14.5108153,0.544509151 L15.1896839,0.148502496 C15.5574043,-0.0495008319 16.0099834,-0.0495008319 16.3777038,0.148502496 L26.7870216,6.1734609 L31.5956739,8.94550749 L31.6522463,9.56780366 Z" id="Fill-1" fill="#5CE500"></path>
                <path d="M164.484193,27.1051847 C164.484193,29.8209418 162.221298,32.5927055 157.15807,32.5927055 C152.688852,32.5927055 150.02995,30.6409584 149.66223,27.1337537 L149.633943,26.7657504 L153.141431,26.7657504 L153.169717,27.0203261 C153.59401,29.1417903 155.602329,29.5660832 157.214642,29.5660832 C158.996672,29.5660832 160.863561,29.0003594 160.863561,27.3880466 C160.863561,26.56803 160.326123,26.0023062 159.30782,25.6908752 C158.685524,25.5211581 157.921797,25.2951514 157.129784,25.068579 C155.74376,24.6725724 154.329451,24.2765657 153.452579,23.9654176 C151.274542,23.1736872 150.02995,21.6742363 150.02995,19.8073478 C150.02995,16.3564326 153.396007,14.8006922 156.733777,14.8006922 C161.202995,14.8006922 163.494176,16.4695774 163.777038,19.9487787 L163.805324,20.3164992 L160.382696,20.3164992 L160.326123,20.0336373 C159.986689,18.053604 158.006656,17.7424559 156.846922,17.7424559 C155.856905,17.7424559 153.537438,17.912173 153.537438,19.552772 C153.537438,20.288213 154.18802,20.8539368 155.489185,21.2216572 C155.885191,21.3350849 156.450915,21.4765158 157.15807,21.6459501 C158.544093,22.0136705 160.297837,22.4665324 161.174709,22.7493943 C163.409318,23.569411 164.512479,25.0122895 164.484193,27.1051847 L164.484193,27.1051847 Z M148.134775,27.0768985 C148.134775,29.7923727 145.87188,32.5644193 140.808652,32.5644193 C136.339434,32.5644193 133.680532,30.6126722 133.312812,27.1051847 L133.25624,26.7374642 L136.735441,26.7374642 L136.792013,27.0203261 C137.216306,29.1417903 139.224626,29.5660832 140.836938,29.5660832 C142.618968,29.5660832 144.485857,29.0003594 144.485857,27.3880466 C144.485857,26.56803 143.948419,26.0023062 142.930116,25.6908752 C142.30782,25.5211581 141.544093,25.2951514 140.75208,25.068579 C139.366057,24.6725724 137.951747,24.2765657 137.074875,23.9654176 C134.896839,23.1736872 133.652246,21.6742363 133.652246,19.8073478 C133.652246,16.3564326 137.018303,14.8006922 140.356073,14.8006922 C144.825291,14.8006922 147.116473,16.4695774 147.427621,19.9487787 L147.455907,20.3164992 L144.033278,20.3164992 L143.976705,20.0336373 C143.637271,18.053604 141.657238,17.7424559 140.497504,17.7424559 C139.507488,17.7424559 137.18802,17.912173 137.18802,19.552772 C137.18802,20.288213 137.838602,20.8539368 139.139767,21.2216572 C139.535774,21.3350849 140.101498,21.4765158 140.808652,21.6459501 C142.194676,22.0136705 143.948419,22.4665324 144.825291,22.7493943 C147.003328,23.5128386 148.106489,24.9554343 148.106489,27.0486123 L148.134775,27.0768985 Z M95.2113145,29.1700765 C93.9667221,29.1700765 91.0815308,28.6043527 91.0815308,23.3996938 C91.0815308,19.9770649 92.6938436,17.8556007 95.296173,17.8556007 C97.3044925,17.8556007 99.4542429,19.2981963 99.4542429,23.3996938 C99.4259567,27.0203261 97.8419301,29.1700765 95.2113145,29.1700765 L95.2113145,29.1700765 Z M99.5391015,16.5261498 C98.4076539,15.3381298 96.8801997,14.7441198 94.985025,14.7441198 C89.7803661,14.7441198 87.4043261,19.3264825 87.4043261,23.569411 C87.4043261,27.9254842 89.7520799,32.3381298 94.985025,32.3381298 C96.6539101,32.3666988 98.2379368,31.7158336 99.3976705,30.5280965 C99.3976705,31.2915408 99.3693844,31.9986955 99.3410982,32.3098436 C99.1430948,35.1384626 97.7853577,36.4681963 95.0698835,36.4681963 C93.5990017,36.4681963 91.8735441,35.9304759 91.562396,34.4881631 L91.4775374,34.1484459 L87.9700499,34.1484459 L88.0266223,34.629594 C88.3943428,37.6559334 91.0532446,39.522822 94.9567388,39.522822 C98.3793677,39.522822 100.81198,38.2216572 102,35.7890449 C102.565724,34.601025 102.848586,32.9038536 102.848586,30.6975308 L102.848586,15.1118403 L99.4825291,15.1118403 L99.5391015,16.5261498 Z M119.650582,21.7308087 C119.96173,19.3547687 121.574043,17.8556007 123.893511,17.8556007 C125.647255,17.8556007 127.740433,18.8739035 128.051581,21.7308087 L119.650582,21.7308087 Z M128.023295,26.7374642 L127.966722,26.9354676 C127.231281,29.0569318 125.449251,29.4812246 124.091514,29.4812246 C121.404326,29.4812246 119.678869,27.6994775 119.509151,24.8140033 L131.643927,24.8140033 L131.700499,24.4745691 C131.757072,24.0222729 131.757072,23.569411 131.728785,23.1168319 L131.728785,22.8056839 C131.559068,17.9970316 128.419301,14.7441198 123.950083,14.7441198 C121.319468,14.7441198 119.198003,15.7624226 117.755408,17.7141697 C116.539101,19.4679135 115.888519,21.5610915 115.916805,23.6825557 C115.916805,28.9723561 119.22629,32.5361331 124.1198,32.5361331 C127.91015,32.5361331 130.540765,30.6126722 131.47421,27.1051847 L131.587354,26.7094609 L128.023295,26.7094609 L128.023295,26.7374642 Z M115.322795,15.224985 L115.605657,15.366416 L114.955075,18.8173311 L114.502496,18.6759002 C114.134775,18.5627554 113.767055,18.506183 113.399334,18.506183 C109.835275,18.506183 109.524126,21.3630882 109.524126,24.8140033 L109.524126,32.2532712 L105.988353,32.2532712 L105.988353,15.0835541 L109.297837,15.0835541 L109.297837,17.1484459 C110.202995,15.7624226 111.27787,15.0269817 112.748752,14.8572646 C113.625624,14.7441198 114.502496,14.8572646 115.322795,15.224985 L115.322795,15.224985 Z M77.3344426,29.4529384 C74.562396,29.4529384 72.8369384,27.2466156 72.8369384,23.6825557 C72.8369384,20.1184958 74.562396,17.8556007 77.3344426,17.8556007 C80.1064892,17.8556007 81.8602329,20.0902097 81.8602329,23.59798 C81.8885191,27.2183295 80.1347754,29.4529384 77.3344426,29.4529384 L77.3344426,29.4529384 Z M77.3344426,14.7441198 C74.5341098,14.7441198 72.2995008,15.7907088 70.8569052,17.8273145 C69.3577371,19.9487787 69.1314476,22.4096772 69.1314476,23.7108419 C69.1314476,29.1417903 72.3560732,32.6209917 77.3344426,32.6209917 C83.3876872,32.6209917 85.5374376,27.7557671 85.5374376,23.569411 C85.5374376,21.1650849 84.8302829,18.9870483 83.5574043,17.4313078 C82.0865225,15.6775641 79.936772,14.7441198 77.3344426,14.7441198 L77.3344426,14.7441198 Z M68.6222962,15.224985 L68.9051581,15.366416 L68.2545757,18.8173311 L67.8019967,18.6759002 C67.4342762,18.5627554 67.0665557,18.506183 66.6988353,18.506183 C63.1347754,18.506183 62.8236273,21.3630882 62.8236273,24.8140033 L62.8236273,32.2532712 L59.2878536,32.2532712 L59.2878536,15.0835541 L62.5973378,15.0835541 L62.5973378,17.1484459 C63.5024958,15.7624226 64.577371,15.0269817 66.0482529,14.8572646 C66.9251248,14.7441198 67.8019967,14.8572646 68.6222962,15.224985 L68.6222962,15.224985 Z M53.3194676,15.9321398 C53.3194676,18.5627554 51.9617304,19.6376306 48.5956739,19.6376306 L44.296173,19.6376306 L44.296173,12.3115075 L49.1331115,12.3115075 C51.9617304,12.3397937 53.3477537,13.4995275 53.3194676,15.9321398 L53.3194676,15.9321398 Z M49.0765391,8.88887854 L40.4492512,8.88887854 L40.4492512,32.2532712 L44.2678869,32.2532712 L44.2678869,23.0885458 L49.1048253,23.0885458 C54.3377704,23.0885458 57.2229617,20.5427887 57.2229617,15.9038536 C57.2229617,13.7823894 56.4309484,8.88887854 49.0765391,8.88887854 L49.0765391,8.88887854 Z" id="Fill-3" fill="#4B4E52"></path>
                <g id="Group-7" transform="translate(164.625624, 11.802413)">
                    <mask id="mask-2" fill="white">
                        <use xlink:href="#path-1"></use>
                    </mask>
                    <g id="Clip-6"></g>
                    <path d="M2.80044592,1.95177537 L2.40443927,1.95177537 L2.40443927,2.51749917 L2.80044592,2.51749917 C2.94187687,2.54578536 3.11159401,2.4326406 3.13959734,2.29120965 L3.13959734,2.23463727 C3.13959734,2.06492013 3.02673544,1.95177537 2.85673544,1.92348918 C2.82873211,1.95177537 2.80044592,1.95177537 2.80044592,1.95177537 L2.80044592,1.95177537 Z M2.40443927,3.11150915 L2.40443927,3.93180865 L1.69728453,3.93180865 L1.69728453,1.35776539 L2.88530449,1.35776539 C3.36616972,1.30119301 3.79046256,1.64062729 3.81874875,2.12149251 L3.81874875,2.26292346 C3.84675208,2.60235774 3.64903161,2.91350582 3.33760067,3.02665058 L3.93189351,3.93180865 L3.11159401,3.93180865 L2.63044592,3.11150915 L2.40443927,3.11150915 Z M2.68730116,0.622324459 C1.55585358,0.59403827 0.650412646,1.49919634 0.622409318,2.60235774 C0.593840266,3.73380532 1.49899834,4.63896339 2.6024426,4.66724958 C3.70532113,4.69553577 4.63904825,3.7903777 4.66733444,2.68721631 L4.66733444,2.65893012 C4.69533777,1.58405491 3.84675208,0.678896839 2.77187687,0.622324459 L2.68730116,0.622324459 L2.68730116,0.622324459 Z M2.68730116,5.09154243 C1.32956406,5.11982862 0.2261198,4.01666722 0.2261198,2.68721631 C0.198116473,1.3294792 1.30099501,0.226317804 2.63044592,0.226317804 C3.9601797,0.226317804 5.09162729,1.30119301 5.09162729,2.63064393 L5.09162729,2.65893012 C5.11963062,3.98838103 4.07332446,5.06325624 2.74387354,5.09154243 L2.68730116,5.09154243 L2.68730116,5.09154243 Z" id="Fill-5" fill="#4B4E52" mask="url(#mask-2)"></path>
                </g>
            </g>
        </g>
    </g>
</svg>