<?xml version="1.0" encoding="UTF-8"?>
<svg width="214px" height="214px" viewBox="0 0 214 214" version="1.1" xmlns="http://www.w3.org/2000/svg" xmlns:xlink="http://www.w3.org/1999/xlink">
    <!-- Generator: Sketch 58 (84663) - https://sketch.com -->
    <title>vrh_logo</title>
    <desc>Created with Sketch.</desc>
    <defs>
        <polygon id="path-1" points="0 0.219363057 77.5350318 0.219363057 77.5350318 89.171877 0 89.171877"></polygon>
        <polygon id="path-3" points="8.91719745e-05 0.0871210191 17.8343949 0.0871210191 17.8343949 37.5839363 8.91719745e-05 37.5839363"></polygon>
    </defs>
    <g id="Exports" stroke="none" stroke-width="1" fill="none" fill-rule="evenodd">
        <g id="Homepage-New" transform="translate(-2506.000000, -5234.000000)">
            <g id="Group-11" transform="translate(2543.000000, 5297.000000)">
                <g id="Group-3" transform="translate(0.000000, 0.226497)">
                    <mask id="mask-2" fill="white">
                        <use xlink:href="#path-1"></use>
                    </mask>
                    <g id="Clip-2"></g>
                    <path d="M70.8917197,21.4882166 C70.5350318,21.2207006 63.133758,16.9404459 54.4840764,11.9468153 L38.7452229,2.85127389 L29.3821656,8.24617834 C24.2547771,11.1888535 20.0636943,13.7748408 20.0636943,13.9085987 C20.0636943,14.0869427 25.8152866,15.0678344 32.9044586,16.1378981 C39.9490446,17.2079618 51.2292994,18.9468153 57.9617834,19.972293 C64.6942675,20.9977707 70.5350318,21.8894904 70.8917197,21.8894904 C71.4713376,21.9340764 71.4713376,21.8894904 70.8917197,21.4882166 L70.8917197,21.4882166 Z M19.5286624,16.0487261 L16.4968153,15.6474522 L9.76433121,19.5264331 C6.06369427,21.7111465 2.94267516,23.7175159 2.8089172,24.0296178 C2.63057325,24.4754777 5.43949045,33.0359873 7.44585987,38.2525478 C7.57961783,38.6538217 8.38216561,39.4563694 9.27388535,40.0359873 L10.8343949,41.106051 L16.7197452,28.7557325 L22.5605096,16.405414 L19.5286624,16.0487261 Z M67.6815287,46.8130573 L74.9044586,36.6920382 L74.9044586,30.539172 L74.9044586,24.3417197 L69.6878981,23.583758 C66.7898089,23.1824841 60.1910828,22.2015924 55.0191083,21.3990446 C49.3121019,20.5073248 45.656051,20.106051 45.7452229,20.3735669 C45.8343949,20.6410828 46.8152866,24.1633758 47.9299363,28.2207006 C49.044586,32.2780255 51.4076433,40.7047771 53.1464968,46.9468153 C54.8853503,53.1888535 56.4904459,59.0742038 56.7579618,59.9659236 L57.1592357,61.6601911 L58.8535032,59.2971338 C59.7452229,58.0487261 63.7133758,52.4308917 67.6815287,46.8130573 L67.6815287,46.8130573 Z M54.1273885,65.9408917 L55.7770701,63.5328025 L52.8789809,53.0996815 C51.2738854,47.3926752 48.5541401,37.583758 46.8152866,31.3417197 C45.0764331,25.0996815 43.5605096,19.927707 43.4713376,19.793949 C43.0700637,19.4372611 24.7452229,16.7175159 24.477707,16.9850318 C23.9872611,17.4754777 12.3949045,42.0869427 12.5732484,42.2652866 C13.0636943,42.7111465 51.9872611,68.3480892 52.2101911,68.3480892 C52.343949,68.3480892 53.1910828,67.2784713 54.1273885,65.9408917 L54.1273885,65.9408917 Z M68.2165605,69.5519108 C71.0254777,67.9472611 73.7006369,66.3417197 74.1464968,66.0296178 C74.8598726,65.4950318 74.9044586,64.4691083 74.8152866,52.7880255 L74.6815287,40.1697452 L64.6050955,54.348535 C59.0764331,62.1952229 54.3949045,68.793949 54.2165605,69.106051 C54.0382166,69.4627389 55.1082803,70.4436306 57.1592357,71.8257962 L60.4140127,74.0550955 L61.7515924,73.2525478 C62.5095541,72.8066879 65.4076433,71.1570064 68.2165605,69.5519108 L68.2165605,69.5519108 Z M18.0573248,74.1892994 C17.9235669,73.9213376 15.7834395,67.9914013 13.3312102,60.9022293 C10.8343949,53.8576433 7.49044586,44.2716561 5.84076433,39.5901274 L2.89808917,31.1187898 L2.76433121,48.2398089 C2.71974522,58.8512739 2.8089172,65.539172 3.07643312,65.8066879 C3.65605096,66.3867516 17.477707,74.5009554 17.9681529,74.5455414 C18.1910828,74.5901274 18.2356688,74.4122293 18.0573248,74.1892994 L18.0573248,74.1892994 Z M48.7324841,80.8321656 C54.0382166,77.7561783 58.4076433,75.1697452 58.4076433,75.0359873 C58.4076433,74.9022293 47.1719745,67.3671975 33.4394904,58.2270701 L8.51592357,41.6410828 L9.98726115,45.7429936 C10.7898089,48.016879 13.5541401,55.7748408 16.0509554,63.0428025 L20.6878981,76.1956688 L29.6050955,81.3671975 C34.5541401,84.2211465 38.7006369,86.539172 38.8343949,86.494586 C38.9681529,86.4504459 43.4267516,83.9085987 48.7324841,80.8321656 L48.7324841,80.8321656 Z M27.5987261,83.1506369 C21.8025478,79.8066879 13.2420382,74.8580892 8.56050955,72.1378981 L0,67.2334395 L0,44.7175159 L0,22.2015924 L4.36942675,19.7047771 C6.73248408,18.3671975 15.3821656,13.3735669 23.5414013,8.64745223 C31.7006369,3.92133758 38.656051,0.131528662 38.9681529,0.220700637 C39.2802548,0.309872611 48.1082803,5.2589172 58.5414013,11.2780255 L77.5350318,22.2015924 L77.5350318,44.7175159 L77.5350318,67.2334395 L58.5414013,78.1570064 C48.1082803,84.1761146 39.2356688,89.1256051 38.8343949,89.1697452 C38.433121,89.2589172 33.3949045,86.539172 27.5987261,83.1506369 L27.5987261,83.1506369 Z" id="Fill-1" fill="#414141" mask="url(#mask-2)"></path>
                </g>
                <path d="M89.7070955,46.9952803 C86.7198344,40.753242 84.2676051,35.4475096 84.2676051,35.1349618 C84.2676051,34.8233057 84.8026369,34.6891019 85.6943567,34.7787197 C87.0319363,34.9120318 87.2098344,35.1799936 91.1338471,43.7405032 C93.3631465,48.5557898 95.2803439,52.5234968 95.4141019,52.5234968 C95.5478599,52.5234968 97.5096433,48.5557898 99.7389427,43.7405032 C103.617924,35.1799936 103.796268,34.9120318 105.178433,34.7787197 C105.935949,34.6891019 106.560599,34.8233057 106.560599,35.0462357 C106.560599,35.6258535 105.000089,39.0589745 100.54149,48.287828 C98.4013631,52.7022866 96.4841656,56.7591656 96.2612357,57.3387834 C96.0383057,57.8738153 95.7262038,58.3196752 95.5032739,58.3196752 C95.2803439,58.3196752 92.6943567,53.2373185 89.7070955,46.9952803" id="Fill-4" fill="#414141"></path>
                <path d="M109.681529,46.2816369 L109.681529,34.6892803 L111.019108,34.6892803 C112.267516,34.6892803 112.356688,34.8230382 112.356688,36.2943758 L112.356688,37.8994713 L113.828025,36.6510637 C115.343949,35.3580701 117.66242,34.2434204 118.821656,34.2434204 C119.267516,34.2434204 119.490446,34.6892803 119.490446,35.536414 C119.490446,36.6064777 119.178344,36.9631656 117.394904,37.8548854 C116.057325,38.5236752 114.764331,39.6829108 113.917197,40.8421465 L112.579618,42.8039299 L112.44586,50.3394076 L112.312102,57.8739936 L110.974522,57.8739936 L109.681529,57.8739936 L109.681529,46.2816369 Z" id="Fill-6" fill="#414141"></path>
                <g id="Group-10" transform="translate(122.165605, 20.290191)">
                    <mask id="mask-4" fill="white">
                        <use xlink:href="#path-3"></use>
                    </mask>
                    <g id="Clip-9"></g>
                    <path d="M0.0892611465,18.9915796 L0.223019108,0.354636943 L1.47142675,0.220878981 L2.67524841,0.0871210191 L2.67524841,7.66673885 L2.67524841,15.2463567 L4.14658599,14.3992229 C7.49053503,12.4374395 12.1274777,12.8832994 15.0255669,15.4247006 C17.6556943,17.698586 17.8344841,18.6348917 17.8344841,28.6667389 L17.8344841,37.5839363 L16.4969045,37.5839363 L15.1593248,37.5839363 L15.1593248,28.9342548 C15.1593248,20.7304331 15.1147389,20.2399873 14.1338471,18.8132357 C13.5096433,17.8769299 12.3053758,16.9852102 11.057414,16.4501783 C9.18435669,15.6922166 8.73849682,15.6476306 7.08926115,16.1380764 C6.06333758,16.4501783 4.63703185,17.2973121 3.92365605,17.9661019 L2.67524841,19.2145096 L2.67524841,28.3992229 L2.67524841,37.5839363 L1.33766879,37.5839363 L8.91719745e-05,37.5839363 L0.0892611465,18.9915796 Z" id="Fill-8" fill="#414141" mask="url(#mask-4)"></path>
                </g>
            </g>
        </g>
    </g>
</svg>