<?xml version="1.0" encoding="utf-8"?>
<!-- Generator: Adobe Illustrator 25.1.0, SVG Export Plug-In . SVG Version: 6.00 Build 0)  -->
<svg version="1.1" id="Layer_1" xmlns="http://www.w3.org/2000/svg" xmlns:xlink="http://www.w3.org/1999/xlink" x="0px" y="0px"
	 viewBox="0 0 214 214" style="enable-background:new 0 0 214 214;" xml:space="preserve">
<style type="text/css">
	.st0{fill:#4D345B;}
	.st1{clip-path:url(#SVGID_2_);fill:#4D345B;}
	.st2{clip-path:url(#SVGID_4_);fill:#4D345B;}
	.st3{clip-path:url(#SVGID_6_);fill:#4D345B;}
	.st4{clip-path:url(#SVGID_8_);fill:#4D345B;}
	.st5{clip-path:url(#SVGID_10_);fill:#4D345B;}
	.st6{clip-path:url(#SVGID_12_);fill:#4D345B;}
	.st7{clip-path:url(#SVGID_14_);fill:#4D345B;}
	.st8{clip-path:url(#SVGID_16_);fill:#4D345B;}
	.st9{clip-path:url(#SVGID_18_);fill:#4D345B;}
	.st10{clip-path:url(#SVGID_20_);fill:#4D345B;}
	.st11{clip-path:url(#SVGID_22_);fill:#4D345B;}
	.st12{clip-path:url(#SVGID_24_);fill:#4D345B;}
	.st13{clip-path:url(#SVGID_26_);fill:#4D345B;}
	.st14{clip-path:url(#SVGID_28_);fill:#4D345B;}
	.st15{clip-path:url(#SVGID_30_);fill:#4D345B;}
	.st16{clip-path:url(#SVGID_32_);fill:#4D345B;}
	.st17{clip-path:url(#SVGID_34_);fill:#4D345B;}
</style>
<desc>Created with Sketch.</desc>
<g>
	<g>
		<g>
			<path id="SVGID_00000077284407478781148740000007332281473128805797_" class="st0" d="M134.3,80.6l-12.5-12.5c-1-1-2.7-1-3.7,0
				c-1,1-1,2.7,0,3.7l10.7,10.7l-10.7,10.7c-1,1-1,2.7,0,3.7c0.5,0.5,1.2,0.8,1.8,0.8c0.7,0,1.3-0.3,1.8-0.8l12.5-12.5
				C135.3,83.3,135.3,81.6,134.3,80.6z M69.1,68.1c-1-1-2.7-1-3.7,0L52.9,80.6c-1,1-1,2.7,0,3.7l12.5,12.5c0.5,0.5,1.2,0.8,1.8,0.8
				c0.7,0,1.3-0.3,1.8-0.8c1-1,1-2.7,0-3.7L58.4,82.5l10.7-10.7C70.1,70.8,70.1,69.1,69.1,68.1z M102.1,102.5H89.3L102,61.7h2.5
				L102.1,102.5z M96.6,61.7L84.9,99.2l-2.2-37.5L96.6,61.7L96.6,61.7z M107.2,56.5h-3.6l4.5-14.4c0.4-1.4-0.3-2.8-1.7-3.2
				c-1.4-0.4-2.8,0.3-3.2,1.7l-4.9,15.9H80c-0.7,0-1.4,0.3-1.9,0.8s-0.7,1.2-0.7,1.9l2.7,46c0.1,1.4,1.2,2.4,2.6,2.4h3.1
				c0,0,0,0,0,0c0,0,0,0,0,0H91v5.3h-5.8c-1.4,0-2.6,1.2-2.6,2.6s1.2,2.6,2.6,2.6H102c1.4,0,2.6-1.2,2.6-2.6s-1.2-2.6-2.6-2.6h-5.8
				v-5.3h8.3c1.4,0,2.5-1.1,2.6-2.4l2.7-46c0-0.7-0.2-1.4-0.7-1.9C108.6,56.8,108,56.5,107.2,56.5L107.2,56.5L107.2,56.5z"/>
		</g>
		<g>
			<defs>
				<path id="SVGID_1_" d="M134.3,80.6l-12.5-12.5c-1-1-2.7-1-3.7,0c-1,1-1,2.7,0,3.7l10.7,10.7l-10.7,10.7c-1,1-1,2.7,0,3.7
					c0.5,0.5,1.2,0.8,1.8,0.8c0.7,0,1.3-0.3,1.8-0.8l12.5-12.5C135.3,83.3,135.3,81.6,134.3,80.6z M69.1,68.1c-1-1-2.7-1-3.7,0
					L52.9,80.6c-1,1-1,2.7,0,3.7l12.5,12.5c0.5,0.5,1.2,0.8,1.8,0.8c0.7,0,1.3-0.3,1.8-0.8c1-1,1-2.7,0-3.7L58.4,82.5l10.7-10.7
					C70.1,70.8,70.1,69.1,69.1,68.1z M102.1,102.5H89.3L102,61.7h2.5L102.1,102.5z M96.6,61.7L84.9,99.2l-2.2-37.5L96.6,61.7
					L96.6,61.7z M107.2,56.5h-3.6l4.5-14.4c0.4-1.4-0.3-2.8-1.7-3.2c-1.4-0.4-2.8,0.3-3.2,1.7l-4.9,15.9H80c-0.7,0-1.4,0.3-1.9,0.8
					s-0.7,1.2-0.7,1.9l2.7,46c0.1,1.4,1.2,2.4,2.6,2.4h3.1c0,0,0,0,0,0c0,0,0,0,0,0H91v5.3h-5.8c-1.4,0-2.6,1.2-2.6,2.6
					s1.2,2.6,2.6,2.6H102c1.4,0,2.6-1.2,2.6-2.6s-1.2-2.6-2.6-2.6h-5.8v-5.3h8.3c1.4,0,2.5-1.1,2.6-2.4l2.7-46
					c0-0.7-0.2-1.4-0.7-1.9C108.6,56.8,108,56.5,107.2,56.5L107.2,56.5L107.2,56.5z"/>
			</defs>
			<clipPath id="SVGID_2_">
				<use xlink:href="#SVGID_1_"  style="overflow:visible;"/>
			</clipPath>
			<rect x="51.7" y="38.3" class="st1" width="84.1" height="80.3"/>
		</g>
	</g>
	<g>
		<g>
			<path id="SVGID_00000109022279179042057580000011032130663886515633_" class="st0" d="M52.7,144.2c-0.2,0-0.3-0.1-0.4-0.2
				c-0.1-0.1-0.2-0.2-0.2-0.4v-1.9c0-0.2,0-0.4,0.1-0.5c0.1-0.1,0.2-0.2,0.2-0.3l7.5-9.5h-7.1c-0.1,0-0.3-0.1-0.4-0.2
				c-0.1-0.1-0.2-0.2-0.2-0.4V129c0-0.2,0.1-0.3,0.2-0.4c0.1-0.1,0.2-0.2,0.4-0.2h11c0.2,0,0.3,0.1,0.4,0.2c0.1,0.1,0.2,0.2,0.2,0.4
				v1.9c0,0.2,0,0.3-0.1,0.4c-0.1,0.1-0.1,0.2-0.2,0.3l-7.3,9.5h7.3c0.2,0,0.3,0.1,0.4,0.2c0.1,0.1,0.2,0.2,0.2,0.4v1.9
				c0,0.2-0.1,0.3-0.2,0.4c-0.1,0.1-0.2,0.2-0.4,0.2L52.7,144.2L52.7,144.2z"/>
		</g>
		<g>
			<defs>
				<path id="SVGID_3_" d="M52.7,144.2c-0.2,0-0.3-0.1-0.4-0.2c-0.1-0.1-0.2-0.2-0.2-0.4v-1.9c0-0.2,0-0.4,0.1-0.5
					c0.1-0.1,0.2-0.2,0.2-0.3l7.5-9.5h-7.1c-0.1,0-0.3-0.1-0.4-0.2c-0.1-0.1-0.2-0.2-0.2-0.4V129c0-0.2,0.1-0.3,0.2-0.4
					c0.1-0.1,0.2-0.2,0.4-0.2h11c0.2,0,0.3,0.1,0.4,0.2c0.1,0.1,0.2,0.2,0.2,0.4v1.9c0,0.2,0,0.3-0.1,0.4c-0.1,0.1-0.1,0.2-0.2,0.3
					l-7.3,9.5h7.3c0.2,0,0.3,0.1,0.4,0.2c0.1,0.1,0.2,0.2,0.2,0.4v1.9c0,0.2-0.1,0.3-0.2,0.4c-0.1,0.1-0.2,0.2-0.4,0.2L52.7,144.2
					L52.7,144.2z"/>
			</defs>
			<clipPath id="SVGID_4_">
				<use xlink:href="#SVGID_3_"  style="overflow:visible;"/>
			</clipPath>
			<rect x="51.7" y="128" class="st2" width="13.5" height="16.6"/>
		</g>
	</g>
	<g>
		<g>
			<path id="SVGID_00000157285724338652785890000007514739374941446060_" class="st0" d="M69.8,137.2h4.4v0c0-0.5-0.1-1-0.3-1.4
				c-0.2-0.4-0.4-0.7-0.8-0.9c-0.3-0.2-0.7-0.3-1.2-0.3c-0.5,0-0.9,0.1-1.2,0.3c-0.3,0.2-0.6,0.5-0.8,0.9
				C69.8,136.2,69.8,136.6,69.8,137.2L69.8,137.2L69.8,137.2z M72,144.4c-1.7,0-3.1-0.5-4.1-1.4c-1-1-1.5-2.4-1.6-4.2
				c0-0.1,0-0.3,0-0.5c0-0.2,0-0.4,0-0.5c0.1-1.2,0.3-2.1,0.8-3c0.5-0.8,1.1-1.5,2-1.9c0.8-0.4,1.8-0.7,2.9-0.7
				c1.3,0,2.3,0.3,3.2,0.8c0.8,0.5,1.5,1.2,1.9,2.1c0.4,0.9,0.6,1.9,0.6,3.1v0.5c0,0.1-0.1,0.3-0.2,0.4s-0.2,0.2-0.4,0.2h-7.3
				c0,0,0,0,0,0.1c0,0,0,0.1,0,0.1c0,0.5,0.1,0.9,0.3,1.3c0.2,0.4,0.4,0.7,0.7,1c0.3,0.2,0.7,0.4,1.2,0.4c0.4,0,0.7-0.1,0.9-0.2
				c0.2-0.1,0.4-0.2,0.6-0.4c0.2-0.1,0.3-0.3,0.3-0.4c0.1-0.1,0.2-0.2,0.3-0.3c0.1,0,0.2-0.1,0.4-0.1h2.3c0.1,0,0.3,0,0.4,0.1
				c0.1,0.1,0.1,0.2,0.1,0.3c0,0.2-0.1,0.5-0.4,0.9c-0.2,0.4-0.6,0.7-1,1c-0.5,0.3-1,0.6-1.7,0.8C73.6,144.3,72.8,144.4,72,144.4z"
				/>
		</g>
		<g>
			<defs>
				<path id="SVGID_5_" d="M69.8,137.2h4.4v0c0-0.5-0.1-1-0.3-1.4c-0.2-0.4-0.4-0.7-0.8-0.9c-0.3-0.2-0.7-0.3-1.2-0.3
					c-0.5,0-0.9,0.1-1.2,0.3c-0.3,0.2-0.6,0.5-0.8,0.9C69.8,136.2,69.8,136.6,69.8,137.2L69.8,137.2L69.8,137.2z M72,144.4
					c-1.7,0-3.1-0.5-4.1-1.4c-1-1-1.5-2.4-1.6-4.2c0-0.1,0-0.3,0-0.5c0-0.2,0-0.4,0-0.5c0.1-1.2,0.3-2.1,0.8-3
					c0.5-0.8,1.1-1.5,2-1.9c0.8-0.4,1.8-0.7,2.9-0.7c1.3,0,2.3,0.3,3.2,0.8c0.8,0.5,1.5,1.2,1.9,2.1c0.4,0.9,0.6,1.9,0.6,3.1v0.5
					c0,0.1-0.1,0.3-0.2,0.4s-0.2,0.2-0.4,0.2h-7.3c0,0,0,0,0,0.1c0,0,0,0.1,0,0.1c0,0.5,0.1,0.9,0.3,1.3c0.2,0.4,0.4,0.7,0.7,1
					c0.3,0.2,0.7,0.4,1.2,0.4c0.4,0,0.7-0.1,0.9-0.2c0.2-0.1,0.4-0.2,0.6-0.4c0.2-0.1,0.3-0.3,0.3-0.4c0.1-0.1,0.2-0.2,0.3-0.3
					c0.1,0,0.2-0.1,0.4-0.1h2.3c0.1,0,0.3,0,0.4,0.1c0.1,0.1,0.1,0.2,0.1,0.3c0,0.2-0.1,0.5-0.4,0.9c-0.2,0.4-0.6,0.7-1,1
					c-0.5,0.3-1,0.6-1.7,0.8C73.6,144.3,72.8,144.4,72,144.4z"/>
			</defs>
			<clipPath id="SVGID_6_">
				<use xlink:href="#SVGID_5_"  style="overflow:visible;"/>
			</clipPath>
			<rect x="65.8" y="131.8" class="st3" width="12.3" height="13.1"/>
		</g>
	</g>
	<g>
		<g>
			<path id="SVGID_00000072991074329847810330000006765338289610599815_" class="st0" d="M84.2,142.1c0.5,0,0.9-0.1,1.3-0.3
				c0.4-0.2,0.7-0.5,0.9-1c0.2-0.4,0.3-1,0.3-1.6v-0.4l-2.1,0.3c-0.8,0.1-1.4,0.3-1.8,0.6s-0.6,0.6-0.6,1c0,0.3,0.1,0.5,0.3,0.7
				c0.2,0.2,0.4,0.4,0.7,0.5C83.6,142,83.9,142.1,84.2,142.1z M83.3,144.4c-0.8,0-1.5-0.2-2.1-0.5c-0.6-0.3-1.1-0.7-1.5-1.2
				s-0.6-1.1-0.6-1.8c0-1.1,0.4-1.9,1.3-2.5c0.9-0.6,2-1,3.4-1.3l2.9-0.4v-0.4c0-0.6-0.1-1-0.4-1.3c-0.3-0.3-0.7-0.5-1.4-0.5
				c-0.5,0-0.9,0.1-1.2,0.3c-0.3,0.2-0.5,0.5-0.7,0.8c-0.1,0.2-0.3,0.3-0.5,0.3h-2.1c-0.2,0-0.3,0-0.4-0.1c-0.1-0.1-0.1-0.2-0.1-0.3
				c0-0.3,0.1-0.6,0.3-0.9c0.2-0.3,0.5-0.7,0.9-1c0.4-0.3,0.9-0.6,1.5-0.8c0.6-0.2,1.4-0.3,2.3-0.3c0.9,0,1.8,0.1,2.4,0.3
				c0.7,0.2,1.2,0.5,1.6,0.9c0.4,0.4,0.7,0.9,0.9,1.4c0.2,0.5,0.3,1.1,0.3,1.7v6.9c0,0.2-0.1,0.3-0.2,0.4c-0.1,0.1-0.2,0.2-0.4,0.2
				h-2.2c-0.1,0-0.3-0.1-0.4-0.2c-0.1-0.1-0.2-0.2-0.2-0.4v-0.8c-0.2,0.3-0.5,0.6-0.8,0.8c-0.3,0.2-0.7,0.4-1.2,0.6
				C84.5,144.3,83.9,144.4,83.3,144.4z"/>
		</g>
		<g>
			<defs>
				<path id="SVGID_7_" d="M84.2,142.1c0.5,0,0.9-0.1,1.3-0.3c0.4-0.2,0.7-0.5,0.9-1c0.2-0.4,0.3-1,0.3-1.6v-0.4l-2.1,0.3
					c-0.8,0.1-1.4,0.3-1.8,0.6s-0.6,0.6-0.6,1c0,0.3,0.1,0.5,0.3,0.7c0.2,0.2,0.4,0.4,0.7,0.5C83.6,142,83.9,142.1,84.2,142.1z
					 M83.3,144.4c-0.8,0-1.5-0.2-2.1-0.5c-0.6-0.3-1.1-0.7-1.5-1.2s-0.6-1.1-0.6-1.8c0-1.1,0.4-1.9,1.3-2.5c0.9-0.6,2-1,3.4-1.3
					l2.9-0.4v-0.4c0-0.6-0.1-1-0.4-1.3c-0.3-0.3-0.7-0.5-1.4-0.5c-0.5,0-0.9,0.1-1.2,0.3c-0.3,0.2-0.5,0.5-0.7,0.8
					c-0.1,0.2-0.3,0.3-0.5,0.3h-2.1c-0.2,0-0.3,0-0.4-0.1c-0.1-0.1-0.1-0.2-0.1-0.3c0-0.3,0.1-0.6,0.3-0.9c0.2-0.3,0.5-0.7,0.9-1
					c0.4-0.3,0.9-0.6,1.5-0.8c0.6-0.2,1.4-0.3,2.3-0.3c0.9,0,1.8,0.1,2.4,0.3c0.7,0.2,1.2,0.5,1.6,0.9c0.4,0.4,0.7,0.9,0.9,1.4
					c0.2,0.5,0.3,1.1,0.3,1.7v6.9c0,0.2-0.1,0.3-0.2,0.4c-0.1,0.1-0.2,0.2-0.4,0.2h-2.2c-0.1,0-0.3-0.1-0.4-0.2
					c-0.1-0.1-0.2-0.2-0.2-0.4v-0.8c-0.2,0.3-0.5,0.6-0.8,0.8c-0.3,0.2-0.7,0.4-1.2,0.6C84.5,144.3,83.9,144.4,83.3,144.4z"/>
			</defs>
			<clipPath id="SVGID_8_">
				<use xlink:href="#SVGID_7_"  style="overflow:visible;"/>
			</clipPath>
			<rect x="78.7" y="131.8" class="st4" width="12" height="13.1"/>
		</g>
	</g>
	<g>
		<g>
			<path id="SVGID_00000155123129686525118430000016746640053983278226_" class="st0" d="M93.5,144.2c-0.1,0-0.3-0.1-0.4-0.2
				c-0.1-0.1-0.2-0.2-0.2-0.4V133c0-0.2,0.1-0.3,0.2-0.4c0.1-0.1,0.2-0.2,0.4-0.2h2.1c0.1,0,0.3,0.1,0.4,0.2
				c0.1,0.1,0.2,0.2,0.2,0.4v0.8c0.3-0.4,0.7-0.8,1.2-1.1c0.5-0.3,1.2-0.5,1.9-0.5c1.7,0,2.9,0.6,3.6,2c0.3-0.6,0.8-1.1,1.5-1.4
				c0.7-0.4,1.4-0.6,2.1-0.6c0.8,0,1.5,0.2,2.1,0.5c0.6,0.4,1.1,0.9,1.5,1.6c0.4,0.7,0.5,1.7,0.5,2.8v6.4c0,0.2-0.1,0.3-0.2,0.4
				c-0.1,0.1-0.2,0.2-0.4,0.2h-2.2c-0.1,0-0.3-0.1-0.4-0.2c-0.1-0.1-0.2-0.2-0.2-0.4v-6.2c0-0.6-0.1-1.1-0.3-1.4
				c-0.2-0.4-0.4-0.6-0.7-0.8c-0.3-0.1-0.6-0.2-1-0.2c-0.3,0-0.6,0.1-0.9,0.2c-0.3,0.1-0.5,0.4-0.7,0.8c-0.2,0.4-0.3,0.8-0.3,1.4
				v6.2c0,0.2-0.1,0.3-0.2,0.4c-0.1,0.1-0.2,0.2-0.4,0.2h-2.2c-0.2,0-0.3-0.1-0.4-0.2c-0.1-0.1-0.2-0.2-0.2-0.4v-6.2
				c0-0.6-0.1-1.1-0.3-1.4c-0.2-0.4-0.4-0.6-0.7-0.8c-0.3-0.1-0.6-0.2-1-0.2c-0.3,0-0.6,0.1-0.9,0.2s-0.5,0.4-0.7,0.8
				s-0.3,0.8-0.3,1.4v6.2c0,0.2-0.1,0.3-0.2,0.4c-0.1,0.1-0.2,0.2-0.4,0.2L93.5,144.2L93.5,144.2z"/>
		</g>
		<g>
			<defs>
				<path id="SVGID_9_" d="M93.5,144.2c-0.1,0-0.3-0.1-0.4-0.2c-0.1-0.1-0.2-0.2-0.2-0.4V133c0-0.2,0.1-0.3,0.2-0.4
					c0.1-0.1,0.2-0.2,0.4-0.2h2.1c0.1,0,0.3,0.1,0.4,0.2c0.1,0.1,0.2,0.2,0.2,0.4v0.8c0.3-0.4,0.7-0.8,1.2-1.1
					c0.5-0.3,1.2-0.5,1.9-0.5c1.7,0,2.9,0.6,3.6,2c0.3-0.6,0.8-1.1,1.5-1.4c0.7-0.4,1.4-0.6,2.1-0.6c0.8,0,1.5,0.2,2.1,0.5
					c0.6,0.4,1.1,0.9,1.5,1.6c0.4,0.7,0.5,1.7,0.5,2.8v6.4c0,0.2-0.1,0.3-0.2,0.4c-0.1,0.1-0.2,0.2-0.4,0.2h-2.2
					c-0.1,0-0.3-0.1-0.4-0.2c-0.1-0.1-0.2-0.2-0.2-0.4v-6.2c0-0.6-0.1-1.1-0.3-1.4c-0.2-0.4-0.4-0.6-0.7-0.8c-0.3-0.1-0.6-0.2-1-0.2
					c-0.3,0-0.6,0.1-0.9,0.2c-0.3,0.1-0.5,0.4-0.7,0.8c-0.2,0.4-0.3,0.8-0.3,1.4v6.2c0,0.2-0.1,0.3-0.2,0.4
					c-0.1,0.1-0.2,0.2-0.4,0.2h-2.2c-0.2,0-0.3-0.1-0.4-0.2c-0.1-0.1-0.2-0.2-0.2-0.4v-6.2c0-0.6-0.1-1.1-0.3-1.4
					c-0.2-0.4-0.4-0.6-0.7-0.8c-0.3-0.1-0.6-0.2-1-0.2c-0.3,0-0.6,0.1-0.9,0.2s-0.5,0.4-0.7,0.8s-0.3,0.8-0.3,1.4v6.2
					c0,0.2-0.1,0.3-0.2,0.4c-0.1,0.1-0.2,0.2-0.4,0.2L93.5,144.2L93.5,144.2z"/>
			</defs>
			<clipPath id="SVGID_10_">
				<use xlink:href="#SVGID_9_"  style="overflow:visible;"/>
			</clipPath>
			<rect x="92.5" y="131.8" class="st5" width="18.6" height="12.9"/>
		</g>
	</g>
	<g>
		<g>
			<path id="SVGID_00000150080079121045586000000005190926851627074181_" class="st0" d="M118.4,130.9c-0.7,0-1.4-0.1-1.8-0.4
				c-0.5-0.3-0.8-0.7-1-1.1c-0.2-0.5-0.3-1-0.3-1.5c0-0.1,0-0.2,0.1-0.3s0.2-0.1,0.3-0.1h1.3c0.1,0,0.2,0,0.3,0.1
				c0.1,0.1,0.1,0.2,0.1,0.3c0,0.3,0.1,0.7,0.2,0.9c0.1,0.3,0.4,0.4,0.9,0.4c0.4,0,0.7-0.1,0.9-0.4c0.1-0.3,0.2-0.6,0.2-0.9
				c0-0.1,0-0.2,0.1-0.3s0.2-0.1,0.3-0.1h1.3c0.1,0,0.2,0,0.3,0.1c0.1,0.1,0.1,0.2,0.1,0.3c0,0.6-0.1,1.1-0.3,1.5
				c-0.2,0.5-0.6,0.8-1,1.1C119.7,130.8,119.1,130.9,118.4,130.9z M117.6,142.1c0.5,0,0.9-0.1,1.3-0.3c0.4-0.2,0.7-0.5,0.9-1
				c0.2-0.4,0.3-1,0.3-1.6v-0.4l-2.1,0.3c-0.8,0.1-1.4,0.3-1.8,0.6c-0.4,0.3-0.6,0.6-0.6,1c0,0.3,0.1,0.5,0.3,0.7
				c0.2,0.2,0.4,0.4,0.7,0.5C117,142,117.3,142.1,117.6,142.1z M116.7,144.4c-0.8,0-1.5-0.2-2.1-0.5c-0.6-0.3-1.1-0.7-1.5-1.2
				c-0.4-0.5-0.6-1.1-0.6-1.8c0-1.1,0.4-1.9,1.3-2.5c0.9-0.6,2-1,3.4-1.3l2.9-0.4v-0.4c0-0.6-0.1-1-0.4-1.3
				c-0.3-0.3-0.7-0.5-1.4-0.5c-0.5,0-0.9,0.1-1.2,0.3c-0.3,0.2-0.5,0.5-0.7,0.8c-0.1,0.2-0.3,0.3-0.5,0.3h-2.1c-0.2,0-0.3,0-0.4-0.1
				c-0.1-0.1-0.1-0.2-0.1-0.3c0-0.3,0.1-0.6,0.3-0.9c0.2-0.3,0.5-0.7,0.9-1c0.4-0.3,0.9-0.6,1.5-0.8c0.6-0.2,1.4-0.3,2.3-0.3
				c0.9,0,1.8,0.1,2.4,0.3c0.7,0.2,1.2,0.5,1.6,0.9c0.4,0.4,0.7,0.9,0.9,1.4c0.2,0.5,0.3,1.1,0.3,1.7v6.9c0,0.2-0.1,0.3-0.2,0.4
				c-0.1,0.1-0.2,0.2-0.4,0.2h-2.2c-0.1,0-0.3-0.1-0.4-0.2c-0.1-0.1-0.2-0.2-0.2-0.4v-0.8c-0.2,0.3-0.5,0.6-0.8,0.8
				c-0.3,0.2-0.7,0.4-1.2,0.6C117.9,144.3,117.4,144.4,116.7,144.4z"/>
		</g>
		<g>
			<defs>
				<path id="SVGID_11_" d="M118.4,130.9c-0.7,0-1.4-0.1-1.8-0.4c-0.5-0.3-0.8-0.7-1-1.1c-0.2-0.5-0.3-1-0.3-1.5
					c0-0.1,0-0.2,0.1-0.3s0.2-0.1,0.3-0.1h1.3c0.1,0,0.2,0,0.3,0.1c0.1,0.1,0.1,0.2,0.1,0.3c0,0.3,0.1,0.7,0.2,0.9
					c0.1,0.3,0.4,0.4,0.9,0.4c0.4,0,0.7-0.1,0.9-0.4c0.1-0.3,0.2-0.6,0.2-0.9c0-0.1,0-0.2,0.1-0.3s0.2-0.1,0.3-0.1h1.3
					c0.1,0,0.2,0,0.3,0.1c0.1,0.1,0.1,0.2,0.1,0.3c0,0.6-0.1,1.1-0.3,1.5c-0.2,0.5-0.6,0.8-1,1.1
					C119.7,130.8,119.1,130.9,118.4,130.9z M117.6,142.1c0.5,0,0.9-0.1,1.3-0.3c0.4-0.2,0.7-0.5,0.9-1c0.2-0.4,0.3-1,0.3-1.6v-0.4
					l-2.1,0.3c-0.8,0.1-1.4,0.3-1.8,0.6c-0.4,0.3-0.6,0.6-0.6,1c0,0.3,0.1,0.5,0.3,0.7c0.2,0.2,0.4,0.4,0.7,0.5
					C117,142,117.3,142.1,117.6,142.1z M116.7,144.4c-0.8,0-1.5-0.2-2.1-0.5c-0.6-0.3-1.1-0.7-1.5-1.2c-0.4-0.5-0.6-1.1-0.6-1.8
					c0-1.1,0.4-1.9,1.3-2.5c0.9-0.6,2-1,3.4-1.3l2.9-0.4v-0.4c0-0.6-0.1-1-0.4-1.3c-0.3-0.3-0.7-0.5-1.4-0.5c-0.5,0-0.9,0.1-1.2,0.3
					c-0.3,0.2-0.5,0.5-0.7,0.8c-0.1,0.2-0.3,0.3-0.5,0.3h-2.1c-0.2,0-0.3,0-0.4-0.1c-0.1-0.1-0.1-0.2-0.1-0.3c0-0.3,0.1-0.6,0.3-0.9
					c0.2-0.3,0.5-0.7,0.9-1c0.4-0.3,0.9-0.6,1.5-0.8c0.6-0.2,1.4-0.3,2.3-0.3c0.9,0,1.8,0.1,2.4,0.3c0.7,0.2,1.2,0.5,1.6,0.9
					c0.4,0.4,0.7,0.9,0.9,1.4c0.2,0.5,0.3,1.1,0.3,1.7v6.9c0,0.2-0.1,0.3-0.2,0.4c-0.1,0.1-0.2,0.2-0.4,0.2h-2.2
					c-0.1,0-0.3-0.1-0.4-0.2c-0.1-0.1-0.2-0.2-0.2-0.4v-0.8c-0.2,0.3-0.5,0.6-0.8,0.8c-0.3,0.2-0.7,0.4-1.2,0.6
					C117.9,144.3,117.4,144.4,116.7,144.4z"/>
			</defs>
			<clipPath id="SVGID_12_">
				<use xlink:href="#SVGID_11_"  style="overflow:visible;"/>
			</clipPath>
			<rect x="112.1" y="126.9" class="st6" width="12" height="17.9"/>
		</g>
	</g>
	<g>
		<g>
			<path id="SVGID_00000019637989676095128800000005817656994812879747_" class="st0" d="M136.6,141.7c0.6,0,1-0.1,1.3-0.4
				c0.3-0.3,0.6-0.6,0.7-1c0.2-0.4,0.2-0.8,0.3-1.3c0-0.3,0-0.6,0-0.9c0-0.3,0-0.6,0-0.8c0-0.4-0.1-0.8-0.3-1.2
				c-0.2-0.4-0.4-0.7-0.8-0.9s-0.8-0.4-1.3-0.4c-0.6,0-1,0.1-1.3,0.4c-0.3,0.2-0.6,0.6-0.7,1c-0.1,0.4-0.2,0.8-0.3,1.3
				c0,0.5,0,0.9,0,1.4c0,0.5,0.1,0.9,0.3,1.3c0.1,0.4,0.4,0.7,0.7,1C135.6,141.6,136.1,141.7,136.6,141.7z M135.6,144.4
				c-0.7,0-1.4-0.1-2-0.4c-0.6-0.2-1.1-0.6-1.5-1.1c-0.4-0.5-0.7-1-0.9-1.7c-0.2-0.7-0.3-1.4-0.4-2.2c0-0.3,0-0.5,0-0.8s0-0.5,0-0.8
				c0-0.8,0.2-1.5,0.4-2.1c0.2-0.6,0.5-1.2,0.9-1.7c0.4-0.5,0.9-0.8,1.5-1.1c0.6-0.3,1.3-0.4,2-0.4c0.8,0,1.4,0.1,2,0.4
				c0.6,0.3,1,0.6,1.4,1v-4.9c0-0.2,0.1-0.3,0.2-0.4c0.1-0.1,0.2-0.2,0.4-0.2h2.3c0.1,0,0.3,0.1,0.4,0.2c0.1,0.1,0.2,0.2,0.2,0.4
				v14.8c0,0.2-0.1,0.3-0.2,0.4c-0.1,0.1-0.2,0.2-0.4,0.2h-2.2c-0.1,0-0.3-0.1-0.4-0.2c-0.1-0.1-0.2-0.2-0.2-0.4v-0.8
				c-0.4,0.5-0.8,0.8-1.4,1.1C137.2,144.2,136.5,144.4,135.6,144.4z"/>
		</g>
		<g>
			<defs>
				<path id="SVGID_13_" d="M136.6,141.7c0.6,0,1-0.1,1.3-0.4c0.3-0.3,0.6-0.6,0.7-1c0.2-0.4,0.2-0.8,0.3-1.3c0-0.3,0-0.6,0-0.9
					c0-0.3,0-0.6,0-0.8c0-0.4-0.1-0.8-0.3-1.2c-0.2-0.4-0.4-0.7-0.8-0.9s-0.8-0.4-1.3-0.4c-0.6,0-1,0.1-1.3,0.4
					c-0.3,0.2-0.6,0.6-0.7,1c-0.1,0.4-0.2,0.8-0.3,1.3c0,0.5,0,0.9,0,1.4c0,0.5,0.1,0.9,0.3,1.3c0.1,0.4,0.4,0.7,0.7,1
					C135.6,141.6,136.1,141.7,136.6,141.7z M135.6,144.4c-0.7,0-1.4-0.1-2-0.4c-0.6-0.2-1.1-0.6-1.5-1.1c-0.4-0.5-0.7-1-0.9-1.7
					c-0.2-0.7-0.3-1.4-0.4-2.2c0-0.3,0-0.5,0-0.8s0-0.5,0-0.8c0-0.8,0.2-1.5,0.4-2.1c0.2-0.6,0.5-1.2,0.9-1.7
					c0.4-0.5,0.9-0.8,1.5-1.1c0.6-0.3,1.3-0.4,2-0.4c0.8,0,1.4,0.1,2,0.4c0.6,0.3,1,0.6,1.4,1v-4.9c0-0.2,0.1-0.3,0.2-0.4
					c0.1-0.1,0.2-0.2,0.4-0.2h2.3c0.1,0,0.3,0.1,0.4,0.2c0.1,0.1,0.2,0.2,0.2,0.4v14.8c0,0.2-0.1,0.3-0.2,0.4
					c-0.1,0.1-0.2,0.2-0.4,0.2h-2.2c-0.1,0-0.3-0.1-0.4-0.2c-0.1-0.1-0.2-0.2-0.2-0.4v-0.8c-0.4,0.5-0.8,0.8-1.4,1.1
					C137.2,144.2,136.5,144.4,135.6,144.4z"/>
			</defs>
			<clipPath id="SVGID_14_">
				<use xlink:href="#SVGID_13_"  style="overflow:visible;"/>
			</clipPath>
			<rect x="130.4" y="127.8" class="st7" width="12.5" height="17.1"/>
		</g>
	</g>
	<g>
		<g>
			<path id="SVGID_00000028299071967708686990000015656267632892328877_" class="st0" d="M148.2,137.2h4.4v0c0-0.5-0.1-1-0.3-1.4
				c-0.2-0.4-0.4-0.7-0.8-0.9c-0.3-0.2-0.7-0.3-1.2-0.3c-0.5,0-0.9,0.1-1.2,0.3c-0.3,0.2-0.6,0.5-0.8,0.9
				C148.3,136.2,148.2,136.6,148.2,137.2L148.2,137.2L148.2,137.2z M150.5,144.4c-1.7,0-3.1-0.5-4.1-1.4c-1-1-1.5-2.4-1.6-4.2
				c0-0.1,0-0.3,0-0.5c0-0.2,0-0.4,0-0.5c0.1-1.2,0.3-2.1,0.8-3c0.5-0.8,1.1-1.5,2-1.9c0.8-0.4,1.8-0.7,2.9-0.7
				c1.3,0,2.3,0.3,3.2,0.8c0.8,0.5,1.5,1.2,1.9,2.1c0.4,0.9,0.6,1.9,0.6,3.1v0.5c0,0.1-0.1,0.3-0.2,0.4s-0.2,0.2-0.4,0.2h-7.3
				c0,0,0,0,0,0.1c0,0,0,0.1,0,0.1c0,0.5,0.1,0.9,0.3,1.3c0.2,0.4,0.4,0.7,0.7,1c0.3,0.2,0.7,0.4,1.2,0.4c0.4,0,0.7-0.1,0.9-0.2
				c0.2-0.1,0.4-0.2,0.6-0.4c0.2-0.1,0.3-0.3,0.3-0.4c0.1-0.1,0.2-0.2,0.3-0.3c0.1,0,0.2-0.1,0.4-0.1h2.3c0.1,0,0.3,0,0.4,0.1
				c0.1,0.1,0.1,0.2,0.1,0.3c0,0.2-0.1,0.5-0.4,0.9c-0.2,0.4-0.6,0.7-1,1c-0.5,0.3-1,0.6-1.7,0.8
				C152.1,144.3,151.3,144.4,150.5,144.4z"/>
		</g>
		<g>
			<defs>
				<path id="SVGID_15_" d="M148.2,137.2h4.4v0c0-0.5-0.1-1-0.3-1.4c-0.2-0.4-0.4-0.7-0.8-0.9c-0.3-0.2-0.7-0.3-1.2-0.3
					c-0.5,0-0.9,0.1-1.2,0.3c-0.3,0.2-0.6,0.5-0.8,0.9C148.3,136.2,148.2,136.6,148.2,137.2L148.2,137.2L148.2,137.2z M150.5,144.4
					c-1.7,0-3.1-0.5-4.1-1.4c-1-1-1.5-2.4-1.6-4.2c0-0.1,0-0.3,0-0.5c0-0.2,0-0.4,0-0.5c0.1-1.2,0.3-2.1,0.8-3
					c0.5-0.8,1.1-1.5,2-1.9c0.8-0.4,1.8-0.7,2.9-0.7c1.3,0,2.3,0.3,3.2,0.8c0.8,0.5,1.5,1.2,1.9,2.1c0.4,0.9,0.6,1.9,0.6,3.1v0.5
					c0,0.1-0.1,0.3-0.2,0.4s-0.2,0.2-0.4,0.2h-7.3c0,0,0,0,0,0.1c0,0,0,0.1,0,0.1c0,0.5,0.1,0.9,0.3,1.3c0.2,0.4,0.4,0.7,0.7,1
					c0.3,0.2,0.7,0.4,1.2,0.4c0.4,0,0.7-0.1,0.9-0.2c0.2-0.1,0.4-0.2,0.6-0.4c0.2-0.1,0.3-0.3,0.3-0.4c0.1-0.1,0.2-0.2,0.3-0.3
					c0.1,0,0.2-0.1,0.4-0.1h2.3c0.1,0,0.3,0,0.4,0.1c0.1,0.1,0.1,0.2,0.1,0.3c0,0.2-0.1,0.5-0.4,0.9c-0.2,0.4-0.6,0.7-1,1
					c-0.5,0.3-1,0.6-1.7,0.8C152.1,144.3,151.3,144.4,150.5,144.4z"/>
			</defs>
			<clipPath id="SVGID_16_">
				<use xlink:href="#SVGID_15_"  style="overflow:visible;"/>
			</clipPath>
			<rect x="144.3" y="131.8" class="st8" width="12.3" height="13.1"/>
		</g>
	</g>
	<g>
		<g>
			<path id="SVGID_00000116945799266085150580000007255106315593105577_" class="st0" d="M56.5,167.9h2.6c0.7,0,1.4-0.1,1.8-0.3
				c0.5-0.2,0.8-0.6,1.1-1.1c0.2-0.5,0.4-1.1,0.4-1.9c0-0.4,0-0.8,0-1.2c0-0.3,0-0.7,0-1c0-0.3,0-0.7,0-1.1c0-1.1-0.3-2-0.9-2.5
				c-0.5-0.5-1.4-0.8-2.5-0.8h-2.5V167.9z M53.5,170.8c-0.2,0-0.3-0.1-0.4-0.2c-0.1-0.1-0.2-0.2-0.2-0.4v-14.6
				c0-0.2,0.1-0.3,0.2-0.4c0.1-0.1,0.2-0.2,0.4-0.2h5.6c1.5,0,2.7,0.2,3.7,0.7c1,0.5,1.8,1.2,2.3,2.1c0.5,0.9,0.8,2,0.8,3.4
				c0,0.7,0,1.2,0,1.7s0,1.1,0,1.7c0,1.4-0.3,2.5-0.8,3.5c-0.5,0.9-1.3,1.6-2.2,2c-1,0.4-2.2,0.7-3.7,0.7H53.5z"/>
		</g>
		<g>
			<defs>
				<path id="SVGID_17_" d="M56.5,167.9h2.6c0.7,0,1.4-0.1,1.8-0.3c0.5-0.2,0.8-0.6,1.1-1.1c0.2-0.5,0.4-1.1,0.4-1.9
					c0-0.4,0-0.8,0-1.2c0-0.3,0-0.7,0-1c0-0.3,0-0.7,0-1.1c0-1.1-0.3-2-0.9-2.5c-0.5-0.5-1.4-0.8-2.5-0.8h-2.5V167.9z M53.5,170.8
					c-0.2,0-0.3-0.1-0.4-0.2c-0.1-0.1-0.2-0.2-0.2-0.4v-14.6c0-0.2,0.1-0.3,0.2-0.4c0.1-0.1,0.2-0.2,0.4-0.2h5.6
					c1.5,0,2.7,0.2,3.7,0.7c1,0.5,1.8,1.2,2.3,2.1c0.5,0.9,0.8,2,0.8,3.4c0,0.7,0,1.2,0,1.7s0,1.1,0,1.7c0,1.4-0.3,2.5-0.8,3.5
					c-0.5,0.9-1.3,1.6-2.2,2c-1,0.4-2.2,0.7-3.7,0.7H53.5z"/>
			</defs>
			<clipPath id="SVGID_18_">
				<use xlink:href="#SVGID_17_"  style="overflow:visible;"/>
			</clipPath>
			<rect x="52.5" y="154.6" class="st9" width="14" height="16.6"/>
		</g>
	</g>
	<g>
		<g>
			<path id="SVGID_00000158024285904868563010000010222263714244463500_" class="st0" d="M71.6,163.8H76v0c0-0.5-0.1-1-0.3-1.4
				c-0.2-0.4-0.4-0.7-0.8-0.9s-0.7-0.3-1.2-0.3s-0.9,0.1-1.2,0.3c-0.3,0.2-0.6,0.5-0.8,0.9C71.7,162.8,71.6,163.2,71.6,163.8
				L71.6,163.8L71.6,163.8z M73.8,171c-1.7,0-3.1-0.5-4.1-1.4c-1-1-1.5-2.4-1.6-4.2c0-0.1,0-0.3,0-0.5c0-0.2,0-0.4,0-0.5
				c0.1-1.2,0.3-2.1,0.8-3c0.5-0.8,1.1-1.5,2-1.9s1.8-0.7,2.9-0.7c1.3,0,2.3,0.3,3.2,0.8c0.8,0.5,1.5,1.2,1.9,2.1
				c0.4,0.9,0.6,1.9,0.6,3.1v0.5c0,0.1-0.1,0.3-0.2,0.4c-0.1,0.1-0.2,0.2-0.4,0.2h-7.3c0,0,0,0,0,0.1c0,0,0,0.1,0,0.1
				c0,0.5,0.1,0.9,0.3,1.3c0.2,0.4,0.4,0.7,0.7,1c0.3,0.2,0.7,0.4,1.2,0.4c0.4,0,0.7-0.1,0.9-0.2c0.2-0.1,0.4-0.2,0.6-0.4
				c0.2-0.1,0.3-0.3,0.3-0.4c0.1-0.1,0.2-0.2,0.3-0.3c0.1,0,0.2-0.1,0.4-0.1h2.3c0.1,0,0.3,0,0.4,0.1c0.1,0.1,0.1,0.2,0.1,0.3
				c0,0.2-0.1,0.5-0.4,0.9c-0.2,0.4-0.6,0.7-1,1c-0.5,0.3-1,0.6-1.7,0.8C75.4,170.9,74.7,171,73.8,171z"/>
		</g>
		<g>
			<defs>
				<path id="SVGID_19_" d="M71.6,163.8H76v0c0-0.5-0.1-1-0.3-1.4c-0.2-0.4-0.4-0.7-0.8-0.9s-0.7-0.3-1.2-0.3s-0.9,0.1-1.2,0.3
					c-0.3,0.2-0.6,0.5-0.8,0.9C71.7,162.8,71.6,163.2,71.6,163.8L71.6,163.8L71.6,163.8z M73.8,171c-1.7,0-3.1-0.5-4.1-1.4
					c-1-1-1.5-2.4-1.6-4.2c0-0.1,0-0.3,0-0.5c0-0.2,0-0.4,0-0.5c0.1-1.2,0.3-2.1,0.8-3c0.5-0.8,1.1-1.5,2-1.9s1.8-0.7,2.9-0.7
					c1.3,0,2.3,0.3,3.2,0.8c0.8,0.5,1.5,1.2,1.9,2.1c0.4,0.9,0.6,1.9,0.6,3.1v0.5c0,0.1-0.1,0.3-0.2,0.4c-0.1,0.1-0.2,0.2-0.4,0.2
					h-7.3c0,0,0,0,0,0.1c0,0,0,0.1,0,0.1c0,0.5,0.1,0.9,0.3,1.3c0.2,0.4,0.4,0.7,0.7,1c0.3,0.2,0.7,0.4,1.2,0.4
					c0.4,0,0.7-0.1,0.9-0.2c0.2-0.1,0.4-0.2,0.6-0.4c0.2-0.1,0.3-0.3,0.3-0.4c0.1-0.1,0.2-0.2,0.3-0.3c0.1,0,0.2-0.1,0.4-0.1h2.3
					c0.1,0,0.3,0,0.4,0.1c0.1,0.1,0.1,0.2,0.1,0.3c0,0.2-0.1,0.5-0.4,0.9c-0.2,0.4-0.6,0.7-1,1c-0.5,0.3-1,0.6-1.7,0.8
					C75.4,170.9,74.7,171,73.8,171z"/>
			</defs>
			<clipPath id="SVGID_20_">
				<use xlink:href="#SVGID_19_"  style="overflow:visible;"/>
			</clipPath>
			<rect x="67.6" y="158.4" class="st10" width="12.3" height="13.1"/>
		</g>
	</g>
	<g>
		<g>
			<path id="SVGID_00000103257802432880381950000003241182719426177674_" class="st0" d="M85.4,170.8c-0.2,0-0.4-0.1-0.5-0.2
				s-0.2-0.2-0.3-0.4l-4.2-10.4c0-0.1,0-0.1,0-0.2c0-0.1,0-0.3,0.1-0.3s0.2-0.1,0.3-0.1H83c0.2,0,0.3,0.1,0.4,0.2
				c0.1,0.1,0.2,0.2,0.2,0.3l2.8,7.4l2.8-7.4c0-0.1,0.1-0.2,0.2-0.3c0.1-0.1,0.2-0.2,0.4-0.2H92c0.1,0,0.3,0,0.3,0.1
				s0.1,0.2,0.1,0.3c0,0.1,0,0.1,0,0.2l-4.2,10.4c-0.1,0.1-0.1,0.3-0.3,0.4c-0.1,0.1-0.3,0.2-0.5,0.2H85.4z"/>
		</g>
		<g>
			<defs>
				<path id="SVGID_21_" d="M85.4,170.8c-0.2,0-0.4-0.1-0.5-0.2s-0.2-0.2-0.3-0.4l-4.2-10.4c0-0.1,0-0.1,0-0.2c0-0.1,0-0.3,0.1-0.3
					s0.2-0.1,0.3-0.1H83c0.2,0,0.3,0.1,0.4,0.2c0.1,0.1,0.2,0.2,0.2,0.3l2.8,7.4l2.8-7.4c0-0.1,0.1-0.2,0.2-0.3
					c0.1-0.1,0.2-0.2,0.4-0.2H92c0.1,0,0.3,0,0.3,0.1s0.1,0.2,0.1,0.3c0,0.1,0,0.1,0,0.2l-4.2,10.4c-0.1,0.1-0.1,0.3-0.3,0.4
					c-0.1,0.1-0.3,0.2-0.5,0.2H85.4z"/>
			</defs>
			<clipPath id="SVGID_22_">
				<use xlink:href="#SVGID_21_"  style="overflow:visible;"/>
			</clipPath>
			<rect x="79.9" y="158.6" class="st11" width="13" height="12.6"/>
		</g>
	</g>
	<g>
		<g>
			<path id="SVGID_00000005975253675715326650000017004490327178843278_" class="st0" d="M96.9,163.8h4.4v0c0-0.5-0.1-1-0.3-1.4
				c-0.2-0.4-0.4-0.7-0.8-0.9s-0.7-0.3-1.2-0.3s-0.9,0.1-1.2,0.3c-0.3,0.2-0.6,0.5-0.8,0.9C97,162.8,96.9,163.2,96.9,163.8
				L96.9,163.8L96.9,163.8z M99.1,171c-1.7,0-3.1-0.5-4.1-1.4c-1-1-1.5-2.4-1.6-4.2c0-0.1,0-0.3,0-0.5c0-0.2,0-0.4,0-0.5
				c0.1-1.2,0.3-2.1,0.8-3c0.5-0.8,1.1-1.5,2-1.9c0.8-0.4,1.8-0.7,2.9-0.7c1.3,0,2.3,0.3,3.2,0.8c0.8,0.5,1.5,1.2,1.9,2.1
				s0.6,1.9,0.6,3.1v0.5c0,0.1-0.1,0.3-0.2,0.4c-0.1,0.1-0.2,0.2-0.4,0.2h-7.3c0,0,0,0,0,0.1c0,0,0,0.1,0,0.1c0,0.5,0.1,0.9,0.3,1.3
				c0.2,0.4,0.4,0.7,0.7,1c0.3,0.2,0.7,0.4,1.2,0.4c0.4,0,0.7-0.1,0.9-0.2c0.2-0.1,0.4-0.2,0.6-0.4c0.2-0.1,0.3-0.3,0.3-0.4
				c0.1-0.1,0.2-0.2,0.3-0.3c0.1,0,0.2-0.1,0.4-0.1h2.3c0.1,0,0.3,0,0.4,0.1c0.1,0.1,0.1,0.2,0.1,0.3c0,0.2-0.1,0.5-0.4,0.9
				c-0.2,0.4-0.6,0.7-1,1c-0.5,0.3-1,0.6-1.7,0.8C100.8,170.9,100,171,99.1,171z"/>
		</g>
		<g>
			<defs>
				<path id="SVGID_23_" d="M96.9,163.8h4.4v0c0-0.5-0.1-1-0.3-1.4c-0.2-0.4-0.4-0.7-0.8-0.9s-0.7-0.3-1.2-0.3s-0.9,0.1-1.2,0.3
					c-0.3,0.2-0.6,0.5-0.8,0.9C97,162.8,96.9,163.2,96.9,163.8L96.9,163.8L96.9,163.8z M99.1,171c-1.7,0-3.1-0.5-4.1-1.4
					c-1-1-1.5-2.4-1.6-4.2c0-0.1,0-0.3,0-0.5c0-0.2,0-0.4,0-0.5c0.1-1.2,0.3-2.1,0.8-3c0.5-0.8,1.1-1.5,2-1.9
					c0.8-0.4,1.8-0.7,2.9-0.7c1.3,0,2.3,0.3,3.2,0.8c0.8,0.5,1.5,1.2,1.9,2.1s0.6,1.9,0.6,3.1v0.5c0,0.1-0.1,0.3-0.2,0.4
					c-0.1,0.1-0.2,0.2-0.4,0.2h-7.3c0,0,0,0,0,0.1c0,0,0,0.1,0,0.1c0,0.5,0.1,0.9,0.3,1.3c0.2,0.4,0.4,0.7,0.7,1
					c0.3,0.2,0.7,0.4,1.2,0.4c0.4,0,0.7-0.1,0.9-0.2c0.2-0.1,0.4-0.2,0.6-0.4c0.2-0.1,0.3-0.3,0.3-0.4c0.1-0.1,0.2-0.2,0.3-0.3
					c0.1,0,0.2-0.1,0.4-0.1h2.3c0.1,0,0.3,0,0.4,0.1c0.1,0.1,0.1,0.2,0.1,0.3c0,0.2-0.1,0.5-0.4,0.9c-0.2,0.4-0.6,0.7-1,1
					c-0.5,0.3-1,0.6-1.7,0.8C100.8,170.9,100,171,99.1,171z"/>
			</defs>
			<clipPath id="SVGID_24_">
				<use xlink:href="#SVGID_23_"  style="overflow:visible;"/>
			</clipPath>
			<rect x="93" y="158.4" class="st12" width="12.3" height="13.1"/>
		</g>
	</g>
	<g>
		<g>
			<path id="SVGID_00000165922451292064180010000012242051312771233666_" class="st0" d="M107.6,170.8c-0.2,0-0.3-0.1-0.4-0.2
				s-0.2-0.2-0.2-0.4v-14.8c0-0.2,0.1-0.3,0.2-0.4c0.1-0.1,0.2-0.2,0.4-0.2h2.2c0.1,0,0.3,0.1,0.4,0.2c0.1,0.1,0.2,0.2,0.2,0.4v14.8
				c0,0.2-0.1,0.3-0.2,0.4s-0.2,0.2-0.4,0.2H107.6z"/>
		</g>
		<g>
			<defs>
				<path id="SVGID_25_" d="M107.6,170.8c-0.2,0-0.3-0.1-0.4-0.2s-0.2-0.2-0.2-0.4v-14.8c0-0.2,0.1-0.3,0.2-0.4
					c0.1-0.1,0.2-0.2,0.4-0.2h2.2c0.1,0,0.3,0.1,0.4,0.2c0.1,0.1,0.2,0.2,0.2,0.4v14.8c0,0.2-0.1,0.3-0.2,0.4s-0.2,0.2-0.4,0.2
					H107.6z"/>
			</defs>
			<clipPath id="SVGID_26_">
				<use xlink:href="#SVGID_25_"  style="overflow:visible;"/>
			</clipPath>
			<rect x="106.6" y="154.4" class="st13" width="4.3" height="16.9"/>
		</g>
	</g>
	<g>
		<g>
			<path id="SVGID_00000122710865856252093720000005539227019588807304_" class="st0" d="M118.6,168.5c0.7,0,1.3-0.2,1.7-0.7
				c0.4-0.5,0.6-1.1,0.6-2c0-0.2,0-0.5,0-0.9c0-0.4,0-0.7,0-0.9c0-0.9-0.2-1.5-0.6-2c-0.4-0.5-0.9-0.7-1.7-0.7
				c-0.7,0-1.3,0.2-1.7,0.7c-0.4,0.5-0.6,1.1-0.6,2c0,0.2,0,0.5,0,0.9c0,0.4,0,0.7,0,0.9c0,0.9,0.2,1.6,0.6,2
				C117.3,168.3,117.8,168.5,118.6,168.5z M118.6,171c-1.2,0-2.3-0.2-3.1-0.6c-0.8-0.4-1.5-1-1.9-1.8c-0.4-0.8-0.7-1.7-0.7-2.7
				c0-0.3,0-0.6,0-1s0-0.7,0-1c0-1,0.3-1.9,0.8-2.7c0.5-0.8,1.1-1.3,2-1.8c0.8-0.4,1.9-0.6,3.1-0.6c1.2,0,2.2,0.2,3,0.6
				c0.8,0.4,1.5,1,2,1.8c0.5,0.8,0.7,1.7,0.8,2.7c0,0.3,0,0.6,0,1c0,0.4,0,0.7,0,1c0,1-0.3,1.9-0.7,2.7c-0.4,0.8-1.1,1.4-1.9,1.8
				C120.8,170.8,119.8,171,118.6,171z"/>
		</g>
		<g>
			<defs>
				<path id="SVGID_27_" d="M118.6,168.5c0.7,0,1.3-0.2,1.7-0.7c0.4-0.5,0.6-1.1,0.6-2c0-0.2,0-0.5,0-0.9c0-0.4,0-0.7,0-0.9
					c0-0.9-0.2-1.5-0.6-2c-0.4-0.5-0.9-0.7-1.7-0.7c-0.7,0-1.3,0.2-1.7,0.7c-0.4,0.5-0.6,1.1-0.6,2c0,0.2,0,0.5,0,0.9
					c0,0.4,0,0.7,0,0.9c0,0.9,0.2,1.6,0.6,2C117.3,168.3,117.8,168.5,118.6,168.5z M118.6,171c-1.2,0-2.3-0.2-3.1-0.6
					c-0.8-0.4-1.5-1-1.9-1.8c-0.4-0.8-0.7-1.7-0.7-2.7c0-0.3,0-0.6,0-1s0-0.7,0-1c0-1,0.3-1.9,0.8-2.7c0.5-0.8,1.1-1.3,2-1.8
					c0.8-0.4,1.9-0.6,3.1-0.6c1.2,0,2.2,0.2,3,0.6c0.8,0.4,1.5,1,2,1.8c0.5,0.8,0.7,1.7,0.8,2.7c0,0.3,0,0.6,0,1c0,0.4,0,0.7,0,1
					c0,1-0.3,1.9-0.7,2.7c-0.4,0.8-1.1,1.4-1.9,1.8C120.8,170.8,119.8,171,118.6,171z"/>
			</defs>
			<clipPath id="SVGID_28_">
				<use xlink:href="#SVGID_27_"  style="overflow:visible;"/>
			</clipPath>
			<rect x="112.3" y="158.4" class="st14" width="12.5" height="13.1"/>
		</g>
	</g>
	<g>
		<g>
			<path id="SVGID_00000070096419327337249900000004739644548234033575_" class="st0" d="M132.5,168.3c0.6,0,1-0.1,1.3-0.4
				c0.3-0.2,0.6-0.6,0.7-1c0.1-0.4,0.2-0.8,0.3-1.3c0-0.5,0-0.9,0-1.4c0-0.5-0.1-0.9-0.3-1.3c-0.1-0.4-0.4-0.7-0.7-1
				c-0.3-0.2-0.8-0.4-1.3-0.4c-0.6,0-1,0.1-1.3,0.4c-0.3,0.3-0.6,0.6-0.7,1c-0.1,0.4-0.2,0.8-0.3,1.3c0,0.3,0,0.5,0,0.8
				c0,0.3,0,0.6,0,0.9c0,0.4,0.1,0.8,0.3,1.2c0.2,0.4,0.4,0.7,0.8,0.9C131.5,168.2,131.9,168.3,132.5,168.3z M127.3,175
				c-0.2,0-0.3-0.1-0.4-0.2c-0.1-0.1-0.2-0.2-0.2-0.4v-14.8c0-0.2,0.1-0.3,0.2-0.4c0.1-0.1,0.2-0.2,0.4-0.2h2.1
				c0.2,0,0.3,0.1,0.4,0.2c0.1,0.1,0.2,0.2,0.2,0.4v0.9c0.4-0.5,0.8-0.9,1.4-1.2c0.6-0.3,1.3-0.5,2.1-0.5c0.8,0,1.5,0.1,2,0.4
				c0.6,0.2,1.1,0.6,1.5,1.1c0.4,0.5,0.7,1,0.9,1.7c0.2,0.6,0.3,1.4,0.4,2.2c0,0.3,0,0.6,0,0.8s0,0.5,0,0.8c0,0.8-0.1,1.5-0.3,2.1
				c-0.2,0.6-0.5,1.2-0.9,1.7c-0.4,0.5-0.9,0.8-1.5,1.1c-0.6,0.3-1.3,0.4-2,0.4c-0.8,0-1.4-0.1-2-0.4s-1-0.7-1.4-1.1v5
				c0,0.2-0.1,0.3-0.2,0.4c-0.1,0.1-0.2,0.2-0.4,0.2L127.3,175L127.3,175z"/>
		</g>
		<g>
			<defs>
				<path id="SVGID_29_" d="M132.5,168.3c0.6,0,1-0.1,1.3-0.4c0.3-0.2,0.6-0.6,0.7-1c0.1-0.4,0.2-0.8,0.3-1.3c0-0.5,0-0.9,0-1.4
					c0-0.5-0.1-0.9-0.3-1.3c-0.1-0.4-0.4-0.7-0.7-1c-0.3-0.2-0.8-0.4-1.3-0.4c-0.6,0-1,0.1-1.3,0.4c-0.3,0.3-0.6,0.6-0.7,1
					c-0.1,0.4-0.2,0.8-0.3,1.3c0,0.3,0,0.5,0,0.8c0,0.3,0,0.6,0,0.9c0,0.4,0.1,0.8,0.3,1.2c0.2,0.4,0.4,0.7,0.8,0.9
					C131.5,168.2,131.9,168.3,132.5,168.3z M127.3,175c-0.2,0-0.3-0.1-0.4-0.2c-0.1-0.1-0.2-0.2-0.2-0.4v-14.8
					c0-0.2,0.1-0.3,0.2-0.4c0.1-0.1,0.2-0.2,0.4-0.2h2.1c0.2,0,0.3,0.1,0.4,0.2c0.1,0.1,0.2,0.2,0.2,0.4v0.9
					c0.4-0.5,0.8-0.9,1.4-1.2c0.6-0.3,1.3-0.5,2.1-0.5c0.8,0,1.5,0.1,2,0.4c0.6,0.2,1.1,0.6,1.5,1.1c0.4,0.5,0.7,1,0.9,1.7
					c0.2,0.6,0.3,1.4,0.4,2.2c0,0.3,0,0.6,0,0.8s0,0.5,0,0.8c0,0.8-0.1,1.5-0.3,2.1c-0.2,0.6-0.5,1.2-0.9,1.7
					c-0.4,0.5-0.9,0.8-1.5,1.1c-0.6,0.3-1.3,0.4-2,0.4c-0.8,0-1.4-0.1-2-0.4s-1-0.7-1.4-1.1v5c0,0.2-0.1,0.3-0.2,0.4
					c-0.1,0.1-0.2,0.2-0.4,0.2L127.3,175L127.3,175z"/>
			</defs>
			<clipPath id="SVGID_30_">
				<use xlink:href="#SVGID_29_"  style="overflow:visible;"/>
			</clipPath>
			<rect x="126.3" y="158.4" class="st15" width="12.5" height="17.1"/>
		</g>
	</g>
	<g>
		<g>
			<path id="SVGID_00000078736887485794124950000005406315942251141017_" class="st0" d="M143.7,163.8h4.4v0c0-0.5-0.1-1-0.3-1.4
				c-0.2-0.4-0.4-0.7-0.8-0.9c-0.3-0.2-0.7-0.3-1.2-0.3c-0.5,0-0.9,0.1-1.2,0.3c-0.3,0.2-0.6,0.5-0.8,0.9
				C143.7,162.8,143.6,163.2,143.7,163.8L143.7,163.8L143.7,163.8z M145.9,171c-1.7,0-3.1-0.5-4.1-1.4c-1-1-1.5-2.4-1.6-4.2
				c0-0.1,0-0.3,0-0.5c0-0.2,0-0.4,0-0.5c0.1-1.2,0.3-2.1,0.8-3c0.5-0.8,1.1-1.5,2-1.9c0.8-0.4,1.8-0.7,2.9-0.7
				c1.3,0,2.3,0.3,3.2,0.8c0.8,0.5,1.5,1.2,1.9,2.1s0.6,1.9,0.6,3.1v0.5c0,0.1-0.1,0.3-0.2,0.4c-0.1,0.1-0.2,0.2-0.4,0.2h-7.3
				c0,0,0,0,0,0.1c0,0,0,0.1,0,0.1c0,0.5,0.1,0.9,0.3,1.3c0.2,0.4,0.4,0.7,0.7,1c0.3,0.2,0.7,0.4,1.2,0.4c0.4,0,0.7-0.1,0.9-0.2
				c0.2-0.1,0.4-0.2,0.6-0.4c0.2-0.1,0.3-0.3,0.3-0.4c0.1-0.1,0.2-0.2,0.3-0.3s0.2-0.1,0.4-0.1h2.3c0.1,0,0.3,0,0.4,0.1
				c0.1,0.1,0.1,0.2,0.1,0.3c0,0.2-0.1,0.5-0.4,0.9c-0.2,0.4-0.6,0.7-1,1c-0.5,0.3-1,0.6-1.7,0.8C147.5,170.9,146.7,171,145.9,171z"
				/>
		</g>
		<g>
			<defs>
				<path id="SVGID_31_" d="M143.7,163.8h4.4v0c0-0.5-0.1-1-0.3-1.4c-0.2-0.4-0.4-0.7-0.8-0.9c-0.3-0.2-0.7-0.3-1.2-0.3
					c-0.5,0-0.9,0.1-1.2,0.3c-0.3,0.2-0.6,0.5-0.8,0.9C143.7,162.8,143.6,163.2,143.7,163.8L143.7,163.8L143.7,163.8z M145.9,171
					c-1.7,0-3.1-0.5-4.1-1.4c-1-1-1.5-2.4-1.6-4.2c0-0.1,0-0.3,0-0.5c0-0.2,0-0.4,0-0.5c0.1-1.2,0.3-2.1,0.8-3
					c0.5-0.8,1.1-1.5,2-1.9c0.8-0.4,1.8-0.7,2.9-0.7c1.3,0,2.3,0.3,3.2,0.8c0.8,0.5,1.5,1.2,1.9,2.1s0.6,1.9,0.6,3.1v0.5
					c0,0.1-0.1,0.3-0.2,0.4c-0.1,0.1-0.2,0.2-0.4,0.2h-7.3c0,0,0,0,0,0.1c0,0,0,0.1,0,0.1c0,0.5,0.1,0.9,0.3,1.3
					c0.2,0.4,0.4,0.7,0.7,1c0.3,0.2,0.7,0.4,1.2,0.4c0.4,0,0.7-0.1,0.9-0.2c0.2-0.1,0.4-0.2,0.6-0.4c0.2-0.1,0.3-0.3,0.3-0.4
					c0.1-0.1,0.2-0.2,0.3-0.3s0.2-0.1,0.4-0.1h2.3c0.1,0,0.3,0,0.4,0.1c0.1,0.1,0.1,0.2,0.1,0.3c0,0.2-0.1,0.5-0.4,0.9
					c-0.2,0.4-0.6,0.7-1,1c-0.5,0.3-1,0.6-1.7,0.8C147.5,170.9,146.7,171,145.9,171z"/>
			</defs>
			<clipPath id="SVGID_32_">
				<use xlink:href="#SVGID_31_"  style="overflow:visible;"/>
			</clipPath>
			<rect x="139.7" y="158.4" class="st16" width="12.3" height="13.1"/>
		</g>
	</g>
	<g>
		<g>
			<path id="SVGID_00000142874188131770049490000005449936732963617189_" class="st0" d="M154.3,170.8c-0.1,0-0.3-0.1-0.4-0.2
				c-0.1-0.1-0.2-0.2-0.2-0.4v-10.6c0-0.1,0.1-0.3,0.2-0.4c0.1-0.1,0.2-0.2,0.4-0.2h2.2c0.1,0,0.3,0.1,0.4,0.2
				c0.1,0.1,0.2,0.2,0.2,0.4v0.9c0.4-0.5,0.8-0.8,1.4-1.1c0.5-0.3,1.2-0.4,1.9-0.4h1c0.1,0,0.3,0.1,0.4,0.2c0.1,0.1,0.2,0.2,0.2,0.4
				v1.9c0,0.2-0.1,0.3-0.2,0.4c-0.1,0.1-0.2,0.2-0.4,0.2h-2c-0.7,0-1.2,0.2-1.5,0.6s-0.6,0.9-0.6,1.6v6c0,0.2-0.1,0.3-0.2,0.4
				c-0.1,0.1-0.2,0.2-0.4,0.2L154.3,170.8L154.3,170.8z"/>
		</g>
		<g>
			<defs>
				<path id="SVGID_33_" d="M154.3,170.8c-0.1,0-0.3-0.1-0.4-0.2c-0.1-0.1-0.2-0.2-0.2-0.4v-10.6c0-0.1,0.1-0.3,0.2-0.4
					c0.1-0.1,0.2-0.2,0.4-0.2h2.2c0.1,0,0.3,0.1,0.4,0.2c0.1,0.1,0.2,0.2,0.2,0.4v0.9c0.4-0.5,0.8-0.8,1.4-1.1
					c0.5-0.3,1.2-0.4,1.9-0.4h1c0.1,0,0.3,0.1,0.4,0.2c0.1,0.1,0.2,0.2,0.2,0.4v1.9c0,0.2-0.1,0.3-0.2,0.4c-0.1,0.1-0.2,0.2-0.4,0.2
					h-2c-0.7,0-1.2,0.2-1.5,0.6s-0.6,0.9-0.6,1.6v6c0,0.2-0.1,0.3-0.2,0.4c-0.1,0.1-0.2,0.2-0.4,0.2L154.3,170.8L154.3,170.8z"/>
			</defs>
			<clipPath id="SVGID_34_">
				<use xlink:href="#SVGID_33_"  style="overflow:visible;"/>
			</clipPath>
			<rect x="153.3" y="158.6" class="st17" width="9" height="12.6"/>
		</g>
	</g>
</g>
</svg>
