<?xml version="1.0" encoding="utf-8"?>
<!-- Generator: Adobe Illustrator 25.1.0, SVG Export Plug-In . SVG Version: 6.00 Build 0)  -->
<svg version="1.1" id="Layer_1" xmlns="http://www.w3.org/2000/svg" xmlns:xlink="http://www.w3.org/1999/xlink" x="0px" y="0px"
	 viewBox="0 0 1600 1600" style="enable-background:new 0 0 1600 1600;" xml:space="preserve">
<style type="text/css">
	.st0{fill:#074F4F;}
</style>
<path class="st0" d="M506,796c-9.7-5.9-20.8-8.8-33.4-8.8h4c8-2.3,15-6,20.9-10.9c5.9-4.9,8.9-10.2,8.9-15.9
	c0-8.4-4.9-15.5-14.6-21.3s-20.8-8.8-33.4-8.8h-67.1c0.8,0.9,2.2,2.2,4.1,3.7c1.9,1.6,3.5,3,4.6,4.4c1.2,1.3,1.7,2.6,1.7,3.7v110.1
	h72c12.5,0,22.4-3.4,32.1-10.1c9.7-6.8,14.6-15,14.6-24.6v-0.1C520.6,809,515.7,801.9,506,796L506,796L506,796z M424.6,735.1h29.3
	c20.8,0,31.2,8.6,31.2,25.8c0,9.9-2.2,16.4-6.7,19.4c-4.5,3.1-11.3,4.6-20.6,4.6l-33.1,0.2V735.1L424.6,735.1L424.6,735.1z
	 M466.6,845.9h-42.1v-53h42.1c20.6,0,32.2,7.7,32.5,24.5C498.9,836.9,487.2,845.9,466.6,845.9L466.6,845.9z"/>
<path class="st0" d="M555.1,730.3v121.9h-20.6V730.3H555.1z"/>
<path class="st0" d="M644.9,728.4c17.8,1.3,32.1,8.6,42.9,21.9c10.8,13.2,15,28.5,12.6,45.9s-10.7,31.7-24.8,42.9
	c-14.2,11.3-30.1,16.2-47.8,14.9c-17.7-1.3-32-8.6-42.9-21.9c-10.9-13.1-15.2-28.3-12.8-45.6s10.7-31.6,24.8-43
	C611,732.1,627,727.1,644.9,728.4L644.9,728.4z M620.7,841.5c13.3-1.4,27-7.8,41.2-19.1c14.2-11.3,23.4-23.4,27.7-36.5
	c4.3-13.1,2.5-24.5-5.2-34.4c-5.2-6.3-11.8-10-19.6-11.1c-7.8-1.1-16.2-0.1-25,3.1c-8.8,3.2-18.3,8.3-28.4,15.2
	c-14.8,10-24.3,21.9-28.6,35.6c-4.4,13.8-2.5,25.5,5.7,35.1C596.6,838.9,607.3,842.9,620.7,841.5L620.7,841.5L620.7,841.5z"/>
<path class="st0" d="M731.5,791.8c0,16.7,4.3,30.2,12.9,40.5c8.6,10.3,19.4,15.4,32.6,15.4c2.4,0,5.1-0.2,7.8-0.7s6.6-1.5,11.6-3.1
	c4.9-1.6,10.4-4.6,16.3-8.8c5.9-4.2,11.7-9.5,17.2-15.8c1.2-1.7,2.2-3.1,3.1-4v9.4c-3.4,3.6-5.8,6-7.1,7.3
	c-16.5,15-32.9,22.4-49.1,22.3c-20.1-0.1-36.9-6.2-50.3-18.4c-13.5-12.1-20.2-26.9-20.2-44.2c0-7,1.5-14.1,4.5-21.3
	c3-7.3,7.3-14.1,13-20.4c5.6-6.3,13.1-11.5,22.5-15.5c9.4-4,19.7-6,31.1-6c9.1-0.2,17.1,0.5,24.2,2.1c7.1,1.6,15.7,4.4,25.8,8.2
	l0.9,39.4c-2-2.4-4.3-6.6-7.1-12.6c-2.7-6-5.7-11.5-9-16.7c-3.2-5.2-7.1-8.9-11.5-11.2c-9.2-5.1-17.9-7.1-26.2-6.1
	c-8.3,1.1-15.6,4-22,9c-6.4,4.9-11.5,12-15.2,21.1C733.4,770.6,731.5,780.7,731.5,791.8L731.5,791.8L731.5,791.8z"/>
<path class="st0" d="M945.1,845.1v7.1h-96V730.3h22.6v114.8L945.1,845.1L945.1,845.1z"/>
<path class="st0" d="M975.8,730.3v121.9h-20.6V730.3H975.8z"/>
<path class="st0" d="M1114.2,852.2l-104.5-106.4V852h-7V738.1l-8.4-7.8h32.7l96.2,96.2v-96.2h6.4v121.9H1114.2z"/>
<path class="st0" d="M1174.5,730.3v121.9H1154V730.3H1174.5z"/>
<path class="st0" d="M1216.5,791.8c0,16.7,4.3,30.2,12.9,40.5c8.6,10.3,19.4,15.4,32.6,15.4c2.4,0,5.1-0.2,7.8-0.7s6.6-1.5,11.6-3.1
	c4.9-1.6,10.4-4.6,16.3-8.8c5.9-4.2,11.7-9.5,17.2-15.8c1.2-1.7,2.2-3.1,3.1-4v9.4c-3.4,3.6-5.8,6-7.1,7.3
	c-16.5,15-32.9,22.4-49.1,22.3c-20.1-0.1-36.9-6.2-50.3-18.4c-13.5-12.1-20.2-26.9-20.2-44.2c0-7,1.5-14.1,4.5-21.3
	c3-7.3,7.3-14.1,13-20.4c5.6-6.3,13.1-11.5,22.5-15.5c9.4-4,19.7-6,31.1-6c9.1-0.2,17.1,0.5,24.2,2.1s15.7,4.4,25.8,8.2l0.9,39.4
	c-2-2.4-4.3-6.6-7.1-12.6c-2.7-6-5.7-11.5-9-16.7c-3.2-5.2-7.1-8.9-11.5-11.2c-9.2-5.1-17.9-7.1-26.2-6.1s-15.6,4-22,9
	c-6.4,4.9-11.5,12-15.2,21.1C1218.3,770.6,1216.5,780.7,1216.5,791.8L1216.5,791.8L1216.5,791.8z"/>
<path class="st0" d="M1416.8,815.1h-75.1l-21.4,37.1h-7.8l64.5-111.8l-11.5-10.1h28.4l70.9,121.8h-27L1416.8,815.1L1416.8,815.1
	L1416.8,815.1z M1345,809.2h68.6l-34.2-59.8L1345,809.2L1345,809.2L1345,809.2z"/>
<path class="st0" d="M314,764.3h-0.3c-12.7,0-24.9-5.1-33.9-14.1c-9-9-14.1-21.2-14.1-33.9V716c0-5.2-1.6-10.3-4.5-14.6
	c-2.9-4.3-7-7.7-11.8-9.7c-4.8-2-10.1-2.5-15.2-1.5c-5.1,1-9.8,3.5-13.5,7.2s-6.2,8.4-7.2,13.5c-1,5.1-0.5,10.4,1.5,15.2
	c2,4.8,5.3,8.9,9.6,11.8s9.4,4.5,14.6,4.5h0.3c12.7,0,24.9,5.1,33.9,14.1c9,9,14.1,21.2,14.1,33.9v0.3c0,5.2,1.6,10.3,4.5,14.6
	c2.9,4.3,7,7.7,11.8,9.6c4.8,2,10.1,2.5,15.2,1.5c5.1-1,9.8-3.5,13.5-7.2c3.7-3.7,6.2-8.4,7.2-13.5c1-5.1,0.5-10.4-1.5-15.2
	c-2-4.8-5.3-8.9-9.6-11.8C324.3,765.9,319.2,764.4,314,764.3L314,764.3L314,764.3z"/>
<path class="st0" d="M238.3,766.3H238c-12.7,0-24.9-5.1-33.9-14.1c-9-9-14.1-21.2-14.1-33.9V718c0-5.2-1.6-10.3-4.5-14.6
	c-2.9-4.3-7-7.7-11.8-9.6c-4.8-2-10.1-2.5-15.2-1.5c-5.1,1-9.8,3.5-13.5,7.2c-3.7,3.7-6.2,8.4-7.2,13.5c-1,5.1-0.5,10.4,1.5,15.2
	c2,4.8,5.3,8.9,9.6,11.8c4.3,2.9,9.4,4.5,14.6,4.5l0,0c0.1,0,0.2,0,0.3,0c12.7,0,24.9,5.1,33.9,14.1c9,9,14.1,21.2,14.1,33.9v0.3
	c0,5.2,1.6,10.3,4.5,14.6s7,7.7,11.8,9.6c4.8,2,10.1,2.5,15.2,1.5c5.1-1,9.8-3.5,13.5-7.2s6.2-8.4,7.2-13.5c1-5.1,0.5-10.4-1.5-15.2
	c-2-4.8-5.3-8.9-9.6-11.8C248.6,768,243.6,766.4,238.3,766.3l-0.2,0"/>
<path class="st0" d="M236.3,842H236c-12.7,0-24.9-5.1-33.9-14.1c-9-9-14.1-21.2-14.1-33.9v-0.3c0-5.2-1.6-10.3-4.5-14.6
	s-7-7.7-11.8-9.6c-4.8-2-10.1-2.5-15.2-1.5c-5.1,1-9.8,3.5-13.5,7.2c-3.7,3.7-6.2,8.4-7.2,13.5c-1,5.1-0.5,10.4,1.5,15.2
	c2,4.8,5.3,8.9,9.6,11.8c4.3,2.9,9.4,4.5,14.6,4.5h0.3c12.7,0,24.9,5.1,33.9,14.1c9,9,14.1,21.2,14.1,33.9v0.3
	c0,5.2,1.6,10.3,4.5,14.6c2.9,4.3,7,7.7,11.8,9.6s10.1,2.5,15.2,1.5c5.1-1,9.8-3.5,13.5-7.2c3.7-3.7,6.2-8.4,7.2-13.5
	c1-5.1,0.5-10.4-1.5-15.2c-2-4.8-5.3-8.9-9.6-11.8C246.6,843.6,241.5,842.1,236.3,842l-0.3,0"/>
</svg>
