<?xml version="1.0" encoding="UTF-8"?><svg id="Layer_1" xmlns="http://www.w3.org/2000/svg" viewBox="0 0 1600 1600"><defs><style>.cls-1{fill:#074f4f;}</style></defs><path class="cls-1" d="M481.55,796.34c-10.5-6.35-22.54-9.53-36.13-9.53h4.36c8.68-2.51,16.23-6.45,22.64-11.79,6.41-5.34,9.63-11.1,9.63-17.26,0-9.06-5.26-16.76-15.76-23.11-10.5-6.35-22.54-9.53-36.13-9.53h-72.64c.87,1,2.36,2.36,4.43,4.05,2.08,1.71,3.75,3.27,5.01,4.72,1.25,1.44,1.89,2.8,1.89,4.06v119.24h77.97c13.58,0,24.24-3.66,34.74-10.99,10.5-7.34,15.76-16.22,15.76-26.67v-.08c0-9.06-5.26-16.76-15.76-23.11h0Zm-88.18-65.94h31.69c22.52,0,33.78,9.31,33.78,27.91,0,10.7-2.43,17.72-7.27,21.05-4.84,3.33-12.29,4.99-22.35,4.99l-35.85,.19v-54.15h0Zm45.56,119.96h-45.56v-57.45h45.56c22.31,0,34.93,8.31,35.16,26.58-.22,21.07-12.85,30.87-35.16,30.87h0Z"/><path class="cls-1" d="M534.77,725.11v132.08h-22.27v-132.08h22.27Z"/><path class="cls-1" d="M631.96,723.13c19.31,1.44,34.81,9.34,46.5,23.68,11.7,14.35,16.26,30.91,13.68,49.72-2.58,18.81-11.54,34.31-26.89,46.5-15.34,12.19-32.62,17.58-51.79,16.13-19.19-1.44-34.68-9.34-46.5-23.68-11.82-14.21-16.45-30.69-13.87-49.43,2.58-18.74,11.54-34.28,26.89-46.6,15.34-12.33,32.67-17.77,51.98-16.33Zm-26.22,122.45c14.4-1.57,29.27-8.46,44.62-20.66,15.34-12.2,25.35-25.38,29.99-39.53,4.65-14.15,2.76-26.57-5.66-37.26-5.66-6.8-12.74-10.78-21.23-11.99-8.49-1.19-17.52-.06-27.08,3.4-9.56,3.45-19.81,8.96-30.76,16.51-15.98,10.82-26.32,23.68-31.03,38.58-4.72,14.9-2.68,27.58,6.13,38.01,8.93,10.18,20.6,14.5,35,12.93h.01Z"/><path class="cls-1" d="M725.78,791.72c0,18.12,4.65,32.74,13.96,43.87,9.31,11.13,21.06,16.7,35.28,16.7,2.64,0,5.47-.25,8.49-.75,3.02-.5,7.2-1.64,12.54-3.4,5.34-1.76,11.22-4.94,17.65-9.53,6.41-4.59,12.64-10.28,18.67-17.08,1.26-1.89,2.39-3.33,3.4-4.34v10.18c-3.65,3.9-6.23,6.55-7.74,7.92-17.87,16.23-35.6,24.28-53.2,24.15-21.77-.12-39.94-6.76-54.52-19.91-14.59-13.14-21.89-29.09-21.89-47.84,0-7.55,1.64-15.25,4.91-23.11,3.27-7.87,7.95-15.22,14.05-22.07,6.1-6.85,14.21-12.46,24.33-16.79,10.13-4.34,21.35-6.51,33.68-6.51,9.81-.25,18.55,.5,26.22,2.26,7.67,1.76,16.98,4.72,27.93,8.87l.94,42.65c-2.14-2.64-4.69-7.2-7.64-13.68-2.96-6.48-6.2-12.51-9.71-18.12-3.52-5.59-7.67-9.66-12.46-12.17-9.93-5.54-19.41-7.74-28.4-6.6-8.99,1.14-16.95,4.37-23.86,9.71-6.92,5.34-12.43,12.96-16.51,22.84-4.09,9.88-6.13,20.78-6.13,32.74h.01Z"/><path class="cls-1" d="M957.15,849.46v7.74h-103.97v-132.09h24.53v124.35h79.44Z"/><path class="cls-1" d="M990.45,725.11v132.08h-22.27v-132.08h22.27Z"/><path class="cls-1" d="M1140.38,857.19l-113.22-115.28v115.09h-7.55v-123.4l-9.06-8.49h35.47l104.15,104.15v-104.15h6.98v132.08h-16.77Z"/><path class="cls-1" d="M1205.67,725.11v132.08h-22.27v-132.08h22.27Z"/><path class="cls-1" d="M1251.1,791.72c0,18.12,4.65,32.74,13.96,43.87,9.31,11.13,21.06,16.7,35.28,16.7,2.64,0,5.47-.25,8.49-.75s7.2-1.64,12.54-3.4c5.34-1.76,11.22-4.94,17.65-9.53,6.41-4.59,12.64-10.28,18.67-17.08,1.26-1.89,2.39-3.33,3.4-4.34v10.18c-3.65,3.9-6.23,6.55-7.74,7.92-17.87,16.23-35.6,24.28-53.2,24.15-21.77-.12-39.94-6.76-54.52-19.91-14.59-13.14-21.89-29.09-21.89-47.84,0-7.55,1.64-15.25,4.91-23.11,3.27-7.87,7.95-15.22,14.05-22.07,6.1-6.85,14.21-12.46,24.33-16.79,10.13-4.34,21.35-6.51,33.68-6.51,9.81-.25,18.55,.5,26.22,2.26,7.67,1.76,16.98,4.72,27.93,8.87l.94,42.65c-2.14-2.64-4.69-7.2-7.64-13.68-2.96-6.48-6.2-12.51-9.71-18.12-3.52-5.59-7.67-9.66-12.46-12.17-9.93-5.54-19.41-7.74-28.4-6.6-8.99,1.14-16.95,4.37-23.86,9.71-6.92,5.34-12.43,12.96-16.51,22.84-4.09,9.88-6.13,20.78-6.13,32.74h.01Z"/><path class="cls-1" d="M1468.07,817h-81.33l-23.21,40.19h-8.49l69.81-121.13-12.46-10.95h30.76l76.79,131.88h-29.25l-22.64-40h.01Zm-77.73-6.41h74.33l-36.99-64.72-37.36,64.72h.01Z"/><path class="cls-1" d="M273.64,762.01h-.29c-13.79-.03-27-5.53-36.75-15.28-9.75-9.75-15.24-22.97-15.28-36.76v-.28c-.02-5.63-1.71-11.13-4.86-15.81-3.14-4.67-7.6-8.31-12.81-10.46-5.21-2.14-10.93-2.7-16.46-1.59-5.52,1.1-10.6,3.82-14.58,7.8-3.98,3.98-6.7,9.06-7.8,14.58-1.1,5.52-.55,11.25,1.59,16.46,2.14,5.21,5.78,9.67,10.45,12.81,4.67,3.14,10.17,4.84,15.8,4.86h.29c13.79,.03,27,5.53,36.75,15.28,9.75,9.75,15.24,22.97,15.28,36.76v.29c.03,5.63,1.72,11.13,4.87,15.8,3.15,4.67,7.6,8.3,12.81,10.44,5.21,2.14,10.93,2.69,16.45,1.59,5.52-1.11,10.59-3.82,14.57-7.8,3.98-3.98,6.69-9.05,7.8-14.57,1.1-5.52,.55-11.25-1.59-16.45-2.14-5.21-5.78-9.66-10.45-12.81-4.67-3.14-10.17-4.84-15.8-4.86h0Z"/><path class="cls-1" d="M191.62,764.19h-.3c-13.78-.04-26.99-5.53-36.74-15.28-9.75-9.75-15.24-22.96-15.28-36.74v-.3c-.03-5.63-1.72-11.13-4.87-15.8-3.15-4.67-7.6-8.31-12.81-10.45-5.21-2.14-10.93-2.69-16.45-1.59-5.52,1.11-10.59,3.82-14.57,7.81-3.98,3.98-6.69,9.06-7.8,14.58-1.1,5.52-.55,11.25,1.6,16.46,2.14,5.21,5.78,9.66,10.45,12.81,4.67,3.14,10.17,4.83,15.8,4.86h0c.1,0,.2,0,.3,0,13.78,.04,26.99,5.54,36.74,15.28,9.75,9.75,15.24,22.96,15.28,36.75v.3c.03,5.63,1.72,11.13,4.87,15.8,3.15,4.67,7.6,8.3,12.81,10.45,5.21,2.14,10.93,2.69,16.45,1.59,5.52-1.11,10.59-3.82,14.57-7.8,3.98-3.98,6.7-9.05,7.8-14.57,1.11-5.52,.55-11.25-1.59-16.45-2.14-5.21-5.78-9.66-10.44-12.81-4.67-3.15-10.16-4.84-15.79-4.87h-.3"/><path class="cls-1" d="M189.43,846.19h-.29c-13.79-.03-27-5.53-36.75-15.28-9.75-9.75-15.24-22.97-15.28-36.76v-.29c-.03-5.63-1.72-11.13-4.87-15.8-3.15-4.67-7.6-8.3-12.81-10.44-5.21-2.14-10.93-2.69-16.45-1.59-5.52,1.11-10.59,3.82-14.57,7.8-3.98,3.98-6.69,9.05-7.8,14.57-1.1,5.52-.55,11.25,1.59,16.45,2.14,5.21,5.78,9.66,10.45,12.81,4.67,3.14,10.17,4.83,15.8,4.86h.29c13.79,.03,27,5.53,36.75,15.28,9.75,9.75,15.24,22.97,15.28,36.76v.29c.03,5.63,1.72,11.13,4.87,15.8,3.15,4.67,7.6,8.31,12.81,10.45,5.21,2.14,10.93,2.7,16.45,1.59,5.52-1.11,10.59-3.82,14.57-7.8,3.98-3.98,6.7-9.06,7.8-14.58,1.11-5.52,.55-11.25-1.59-16.46-2.14-5.21-5.78-9.67-10.45-12.81-4.67-3.15-10.17-4.84-15.8-4.87h-.29"/></svg>