<?xml version="1.0" encoding="utf-8"?>
<!-- Generator: Adobe Illustrator 25.1.0, SVG Export Plug-In . SVG Version: 6.00 Build 0)  -->
<svg version="1.1" id="Layer_1" xmlns="http://www.w3.org/2000/svg" xmlns:xlink="http://www.w3.org/1999/xlink" x="0px" y="0px"
	 viewBox="0 0 300 100" style="enable-background:new 0 0 300 100;" xml:space="preserve">
<style type="text/css">
	.st0{fill:#074F4F;}
</style>
<path class="st0" d="M95.6,51.9c-1.8-1.1-3.9-1.6-6.2-1.6h0.7c1.5-0.4,2.8-1.1,3.9-2s1.6-1.9,1.6-2.9c0-1.6-0.9-2.9-2.7-3.9
	c-1.8-1.1-3.9-1.6-6.2-1.6H74.3c0.1,0.2,0.4,0.4,0.8,0.7c0.4,0.3,0.6,0.6,0.9,0.8c0.2,0.2,0.3,0.5,0.3,0.7v20.4h13.3
	c2.3,0,4.2-0.6,5.9-1.9c1.8-1.3,2.7-2.8,2.7-4.6v0C98.3,54.3,97.3,53,95.6,51.9L95.6,51.9L95.6,51.9z M80.5,40.6h5.4
	c3.9,0,5.8,1.6,5.8,4.8c0,1.8-0.4,3-1.2,3.6c-0.8,0.6-2.1,0.9-3.8,0.9l-6.1,0L80.5,40.6L80.5,40.6L80.5,40.6z M88.2,61.1h-7.8v-9.8
	h7.8c3.8,0,6,1.4,6,4.5C94.2,59.5,92.1,61.1,88.2,61.1L88.2,61.1z"/>
<path class="st0" d="M104.7,39.7v22.6h-3.8V39.7H104.7z"/>
<path class="st0" d="M121.3,39.4c3.3,0.2,5.9,1.6,8,4.1c2,2.4,2.8,5.3,2.3,8.5c-0.4,3.2-2,5.9-4.6,8c-2.6,2.1-5.6,3-8.9,2.8
	c-3.3-0.2-5.9-1.6-8-4.1c-2-2.4-2.8-5.2-2.4-8.5c0.4-3.2,2-5.9,4.6-8C115,40.1,118,39.1,121.3,39.4L121.3,39.4z M116.8,60.3
	c2.5-0.3,5-1.4,7.6-3.5c2.6-2.1,4.3-4.3,5.1-6.8c0.8-2.4,0.5-4.5-1-6.4c-1-1.2-2.2-1.9-3.6-2.1s-3,0-4.6,0.6
	c-1.6,0.6-3.4,1.5-5.3,2.8c-2.7,1.9-4.5,4.1-5.3,6.6c-0.8,2.6-0.5,4.7,1.1,6.5C112.3,59.8,114.3,60.6,116.8,60.3L116.8,60.3
	L116.8,60.3z"/>
<path class="st0" d="M137.3,51.1c0,3.1,0.8,5.6,2.4,7.5c1.6,1.9,3.6,2.9,6,2.9c0.4,0,0.9,0,1.4-0.1c0.5-0.1,1.2-0.3,2.1-0.6
	c0.9-0.3,1.9-0.9,3-1.6s2.2-1.8,3.2-2.9c0.2-0.3,0.4-0.6,0.6-0.7v1.7c-0.6,0.7-1.1,1.1-1.3,1.4c-3.1,2.8-6.1,4.2-9.1,4.1
	c-3.7,0-6.8-1.1-9.3-3.4c-2.5-2.2-3.7-5-3.7-8.2c0-1.3,0.3-2.6,0.8-3.9c0.6-1.4,1.4-2.6,2.4-3.8c1-1.2,2.4-2.1,4.2-2.9
	s3.7-1.1,5.8-1.1c1.7,0,3.2,0.1,4.5,0.4c1.3,0.3,2.9,0.8,4.8,1.5l0.2,7.3c-0.4-0.4-0.8-1.2-1.3-2.3c-0.5-1.1-1.1-2.1-1.7-3.1
	c-0.6-1-1.3-1.6-2.1-2.1c-1.7-0.9-3.3-1.3-4.9-1.1c-1.5,0.2-2.9,0.7-4.1,1.7c-1.2,0.9-2.1,2.2-2.8,3.9
	C137.7,47.2,137.3,49.1,137.3,51.1L137.3,51.1L137.3,51.1z"/>
<path class="st0" d="M176.9,61v1.3h-17.8V39.7h4.2V61H176.9L176.9,61z"/>
<path class="st0" d="M182.6,39.7v22.6h-3.8V39.7H182.6z"/>
<path class="st0" d="M208.3,62.3l-19.4-19.7v19.7h-1.3V41.2l-1.6-1.4h6.1l17.8,17.8V39.7h1.2v22.6H208.3z"/>
<path class="st0" d="M219.5,39.7v22.6h-3.8V39.7H219.5z"/>
<path class="st0" d="M227.2,51.1c0,3.1,0.8,5.6,2.4,7.5c1.6,1.9,3.6,2.9,6,2.9c0.4,0,0.9,0,1.4-0.1s1.2-0.3,2.1-0.6
	c0.9-0.3,1.9-0.9,3-1.6c1.1-0.8,2.2-1.8,3.2-2.9c0.2-0.3,0.4-0.6,0.6-0.7v1.7c-0.6,0.7-1.1,1.1-1.3,1.4c-3.1,2.8-6.1,4.2-9.1,4.1
	c-3.7,0-6.8-1.1-9.3-3.4c-2.5-2.2-3.7-5-3.7-8.2c0-1.3,0.3-2.6,0.8-3.9c0.6-1.4,1.4-2.6,2.4-3.8c1-1.2,2.4-2.1,4.2-2.9
	s3.7-1.1,5.8-1.1c1.7,0,3.2,0.1,4.5,0.4c1.3,0.3,2.9,0.8,4.8,1.5l0.2,7.3c-0.4-0.4-0.8-1.2-1.3-2.3c-0.5-1.1-1.1-2.1-1.7-3.1
	c-0.6-1-1.3-1.6-2.1-2.1c-1.7-0.9-3.3-1.3-4.9-1.1c-1.5,0.2-2.9,0.7-4.1,1.7c-1.2,0.9-2.1,2.2-2.8,3.9
	C227.6,47.2,227.2,49.1,227.2,51.1L227.2,51.1L227.2,51.1z"/>
<path class="st0" d="M264.4,55.4h-13.9l-4,6.9H245l12-20.7l-2.1-1.9h5.3l13.1,22.6h-5L264.4,55.4L264.4,55.4L264.4,55.4z
	 M251.1,54.3h12.7l-6.3-11.1L251.1,54.3L251.1,54.3L251.1,54.3z"/>
<path class="st0" d="M60,46L60,46c-2.4,0-4.7-0.9-6.3-2.6C52,41.7,51,39.5,51,37.1v-0.1c0-1-0.3-1.9-0.8-2.7
	c-0.5-0.8-1.3-1.4-2.2-1.8c-0.9-0.4-1.9-0.5-2.8-0.3s-1.8,0.6-2.5,1.3c-0.7,0.7-1.1,1.6-1.3,2.5c-0.2,0.9-0.1,1.9,0.3,2.8
	s1,1.6,1.8,2.2c0.8,0.5,1.7,0.8,2.7,0.8h0.1c2.4,0,4.6,0.9,6.3,2.6c1.7,1.7,2.6,3.9,2.6,6.3v0.1c0,1,0.3,1.9,0.8,2.7
	s1.3,1.4,2.2,1.8c0.9,0.4,1.9,0.5,2.8,0.3s1.8-0.6,2.5-1.3c0.7-0.7,1.1-1.6,1.3-2.5s0.1-1.9-0.3-2.8s-1-1.6-1.8-2.2
	C61.9,46.3,60.9,46,60,46L60,46L60,46z"/>
<path class="st0" d="M45.9,46.4L45.9,46.4c-2.4,0-4.7-0.9-6.3-2.6S37,39.8,37,37.5v-0.1c0-1-0.3-1.9-0.8-2.7S34.9,33.3,34,33
	c-0.9-0.4-1.9-0.5-2.8-0.3c-0.9,0.2-1.8,0.6-2.5,1.3c-0.7,0.7-1.1,1.6-1.3,2.5c-0.2,0.9-0.1,1.9,0.3,2.8s1,1.6,1.8,2.2
	c0.8,0.5,1.7,0.8,2.7,0.8l0,0c0,0,0,0,0.1,0c2.4,0,4.6,0.9,6.3,2.6c1.7,1.7,2.6,3.9,2.6,6.3v0.1c0,1,0.3,1.9,0.8,2.7
	c0.5,0.8,1.3,1.4,2.2,1.8c0.9,0.4,1.9,0.5,2.8,0.3s1.8-0.6,2.5-1.3s1.1-1.6,1.3-2.5c0.2-0.9,0.1-1.9-0.3-2.8c-0.4-0.9-1-1.6-1.8-2.2
	C47.8,46.7,46.9,46.4,45.9,46.4L45.9,46.4"/>
<path class="st0" d="M45.6,60.4L45.6,60.4c-2.4,0-4.7-0.9-6.3-2.6c-1.7-1.7-2.6-3.9-2.6-6.3v-0.1c0-1-0.3-1.9-0.8-2.7
	c-0.5-0.8-1.3-1.4-2.2-1.8c-0.9-0.4-1.9-0.5-2.8-0.3c-0.9,0.2-1.8,0.6-2.5,1.3c-0.7,0.7-1.1,1.6-1.3,2.5c-0.2,0.9-0.1,1.9,0.3,2.8
	c0.4,0.9,1,1.6,1.8,2.2c0.8,0.5,1.7,0.8,2.7,0.8h0.1c2.4,0,4.6,0.9,6.3,2.6s2.6,3.9,2.6,6.3v0.1c0,1,0.3,1.9,0.8,2.7
	s1.3,1.4,2.2,1.8c0.9,0.4,1.9,0.5,2.8,0.3c0.9-0.2,1.8-0.6,2.5-1.3c0.7-0.7,1.1-1.6,1.3-2.5c0.2-0.9,0.1-1.9-0.3-2.8
	c-0.4-0.9-1-1.6-1.8-2.2C47.5,60.7,46.5,60.4,45.6,60.4L45.6,60.4"/>
</svg>
