<?xml version="1.0" encoding="utf-8"?>
<!-- Generator: Adobe Illustrator 25.1.0, SVG Export Plug-In . SVG Version: 6.00 Build 0)  -->
<svg version="1.1" id="Layer_1" xmlns="http://www.w3.org/2000/svg" xmlns:xlink="http://www.w3.org/1999/xlink" x="0px" y="0px"
	 viewBox="0 0 220 100" style="enable-background:new 0 0 220 100;" xml:space="preserve">
<style type="text/css">
	.st0{fill-rule:evenodd;clip-rule:evenodd;fill:#ED0007;}
</style>
<desc>Created with Sketch.</desc>
<g>
	<g id="logotype">
		<path id="logotype-b-47" class="st0" d="M96.2,50.4c2-0.8,3.3-2.7,3.3-4.9c0-4.4-3.1-6.6-7.4-6.6H80.9v23.9h12.2
			c3.8,0,7.4-2.6,7.4-6.6C100.6,51.5,96.2,50.5,96.2,50.4z M86.8,43.9h4.4c1.2-0.1,2.2,0.8,2.3,2l0,0c0,0.1,0,0.2,0,0.3
			c0,1.2-1,2.2-2.3,2.2h-4.4V43.9z M91.2,57.9h-4.4v-4.7H91c2.1,0,3.2,0.9,3.2,2.3C94.2,57.2,92.9,57.9,91.2,57.9z"/>
		<path id="logotype-o-47" class="st0" d="M113.5,38.4c-6.9,0-11,5.5-11,12.5s4.1,12.5,11,12.5s11-5.5,11-12.5
			S120.4,38.4,113.5,38.4z M113.5,57.7c-3.4,0-5.1-3-5.1-6.8s1.7-6.8,5.1-6.8s5.1,3,5.1,6.8S116.9,57.7,113.5,57.7z"/>
		<path id="logotype-s-47" class="st0" d="M137.2,48.4l-0.8-0.2c-2-0.4-3.6-0.9-3.6-2.4c0-1.6,1.5-2.2,2.9-2.2
			c1.9,0,3.6,0.8,4.9,2.2l3.7-3.7c-1.7-1.9-4.4-3.8-8.7-3.8c-5,0-8.9,2.8-8.9,7.5c0,4.3,3.1,6.4,6.8,7.2l0.8,0.2
			c3.1,0.6,4.3,1.1,4.3,2.6c0,1.4-1.3,2.4-3.2,2.4c-2.3,0-4.4-1-6-3.1l-3.8,3.8c2.1,2.5,4.8,4.5,9.9,4.5c4.5,0,9.2-2.6,9.2-7.8
			C144.7,50.1,140.6,49.1,137.2,48.4z"/>
		<path id="logotype-c-47" class="st0" d="M158,57.7c-2.6,0-5.4-2.2-5.4-6.9c0-4.2,2.6-6.6,5.2-6.6c2.1,0,3.3,1,4.3,2.7l4.8-3.2
			c-2.4-3.6-5.3-5.2-9.2-5.2c-7.2,0-11.1,5.6-11.1,12.4c0,7.1,4.3,12.7,11,12.7c4.7,0,7-1.7,9.4-5.2l-4.8-3.3
			C161.3,56.6,160.3,57.7,158,57.7z"/>
		<polygon id="logotype-h-47" class="st0" points="183,39 183,47.8 175.8,47.8 175.8,39 169.5,39 169.5,62.9 175.8,62.9 175.8,53.4 
			183,53.4 183,62.9 189.3,62.9 189.3,39 		"/>
	</g>
	<g id="symbol">
		<path d="M44.8,32.9c-10,0-18.1,8.1-18.1,18.1s8.1,18.1,18.1,18.1S62.9,61,62.9,51S54.8,32.9,44.8,32.9L44.8,32.9z M44.8,67.4
			c-9.1,0-16.4-7.3-16.4-16.4s7.3-16.4,16.4-16.4S61.2,41.9,61.2,51C61.2,60.1,53.9,67.4,44.8,67.4z"/>
		<path d="M52.3,39.7H51v6.2H38.6v-6.2h-1.3c-6.2,4.1-8,12.5-3.8,18.8c1,1.5,2.3,2.8,3.8,3.8h1.3v-6.2H51v6.2h1.2
			c6.2-4.1,8-12.5,3.9-18.8C55.1,42,53.8,40.7,52.3,39.7L52.3,39.7z M36.9,59.9c-4.9-4.4-5.3-11.8-1-16.7l0,0c0.3-0.3,0.6-0.7,1-1
			V59.9z M51,54.4H38.6v-6.8H51V54.4z M52.7,59.8V56l0,0V45.8l0,0V42c4.9,4.4,5.3,11.9,0.9,16.8l0,0C53.3,59.2,53,59.5,52.7,59.8
			L52.7,59.8z"/>
	</g>
</g>
</svg>
