<?xml version="1.0" encoding="utf-8"?>
<!-- Generator: Adobe Illustrator 25.1.0, SVG Export Plug-In . SVG Version: 6.00 Build 0)  -->
<svg version="1.1" id="Layer_1" xmlns="http://www.w3.org/2000/svg" xmlns:xlink="http://www.w3.org/1999/xlink" x="0px" y="0px"
	 viewBox="0 0 214 214" style="enable-background:new 0 0 214 214;" xml:space="preserve">
<style type="text/css">
	.st0{fill-rule:evenodd;clip-rule:evenodd;fill:#ED0007;}
</style>
<desc>Created with Sketch.</desc>
<g>
	<g id="logotype">
		<path id="logotype-b-47" class="st0" d="M95.2,106.4c2-0.8,3.3-2.7,3.3-4.9c0-4.4-3.1-6.6-7.4-6.6H79.9v23.9h12.2
			c3.8,0,7.4-2.6,7.4-6.6C99.6,107.5,95.2,106.5,95.2,106.4z M85.8,99.9h4.4c1.2-0.1,2.2,0.8,2.3,2c0,0,0,0,0,0c0,0.1,0,0.2,0,0.3
			c0,1.2-1,2.2-2.3,2.2h-4.4L85.8,99.9z M90.2,113.9h-4.4v-4.7h4.2c2.1,0,3.2,0.9,3.2,2.3C93.2,113.2,91.9,113.9,90.2,113.9z"/>
		<path id="logotype-o-47" class="st0" d="M112.5,94.4c-6.9,0-11,5.5-11,12.5s4.1,12.5,11,12.5s11-5.5,11-12.5
			S119.4,94.4,112.5,94.4z M112.5,113.7c-3.4,0-5.1-3-5.1-6.8c0-3.8,1.7-6.8,5.1-6.8s5.1,3,5.1,6.8
			C117.6,110.7,115.9,113.7,112.5,113.7z"/>
		<path id="logotype-s-47" class="st0" d="M136.2,104.4l-0.8-0.2c-2-0.4-3.6-0.9-3.6-2.4c0-1.6,1.5-2.2,2.9-2.2
			c1.9,0,3.6,0.8,4.9,2.2l3.7-3.7c-1.7-1.9-4.4-3.8-8.7-3.8c-5,0-8.9,2.8-8.9,7.5c0,4.3,3.1,6.4,6.8,7.2l0.8,0.2
			c3.1,0.6,4.3,1.1,4.3,2.6c0,1.4-1.3,2.4-3.2,2.4c-2.3,0-4.4-1-6-3.1l-3.8,3.8c2.1,2.5,4.8,4.5,9.9,4.5c4.5,0,9.2-2.6,9.2-7.8
			C143.7,106.1,139.6,105.1,136.2,104.4z"/>
		<path id="logotype-c-47" class="st0" d="M157,113.7c-2.6,0-5.4-2.2-5.4-6.9c0-4.2,2.6-6.6,5.2-6.6c2.1,0,3.3,1,4.3,2.7l4.8-3.2
			c-2.4-3.6-5.3-5.2-9.2-5.2c-7.2,0-11.1,5.6-11.1,12.4c0,7.1,4.3,12.7,11,12.7c4.7,0,7-1.7,9.4-5.2l-4.8-3.3
			C160.3,112.6,159.3,113.7,157,113.7z"/>
		<polygon id="logotype-h-47" class="st0" points="182,95 182,103.8 174.8,103.8 174.8,95 168.5,95 168.5,118.9 174.8,118.9 
			174.8,109.4 182,109.4 182,118.9 188.3,118.9 188.3,95 		"/>
	</g>
	<g id="symbol">
		<path d="M43.8,88.9c-10,0-18.1,8.1-18.1,18.1s8.1,18.1,18.1,18.1S61.9,117,61.9,107S53.8,88.9,43.8,88.9
			C43.8,88.9,43.8,88.9,43.8,88.9z M43.8,123.4c-9.1,0-16.4-7.3-16.4-16.4s7.3-16.4,16.4-16.4s16.4,7.3,16.4,16.4
			C60.2,116.1,52.9,123.4,43.8,123.4z"/>
		<path d="M51.3,95.7H50v6.2H37.6v-6.2h-1.3c-6.2,4.1-8,12.5-3.8,18.8c1,1.5,2.3,2.8,3.8,3.8h1.3v-6.2H50v6.2h1.2
			c6.2-4.1,8-12.5,3.9-18.8C54.1,98,52.8,96.7,51.3,95.7L51.3,95.7z M35.9,115.9c-4.9-4.4-5.3-11.8-1-16.7c0,0,0,0,0,0
			c0.3-0.3,0.6-0.7,1-1V115.9z M50,110.4H37.6v-6.8H50V110.4z M51.7,115.8v-3.8l0,0v-10.2l0,0v-3.8c4.9,4.4,5.3,11.9,0.9,16.8
			c0,0,0,0,0,0C52.3,115.2,52,115.5,51.7,115.8L51.7,115.8z"/>
	</g>
</g>
</svg>
