<?xml version="1.0" encoding="utf-8"?>
<!-- Generator: Adobe Illustrator 25.1.0, SVG Export Plug-In . SVG Version: 6.00 Build 0)  -->
<svg version="1.1" id="Layer_1" xmlns="http://www.w3.org/2000/svg" xmlns:xlink="http://www.w3.org/1999/xlink" x="0px" y="0px"
	 viewBox="0 0 427 214" style="enable-background:new 0 0 427 214;" xml:space="preserve">
<style type="text/css">
	.st0{fill-rule:evenodd;clip-rule:evenodd;fill:url(#SVGID_1_);}
	.st1{fill-rule:evenodd;clip-rule:evenodd;fill:url(#SVGID_2_);}
	.st2{fill-rule:evenodd;clip-rule:evenodd;fill:url(#SVGID_3_);}
	.st3{fill-rule:evenodd;clip-rule:evenodd;fill:url(#SVGID_4_);}
	.st4{fill:#00004A;}
</style>
<desc>Created with Sketch.</desc>
<linearGradient id="SVGID_1_" gradientUnits="userSpaceOnUse" x1="37.8363" y1="753.4694" x2="80.9777" y2="753.4694" gradientTransform="matrix(1 0 0 1 0 -628)">
	<stop  offset="0" style="stop-color:#3D54CE"/>
	<stop  offset="1" style="stop-color:#35CACF"/>
</linearGradient>
<path class="st0" d="M69.4,110.3H38.6l21.2,30.3l21.9-13.1L69.4,110.3z"/>
<linearGradient id="SVGID_2_" gradientUnits="userSpaceOnUse" x1="57.0406" y1="753.4694" x2="108.1183" y2="753.4694" gradientTransform="matrix(1 0 0 1 0 -628)">
	<stop  offset="0" style="stop-color:#13457D"/>
	<stop  offset="1" style="stop-color:#279698"/>
</linearGradient>
<path class="st1" d="M110.7,110.3l-50.9,30.3h30.3L110.7,110.3z"/>
<linearGradient id="SVGID_3_" gradientUnits="userSpaceOnUse" x1="38.3969" y1="723.0906" x2="81.5383" y2="723.0906" gradientTransform="matrix(1 0 0 1 0 -628)">
	<stop  offset="0" style="stop-color:#090086"/>
	<stop  offset="1" style="stop-color:#2F96A9"/>
</linearGradient>
<path class="st2" d="M38.6,110.3h30.8l12.3-17.3L59.8,79.9L38.6,110.3z"/>
<linearGradient id="SVGID_4_" gradientUnits="userSpaceOnUse" x1="57.0406" y1="723.0906" x2="108.1183" y2="723.0906" gradientTransform="matrix(1 0 0 1 0 -628)">
	<stop  offset="0" style="stop-color:#3B62CA"/>
	<stop  offset="1" style="stop-color:#93DFE3"/>
</linearGradient>
<path class="st3" d="M110.7,110.3L59.8,79.9h30.3L110.7,110.3z"/>
<path class="st4" d="M385.4,87.3c0,0.7-0.2,1.3-0.6,1.9c-0.4,0.6-1,1-1.6,1.2c-0.6,0.2-1.3,0.4-1.9,0.2s-1.3-0.5-1.8-1
	c-0.5-0.5-0.8-1.1-1-1.7c-0.1-0.6-0.1-1.3,0.2-1.9c0.2-0.6,0.7-1.1,1.2-1.6c0.6-0.4,1.2-0.6,1.9-0.6c1,0,1.8,0.4,2.4,1
	C385,85.6,385.4,86.5,385.4,87.3z M384.9,87.3c0-0.6-0.1-1.1-0.5-1.6s-0.8-0.8-1.3-1.1s-1.1-0.2-1.7-0.1s-1.1,0.4-1.6,0.8
	c-0.4,0.4-0.7,1-0.8,1.4c-0.1,0.6,0,1.2,0.1,1.7c0.2,0.5,0.6,1,1.1,1.3c0.5,0.4,1.1,0.5,1.7,0.5c0.8,0,1.6-0.4,2-0.8
	C384.7,88.9,384.9,88,384.9,87.3z M382.6,87.5l1.1,1.6h-0.8l-1-1.4h-0.5v1.4h-0.6v-3.7h1.4c0.1,0,0.4,0,0.5,0.1
	c0.1,0,0.2,0.1,0.4,0.2c0.1,0.1,0.2,0.2,0.2,0.4c0,0.1,0.1,0.2,0.1,0.5c0,0.2,0,0.5-0.1,0.6C383,87.4,382.9,87.5,382.6,87.5z
	 M381.4,87.1h0.7c0.1,0,0.1,0,0.2,0s0.1-0.1,0.2-0.1l0.1-0.1c0-0.1,0-0.1,0-0.2s0-0.1,0-0.2s-0.1-0.1-0.1-0.1s-0.1-0.1-0.2-0.1
	s-0.1,0-0.2,0h-0.7V87.1z M258.1,94.9h5V125H258L258.1,94.9z M239.4,94.1c-3.2,0-6.5,1.1-9,3.1v-2.5h-5.2v30.2h5.2V108
	c0-2.4,1-4.6,2.6-6.2c1.7-1.7,4-2.6,6.4-2.6s4.7,1,6.4,2.6c1.7,1.7,2.6,4,2.6,6.2v17h5.2v-17c0-1.8-0.4-3.6-1.1-5.3
	c-0.7-1.7-1.8-3.2-3-4.6c-1.2-1.3-2.9-2.3-4.6-3C243,94.5,241.2,94.1,239.4,94.1z M215.2,94.9h5.2V124c-0.1,4.2-1.8,8.1-4.8,11
	s-7,4.7-11.1,4.7c-3.4,0.1-6.7-1-9.5-2.9c-2.8-2-4.8-4.8-5.8-8h5.5c0.8,1.8,2.3,3.4,4,4.4c1.7,1.1,3.7,1.6,5.8,1.6
	c2.9-0.1,5.5-1.2,7.5-3.2c2-2,3.2-4.7,3.2-7.4v-2.4c-2.3,2-5.2,3.5-8.1,4c-3,0.5-6.2,0.1-9.1-1.1c-2.9-1.2-5.3-3.2-7-5.9
	c-1.7-2.5-2.6-5.6-2.6-8.6s1-6.1,2.6-8.6c1.7-2.5,4.2-4.6,7-5.9c2.9-1.2,6-1.6,9.1-1.1c3.1,0.5,5.9,1.9,8.1,4L215.2,94.9L215.2,94.9
	z M215.2,109.8c0-2.2-0.6-4.2-1.8-6c-1.2-1.8-2.9-3.1-4.9-4c-2-0.8-4.2-1.1-6.2-0.6c-2.2,0.4-4.1,1.4-5.5,3c-1.6,1.6-2.5,3.4-3,5.5
	c-0.4,2-0.2,4.2,0.6,6.2c0.8,1.9,2.3,3.6,4,4.8c1.8,1.2,3.8,1.8,6,1.8c2.9,0,5.6-1.1,7.7-3.1C214,115.5,215.1,112.7,215.2,109.8
	L215.2,109.8z M136.3,99.2c2,0,4.1,0.6,5.9,1.7c1.8,1.1,3.1,2.6,4.1,4.6h5.4c-1.1-3.6-3.5-6.7-6.7-8.7c-3.2-2-7.1-2.9-10.9-2.3
	c-3.8,0.6-7.3,2.4-9.8,5.3c-2.5,2.9-3.8,6.5-3.8,10.3s1.4,7.4,3.8,10.3c2.5,2.9,6,4.8,9.8,5.3c3.8,0.6,7.7-0.2,10.9-2.3
	c3.2-2,5.6-5.2,6.7-8.7h-5.5c-0.8,1.8-2.2,3.2-3.7,4.3c-1.6,1.1-3.5,1.7-5.4,1.8c-1.9,0.1-3.8-0.2-5.6-1.1c-1.8-0.8-3.2-2.2-4.3-3.8
	c-1.1-1.7-1.7-3.5-1.7-5.4c-0.1-1.9,0.4-3.8,1.3-5.5c1-1.7,2.3-3.1,4-4.1C132.3,99.6,134.2,99.2,136.3,99.2z M185.9,109.8
	c0,3.1-1,6.2-2.6,8.7c-1.8,2.6-4.2,4.7-7.2,5.9c-2.9,1.2-6.1,1.6-9.2,1c-3.1-0.6-6-2.2-8.1-4.3c-2.3-2.2-3.7-5-4.4-8
	c-0.6-3.1-0.2-6.2,1-9.1c1.2-2.9,3.2-5.4,5.9-7.1c2.6-1.7,5.8-2.6,8.9-2.6c2.2,0,4.2,0.4,6.1,1.2c1.9,0.8,3.7,1.9,5.2,3.5
	c1.4,1.4,2.6,3.2,3.5,5.2C185.5,105.8,185.9,107.9,185.9,109.8L185.9,109.8z M180.8,109.8c0-2.2-0.6-4.2-1.8-6
	c-1.2-1.8-2.9-3.1-4.9-4c-2-0.8-4.2-1.1-6.2-0.6c-2.2,0.4-4.1,1.4-5.5,3c-1.6,1.6-2.5,3.4-3,5.5c-0.4,2-0.2,4.2,0.6,6.2
	c0.8,1.9,2.3,3.6,4,4.8c1.8,1.2,3.8,1.8,6,1.8c2.9,0,5.6-1.1,7.7-3.1C179.6,115.5,180.7,112.7,180.8,109.8L180.8,109.8z M347.7,94.1
	c-3.2,0-6.5,1.1-9,3.1v-2.5h-5.2v30.2h5.2V108c0-2.4,1-4.6,2.6-6.2c1.7-1.7,4-2.6,6.4-2.6c2.4,0,4.7,1,6.4,2.6
	c1.7,1.7,2.6,4,2.6,6.2v17h5.2v-17c0-1.8-0.4-3.6-1.1-5.3c-0.7-1.7-1.8-3.2-3-4.6c-1.3-1.3-2.9-2.3-4.6-3
	C351.5,94.5,349.6,94.1,347.7,94.1z M323.4,94.9h5.2V125h-5.2v-3.6c-1.9,1.8-4.2,3-6.7,3.6c-2.5,0.7-5.2,0.7-7.7,0.1
	c-2.5-0.6-4.9-1.8-6.8-3.5c-1.9-1.7-3.5-3.8-4.4-6.2c-1-2.4-1.3-4.9-1-7.5c0.2-2.5,1.2-5,2.6-7.1c1.4-2.2,3.5-3.8,5.8-5
	c2.3-1.2,4.8-1.8,7.4-1.8c4.1,0,7.9,1.6,10.9,4.2v-3.4H323.4z M323.4,109.8c0-2.2-0.6-4.2-1.8-6c-1.2-1.8-2.9-3.1-4.9-4
	c-2-0.8-4.2-1.1-6.2-0.6c-2.2,0.4-4.1,1.4-5.5,3c-1.6,1.6-2.5,3.4-3,5.5c-0.5,2-0.2,4.2,0.6,6.2c0.8,1.9,2.3,3.6,4,4.8
	c1.8,1.2,3.8,1.8,6,1.8c1.4,0,2.9-0.2,4.2-0.8c1.3-0.5,2.5-1.3,3.6-2.3c1-1,1.8-2.2,2.4-3.5C323.2,112.7,323.4,111.4,323.4,109.8
	L323.4,109.8z M378.8,99.8v-5h-7.5v-8.1h-5.2V115c0,2.6,1.1,5.3,3,7.1c1.9,1.9,4.6,3,7.2,3h2.5v-5h-2.5c-1.3,0-2.6-0.5-3.6-1.4
	c-1-1-1.4-2.3-1.4-3.6V99.9L378.8,99.8z M260.7,83.9c-0.7,0-1.3,0.2-1.9,0.6c-0.6,0.4-1,0.8-1.2,1.6c-0.2,0.6-0.4,1.3-0.2,1.9
	c0.1,0.6,0.5,1.2,1,1.7c0.5,0.5,1.1,0.8,1.8,1c0.7,0.1,1.3,0,1.9-0.2s1.2-0.7,1.6-1.2c0.4-0.6,0.6-1.2,0.6-1.9
	c0-0.5-0.1-0.8-0.2-1.3c-0.1-0.4-0.5-0.7-0.7-1.1c-0.4-0.4-0.7-0.6-1.1-0.7C261.6,84.1,261.1,83.9,260.7,83.9z M294,94.9h-25.6v5
	h18.9L268.3,120v5h25.5v-5h-18.9l18.9-20.1L294,94.9z"/>
</svg>
