<?xml version="1.0" encoding="utf-8"?>
<!-- Generator: Adobe Illustrator 25.1.0, SVG Export Plug-In . SVG Version: 6.00 Build 0)  -->
<svg version="1.1" id="Layer_1" xmlns="http://www.w3.org/2000/svg" xmlns:xlink="http://www.w3.org/1999/xlink" x="0px" y="0px"
	 viewBox="0 0 427 214" style="enable-background:new 0 0 427 214;" xml:space="preserve">
<style type="text/css">
	.st0{fill-rule:evenodd;clip-rule:evenodd;fill:url(#SVGID_1_);}
	.st1{fill-rule:evenodd;clip-rule:evenodd;fill:url(#SVGID_2_);}
	.st2{fill-rule:evenodd;clip-rule:evenodd;fill:url(#SVGID_3_);}
	.st3{fill-rule:evenodd;clip-rule:evenodd;fill:url(#SVGID_4_);}
	.st4{fill:#00004A;}
	.st5{fill:#06C7CC;}
</style>
<desc>Created with Sketch.</desc>
<linearGradient id="SVGID_1_" gradientUnits="userSpaceOnUse" x1="66.6663" y1="108.9503" x2="102.6428" y2="108.9503" gradientTransform="matrix(1 0 0 -1 0 213.8898)">
	<stop  offset="0" style="stop-color:#3D54CE"/>
	<stop  offset="1" style="stop-color:#35CACF"/>
</linearGradient>
<path class="st0" d="M93,92.3H67.3L85,117.6l18.3-10.9L93,92.3z"/>
<linearGradient id="SVGID_2_" gradientUnits="userSpaceOnUse" x1="82.6916" y1="108.9503" x2="125.3142" y2="108.9503" gradientTransform="matrix(1 0 0 -1 0 213.8898)">
	<stop  offset="0" style="stop-color:#13457D"/>
	<stop  offset="1" style="stop-color:#279698"/>
</linearGradient>
<path class="st1" d="M127.5,92.3L85,117.6h25.3L127.5,92.3z"/>
<linearGradient id="SVGID_3_" gradientUnits="userSpaceOnUse" x1="67.1341" y1="134.3147" x2="103.1373" y2="134.3147" gradientTransform="matrix(1 0 0 -1 0 213.8898)">
	<stop  offset="0" style="stop-color:#090086"/>
	<stop  offset="1" style="stop-color:#2F96A9"/>
</linearGradient>
<path class="st2" d="M67.3,92.3H93l10.3-14.4L85,66.9L67.3,92.3z"/>
<linearGradient id="SVGID_4_" gradientUnits="userSpaceOnUse" x1="82.6916" y1="134.3147" x2="125.3142" y2="134.3147" gradientTransform="matrix(1 0 0 -1 0 213.8898)">
	<stop  offset="0" style="stop-color:#3B62CA"/>
	<stop  offset="1" style="stop-color:#93DFE3"/>
</linearGradient>
<path class="st3" d="M127.5,92.3L85,66.9h25.3L127.5,92.3z"/>
<path class="st4" d="M356.7,73.1c0,0.6-0.2,1.1-0.5,1.6c-0.3,0.5-0.8,0.8-1.3,1c-0.5,0.2-1.1,0.3-1.6,0.2c-0.5-0.1-1.1-0.4-1.5-0.8
	c-0.4-0.4-0.7-0.9-0.8-1.4c-0.1-0.5-0.1-1.1,0.2-1.6c0.2-0.5,0.6-0.9,1-1.3c0.5-0.3,1-0.5,1.6-0.5c0.8,0,1.5,0.3,2,0.8
	C356.4,71.7,356.7,72.4,356.7,73.1z M356.3,73.1c0-0.5-0.1-0.9-0.4-1.3c-0.3-0.4-0.7-0.7-1.1-0.9s-0.9-0.2-1.4-0.1
	c-0.5,0.1-0.9,0.3-1.3,0.7c-0.3,0.3-0.6,0.8-0.7,1.2c-0.1,0.5,0,1,0.1,1.4c0.2,0.4,0.5,0.8,0.9,1.1c0.4,0.3,0.9,0.4,1.4,0.4
	c0.7,0,1.3-0.3,1.7-0.7C356.1,74.4,356.3,73.7,356.3,73.1z M354.4,73.3l0.9,1.3h-0.7l-0.8-1.2h-0.4v1.2h-0.5v-3.1h1.2
	c0.1,0,0.3,0,0.4,0.1c0.1,0,0.2,0.1,0.3,0.2c0.1,0.1,0.2,0.2,0.2,0.3c0,0.1,0.1,0.2,0.1,0.4c0,0.2,0,0.4-0.1,0.5
	C354.7,73.2,354.6,73.3,354.4,73.3z M353.4,72.9h0.6c0.1,0,0.1,0,0.2,0c0.1,0,0.1-0.1,0.2-0.1c0,0,0.1-0.1,0.1-0.1
	c0-0.1,0-0.1,0-0.2c0-0.1,0-0.1,0-0.2c0-0.1-0.1-0.1-0.1-0.1c0,0-0.1-0.1-0.2-0.1c-0.1,0-0.1,0-0.2,0h-0.6V72.9z M250.5,79.4h4.2
	v25.2h-4.3L250.5,79.4z M234.9,78.8c-2.7,0-5.4,0.9-7.5,2.6v-2.1h-4.3v25.2h4.3V90.4c0-2,0.8-3.8,2.2-5.2c1.4-1.4,3.3-2.2,5.3-2.2
	s3.9,0.8,5.3,2.2c1.4,1.4,2.2,3.3,2.2,5.2v14.2h4.3V90.4c0-1.5-0.3-3-0.9-4.4c-0.6-1.4-1.5-2.7-2.5-3.8s-2.4-1.9-3.8-2.5
	C237.9,79.1,236.4,78.8,234.9,78.8z M214.7,79.4h4.3v24.3c-0.1,3.5-1.5,6.8-4,9.2s-5.8,3.9-9.3,3.9c-2.8,0.1-5.6-0.8-7.9-2.4
	c-2.3-1.7-4-4-4.8-6.7h4.6c0.7,1.5,1.9,2.8,3.3,3.7c1.4,0.9,3.1,1.3,4.8,1.3c2.4-0.1,4.6-1,6.3-2.7c1.7-1.7,2.7-3.9,2.7-6.2v-2
	c-1.9,1.7-4.3,2.9-6.8,3.3s-5.2,0.1-7.6-0.9c-2.4-1-4.4-2.7-5.8-4.9c-1.4-2.1-2.2-4.7-2.2-7.2s0.8-5.1,2.2-7.2
	c1.4-2.1,3.5-3.8,5.8-4.9c2.4-1,5-1.3,7.6-0.9c2.6,0.4,4.9,1.6,6.8,3.3V79.4z M214.7,91.9c0-1.8-0.5-3.5-1.5-5
	c-1-1.5-2.4-2.6-4.1-3.3c-1.7-0.7-3.5-0.9-5.2-0.5c-1.8,0.3-3.4,1.2-4.6,2.5c-1.3,1.3-2.1,2.8-2.5,4.6c-0.3,1.7-0.2,3.5,0.5,5.2
	c0.7,1.6,1.9,3,3.3,4c1.5,1,3.2,1.5,5,1.5c2.4,0,4.7-0.9,6.4-2.6C213.7,96.6,214.6,94.3,214.7,91.9L214.7,91.9z M148.8,83
	c1.7,0,3.4,0.5,4.9,1.4c1.5,0.9,2.6,2.2,3.4,3.8h4.5c-0.9-3-2.9-5.6-5.6-7.3c-2.7-1.7-5.9-2.4-9.1-1.9c-3.2,0.5-6.1,2-8.2,4.4
	c-2.1,2.4-3.2,5.4-3.2,8.6s1.2,6.2,3.2,8.6c2.1,2.4,5,4,8.2,4.4c3.2,0.5,6.4-0.2,9.1-1.9c2.7-1.7,4.7-4.3,5.6-7.3H157
	c-0.7,1.5-1.8,2.7-3.1,3.6c-1.3,0.9-2.9,1.4-4.5,1.5c-1.6,0.1-3.2-0.2-4.7-0.9c-1.5-0.7-2.7-1.8-3.6-3.2c-0.9-1.4-1.4-2.9-1.4-4.5
	c-0.1-1.6,0.3-3.2,1.1-4.6c0.8-1.4,1.9-2.6,3.3-3.4C145.5,83.4,147.1,83,148.8,83z M190.2,91.9c0,2.6-0.8,5.2-2.2,7.3
	c-1.5,2.2-3.5,3.9-6,4.9c-2.4,1-5.1,1.3-7.7,0.8c-2.6-0.5-5-1.8-6.8-3.6c-1.9-1.8-3.1-4.2-3.7-6.7c-0.5-2.6-0.2-5.2,0.8-7.6
	c1-2.4,2.7-4.5,4.9-5.9c2.2-1.4,4.8-2.2,7.4-2.2c1.8,0,3.5,0.3,5.1,1c1.6,0.7,3.1,1.6,4.3,2.9c1.2,1.2,2.2,2.7,2.9,4.3
	C189.9,88.5,190.2,90.3,190.2,91.9L190.2,91.9z M186,91.9c0-1.8-0.5-3.5-1.5-5c-1-1.5-2.4-2.6-4.1-3.3c-1.7-0.7-3.5-0.9-5.2-0.5
	c-1.8,0.3-3.4,1.2-4.6,2.5c-1.3,1.3-2.1,2.8-2.5,4.6c-0.3,1.7-0.2,3.5,0.5,5.2c0.7,1.6,1.9,3,3.3,4c1.5,1,3.2,1.5,5,1.5
	c2.4,0,4.7-0.9,6.4-2.6C185,96.6,185.9,94.3,186,91.9L186,91.9z M325.2,78.8c-2.7,0-5.4,0.9-7.5,2.6v-2.1h-4.3v25.2h4.3V90.4
	c0-2,0.8-3.8,2.2-5.2c1.4-1.4,3.3-2.2,5.3-2.2s3.9,0.8,5.3,2.2c1.4,1.4,2.2,3.3,2.2,5.2v14.2h4.3V90.4c0-1.5-0.3-3-0.9-4.4
	s-1.5-2.7-2.5-3.8c-1.1-1.1-2.4-1.9-3.8-2.5S326.8,78.8,325.2,78.8z M305,79.4h4.3v25.2H305v-3c-1.6,1.5-3.5,2.5-5.6,3
	c-2.1,0.6-4.3,0.6-6.4,0.1s-4.1-1.5-5.7-2.9c-1.6-1.4-2.9-3.2-3.7-5.2c-0.8-2-1.1-4.1-0.8-6.3c0.2-2.1,1-4.2,2.2-5.9
	c1.2-1.8,2.9-3.2,4.8-4.2c1.9-1,4-1.5,6.2-1.5c3.4,0,6.6,1.3,9.1,3.5V79.4z M305,91.9c0-1.8-0.5-3.5-1.5-5c-1-1.5-2.4-2.6-4.1-3.3
	c-1.7-0.7-3.5-0.9-5.2-0.5c-1.8,0.3-3.4,1.2-4.6,2.5c-1.3,1.3-2.1,2.8-2.5,4.6c-0.4,1.7-0.2,3.5,0.5,5.2c0.7,1.6,1.9,3,3.3,4
	c1.5,1,3.2,1.5,5,1.5c1.2,0,2.4-0.2,3.5-0.7c1.1-0.4,2.1-1.1,3-1.9c0.8-0.8,1.5-1.8,2-2.9C304.8,94.3,305,93.2,305,91.9L305,91.9z
	 M351.2,83.5v-4.2h-6.3v-6.8h-4.3v23.7c0,2.2,0.9,4.4,2.5,5.9c1.6,1.6,3.8,2.5,6,2.5h2.1v-4.2h-2.1c-1.1,0-2.2-0.4-3-1.2
	c-0.8-0.8-1.2-1.9-1.2-3V83.6L351.2,83.5z M252.6,70.3c-0.6,0-1.1,0.2-1.6,0.5c-0.5,0.3-0.8,0.7-1,1.3c-0.2,0.5-0.3,1.1-0.2,1.6
	c0.1,0.5,0.4,1,0.8,1.4c0.4,0.4,0.9,0.7,1.5,0.8c0.6,0.1,1.1,0,1.6-0.2c0.5-0.2,1-0.6,1.3-1c0.3-0.5,0.5-1,0.5-1.6
	c0-0.4-0.1-0.7-0.2-1.1c-0.1-0.3-0.4-0.6-0.6-0.9c-0.3-0.3-0.6-0.5-0.9-0.6C253.4,70.4,253,70.3,252.6,70.3z M280.4,79.4H259v4.2
	h15.8L259,100.4v4.2h21.3v-4.2h-15.8l15.8-16.8L280.4,79.4z"/>
<path class="st5" d="M343.7,123.9c-1.7,0-3.4,0.6-4.7,1.7v-1.3h-2.7v16h2.7v-9c0-1.2,0.5-2.4,1.4-3.3c0.9-0.9,2.1-1.4,3.3-1.4
	c1.2,0,2.4,0.5,3.3,1.4c0.9,0.9,1.4,2.1,1.4,3.3v9h2.7v-9c0-1.9-0.8-3.8-2.2-5.2C347.5,124.7,345.6,123.9,343.7,123.9z"/>
<path class="st5" d="M233.5,132c-0.6-0.3-1.3-0.6-1.9-0.7c-0.7-0.2-1.4-0.3-2.1-0.5c-0.6-0.1-1.3-0.3-1.9-0.4
	c-0.5-0.1-1-0.4-1.3-0.8c-0.2-0.2-0.3-0.5-0.4-0.7s-0.1-0.5-0.1-0.8c0-0.3,0.1-0.5,0.3-0.8c0.1-0.2,0.3-0.4,0.6-0.6
	c0.6-0.4,1.4-0.6,2.3-0.6c0.9,0,1.7,0.2,2.4,0.7c0.3,0.2,0.6,0.5,0.8,0.8c0.2,0.3,0.3,0.7,0.4,1l0,0.1h2.7l0-0.1
	c-0.1-0.7-0.3-1.3-0.7-1.9c-0.4-0.6-0.8-1.1-1.4-1.5c-1.2-0.9-2.7-1.3-4.2-1.3c-1.7,0-3.2,0.4-4.2,1.3c-0.5,0.4-0.9,0.9-1.2,1.5
	c-0.3,0.6-0.4,1.2-0.4,1.9c0,0.7,0.1,1.4,0.4,2c0.3,0.5,0.7,1,1.1,1.3c0.5,0.3,1,0.6,1.6,0.7c0.6,0.2,1.2,0.4,1.8,0.5
	c0.6,0.1,1.2,0.2,1.8,0.4c0.5,0.1,1,0.3,1.5,0.5c0.4,0.2,0.8,0.4,1.1,0.8c0.3,0.4,0.4,0.8,0.4,1.3c0,0.4-0.1,0.7-0.3,1.1
	c-0.2,0.3-0.4,0.6-0.7,0.8c-0.7,0.5-1.6,0.7-2.6,0.7c-1,0-1.9-0.2-2.7-0.8c-0.3-0.2-0.6-0.6-0.9-0.9c-0.2-0.4-0.3-0.8-0.4-1.2v-0.1
	h-2.5l0,0.1c0.1,0.7,0.3,1.5,0.6,2.1c0.4,0.7,0.8,1.2,1.4,1.7c1.2,0.9,2.7,1.4,4.5,1.4c1.7,0,3.2-0.5,4.3-1.4c0.5-0.4,1-1,1.3-1.6
	c0.3-0.6,0.5-1.3,0.4-2c0-0.8-0.2-1.6-0.6-2.3C234.6,132.8,234.1,132.3,233.5,132z"/>
<path class="st5" d="M244.8,123.9c-1.1,0-2.2,0.2-3.2,0.6c-1,0.4-1.9,1-2.7,1.8c-1.6,1.6-2.4,3.6-2.4,5.9s0.8,4.3,2.4,5.9
	c1.6,1.5,3.7,2.4,5.9,2.4c2.2,0,4.3-0.9,5.9-2.4c1.6-1.6,2.4-3.6,2.4-5.9c0-2.4-0.8-4.3-2.4-5.9c-0.8-0.8-1.7-1.4-2.7-1.8
	C247,124.1,245.9,123.9,244.8,123.9z M249.1,136.5c-0.6,0.6-1.2,1-1.9,1.3c-0.7,0.3-1.5,0.5-2.3,0.5s-1.6-0.2-2.3-0.5
	s-1.4-0.7-1.9-1.3c-1.1-1.2-1.7-2.7-1.7-4.3c0-1.6,0.6-3.1,1.7-4.3c1.1-1.1,2.6-1.7,4.2-1.7c1.6,0,3.1,0.6,4.2,1.7
	c1.1,1.2,1.7,2.7,1.7,4.3C250.8,133.8,250.2,135.4,249.1,136.5L249.1,136.5z"/>
<path class="st5" d="M261.9,116.7c-1.7,0-3,0.5-4,1.4s-1.4,2.4-1.4,4.2v1.8h-3.2v2.5h3.2v13.8h2.6v-13.8h4.5v-2.5H259v-1.8
	c0-2.1,1.1-3.2,3.3-3.2c0.4,0,0.8,0,1.1,0.1l0.1,0v-2.4l-0.1,0C262.9,116.7,262.4,116.7,261.9,116.7z"/>
<path class="st5" d="M267.8,119.8h-2.4v15.1c0,1.8,0.5,3.2,1.4,4.1s2.3,1.4,3.9,1.4c0.5,0,1-0.1,1.6-0.2V138
	c-0.4,0.1-0.7,0.1-1.1,0.1c-2.2,0-3.4-1.1-3.4-3.3v-8.4h4.5v-2.2h-4.5V119.8z"/>
<path class="st5" d="M281.7,136.9l-5.2-12.7h-2.8l6.9,16.1h2.2l6.8-16.1h-2.9L281.7,136.9z"/>
<path class="st5" d="M307.9,132c-0.6-0.3-1.3-0.6-1.9-0.7c-0.7-0.2-1.4-0.3-2.1-0.5c-0.6-0.1-1.3-0.3-1.9-0.4
	c-0.5-0.1-1-0.4-1.3-0.8c-0.2-0.2-0.3-0.4-0.4-0.7c-0.1-0.3-0.1-0.5-0.1-0.8c0-0.3,0.1-0.5,0.3-0.8c0.1-0.2,0.3-0.4,0.6-0.6
	c0.6-0.4,1.4-0.6,2.3-0.6c0.9,0,1.7,0.2,2.4,0.7c0.3,0.2,0.6,0.5,0.8,0.8c0.2,0.3,0.3,0.7,0.4,1l0,0.1h2.7l0-0.1
	c-0.1-0.7-0.3-1.3-0.7-1.9c-0.4-0.6-0.8-1.1-1.4-1.5c-1.2-0.9-2.7-1.3-4.1-1.3c-1.7,0-3.2,0.4-4.2,1.3c-0.5,0.4-0.9,0.9-1.2,1.5
	c-0.3,0.6-0.4,1.2-0.4,1.9c0,0.7,0.1,1.4,0.4,2c0.3,0.5,0.7,1,1.1,1.3c0.5,0.3,1,0.6,1.6,0.7c0.6,0.2,1.2,0.4,1.8,0.5
	c0.6,0.1,1.2,0.2,1.8,0.4c0.5,0.1,1,0.3,1.5,0.5c0.4,0.2,0.8,0.4,1.1,0.8c0.3,0.4,0.4,0.8,0.4,1.3c0,0.4-0.1,0.7-0.3,1.1
	c-0.2,0.3-0.4,0.6-0.7,0.8c-0.7,0.5-1.6,0.7-2.6,0.7c-1,0-1.9-0.2-2.7-0.8c-0.3-0.2-0.6-0.6-0.9-0.9c-0.2-0.4-0.3-0.8-0.4-1.2v-0.1
	h-2.5l0,0.1c0.1,0.7,0.3,1.5,0.6,2.1c0.4,0.7,0.8,1.2,1.4,1.7c1.2,0.9,2.7,1.4,4.5,1.4c1.7,0,3.2-0.5,4.3-1.4c0.5-0.4,1-1,1.3-1.6
	c0.3-0.6,0.5-1.3,0.4-2c0-0.8-0.2-1.6-0.6-2.3C309,132.8,308.5,132.3,307.9,132z"/>
<path class="st5" d="M326.1,123.9c-1.1,0-2.2,0.2-3.2,0.6c-1,0.4-1.9,1-2.7,1.8c-1.6,1.6-2.4,3.6-2.4,5.9c0,2.4,0.8,4.3,2.4,5.9
	c1.6,1.5,3.7,2.4,5.9,2.4c2.2,0,4.3-0.9,5.9-2.4c1.2-1.2,2-2.7,2.3-4.3c0.3-1.6,0.2-3.3-0.5-4.8c-0.6-1.5-1.7-2.8-3.1-3.8
	C329.4,124.4,327.8,123.9,326.1,123.9L326.1,123.9z M330.4,136.5c-0.6,0.6-1.2,1-1.9,1.3c-0.7,0.3-1.5,0.5-2.3,0.5
	c-0.8,0-1.6-0.2-2.3-0.5c-0.7-0.3-1.4-0.7-1.9-1.3c-1.1-1.2-1.7-2.7-1.7-4.3c0-1.6,0.6-3.1,1.7-4.3c1.1-1.1,2.6-1.7,4.2-1.7
	c1.6,0,3.1,0.6,4.2,1.7c1.1,1.2,1.7,2.7,1.7,4.3C332.1,133.8,331.5,135.4,330.4,136.5L330.4,136.5z"/>
<path class="st5" d="M292,140.3h2.7v-16h-2.6L292,140.3z"/>
<path class="st5" d="M293.4,118.5c-0.4,0-0.7,0.1-1,0.3c-0.3,0.2-0.5,0.5-0.7,0.8c-0.1,0.3-0.2,0.7-0.1,1c0.1,0.3,0.2,0.7,0.5,0.9
	c0.2,0.2,0.6,0.4,0.9,0.5c0.3,0.1,0.7,0,1-0.1c0.3-0.1,0.6-0.4,0.8-0.7c0.2-0.3,0.3-0.6,0.3-1c0-0.5-0.2-0.9-0.5-1.3
	C294.3,118.7,293.9,118.5,293.4,118.5z"/>
<path class="st5" d="M312.7,140.3h2.7v-16h-2.6L312.7,140.3z"/>
<path class="st5" d="M314.1,118.5c-0.4,0-0.7,0.1-1,0.3c-0.3,0.2-0.5,0.5-0.7,0.8c-0.1,0.3-0.2,0.7-0.1,1c0.1,0.3,0.2,0.7,0.5,0.9
	c0.2,0.2,0.6,0.4,0.9,0.5c0.3,0.1,0.7,0,1-0.1c0.3-0.1,0.6-0.4,0.8-0.7c0.2-0.3,0.3-0.6,0.3-1c0-0.2,0-0.5-0.1-0.7
	c-0.1-0.2-0.2-0.4-0.4-0.6s-0.4-0.3-0.6-0.4C314.6,118.5,314.3,118.5,314.1,118.5z"/>
</svg>
