<?xml version="1.0" encoding="utf-8"?>
<!-- Generator: Adobe Illustrator 25.1.0, SVG Export Plug-In . SVG Version: 6.00 Build 0)  -->
<svg version="1.1" id="Layer_1" xmlns="http://www.w3.org/2000/svg" xmlns:xlink="http://www.w3.org/1999/xlink" x="0px" y="0px"
	 viewBox="0 0 280 280" style="enable-background:new 0 0 280 280;" xml:space="preserve">
<style type="text/css">
	.st0{fill:#5C4AE6;}
	.st1{fill:#1E3C52;}
	.st2{opacity:0.5;}
	.st3{fill:#FFFFFF;}
</style>
<path class="st0" d="M93.3,120.4H81.5c-6.4,0-11.6,5.2-11.6,11.6c0,6.4,5.2,11.6,11.6,11.6h0.2v0.2c0,6.4,5.2,11.6,11.6,11.6
	c6.4,0,11.6-5.2,11.6-11.6l0,0V132C104.9,125.6,99.7,120.4,93.3,120.4C93.3,120.4,93.3,120.4,93.3,120.4L93.3,120.4z M102.3,132
	c0,5-4,9-9,9h-9v-9c0.2-5,4.3-8.9,9.3-8.7C98.4,123.4,102.2,127.2,102.3,132L102.3,132z M81.5,141c-5,0.2-9.1-3.7-9.3-8.7
	c-0.2-5,3.7-9.1,8.7-9.3c0.2,0,0.4,0,0.6,0h4.5c-2.7,2.2-4.3,5.5-4.3,9v9L81.5,141L81.5,141z M93.3,152.8c-5,0-9-4-9-9v-0.2h9
	c3.5,0,6.8-1.6,9-4.3v4.5C102.3,148.8,98.3,152.8,93.3,152.8z"/>
<path class="st1" d="M169,132.1c-0.2-0.2-0.4-0.5-0.3-0.8v-8.8h3.1v-2.1h-3.1v-4.7l-2.4,0.6v4h-2.6v2.1h2.6v8.6
	c-0.1,0.9,0.3,1.8,0.9,2.5c0.6,0.6,1.4,0.9,2.3,0.8h2.3v-2.1h-2C169.5,132.3,169.2,132.2,169,132.1L169,132.1z"/>
<g class="st2">
	<path class="st3" d="M168.7,115.6v4.7h3.1v2.1h-3.1v8.8c0,0.3,0.1,0.6,0.3,0.8c0.2,0.2,0.5,0.3,0.8,0.3h2v2h-2.4
		c-0.8,0-1.6-0.3-2.2-0.8c-0.7-0.7-1-1.6-0.9-2.5v-8.6h-2.6v-2.1h2.6v-4L168.7,115.6 M168.7,115.4L168.7,115.4l-2.4,0.6
		c-0.1,0-0.2,0.1-0.2,0.2v3.8h-2.4c-0.1,0-0.2,0.1-0.2,0.2v2.1c0,0.1,0.1,0.2,0.2,0.2h2.4v8.4c-0.1,1,0.3,1.9,1,2.6
		c0.6,0.6,1.5,0.9,2.4,0.9h2.4c0.1,0,0.2-0.1,0.2-0.2v-2c0-0.1-0.1-0.2-0.2-0.2h-2c-0.3,0-0.5-0.1-0.7-0.2c-0.2-0.2-0.3-0.4-0.3-0.6
		v-8.6h2.9c0.1,0,0.2-0.1,0.2-0.2v-2.1c0-0.1-0.1-0.2-0.2-0.2h-2.9v-4.4c0-0.1,0-0.1-0.1-0.2C168.8,115.4,168.7,115.4,168.7,115.4
		L168.7,115.4L168.7,115.4z"/>
</g>
<path class="st1" d="M159.1,131.6c-0.7,0.5-1.5,0.7-2.3,0.8c-0.8,0-1.6-0.2-2.3-0.6c-0.7-0.4-1.3-1-1.8-1.8l0,0
	c-0.5-0.9-0.7-1.9-0.7-2.8c0-0.9,0.2-1.8,0.6-2.6c0.4-0.7,1-1.3,1.7-1.8c0.7-0.4,1.5-0.6,2.3-0.6c0.8,0,1.7,0.2,2.4,0.7
	c0.7,0.5,1.3,1.2,1.5,2h2.3c-0.2-0.9-0.6-1.8-1.2-2.5c-0.6-0.7-1.3-1.3-2.2-1.7c-0.8-0.4-1.7-0.6-2.6-0.6c-1.2,0-2.5,0.3-3.6,0.8
	c-1.1,0.6-2,1.4-2.7,2.5c-1.3,2.5-1.3,5.5-0.1,8.1c0.6,1.1,1.4,1.9,2.5,2.5c1.1,0.6,2.3,0.9,3.5,0.8c1.1,0,2.2-0.2,3.1-0.7
	c0.9-0.5,1.6-1.2,2.2-2c0.5-0.7,0.8-1.5,1-2.4h-2.3C160.4,130.4,159.8,131.2,159.1,131.6L159.1,131.6z"/>
<g class="st2">
	<path class="st3" d="M156.8,119.9L156.8,119.9c1,0,1.8,0.2,2.6,0.6c0.8,0.4,1.6,1,2.2,1.7c0.6,0.7,1,1.6,1.2,2.5h-2.3
		c-0.3-0.8-0.8-1.5-1.5-2c-0.7-0.4-1.5-0.7-2.3-0.7h-0.1c-0.8,0-1.6,0.2-2.3,0.6c-0.7,0.4-1.3,1.1-1.7,1.8c-0.4,0.8-0.7,1.7-0.7,2.6
		c0,1,0.2,2,0.7,2.8l0,0c0.4,0.8,1,1.4,1.8,1.8c0.7,0.4,1.5,0.6,2.3,0.6c0.8,0,1.7-0.3,2.3-0.8c0.7-0.5,1.3-1.2,1.5-2h2.3
		c-0.1,0.9-0.5,1.7-1,2.4c-0.5,0.8-1.3,1.4-2.1,1.9c-0.9,0.5-1.9,0.7-3,0.7h-0.2c-1.2,0-2.4-0.3-3.4-0.8c-1.1-0.6-1.9-1.4-2.5-2.5
		c-1.3-2.5-1.3-5.6,0.1-8.1c0.6-1.1,1.5-2,2.7-2.5c1.1-0.5,2.3-0.8,3.5-0.8 M156.8,119.6c-1.3,0-2.5,0.3-3.6,0.8
		c-1.1,0.6-2.1,1.4-2.7,2.5c-1.4,2.6-1.4,5.7-0.1,8.3c0.6,1.1,1.5,2,2.6,2.6c1.1,0.6,2.3,0.8,3.5,0.8h0.2c1.1,0,2.1-0.3,3.1-0.8
		c0.9-0.5,1.6-1.1,2.2-1.9c0.5-0.8,0.9-1.6,1-2.5c0-0.1,0-0.1-0.1-0.2c0,0-0.1-0.1-0.2-0.1h-2.3c-0.1,0-0.2,0.1-0.2,0.1
		c-0.2,0.8-0.7,1.5-1.4,1.9c-0.6,0.5-1.4,0.7-2.2,0.7c-0.8,0-1.5-0.2-2.2-0.6c-0.7-0.4-1.3-1-1.7-1.7l0,0c-0.5-0.8-0.7-1.8-0.7-2.7
		c0-0.9,0.2-1.7,0.6-2.5c0.4-0.7,1-1.3,1.7-1.7c0.7-0.4,1.4-0.6,2.2-0.6h0.1c0.8,0,1.5,0.2,2.2,0.6c0.7,0.4,1.2,1.1,1.4,1.9
		c0,0.1,0.1,0.1,0.2,0.1h2.3c0.1,0,0.1,0,0.2-0.1c0,0,0.1-0.1,0-0.2c-0.2-1-0.6-1.8-1.3-2.6c-0.6-0.7-1.4-1.3-2.3-1.6
		C158.7,119.9,157.8,119.7,156.8,119.6L156.8,119.6L156.8,119.6z"/>
</g>
<path class="st1" d="M195.1,120.5c-0.8,0.4-1.5,1-1.9,1.8v-2.1h-2.2v14.1h2.3v-7.9c0-0.8,0.2-1.6,0.6-2.2c0.3-0.6,0.9-1.2,1.5-1.5
	s1.4-0.6,2.1-0.6h1.7l0.1-2.2h-1.5C196.9,120,196,120.1,195.1,120.5L195.1,120.5z"/>
<g class="st2">
	<path class="st3" d="M197.7,120h1.5l-0.1,2.2h-1.7c-0.7,0-1.5,0.2-2.1,0.6s-1.2,0.9-1.5,1.5c-0.4,0.7-0.6,1.5-0.6,2.2v7.9h-2.3
		v-14.1h2.2v2.1c0.4-0.8,1.1-1.4,1.9-1.8C195.9,120.2,196.8,120,197.7,120 M197.7,119.8c-0.9,0-1.8,0.2-2.7,0.6
		c-0.6,0.3-1.2,0.7-1.6,1.2v-1.3c0-0.1-0.1-0.2-0.1-0.2c0,0-0.1,0-0.1,0c0,0-0.1,0-0.1,0H191c-0.1,0-0.2,0.1-0.2,0.2v14
		c0,0.1,0.1,0.2,0.2,0.2h2.3c0.1,0,0.2-0.1,0.2-0.2v-7.9c0-0.8,0.2-1.5,0.5-2.1c0.3-0.6,0.8-1.1,1.4-1.5c0.6-0.3,1.3-0.5,2-0.5h1.7
		c0.1,0,0.2-0.1,0.2-0.2l0.1-2.2c0-0.1,0-0.1-0.1-0.1c0,0-0.1-0.1-0.1-0.1L197.7,119.8L197.7,119.8L197.7,119.8z"/>
</g>
<path class="st1" d="M128.8,114l0.1,8.6c-1.1-1.7-3.1-2.7-5.1-2.7c-1.3,0-2.6,0.3-3.8,0.9c-1.1,0.6-2,1.5-2.6,2.6
	c-0.6,1.2-1,2.5-0.9,3.8c0,1.3,0.3,2.6,0.9,3.8c0.6,1.1,1.5,2,2.6,2.6c1.2,0.6,2.5,0.9,3.8,0.9c1.3,0,2.6-0.3,3.8-0.9
	c1.1-0.6,2-1.5,2.7-2.6c0.7-1.1,1-2.5,1-3.8l-0.1-13.3L128.8,114L128.8,114z M129,127.2c0,0.9-0.3,1.9-0.7,2.7
	c-0.4,0.8-1.1,1.4-1.9,1.8c-0.8,0.4-1.7,0.7-2.6,0.7c-0.9,0-1.7-0.2-2.5-0.7c-0.8-0.4-1.4-1.1-1.8-1.8c-0.4-0.8-0.7-1.7-0.6-2.6
	c0-1,0.2-1.9,0.6-2.7c0.4-0.8,1-1.4,1.8-1.8c0.8-0.4,1.7-0.7,2.6-0.6c1.4-0.1,2.7,0.4,3.7,1.4C128.5,124.5,129.1,125.8,129,127.2
	C129,127.2,129,127.2,129,127.2z"/>
<g class="st2">
	<path class="st3" d="M131.2,114l0.1,13.3c0,1.3-0.3,2.6-1,3.8c-0.6,1.1-1.6,2-2.7,2.6c-1.1,0.6-2.4,0.9-3.7,0.9h-0.2
		c-1.3,0-2.5-0.3-3.7-0.9c-1.1-0.6-2-1.5-2.6-2.6c-0.6-1.2-1-2.5-0.9-3.8c0-1.3,0.3-2.7,0.9-3.8c0.6-1.1,1.5-2,2.6-2.6
		c1.1-0.6,2.4-0.9,3.6-0.9h0.2c2,0,3.9,1,5,2.7l-0.1-8.6L131.2,114 M123.7,132.4h0.1c0.9,0,1.7-0.2,2.5-0.7s1.4-1.1,1.9-1.8
		c0.5-0.8,0.7-1.7,0.7-2.6v-0.1c0.1-1.4-0.4-2.7-1.3-3.7c-1-1-2.3-1.5-3.7-1.4h-0.1c-0.9,0-1.7,0.2-2.5,0.6
		c-0.8,0.4-1.4,1.1-1.8,1.8c-0.4,0.8-0.7,1.8-0.6,2.7c0,0.9,0.2,1.8,0.6,2.6c0.4,0.8,1,1.4,1.8,1.8
		C122,132.2,122.9,132.4,123.7,132.4 M131.2,113.8h-2.3c-0.1,0-0.1,0-0.1,0.1c0,0-0.1,0.1-0.1,0.1l0,8c-1.2-1.4-2.9-2.3-4.8-2.3
		h-0.2c-1.3,0-2.6,0.3-3.8,1c-1.1,0.6-2.1,1.6-2.7,2.7c-0.7,1.2-1,2.6-1,3.9c0,1.4,0.3,2.7,1,3.9c0.6,1.1,1.6,2,2.7,2.7
		c1.1,0.6,2.4,1,3.8,1h0.2c1.3,0,2.6-0.3,3.8-1c1.1-0.6,2.1-1.5,2.8-2.7c0.7-1.2,1-2.5,1-3.9l-0.1-13.3
		C131.4,113.9,131.3,113.8,131.2,113.8L131.2,113.8L131.2,113.8z M123.8,132.2c-0.8,0-1.7-0.2-2.4-0.6c-0.7-0.4-1.3-1-1.7-1.7
		c-0.4-0.8-0.6-1.6-0.6-2.5c0-0.9,0.2-1.8,0.6-2.6c0.4-0.7,1-1.3,1.7-1.7c0.7-0.4,1.6-0.6,2.4-0.6h0.1c1.3-0.1,2.6,0.4,3.6,1.3
		c0.9,1,1.4,2.2,1.4,3.6v0.1c0,0.9-0.2,1.7-0.7,2.5c-0.4,0.7-1,1.3-1.8,1.7c-0.7,0.4-1.6,0.6-2.4,0.6L123.8,132.2L123.8,132.2z"/>
</g>
<path class="st1" d="M169.8,149.2c0,2.5-1.9,3.8-4,3.9c-2.1,0-3.8-1.3-3.8-4v-8.1h-2.3v8.1c0,4.2,3.1,6.2,5.9,6.2
	c1.8,0.1,3.6-0.8,4.5-2.3v2.1h2.2v-14.1h-2.4V149.2L169.8,149.2z"/>
<g class="st2">
	<path class="st3" d="M172.2,140.9V155H170v-2.1c-0.9,1.6-2.7,2.5-4.5,2.3c-2.8,0-5.9-2-5.9-6.2v-8.1h2.3v8.1c0,2.7,1.7,4,3.8,4
		c2.2,0,4-1.3,4-3.9v-8.3L172.2,140.9 M172.1,140.7h-2.3c-0.1,0-0.2,0.1-0.2,0.2v8.3c0,2.7-2,3.6-3.8,3.6c-1.7,0-3.6-1-3.6-3.8v-8.1
		c0-0.1-0.1-0.2-0.2-0.2h-2.3c-0.1,0-0.2,0.1-0.2,0.2v8.1c0,4.2,3,6.4,6,6.4c1.6,0.1,3.2-0.6,4.3-1.8v1.4c0,0.1,0.1,0.2,0.2,0.2h2.2
		c0.1,0,0.2-0.1,0.2-0.2v-14.1C172.4,140.8,172.3,140.7,172.1,140.7L172.1,140.7L172.1,140.7z"/>
</g>
<path class="st1" d="M140.9,140.6c-1.8-0.1-3.6,0.8-4.5,2.3v-2h-2.2V155h2.3v-7.9c-0.1-2.3,1.7-4.3,4-4.3c0,0,0.1,0,0.1,0h1.7v-2.2
	L140.9,140.6L140.9,140.6z"/>
<g class="st2">
	<path class="st3" d="M142.3,140.6v2.2h-1.7c-2.3,0-4.2,1.9-4.1,4.2c0,0,0,0.1,0,0.1v7.9h-2.3v-14.1h2.2v2c1-1.6,2.7-2.5,4.5-2.3
		H142.3 M142.3,140.4h-1.4c-1.7-0.1-3.2,0.6-4.3,1.8v-1.3c0-0.1-0.1-0.2-0.2-0.2h-2.2c-0.1,0-0.2,0.1-0.2,0.2V155
		c0,0.1,0.1,0.2,0.2,0.2h2.3c0.1,0,0.2-0.1,0.2-0.2v-7.9c-0.1-2.2,1.5-4.1,3.7-4.2c0.1,0,0.1,0,0.2,0h1.7c0.1,0,0.2-0.1,0.2-0.2
		v-2.1C142.5,140.5,142.4,140.4,142.3,140.4L142.3,140.4L142.3,140.4z"/>
</g>
<rect x="201.4" y="120.3" class="st1" width="2.3" height="14.1"/>
<g class="st2">
	<path class="st3" d="M203.7,120.3v14.1h-2.3v-14.1H203.7 M203.7,120.1h-2.4c-0.1,0-0.2,0.1-0.2,0.2v14.1c0,0.1,0.1,0.2,0.2,0.2h2.4
		c0.1,0,0.2-0.1,0.2-0.2v-14.1C203.9,120.2,203.9,120.1,203.7,120.1z"/>
</g>
<polygon class="st1" points="201.2,117.6 203.9,117.6 203.9,114.7 201.2,114.7 "/>
<g class="st2">
	<path class="st3" d="M203.9,114.7v2.9h-2.6v-2.9H203.9 M203.9,114.5h-2.7c-0.1,0-0.2,0.1-0.2,0.2v0v2.9c0,0.1,0.1,0.2,0.2,0.2h2.6
		c0.1,0,0.2-0.1,0.2-0.2v-2.9C204.1,114.6,204,114.5,203.9,114.5L203.9,114.5L203.9,114.5z"/>
</g>
<path class="st1" d="M146.9,123.5c-0.6-1.1-1.5-2-2.6-2.6c-1.2-0.6-2.5-1-3.8-0.9c-1.3,0-2.6,0.3-3.8,0.9c-1.1,0.6-2,1.5-2.6,2.6
	c-0.6,1.2-1,2.5-0.9,3.8c0,1.3,0.3,2.6,0.9,3.8c0.6,1.1,1.5,2,2.7,2.6c2.4,1.2,5.2,1.2,7.5,0c1.1-0.6,2-1.5,2.6-2.6
	c0.6-1.1,1-2.5,1-3.8C147.9,126,147.6,124.6,146.9,123.5L146.9,123.5z M144.9,129.9c-0.4,0.8-1,1.4-1.8,1.8
	c-0.8,0.4-1.7,0.7-2.6,0.7c-0.9,0-1.8-0.2-2.6-0.7c-0.7-0.4-1.4-1.1-1.8-1.8c-0.4-0.8-0.7-1.7-0.6-2.6c0-1,0.2-1.9,0.6-2.7
	c0.4-0.8,1-1.4,1.8-1.8c1.6-0.9,3.5-0.9,5.1,0c0.8,0.4,1.4,1.1,1.8,1.8l0,0c0.4,0.8,0.7,1.8,0.7,2.7
	C145.5,128.2,145.3,129.1,144.9,129.9L144.9,129.9z"/>
<g class="st2">
	<path class="st3" d="M140.6,119.9c1.3,0,2.6,0.3,3.7,0.9c1.1,0.6,2,1.5,2.6,2.6c0.6,1.2,1,2.5,0.9,3.8c0,1.3-0.3,2.6-1,3.8
		c-0.6,1.1-1.5,2-2.6,2.6c-2.4,1.2-5.2,1.2-7.5,0c-1.1-0.6-2-1.5-2.6-2.6c-0.6-1.2-1-2.5-0.9-3.8c0-1.3,0.3-2.7,0.9-3.8
		c0.6-1.1,1.5-2,2.6-2.6c1.1-0.6,2.4-0.9,3.6-0.9L140.6,119.9 M140.4,132.4h0.2c0.9,0,1.7-0.2,2.5-0.7c0.8-0.4,1.4-1.1,1.8-1.8
		c0.4-0.8,0.7-1.7,0.7-2.6c0-1-0.2-1.9-0.7-2.7l0,0c-0.4-0.8-1-1.4-1.8-1.8c-1.6-0.9-3.5-0.9-5.1,0c-0.8,0.4-1.4,1.1-1.8,1.8
		c-0.4,0.8-0.7,1.8-0.6,2.7c0,0.9,0.2,1.8,0.6,2.6c0.4,0.8,1,1.4,1.8,1.8C138.8,132.2,139.6,132.4,140.4,132.4 M140.7,119.7h-0.3
		c-1.3,0-2.6,0.3-3.8,1c-1.1,0.6-2.1,1.6-2.7,2.7c-0.7,1.2-1,2.6-1,3.9c-0.1,1.4,0.3,2.7,0.9,3.9c0.6,1.1,1.6,2,2.7,2.7
		c2.4,1.3,5.3,1.3,7.7,0c1.1-0.6,2.1-1.5,2.7-2.7c0.7-1.2,1-2.5,1-3.9c0-1.4-0.3-2.7-1-3.9c-0.6-1.1-1.6-2.1-2.7-2.7
		c-1.2-0.6-2.5-1-3.8-1L140.7,119.7L140.7,119.7z M140.5,132.2c-0.8,0-1.7-0.2-2.4-0.6c-0.7-0.4-1.3-1-1.7-1.7
		c-0.4-0.8-0.6-1.6-0.6-2.5c0-0.9,0.2-1.8,0.6-2.6c0.4-0.7,1-1.3,1.7-1.7c1.5-0.8,3.4-0.8,4.9,0c0.7,0.4,1.3,1,1.7,1.7v0.1
		c0.4,0.8,0.6,1.7,0.6,2.6c0,0.9-0.2,1.7-0.6,2.5c-0.4,0.7-1,1.3-1.7,1.7C142.2,132,141.4,132.2,140.5,132.2L140.5,132.2
		L140.5,132.2z"/>
</g>
<path class="st1" d="M185.9,120.3v2.5c-0.5-0.9-1.3-1.6-2.2-2.1c-0.9-0.5-2-0.8-3.1-0.8c-1.3,0-2.6,0.3-3.7,0.8
	c-1.1,0.6-2,1.5-2.6,2.6c-0.7,1.2-1,2.5-1,3.9c-0.1,1.4,0.3,2.8,1,4c0.6,1.1,1.5,1.9,2.6,2.5c1.1,0.6,2.4,0.9,3.7,0.8
	c1,0,2.1-0.2,3-0.7c1-0.4,1.7-1.2,2.3-2.1l-0.1,2.5h2.3v-14L185.9,120.3L185.9,120.3z M185.3,129.7c-0.4,0.8-0.9,1.5-1.7,1.9
	c-0.8,0.5-1.8,0.8-2.8,0.7c-0.9,0-1.8-0.2-2.6-0.6c-0.8-0.4-1.4-1-1.8-1.8c-0.4-0.8-0.7-1.7-0.7-2.6c0-1,0.2-1.9,0.7-2.8
	c0.4-0.8,1-1.4,1.8-1.8c0.8-0.4,1.7-0.6,2.6-0.6c1,0,1.9,0.2,2.7,0.7c0.7,0.4,1.3,1.1,1.7,1.8c0.4,0.8,0.6,1.6,0.6,2.5
	C185.9,128,185.7,128.9,185.3,129.7L185.3,129.7z"/>
<g class="st2">
	<path class="st3" d="M180.5,119.9h0.2c1.1,0,2.1,0.3,3,0.8c0.9,0.5,1.7,1.2,2.2,2.1v-2.5h2.3v14.1h-2.3l0.1-2.5
		c-0.5,0.9-1.3,1.6-2.3,2.1c-0.9,0.5-2,0.7-3,0.7h-0.1c-1.3,0-2.5-0.3-3.6-0.9c-1.1-0.6-2-1.5-2.6-2.5c-0.7-1.2-1-2.5-1-3.9
		c0-1.4,0.3-2.7,1-3.9c0.6-1.1,1.5-2,2.6-2.6C178,120.2,179.2,119.9,180.5,119.9 M180.7,122.1L180.7,122.1c-1,0-1.8,0.2-2.6,0.6
		c-0.7,0.4-1.4,1-1.8,1.8c-0.4,0.9-0.7,1.8-0.7,2.8c0,0.9,0.2,1.8,0.7,2.6c0.4,0.8,1.1,1.4,1.8,1.8c0.8,0.4,1.6,0.6,2.5,0.6h0.2
		c0.9,0,1.8-0.3,2.6-0.7c0.7-0.5,1.3-1.1,1.7-1.9c0.4-0.8,0.6-1.7,0.6-2.6c0-0.9-0.2-1.7-0.6-2.5c-0.4-0.8-1-1.4-1.7-1.8
		c-0.8-0.5-1.7-0.7-2.6-0.7L180.7,122.1 M180.4,119.6c-1.3,0-2.5,0.3-3.6,0.9c-1.1,0.6-2.1,1.5-2.7,2.7c-0.7,1.2-1,2.6-1,4
		c0,1.4,0.3,2.8,1,4c0.6,1.1,1.6,2,2.7,2.6c1.1,0.6,2.4,0.9,3.7,0.9h0.1c1.1,0,2.1-0.3,3.1-0.7c0.8-0.4,1.4-0.9,1.9-1.5l0,1.8
		c0,0.1,0,0.1,0.1,0.2c0,0,0.1,0.1,0.1,0.1h2.3c0.1,0,0.2-0.1,0.2-0.2v-14c0-0.1-0.1-0.2-0.2-0.2h-2.3c-0.1,0-0.2,0.1-0.2,0.2v1.8
		c-0.5-0.7-1.1-1.2-1.9-1.6c-1-0.5-2-0.8-3.1-0.8L180.4,119.6L180.4,119.6z M180.7,122.3h0.1c0.9,0,1.8,0.2,2.5,0.7
		c0.7,0.4,1.3,1,1.7,1.8c0.4,0.7,0.6,1.6,0.6,2.4c0,0.9-0.2,1.7-0.6,2.5c-0.4,0.8-1,1.4-1.7,1.8c-0.8,0.5-1.6,0.7-2.5,0.7h-0.2
		c-0.8,0-1.7-0.2-2.4-0.6c-0.7-0.4-1.3-1-1.7-1.7c-0.4-0.8-0.6-1.6-0.6-2.5c0-0.9,0.2-1.9,0.6-2.7c0.4-0.7,1-1.3,1.7-1.7
		c0.7-0.4,1.6-0.6,2.4-0.6L180.7,122.3L180.7,122.3L180.7,122.3z"/>
</g>
<path class="st1" d="M129.1,140.9v2.4c-1.2-1.8-3.2-2.8-5.3-2.8c-3.9-0.1-7.2,3-7.3,6.9c0,0.2,0,0.4,0,0.5c-0.1,3.9,2.9,7.2,6.8,7.3
	c0.2,0,0.4,0,0.5,0c2.1,0,4-1,5.1-2.7v1.5c0,3.4-1.7,4.9-4.9,4.9s-4.2-1.8-4.3-2.5h-2.4c0.1,1,1,4.7,6.7,4.7s7.2-3.4,7.2-7.1v-13.2
	L129.1,140.9L129.1,140.9z M128.9,148.2c-0.1,2.7-2.4,4.9-5.1,4.8c-2.7,0.1-4.9-2-5-4.7c0-0.1,0-0.3,0-0.4c-0.2-2.7,1.9-5,4.6-5.2
	c0.2,0,0.3,0,0.5,0c2.8-0.1,5.1,2.2,5.1,4.9c0,0.1,0,0.2,0,0.3L128.9,148.2L128.9,148.2z"/>
<g class="st2">
	<path class="st3" d="M123.9,140.5c2.1,0,4.1,1.1,5.2,2.8v-2.4h2.2v13.2c0,3.7-1.6,7.1-7.2,7.1c-5.7,0-6.6-3.7-6.7-4.7h2.4
		c0.1,0.7,1.1,2.5,4.3,2.5s4.9-1.5,4.9-4.9v-1.5c-1.2,1.7-3.1,2.7-5.1,2.7l0,0c-3.9,0.2-7.2-2.9-7.3-6.8c0-0.2,0-0.4,0-0.5
		c-0.2-3.9,2.9-7.2,6.8-7.4C123.4,140.6,123.6,140.5,123.9,140.5L123.9,140.5 M123.9,153.1c2.7,0,4.9-2.1,5-4.8V148
		c0.1-2.8-2.1-5.1-4.8-5.2c-0.1,0-0.2,0-0.3,0c-2.7-0.1-5,2-5,4.7c0,0.2,0,0.3,0,0.5c-0.1,2.7,1.9,5,4.6,5.1c0.1,0,0.3,0,0.4,0
		L123.9,153.1 M123.8,140.3L123.8,140.3c-4-0.1-7.4,3.1-7.5,7.1c0,0.2,0,0.3,0,0.5c-0.1,4,3,7.4,7,7.5c0.2,0,0.4,0,0.5,0
		c1.9,0,3.7-0.8,4.9-2.3v0.9c0,3.2-1.5,4.7-4.7,4.7c-3.2,0-4-1.7-4.1-2.3c0-0.1-0.1-0.2-0.2-0.2h-2.4c-0.1,0-0.1,0-0.2,0.1
		c0,0-0.1,0.1-0.1,0.2c0,0.5,0.6,4.9,6.9,4.9c4.9,0,7.4-2.5,7.4-7.4v-13.2c0-0.1,0-0.1-0.1-0.1c0,0-0.1-0.1-0.1-0.1h-2.2
		c-0.1,0-0.2,0.1-0.2,0.2v1.8C127.6,141.2,125.8,140.3,123.8,140.3L123.8,140.3L123.8,140.3z M123.9,152.8h-0.1
		c-2.6,0.1-4.7-2-4.8-4.6c0-0.1,0-0.2,0-0.3c-0.2-2.6,1.8-4.8,4.3-5c0.2,0,0.3,0,0.5,0c1.3,0,2.6,0.5,3.6,1.4c0.9,1,1.4,2.3,1.4,3.6
		v0.3C128.7,150.8,126.5,152.8,123.9,152.8L123.9,152.8L123.9,152.8z"/>
</g>
<path class="st1" d="M150.3,140.5c-3.9-0.1-7.2,3-7.4,6.9c0,0.2,0,0.3,0,0.5c0,4.1,3.3,7.4,7.3,7.4c4.1,0,7.4-3.3,7.4-7.3l0,0
	c0.2-3.9-2.8-7.2-6.7-7.4C150.7,140.5,150.5,140.5,150.3,140.5L150.3,140.5z M150.3,153.2c-2.7,0-5-2.2-5-5c0-0.1,0-0.2,0-0.3
	c0-2.8,2.2-5,5-5s5,2.2,5,5c0.1,2.8-2,5.1-4.8,5.2C150.4,153.2,150.3,153.2,150.3,153.2L150.3,153.2L150.3,153.2z"/>
<g class="st2">
	<path class="st3" d="M150.3,140.5c3.9-0.2,7.2,2.9,7.4,6.7c0,0.2,0,0.4,0,0.7c0,4.1-3.3,7.4-7.3,7.4c-4.1,0-7.4-3.3-7.4-7.3l0,0
		c-0.2-3.9,2.9-7.2,6.8-7.4C149.9,140.5,150.1,140.5,150.3,140.5 M150.3,153.2c2.8,0,5-2.2,5-5c0-0.1,0-0.1,0-0.2c0-2.8-2.2-5-5-5
		s-5,2.2-5,5c-0.1,2.7,2,5.1,4.7,5.2C150,153.2,150.1,153.2,150.3,153.2 M150.2,140.3c-4.1-0.1-7.4,3.1-7.5,7.1c0,0.2,0,0.3,0,0.5
		c0,4.2,3.4,7.6,7.6,7.6s7.6-3.4,7.6-7.6c0.2-4-2.9-7.4-6.9-7.6C150.7,140.3,150.5,140.3,150.2,140.3L150.2,140.3L150.2,140.3z
		 M150.2,153c-2.6,0-4.8-2.1-4.8-4.7c0-0.1,0-0.2,0-0.3c0-2.7,2.1-4.8,4.8-4.8s4.8,2.1,4.8,4.8l0,0c0.1,2.6-1.9,4.9-4.6,5
		C150.4,153,150.3,153,150.2,153L150.2,153L150.2,153z"/>
</g>
<path class="st1" d="M182.5,140.5c-2.1,0-4.1,1-5.3,2.8v-2.4H175v20h2.3v-8.4c1.2,1.7,3.1,2.7,5.2,2.7l0,0c3.9,0.1,7.2-3,7.3-7
	c0-0.1,0-0.3,0-0.4c0.1-3.9-2.9-7.1-6.7-7.3C182.9,140.5,182.7,140.5,182.5,140.5L182.5,140.5z M182.5,153c-2.8,0-5.1-2.3-5.1-5.1
	c0-0.1,0-0.1,0-0.2c-0.1-2.7,2-5,4.7-5.1c0.1,0,0.3,0,0.4,0c2.6-0.1,4.9,1.9,5,4.5c0,0.2,0,0.4,0,0.6c0.1,2.7-2,5.1-4.7,5.2
	C182.7,153,182.6,153,182.5,153L182.5,153L182.5,153z"/>
<g class="st2">
	<path class="st3" d="M182.5,140.5L182.5,140.5c3.9-0.2,7.2,2.8,7.4,6.6c0,0.2,0,0.4,0,0.6c0.2,3.9-2.9,7.3-6.9,7.4
		c-0.1,0-0.3,0-0.4,0l0,0c-2.1,0-4.1-1-5.2-2.7v8.4H175v-20h2.2v2.4C178.3,141.6,180.3,140.5,182.5,140.5 M182.5,153
		c2.7,0,5-2.2,5-5c0-0.1,0-0.2,0-0.3c0.2-2.6-1.8-4.9-4.4-5.1c-0.2,0-0.4,0-0.6,0c-2.7-0.1-5,1.9-5.1,4.6c0,0.1,0,0.3,0,0.4
		c-0.1,2.8,2.2,5.2,5,5.2C182.3,153,182.4,153,182.5,153 M182.4,140.3c-1.9,0-3.8,0.9-5,2.4v-1.8c0-0.1-0.1-0.2-0.2-0.2H175
		c-0.1,0-0.2,0.1-0.2,0.2v20c0,0.1,0.1,0.2,0.2,0.2h2.3c0.1,0,0.1,0,0.1-0.1c0,0,0.1-0.1,0.1-0.1v-7.8c1.2,1.4,3,2.3,4.9,2.3h0.1
		c4.1,0.1,7.4-3.1,7.5-7.1c0-0.2,0-0.3,0-0.5c0.2-4-2.9-7.3-6.9-7.5c-0.2,0-0.4,0-0.6,0L182.4,140.3L182.4,140.3z M182.5,152.8
		c-2.7,0-4.9-2.2-4.9-4.9c0-0.1,0-0.1,0-0.2c-0.1-2.6,1.9-4.8,4.5-4.9c0.1,0,0.3,0,0.4,0c1.3-0.1,2.6,0.4,3.5,1.4
		c0.9,1,1.4,2.2,1.3,3.5c0.2,2.6-1.8,4.9-4.4,5C182.8,152.9,182.6,152.9,182.5,152.8L182.5,152.8L182.5,152.8z"/>
</g>
</svg>
