<?xml version="1.0" encoding="utf-8"?>
<!-- Generator: Adobe Illustrator 25.1.0, SVG Export Plug-In . SVG Version: 6.00 Build 0)  -->
<svg version="1.1" id="Layer_1" xmlns="http://www.w3.org/2000/svg" xmlns:xlink="http://www.w3.org/1999/xlink" x="0px" y="0px"
	 viewBox="0 0 150 100" style="enable-background:new 0 0 150 100;" xml:space="preserve">
<style type="text/css">
	.st0{fill:#5C4AE6;}
	.st1{fill:#1E3C52;}
	.st2{opacity:0.5;}
	.st3{fill:#FFFFFF;}
</style>
<path class="st0" d="M36.9,35h-10c-5.4,0-9.9,4.4-9.9,9.9c0,5.4,4.4,9.9,9.9,9.9H27v0.2c0,5.4,4.4,9.9,9.9,9.9s9.9-4.4,9.9-9.9l0,0
	v-10C46.7,39.4,42.3,35,36.9,35L36.9,35L36.9,35z M44.5,44.8c0,4.2-3.4,7.6-7.6,7.6h-7.6v-7.6c0.2-4.2,3.7-7.6,7.9-7.4
	C41.2,37.5,44.4,40.8,44.5,44.8L44.5,44.8z M26.9,52.5c-4.2,0.2-7.7-3.1-7.9-7.4c-0.2-4.2,3.1-7.7,7.4-7.9c0.2,0,0.3,0,0.5,0h3.8
	c-2.3,1.9-3.7,4.7-3.7,7.6v7.6H26.9L26.9,52.5z M36.9,62.5c-4.2,0-7.6-3.4-7.6-7.6v-0.2h7.6c3,0,5.8-1.4,7.6-3.7v3.8
	C44.5,59.1,41.1,62.5,36.9,62.5z"/>
<path class="st1" d="M101.2,44.9c-0.2-0.2-0.3-0.4-0.3-0.7v-7.5h2.6V35h-2.6v-4l-2,0.5v3.4h-2.2v1.8h2.2V44
	c-0.1,0.8,0.3,1.5,0.8,2.1c0.5,0.5,1.2,0.8,2,0.7h2V45h-1.7C101.6,45.1,101.3,45,101.2,44.9L101.2,44.9z"/>
<g class="st2">
	<path class="st3" d="M100.9,30.9v4h2.6v1.8h-2.6v7.5c0,0.3,0.1,0.5,0.3,0.7c0.2,0.2,0.4,0.3,0.7,0.3h1.7v1.7h-2
		c-0.7,0-1.4-0.3-1.9-0.7c-0.6-0.6-0.8-1.4-0.8-2.1v-7.3h-2.2v-1.8h2.2v-3.4L100.9,30.9 M100.9,30.7L100.9,30.7l-2,0.5
		c-0.1,0-0.2,0.1-0.2,0.2v3.2h-2c-0.1,0-0.2,0.1-0.2,0.2v1.8c0,0.1,0.1,0.2,0.2,0.2h2v7.1c-0.1,0.8,0.3,1.6,0.8,2.2
		c0.5,0.5,1.3,0.8,2,0.8h2c0.1,0,0.2-0.1,0.2-0.2V45c0-0.1-0.1-0.2-0.2-0.2h-1.7c-0.3,0-0.4-0.1-0.6-0.2c-0.2-0.2-0.3-0.3-0.3-0.5
		v-7.3h2.5c0.1,0,0.2-0.1,0.2-0.2v-1.8c0-0.1-0.1-0.2-0.2-0.2h-2.5V31C101.1,30.9,101.1,30.9,100.9,30.7
		C101,30.7,100.9,30.7,100.9,30.7L100.9,30.7L100.9,30.7z"/>
</g>
<path class="st1" d="M92.8,44.5c-0.6,0.4-1.3,0.6-2,0.7c-0.7,0-1.4-0.2-2-0.5c-0.6-0.3-1.1-0.8-1.5-1.5l0,0
	c-0.4-0.8-0.6-1.6-0.6-2.4c0-0.8,0.2-1.5,0.5-2.2c0.3-0.6,0.8-1.1,1.4-1.5c0.6-0.3,1.3-0.5,2-0.5c0.7,0,1.4,0.2,2,0.6
	c0.6,0.4,1.1,1,1.3,1.7h2c-0.2-0.8-0.5-1.5-1-2.1c-0.5-0.6-1.1-1.1-1.9-1.4c-0.7-0.3-1.4-0.5-2.2-0.5c-1,0-2.1,0.3-3.1,0.7
	c-0.9,0.5-1.7,1.2-2.3,2.1c-1.1,2.1-1.1,4.7-0.1,6.9c0.5,0.9,1.2,1.6,2.1,2.1c0.9,0.5,2,0.8,3,0.7c0.9,0,1.9-0.2,2.6-0.6
	c0.8-0.4,1.4-1,1.9-1.7c0.4-0.6,0.7-1.3,0.8-2h-2C93.9,43.5,93.4,44.2,92.8,44.5L92.8,44.5z"/>
<g class="st2">
	<path class="st3" d="M90.8,34.6L90.8,34.6c0.8,0,1.5,0.2,2.2,0.5c0.7,0.3,1.4,0.8,1.9,1.4c0.5,0.6,0.8,1.4,1,2.1h-2
		c-0.3-0.7-0.7-1.3-1.3-1.7c-0.6-0.3-1.3-0.6-2-0.6h-0.1c-0.7,0-1.4,0.2-2,0.5c-0.6,0.3-1.1,0.9-1.4,1.5c-0.3,0.7-0.6,1.4-0.6,2.2
		c0,0.8,0.2,1.7,0.6,2.4l0,0c0.3,0.7,0.8,1.2,1.5,1.5c0.6,0.3,1.3,0.5,2,0.5c0.7,0,1.4-0.3,2-0.7c0.6-0.4,1.1-1,1.3-1.7h2
		c-0.1,0.8-0.4,1.4-0.8,2c-0.4,0.7-1.1,1.2-1.8,1.6c-0.8,0.4-1.6,0.6-2.5,0.6h-0.2c-1,0-2-0.3-2.9-0.7c-0.9-0.5-1.6-1.2-2.1-2.1
		c-1.1-2.1-1.1-4.8,0.1-6.9c0.5-0.9,1.3-1.7,2.3-2.1c0.9-0.4,2-0.7,3-0.7 M90.8,34.3c-1.1,0-2.1,0.3-3.1,0.7
		c-0.9,0.5-1.8,1.2-2.3,2.1c-1.2,2.2-1.2,4.8-0.1,7c0.5,0.9,1.3,1.7,2.2,2.2s2,0.7,3,0.7h0.2c0.9,0,1.8-0.3,2.6-0.7
		c0.8-0.4,1.4-0.9,1.9-1.6c0.4-0.7,0.8-1.4,0.8-2.1c0-0.1,0-0.1-0.1-0.2c0,0-0.1-0.1-0.2-0.1h-2c-0.1,0-0.2,0.1-0.2,0.1
		c-0.2,0.7-0.6,1.3-1.2,1.6c-0.5,0.4-1.2,0.6-1.9,0.6c-0.7,0-1.3-0.2-1.9-0.5c-0.6-0.3-1.1-0.8-1.4-1.4l0,0
		c-0.4-0.7-0.6-1.5-0.6-2.3c0-0.8,0.2-1.4,0.5-2.1c0.3-0.6,0.8-1.1,1.4-1.4c0.6-0.3,1.2-0.5,1.9-0.5h0.1c0.7,0,1.3,0.2,1.9,0.5
		c0.6,0.3,1,0.9,1.2,1.6c0,0.1,0.1,0.1,0.2,0.1h2c0.1,0,0.1,0,0.2-0.1c0,0,0.1-0.1,0-0.2c-0.2-0.8-0.5-1.5-1.1-2.2
		c-0.5-0.6-1.2-1.1-2-1.4C92.4,34.6,91.7,34.4,90.8,34.3L90.8,34.3L90.8,34.3z"/>
</g>
<path class="st1" d="M123.3,35.1c-0.7,0.3-1.3,0.8-1.6,1.5v-1.8h-1.9v12h2v-6.7c0-0.7,0.2-1.4,0.5-1.9c0.3-0.5,0.8-1,1.3-1.3
	c0.5-0.3,1.2-0.5,1.8-0.5h1.4l0.1-1.9h-1.3C124.9,34.7,124.1,34.7,123.3,35.1L123.3,35.1z"/>
<g class="st2">
	<path class="st3" d="M125.5,34.7h1.3l-0.1,1.9h-1.4c-0.6,0-1.3,0.2-1.8,0.5c-0.5,0.3-1,0.8-1.3,1.3c-0.3,0.6-0.5,1.3-0.5,1.9v6.7
		h-2v-12h1.9v1.8c0.3-0.7,0.9-1.2,1.6-1.5C124,34.8,124.8,34.7,125.5,34.7 M125.5,34.5c-0.8,0-1.5,0.2-2.3,0.5c-0.5,0.3-1,0.6-1.4,1
		v-1.1c0-0.1-0.1-0.2-0.1-0.2h-0.1h-0.1h-1.8c-0.1,0-0.2,0.1-0.2,0.2v11.9c0,0.1,0.1,0.2,0.2,0.2h2c0.1,0,0.2-0.1,0.2-0.2v-6.7
		c0-0.7,0.2-1.3,0.4-1.8c0.3-0.5,0.7-0.9,1.2-1.3c0.5-0.3,1.1-0.4,1.7-0.4h1.4c0.1,0,0.2-0.1,0.2-0.2l0.1-1.9c0-0.1,0-0.1-0.1-0.1
		l-0.1-0.1L125.5,34.5L125.5,34.5L125.5,34.5z"/>
</g>
<path class="st1" d="M67,29.6l0.1,7.3c-0.9-1.4-2.6-2.3-4.3-2.3c-1.1,0-2.2,0.3-3.2,0.8c-0.9,0.5-1.7,1.3-2.2,2.2
	c-0.5,1-0.8,2.1-0.8,3.2c0,1.1,0.3,2.2,0.8,3.2c0.5,0.9,1.3,1.7,2.2,2.2c1,0.5,2.1,0.8,3.2,0.8s2.2-0.3,3.2-0.8
	c0.9-0.5,1.7-1.3,2.3-2.2c0.6-0.9,0.8-2.1,0.8-3.2l-0.1-11.3L67,29.6L67,29.6z M67.2,40.8c0,0.8-0.3,1.6-0.6,2.3s-0.9,1.2-1.6,1.5
	c-0.7,0.3-1.4,0.6-2.2,0.6c-0.8,0-1.4-0.2-2.1-0.6c-0.7-0.3-1.2-0.9-1.5-1.5c-0.3-0.7-0.6-1.4-0.5-2.2c0-0.8,0.2-1.6,0.5-2.3
	c0.3-0.7,0.8-1.2,1.5-1.5c0.7-0.3,1.4-0.6,2.2-0.5c1.2-0.1,2.3,0.3,3.1,1.2C66.8,38.5,67.3,39.6,67.2,40.8L67.2,40.8z"/>
<g class="st2">
	<path class="st3" d="M69.1,29.6l0.1,11.3c0,1.1-0.3,2.2-0.8,3.2c-0.5,0.9-1.4,1.7-2.3,2.2c-0.9,0.5-2,0.8-3.1,0.8h-0.2
		c-1.1,0-2.1-0.3-3.1-0.8c-0.9-0.5-1.7-1.3-2.2-2.2c-0.5-1-0.8-2.1-0.8-3.2c0-1.1,0.3-2.3,0.8-3.2c0.5-0.9,1.3-1.7,2.2-2.2
		s2-0.8,3.1-0.8h0.2c1.7,0,3.3,0.8,4.2,2.3l-0.1-7.3L69.1,29.6 M62.7,45.2L62.7,45.2c0.8,0,1.5-0.2,2.2-0.6s1.2-0.9,1.6-1.5
		c0.4-0.7,0.6-1.4,0.6-2.2v-0.1c0.1-1.2-0.3-2.3-1.1-3.1c-0.8-0.8-2-1.3-3.1-1.2h-0.1c-0.8,0-1.4,0.2-2.1,0.5
		c-0.7,0.3-1.2,0.9-1.5,1.5c-0.3,0.7-0.6,1.5-0.5,2.3c0,0.8,0.2,1.5,0.5,2.2c0.3,0.7,0.8,1.2,1.5,1.5C61.3,45,62,45.2,62.7,45.2
		 M69.1,29.4h-2c-0.1,0-0.1,0-0.1,0.1l-0.1,0.1v6.8c-1-1.2-2.5-2-4.1-2h-0.2c-1.1,0-2.2,0.3-3.2,0.8c-0.9,0.5-1.8,1.4-2.3,2.3
		c-0.6,1-0.8,2.2-0.8,3.3c0,1.2,0.3,2.3,0.8,3.3c0.5,0.9,1.4,1.7,2.3,2.3c0.9,0.5,2,0.8,3.2,0.8h0.2c1.1,0,2.2-0.3,3.2-0.8
		c0.9-0.5,1.8-1.3,2.4-2.3c0.6-1,0.8-2.1,0.8-3.3l-0.1-11.3C69.2,29.5,69.2,29.4,69.1,29.4L69.1,29.4L69.1,29.4z M62.8,45
		c-0.7,0-1.4-0.2-2-0.5c-0.6-0.3-1.1-0.8-1.4-1.4c-0.3-0.7-0.5-1.4-0.5-2.1c0-0.8,0.2-1.5,0.5-2.2c0.3-0.6,0.8-1.1,1.4-1.4
		c0.6-0.3,1.4-0.5,2-0.5h0.1c1.1-0.1,2.2,0.3,3.1,1.1c0.8,0.8,1.2,1.9,1.2,3.1V41c0,0.8-0.2,1.4-0.6,2.1c-0.3,0.6-0.8,1.1-1.5,1.4
		c-0.6,0.3-1.4,0.5-2,0.5L62.8,45L62.8,45z"/>
</g>
<path class="st1" d="M101.9,59.5c0,2.1-1.6,3.2-3.4,3.3c-1.8,0-3.2-1.1-3.2-3.4v-6.9h-2v6.9c0,3.6,2.6,5.3,5,5.3
	c1.5,0.1,3.1-0.7,3.8-2v1.8h1.9v-12h-2L101.9,59.5L101.9,59.5z"/>
<g class="st2">
	<path class="st3" d="M103.9,52.4v12H102v-1.8c-0.8,1.4-2.3,2.1-3.8,2c-2.4,0-5-1.7-5-5.3v-6.9h2v6.9c0,2.3,1.4,3.4,3.2,3.4
		c1.9,0,3.4-1.1,3.4-3.3v-7L103.9,52.4 M103.8,52.2h-2c-0.1,0-0.2,0.1-0.2,0.2v7c0,2.3-1.7,3.1-3.2,3.1c-1.4,0-3.1-0.8-3.1-3.2v-6.9
		c0-0.1-0.1-0.2-0.2-0.2h-2c-0.1,0-0.2,0.1-0.2,0.2v6.9c0,3.6,2.5,5.4,5.1,5.4c1.4,0.1,2.7-0.5,3.7-1.5v1.2c0,0.1,0.1,0.2,0.2,0.2
		h1.9c0.1,0,0.2-0.1,0.2-0.2v-12C104.1,52.3,104,52.2,103.8,52.2L103.8,52.2L103.8,52.2z"/>
</g>
<path class="st1" d="M77.3,52.1c-1.5-0.1-3.1,0.7-3.8,2v-1.7h-1.9v12h2v-6.7C73.5,55.7,75,54,77,54h0.1h1.4v-1.9H77.3L77.3,52.1z"/>
<g class="st2">
	<path class="st3" d="M78.5,52.1V54h-1.4c-2,0-3.6,1.6-3.5,3.6v0.1v6.7h-2v-12h1.9v1.7c0.8-1.4,2.3-2.1,3.8-2L78.5,52.1 M78.5,52
		h-1.2c-1.4-0.1-2.7,0.5-3.7,1.5v-1.1c0-0.1-0.1-0.2-0.2-0.2h-1.9c-0.1,0-0.2,0.1-0.2,0.2v12c0,0.1,0.1,0.2,0.2,0.2h2
		c0.1,0,0.2-0.1,0.2-0.2v-6.7c-0.1-1.9,1.3-3.5,3.1-3.6c0.1,0,0.1,0,0.2,0h1.4c0.1,0,0.2-0.1,0.2-0.2v-1.8
		C78.7,52.1,78.6,52,78.5,52L78.5,52L78.5,52z"/>
</g>
<rect x="128.7" y="34.9" class="st1" width="2" height="12"/>
<g class="st2">
	<path class="st3" d="M130.6,34.9v12h-2v-12L130.6,34.9 M130.6,34.7h-2c-0.1,0-0.2,0.1-0.2,0.2v12c0,0.1,0.1,0.2,0.2,0.2h2
		c0.1,0,0.2-0.1,0.2-0.2v-12C130.8,34.8,130.8,34.7,130.6,34.7z"/>
</g>
<polygon class="st1" points="128.5,32.6 130.8,32.6 130.8,30.2 128.5,30.2 "/>
<g class="st2">
	<path class="st3" d="M130.8,30.2v2.5h-2.2v-2.5H130.8 M130.8,30h-2.3c-0.1,0-0.2,0.1-0.2,0.2l0,0v2.5c0,0.1,0.1,0.2,0.2,0.2h2.2
		c0.1,0,0.2-0.1,0.2-0.2v-2.5C131,30.1,130.9,30,130.8,30L130.8,30L130.8,30z"/>
</g>
<path class="st1" d="M82.4,37.6c-0.5-0.9-1.3-1.7-2.2-2.2c-1-0.5-2.1-0.8-3.2-0.8c-1.1,0-2.2,0.3-3.2,0.8c-0.9,0.5-1.7,1.3-2.2,2.2
	c-0.5,1-0.8,2.1-0.8,3.2c0,1.1,0.3,2.2,0.8,3.2c0.5,0.9,1.3,1.7,2.3,2.2c2,1,4.4,1,6.4,0c0.9-0.5,1.7-1.3,2.2-2.2
	c0.5-0.9,0.8-2.1,0.8-3.2C83.3,39.7,83,38.6,82.4,37.6L82.4,37.6z M80.7,43.1c-0.3,0.7-0.8,1.2-1.5,1.5c-0.7,0.3-1.4,0.6-2.2,0.6
	c-0.8,0-1.5-0.2-2.2-0.6c-0.6-0.3-1.2-0.9-1.5-1.5c-0.3-0.7-0.6-1.4-0.5-2.2c0-0.8,0.2-1.6,0.5-2.3c0.3-0.7,0.8-1.2,1.5-1.5
	c1.4-0.8,3-0.8,4.3,0c0.7,0.3,1.2,0.9,1.5,1.5l0,0c0.3,0.7,0.6,1.5,0.6,2.3C81.2,41.6,81,42.4,80.7,43.1L80.7,43.1z"/>
<g class="st2">
	<path class="st3" d="M77.1,34.6c1.1,0,2.2,0.3,3.1,0.8c0.9,0.5,1.7,1.3,2.2,2.2c0.5,1,0.8,2.1,0.8,3.2c0,1.1-0.3,2.2-0.8,3.2
		c-0.5,0.9-1.3,1.7-2.2,2.2c-2,1-4.4,1-6.4,0c-0.9-0.5-1.7-1.3-2.2-2.2c-0.5-1-0.8-2.1-0.8-3.2c0-1.1,0.3-2.3,0.8-3.2
		c0.5-0.9,1.3-1.7,2.2-2.2s2-0.8,3.1-0.8L77.1,34.6 M76.9,45.2h0.2c0.8,0,1.4-0.2,2.1-0.6c0.7-0.3,1.2-0.9,1.5-1.5
		c0.3-0.7,0.6-1.4,0.6-2.2c0-0.8-0.2-1.6-0.6-2.3l0,0c-0.3-0.7-0.8-1.2-1.5-1.5c-1.4-0.8-3-0.8-4.3,0c-0.7,0.3-1.2,0.9-1.5,1.5
		c-0.3,0.7-0.6,1.5-0.5,2.3c0,0.8,0.2,1.5,0.5,2.2c0.3,0.7,0.8,1.2,1.5,1.5C75.5,45,76.2,45.2,76.9,45.2 M77.1,34.4h-0.3
		c-1.1,0-2.2,0.3-3.2,0.8c-0.9,0.5-1.8,1.4-2.3,2.3c-0.6,1-0.8,2.2-0.8,3.3c-0.1,1.2,0.3,2.3,0.8,3.3c0.5,0.9,1.4,1.7,2.3,2.3
		c2,1.1,4.5,1.1,6.5,0c0.9-0.5,1.8-1.3,2.3-2.3c0.6-1,0.8-2.1,0.8-3.3s-0.3-2.3-0.8-3.3c-0.5-0.9-1.4-1.8-2.3-2.3
		c-1-0.5-2.1-0.8-3.2-0.8H77.1L77.1,34.4z M77,45c-0.7,0-1.4-0.2-2-0.5c-0.6-0.3-1.1-0.8-1.4-1.4c-0.3-0.7-0.5-1.4-0.5-2.1
		c0-0.8,0.2-1.5,0.5-2.2c0.3-0.6,0.8-1.1,1.4-1.4c1.3-0.7,2.9-0.7,4.2,0c0.6,0.3,1.1,0.8,1.4,1.4v0.1c0.3,0.7,0.5,1.4,0.5,2.2
		c0,0.8-0.2,1.4-0.5,2.1c-0.3,0.6-0.8,1.1-1.4,1.4C78.4,44.8,77.7,45,77,45L77,45L77,45z"/>
</g>
<path class="st1" d="M115.5,34.9V37c-0.4-0.8-1.1-1.4-1.9-1.8c-0.8-0.4-1.7-0.7-2.6-0.7c-1.1,0-2.2,0.3-3.1,0.7
	c-0.9,0.5-1.7,1.3-2.2,2.2c-0.6,1-0.8,2.1-0.8,3.3c-0.1,1.2,0.3,2.4,0.8,3.4c0.5,0.9,1.3,1.6,2.2,2.1c0.9,0.5,2,0.8,3.1,0.7
	c0.8,0,1.8-0.2,2.5-0.6c0.8-0.3,1.4-1,2-1.8l-0.1,2.1h2V34.8L115.5,34.9L115.5,34.9z M115,42.9c-0.3,0.7-0.8,1.3-1.4,1.6
	c-0.7,0.4-1.5,0.7-2.4,0.6c-0.8,0-1.5-0.2-2.2-0.5c-0.7-0.3-1.2-0.8-1.5-1.5c-0.3-0.7-0.6-1.4-0.6-2.2c0-0.8,0.2-1.6,0.6-2.4
	c0.3-0.7,0.8-1.2,1.5-1.5c0.7-0.3,1.4-0.5,2.2-0.5c0.8,0,1.6,0.2,2.3,0.6c0.6,0.3,1.1,0.9,1.4,1.5c0.3,0.7,0.5,1.4,0.5,2.1
	C115.5,41.4,115.4,42.2,115,42.9L115,42.9z"/>
<g class="st2">
	<path class="st3" d="M110.9,34.6h0.2c0.9,0,1.8,0.3,2.5,0.7c0.8,0.4,1.4,1,1.9,1.8v-2.1h2v12h-2l0.1-2.1c-0.4,0.8-1.1,1.4-2,1.8
		c-0.8,0.4-1.7,0.6-2.5,0.6H111c-1.1,0-2.1-0.3-3.1-0.8c-0.9-0.5-1.7-1.3-2.2-2.1c-0.6-1-0.8-2.1-0.8-3.3s0.3-2.3,0.8-3.3
		c0.5-0.9,1.3-1.7,2.2-2.2C108.8,34.8,109.8,34.6,110.9,34.6 M111.1,36.4L111.1,36.4c-0.8,0-1.5,0.2-2.2,0.5
		c-0.6,0.3-1.2,0.8-1.5,1.5c-0.3,0.8-0.6,1.5-0.6,2.4c0,0.8,0.2,1.5,0.6,2.2c0.3,0.7,0.9,1.2,1.5,1.5c0.7,0.3,1.4,0.5,2.1,0.5h0.2
		c0.8,0,1.5-0.3,2.2-0.6c0.6-0.4,1.1-0.9,1.4-1.6c0.3-0.7,0.5-1.4,0.5-2.2c0-0.8-0.2-1.4-0.5-2.1c-0.3-0.7-0.8-1.2-1.4-1.5
		C112.7,36.6,112,36.4,111.1,36.4L111.1,36.4 M110.9,34.3c-1.1,0-2.1,0.3-3.1,0.8c-0.9,0.5-1.8,1.3-2.3,2.3c-0.6,1-0.8,2.2-0.8,3.4
		c0,1.2,0.3,2.4,0.8,3.4c0.5,0.9,1.4,1.7,2.3,2.2c0.9,0.5,2,0.8,3.1,0.8h0.1c0.9,0,1.8-0.3,2.6-0.6c0.7-0.3,1.2-0.8,1.6-1.3v1.5
		c0,0.1,0,0.1,0.1,0.2l0.1,0.1h2c0.1,0,0.2-0.1,0.2-0.2V35c0-0.1-0.1-0.2-0.2-0.2h-2c-0.1,0-0.2,0.1-0.2,0.2v1.5
		c-0.4-0.6-0.9-1-1.6-1.4c-0.8-0.4-1.7-0.7-2.6-0.7L110.9,34.3L110.9,34.3z M111.1,36.6L111.1,36.6c0.8,0,1.6,0.2,2.2,0.6
		c0.6,0.3,1.1,0.8,1.4,1.5c0.3,0.6,0.5,1.4,0.5,2c0,0.8-0.2,1.4-0.5,2.1c-0.3,0.7-0.8,1.2-1.4,1.5c-0.7,0.4-1.4,0.6-2.1,0.6H111
		c-0.7,0-1.4-0.2-2-0.5c-0.6-0.3-1.1-0.8-1.4-1.4c-0.3-0.7-0.5-1.4-0.5-2.1c0-0.8,0.2-1.6,0.5-2.3c0.3-0.6,0.8-1.1,1.4-1.4
		C109.6,36.9,110.3,36.7,111.1,36.6L111.1,36.6L111.1,36.6L111.1,36.6z"/>
</g>
<path class="st1" d="M67.3,52.4v2c-1-1.5-2.7-2.4-4.5-2.4c-3.3-0.1-6.1,2.5-6.2,5.9c0,0.2,0,0.3,0,0.4c-0.1,3.3,2.5,6.1,5.8,6.2
	c0.2,0,0.3,0,0.4,0c1.8,0,3.4-0.8,4.3-2.3v1.3c0,2.9-1.4,4.2-4.2,4.2s-3.6-1.5-3.7-2.1h-2c0.1,0.8,0.8,4,5.7,4s6.1-2.9,6.1-6V52.3
	L67.3,52.4L67.3,52.4z M67.1,58.6c-0.1,2.3-2,4.2-4.3,4.1c-2.3,0.1-4.2-1.7-4.2-4c0-0.1,0-0.3,0-0.3c-0.2-2.3,1.6-4.2,3.9-4.4
	c0.2,0,0.3,0,0.4,0c2.4-0.1,4.3,1.9,4.3,4.2c0,0.1,0,0.2,0,0.3L67.1,58.6L67.1,58.6z"/>
<g class="st2">
	<path class="st3" d="M62.9,52.1c1.8,0,3.5,0.9,4.4,2.4v-2h1.9v11.2c0,3.1-1.4,6-6.1,6c-4.8,0-5.6-3.1-5.7-4h2
		c0.1,0.6,0.9,2.1,3.7,2.1s4.2-1.3,4.2-4.2v-1.3c-1,1.4-2.6,2.3-4.3,2.3l0,0c-3.3,0.2-6.1-2.5-6.2-5.8c0-0.2,0-0.3,0-0.4
		c-0.2-3.3,2.5-6.1,5.8-6.3C62.4,52.1,62.6,52.1,62.9,52.1L62.9,52.1 M62.9,62.8c2.3,0,4.2-1.8,4.2-4.1v-0.3
		c0.1-2.4-1.8-4.3-4.1-4.4c-0.1,0-0.2,0-0.3,0c-2.3-0.1-4.2,1.7-4.2,4c0,0.2,0,0.3,0,0.4c-0.1,2.3,1.6,4.2,3.9,4.3
		C62.5,62.8,62.7,62.8,62.9,62.8L62.9,62.8 M62.8,51.9L62.8,51.9c-3.4-0.1-6.3,2.6-6.4,6c0,0.2,0,0.3,0,0.4
		c-0.1,3.4,2.5,6.3,5.9,6.4c0.2,0,0.3,0,0.4,0c1.6,0,3.1-0.7,4.2-2v0.8c0,2.7-1.3,4-4,4s-3.4-1.4-3.5-2c0-0.1-0.1-0.2-0.2-0.2h-2
		c-0.1,0-0.1,0-0.2,0.1c0,0-0.1,0.1-0.1,0.2c0,0.4,0.5,4.2,5.9,4.2c4.2,0,6.3-2.1,6.3-6.3V52.3c0-0.1,0-0.1-0.1-0.1L69,52.1h-1.9
		c-0.1,0-0.2,0.1-0.2,0.2v1.5C66,52.7,64.5,51.9,62.8,51.9L62.8,51.9L62.8,51.9z M62.9,62.5L62.9,62.5c-2.3,0.1-4.1-1.7-4.2-3.9
		c0-0.1,0-0.2,0-0.3c-0.2-2.2,1.5-4.1,3.7-4.2c0.2,0,0.3,0,0.4,0c1.1,0,2.2,0.4,3.1,1.2c0.8,0.8,1.2,2,1.2,3.1v0.3
		C66.9,60.8,65.1,62.5,62.9,62.5L62.9,62.5L62.9,62.5z"/>
</g>
<path class="st1" d="M85.3,52.1C82,52,79.2,54.6,79,57.9c0,0.2,0,0.3,0,0.4c0,3.5,2.8,6.3,6.2,6.3c3.5,0,6.3-2.8,6.3-6.2l0,0
	c0.2-3.3-2.4-6.1-5.7-6.3C85.6,52.1,85.5,52.1,85.3,52.1L85.3,52.1z M85.3,62.8C83,62.8,81,61,81,58.6c0-0.1,0-0.2,0-0.3
	c0-2.4,1.9-4.2,4.2-4.2s4.2,1.9,4.2,4.2c0.1,2.4-1.7,4.3-4.1,4.4C85.4,62.8,85.3,62.8,85.3,62.8L85.3,62.8L85.3,62.8z"/>
<g class="st2">
	<path class="st3" d="M85.3,52.1c3.3-0.2,6.1,2.5,6.3,5.7c0,0.2,0,0.3,0,0.6c0,3.5-2.8,6.3-6.2,6.3c-3.5,0-6.3-2.8-6.3-6.2l0,0
		c-0.2-3.3,2.5-6.1,5.8-6.3C85,52.1,85.1,52.1,85.3,52.1 M85.3,62.8c2.4,0,4.2-1.9,4.2-4.2c0-0.1,0-0.1,0-0.2c0-2.4-1.9-4.2-4.2-4.2
		S81,56.1,81,58.4c-0.1,2.3,1.7,4.3,4,4.4C85,62.8,85.1,62.8,85.3,62.8 M85.2,51.9c-3.5-0.1-6.3,2.6-6.4,6c0,0.2,0,0.3,0,0.4
		c0,3.6,2.9,6.5,6.5,6.5c3.6,0,6.5-2.9,6.5-6.5c0.2-3.4-2.5-6.3-5.9-6.5C85.6,51.9,85.5,51.9,85.2,51.9L85.2,51.9L85.2,51.9z
		 M85.2,62.7c-2.2,0-4.1-1.8-4.1-4c0-0.1,0-0.2,0-0.3c0-2.3,1.8-4.1,4.1-4.1s4.1,1.8,4.1,4.1l0,0c0.1,2.2-1.6,4.2-3.9,4.2
		C85.4,62.7,85.3,62.7,85.2,62.7L85.2,62.7L85.2,62.7z"/>
</g>
<path class="st1" d="M112.6,52.1c-1.8,0-3.5,0.8-4.5,2.4v-2h-1.9v17h2v-7.1c1,1.4,2.6,2.3,4.4,2.3l0,0c3.3,0.1,6.1-2.5,6.2-5.9
	c0-0.1,0-0.3,0-0.3c0.1-3.3-2.5-6-5.7-6.2C113,52.1,112.8,52.1,112.6,52.1L112.6,52.1z M112.6,62.7c-2.4,0-4.3-2-4.3-4.3
	c0-0.1,0-0.1,0-0.2c-0.1-2.3,1.7-4.2,4-4.3c0.1,0,0.3,0,0.3,0c2.2-0.1,4.2,1.6,4.2,3.8c0,0.2,0,0.3,0,0.5c0.1,2.3-1.7,4.3-4,4.4
	C112.8,62.7,112.7,62.7,112.6,62.7L112.6,62.7L112.6,62.7z"/>
<g class="st2">
	<path class="st3" d="M112.6,52.1L112.6,52.1c3.3-0.2,6.1,2.4,6.3,5.6c0,0.2,0,0.3,0,0.5c0.2,3.3-2.5,6.2-5.9,6.3
		c-0.1,0-0.3,0-0.3,0l0,0c-1.8,0-3.5-0.8-4.4-2.3v7.1h-2v-17h1.9v2C109.1,53,110.8,52.1,112.6,52.1 M112.6,62.7
		c2.3,0,4.2-1.9,4.2-4.2c0-0.1,0-0.2,0-0.3c0.2-2.2-1.5-4.2-3.7-4.3c-0.2,0-0.3,0-0.5,0c-2.3-0.1-4.2,1.6-4.3,3.9c0,0.1,0,0.3,0,0.3
		c-0.1,2.4,1.9,4.4,4.2,4.4C112.5,62.7,112.6,62.7,112.6,62.7 M112.6,51.9c-1.6,0-3.2,0.8-4.2,2v-1.5c0-0.1-0.1-0.2-0.2-0.2h-1.9
		c-0.1,0-0.2,0.1-0.2,0.2v17c0,0.1,0.1,0.2,0.2,0.2h2c0.1,0,0.1,0,0.1-0.1l0.1-0.1v-6.6c1,1.2,2.5,2,4.2,2h0.1
		c3.5,0.1,6.3-2.6,6.4-6c0-0.2,0-0.3,0-0.4c0.2-3.4-2.5-6.2-5.9-6.4C113,51.9,112.8,51.9,112.6,51.9L112.6,51.9L112.6,51.9z
		 M112.6,62.5c-2.3,0-4.2-1.9-4.2-4.2c0-0.1,0-0.1,0-0.2c-0.1-2.2,1.6-4.1,3.8-4.2c0.1,0,0.3,0,0.3,0c1.1-0.1,2.2,0.3,3,1.2
		c0.8,0.8,1.2,1.9,1.1,3c0.2,2.2-1.5,4.2-3.7,4.2C112.9,62.6,112.7,62.6,112.6,62.5L112.6,62.5L112.6,62.5z"/>
</g>
</svg>
