<?xml version="1.0" encoding="UTF-8"?><svg id="Layer_1" xmlns="http://www.w3.org/2000/svg" viewBox="0 0 280 280"><defs><style>.cls-1{fill:#fff;}.cls-2{fill:#1e3c52;}.cls-3{fill:#5c4ae6;}.cls-4{opacity:.5;}</style></defs><path class="cls-3" d="M77.73,114.23h-16.03c-8.69,0-15.73,7.04-15.73,15.73s7.04,15.73,15.73,15.73h.33v.33c0,8.69,7.04,15.73,15.72,15.73,8.69,0,15.73-7.04,15.73-15.72h0v-16.07c0-8.69-7.04-15.73-15.73-15.73,0,0-.02,0-.03,0Zm12.22,15.73c-.02,6.74-5.49,12.19-12.22,12.19h-12.21v-12.19c.23-6.75,5.89-12.04,12.64-11.82,6.43,.22,11.6,5.38,11.82,11.82h-.03Zm-28.25,12.19c-6.75,.23-12.41-5.06-12.64-11.82-.23-6.75,5.06-12.41,11.82-12.64,.27,0,.55,0,.82,0h6.16c-3.69,2.99-5.83,7.48-5.83,12.22v12.23h-.33Zm16.03,16.09c-6.75,0-12.23-5.47-12.23-12.22v-.33h12.23c4.75,0,9.24-2.15,12.22-5.84v6.17c0,6.75-5.47,12.21-12.22,12.22Z"/><path class="cls-2" d="M180.42,130.07c-.32-.29-.48-.71-.44-1.14v-11.95h4.24v-2.91h-4.23v-6.33l-3.19,.85v5.48h-3.56v2.91h3.56v11.72c-.11,1.27,.35,2.51,1.25,3.41,.85,.75,1.96,1.16,3.1,1.14h3.11v-2.84h-2.66c-.42,.03-.84-.09-1.18-.34Z"/><g class="cls-4"><path class="cls-1" d="M179.99,107.74v6.33h4.23v2.91h-4.24v11.95c-.04,.43,.12,.85,.44,1.14,.32,.26,.72,.4,1.14,.4h2.75v2.76h-3.29c-1.09,0-2.14-.41-2.95-1.14-.9-.89-1.36-2.14-1.25-3.41v-11.7h-3.56v-2.91h3.56v-5.48l3.19-.85m0-.28h-.12l-3.18,.85c-.13,.03-.22,.14-.22,.27v5.19h-3.27c-.16,0-.28,.13-.28,.28v2.91c0,.16,.13,.28,.28,.28h3.26v11.45c-.1,1.33,.39,2.63,1.34,3.57,.88,.78,2.02,1.21,3.2,1.2h3.26c.16,0,.28-.13,.28-.28v-2.78c-.02-.15-.13-.27-.28-.28h-2.75c-.34,0-.66-.12-.92-.33-.23-.22-.35-.53-.34-.85v-11.68h3.95c.16,0,.28-.13,.28-.28v-2.91c0-.16-.13-.28-.28-.28h-3.94v-6.04c0-.09-.04-.17-.11-.22-.05-.04-.11-.07-.17-.07h.01Z"/></g><path class="cls-2" d="M166.97,129.5c-.93,.65-2.03,1.01-3.17,1.02-1.09,0-2.17-.28-3.12-.81-1.01-.57-1.83-1.42-2.39-2.43h0c-.65-1.18-.97-2.52-.93-3.86-.04-1.25,.25-2.48,.85-3.58,.56-1,1.37-1.83,2.35-2.42,.95-.57,2.04-.87,3.15-.87,1.14,0,2.25,.31,3.22,.91,.98,.63,1.71,1.57,2.07,2.67h3.1c-.27-1.25-.84-2.42-1.65-3.41-.81-.96-1.8-1.73-2.93-2.27-1.09-.54-2.3-.83-3.52-.83-1.69,0-3.36,.38-4.87,1.14-1.51,.76-2.77,1.94-3.61,3.41-1.79,3.43-1.83,7.52-.09,10.99,.78,1.45,1.96,2.63,3.41,3.41,1.47,.77,3.11,1.16,4.77,1.14,1.47,.03,2.92-.31,4.23-.99,1.2-.64,2.22-1.57,2.97-2.72,.69-.97,1.15-2.09,1.34-3.26h-3.12c-.32,1.14-1.04,2.12-2.03,2.77Z"/><g class="cls-4"><path class="cls-1" d="M163.9,113.57h.07c1.22,0,2.43,.29,3.52,.83,1.13,.54,2.13,1.32,2.93,2.27,.81,.99,1.38,2.16,1.65,3.41h-3.07c-.36-1.1-1.09-2.04-2.07-2.67-.94-.59-2.03-.91-3.15-.91h-.08c-1.11,0-2.19,.3-3.14,.87-.99,.6-1.81,1.45-2.36,2.47-.61,1.08-.92,2.31-.9,3.56-.04,1.35,.29,2.68,.93,3.86h0c.57,1.02,1.41,1.86,2.43,2.43,.96,.53,2.03,.81,3.12,.81,1.13-.02,2.24-.37,3.17-1.02,.99-.65,1.71-1.63,2.03-2.77h3.1c-.18,1.18-.63,2.3-1.32,3.28-.74,1.07-1.73,1.94-2.89,2.54-1.25,.65-2.64,.99-4.04,.99h-.3c-1.62,0-3.22-.38-4.66-1.14-1.45-.78-2.63-1.96-3.41-3.41-1.74-3.46-1.7-7.55,.09-10.99,.84-1.47,2.1-2.65,3.61-3.41,1.48-.74,3.12-1.13,4.77-1.14m0-.28c-1.7,.01-3.37,.4-4.9,1.14-1.55,.75-2.84,1.93-3.73,3.41-1.85,3.52-1.89,7.71-.11,11.26,.83,1.49,2.07,2.71,3.58,3.51,1.49,.75,3.13,1.14,4.79,1.14h.3c1.45,0,2.88-.35,4.17-1.02,1.2-.63,2.22-1.53,3-2.64,.71-1.02,1.18-2.18,1.39-3.41,.01-.09-.01-.17-.07-.24-.06-.06-.13-.09-.22-.09h-3.17c-.13,0-.24,.08-.27,.2-.31,1.07-.99,2-1.92,2.61-.88,.62-1.93,.96-3.01,.98-1.05,0-2.07-.26-2.99-.77-.95-.54-1.73-1.32-2.27-2.27h0c-.62-1.14-.93-2.42-.9-3.72-.02-1.19,.28-2.37,.85-3.41,.54-.97,1.32-1.78,2.27-2.34,.9-.54,1.93-.83,2.99-.83h.08c1.06,0,2.1,.3,3,.86,.91,.6,1.6,1.49,1.94,2.52,.04,.12,.15,.19,.27,.19h3.1c.08,0,.16-.05,.22-.11,.06-.06,.08-.15,.06-.24-.29-1.29-.87-2.49-1.7-3.51-.86-.95-1.9-1.71-3.07-2.23-1.14-.57-2.4-.87-3.68-.87v-.12Z"/></g><path class="cls-2" d="M215.91,114.39c-1.11,.49-2.02,1.35-2.57,2.44v-2.79h-2.94v19.13h3.18v-10.67c-.02-1.06,.24-2.11,.75-3.04,.47-.87,1.18-1.59,2.04-2.08,.86-.49,1.84-.76,2.83-.78h2.27l.08-2.95h-2.02c-1.25-.01-2.48,.24-3.62,.75Z"/><g class="cls-4"><path class="cls-1" d="M219.45,113.64h2.08l-.08,2.95h-2.27c-.99,.02-1.97,.29-2.83,.78-.86,.49-1.57,1.21-2.04,2.08-.51,.93-.77,1.98-.75,3.04v10.67h-3.18v-19.1h2.94v2.79c.54-1.09,1.45-1.95,2.57-2.44,1.12-.5,2.32-.75,3.54-.75m0-.28c-1.26,0-2.51,.26-3.66,.77-.85,.37-1.59,.95-2.15,1.69v-1.78c0-.12-.07-.22-.18-.26-.03-.01-.07-.01-.1,0-.05-.01-.1-.01-.15,0h-2.84c-.16,0-.28,.13-.28,.28v19.07c0,.16,.13,.28,.28,.28h3.18c.16,0,.28-.13,.28-.28v-10.67c-.02-1.02,.22-2.02,.72-2.91,.45-.82,1.12-1.5,1.93-1.98,.82-.47,1.75-.72,2.69-.74h2.27c.15,0,.28-.12,.28-.27l.08-2.95c0-.08-.03-.15-.08-.2-.05-.06-.13-.09-.2-.09h-2.08v.03Z"/></g><path class="cls-2" d="M125.93,105.54l.11,11.72c-1.54-2.34-4.16-3.73-6.95-3.69-1.79-.03-3.55,.42-5.11,1.28-1.5,.83-2.73,2.07-3.56,3.57-.87,1.6-1.3,3.39-1.27,5.2-.03,1.79,.41,3.56,1.27,5.12,.84,1.48,2.07,2.69,3.56,3.51,1.58,.84,3.34,1.26,5.12,1.22,1.81,.02,3.59-.41,5.19-1.26,1.52-.81,2.78-2.02,3.65-3.51,.89-1.56,1.35-3.33,1.32-5.12l-.15-18.09-3.18,.05Zm.22,17.93c.02,1.25-.37,2.63-1,3.7-.6,1.03-1.48,1.89-2.52,2.47-1.08,.6-2.3,.91-3.53,.89-1.19,.01-2.37-.29-3.41-.89-1.02-.58-1.85-1.43-2.41-2.45-.59-1.09-.89-2.32-.87-3.56-.03-1.29,.27-2.57,.87-3.72,.55-1.04,1.39-1.9,2.42-2.48,1.07-.59,2.28-.9,3.5-.87,1.86-.08,3.67,.6,5.01,1.89,1.3,1.34,2,3.15,1.94,5.02h0Z"/><g class="cls-4"><path class="cls-1" d="M129.11,105.54l.15,18.09c.03,1.8-.43,3.57-1.32,5.12-.86,1.49-2.13,2.7-3.65,3.51-1.56,.81-3.29,1.23-5.04,1.22h-.31c-1.73,.02-3.44-.4-4.96-1.22-1.49-.82-2.72-2.03-3.56-3.51-.87-1.57-1.3-3.33-1.27-5.12-.03-1.82,.41-3.61,1.27-5.2,.83-1.5,2.06-2.74,3.56-3.57,1.52-.84,3.22-1.28,4.95-1.28h.27c2.75,0,5.31,1.39,6.82,3.69l-.11-11.72h3.18m-10.13,24.99h.2c1.19,0,2.36-.31,3.41-.89,1.05-.58,1.92-1.43,2.52-2.47,.63-1.07,.96-2.3,.94-3.54v-.16c.09-1.85-.57-3.67-1.83-5.03-1.34-1.29-3.15-1.97-5.01-1.89h-.1c-1.19,0-2.37,.3-3.41,.87-1.03,.57-1.87,1.43-2.42,2.48-.6,1.14-.91,2.42-.87,3.72-.02,1.24,.28,2.47,.87,3.56,.56,1.03,1.39,1.88,2.41,2.45,1.02,.58,2.18,.89,3.35,.9m10.13-25.28h-3.18c-.08,0-.15,.03-.2,.09-.06,.05-.09,.12-.08,.19l.06,10.9c-1.6-1.96-4-3.1-6.53-3.1h-.27c-1.78,0-3.53,.45-5.09,1.32-1.54,.86-2.81,2.14-3.66,3.68-.9,1.63-1.35,3.48-1.32,5.34-.03,1.84,.42,3.65,1.32,5.26,.86,1.53,2.12,2.78,3.66,3.62,1.56,.85,3.31,1.29,5.09,1.3h.31c1.81,0,3.58-.45,5.18-1.3,1.56-.84,2.87-2.09,3.76-3.62,.91-1.6,1.38-3.42,1.35-5.26l-.15-18.09c0-.15-.13-.28-.28-.28l.05-.05Zm-10.13,24.99c-1.13,0-2.24-.3-3.22-.86-.96-.56-1.74-1.37-2.27-2.34-.57-1.04-.86-2.22-.84-3.41-.03-1.24,.26-2.48,.84-3.58,.52-.99,1.3-1.82,2.27-2.37,1-.54,2.12-.83,3.26-.83h.09c1.78-.08,3.52,.57,4.82,1.8,1.24,1.3,1.91,3.03,1.86,4.83v.16c.02,1.2-.29,2.37-.9,3.41-.58,.99-1.42,1.8-2.42,2.36-1.01,.56-2.15,.85-3.31,.85h-.19Z"/></g><path class="cls-2" d="M181.5,153.36c0,3.41-2.57,5.2-5.44,5.24s-5.19-1.78-5.19-5.46v-11.04h-3.15v11.04c0,5.68,4.16,8.42,7.95,8.42,2.47,.17,4.82-1.06,6.09-3.18v2.82h2.94v-19.1h-3.2v11.27Z"/><g class="cls-4"><path class="cls-1" d="M184.73,142.09v19.1h-2.95v-2.82c-1.27,2.12-3.62,3.35-6.09,3.18-3.76,0-7.95-2.72-7.95-8.42v-11.04h3.15v11.04c0,3.68,2.27,5.46,5.19,5.46s5.43-1.77,5.43-5.24v-11.27h3.18m0-.28h-3.18c-.16,0-.28,.13-.28,.28v11.27c0,3.61-2.78,4.93-5.16,4.95-2.37,.02-4.91-1.36-4.91-5.18v-11.04c0-.16-.13-.28-.28-.28h-3.15c-.16,0-.28,.13-.28,.28v11.04c0,5.68,4.12,8.7,8.2,8.7,2.23,.1,4.39-.82,5.86-2.5v1.85c0,.16,.13,.28,.28,.28h2.95c.16,0,.28-.13,.28-.28v-19.1c-.02-.15-.13-.27-.28-.28h-.06Z"/></g><path class="cls-2" d="M142.26,141.67c-2.49-.19-4.88,1.04-6.17,3.18v-2.75h-2.94v19.09h3.18v-10.67c-.13-3.13,2.31-5.78,5.45-5.9,.06,0,.12,0,.18,0h2.27v-2.94h-1.97Z"/><g class="cls-4"><path class="cls-1" d="M144.21,141.67v2.94h-2.27c-3.14,.03-5.66,2.6-5.63,5.73,0,.06,0,.12,0,.18v10.67h-3.18v-19.09h2.93v2.75c1.29-2.14,3.68-3.37,6.17-3.18h1.94m0-.28h-1.94c-2.24-.12-4.41,.8-5.88,2.5v-1.78c0-.16-.13-.28-.28-.28h-2.94c-.16,0-.28,.13-.28,.28v19.09c0,.16,.13,.28,.28,.28h3.18c.16,0,.28-.13,.28-.28v-10.67c-.18-2.96,2.08-5.5,5.03-5.67,.1,0,.2,0,.3,0h2.27c.16,0,.28-.13,.28-.28v-2.89c0-.16-.13-.28-.28-.28h-.02Z"/></g><rect class="cls-2" x="224.36" y="114.07" width="3.18" height="19.1"/><g class="cls-4"><path class="cls-1" d="M227.59,114.07v19.1h-3.18v-19.1h3.18m0-.28h-3.19c-.16,0-.28,.13-.28,.28v19.1c0,.16,.13,.28,.28,.28h3.19c.16,0,.28-.13,.28-.28v-19.1c-.02-.15-.13-.27-.28-.28Z"/></g><polygon class="cls-2" points="224.17 110.5 227.74 110.5 227.74 106.55 224.13 106.55 224.17 110.5"/><g class="cls-4"><path class="cls-1" d="M227.74,106.55v3.95h-3.56v-3.95h3.6m0-.28h-3.6c-.15,0-.28,.11-.28,.26,0,0,0,.02,0,.02v3.95c.02,.14,.14,.25,.28,.25h3.57c.16,0,.28-.13,.28-.28v-3.92c0-.15-.11-.28-.26-.28,0,0-.02,0-.02,0h.03Z"/></g><path class="cls-2" d="M150.46,118.4c-.83-1.49-2.05-2.72-3.53-3.56-1.59-.87-3.37-1.3-5.18-1.27-1.78-.03-3.54,.41-5.1,1.27-1.5,.84-2.73,2.08-3.56,3.58-.87,1.59-1.31,3.39-1.28,5.2-.03,1.79,.41,3.56,1.28,5.12,.85,1.49,2.1,2.7,3.61,3.51,3.2,1.68,7.02,1.68,10.22,0,1.49-.81,2.73-2.03,3.57-3.51,.88-1.56,1.33-3.34,1.3-5.14,.02-1.82-.44-3.62-1.33-5.21Zm-2.77,8.77c-.57,1.03-1.42,1.88-2.44,2.47-1.07,.6-2.28,.91-3.51,.89-1.22,.02-2.42-.29-3.48-.89-1.01-.59-1.84-1.44-2.4-2.47-.59-1.09-.9-2.31-.87-3.56-.02-1.29,.28-2.56,.87-3.7,.55-1.04,1.39-1.9,2.42-2.48,2.17-1.17,4.78-1.17,6.95,0,1.03,.58,1.88,1.44,2.44,2.48h0c.61,1.14,.92,2.41,.89,3.7,.03,1.24-.27,2.47-.87,3.56Z"/><g class="cls-4"><path class="cls-1" d="M141.92,113.57c1.75,0,3.47,.43,5.01,1.27,1.49,.84,2.71,2.07,3.54,3.56,.87,1.6,1.32,3.39,1.28,5.21,.04,1.8-.41,3.57-1.3,5.14-.83,1.48-2.05,2.69-3.53,3.51-3.2,1.68-7.02,1.68-10.22,0-1.49-.81-2.73-2.03-3.57-3.51-.87-1.57-1.31-3.33-1.28-5.12-.03-1.82,.41-3.61,1.28-5.2,.83-1.5,2.06-2.74,3.56-3.58,1.51-.84,3.21-1.27,4.94-1.27h.34m-.3,16.96h.23c1.19,0,2.37-.31,3.41-.9,1.02-.58,1.87-1.44,2.44-2.47,.6-1.09,.91-2.31,.89-3.56,.03-1.29-.27-2.57-.89-3.7h0c-.57-1.04-1.41-1.9-2.44-2.48-2.17-1.17-4.78-1.17-6.95,0-1.03,.58-1.87,1.44-2.42,2.48-.6,1.14-.9,2.42-.87,3.7-.02,1.24,.28,2.47,.87,3.56,.56,1.02,1.39,1.88,2.4,2.47,1.04,.59,2.21,.9,3.41,.9m.3-17.25h-.34c-1.78,0-3.53,.45-5.09,1.32-1.54,.86-2.8,2.14-3.66,3.68-.89,1.64-1.34,3.48-1.32,5.34-.07,1.84,.34,3.67,1.19,5.31,.86,1.53,2.14,2.78,3.68,3.62,3.29,1.72,7.22,1.72,10.51,0,1.54-.84,2.81-2.1,3.68-3.62,.91-1.61,1.37-3.43,1.33-5.27,.03-1.87-.42-3.71-1.32-5.35-.85-1.54-2.12-2.8-3.66-3.66-1.57-.86-3.34-1.32-5.14-1.32l.12-.05Zm-.3,16.96c-1.13,0-2.24-.3-3.22-.86-.96-.56-1.74-1.38-2.27-2.35-.57-1.04-.86-2.22-.84-3.41-.03-1.24,.26-2.48,.84-3.58,.51-.99,1.3-1.81,2.27-2.36,2.09-1.12,4.59-1.12,6.68,0,.96,.56,1.75,1.38,2.27,2.36v.07c.56,1.08,.84,2.28,.82,3.5,.02,1.19-.28,2.37-.85,3.41-.56,.98-1.36,1.79-2.34,2.35-.99,.56-2.11,.86-3.25,.86h-.11Z"/></g><path class="cls-2" d="M203.39,114.06v3.41c-.68-1.23-1.72-2.23-2.97-2.87-1.27-.69-2.69-1.04-4.14-1.03-1.74-.06-3.47,.34-5.02,1.14-1.5,.81-2.74,2.02-3.57,3.51-.89,1.63-1.34,3.46-1.3,5.32-.07,1.89,.38,3.76,1.3,5.41,.84,1.44,2.07,2.62,3.53,3.41,1.56,.79,3.29,1.18,5.04,1.14,1.41,0,2.81-.32,4.08-.94,1.29-.61,2.36-1.59,3.07-2.83l-.08,3.41h3.15v-19.05h-3.1Zm-.8,12.86c-.49,1.07-1.28,1.98-2.27,2.61-1.13,.69-2.44,1.04-3.76,.99-1.22,.02-2.43-.27-3.51-.85-1.03-.56-1.89-1.4-2.47-2.42-.6-1.09-.91-2.31-.89-3.56-.03-1.32,.27-2.63,.89-3.81,.56-1.05,1.41-1.91,2.44-2.48,1.07-.58,2.28-.87,3.5-.85,1.31-.04,2.6,.28,3.73,.94,1,.61,1.82,1.47,2.36,2.51,.55,1.05,.83,2.22,.82,3.41-.01,1.21-.3,2.41-.84,3.5Z"/><g class="cls-4"><path class="cls-1" d="M196.03,113.56h.28c1.44,0,2.85,.35,4.11,1.03,1.25,.65,2.28,1.65,2.97,2.87v-3.41h3.11v19.11h-3.15l.08-3.41c-.71,1.23-1.78,2.22-3.07,2.83-1.27,.62-2.66,.95-4.08,.94h-.16c-1.7,0-3.38-.41-4.9-1.19-1.47-.79-2.7-1.97-3.54-3.41-.9-1.62-1.34-3.45-1.3-5.31-.04-1.85,.41-3.69,1.3-5.32,.82-1.5,2.05-2.73,3.54-3.56,1.46-.78,3.1-1.19,4.76-1.19m.39,3h-.1c-1.19,0-2.36,.29-3.41,.85-1.01,.57-1.85,1.41-2.4,2.43-.61,1.17-.92,2.48-.89,3.81-.02,1.24,.28,2.47,.89,3.56,.58,1.02,1.43,1.86,2.47,2.42,1.05,.56,2.22,.86,3.41,.85h.32c1.25,0,2.48-.34,3.54-1,.99-.63,1.78-1.54,2.27-2.61,.52-1.09,.79-2.29,.78-3.5,0-1.19-.27-2.36-.82-3.41-.54-1.04-1.36-1.9-2.36-2.51-1.07-.62-2.29-.95-3.53-.95h-.19m-.39-3.28c-1.71,0-3.39,.43-4.9,1.23-1.55,.83-2.82,2.09-3.68,3.62-.91,1.67-1.37,3.56-1.33,5.46-.05,1.9,.41,3.77,1.33,5.43,.86,1.5,2.13,2.74,3.66,3.56,1.55,.81,3.27,1.23,5.02,1.24h.17c1.45,0,2.89-.34,4.19-.98,1.03-.48,1.94-1.2,2.64-2.1l-.06,2.43c0,.08,.02,.16,.08,.22,.06,.05,.13,.08,.2,.08h3.15c.16,0,.28-.13,.28-.28v-19.05c0-.16-.13-.28-.28-.28h-3.06c-.15,0-.28,.13-.28,.28v2.45c-.67-.9-1.54-1.64-2.54-2.16-1.31-.7-2.77-1.07-4.25-1.07l-.34-.08Zm.39,3.57h.19c1.2,0,2.38,.31,3.41,.92,.96,.57,1.75,1.4,2.27,2.39,.52,1.01,.79,2.14,.78,3.28,0,1.18-.25,2.34-.75,3.41-.5,1.04-1.29,1.9-2.27,2.5-1.03,.63-2.21,.96-3.41,.95h-.32c-1.14,0-2.27-.28-3.27-.82-.98-.52-1.8-1.31-2.35-2.27-.58-1.04-.87-2.22-.85-3.41-.03-1.28,.26-2.55,.85-3.68,.52-.99,1.3-1.81,2.27-2.36,1-.54,2.12-.82,3.26-.82h.1l.08-.09Z"/></g><path class="cls-2" d="M126.3,142.09v3.31c-1.6-2.4-4.3-3.83-7.18-3.81-5.33-.17-9.79,4.01-9.97,9.34,0,.24,0,.48,0,.72-.2,5.27,3.91,9.71,9.19,9.91,.25,0,.49,0,.74,0,2.79,0,5.39-1.36,6.99-3.65v2.06c0,4.66-2.27,6.71-6.63,6.71s-5.75-2.41-5.86-3.41h-3.19c.11,1.4,1.36,6.36,9.09,6.36s9.77-4.59,9.77-9.67v-17.87h-2.94Zm-.24,9.9c-.13,3.73-3.24,6.67-6.98,6.58-3.64,.1-6.67-2.77-6.77-6.41,0-.17,0-.34,0-.51-.24-3.66,2.53-6.82,6.19-7.06,.21-.01,.42-.02,.63-.01,3.76-.07,6.87,2.92,6.94,6.69,0,.13,0,.25,0,.38l-.02,.34Z"/><g class="cls-4"><path class="cls-1" d="M119.18,141.59c2.86,0,5.53,1.43,7.12,3.81v-3.31h2.94v17.87c0,5.08-2.14,9.7-9.82,9.7s-8.93-4.96-9.09-6.36h3.19c.11,.97,1.48,3.41,5.86,3.41s6.6-2.06,6.63-6.71v-2.09c-1.59,2.28-4.19,3.65-6.98,3.65h0c-5.27,.21-9.72-3.89-9.93-9.17,0-.25-.01-.49,0-.74-.22-5.33,3.92-9.83,9.25-10.05,.24,0,.48-.01,.72,0h0m.11,16.97c3.67,0,6.69-2.91,6.82-6.58v-.34c.14-3.76-2.8-6.92-6.56-7.06-.13,0-.25,0-.38,0-3.66-.11-6.72,2.77-6.83,6.44,0,.21,0,.42,.01,.63-.18,3.63,2.61,6.73,6.25,6.91,.17,0,.34,.01,.51,0h.2m-.11-17.26h0c-5.49-.15-10.07,4.17-10.23,9.67,0,.22,0,.45,0,.67-.2,5.44,4.04,10.02,9.48,10.22,.25,0,.49,0,.74,0,2.58,0,5.03-1.13,6.7-3.1v1.23c0,4.39-2.06,6.43-6.35,6.43s-5.49-2.27-5.58-3.12c-.02-.14-.14-.25-.28-.25h-3.22c-.08,0-.16,.03-.22,.09-.05,.06-.08,.14-.07,.22,0,.68,.81,6.62,9.33,6.62,6.61,0,10.1-3.41,10.1-9.99v-17.9c0-.07-.03-.14-.08-.19-.05-.06-.13-.09-.2-.09h-2.95c-.15,0-.28,.13-.28,.28v2.44c-1.68-2.04-4.18-3.22-6.82-3.23h-.08Zm.11,16.97h-.2c-3.51,.07-6.41-2.71-6.48-6.22,0-.14,0-.28,0-.42-.25-3.5,2.38-6.55,5.89-6.8,.21-.01,.41-.02,.62-.01,1.8-.05,3.54,.63,4.83,1.9,1.27,1.31,1.95,3.07,1.9,4.89v.34c-.09,3.51-2.97,6.31-6.49,6.29l-.07,.03Z"/></g><path class="cls-2" d="M155,141.58c-5.34-.17-9.8,4.01-9.98,9.35,0,.24,0,.47,0,.71,0,5.51,4.46,9.98,9.97,9.98,5.51,0,9.98-4.46,9.98-9.97h0c.27-5.29-3.8-9.79-9.08-10.06-.3-.02-.6-.02-.9,0Zm0,17.17c-3.73,.01-6.76-3-6.77-6.73,0-.12,0-.25,0-.37,0-3.76,3.05-6.82,6.82-6.82s6.82,3.05,6.82,6.82c.16,3.76-2.76,6.94-6.53,7.1-.13,0-.25,0-.38,0h.03Z"/><g class="cls-4"><path class="cls-1" d="M155,141.58c5.28-.23,9.75,3.87,9.98,9.16,.01,.3,.01,.6,0,.9,0,5.51-4.46,9.98-9.97,9.98-5.51,0-9.98-4.46-9.98-9.97h0c-.22-5.34,3.93-9.84,9.27-10.06,.24,0,.47-.01,.71,0m0,17.17c3.76,0,6.82-3.05,6.82-6.81,0-.1,0-.19,0-.29,0-3.76-3.05-6.82-6.82-6.82s-6.82,3.05-6.82,6.82c-.19,3.72,2.67,6.9,6.39,7.09,.12,0,.25,0,.37,0m0-17.45c-5.5-.15-10.08,4.19-10.23,9.69,0,.22,0,.43,0,.65,0,5.67,4.59,10.26,10.26,10.26s10.26-4.59,10.26-10.26c.27-5.44-3.93-10.07-9.37-10.33-.29-.01-.57-.02-.86,0h-.07Zm0,17.17c-3.55,.03-6.46-2.82-6.49-6.37,0-.15,0-.3,.01-.44,0-3.6,2.91-6.51,6.51-6.51s6.51,2.91,6.51,6.51h0c.17,3.59-2.6,6.64-6.2,6.81-.12,0-.23,0-.35,0h0Z"/></g><path class="cls-2" d="M198.76,141.59c-2.88-.02-5.58,1.41-7.18,3.81v-3.29h-2.95v27.2h3.18v-11.44c1.59,2.31,4.22,3.69,7.02,3.69h0c5.36,.13,9.82-4.11,9.95-9.48,0-.2,0-.41,0-.61,.2-5.25-3.89-9.68-9.15-9.88-.29-.01-.57,0-.86,0Zm0,16.97c-3.83,.03-6.96-3.06-6.99-6.89,0-.07,0-.14,0-.21-.14-3.66,2.71-6.75,6.37-6.89,.19,0,.39,0,.58,0,3.57-.2,6.62,2.54,6.82,6.11,.01,.26,.01,.52,0,.77,.19,3.72-2.67,6.9-6.39,7.09-.12,0-.24,0-.36,0h-.03Z"/><g class="cls-4"><path class="cls-1" d="M198.7,141.59h.06c5.25-.27,9.73,3.76,10,9.01,.01,.29,.02,.57,0,.86,.21,5.36-3.96,9.88-9.32,10.09-.2,0-.41,0-.61,0h0c-2.84,.03-5.51-1.36-7.11-3.7v11.44h-3.18v-27.2h2.95v3.29c1.59-2.38,4.26-3.8,7.12-3.81m.09,16.97c3.73,0,6.75-3.01,6.76-6.74,0-.12,0-.24,0-.36,.23-3.57-2.47-6.65-6.04-6.88-.26-.02-.52-.02-.77,0-3.66-.18-6.77,2.64-6.95,6.3,0,.19-.01,.39,0,.58-.09,3.83,2.95,7.01,6.78,7.1,.07,0,.14,0,.21,0m-.09-17.26c-2.64,0-5.14,1.19-6.82,3.23v-2.43c0-.16-.13-.28-.28-.28h-2.95c-.16,0-.28,.13-.28,.28v27.2c0,.16,.13,.28,.28,.28h3.18c.08,0,.15-.03,.2-.09,.05-.05,.08-.12,.08-.19v-10.59c1.67,1.96,4.11,3.1,6.68,3.12h.07c5.5,.15,10.08-4.19,10.23-9.69,0-.23,0-.46,0-.69,.22-5.39-3.97-9.94-9.37-10.16-.29-.01-.57-.01-.86,0h-.16Zm.09,16.98c-3.68,.03-6.68-2.93-6.7-6.61,0-.07,0-.14,0-.21-.14-3.5,2.58-6.46,6.09-6.6,.19,0,.39,0,.58,0,1.79-.07,3.53,.61,4.81,1.86,1.22,1.29,1.87,3.02,1.81,4.79,.21,3.54-2.49,6.59-6.03,6.81-.14,0-.29,.01-.43,.01l-.11-.06Z"/></g></svg>