<?xml version="1.0" encoding="utf-8"?>
<!-- Generator: Adobe Illustrator 25.1.0, SVG Export Plug-In . SVG Version: 6.00 Build 0)  -->
<svg version="1.1" id="Layer_1" xmlns="http://www.w3.org/2000/svg" xmlns:xlink="http://www.w3.org/1999/xlink" x="0px" y="0px"
	 viewBox="0 0 200 100" style="enable-background:new 0 0 200 100;" xml:space="preserve">
<style type="text/css">
	.st0{fill-rule:evenodd;clip-rule:evenodd;fill:#DE484E;}
</style>
<desc>Created with Sketch.</desc>
<g id="Exports">
	<g id="Homepage-New" transform="translate(-503.000000, -3963.000000)">
		<g id="Group-30" transform="translate(539.000000, 4049.000000)">
			<path id="Fill-1" class="st0" d="M48.7-48.6c-1.3-0.9-2.8-1-4.3-1h-1.9v10.7h2.2c1.5,0,2.9-0.1,4.2-1.1c1.3-1,2.1-2.7,2.1-4.3
				C51-46,50.1-47.6,48.7-48.6 M49.3-38.8c-1.2,0.8-2.9,1.1-4.3,1.1h-3.8v-13.1H45c1.4,0,3.1,0.3,4.3,1.1c1.9,1.2,3,3.3,3,5.5
				C52.3-42,51.1-40,49.3-38.8"/>
			<path id="Fill-3" class="st0" d="M55.5-43.4v5.7h-1.2v-9.7h1.2v1.4h0c0.5-1.2,1.5-1.6,2.7-1.6v1.3C56.5-46.2,55.5-45.1,55.5-43.4
				"/>
			<path id="Fill-5" class="st0" d="M64-46.5c-1.9,0-3.5,1.4-3.8,3.3h7.6C67.5-45.1,66-46.5,64-46.5 M69.1-42.1h-8.8
				c0.1,1.9,1.9,3.5,3.8,3.5c1.5,0,2.9-0.9,3.5-2.3h1.3c-0.7,2-2.6,3.4-4.8,3.4c-2.8,0-5.1-2.3-5.1-5.1c0-2.8,2.3-5.1,5-5.1
				c2.8,0,5.1,2.4,5.1,5.2C69.1-42.3,69.1-42.2,69.1-42.1"/>
			<path id="Fill-7" class="st0" d="M75.8-46.5c-2.3,0-4,1.7-4,4c0,2.3,1.7,3.9,4,3.9c2.2,0,3.9-1.8,3.9-4
				C79.6-44.7,78-46.5,75.8-46.5L75.8-46.5z M79.6-37.7v-1.7h0c-0.9,1.3-2.3,1.9-3.8,1.9c-2.9,0-5.2-2.2-5.2-5.1
				c0-2.9,2.4-5.1,5.2-5.1c1.5,0,2.9,0.6,3.8,2h0v-1.7h1.2v9.7H79.6z"/>
			<path id="Fill-9" class="st0" d="M96.1-37.7v-5.6c0-1.7-0.7-3.2-2.6-3.2s-2.6,1.5-2.6,3.2v5.6h-1.2v-5.6c0-1.7-0.7-3.2-2.6-3.2
				c-1.9,0-2.6,1.5-2.6,3.2v5.6h-1.2v-9.7h1.2v1.1c0.6-0.9,1.6-1.4,2.6-1.4c1.4,0,2.6,0.7,3.3,1.9c0.7-1.2,1.8-1.9,3.3-1.9
				c2.5,0,3.9,1.8,3.9,4.2v5.8H96.1z"/>
			<path id="Fill-11" class="st0" d="M44.4-31.7h-0.9v3.6h0.8c1.3,0,2.7-0.2,2.7-1.8C47.1-31.5,45.7-31.7,44.4-31.7 M48.3-26.9
				c-1.1,1-2.3,1-3.7,1h-1v5h-2.4V-34h3.5c1.4,0,2.6,0.1,3.7,1c0.9,0.8,1.2,1.8,1.2,3S49.2-27.7,48.3-26.9"/>
			<path id="Fill-13" class="st0" d="M53.3-26.4v5.5h-2.4v-9.8h2.2v0.9h0c0.7-1,1.1-1.2,2.3-1.2v2.3C53.9-28.7,53.3-27.8,53.3-26.4"
				/>
			<path id="Fill-15" class="st0" d="M60.7-28.9c-1.7,0-2.9,1.5-2.9,3.1c0,1.6,1.2,3.1,2.9,3.1c1.7,0,2.9-1.4,2.9-3
				C63.5-27.3,62.4-28.9,60.7-28.9 M60.7-20.5c-2.9,0-5.2-2.4-5.2-5.2c0-2.9,2.3-5.3,5.2-5.3s5.2,2.3,5.2,5.2
				C65.9-22.8,63.7-20.5,60.7-20.5"/>
			<path id="Fill-17" class="st0" d="M72.2-28.9c-1.6,0-2.9,1.5-2.9,3c0,1.6,1.2,3.2,2.9,3.2c1.7,0,2.9-1.5,2.9-3.1
				C75.1-27.4,73.9-28.9,72.2-28.9L72.2-28.9z M75.1-20.9v-1.2h0c-0.7,1-1.9,1.5-3.1,1.5c-2.9,0-5-2.4-5-5.2c0-2.1,1.1-4,3.1-4.8
				c0.6-0.3,1.3-0.4,1.9-0.4c1.2,0,2.1,0.3,3,1.2V-34h2.4v13.1H75.1z"/>
			<path id="Fill-19" class="st0" d="M85.5-20.9v-1h0c-0.7,0.9-1.4,1.3-2.5,1.3c-1.3,0-2.6-0.5-3.3-1.6c-0.7-1-0.7-2.2-0.7-3.4v-5.2
				h2.4v5c0,1.4,0.3,3,2.1,3c1.6,0,2-1.6,2-3v-5h2.4v9.8H85.5z"/>
			<path id="Fill-21" class="st0" d="M94.6-20.5c-2.9,0-5.2-2.4-5.2-5.3c0-2.9,2.3-5.2,5.2-5.2c2.3,0,4.2,1.4,4.9,3.6h-2.7
				c-0.5-0.9-1.2-1.4-2.3-1.4c-1.8,0-2.9,1.4-2.9,3.1c0,1.7,1.2,3.1,3,3.1c1,0,1.7-0.6,2.2-1.4h2.7C98.7-21.9,96.9-20.5,94.6-20.5"
				/>
			<polygon id="Fill-23" class="st0" points="103.9,-28.6 103.9,-20.9 101.6,-20.9 101.6,-28.6 100.4,-28.6 100.4,-30.7 
				101.6,-30.7 101.6,-34 103.9,-34 103.9,-30.7 105.3,-30.7 105.3,-28.6 			"/>
			<path id="Fill-25" class="st0" d="M106.3-20.9h2.4v-9.8h-2.4V-20.9z M106.3-31.8h2.4V-34h-2.4V-31.8z"/>
			<path id="Fill-27" class="st0" d="M115.3-28.9c-1.7,0-2.9,1.5-2.9,3.1c0,1.6,1.2,3.1,2.9,3.1c1.7,0,2.9-1.4,2.9-3
				C118.2-27.3,117-28.9,115.3-28.9 M115.3-20.5c-2.9,0-5.2-2.4-5.2-5.2c0-2.9,2.3-5.3,5.2-5.3c2.9,0,5.2,2.3,5.2,5.2
				C120.5-22.8,118.3-20.5,115.3-20.5"/>
			<path id="Fill-28" class="st0" d="M128.3-20.9v-4.9c0-1.4-0.2-3.2-2-3.2c-0.6,0-1.3,0.4-1.6,0.9c-0.4,0.6-0.4,1.7-0.4,2.5v4.7
				h-2.4v-9.8h2.2v0.9c0.8-0.8,1.6-1.2,2.7-1.2c1.1,0,2.3,0.5,3,1.4c0.8,0.9,0.9,2.2,0.9,3.4v5.5H128.3z"/>
			<path id="Fill-29" class="st0" d="M12.1-56.9c-11.7,0-21.2,9.5-21.2,21.2c0,11.7,9.5,21.2,21.2,21.2v-13.5l7.7-7.8l-7.2-7.2
				l2.6-2.6l9.8,9.8l-9.3,9.3v11.7c10-1.7,17.6-10.4,17.6-20.9C33.3-47.4,23.8-56.9,12.1-56.9L12.1-56.9z M13.4-35.7l-9.8,9.8
				L1-28.5l7.2-7.2L1-42.9l2.6-2.6L13.4-35.7z"/>
		</g>
	</g>
</g>
</svg>
