<?xml version="1.0" encoding="utf-8"?>
<!-- Generator: Adobe Illustrator 25.1.0, SVG Export Plug-In . SVG Version: 6.00 Build 0)  -->
<svg version="1.1" id="Layer_1" xmlns="http://www.w3.org/2000/svg" xmlns:xlink="http://www.w3.org/1999/xlink" x="0px" y="0px"
	 viewBox="0 0 200 100" style="enable-background:new 0 0 200 100;" xml:space="preserve">
<style type="text/css">
	.st0{fill-rule:evenodd;clip-rule:evenodd;}
</style>
<desc>Created with Sketch.</desc>
<g id="Symbols">
	<g id="logo">
		<g>
			<path id="Shape" class="st0" d="M87,47.4c-1.3,0.8-3,1.1-4.6,1.1h-4.1V34.7h4.1c1.4,0,3.3,0.3,4.6,1.1c1.9,1.3,3.2,3.5,3.2,5.9
				C90.2,43.9,88.9,46.1,87,47.4z M86.3,36.9c-1.4-1-3-1.1-4.6-1.1h-2.1v11.4h2.4c1.6,0,3.2-0.2,4.4-1.1c1.4-1.1,2.2-2.9,2.2-4.6
				C88.7,39.8,87.9,38,86.3,36.9z"/>
			<path id="Path" class="st0" d="M93.5,42.5v6h-1.3V38.3h1.3v1.4c0.6-1.3,1.6-1.6,2.9-1.7v1.4C94.6,39.6,93.5,40.7,93.5,42.5z"/>
			<path id="Shape_1_" class="st0" d="M107.9,43.9h-9.4c0.2,2.1,1.9,3.7,4,3.7c1.6,0,3.2-1,3.6-2.4h1.4c-0.8,2.1-2.9,3.7-5.1,3.7
				c-3,0-5.4-2.4-5.4-5.4c0-2.9,2.4-5.4,5.4-5.4c3,0,5.4,2.5,5.4,5.6C107.9,43.6,107.9,43.7,107.9,43.9z M102.5,39.1
				c-2.1,0-3.6,1.4-4,3.5h8.1C106.2,40.7,104.6,39.1,102.5,39.1z"/>
			<path id="Shape_2_" class="st0" d="M119,48.5v-1.7c-1,1.4-2.4,2.1-4,2.1c-3,0-5.6-2.4-5.6-5.4c0-3,2.5-5.4,5.6-5.4
				c1.6,0,3.2,0.6,4,2.1v-1.7h1.3v10.3H119V48.5z M115.1,39.1c-2.4,0-4.1,1.7-4.1,4.3c0,2.4,1.7,4.1,4.1,4.1c2.4,0,4.1-1.9,4.1-4.1
				C119.2,41.2,117.3,39.1,115.1,39.1z"/>
			<path id="Path_1_" class="st0" d="M136.6,48.5v-5.9c0-1.7-0.8-3.3-2.9-3.3c-2.1,0-2.9,1.6-2.9,3.3v5.9h-1.3v-5.9
				c0-1.7-0.8-3.3-2.9-3.3c-2.1,0-2.9,1.6-2.9,3.3v5.9h-1.3V38.3h1.3v1.1c0.6-1,1.7-1.4,2.9-1.4c1.4,0,2.7,0.6,3.5,1.9
				c0.8-1.3,1.9-1.9,3.5-1.9c2.7,0,4.1,1.9,4.1,4.5v6H136.6z"/>
			<path id="Shape_3_" class="st0" d="M85.9,60c-1.3,1.1-2.4,1.1-4,1.1h-1.1v5.2h-2.5v-14h3.6c1.6,0,2.7,0,4,1.1
				c1,0.8,1.3,1.9,1.3,3.2C87.3,58.1,86.8,59.2,85.9,60z M81.9,54.9h-1v3.8h0.8c1.3,0,2.9-0.2,2.9-1.9C84.8,55,83.2,54.9,81.9,54.9z
				"/>
			<path id="Path_2_" class="st0" d="M91.3,60.6v5.9h-2.5V56H91v1c0.6-1,1.3-1.3,2.4-1.3v2.4C91.9,58.1,91.3,59,91.3,60.6z"/>
			<path id="Shape_4_" class="st0" d="M99,66.8c-3,0-5.6-2.5-5.6-5.6c0-3,2.5-5.6,5.6-5.6s5.6,2.5,5.6,5.6
				C104.6,64.3,102.2,66.8,99,66.8z M99,57.9c-1.7,0-3,1.6-3,3.3c0,1.7,1.3,3.2,3,3.2c1.7,0,3-1.6,3-3.2
				C102.1,59.5,100.8,57.9,99,57.9z"/>
			<path id="Shape_5_" class="st0" d="M114.4,66.5v-1.3c-0.6,1.1-2.1,1.6-3.3,1.6c-3,0-5.2-2.5-5.2-5.6c0-2.2,1.3-4.1,3.3-5.1
				c0.6-0.3,1.3-0.5,2.1-0.5c1.3,0,2.2,0.3,3.2,1.3v-4.5h2.5v14H114.4z M111.3,57.9c-1.7,0-3,1.6-3,3.2c0,1.7,1.3,3.3,3,3.3
				c1.7,0,3-1.6,3-3.3C114.3,59.5,113,57.9,111.3,57.9z"/>
			<path id="Path_3_" class="st0" d="M125.4,66.5v-1.1c-0.6,1-1.4,1.4-2.7,1.4c-1.3,0-2.7-0.5-3.5-1.6c-0.6-1.1-0.8-2.4-0.8-3.7V56
				h2.5v5.2c0,1.4,0.3,3.2,2.2,3.2c1.7,0,2.1-1.7,2.1-3.2v-5.4h2.5v10.5h-2.4V66.5z"/>
			<path id="Path_4_" class="st0" d="M134.9,66.8c-3,0-5.6-2.5-5.6-5.6c0-3,2.5-5.6,5.6-5.6c2.4,0,4.4,1.4,5.2,3.8h-2.9
				c-0.5-1-1.3-1.6-2.4-1.6c-1.9,0-3,1.4-3,3.3c0,1.7,1.3,3.3,3.2,3.3c1,0,1.7-0.6,2.4-1.4h2.9C139.3,65.4,137.4,66.8,134.9,66.8z"
				/>
			<polygon id="Path_5_" class="st0" points="144.7,58.2 144.7,66.5 142.2,66.5 142.2,58.2 140.9,58.2 140.9,56 142.2,56 
				142.2,52.5 144.7,52.5 144.7,56 146.2,56 146.2,58.2 			"/>
			<path id="Shape_6_" class="st0" d="M147.3,54.7v-2.2h2.5v2.2H147.3z M147.3,66.5V56h2.5v10.5H147.3z"/>
			<path id="Shape_7_" class="st0" d="M156.8,66.8c-3,0-5.6-2.5-5.6-5.6c0-3,2.5-5.6,5.6-5.6c3,0,5.6,2.5,5.6,5.6
				C162.3,64.3,160,66.8,156.8,66.8z M156.8,57.9c-1.7,0-3,1.6-3,3.3c0,1.7,1.3,3.2,3,3.2c1.7,0,3-1.6,3-3.2
				C159.8,59.5,158.7,57.9,156.8,57.9z"/>
			<path id="Path_6_" class="st0" d="M170.6,66.5v-5.1c0-1.4-0.3-3.3-2.1-3.3c-0.6,0-1.3,0.3-1.7,1c-0.5,0.5-0.5,1.6-0.5,2.4v4.9
				h-2.5V55.8h2.4v1c0.8-0.8,1.6-1.3,2.9-1.3c1.1,0,2.4,0.6,3.2,1.4c0.8,1,1,2.4,1,3.5v5.7h-2.5V66.5z"/>
			<path id="Shape_8_" class="st0" d="M49.1,50.7L38.8,61.1l-2.9-2.7l7.6-7.6l-7.6-7.6l2.7-2.7L49.1,50.7z M47.6,28.2
				c-12.5,0-22.5,10-22.5,22.6c0,12.4,10,22.4,22.5,22.4V58.9l8.2-8.3L48.3,43l2.7-2.7l10.3,10.3l-9.8,9.9v12.4
				C62.1,70.9,70,61.7,70,50.6C70,38.2,60,28.2,47.6,28.2z"/>
		</g>
	</g>
</g>
</svg>
