<?xml version="1.0" encoding="utf-8"?>
<!-- Generator: Adobe Illustrator 25.1.0, SVG Export Plug-In . SVG Version: 6.00 Build 0)  -->
<svg version="1.1" id="Layer_1" xmlns="http://www.w3.org/2000/svg" xmlns:xlink="http://www.w3.org/1999/xlink" x="0px" y="0px"
	 viewBox="0 0 427 214" style="enable-background:new 0 0 427 214;" xml:space="preserve">
<style type="text/css">
	.st0{fill-rule:evenodd;clip-rule:evenodd;fill:#D62027;}
	.st1{filter:url(#Adobe_OpacityMaskFilter);}
	.st2{fill-rule:evenodd;clip-rule:evenodd;fill:#FFFFFF;}
	.st3{mask:url(#mask-2_1_);fill-rule:evenodd;clip-rule:evenodd;fill:#D62027;}
	.st4{filter:url(#Adobe_OpacityMaskFilter_1_);}
	.st5{mask:url(#mask-2_2_);fill-rule:evenodd;clip-rule:evenodd;fill:#D62027;}
	.st6{filter:url(#Adobe_OpacityMaskFilter_2_);}
	.st7{mask:url(#mask-2_3_);fill-rule:evenodd;clip-rule:evenodd;fill:#D62027;}
	.st8{filter:url(#Adobe_OpacityMaskFilter_3_);}
	.st9{mask:url(#mask-2_4_);fill-rule:evenodd;clip-rule:evenodd;fill:#D62027;}
	.st10{filter:url(#Adobe_OpacityMaskFilter_4_);}
	.st11{mask:url(#mask-2_5_);fill-rule:evenodd;clip-rule:evenodd;fill:#D62027;}
	.st12{filter:url(#Adobe_OpacityMaskFilter_5_);}
	.st13{mask:url(#mask-2_6_);fill-rule:evenodd;clip-rule:evenodd;fill:#D62027;}
	.st14{filter:url(#Adobe_OpacityMaskFilter_6_);}
	.st15{mask:url(#mask-2_7_);fill-rule:evenodd;clip-rule:evenodd;fill:#D62027;}
	.st16{filter:url(#Adobe_OpacityMaskFilter_7_);}
	.st17{mask:url(#mask-2_8_);fill-rule:evenodd;clip-rule:evenodd;fill:#D62027;}
	.st18{filter:url(#Adobe_OpacityMaskFilter_8_);}
	.st19{mask:url(#mask-2_9_);fill-rule:evenodd;clip-rule:evenodd;fill:#D62027;}
	.st20{filter:url(#Adobe_OpacityMaskFilter_9_);}
	.st21{mask:url(#mask-2_10_);fill-rule:evenodd;clip-rule:evenodd;fill:#D62027;}
</style>
<desc>Created with Sketch.</desc>
<g id="Exports">
	<g id="Homepage-New" transform="translate(-1667.000000, -3890.000000)">
		<g id="Group-16" transform="translate(1765.500000, 3978.000000)">
			<polygon id="Fill-1" class="st0" points="-36.5,-5.6 -36.5,42.4 -21.5,42.4 -21.5,36.9 -28.3,36.9 -28.3,-0.1 -21.5,-0.1 
				-21.5,-5.6 			"/>
			<g id="Group-15" transform="translate(0.000000, 0.150423)">
				<path id="Fill-2" class="st0" d="M-4.5,10.3c-1.5,0-2.6,0.4-3.5,1.3c-0.9,0.8-1.4,2.1-1.7,3.9H1c-0.2-1.5-0.9-2.8-1.9-3.7
					C-1.9,10.8-3.1,10.3-4.5,10.3 M9.3,20H-9.9c0.2,2,0.9,3.5,2,4.7c1.2,1.2,2.7,1.7,4.5,1.7c2,0,4-1,6-3L9,25.5
					c-1.4,2.1-3.1,3.7-5.2,4.7c-2.1,1.1-4.5,1.6-7.4,1.6c-2.8,0-5.3-0.5-7.5-1.6s-3.9-2.6-5.1-4.5c-1.2-2-1.8-4.3-1.8-6.9
					c0-2.6,0.6-5,1.9-7.1c1.2-2.1,2.9-3.8,5.1-5c2.1-1.2,4.4-1.8,6.9-1.8C-1.4,4.8,1,5.4,3,6.7c2,1.3,3.5,3,4.6,5.3
					C8.7,14.3,9.3,17,9.3,20"/>
				<g id="Clip-5">
				</g>
				<defs>
					<filter id="Adobe_OpacityMaskFilter" filterUnits="userSpaceOnUse" x="12.6" y="14.7" width="14.8" height="7.2">
						<feColorMatrix  type="matrix" values="1 0 0 0 0  0 1 0 0 0  0 0 1 0 0  0 0 0 1 0"/>
					</filter>
				</defs>
				<mask maskUnits="userSpaceOnUse" x="12.6" y="14.7" width="14.8" height="7.2" id="mask-2_1_">
					<g class="st1">
						<polygon id="path-1_1_" class="st2" points="-36.5,42.8 266.5,42.8 266.5,-5.8 -36.5,-5.8 						"/>
					</g>
				</mask>
				<polygon id="Fill-4" class="st3" points="12.6,21.9 27.4,21.9 27.4,14.7 12.6,14.7 				"/>
				<defs>
					<filter id="Adobe_OpacityMaskFilter_1_" filterUnits="userSpaceOnUse" x="30.6" y="5.1" width="23.6" height="26.7">
						<feColorMatrix  type="matrix" values="1 0 0 0 0  0 1 0 0 0  0 0 1 0 0  0 0 0 1 0"/>
					</filter>
				</defs>
				<mask maskUnits="userSpaceOnUse" x="30.6" y="5.1" width="23.6" height="26.7" id="mask-2_2_">
					<g class="st4">
						<polygon id="path-1_2_" class="st2" points="-36.5,42.8 266.5,42.8 266.5,-5.8 -36.5,-5.8 						"/>
					</g>
				</mask>
				<path id="Fill-6" class="st5" d="M46.6,6.3V5.4h5.8V13h-5.8c-0.5-1.8-2.4-2.7-5.6-2.7c-2.3,0-3.5,0.7-3.5,2c0,0.6,0.3,1,0.9,1.3
					c0.6,0.3,1.5,0.5,2.7,0.7c3.3,0.4,6,1,7.9,1.8c1.9,0.8,3.3,1.8,4,2.9c0.8,1.2,1.1,2.6,1.1,4.3c0,2.7-0.9,4.8-2.8,6.3
					c-1.8,1.5-4.4,2.3-7.5,2.3c-3.1,0-5.2-0.6-6.3-1.9v1.2h-6v-8.9h6c0.2,1.2,0.8,2.2,1.8,2.9c1,0.7,2.3,1.1,3.8,1.1
					c1.5,0,2.5-0.2,3.2-0.5c0.7-0.3,1.1-0.9,1.1-1.8c0-0.6-0.1-1-0.4-1.3c-0.3-0.3-0.9-0.6-1.7-0.8c-0.8-0.2-2.1-0.5-3.8-0.8
					c-3.8-0.6-6.6-1.6-8.3-2.9c-1.7-1.3-2.5-3.2-2.5-5.5c0-2.3,0.9-4.2,2.6-5.5c1.8-1.3,4.1-2,6.9-2C42.5,5.1,44.6,5.5,46.6,6.3"/>
				<defs>
					<filter id="Adobe_OpacityMaskFilter_2_" filterUnits="userSpaceOnUse" x="55.2" y="5.1" width="31.1" height="37.7">
						<feColorMatrix  type="matrix" values="1 0 0 0 0  0 1 0 0 0  0 0 1 0 0  0 0 0 1 0"/>
					</filter>
				</defs>
				<mask maskUnits="userSpaceOnUse" x="55.2" y="5.1" width="31.1" height="37.7" id="mask-2_3_">
					<g class="st6">
						<polygon id="path-1_3_" class="st2" points="-36.5,42.8 266.5,42.8 266.5,-5.8 -36.5,-5.8 						"/>
					</g>
				</mask>
				<path id="Fill-7" class="st7" d="M72.9,25.3c1.6,0,2.9-0.6,3.7-1.8c0.9-1.2,1.3-2.9,1.3-5.1c0-2.1-0.4-3.7-1.3-4.9
					c-0.9-1.2-2.1-1.8-3.8-1.8c-1.6,0-2.8,0.6-3.8,1.8c-0.9,1.2-1.4,2.9-1.4,5c0,1.9,0.5,3.6,1.5,4.9C70,24.6,71.3,25.3,72.9,25.3
					 M86.3,18.6c0,2.5-0.4,4.8-1.3,6.8c-0.9,2-2.2,3.6-3.9,4.7c-1.7,1.1-3.6,1.7-5.8,1.7c-2.7,0-5.2-1.1-7.5-3.2v8.3h5.1v5.9H55.2
					v-5.9h4.3V11.4h-3.7v-6h11.8v3.2c2.3-2.4,4.8-3.6,7.6-3.6c2.3,0,4.2,0.6,5.9,1.8c1.7,1.2,2.9,2.8,3.8,4.8
					C85.8,13.7,86.3,16,86.3,18.6"/>
				<defs>
					<filter id="Adobe_OpacityMaskFilter_3_" filterUnits="userSpaceOnUse" x="88.5" y="5.1" width="22.4" height="26.1">
						<feColorMatrix  type="matrix" values="1 0 0 0 0  0 1 0 0 0  0 0 1 0 0  0 0 0 1 0"/>
					</filter>
				</defs>
				<mask maskUnits="userSpaceOnUse" x="88.5" y="5.1" width="22.4" height="26.1" id="mask-2_4_">
					<g class="st8">
						<polygon id="path-1_4_" class="st2" points="-36.5,42.8 266.5,42.8 266.5,-5.8 -36.5,-5.8 						"/>
					</g>
				</mask>
				<path id="Fill-8" class="st9" d="M110.9,5.1v7.7c-2.2,0.1-4,0.5-5.4,1.1c-1.3,0.6-2.4,1.5-3.1,2.9c-0.7,1.4-1.1,3.3-1.1,5.9v2.5
					h5.1v5.9h-18v-5.9h4.7V11.4h-4.5v-6h12V12c0.6-2,1.7-3.6,3.3-4.9c1.6-1.3,3.6-2,6.1-2C110.5,5.1,110.8,5.1,110.9,5.1"/>
				<defs>
					<filter id="Adobe_OpacityMaskFilter_4_" filterUnits="userSpaceOnUse" x="113.4" y="4.8" width="27.2" height="27">
						<feColorMatrix  type="matrix" values="1 0 0 0 0  0 1 0 0 0  0 0 1 0 0  0 0 0 1 0"/>
					</filter>
				</defs>
				<mask maskUnits="userSpaceOnUse" x="113.4" y="4.8" width="27.2" height="27" id="mask-2_5_">
					<g class="st10">
						<polygon id="path-1_5_" class="st2" points="-36.5,42.8 266.5,42.8 266.5,-5.8 -36.5,-5.8 						"/>
					</g>
				</mask>
				<path id="Fill-9" class="st11" d="M126.8,10.3c-1.5,0-2.6,0.4-3.5,1.3c-0.9,0.8-1.4,2.1-1.7,3.9h10.7c-0.2-1.5-0.9-2.8-1.9-3.7
					C129.5,10.8,128.2,10.3,126.8,10.3 M140.6,20h-19.2c0.2,2,0.9,3.5,2,4.7c1.2,1.2,2.7,1.7,4.5,1.7c2,0,4-1,6-3l6.4,2.1
					c-1.4,2.1-3.1,3.7-5.2,4.7c-2.1,1.1-4.5,1.6-7.4,1.6c-2.8,0-5.3-0.5-7.5-1.6s-3.9-2.6-5.1-4.5c-1.2-2-1.8-4.3-1.8-6.9
					c0-2.6,0.6-5,1.9-7.1c1.2-2.1,2.9-3.8,5.1-5c2.1-1.2,4.4-1.8,6.9-1.8c2.7,0,5.1,0.6,7.1,1.9c2,1.3,3.5,3,4.6,5.3
					C140,14.3,140.6,17,140.6,20"/>
				<defs>
					<filter id="Adobe_OpacityMaskFilter_5_" filterUnits="userSpaceOnUse" x="143.3" y="5.1" width="23.6" height="26.7">
						<feColorMatrix  type="matrix" values="1 0 0 0 0  0 1 0 0 0  0 0 1 0 0  0 0 0 1 0"/>
					</filter>
				</defs>
				<mask maskUnits="userSpaceOnUse" x="143.3" y="5.1" width="23.6" height="26.7" id="mask-2_6_">
					<g class="st12">
						<polygon id="path-1_6_" class="st2" points="-36.5,42.8 266.5,42.8 266.5,-5.8 -36.5,-5.8 						"/>
					</g>
				</mask>
				<path id="Fill-10" class="st13" d="M159.3,6.3V5.4h5.8V13h-5.8c-0.5-1.8-2.4-2.7-5.6-2.7c-2.3,0-3.5,0.7-3.5,2
					c0,0.6,0.3,1,0.9,1.3c0.6,0.3,1.5,0.5,2.7,0.7c3.3,0.4,6,1,7.9,1.8c1.9,0.8,3.3,1.8,4,2.9c0.8,1.2,1.1,2.6,1.1,4.3
					c0,2.7-0.9,4.8-2.8,6.3c-1.8,1.5-4.4,2.3-7.5,2.3c-3.1,0-5.2-0.6-6.3-1.9v1.2h-6v-8.9h6c0.2,1.2,0.8,2.2,1.8,2.9
					c1,0.7,2.3,1.1,3.8,1.1c1.5,0,2.5-0.2,3.2-0.5c0.7-0.3,1.1-0.9,1.1-1.8c0-0.6-0.1-1-0.4-1.3c-0.3-0.3-0.9-0.6-1.7-0.8
					c-0.8-0.2-2.1-0.5-3.8-0.8c-3.8-0.6-6.6-1.6-8.3-2.9c-1.7-1.3-2.5-3.2-2.5-5.5c0-2.3,0.9-4.2,2.6-5.5c1.8-1.3,4.1-2,6.9-2
					C155.2,5.1,157.3,5.5,159.3,6.3"/>
				<defs>
					<filter id="Adobe_OpacityMaskFilter_6_" filterUnits="userSpaceOnUse" x="170" y="14.7" width="14.8" height="7.2">
						<feColorMatrix  type="matrix" values="1 0 0 0 0  0 1 0 0 0  0 0 1 0 0  0 0 0 1 0"/>
					</filter>
				</defs>
				<mask maskUnits="userSpaceOnUse" x="170" y="14.7" width="14.8" height="7.2" id="mask-2_7_">
					<g class="st14">
						<polygon id="path-1_7_" class="st2" points="-36.5,42.8 266.5,42.8 266.5,-5.8 -36.5,-5.8 						"/>
					</g>
				</mask>
				<polygon id="Fill-11" class="st15" points="170,21.9 184.8,21.9 184.8,14.7 170,14.7 				"/>
				<defs>
					<filter id="Adobe_OpacityMaskFilter_7_" filterUnits="userSpaceOnUse" x="188.6" y="4.8" width="27" height="27">
						<feColorMatrix  type="matrix" values="1 0 0 0 0  0 1 0 0 0  0 0 1 0 0  0 0 0 1 0"/>
					</filter>
				</defs>
				<mask maskUnits="userSpaceOnUse" x="188.6" y="4.8" width="27" height="27" id="mask-2_8_">
					<g class="st16">
						<polygon id="path-1_8_" class="st2" points="-36.5,42.8 266.5,42.8 266.5,-5.8 -36.5,-5.8 						"/>
					</g>
				</mask>
				<path id="Fill-12" class="st17" d="M202.1,25.4c1.6,0,2.8-0.6,3.8-1.9c0.9-1.3,1.4-3,1.4-5.4c0-2.2-0.5-3.9-1.4-5.1
					c-0.9-1.2-2.2-1.9-3.8-1.9c-1.6,0-2.9,0.6-3.7,1.8c-0.8,1.2-1.3,3.1-1.3,5.5c0,2.1,0.5,3.7,1.4,5
					C199.3,24.8,200.6,25.4,202.1,25.4 M215.6,18.3c0,2.6-0.6,4.9-1.8,6.9c-1.2,2.1-2.8,3.7-4.9,4.8c-2.1,1.2-4.3,1.7-6.8,1.7
					c-2.6,0-4.9-0.6-7-1.7c-2.1-1.2-3.7-2.8-4.8-4.8c-1.1-2.1-1.7-4.4-1.7-6.9c0-2.5,0.6-4.8,1.8-6.9c1.2-2,2.8-3.6,4.9-4.8
					c2.1-1.2,4.4-1.8,6.9-1.8c2.6,0,4.9,0.6,6.9,1.8c2.1,1.2,3.7,2.8,4.8,4.8C215,13.4,215.6,15.7,215.6,18.3"/>
				<defs>
					<filter id="Adobe_OpacityMaskFilter_8_" filterUnits="userSpaceOnUse" x="217.5" y="-5.8" width="31.2" height="36.9">
						<feColorMatrix  type="matrix" values="1 0 0 0 0  0 1 0 0 0  0 0 1 0 0  0 0 0 1 0"/>
					</filter>
				</defs>
				<mask maskUnits="userSpaceOnUse" x="217.5" y="-5.8" width="31.2" height="36.9" id="mask-2_9_">
					<g class="st18">
						<polygon id="path-1_9_" class="st2" points="-36.5,42.8 266.5,42.8 266.5,-5.8 -36.5,-5.8 						"/>
					</g>
				</mask>
				<path id="Fill-13" class="st19" d="M237.1,4.8c2.6,0,4.6,0.8,5.9,2.4c1.3,1.6,2,3.9,2,6.9v11.1h3.8v5.9h-12V14.5
					c0-1.1-0.2-1.8-0.6-2.3c-0.4-0.5-1.1-0.7-2-0.7c-1.3,0-2.7,0.5-4.3,1.6v12.1h3.6v5.9h-15.9v-5.9h4.2V0.1h-4.2v-5.9h12.3V7.5
					C232.5,5.7,234.9,4.8,237.1,4.8"/>
				<defs>
					<filter id="Adobe_OpacityMaskFilter_9_" filterUnits="userSpaceOnUse" x="251.5" y="-5.8" width="15" height="48">
						<feColorMatrix  type="matrix" values="1 0 0 0 0  0 1 0 0 0  0 0 1 0 0  0 0 0 1 0"/>
					</filter>
				</defs>
				<mask maskUnits="userSpaceOnUse" x="251.5" y="-5.8" width="15" height="48" id="mask-2_10_">
					<g class="st20">
						<polygon id="path-1_10_" class="st2" points="-36.5,42.8 266.5,42.8 266.5,-5.8 -36.5,-5.8 						"/>
					</g>
				</mask>
				<polygon id="Fill-14" class="st21" points="251.5,42.2 251.5,36.7 258.3,36.7 258.3,-0.3 251.5,-0.3 251.5,-5.8 266.5,-5.8 
					266.5,42.2 				"/>
			</g>
		</g>
	</g>
</g>
</svg>
