<?xml version="1.0" encoding="utf-8"?>
<!-- Generator: Adobe Illustrator 25.1.0, SVG Export Plug-In . SVG Version: 6.00 Build 0)  -->
<svg version="1.1" id="Layer_1" xmlns="http://www.w3.org/2000/svg" xmlns:xlink="http://www.w3.org/1999/xlink" x="0px" y="0px"
	 viewBox="0 0 427 214" style="enable-background:new 0 0 427 214;" xml:space="preserve">
<style type="text/css">
	.st0{fill-rule:evenodd;clip-rule:evenodd;fill:#231F20;}
	.st1{fill-rule:evenodd;clip-rule:evenodd;fill:#0066B2;}
</style>
<desc>Created with Sketch.</desc>
<g id="Exports">
	<g id="Homepage-New" transform="translate(-1065.000000, -3890.000000)">
		<g id="Group-24" transform="translate(1159.000000, 3990.000000)">
			<path id="Fill-1" class="st0" d="M53,20.6c-14.2,0-18.5-3.7-18.5-8.6V-5.2h9.3V11c0,4,4.1,5,9.7,5c3.7,0,6.6-0.1,8.6-0.3V-5.1
				h9.3v24.7C67.9,20,60.9,20.6,53,20.6"/>
			<polygon id="Fill-3" class="st0" points="-30.1,20 -30.1,9.7 -48.4,9.7 -48.4,20 -57.7,20 -57.7,-5.1 -48.4,-5.1 -48.4,5.1 
				-30.1,5.1 -30.1,-5.1 -20.8,-5.1 -20.8,20 			"/>
			<path id="Fill-5" class="st0" d="M92.8-0.1H118v-5H90.8c-7.3,0-9.9,1.3-9.9,5.1v20h9.3V9.6h27.6V5H90.3V1.4
				C90.3,0.5,90.8-0.1,92.8-0.1"/>
			<path id="Fill-7" class="st0" d="M137-0.1c-2,0-2.6,0.6-2.6,1.5v3.7h27.6v4.3h-27.6v4.1c0,0.9,0.6,1.5,2.6,1.5h25.1v5h-27
				c-7.3,0-9.9-1.3-9.9-5.1V0c0-3.8,2.6-5.1,9.9-5.1h27v5H137z"/>
			<path id="Fill-9" class="st1" d="M171.5,15.3c0-1.3,0.7-1.7,2.9-1.7h3.7c2.1,0,2.9,0.5,2.9,1.7v3c0,1.3-0.7,1.7-2.9,1.7h-3.7
				c-2.1,0-2.9-0.5-2.9-1.7V15.3z"/>
			<path id="Fill-11" class="st0" d="M7,16.4c-2.9,0-5.8-0.2-7.7-0.6c-1.3-0.2-1.9-0.7-1.9-1.9v-2.9c0-1.2,0.6-1.6,1.9-1.9
				C1.2,8.9,4.1,8.6,7,8.6h8.7v7.4C14,16.3,10.5,16.4,7,16.4L7,16.4z M7,4.6C1.1,4.6-4.2,5.1-8,5.7c-2.7,0.5-3.8,1.4-3.8,3.7v6.3
				c0,2.3,1.2,3.3,3.8,3.7c3.7,0.7,9.1,1.2,15,1.2c7.8,0,14.7-0.6,18-1.2V3.2c0-7.9-3-8.4-13.4-8.4H-8.9v4.3h20.5
				c3.8,0,4.2,1,4.2,3.4v2H7V4.6z"/>
			<path id="Fill-13" class="st0" d="M202.6,20.4c-7.3,0-13.2-4.2-13.2-13c0-8.4,6.1-12.7,13.2-12.7c3.4,0,5.8,0.6,7.3,1.3L208.6-2
				c-1-0.5-2.9-1-5.7-1c-5.8,0-9.3,3.4-9.3,10.6c0,6.9,3.8,10.5,8.7,10.5c2.1,0,3.3-0.3,4-0.6V8h-5.4V5.9h9.4v13
				C208.5,19.9,206.4,20.4,202.6,20.4"/>
			<path id="Fill-15" class="st0" d="M226.5,2.5c-2-0.5-4.3-0.3-5.6,0.3v17.1h-4V1.3c2.4-0.9,4.8-1.5,10.6-1.4L226.5,2.5z"/>
			<path id="Fill-17" class="st0" d="M239.6,2.1c-4.7,0-5.6,4.2-5.6,8.1s1,7.9,5.6,7.9c4.7,0,5.6-4,5.6-7.9S244.4,2.1,239.6,2.1
				 M239.6,20.4c-6.6,0-9.7-4.4-9.7-10.1c0-5.8,2.9-10.2,9.5-10.2c6.8,0,9.7,4.3,9.7,10.2C249.1,16,246.2,20.4,239.6,20.4"/>
			<path id="Fill-19" class="st0" d="M263.3,20.4c-6.2,0-8.7-2.4-8.7-6.4V0.4h4v13.7c0,2.3,1.5,4.1,4.9,4.1c1.9,0,3.3-0.2,4.4-0.8
				v-17h4v18.5C270.2,19.7,267.3,20.4,263.3,20.4"/>
			<g id="Group-23" transform="translate(226.631300, 3.357390)">
				<g id="Clip-22">
				</g>
				<path id="Fill-21" class="st0" d="M59.3-1.4c-1.5,0-2.6,0.2-3.5,0.6v15.4c0.8,0.2,1.7,0.5,3,0.5c5,0,7.6-3.1,7.6-8.3
					C66.3,1.7,64.5-1.4,59.3-1.4 M59.7,17c-1.4,0-2.9-0.2-3.8-0.5v8h-4V-2c1.6-0.8,4.2-1.4,7.7-1.4c6.9,0,10.8,3.8,10.8,9.9
					C70.4,13,66.1,17,59.7,17"/>
			</g>
		</g>
	</g>
</g>
</svg>
