<?xml version="1.0" encoding="utf-8"?>
<!-- Generator: Adobe Illustrator 25.1.0, SVG Export Plug-In . SVG Version: 6.00 Build 0)  -->
<svg version="1.1" id="Layer_1" xmlns="http://www.w3.org/2000/svg" xmlns:xlink="http://www.w3.org/1999/xlink" x="0px" y="0px"
	 viewBox="0 0 427 214" style="enable-background:new 0 0 427 214;" xml:space="preserve">
<style type="text/css">
	.st0{fill-rule:evenodd;clip-rule:evenodd;fill:#231F20;}
	.st1{fill-rule:evenodd;clip-rule:evenodd;fill:#0066B2;}
	.st2{filter:url(#Adobe_OpacityMaskFilter);}
	.st3{fill-rule:evenodd;clip-rule:evenodd;fill:#FFFFFF;}
	.st4{mask:url(#mask-2_1_);fill-rule:evenodd;clip-rule:evenodd;fill:#231F20;}
</style>
<desc>Created with Sketch.</desc>
<g id="Exports">
	<g id="Homepage-New" transform="translate(-1065.000000, -3890.000000)">
		<g id="Group-24" transform="translate(1159.000000, 3990.000000)">
			<path id="Fill-1" class="st0" d="M62.4,19.3c-12.2,0-15.9-3.2-15.9-7.4l0-14.8h8v13.9c0,3.4,3.5,4.3,8.3,4.3
				c3.2,0,5.7-0.1,7.4-0.3V-2.8h8v21.2C75.2,18.8,69.2,19.3,62.4,19.3"/>
			<polygon id="Fill-3" class="st0" points="-9,18.8 -9,9.9 -24.7,9.9 -24.7,18.8 -32.7,18.8 -32.7,-2.8 -24.7,-2.8 -24.7,6 -9,6 
				-9,-2.8 -1,-2.8 -1,18.8 			"/>
			<path id="Fill-5" class="st0" d="M96.6,1.5h21.6v-4.3H94.9c-6.3,0-8.5,1.1-8.5,4.4v17.2h8l0-9h23.7V5.9H94.4l0-3.1
				C94.4,2,94.9,1.5,96.6,1.5"/>
			<path id="Fill-7" class="st0" d="M134.6,1.5c-1.7,0-2.2,0.5-2.2,1.3l0,3.2h23.7v3.7h-23.7l0,3.5c0,0.8,0.5,1.3,2.2,1.3l21.6,0
				v4.3h-23.2c-6.3,0-8.5-1.1-8.5-4.4V1.6c0-3.3,2.2-4.4,8.5-4.4h23.2v4.3H134.6z"/>
			<path id="Fill-9" class="st1" d="M164.2,14.7c0-1.1,0.6-1.5,2.5-1.5h3.2c1.8,0,2.5,0.4,2.5,1.5v2.6c0,1.1-0.6,1.5-2.5,1.5h-3.2
				c-1.8,0-2.5-0.4-2.5-1.5V14.7z"/>
			<path id="Fill-11" class="st0" d="M22.9,15.7c-2.5,0-5-0.2-6.6-0.5c-1.1-0.2-1.6-0.6-1.6-1.6v-2.5c0-1,0.5-1.4,1.6-1.6
				C17.9,9.2,20.4,9,22.9,9h7.5v6.4C28.9,15.6,25.9,15.7,22.9,15.7L22.9,15.7z M22.9,5.5c-5.1,0-9.7,0.5-12.9,1
				C7.7,6.9,6.7,7.7,6.7,9.7v5.4c0,2,1,2.8,3.3,3.2c3.2,0.6,7.8,1,12.9,1c6.7,0,12.6-0.5,15.5-1v-14c0-6.8-2.6-7.2-11.5-7.2H9.2v3.7
				h17.6c3.3,0,3.6,0.9,3.6,2.9v1.7H22.9z"/>
			<path id="Fill-13" class="st0" d="M190.9,19.1c-6.3,0-11.3-3.6-11.3-11.2c0-7.2,5.2-10.9,11.3-10.9c2.9,0,5,0.5,6.3,1.1l-1.1,1.8
				c-0.9-0.4-2.5-0.9-4.9-0.9c-5,0-8,2.9-8,9.1c0,5.9,3.3,9,7.5,9c1.8,0,2.8-0.3,3.4-0.5V8.5h-4.6V6.7h8.1v11.2
				C196,18.7,194.2,19.1,190.9,19.1"/>
			<path id="Fill-15" class="st0" d="M211.5,3.7c-1.7-0.4-3.7-0.3-4.8,0.3v14.7h-3.4v-16c2.1-0.8,4.1-1.3,9.1-1.2L211.5,3.7z"/>
			<path id="Fill-17" class="st0" d="M222.7,3.4c-4,0-4.8,3.6-4.8,7c0,3.4,0.9,6.8,4.8,6.8c4,0,4.8-3.4,4.8-6.8
				C227.5,7,226.8,3.4,222.7,3.4 M222.7,19.1c-5.7,0-8.3-3.8-8.3-8.7c0-5,2.5-8.8,8.2-8.8c5.8,0,8.3,3.7,8.3,8.8
				C230.9,15.3,228.4,19.1,222.7,19.1"/>
			<path id="Fill-19" class="st0" d="M243.1,19.1c-5.3,0-7.5-2.1-7.5-5.5V1.9h3.4v11.8c0,2,1.3,3.5,4.2,3.5c1.6,0,2.8-0.2,3.8-0.7
				V1.9h3.4v15.9C249,18.5,246.5,19.1,243.1,19.1"/>
			<g id="Group-23" transform="translate(226.631300, 3.357390)">
				<g id="Clip-22">
				</g>
				<defs>
					<filter id="Adobe_OpacityMaskFilter" filterUnits="userSpaceOnUse" x="29.5" y="-1.8" width="15.9" height="23.9">
						<feColorMatrix  type="matrix" values="1 0 0 0 0  0 1 0 0 0  0 0 1 0 0  0 0 0 1 0"/>
					</filter>
				</defs>
				<mask maskUnits="userSpaceOnUse" x="29.5" y="-1.8" width="15.9" height="23.9" id="mask-2_1_">
					<g class="st2">
						<polygon id="path-1_1_" class="st3" points="29.5,-1.8 45.4,-1.8 45.4,22.2 29.5,22.2 						"/>
					</g>
				</mask>
				<path id="Fill-21" class="st4" d="M35.9-0.1c-1.3,0-2.2,0.2-3,0.5v13.2c0.7,0.2,1.5,0.4,2.6,0.4c4.3,0,6.5-2.7,6.5-7.1
					C41.9,2.6,40.4-0.1,35.9-0.1 M36.2,15.7c-1.2,0-2.5-0.2-3.3-0.4v6.9h-3.4V-0.6c1.4-0.7,3.6-1.2,6.6-1.2c5.9,0,9.3,3.3,9.3,8.5
					C45.4,12.3,41.7,15.7,36.2,15.7"/>
			</g>
		</g>
	</g>
</g>
</svg>
