<?xml version="1.0" encoding="utf-8"?>
<!-- Generator: Adobe Illustrator 25.1.0, SVG Export Plug-In . SVG Version: 6.00 Build 0)  -->
<svg version="1.1" id="Layer_1" xmlns="http://www.w3.org/2000/svg" xmlns:xlink="http://www.w3.org/1999/xlink" x="0px" y="0px"
	 viewBox="0 0 214 214" style="enable-background:new 0 0 214 214;" xml:space="preserve">
<style type="text/css">
	.st0{fill:url(#SVGID_1_);}
	.st1{fill:url(#SVGID_2_);}
	.st2{fill:url(#SVGID_3_);}
	.st3{opacity:0.45;fill:url(#SVGID_4_);enable-background:new    ;}
	.st4{fill:url(#SVGID_5_);}
	.st5{fill:url(#SVGID_6_);}
	.st6{fill:url(#SVGID_7_);}
	.st7{fill:url(#SVGID_8_);}
	.st8{opacity:0.45;fill:url(#SVGID_9_);enable-background:new    ;}
	.st9{fill:url(#SVGID_10_);}
	.st10{fill:url(#SVGID_11_);}
	.st11{fill:url(#SVGID_12_);}
	.st12{fill:url(#SVGID_13_);}
	.st13{opacity:0.5;fill:url(#SVGID_14_);enable-background:new    ;}
	.st14{fill:url(#SVGID_15_);}
	.st15{opacity:0.5;fill:url(#SVGID_16_);enable-background:new    ;}
</style>
<desc>Created with Sketch.</desc>
<g>
	<g>
		
			<linearGradient id="SVGID_1_" gradientUnits="userSpaceOnUse" x1="-8900.9902" y1="1399.8342" x2="-8900.9902" y2="1386.4142" gradientTransform="matrix(1 0 0 1 8988.1904 -1315.9698)">
			<stop  offset="0.27" style="stop-color:#063A52"/>
			<stop  offset="0.35" style="stop-color:#003E57"/>
			<stop  offset="0.48" style="stop-color:#004B66"/>
			<stop  offset="0.64" style="stop-color:#006180"/>
			<stop  offset="0.82" style="stop-color:#0083AA"/>
			<stop  offset="0.92" style="stop-color:#009BCB"/>
		</linearGradient>
		<polygon class="st0" points="82.6,75.5 91.8,70.3 91.8,80.3 82.7,84.7 		"/>
		
			<linearGradient id="SVGID_2_" gradientUnits="userSpaceOnUse" x1="-8893.8623" y1="1397.9731" x2="-8890.4023" y2="1388.4932" gradientTransform="matrix(1 0 0 1 8988.1904 -1315.9698)">
			<stop  offset="0.27" style="stop-color:#00283B"/>
			<stop  offset="0.38" style="stop-color:#003346"/>
			<stop  offset="0.61" style="stop-color:#004F65"/>
			<stop  offset="0.93" style="stop-color:#0080A2"/>
			<stop  offset="1" style="stop-color:#008EB4"/>
		</linearGradient>
		<polygon class="st1" points="91.8,70.3 100.3,75.5 100.3,84.2 91.8,80.2 		"/>
		
			<linearGradient id="SVGID_3_" gradientUnits="userSpaceOnUse" x1="-8898.2598" y1="1415.5542" x2="-8894.1797" y2="1392.4642" gradientTransform="matrix(1 0 0 1 8988.1904 -1315.9698)">
			<stop  offset="0.12" style="stop-color:#003D56"/>
			<stop  offset="0.19" style="stop-color:#005A77"/>
			<stop  offset="0.26" style="stop-color:#006A8C"/>
			<stop  offset="0.32" style="stop-color:#00779E"/>
			<stop  offset="0.33" style="stop-color:#00759B"/>
			<stop  offset="0.36" style="stop-color:#006D8F"/>
			<stop  offset="0.4" style="stop-color:#006382"/>
			<stop  offset="0.44" style="stop-color:#005976"/>
			<stop  offset="0.48" style="stop-color:#00506B"/>
			<stop  offset="0.52" style="stop-color:#004962"/>
			<stop  offset="0.58" style="stop-color:#00435C"/>
			<stop  offset="0.64" style="stop-color:#004057"/>
			<stop  offset="0.76" style="stop-color:#003F56"/>
			<stop  offset="0.79" style="stop-color:#00465E"/>
			<stop  offset="0.85" style="stop-color:#005872"/>
			<stop  offset="0.92" style="stop-color:#007590"/>
			<stop  offset="1" style="stop-color:#0092AD"/>
		</linearGradient>
		<polygon class="st2" points="100.3,75.5 82.6,94.3 82.6,105.8 82.8,105.7 100.3,87.6 		"/>
		
			<linearGradient id="SVGID_4_" gradientUnits="userSpaceOnUse" x1="-2040.5919" y1="1413.0159" x2="-2037.532" y2="1416.6659" gradientTransform="matrix(-1 0 0 1 -1949.4399 -1321.7898)">
			<stop  offset="3.000000e-02" style="stop-color:#000000"/>
			<stop  offset="0.77" style="stop-color:#000000;stop-opacity:0"/>
		</linearGradient>
		<polygon class="st3" points="96.1,92.1 91.4,97 85.1,91.6 85.2,91.6 88.8,87.8 		"/>
	</g>
	
		<linearGradient id="SVGID_5_" gradientUnits="userSpaceOnUse" x1="123.85" y1="1402.973" x2="143.38" y2="1402.853" gradientTransform="matrix(1 0 0 1 -40.49 -1315.9698)">
		<stop  offset="0" style="stop-color:#00A0C8"/>
		<stop  offset="8.000000e-02" style="stop-color:#00A5CB"/>
		<stop  offset="0.23" style="stop-color:#00AFD1"/>
		<stop  offset="0.4" style="stop-color:#13B8D7"/>
		<stop  offset="0.57" style="stop-color:#41C0DB"/>
		<stop  offset="0.76" style="stop-color:#50C5DE"/>
		<stop  offset="1" style="stop-color:#55C7DF"/>
	</linearGradient>
	<polygon class="st4" points="106.5,86.8 106.5,98.3 82.6,87.1 82.6,75.5 	"/>
	<g>
		
			<linearGradient id="SVGID_6_" gradientUnits="userSpaceOnUse" x1="-11118.1406" y1="1399.8342" x2="-11118.1406" y2="1386.4142" gradientTransform="matrix(-1 0 0 1 -10992.2402 -1315.9698)">
			<stop  offset="0.27" style="stop-color:#063A52"/>
			<stop  offset="0.35" style="stop-color:#003E57"/>
			<stop  offset="0.48" style="stop-color:#004B66"/>
			<stop  offset="0.64" style="stop-color:#006180"/>
			<stop  offset="0.82" style="stop-color:#0083AA"/>
			<stop  offset="0.92" style="stop-color:#009BCB"/>
		</linearGradient>
		<polygon class="st5" points="130.5,75.5 121.3,70.3 121.3,80.3 130.4,84.7 		"/>
		
			<linearGradient id="SVGID_7_" gradientUnits="userSpaceOnUse" x1="-11111.0127" y1="1397.9932" x2="-11107.5625" y2="1388.5032" gradientTransform="matrix(-1 0 0 1 -10992.2402 -1315.9698)">
			<stop  offset="0.27" style="stop-color:#00283B"/>
			<stop  offset="0.38" style="stop-color:#003346"/>
			<stop  offset="0.61" style="stop-color:#004F65"/>
			<stop  offset="0.93" style="stop-color:#0080A2"/>
			<stop  offset="1" style="stop-color:#008EB4"/>
		</linearGradient>
		<polygon class="st6" points="121.3,70.3 112.8,75.5 112.8,84.2 121.3,80.2 		"/>
		
			<linearGradient id="SVGID_8_" gradientUnits="userSpaceOnUse" x1="-11115.4082" y1="1415.5629" x2="-11111.3379" y2="1392.4729" gradientTransform="matrix(-1 0 0 1 -10992.2402 -1315.9698)">
			<stop  offset="0.12" style="stop-color:#003D56"/>
			<stop  offset="0.19" style="stop-color:#005A77"/>
			<stop  offset="0.26" style="stop-color:#006A8C"/>
			<stop  offset="0.32" style="stop-color:#00779E"/>
			<stop  offset="0.33" style="stop-color:#00759B"/>
			<stop  offset="0.36" style="stop-color:#006D8F"/>
			<stop  offset="0.4" style="stop-color:#006382"/>
			<stop  offset="0.44" style="stop-color:#005976"/>
			<stop  offset="0.48" style="stop-color:#00506B"/>
			<stop  offset="0.52" style="stop-color:#004962"/>
			<stop  offset="0.58" style="stop-color:#00435C"/>
			<stop  offset="0.64" style="stop-color:#004057"/>
			<stop  offset="0.76" style="stop-color:#003F56"/>
			<stop  offset="0.79" style="stop-color:#00465E"/>
			<stop  offset="0.85" style="stop-color:#005872"/>
			<stop  offset="0.92" style="stop-color:#007590"/>
			<stop  offset="1" style="stop-color:#0092AD"/>
		</linearGradient>
		<polygon class="st7" points="112.8,75.5 130.5,94.3 130.5,105.8 130.3,105.7 112.8,87.6 		"/>
		
			<linearGradient id="SVGID_9_" gradientUnits="userSpaceOnUse" x1="176.6029" y1="1413.0118" x2="179.6729" y2="1416.6619" gradientTransform="matrix(1 0 0 1 -54.61 -1321.7898)">
			<stop  offset="3.000000e-02" style="stop-color:#000000"/>
			<stop  offset="0.77" style="stop-color:#000000;stop-opacity:0"/>
		</linearGradient>
		<polygon class="st8" points="117.1,92.1 121.8,97 128,91.6 128,91.6 124.4,87.8 		"/>
	</g>
	
		<linearGradient id="SVGID_10_" gradientUnits="userSpaceOnUse" x1="149.9915" y1="1397.7117" x2="168.0315" y2="1408.1216" gradientTransform="matrix(1 0 0 1 -40.49 -1315.9698)">
		<stop  offset="0" style="stop-color:#39BDBB"/>
		<stop  offset="1.000000e-02" style="stop-color:#37BCBC"/>
		<stop  offset="0.29" style="stop-color:#00ACC9"/>
		<stop  offset="0.56" style="stop-color:#00A3D2"/>
		<stop  offset="0.8" style="stop-color:#009DD8"/>
		<stop  offset="1" style="stop-color:#009CDC"/>
	</linearGradient>
	<polygon class="st9" points="106.5,86.8 106.5,98.3 130.5,87.1 130.5,75.5 	"/>
	
		<linearGradient id="SVGID_11_" gradientUnits="userSpaceOnUse" x1="149.9722" y1="1416.5005" x2="168.0122" y2="1426.9105" gradientTransform="matrix(1 0 0 1 -40.49 -1315.9698)">
		<stop  offset="0" style="stop-color:#39BDBB"/>
		<stop  offset="1.000000e-02" style="stop-color:#37BCBC"/>
		<stop  offset="0.29" style="stop-color:#00ACC9"/>
		<stop  offset="0.56" style="stop-color:#00A3D2"/>
		<stop  offset="0.8" style="stop-color:#009DD8"/>
		<stop  offset="1" style="stop-color:#009CDC"/>
	</linearGradient>
	<polygon class="st10" points="106.5,105.5 106.5,117.1 130.5,105.8 130.5,94.3 	"/>
	
		<linearGradient id="SVGID_12_" gradientUnits="userSpaceOnUse" x1="123.8211" y1="1418.9696" x2="147.0411" y2="1424.6295" gradientTransform="matrix(1 0 0 1 -40.49 -1315.9698)">
		<stop  offset="0" style="stop-color:#00A0C8"/>
		<stop  offset="8.000000e-02" style="stop-color:#00A5CB"/>
		<stop  offset="0.23" style="stop-color:#00AFD1"/>
		<stop  offset="0.4" style="stop-color:#13B8D7"/>
		<stop  offset="0.57" style="stop-color:#41C0DB"/>
		<stop  offset="0.76" style="stop-color:#50C5DE"/>
		<stop  offset="1" style="stop-color:#55C7DF"/>
	</linearGradient>
	<polygon class="st11" points="106.5,105.5 106.5,117.1 82.6,105.8 82.6,94.3 	"/>
	<g>
		
			<linearGradient id="SVGID_13_" gradientUnits="userSpaceOnUse" x1="124.4404" y1="1393.8727" x2="140.0004" y2="1397.6727" gradientTransform="matrix(1 0 0 1 -40.49 -1315.9698)">
			<stop  offset="0" style="stop-color:#FFFFFF;stop-opacity:0.35"/>
			<stop  offset="1" style="stop-color:#FFFFFF;stop-opacity:0.35"/>
		</linearGradient>
		<polygon class="st12" points="82.6,75.5 82.6,75.9 98,83 100.3,83.9 		"/>
		
			<linearGradient id="SVGID_14_" gradientUnits="userSpaceOnUse" x1="156.1103" y1="1394.2332" x2="168.5303" y2="1397.2632" gradientTransform="matrix(1 0 0 1 -40.49 -1315.9698)">
			<stop  offset="0" style="stop-color:#FFFFFF;stop-opacity:0.35"/>
			<stop  offset="1" style="stop-color:#FFFFFF;stop-opacity:0.5"/>
		</linearGradient>
		<polygon class="st13" points="130.5,75.5 130.5,75.5 114.6,83 112.8,83.9 117.2,82.1 130.5,75.9 		"/>
	</g>
	<g>
		
			<linearGradient id="SVGID_15_" gradientUnits="userSpaceOnUse" x1="123.7102" y1="1411.3535" x2="130.5102" y2="1413.0135" gradientTransform="matrix(1 0 0 1 -40.49 -1315.9698)">
			<stop  offset="0" style="stop-color:#FFFFFF;stop-opacity:0.35"/>
			<stop  offset="1" style="stop-color:#FFFFFF;stop-opacity:0.35"/>
		</linearGradient>
		<polygon class="st14" points="82.6,94.3 82.6,94.6 85.7,96.1 90.4,98 		"/>
		
			<linearGradient id="SVGID_16_" gradientUnits="userSpaceOnUse" x1="164.4704" y1="1411.5125" x2="169.9404" y2="1412.8525" gradientTransform="matrix(1 0 0 1 -40.49 -1315.9698)">
			<stop  offset="0" style="stop-color:#FFFFFF;stop-opacity:0.35"/>
			<stop  offset="1" style="stop-color:#FFFFFF;stop-opacity:0.5"/>
		</linearGradient>
		<polygon class="st15" points="130.5,94.3 130.5,94.3 122.7,98 126.5,96.6 130.5,94.6 		"/>
	</g>
</g>
<g>
	<polygon points="57.4,130.2 58.7,130.2 58.7,141.5 57.4,141.5 57.4,142.8 61.7,142.8 61.7,141.5 60.4,141.5 60.4,130.2 61.7,130.2 
		61.7,128.9 57.4,128.9 	"/>
	<polygon points="74,130.2 75.1,130.2 75.1,139.7 68.6,128.9 65.7,128.9 65.7,130.2 66.8,130.2 66.8,141.5 65.7,141.5 65.7,142.8 
		69.7,142.8 69.7,141.5 68.5,141.5 68.5,132.1 75,142.8 76.7,142.8 76.7,130.2 77.9,130.2 77.9,128.9 74,128.9 	"/>
	<polygon points="80.6,132.2 82.1,132.2 82.1,130.4 84.7,130.4 84.7,141.5 83.2,141.5 83.2,142.8 87.9,142.8 87.9,141.5 86.5,141.5 
		86.5,130.4 89.1,130.4 89.1,132.2 90.6,132.2 90.6,128.9 80.6,128.9 	"/>
	<polygon points="101.4,141.2 96.3,141.2 96.3,136.5 101.6,136.5 101.6,135 96.3,135 96.3,130.4 101.1,130.4 101.1,132.2 
		102.5,132.2 102.5,128.9 93.5,128.9 93.5,130.2 94.6,130.2 94.6,141.5 93.5,141.5 93.5,142.8 102.9,142.8 102.9,139.5 101.4,139.5 
			"/>
	<path d="M114.6,137.9c-0.2-0.4-0.4-0.7-0.7-1.1c0.8-0.2,1.4-0.7,1.7-1.5c0.2-0.3,0.3-0.7,0.3-1.1c0.1-0.4,0.1-0.8,0.1-1.2
		c0-0.4,0-0.8-0.1-1.2c-0.1-0.4-0.2-0.7-0.3-1.1c-0.5-1.2-1.8-1.8-3.9-1.8h-5.2v1.3h1.1v11.2h-1.1v1.3h3.9v-1.3h-1.1v-4.3h1.2
		c0.5,0,1,0.1,1.5,0.2c0.4,0.2,0.6,0.6,0.8,0.9l1.9,4.5h2.5v-1.3h-1.2L114.6,137.9z M109.5,130.3h2.3c1.1,0,1.9,0.2,2.1,0.8
		c0.1,0.2,0.2,0.5,0.3,0.8c0.1,0.7,0.1,1.4,0,2.2c-0.1,0.3-0.2,0.5-0.3,0.8c-0.5,0.6-1.3,0.9-2.1,0.8h-2.3V130.3z"/>
	<path d="M126.7,128.9h-2.1l-4.2,12.6h-0.9v1.3h3.6v-1.3h-0.9l1-3h4.9l1,3h-1v1.3h3.6v-1.3h-0.9L126.7,128.9z M123.6,136.9l2-6l2,6
		H123.6z"/>
	<path d="M142.6,138.6c0,0.8-0.2,1.6-0.7,2.2c-0.6,0.6-1.5,0.8-2.3,0.8c-0.9,0.1-1.9-0.3-2.5-0.9c-0.3-0.3-0.5-0.7-0.5-1.2
		c-0.2-0.5-0.2-1-0.2-1.5c0-0.5-0.1-1.2-0.1-2c0-0.7,0-1.3,0.1-2c0-1,0.3-1.9,0.8-2.8c0.6-0.7,1.5-1,2.5-0.9
		c1.5-0.3,2.9,0.7,3.1,2.2c0,0.3,0,0.5,0,0.8v0.2h1.4v-4.5h-1.4v0.9c-0.8-0.9-2-1.3-3.2-1.2c-0.9,0-1.8,0.1-2.6,0.5
		c-0.7,0.3-1.3,0.9-1.6,1.5c-0.3,0.7-0.6,1.4-0.7,2.2c-0.1,1.1-0.2,2.2-0.2,3.2c0,1.2,0.1,2.3,0.3,3.5c0.1,0.5,0.3,1,0.5,1.5
		c0.3,0.4,0.6,0.8,0.9,1.1c1,0.7,2.2,1,3.5,0.9c1.6,0,2.8-0.4,3.4-1.2c0.3-0.4,0.5-0.8,0.7-1.3c0.2-0.6,0.3-1.1,0.3-1.7v-0.2
		l-1.5-0.1L142.6,138.6z"/>
	<polygon points="146.7,128.9 146.7,132.2 148.1,132.2 148.1,130.4 150.8,130.4 150.8,141.5 149.4,141.5 149.4,142.8 154,142.8 
		154,141.5 152.5,141.5 152.5,130.4 155.2,130.4 155.2,132.2 156.6,132.2 156.6,128.9 	"/>
</g>
</svg>
