<?xml version="1.0" encoding="utf-8"?>
<!-- Generator: Adobe Illustrator 25.1.0, SVG Export Plug-In . SVG Version: 6.00 Build 0)  -->
<svg version="1.1" id="Layer_1" xmlns="http://www.w3.org/2000/svg" xmlns:xlink="http://www.w3.org/1999/xlink" x="0px" y="0px"
	 viewBox="0 0 214 214" style="enable-background:new 0 0 214 214;" xml:space="preserve">
<style type="text/css">
	.st0{fill:url(#SVGID_1_);}
	.st1{fill:url(#SVGID_2_);}
	.st2{fill:url(#SVGID_3_);}
	.st3{opacity:0.45;fill:url(#SVGID_4_);enable-background:new    ;}
	.st4{fill:url(#SVGID_5_);}
	.st5{fill:url(#SVGID_6_);}
	.st6{fill:url(#SVGID_7_);}
	.st7{fill:url(#SVGID_8_);}
	.st8{opacity:0.45;fill:url(#SVGID_9_);enable-background:new    ;}
	.st9{fill:url(#SVGID_10_);}
	.st10{fill:url(#SVGID_11_);}
	.st11{fill:url(#SVGID_12_);}
	.st12{fill:url(#SVGID_13_);}
	.st13{opacity:0.5;fill:url(#SVGID_14_);enable-background:new    ;}
	.st14{fill:url(#SVGID_15_);}
	.st15{opacity:0.5;fill:url(#SVGID_16_);enable-background:new    ;}
</style>
<desc>Created with Sketch.</desc>
<g>
	<g>
		
			<linearGradient id="SVGID_1_" gradientUnits="userSpaceOnUse" x1="-8896.2314" y1="-1188.3634" x2="-8896.2314" y2="-1178.2439" gradientTransform="matrix(1 0 0 -1 8988.1904 -1102.08)">
			<stop  offset="0.27" style="stop-color:#063A52"/>
			<stop  offset="0.35" style="stop-color:#003E57"/>
			<stop  offset="0.48" style="stop-color:#004B66"/>
			<stop  offset="0.64" style="stop-color:#006180"/>
			<stop  offset="0.82" style="stop-color:#0083AA"/>
			<stop  offset="0.92" style="stop-color:#009BCB"/>
		</linearGradient>
		<polygon class="st0" points="88.5,80 95.4,76.1 95.4,83.6 88.6,86.9 		"/>
		
			<linearGradient id="SVGID_2_" gradientUnits="userSpaceOnUse" x1="-8890.8652" y1="-1186.9569" x2="-8888.2559" y2="-1179.8085" gradientTransform="matrix(1 0 0 -1 8988.1904 -1102.08)">
			<stop  offset="0.27" style="stop-color:#00283B"/>
			<stop  offset="0.38" style="stop-color:#003346"/>
			<stop  offset="0.61" style="stop-color:#004F65"/>
			<stop  offset="0.93" style="stop-color:#0080A2"/>
			<stop  offset="1" style="stop-color:#008EB4"/>
		</linearGradient>
		<polygon class="st1" points="95.4,76.1 101.8,80 101.8,86.5 95.4,83.5 		"/>
		
			<linearGradient id="SVGID_3_" gradientUnits="userSpaceOnUse" x1="-8894.1768" y1="-1200.2163" x2="-8891.1006" y2="-1182.8052" gradientTransform="matrix(1 0 0 -1 8988.1904 -1102.08)">
			<stop  offset="0.12" style="stop-color:#003D56"/>
			<stop  offset="0.19" style="stop-color:#005A77"/>
			<stop  offset="0.26" style="stop-color:#006A8C"/>
			<stop  offset="0.32" style="stop-color:#00779E"/>
			<stop  offset="0.33" style="stop-color:#00759B"/>
			<stop  offset="0.36" style="stop-color:#006D8F"/>
			<stop  offset="0.4" style="stop-color:#006382"/>
			<stop  offset="0.44" style="stop-color:#005976"/>
			<stop  offset="0.48" style="stop-color:#00506B"/>
			<stop  offset="0.52" style="stop-color:#004962"/>
			<stop  offset="0.58" style="stop-color:#00435C"/>
			<stop  offset="0.64" style="stop-color:#004057"/>
			<stop  offset="0.76" style="stop-color:#003F56"/>
			<stop  offset="0.79" style="stop-color:#00465E"/>
			<stop  offset="0.85" style="stop-color:#005872"/>
			<stop  offset="0.92" style="stop-color:#007590"/>
			<stop  offset="1" style="stop-color:#0092AD"/>
		</linearGradient>
		<polygon class="st2" points="101.8,80 88.5,94.2 88.5,102.8 88.6,102.7 101.8,89.1 		"/>
		
			<linearGradient id="SVGID_4_" gradientUnits="userSpaceOnUse" x1="-2424.3662" y1="-1199.7238" x2="-2422.0588" y2="-1202.4761" gradientTransform="matrix(-1 0 0 -1 -2329.4399 -1107.8999)">
			<stop  offset="3.000000e-02" style="stop-color:#000000"/>
			<stop  offset="0.77" style="stop-color:#000000;stop-opacity:0"/>
		</linearGradient>
		<polygon class="st3" points="98.7,92.5 95.1,96.2 90.4,92.1 90.5,92.1 93.2,89.3 		"/>
	</g>
	
		<linearGradient id="SVGID_5_" gradientUnits="userSpaceOnUse" x1="129.5533" y1="-1190.7042" x2="144.28" y2="-1190.6138" gradientTransform="matrix(1 0 0 -1 -40.49 -1102.08)">
		<stop  offset="0" style="stop-color:#00A0C8"/>
		<stop  offset="8.000000e-02" style="stop-color:#00A5CB"/>
		<stop  offset="0.23" style="stop-color:#00AFD1"/>
		<stop  offset="0.4" style="stop-color:#13B8D7"/>
		<stop  offset="0.57" style="stop-color:#41C0DB"/>
		<stop  offset="0.76" style="stop-color:#50C5DE"/>
		<stop  offset="1" style="stop-color:#55C7DF"/>
	</linearGradient>
	<polygon class="st4" points="106.5,88.5 106.5,97.2 88.5,88.7 88.5,80 	"/>
	<g>
		
			<linearGradient id="SVGID_6_" gradientUnits="userSpaceOnUse" x1="-11493.3809" y1="-1188.3634" x2="-11493.3809" y2="-1178.2439" gradientTransform="matrix(-1 0 0 -1 -11372.2402 -1102.08)">
			<stop  offset="0.27" style="stop-color:#063A52"/>
			<stop  offset="0.35" style="stop-color:#003E57"/>
			<stop  offset="0.48" style="stop-color:#004B66"/>
			<stop  offset="0.64" style="stop-color:#006180"/>
			<stop  offset="0.82" style="stop-color:#0083AA"/>
			<stop  offset="0.92" style="stop-color:#009BCB"/>
		</linearGradient>
		<polygon class="st5" points="124.6,80 117.7,76.1 117.7,83.6 124.5,86.9 		"/>
		
			<linearGradient id="SVGID_7_" gradientUnits="userSpaceOnUse" x1="-11488.0166" y1="-1186.9756" x2="-11485.415" y2="-1179.8196" gradientTransform="matrix(-1 0 0 -1 -11372.2402 -1102.08)">
			<stop  offset="0.27" style="stop-color:#00283B"/>
			<stop  offset="0.38" style="stop-color:#003346"/>
			<stop  offset="0.61" style="stop-color:#004F65"/>
			<stop  offset="0.93" style="stop-color:#0080A2"/>
			<stop  offset="1" style="stop-color:#008EB4"/>
		</linearGradient>
		<polygon class="st6" points="117.7,76.1 111.3,80 111.3,86.5 117.7,83.5 		"/>
		
			<linearGradient id="SVGID_8_" gradientUnits="userSpaceOnUse" x1="-11491.3252" y1="-1200.223" x2="-11488.2559" y2="-1182.8118" gradientTransform="matrix(-1 0 0 -1 -11372.2402 -1102.08)">
			<stop  offset="0.12" style="stop-color:#003D56"/>
			<stop  offset="0.19" style="stop-color:#005A77"/>
			<stop  offset="0.26" style="stop-color:#006A8C"/>
			<stop  offset="0.32" style="stop-color:#00779E"/>
			<stop  offset="0.33" style="stop-color:#00759B"/>
			<stop  offset="0.36" style="stop-color:#006D8F"/>
			<stop  offset="0.4" style="stop-color:#006382"/>
			<stop  offset="0.44" style="stop-color:#005976"/>
			<stop  offset="0.48" style="stop-color:#00506B"/>
			<stop  offset="0.52" style="stop-color:#004962"/>
			<stop  offset="0.58" style="stop-color:#00435C"/>
			<stop  offset="0.64" style="stop-color:#004057"/>
			<stop  offset="0.76" style="stop-color:#003F56"/>
			<stop  offset="0.79" style="stop-color:#00465E"/>
			<stop  offset="0.85" style="stop-color:#005872"/>
			<stop  offset="0.92" style="stop-color:#007590"/>
			<stop  offset="1" style="stop-color:#0092AD"/>
		</linearGradient>
		<polygon class="st7" points="111.3,80 124.6,94.2 124.6,102.8 124.5,102.7 111.3,89.1 		"/>
		
			<linearGradient id="SVGID_9_" gradientUnits="userSpaceOnUse" x1="172.8176" y1="-1199.7207" x2="175.1326" y2="-1202.473" gradientTransform="matrix(1 0 0 -1 -54.61 -1107.8999)">
			<stop  offset="3.000000e-02" style="stop-color:#000000"/>
			<stop  offset="0.77" style="stop-color:#000000;stop-opacity:0"/>
		</linearGradient>
		<polygon class="st8" points="114.5,92.5 118,96.2 122.7,92.1 122.7,92.1 120,89.3 		"/>
	</g>
	
		<linearGradient id="SVGID_10_" gradientUnits="userSpaceOnUse" x1="149.2768" y1="-1186.7434" x2="162.88" y2="-1194.5931" gradientTransform="matrix(1 0 0 -1 -40.49 -1102.08)">
		<stop  offset="0" style="stop-color:#39BDBB"/>
		<stop  offset="1.000000e-02" style="stop-color:#37BCBC"/>
		<stop  offset="0.29" style="stop-color:#00ACC9"/>
		<stop  offset="0.56" style="stop-color:#00A3D2"/>
		<stop  offset="0.8" style="stop-color:#009DD8"/>
		<stop  offset="1" style="stop-color:#009CDC"/>
	</linearGradient>
	<polygon class="st9" points="106.5,88.5 106.5,97.2 124.6,88.7 124.6,80 	"/>
	
		<linearGradient id="SVGID_11_" gradientUnits="userSpaceOnUse" x1="149.2623" y1="-1200.9113" x2="162.8655" y2="-1208.761" gradientTransform="matrix(1 0 0 -1 -40.49 -1102.08)">
		<stop  offset="0" style="stop-color:#39BDBB"/>
		<stop  offset="1.000000e-02" style="stop-color:#37BCBC"/>
		<stop  offset="0.29" style="stop-color:#00ACC9"/>
		<stop  offset="0.56" style="stop-color:#00A3D2"/>
		<stop  offset="0.8" style="stop-color:#009DD8"/>
		<stop  offset="1" style="stop-color:#009CDC"/>
	</linearGradient>
	<polygon class="st10" points="106.5,102.6 106.5,111.3 124.6,102.8 124.6,94.2 	"/>
	
		<linearGradient id="SVGID_12_" gradientUnits="userSpaceOnUse" x1="129.5376" y1="-1202.7681" x2="147.0468" y2="-1207.036" gradientTransform="matrix(1 0 0 -1 -40.49 -1102.08)">
		<stop  offset="0" style="stop-color:#00A0C8"/>
		<stop  offset="8.000000e-02" style="stop-color:#00A5CB"/>
		<stop  offset="0.23" style="stop-color:#00AFD1"/>
		<stop  offset="0.4" style="stop-color:#13B8D7"/>
		<stop  offset="0.57" style="stop-color:#41C0DB"/>
		<stop  offset="0.76" style="stop-color:#50C5DE"/>
		<stop  offset="1" style="stop-color:#55C7DF"/>
	</linearGradient>
	<polygon class="st11" points="106.5,102.6 106.5,111.3 88.5,102.8 88.5,94.2 	"/>
	<g>
		
			<linearGradient id="SVGID_13_" gradientUnits="userSpaceOnUse" x1="130.0046" y1="-1183.8436" x2="141.7377" y2="-1186.709" gradientTransform="matrix(1 0 0 -1 -40.49 -1102.08)">
			<stop  offset="0" style="stop-color:#FFFFFF;stop-opacity:0.35"/>
			<stop  offset="1" style="stop-color:#FFFFFF;stop-opacity:0.35"/>
		</linearGradient>
		<polygon class="st12" points="88.5,80 88.5,80.3 100.1,85.6 101.8,86.3 		"/>
		
			<linearGradient id="SVGID_14_" gradientUnits="userSpaceOnUse" x1="153.8855" y1="-1184.1155" x2="163.2509" y2="-1186.4003" gradientTransform="matrix(1 0 0 -1 -40.49 -1102.08)">
			<stop  offset="0" style="stop-color:#FFFFFF;stop-opacity:0.35"/>
			<stop  offset="1" style="stop-color:#FFFFFF;stop-opacity:0.5"/>
		</linearGradient>
		<polygon class="st13" points="124.6,80 124.6,80 112.6,85.6 111.3,86.3 114.6,85 124.6,80.3 		"/>
	</g>
	<g>
		
			<linearGradient id="SVGID_15_" gradientUnits="userSpaceOnUse" x1="129.454" y1="-1197.0251" x2="134.5815" y2="-1198.277" gradientTransform="matrix(1 0 0 -1 -40.49 -1102.08)">
			<stop  offset="0" style="stop-color:#FFFFFF;stop-opacity:0.35"/>
			<stop  offset="1" style="stop-color:#FFFFFF;stop-opacity:0.35"/>
		</linearGradient>
		<polygon class="st14" points="88.5,94.2 88.5,94.4 90.8,95.5 94.4,96.9 		"/>
		
			<linearGradient id="SVGID_16_" gradientUnits="userSpaceOnUse" x1="160.1895" y1="-1197.145" x2="164.3142" y2="-1198.1555" gradientTransform="matrix(1 0 0 -1 -40.49 -1102.08)">
			<stop  offset="0" style="stop-color:#FFFFFF;stop-opacity:0.35"/>
			<stop  offset="1" style="stop-color:#FFFFFF;stop-opacity:0.5"/>
		</linearGradient>
		<polygon class="st15" points="124.6,94.2 124.6,94.2 118.7,96.9 121.6,95.9 124.6,94.4 		"/>
	</g>
</g>
<g>
	<polygon points="66.3,131.2 67.4,131.2 67.4,140.5 66.3,140.5 66.3,141.6 69.8,141.6 69.8,140.5 68.8,140.5 68.8,131.2 69.8,131.2 
		69.8,130.2 66.3,130.2 	"/>
	<polygon points="79.9,131.2 80.8,131.2 80.8,139 75.5,130.2 73.1,130.2 73.1,131.2 74,131.2 74,140.5 73.1,140.5 73.1,141.6 
		76.4,141.6 76.4,140.5 75.4,140.5 75.4,132.8 80.8,141.6 82.2,141.6 82.2,131.2 83.1,131.2 83.1,130.2 79.9,130.2 	"/>
	<polygon points="85.3,132.9 86.6,132.9 86.6,131.4 88.7,131.4 88.7,140.5 87.5,140.5 87.5,141.6 91.3,141.6 91.3,140.5 90.2,140.5 
		90.2,131.4 92.3,131.4 92.3,132.9 93.6,132.9 93.6,130.2 85.3,130.2 	"/>
	<polygon points="102.4,140.2 98.2,140.2 98.2,136.4 102.6,136.4 102.6,135.2 98.2,135.2 98.2,131.4 102.2,131.4 102.2,132.9 
		103.3,132.9 103.3,130.2 95.9,130.2 95.9,131.2 96.8,131.2 96.8,140.5 95.9,140.5 95.9,141.6 103.6,141.6 103.6,138.9 102.4,138.9 
			"/>
	<path d="M113.2,137.5c-0.2-0.3-0.3-0.6-0.6-0.9c0.7-0.2,1.1-0.6,1.4-1.2c0.2-0.2,0.2-0.6,0.2-0.9c0.1-0.3,0.1-0.7,0.1-1
		s0-0.7-0.1-1s-0.2-0.6-0.2-0.9c-0.4-1-1.5-1.5-3.2-1.5h-4.3v1.1h0.9v9.2h-0.9v1.1h3.2v-1.1h-0.9v-3.5h1c0.4,0,0.8,0.1,1.2,0.2
		c0.3,0.2,0.5,0.5,0.7,0.7l1.6,3.7h2.1v-1.1h-1L113.2,137.5z M109.1,131.3h1.9c0.9,0,1.6,0.2,1.7,0.7c0.1,0.2,0.2,0.4,0.2,0.7
		c0.1,0.6,0.1,1.1,0,1.8c-0.1,0.2-0.2,0.4-0.2,0.7c-0.4,0.5-1.1,0.7-1.7,0.7h-1.9V131.3z"/>
	<path d="M123.2,130.2h-1.7l-3.4,10.3h-0.7v1.1h3v-1.1h-0.7l0.8-2.5h4l0.8,2.5h-0.8v1.1h3v-1.1h-0.7L123.2,130.2z M120.6,136.7
		l1.6-4.9l1.6,4.9H120.6z"/>
	<path d="M136.2,138.1c0,0.7-0.2,1.3-0.6,1.8c-0.5,0.5-1.2,0.7-1.9,0.7c-0.7,0.1-1.6-0.2-2.1-0.7c-0.2-0.2-0.4-0.6-0.4-1
		c-0.2-0.4-0.2-0.8-0.2-1.2s-0.1-1-0.1-1.6c0-0.6,0-1.1,0.1-1.6c0-0.8,0.2-1.6,0.7-2.3c0.5-0.6,1.2-0.8,2.1-0.7
		c1.2-0.2,2.4,0.6,2.5,1.8c0,0.2,0,0.4,0,0.7v0.2h1.1v-3.7h-1.1v0.7c-0.7-0.7-1.6-1.1-2.6-1c-0.7,0-1.5,0.1-2.1,0.4
		c-0.6,0.2-1.1,0.7-1.3,1.2c-0.2,0.6-0.5,1.1-0.6,1.8c-0.1,0.9-0.2,1.8-0.2,2.6c0,1,0.1,1.9,0.2,2.9c0.1,0.4,0.2,0.8,0.4,1.2
		c0.2,0.3,0.5,0.7,0.7,0.9c0.8,0.6,1.8,0.8,2.9,0.7c1.3,0,2.3-0.3,2.8-1c0.2-0.3,0.4-0.7,0.6-1.1c0.2-0.5,0.2-0.9,0.2-1.4v-0.2
		L136.2,138.1L136.2,138.1z"/>
	<polygon points="139.6,130.2 139.6,132.9 140.7,132.9 140.7,131.4 142.9,131.4 142.9,140.5 141.8,140.5 141.8,141.6 145.5,141.6 
		145.5,140.5 144.3,140.5 144.3,131.4 146.5,131.4 146.5,132.9 147.7,132.9 147.7,130.2 	"/>
</g>
</svg>
