<?xml version="1.0" encoding="utf-8"?>
<!-- Generator: Adobe Illustrator 25.1.0, SVG Export Plug-In . SVG Version: 6.00 Build 0)  -->
<svg version="1.1" id="Layer_1" xmlns="http://www.w3.org/2000/svg" xmlns:xlink="http://www.w3.org/1999/xlink" x="0px" y="0px"
	 viewBox="0 0 214 214" style="enable-background:new 0 0 214 214;" xml:space="preserve">
<style type="text/css">
	.st0{clip-path:url(#SVGID_2_);}
	.st1{fill:url(#SVGID_5_);}
	.st2{fill:url(#SVGID_6_);}
	.st3{fill:url(#SVGID_7_);}
	.st4{opacity:0.45;fill:url(#SVGID_8_);enable-background:new    ;}
	.st5{fill:url(#SVGID_9_);}
	.st6{fill:url(#SVGID_10_);}
	.st7{fill:url(#SVGID_11_);}
	.st8{fill:url(#SVGID_12_);}
	.st9{opacity:0.45;fill:url(#SVGID_13_);enable-background:new    ;}
	.st10{fill:url(#SVGID_14_);}
	.st11{fill:url(#SVGID_15_);}
	.st12{fill:url(#SVGID_16_);}
	.st13{fill:url(#SVGID_17_);}
	.st14{opacity:0.5;fill:url(#SVGID_18_);enable-background:new    ;}
	.st15{fill:url(#SVGID_19_);}
	.st16{opacity:0.5;fill:url(#SVGID_20_);enable-background:new    ;}
	.st17{fill:#161616;}
</style>
<g>
	<g>
		<g>
			<defs>
				<rect id="SVGID_1_" x="-1715.3" y="-3585.8" width="3717" height="7729"/>
			</defs>
			<clipPath id="SVGID_2_">
				<use xlink:href="#SVGID_1_"  style="overflow:visible;"/>
			</clipPath>
			<g class="st0">
				<g>
					<g>
						<defs>
							<rect id="SVGID_3_" x="56.7" y="2225.2" width="136" height="154"/>
						</defs>
						<clipPath id="SVGID_4_">
							<use xlink:href="#SVGID_3_"  style="overflow:visible;"/>
						</clipPath>
					</g>
				</g>
			</g>
		</g>
	</g>
</g>
<g>
	<g>
		
			<linearGradient id="SVGID_5_" gradientUnits="userSpaceOnUse" x1="-8955.5938" y1="701.4967" x2="-8955.5938" y2="688.0784" gradientTransform="matrix(1 0 0 1 9042.7998 -620.071)">
			<stop  offset="0.2667" style="stop-color:#063A52"/>
			<stop  offset="0.3473" style="stop-color:#003E57"/>
			<stop  offset="0.4756" style="stop-color:#004B66"/>
			<stop  offset="0.6357" style="stop-color:#006180"/>
			<stop  offset="0.8195" style="stop-color:#0083AA"/>
			<stop  offset="0.9212" style="stop-color:#009BCB"/>
		</linearGradient>
		<polygon class="st1" points="82.6,73.1 91.8,67.9 91.8,77.9 82.7,82.3 		"/>
		
			<linearGradient id="SVGID_6_" gradientUnits="userSpaceOnUse" x1="-8948.4521" y1="699.6503" x2="-8944.999" y2="690.1631" gradientTransform="matrix(1 0 0 1 9042.7988 -620.071)">
			<stop  offset="0.2667" style="stop-color:#00283B"/>
			<stop  offset="0.3844" style="stop-color:#003346"/>
			<stop  offset="0.6146" style="stop-color:#004F65"/>
			<stop  offset="0.9321" style="stop-color:#0080A2"/>
			<stop  offset="1" style="stop-color:#008EB4"/>
		</linearGradient>
		<polygon class="st2" points="91.8,67.9 100.3,73.1 100.3,81.8 91.8,77.8 		"/>
		
			<linearGradient id="SVGID_7_" gradientUnits="userSpaceOnUse" x1="-8952.8389" y1="717.2277" x2="-8948.7666" y2="694.1348" gradientTransform="matrix(1 0 0 1 9042.7998 -620.071)">
			<stop  offset="0.1152" style="stop-color:#003D56"/>
			<stop  offset="0.1939" style="stop-color:#005A77"/>
			<stop  offset="0.2611" style="stop-color:#006A8C"/>
			<stop  offset="0.3212" style="stop-color:#00779E"/>
			<stop  offset="0.3255" style="stop-color:#00759B"/>
			<stop  offset="0.3593" style="stop-color:#006D8F"/>
			<stop  offset="0.396" style="stop-color:#006382"/>
			<stop  offset="0.4352" style="stop-color:#005976"/>
			<stop  offset="0.4776" style="stop-color:#00506B"/>
			<stop  offset="0.5245" style="stop-color:#004962"/>
			<stop  offset="0.5782" style="stop-color:#00435C"/>
			<stop  offset="0.6449" style="stop-color:#004057"/>
			<stop  offset="0.7636" style="stop-color:#003F56"/>
			<stop  offset="0.7932" style="stop-color:#00465E"/>
			<stop  offset="0.8489" style="stop-color:#005872"/>
			<stop  offset="0.9244" style="stop-color:#007590"/>
			<stop  offset="1" style="stop-color:#0092AD"/>
		</linearGradient>
		<polygon class="st3" points="100.3,73.1 82.6,91.9 82.6,103.4 82.8,103.3 100.3,85.2 		"/>
		
			<linearGradient id="SVGID_8_" gradientUnits="userSpaceOnUse" x1="-1225.9861" y1="714.6868" x2="-1222.9221" y2="718.3383" gradientTransform="matrix(-1 0 0 1 -1134.8271 -625.8898)">
			<stop  offset="3.030300e-02" style="stop-color:#000000"/>
			<stop  offset="0.7697" style="stop-color:#000000;stop-opacity:0"/>
		</linearGradient>
		<polygon class="st4" points="96.1,89.7 91.4,94.6 85.1,89.2 85.2,89.2 88.8,85.4 		"/>
	</g>
	
		<linearGradient id="SVGID_9_" gradientUnits="userSpaceOnUse" x1="69.2351" y1="704.6225" x2="88.7702" y2="704.504" gradientTransform="matrix(1 0 0 1 14.1221 -620.071)">
		<stop  offset="0" style="stop-color:#00A0C8"/>
		<stop  offset="7.606477e-02" style="stop-color:#00A5CB"/>
		<stop  offset="0.2326" style="stop-color:#00AFD1"/>
		<stop  offset="0.3974" style="stop-color:#13B8D7"/>
		<stop  offset="0.5719" style="stop-color:#41C0DB"/>
		<stop  offset="0.7625" style="stop-color:#50C5DE"/>
		<stop  offset="1" style="stop-color:#55C7DF"/>
	</linearGradient>
	<polygon class="st5" points="106.5,84.4 106.5,95.9 82.6,84.7 82.6,73.1 	"/>
	<g>
		
			<linearGradient id="SVGID_10_" gradientUnits="userSpaceOnUse" x1="-10303.5312" y1="701.4967" x2="-10303.5312" y2="688.0784" gradientTransform="matrix(-1 0 0 1 -10177.627 -620.071)">
			<stop  offset="0.2667" style="stop-color:#063A52"/>
			<stop  offset="0.3473" style="stop-color:#003E57"/>
			<stop  offset="0.4756" style="stop-color:#004B66"/>
			<stop  offset="0.6357" style="stop-color:#006180"/>
			<stop  offset="0.8195" style="stop-color:#0083AA"/>
			<stop  offset="0.9212" style="stop-color:#009BCB"/>
		</linearGradient>
		<polygon class="st6" points="130.5,73.1 121.3,67.9 121.3,77.9 130.4,82.3 		"/>
		
			<linearGradient id="SVGID_11_" gradientUnits="userSpaceOnUse" x1="-10296.3955" y1="699.6641" x2="-10292.9424" y2="690.177" gradientTransform="matrix(-1 0 0 1 -10177.627 -620.071)">
			<stop  offset="0.2667" style="stop-color:#00283B"/>
			<stop  offset="0.3844" style="stop-color:#003346"/>
			<stop  offset="0.6146" style="stop-color:#004F65"/>
			<stop  offset="0.9321" style="stop-color:#0080A2"/>
			<stop  offset="1" style="stop-color:#008EB4"/>
		</linearGradient>
		<polygon class="st7" points="121.3,67.9 112.8,73.1 112.8,81.8 121.3,77.8 		"/>
		
			<linearGradient id="SVGID_12_" gradientUnits="userSpaceOnUse" x1="-10300.7773" y1="717.233" x2="-10296.7061" y2="694.1402" gradientTransform="matrix(-1 0 0 1 -10177.627 -620.071)">
			<stop  offset="0.1152" style="stop-color:#003D56"/>
			<stop  offset="0.1939" style="stop-color:#005A77"/>
			<stop  offset="0.2611" style="stop-color:#006A8C"/>
			<stop  offset="0.3212" style="stop-color:#00779E"/>
			<stop  offset="0.3255" style="stop-color:#00759B"/>
			<stop  offset="0.3593" style="stop-color:#006D8F"/>
			<stop  offset="0.396" style="stop-color:#006382"/>
			<stop  offset="0.4352" style="stop-color:#005976"/>
			<stop  offset="0.4776" style="stop-color:#00506B"/>
			<stop  offset="0.5245" style="stop-color:#004962"/>
			<stop  offset="0.5782" style="stop-color:#00435C"/>
			<stop  offset="0.6449" style="stop-color:#004057"/>
			<stop  offset="0.7636" style="stop-color:#003F56"/>
			<stop  offset="0.7932" style="stop-color:#00465E"/>
			<stop  offset="0.8489" style="stop-color:#005872"/>
			<stop  offset="0.9244" style="stop-color:#007590"/>
			<stop  offset="1" style="stop-color:#0092AD"/>
		</linearGradient>
		<polygon class="st8" points="112.8,73.1 130.5,91.9 130.5,103.4 130.3,103.3 112.8,85.2 		"/>
		
			<linearGradient id="SVGID_13_" gradientUnits="userSpaceOnUse" x1="121.985" y1="714.6856" x2="125.0488" y2="718.3369" gradientTransform="matrix(1 0 0 1 0 -625.8898)">
			<stop  offset="3.030300e-02" style="stop-color:#000000"/>
			<stop  offset="0.7697" style="stop-color:#000000;stop-opacity:0"/>
		</linearGradient>
		<polygon class="st9" points="117.1,89.7 121.8,94.6 128,89.2 128,89.2 124.4,85.4 		"/>
	</g>
	
		<linearGradient id="SVGID_14_" gradientUnits="userSpaceOnUse" x1="95.3911" y1="699.363" x2="113.4333" y2="709.7797" gradientTransform="matrix(1 0 0 1 14.1221 -620.071)">
		<stop  offset="0" style="stop-color:#39BDBB"/>
		<stop  offset="8.927166e-03" style="stop-color:#37BCBC"/>
		<stop  offset="0.289" style="stop-color:#00ACC9"/>
		<stop  offset="0.555" style="stop-color:#00A3D2"/>
		<stop  offset="0.7989" style="stop-color:#009DD8"/>
		<stop  offset="1" style="stop-color:#009CDC"/>
	</linearGradient>
	<polygon class="st10" points="106.5,84.4 106.5,95.9 130.5,84.7 130.5,73.1 	"/>
	
		<linearGradient id="SVGID_15_" gradientUnits="userSpaceOnUse" x1="95.3728" y1="718.1459" x2="113.4149" y2="728.5626" gradientTransform="matrix(1 0 0 1 14.1221 -620.071)">
		<stop  offset="0" style="stop-color:#39BDBB"/>
		<stop  offset="8.927166e-03" style="stop-color:#37BCBC"/>
		<stop  offset="0.289" style="stop-color:#00ACC9"/>
		<stop  offset="0.555" style="stop-color:#00A3D2"/>
		<stop  offset="0.7989" style="stop-color:#009DD8"/>
		<stop  offset="1" style="stop-color:#009CDC"/>
	</linearGradient>
	<polygon class="st11" points="106.5,103.1 106.5,114.7 130.5,103.4 130.5,91.9 	"/>
	
		<linearGradient id="SVGID_16_" gradientUnits="userSpaceOnUse" x1="69.2168" y1="720.6104" x2="92.4384" y2="726.2705" gradientTransform="matrix(1 0 0 1 14.1221 -620.071)">
		<stop  offset="0" style="stop-color:#00A0C8"/>
		<stop  offset="7.606477e-02" style="stop-color:#00A5CB"/>
		<stop  offset="0.2326" style="stop-color:#00AFD1"/>
		<stop  offset="0.3974" style="stop-color:#13B8D7"/>
		<stop  offset="0.5719" style="stop-color:#41C0DB"/>
		<stop  offset="0.7625" style="stop-color:#50C5DE"/>
		<stop  offset="1" style="stop-color:#55C7DF"/>
	</linearGradient>
	<polygon class="st12" points="106.5,103.1 106.5,114.7 82.6,103.4 82.6,91.9 	"/>
	<g>
		
			<linearGradient id="SVGID_17_" gradientUnits="userSpaceOnUse" x1="69.8428" y1="695.4974" x2="85.405" y2="699.2906" gradientTransform="matrix(1 0 0 1 14.1221 -620.071)">
			<stop  offset="0" style="stop-color:#FFFFFF;stop-opacity:0.35"/>
			<stop  offset="1" style="stop-color:#FFFFFF;stop-opacity:0.35"/>
		</linearGradient>
		<polygon class="st13" points="82.6,73.1 82.6,73.5 98,80.6 100.3,81.5 		"/>
		
			<linearGradient id="SVGID_18_" gradientUnits="userSpaceOnUse" x1="101.5109" y1="695.8668" x2="113.9313" y2="698.8942" gradientTransform="matrix(1 0 0 1 14.1221 -620.071)">
			<stop  offset="0" style="stop-color:#FFFFFF;stop-opacity:0.35"/>
			<stop  offset="1" style="stop-color:#FFFFFF;stop-opacity:0.5"/>
		</linearGradient>
		<polygon class="st14" points="130.5,73.1 130.5,73.1 114.6,80.6 112.8,81.5 117.2,79.7 130.5,73.5 		"/>
	</g>
	<g>
		
			<linearGradient id="SVGID_19_" gradientUnits="userSpaceOnUse" x1="69.1045" y1="712.9944" x2="75.9036" y2="714.6516" gradientTransform="matrix(1 0 0 1 14.1221 -620.071)">
			<stop  offset="0" style="stop-color:#FFFFFF;stop-opacity:0.35"/>
			<stop  offset="1" style="stop-color:#FFFFFF;stop-opacity:0.35"/>
		</linearGradient>
		<polygon class="st15" points="82.6,91.9 82.6,92.2 85.7,93.7 90.4,95.6 		"/>
		
			<linearGradient id="SVGID_20_" gradientUnits="userSpaceOnUse" x1="109.863" y1="713.1578" x2="115.3317" y2="714.4907" gradientTransform="matrix(1 0 0 1 14.1221 -620.071)">
			<stop  offset="0" style="stop-color:#FFFFFF;stop-opacity:0.35"/>
			<stop  offset="1" style="stop-color:#FFFFFF;stop-opacity:0.5"/>
		</linearGradient>
		<polygon class="st16" points="130.5,91.9 130.5,91.9 122.7,95.6 126.5,94.2 130.5,92.2 		"/>
	</g>
</g>
<g id="g7594">
	<polygon id="polygon7578" class="st17" points="71.6,126.8 72.5,126.8 72.5,134.9 71.6,134.9 71.6,135.8 74.7,135.8 74.7,134.9 
		73.8,134.9 73.8,126.8 74.7,126.8 74.7,125.9 71.6,125.9 	"/>
	<polygon id="polygon7580" class="st17" points="83.5,126.8 84.3,126.8 84.3,133.6 79.6,125.9 77.6,125.9 77.6,126.8 78.4,126.8 
		78.4,134.9 77.6,134.9 77.6,135.8 80.4,135.8 80.4,134.9 79.6,134.9 79.6,128.2 84.2,135.8 85.5,135.8 85.5,126.8 86.3,126.8 
		86.3,125.9 83.5,125.9 	"/>
	<polygon id="polygon7582" class="st17" points="88.3,128.3 89.3,128.3 89.3,126.9 91.2,126.9 91.2,134.9 90.1,134.9 90.1,135.8 
		93.5,135.8 93.5,134.9 92.5,134.9 92.5,126.9 94.3,126.9 94.3,128.3 95.4,128.3 95.4,125.9 88.3,125.9 	"/>
	<polygon id="polygon7584" class="st17" points="103.2,134.7 99.5,134.7 99.5,131.3 103.3,131.3 103.3,130.3 99.5,130.3 99.5,126.9 
		102.9,126.9 102.9,128.3 104,128.3 104,125.9 97.5,125.9 97.5,126.8 98.3,126.8 98.3,134.9 97.5,134.9 97.5,135.8 104.2,135.8 
		104.2,133.5 103.2,133.5 	"/>
	<path id="path7586" class="st17" d="M112.6,132.4c-0.2-0.3-0.3-0.6-0.5-0.8c0.6-0.2,1.1-0.6,1.2-1.1c0.1-0.3,0.2-0.6,0.2-0.8
		c0.1-0.3,0.1-0.6,0.1-0.9c0-0.3,0-0.6-0.1-0.9c-0.1-0.3-0.1-0.5-0.2-0.8c-0.4-0.8-1.3-1.3-2.8-1.3h-3.7v0.9h0.8v8h-0.8v0.9h2.8
		v-0.9h-0.8v-3.1h0.9c0.4,0,0.8,0.1,1.1,0.2c0.2,0.1,0.4,0.3,0.6,0.7l1.4,3.2h1.8v-0.9h-0.9L112.6,132.4z M109,126.9h1.7
		c0.8,0,1.3,0.2,1.5,0.6c0.1,0.2,0.2,0.4,0.2,0.6c0.1,0.2,0.1,0.4,0.1,0.8c0,0.3,0,0.6-0.1,0.8c-0.1,0.2-0.1,0.4-0.2,0.6
		c-0.2,0.3-0.7,0.6-1.5,0.6H109V126.9z"/>
	<path id="path7588" class="st17" d="M121.3,125.9h-1.5l-3,9h-0.7v0.9h2.6v-0.9H118l0.7-2.2h3.5l0.7,2.2h-0.7v0.9h2.6v-0.9h-0.7
		L121.3,125.9z M119,131.6l1.4-4.3l1.4,4.3H119z"/>
	<path id="path7590" class="st17" d="M132.7,132.9c0,0.7-0.2,1.2-0.5,1.5c-0.3,0.3-0.9,0.6-1.7,0.6c-0.8,0-1.4-0.2-1.8-0.7
		c-0.2-0.2-0.3-0.4-0.4-0.8c-0.1-0.4-0.2-0.8-0.2-1.1c0-0.3-0.1-0.8-0.1-1.4c0-0.6,0-1.1,0.1-1.4c0.1-0.9,0.3-1.6,0.6-2
		c0.4-0.4,1-0.7,1.8-0.7s1.4,0.2,1.7,0.6c0.3,0.3,0.6,0.9,0.6,1.6v0.1h1v-3.2h-1v0.7c-0.5-0.6-1.3-0.9-2.3-0.9
		c-0.8,0-1.4,0.1-1.9,0.3c-0.5,0.2-0.9,0.6-1.2,1.1c-0.2,0.5-0.4,1-0.5,1.5c-0.1,0.6-0.1,1.3-0.1,2.3c0,1,0.1,1.8,0.2,2.5
		c0.1,0.4,0.2,0.8,0.4,1.1s0.4,0.5,0.7,0.8c0.5,0.4,1.4,0.7,2.5,0.7c1.2,0,2-0.3,2.4-0.9c0.2-0.3,0.4-0.6,0.5-0.9
		c0.1-0.3,0.2-0.8,0.2-1.2v-0.2l-1.1-0.1V132.9z"/>
	<polygon id="polygon7592" class="st17" points="135.6,125.9 135.6,128.3 136.6,128.3 136.6,126.9 138.6,126.9 138.6,134.9 
		137.5,134.9 137.5,135.8 140.8,135.8 140.8,134.9 139.8,134.9 139.8,126.9 141.7,126.9 141.7,128.3 142.7,128.3 142.7,125.9 	"/>
</g>
</svg>
