<?xml version="1.0" encoding="utf-8"?>
<!-- Generator: Adobe Illustrator 25.1.0, SVG Export Plug-In . SVG Version: 6.00 Build 0)  -->
<svg version="1.1" id="Layer_1" xmlns="http://www.w3.org/2000/svg" xmlns:xlink="http://www.w3.org/1999/xlink" x="0px" y="0px"
	 viewBox="0 0 260 100" style="enable-background:new 0 0 260 100;" xml:space="preserve">
<style type="text/css">
	.st0{fill:#647DEB;}
	.st1{fill:#FFFFFF;}
	.st2{fill:#051428;}
</style>
<desc>Created with Sketch.</desc>
<path class="st0" d="M162.7,39.1c0-1.1,0.9-2,2-2h67c1.1,0,2,0.9,2,2v23.6c0,1.1-0.9,2-2,2h-67c-1.1,0-2-0.9-2-2V39.1z"/>
<path class="st1" d="M174.1,56.9c1.4,0,2.3-0.6,2.9-1.5v1.3h2.6V44.1H177v4.6c-0.6-0.7-1.5-1.4-2.9-1.4c-2.2,0-4.2,1.7-4.2,4.8v0
	C169.8,55.2,171.9,56.9,174.1,56.9z M174.7,54.7c-1.2,0-2.3-1-2.3-2.6v0c0-1.6,1-2.6,2.3-2.6c1.2,0,2.3,1,2.3,2.6v0
	C177,53.7,176,54.7,174.7,54.7z"/>
<path class="st1" d="M182,46.5h2.8v-2.3H182V46.5z M182.1,56.8h2.6v-9.3h-2.6V56.8z"/>
<path class="st1" d="M191.3,59.6c1.8,0,3.1-0.4,4-1.2c0.8-0.8,1.2-2,1.2-3.7v-7.2h-2.6v1.2c-0.7-0.8-1.6-1.4-3-1.4
	c-2.1,0-4.1,1.6-4.1,4.3v0c0,2.8,2,4.3,4.1,4.3c1.4,0,2.3-0.6,3-1.5v0.5c0,1.7-0.8,2.5-2.7,2.5c-1.2,0-2.2-0.3-3.1-0.8l-0.9,2
	C188.4,59.2,189.8,59.6,191.3,59.6z M191.6,53.8c-1.3,0-2.3-0.9-2.3-2.1v0c0-1.3,1-2.1,2.3-2.1c1.3,0,2.3,0.9,2.3,2.1v0
	C193.9,52.9,192.9,53.8,191.6,53.8z"/>
<path class="st1" d="M198.9,46.5h2.8v-2.3h-2.8V46.5z M199,56.8h2.6v-9.3H199V56.8z"/>
<path class="st1" d="M207.2,56.9c0.9,0,1.5-0.2,2.1-0.5v-2.1c-0.4,0.2-0.8,0.3-1.3,0.3c-0.6,0-0.8-0.3-0.8-0.9v-4h2.2v-2.3h-2.2
	v-2.4h-2.6v2.4h-1.1v2.3h1.1v4.4C204.5,56.3,205.6,56.9,207.2,56.9z"/>
<path class="st1" d="M213.9,56.9c1.3,0,2.2-0.5,2.8-1.2v1h2.5v-5.4c0-1.2-0.3-2.3-1-3c-0.7-0.7-1.7-1-3.1-1c-1.6,0-2.6,0.3-3.6,0.7
	l0.7,2c0.8-0.3,1.6-0.5,2.6-0.5c1.3,0,2,0.6,2,1.7v0.2c-0.7-0.2-1.3-0.4-2.3-0.4c-2.2,0-3.7,0.9-3.7,3v0
	C210.7,55.9,212.2,56.9,213.9,56.9z M214.7,55.1c-0.8,0-1.4-0.4-1.4-1.1v0c0-0.8,0.7-1.3,1.8-1.3c0.6,0,1.2,0.1,1.7,0.3v0.5
	C216.8,54.4,215.9,55.1,214.7,55.1z"/>
<path class="st1" d="M221.7,56.8h2.6V44.1h-2.6V56.8z"/>
<path class="st2" d="M145.4,45.7c2.5,0,4.6,1.7,5.1,4.1c0,0.1,0.1,0.2,0.3,0.2h5c0.1,0,0.3-0.1,0.3-0.3c0-2.2-2.4-9.6-10.7-9.6
	c-8.3,0-10.7,7.4-10.7,9.6c0,0.1,0.1,0.3,0.3,0.3h5c0.1,0,0.2-0.1,0.3-0.2C140.8,47.4,142.9,45.7,145.4,45.7z"/>
<path class="st2" d="M145.4,56.2c2.5,0,4.6-1.7,5.1-4.1c0-0.1,0.1-0.2,0.3-0.2h5c0.1,0,0.3,0.1,0.3,0.3c0,2.2-2.4,9.6-10.7,9.6
	c-8.3,0-10.7-7.4-10.7-9.6c0-0.1,0.1-0.3,0.3-0.3h5c0.1,0,0.2,0.1,0.3,0.2C140.8,54.5,142.9,56.2,145.4,56.2z"/>
<path class="st2" d="M95.9,61.1c0,0.1-0.1,0.3-0.3,0.3h-5.2c-0.1,0-0.3-0.1-0.3-0.3V47.7c0-0.1,0.1-0.3,0.3-0.3h5.2
	c0.1,0,0.3,0.1,0.3,0.3V61.1z"/>
<path class="st2" d="M84,45.6c-0.1,0-0.3-0.1-0.3-0.3v-4.6c0-0.1,0.1-0.3,0.3-0.3h18.1c0.1,0,0.3,0.1,0.3,0.3v4.6
	c0,0.1-0.1,0.3-0.3,0.3H84z"/>
<path class="st2" d="M67.3,53.3c-0.1,0-0.3-0.1-0.3-0.3v-4c0-0.1,0.1-0.3,0.3-0.3h7.6c0.1,0,0.3,0.1,0.3,0.3v4
	c0,0.1-0.1,0.3-0.3,0.3H67.3z"/>
<path class="st2" d="M76.1,56.3H65.2V45.6H76c0.1,0,0.3-0.1,0.3-0.3v-4.6c0-0.1-0.1-0.3-0.3-0.3H59.8c-0.1,0-0.3,0.1-0.3,0.3v20.3
	c0,0.1,0.1,0.3,0.3,0.3h16.4c0.1,0,0.3-0.1,0.3-0.3v-4.6C76.4,56.4,76.2,56.3,76.1,56.3z"/>
<path class="st2" d="M50.5,40.6c0-0.1,0-0.2-0.1-0.2c-0.1,0-0.2,0-0.3,0l-10.6,6.4l-10.6-6.4c-0.1,0-0.2,0-0.3,0
	c-0.1,0-0.1,0.1-0.1,0.2v20.5c0,0.1,0.1,0.3,0.3,0.3h5.2c0.1,0,0.3-0.1,0.3-0.3V49.8l5,3c0,0,0.2,0.1,0.3,0.1c0.1,0,0.2,0,0.3-0.1
	c0,0,10.6-6.3,10.6-6.4c0.1,0,0.1-0.1,0.1-0.3C50.5,46.1,50.5,40.6,50.5,40.6z"/>
<path class="st2" d="M50.4,48.8c-0.1,0-0.2,0-0.3,0L45,51.9c-0.1,0.1-0.2,0.1-0.2,0.4v8.9c0,0.1,0.1,0.3,0.3,0.3h5.2
	c0.1,0,0.3-0.1,0.3-0.3V49C50.5,48.9,50.5,48.8,50.4,48.8z"/>
<path class="st2" d="M114.8,40.6h-5.2c-0.1,0-0.3,0.1-0.3,0.3v20.2c0,0.1,0.1,0.3,0.3,0.3h5.2c0.1,0,0.3-0.1,0.3-0.3V40.9
	C115.1,40.7,114.9,40.6,114.8,40.6z"/>
<path class="st2" d="M115.1,61.1c0,0.1-0.1,0.3-0.3,0.3h-5.2c-0.1,0-0.3-0.1-0.3-0.3V40.8c0-0.1,0.1-0.3,0.3-0.3h5.2
	c0.1,0,0.3,0.1,0.3,0.3V61.1z"/>
<path class="st2" d="M122.9,54.2c0,0,4.9-1.4,4.9-6.6c0-7-6.7-7-9.5-7h-1c-0.1,0-0.3,0.1-0.3,0.3v4.6c0,0.1,0.1,0.3,0.3,0.3h1.7
	c0.8,0,3.1,0.1,3.1,2.5c0,2.3-2.4,2.5-3.1,2.5h-1.7c-0.1,0-0.3,0.1-0.3,0.3v4c0,0.3,0.1,0.4,0.1,0.4l4.1,6c0,0.1,0.1,0.1,0.2,0.1h6
	c0.1,0,0.2,0,0.2-0.1c0-0.1,0-0.2,0-0.3L122.9,54.2z"/>
<path class="st2" d="M145.4,45.7c2.5,0,4.6,1.7,5.1,4.1c0,0.1,0.1,0.2,0.3,0.2h5c0.1,0,0.3-0.1,0.3-0.3c0-2.2-2.4-9.6-10.7-9.6
	c-8.3,0-10.7,7.4-10.7,9.6c0,0.1,0.1,0.3,0.3,0.3h5c0.1,0,0.2-0.1,0.3-0.2C140.8,47.4,142.9,45.7,145.4,45.7z"/>
<path class="st2" d="M145.4,56.2c2.5,0,4.6-1.7,5.1-4.1c0-0.1,0.1-0.2,0.3-0.2h5c0.1,0,0.3,0.1,0.3,0.3c0,2.2-2.4,9.6-10.7,9.6
	c-8.3,0-10.7-7.4-10.7-9.6c0-0.1,0.1-0.3,0.3-0.3h5c0.1,0,0.2,0.1,0.3,0.2C140.8,54.5,142.9,56.2,145.4,56.2z"/>
<path class="st2" d="M95.9,61.1c0,0.1-0.1,0.3-0.3,0.3h-5.2c-0.1,0-0.3-0.1-0.3-0.3V47.7c0-0.1,0.1-0.3,0.3-0.3h5.2
	c0.1,0,0.3,0.1,0.3,0.3V61.1z"/>
<path class="st2" d="M84,45.6c-0.1,0-0.3-0.1-0.3-0.3v-4.6c0-0.1,0.1-0.3,0.3-0.3h18.1c0.1,0,0.3,0.1,0.3,0.3v4.6
	c0,0.1-0.1,0.3-0.3,0.3H84z"/>
<path class="st2" d="M67.3,53.3c-0.1,0-0.3-0.1-0.3-0.3v-4c0-0.1,0.1-0.3,0.3-0.3h7.6c0.1,0,0.3,0.1,0.3,0.3v4
	c0,0.1-0.1,0.3-0.3,0.3H67.3z"/>
<path class="st2" d="M76.1,56.3H65.2V45.6H76c0.1,0,0.3-0.1,0.3-0.3v-4.6c0-0.1-0.1-0.3-0.3-0.3H59.8c-0.1,0-0.3,0.1-0.3,0.3v20.3
	c0,0.1,0.1,0.3,0.3,0.3h16.4c0.1,0,0.3-0.1,0.3-0.3v-4.6C76.4,56.4,76.2,56.3,76.1,56.3z"/>
<path class="st2" d="M50.5,40.6c0-0.1,0-0.2-0.1-0.2c-0.1,0-0.2,0-0.3,0l-10.6,6.4l-10.6-6.4c-0.1,0-0.2,0-0.3,0
	c-0.1,0-0.1,0.1-0.1,0.2v20.5c0,0.1,0.1,0.3,0.3,0.3h5.2c0.1,0,0.3-0.1,0.3-0.3V49.8l5,3c0,0,0.2,0.1,0.3,0.1c0.1,0,0.2,0,0.3-0.1
	c0,0,10.6-6.3,10.6-6.4c0.1,0,0.1-0.1,0.1-0.3C50.5,46.1,50.5,40.6,50.5,40.6z"/>
<path class="st2" d="M50.4,48.8c-0.1,0-0.2,0-0.3,0L45,51.9c-0.1,0.1-0.2,0.1-0.2,0.4v8.9c0,0.1,0.1,0.3,0.3,0.3h5.2
	c0.1,0,0.3-0.1,0.3-0.3V49C50.5,48.9,50.5,48.8,50.4,48.8z"/>
<path class="st2" d="M114.8,40.6h-5.2c-0.1,0-0.3,0.1-0.3,0.3v20.2c0,0.1,0.1,0.3,0.3,0.3h5.2c0.1,0,0.3-0.1,0.3-0.3V40.9
	C115.1,40.7,114.9,40.6,114.8,40.6z"/>
<path class="st2" d="M115.1,61.1c0,0.1-0.1,0.3-0.3,0.3h-5.2c-0.1,0-0.3-0.1-0.3-0.3V40.8c0-0.1,0.1-0.3,0.3-0.3h5.2
	c0.1,0,0.3,0.1,0.3,0.3V61.1z"/>
<path class="st2" d="M122.9,54.2c0,0,4.9-1.4,4.9-6.6c0-7-6.7-7-9.5-7h-1c-0.1,0-0.3,0.1-0.3,0.3v4.6c0,0.1,0.1,0.3,0.3,0.3h1.7
	c0.8,0,3.1,0.1,3.1,2.5c0,2.3-2.4,2.5-3.1,2.5h-1.7c-0.1,0-0.3,0.1-0.3,0.3v4c0,0.3,0.1,0.4,0.1,0.4l4.1,6c0,0.1,0.1,0.1,0.2,0.1h6
	c0.1,0,0.2,0,0.2-0.1c0-0.1,0-0.2,0-0.3L122.9,54.2z"/>
</svg>
