<?xml version="1.0" encoding="utf-8"?>
<!-- Generator: Adobe Illustrator 25.1.0, SVG Export Plug-In . SVG Version: 6.00 Build 0)  -->
<svg version="1.1" id="Layer_1" xmlns="http://www.w3.org/2000/svg" xmlns:xlink="http://www.w3.org/1999/xlink" x="0px" y="0px"
	 viewBox="0 0 214 214" style="enable-background:new 0 0 214 214;" xml:space="preserve">
<style type="text/css">
	.st0{fill:#2672FB;}
</style>
<desc>Created with Sketch.</desc>
<g>
	<path class="st0" d="M60,98.2c-2.1,0-4,0.7-5.3,1.9v2.3c1.2-1.3,3.1-2.4,5.3-2.4c3.7,0,6.6,2.9,6.6,6.9v5.4c1.2-1.3,2-3.2,2-5.4
		C68.6,101.9,64.8,98.2,60,98.2z"/>
	<path class="st0" d="M53.4,106.8v-5.4c-1.2,1.3-2,3.2-2,5.4c0,5,3.9,8.7,8.7,8.7c2.1,0,4-0.7,5.3-1.9v-2.3
		c-1.2,1.3-3.1,2.4-5.4,2.4C56.3,113.6,53.4,110.6,53.4,106.8L53.4,106.8z"/>
</g>
<path class="st0" d="M80.2,98.5h-5.9v16.6h2v-14.9h3.9c2.2,0,3.3,1.4,3.3,3.1s-1.1,3.1-3.3,3.1h-2.6v1.7h2.6c3.3,0,5.3-2,5.3-4.8
	C85.5,100.5,83.4,98.5,80.2,98.5z"/>
<g>
	<path class="st0" d="M99.6,102.1l1.4-1.1c-1-1.6-2.9-2.8-5.1-2.8c-0.6,0-1.3,0.1-1.8,0.3v1.9c0.6-0.2,1.2-0.3,1.8-0.3
		C97.3,100,98.7,100.8,99.6,102.1L99.6,102.1z"/>
	<path class="st0" d="M97.3,106.1l-1.8-0.9c-1.5-0.7-2.7-1.3-2.7-3v-3.1c-1.2,0.7-2,1.9-2,3.5c0,2.3,1.8,3.5,3.8,4.4l1.9,0.9
		c1.6,0.8,2.8,1.4,2.8,3.2v3.4c1.3-0.8,2-2.1,2-3.7C101.2,108.5,99.8,107.3,97.3,106.1L97.3,106.1z"/>
	<path class="st0" d="M91.2,110.8l-1.5,1.1c1.3,2.2,3.5,3.6,6.1,3.6c0.8,0,1.5-0.1,2.1-0.4v-1.8c-0.6,0.2-1.4,0.4-2.1,0.4
		C93.7,113.6,92.2,112.3,91.2,110.8z"/>
</g>
<g>
	<polygon class="st0" points="105.1,98.5 111.4,115.4 112.1,115.4 112.8,113.7 107.2,98.5 	"/>
	<polygon class="st0" points="123.6,109.4 124.6,112 129.7,98.5 127.5,98.5 	"/>
	<polygon class="st0" points="117,98.2 112.6,109.4 113.5,112 117.4,102.2 122.7,115.4 123.4,115.4 124,113.8 117.7,98.2 	"/>
</g>
<g>
	<polygon class="st0" points="135.7,110.1 138.3,104 137.3,101.5 131.4,115.3 133.5,115.3 134.9,111.9 141.7,111.9 141,110.1 	"/>
	<polygon class="st0" points="138.6,98.4 137.9,100 144.5,115.3 146.6,115.3 139.4,98.4 	"/>
</g>
<g>
	<rect x="147.6" y="98.5" class="st0" width="13.7" height="1.8"/>
	<rect x="153.5" y="101.5" class="st0" width="2" height="13.6"/>
</g>
<path class="st0" d="M161.3,112.9c-0.7,0-1.3,0.6-1.3,1.3c0,0.7,0.6,1.3,1.3,1.3c0.7,0,1.3-0.6,1.3-1.3
	C162.6,113.5,162.1,112.9,161.3,112.9z"/>
</svg>
