<?xml version="1.0" encoding="utf-8"?>
<!-- Generator: Adobe Illustrator 25.1.0, SVG Export Plug-In . SVG Version: 6.00 Build 0)  -->
<svg version="1.1" id="Layer_1" xmlns="http://www.w3.org/2000/svg" xmlns:xlink="http://www.w3.org/1999/xlink" x="0px" y="0px"
	 viewBox="0 0 220 100" style="enable-background:new 0 0 220 100;" xml:space="preserve">
<style type="text/css">
	.st0{fill:#0002E9;}
	.st1{fill:url(#SVGID_1_);}
	.st2{fill:url(#SVGID_2_);}
	.st3{fill:url(#SVGID_3_);}
</style>
<desc>Created with Sketch.</desc>
<g>
	<path class="st0" d="M47,57.8l2.5,2.6l-2.7,2.5l-2.6-2.6c-1.8,1.1-4,1.7-6.3,1.7c-6.7,0-12.2-5.4-12.2-12.2s5.5-12.2,12.2-12.2
		S50.1,43,50.1,49.8C50.1,52.9,48.9,55.7,47,57.8L47,57.8z M41.4,57.3l-4.3-4.4l2.7-2.5l4.5,4.6c1.2-1.4,1.9-3.3,1.9-5.4
		c0-4.8-3.7-8.4-8.3-8.4s-8.3,3.6-8.3,8.4s3.7,8.4,8.3,8.4C39.1,58.1,40.3,57.8,41.4,57.3L41.4,57.3z"/>
	<path class="st0" d="M68.4,44.7v16.8h-3.6v-2.1c-1.1,1.7-2.9,2.6-5.2,2.6c-3.8,0-6.4-2.6-6.4-6.9V44.8h3.6v9.9
		c0,2.6,1.5,3.9,3.8,3.9s4.3-1.4,4.3-4.8v-9L68.4,44.7L68.4,44.7z"/>
	<path class="st0" d="M89.1,44.7v16.8h-3.6V59c-1.3,1.8-3.3,2.9-5.9,2.9c-4.6,0-8.4-3.9-8.4-8.8c0-5,3.8-8.8,8.4-8.8
		c2.6,0,4.6,1.1,5.9,2.8v-2.4C85.5,44.7,89.1,44.7,89.1,44.7z M85.5,53c0-3.1-2.3-5.4-5.3-5.4s-5.3,2.2-5.3,5.4s2.3,5.4,5.3,5.4
		S85.5,56.2,85.5,53z"/>
	<path class="st0" d="M101.7,44.4v3.9c-2.4-0.2-5.2,0.9-5.2,4.7v8.5h-3.6V44.7h3.6v2.8C97.5,45.2,99.6,44.4,101.7,44.4L101.7,44.4z"
		/>
	<path class="st0" d="M107.3,48.1v8.1c0,2.1,1.4,2.1,4.2,2v3.3c-5.6,0.7-7.8-0.9-7.8-5.2V41l3.6-1.1v4.7h4.2v3.5H107.3L107.3,48.1z"
		/>
	<path class="st0" d="M113.6,39.8c0-1.3,1-2.3,2.3-2.3s2.3,1,2.3,2.3s-1,2.3-2.3,2.3C114.6,42.1,113.6,41.1,113.6,39.8z M114.1,44.7
		h3.6v16.8h-3.6V44.7z"/>
	<path class="st0" d="M120.4,53c0-5,3.8-8.8,8.9-8.8c3.3,0,6.1,1.7,7.5,4.3l-3.1,1.8c-0.7-1.6-2.4-2.6-4.4-2.6c-3,0-5.2,2.2-5.2,5.3
		c0,3,2.2,5.3,5.2,5.3c2,0,3.7-1,4.5-2.6l3.1,1.8c-1.4,2.6-4.3,4.4-7.5,4.4C124.2,61.9,120.4,58,120.4,53L120.4,53z"/>
	<path class="st0" d="M139.2,36.9h3.6v24.5h-3.6V36.9z"/>
	<path class="st0" d="M154.8,58.6c2,0,3.5-0.9,4.3-2.1l3,1.7c-1.5,2.3-4.1,3.7-7.3,3.7c-5.5,0-9.1-3.8-9.1-8.8s3.6-8.8,8.9-8.8
		s8.4,4,8.4,8.9c0,0.5-0.1,1-0.1,1.5h-13.4C150,57.2,152.1,58.6,154.8,58.6L154.8,58.6z M159.2,51.6c-0.5-2.9-2.6-4.1-4.8-4.1
		c-2.7,0-4.6,1.6-5.1,4.1H159.2L159.2,51.6z"/>
</g>
<g>
	
		<linearGradient id="SVGID_1_" gradientUnits="userSpaceOnUse" x1="170.5019" y1="659.5064" x2="185.9942" y2="668.5689" gradientTransform="matrix(1 0 0 1 0 -628)">
		<stop  offset="0" style="stop-color:#005EFF"/>
		<stop  offset="0.44" style="stop-color:#0037F5"/>
		<stop  offset="1" style="stop-color:#0002E9"/>
	</linearGradient>
	<path class="st1" d="M177.6,44.7c-0.2,0-0.4-0.1-0.6-0.2l-2.7-1.6c-0.6-0.3-0.8-1.1-0.5-1.7s1.1-0.8,1.7-0.5l2.1,1.2l10.9-6.3
		l-4.2-2.4l-12.8,7.4c-0.4,0.2-0.9,0.2-1.3,0l-6.7-3.9c-0.4-0.2-0.6-0.6-0.6-1.1s0.2-0.9,0.6-1.1l2.7-1.6c0.6-0.3,1.4-0.1,1.7,0.5
		s0.1,1.4-0.5,1.7l-0.9,0.5l4.2,2.4l12.8-7.4c0.4-0.2,0.9-0.2,1.3,0l6.7,3.9c0.4,0.2,0.6,0.6,0.6,1.1s-0.2,0.9-0.6,1.1l-13.4,7.8
		C178,44.6,177.8,44.7,177.6,44.7L177.6,44.7z"/>
	
		<linearGradient id="SVGID_2_" gradientUnits="userSpaceOnUse" x1="170.7854" y1="650.8876" x2="183.3569" y2="659.9501" gradientTransform="matrix(1 0 0 1 0 -628)">
		<stop  offset="0" style="stop-color:#0098E3"/>
		<stop  offset="0.67" style="stop-color:#0072F5"/>
		<stop  offset="1" style="stop-color:#005EFF"/>
	</linearGradient>
	<path class="st2" d="M170.9,33c-0.2,0-0.4-0.1-0.6-0.2l-6.7-3.9c-0.4-0.2-0.6-0.6-0.6-1.1s0.2-0.9,0.6-1.1l2.7-1.6
		c0.6-0.3,1.4-0.1,1.7,0.5s0.1,1.4-0.5,1.7l-0.9,0.5l4.2,2.4l12.8-7.4c0.4-0.2,0.9-0.2,1.3,0l6.7,3.9c0.4,0.2,0.6,0.6,0.6,1.1
		c0,0.4-0.2,0.9-0.6,1.1l-2.7,1.6c-0.6,0.3-1.4,0.1-1.7-0.5s-0.1-1.4,0.5-1.7l0.9-0.5l-4.2-2.4l-12.8,7.4
		C171.3,33,171.1,33,170.9,33L170.9,33z"/>
	
		<linearGradient id="SVGID_3_" gradientUnits="userSpaceOnUse" x1="171.0256" y1="643.7812" x2="185.9337" y2="653.4279" gradientTransform="matrix(1 0 0 1 0 -628)">
		<stop  offset="0" style="stop-color:#00D1C6"/>
		<stop  offset="0.68" style="stop-color:#00ABD9"/>
		<stop  offset="1" style="stop-color:#0098E3"/>
	</linearGradient>
	<path class="st3" d="M170.9,25.3c-0.2,0-0.4-0.1-0.6-0.2l-6.7-3.9c-0.4-0.2-0.6-0.6-0.6-1.1s0.2-0.9,0.6-1.1l13.4-7.8
		c0.4-0.2,0.9-0.2,1.3,0l2.7,1.6c0.6,0.3,0.8,1.1,0.5,1.7s-1.1,0.8-1.7,0.5l-2.1-1.2l-10.9,6.3l4.2,2.4l12.8-7.4
		c0.4-0.2,0.9-0.2,1.3,0l6.7,3.9c0.4,0.2,0.6,0.6,0.6,1.1s-0.2,0.9-0.6,1.1l-2.7,1.6c-0.6,0.3-1.4,0.1-1.7-0.5s-0.1-1.4,0.5-1.7
		l0.9-0.5l-4.2-2.4l-12.8,7.4C171.3,25.2,171.1,25.3,170.9,25.3z"/>
</g>
</svg>
