<?xml version="1.0" encoding="utf-8"?>
<!-- Generator: Adobe Illustrator 25.1.0, SVG Export Plug-In . SVG Version: 6.00 Build 0)  -->
<svg version="1.1" id="Layer_1" xmlns="http://www.w3.org/2000/svg" xmlns:xlink="http://www.w3.org/1999/xlink" x="0px" y="0px"
	 viewBox="0 0 214 214" style="enable-background:new 0 0 214 214;" xml:space="preserve">
<style type="text/css">
	.st0{fill:#0002E9;}
	.st1{fill:url(#SVGID_1_);}
	.st2{fill:url(#SVGID_2_);}
	.st3{fill:url(#SVGID_3_);}
</style>
<desc>Created with Sketch.</desc>
<g>
	<path class="st0" d="M45,127.8l2.5,2.6l-2.7,2.5l-2.6-2.6c-1.8,1.1-4,1.7-6.3,1.7c-6.7,0-12.2-5.4-12.2-12.2s5.5-12.2,12.2-12.2
		s12.2,5.4,12.2,12.2C48.1,122.9,46.9,125.7,45,127.8L45,127.8z M39.4,127.3l-4.3-4.4l2.7-2.5l4.5,4.6c1.2-1.4,1.9-3.3,1.9-5.4
		c0-4.8-3.7-8.4-8.3-8.4s-8.3,3.6-8.3,8.4c0,4.8,3.7,8.4,8.3,8.4C37.1,128.1,38.3,127.8,39.4,127.3L39.4,127.3z"/>
	<path class="st0" d="M66.4,114.7v16.8h-3.6v-2.1c-1.1,1.7-2.9,2.6-5.2,2.6c-3.8,0-6.4-2.6-6.4-6.9v-10.3h3.6v9.9
		c0,2.6,1.5,3.9,3.8,3.9c2.3,0,4.3-1.4,4.3-4.8v-9L66.4,114.7L66.4,114.7z"/>
	<path class="st0" d="M87.1,114.7v16.8h-3.6V129c-1.3,1.8-3.3,2.9-5.9,2.9c-4.6,0-8.4-3.9-8.4-8.8c0-5,3.8-8.8,8.4-8.8
		c2.6,0,4.6,1.1,5.9,2.8v-2.4C83.5,114.7,87.1,114.7,87.1,114.7z M83.5,123c0-3.1-2.3-5.4-5.3-5.4s-5.3,2.2-5.3,5.4s2.3,5.4,5.3,5.4
		S83.5,126.2,83.5,123z"/>
	<path class="st0" d="M99.7,114.4v3.9c-2.4-0.2-5.2,0.9-5.2,4.7v8.5h-3.6v-16.8h3.6v2.8C95.5,115.2,97.6,114.4,99.7,114.4
		L99.7,114.4z"/>
	<path class="st0" d="M105.3,118.1v8.1c0,2.1,1.4,2.1,4.2,2v3.3c-5.6,0.7-7.8-0.9-7.8-5.2V111l3.6-1.1v4.7h4.2v3.5L105.3,118.1
		L105.3,118.1z"/>
	<path class="st0" d="M111.6,109.8c0-1.3,1-2.3,2.3-2.3c1.3,0,2.3,1,2.3,2.3s-1,2.3-2.3,2.3C112.6,112.1,111.6,111.1,111.6,109.8z
		 M112.1,114.7h3.6v16.8h-3.6V114.7z"/>
	<path class="st0" d="M118.4,123c0-5,3.8-8.8,8.9-8.8c3.3,0,6.1,1.7,7.5,4.3l-3.1,1.8c-0.7-1.6-2.4-2.6-4.4-2.6
		c-3,0-5.2,2.2-5.2,5.3c0,3,2.2,5.3,5.2,5.3c2,0,3.7-1,4.5-2.6l3.1,1.8c-1.4,2.6-4.3,4.4-7.5,4.4C122.2,131.9,118.4,128,118.4,123
		L118.4,123z"/>
	<path class="st0" d="M137.2,106.9h3.6v24.5h-3.6C137.2,131.4,137.2,106.9,137.2,106.9z"/>
	<path class="st0" d="M152.8,128.6c2,0,3.5-0.9,4.3-2.1l3,1.7c-1.5,2.3-4.1,3.7-7.3,3.7c-5.5,0-9.1-3.8-9.1-8.8c0-5,3.6-8.8,8.9-8.8
		s8.4,4,8.4,8.9c0,0.5-0.1,1-0.1,1.5h-13.4C148,127.2,150.1,128.6,152.8,128.6L152.8,128.6z M157.2,121.6c-0.5-2.9-2.6-4.1-4.8-4.1
		c-2.7,0-4.6,1.6-5.1,4.1H157.2L157.2,121.6z"/>
</g>
<g>
	
		<linearGradient id="SVGID_1_" gradientUnits="userSpaceOnUse" x1="168.5091" y1="112.3957" x2="184.0014" y2="103.3332" gradientTransform="matrix(1 0 0 -1 0 213.8898)">
		<stop  offset="0" style="stop-color:#005EFF"/>
		<stop  offset="0.44" style="stop-color:#0037F5"/>
		<stop  offset="1" style="stop-color:#0002E9"/>
	</linearGradient>
	<path class="st1" d="M175.6,114.7c-0.2,0-0.4-0.1-0.6-0.2l-2.7-1.6c-0.6-0.3-0.8-1.1-0.5-1.7c0.3-0.6,1.1-0.8,1.7-0.5l2.1,1.2
		l10.9-6.3l-4.2-2.4l-12.8,7.4c-0.4,0.2-0.9,0.2-1.3,0l-6.7-3.9c-0.4-0.2-0.6-0.6-0.6-1.1s0.2-0.9,0.6-1.1l2.7-1.6
		c0.6-0.3,1.4-0.1,1.7,0.5c0.3,0.6,0.1,1.4-0.5,1.7l-0.9,0.5l4.2,2.4l12.8-7.4c0.4-0.2,0.9-0.2,1.3,0l6.7,3.9
		c0.4,0.2,0.6,0.6,0.6,1.1s-0.2,0.9-0.6,1.1l-13.4,7.8C176,114.6,175.8,114.7,175.6,114.7L175.6,114.7z"/>
	
		<linearGradient id="SVGID_2_" gradientUnits="userSpaceOnUse" x1="168.7498" y1="120.9529" x2="181.3213" y2="111.8904" gradientTransform="matrix(1 0 0 -1 0 213.8898)">
		<stop  offset="0" style="stop-color:#0098E3"/>
		<stop  offset="0.67" style="stop-color:#0072F5"/>
		<stop  offset="1" style="stop-color:#005EFF"/>
	</linearGradient>
	<path class="st2" d="M168.9,103c-0.2,0-0.4-0.1-0.6-0.2l-6.7-3.9c-0.4-0.2-0.6-0.6-0.6-1.1c0-0.5,0.2-0.9,0.6-1.1l2.7-1.6
		c0.6-0.3,1.4-0.1,1.7,0.5s0.1,1.4-0.5,1.7l-0.9,0.5l4.2,2.4l12.8-7.4c0.4-0.2,0.9-0.2,1.3,0l6.7,3.9c0.4,0.2,0.6,0.6,0.6,1.1
		c0,0.4-0.2,0.9-0.6,1.1l-2.7,1.6c-0.6,0.3-1.4,0.1-1.7-0.5c-0.3-0.6-0.1-1.4,0.5-1.7l0.9-0.5l-4.2-2.4l-12.8,7.4
		C169.3,103,169.1,103,168.9,103L168.9,103z"/>
	
		<linearGradient id="SVGID_3_" gradientUnits="userSpaceOnUse" x1="168.9893" y1="128.0526" x2="183.8974" y2="118.4059" gradientTransform="matrix(1 0 0 -1 0 213.8898)">
		<stop  offset="0" style="stop-color:#00D1C6"/>
		<stop  offset="0.68" style="stop-color:#00ABD9"/>
		<stop  offset="1" style="stop-color:#0098E3"/>
	</linearGradient>
	<path class="st3" d="M168.9,95.3c-0.2,0-0.4-0.1-0.6-0.2l-6.7-3.9c-0.4-0.2-0.6-0.6-0.6-1.1s0.2-0.9,0.6-1.1l13.4-7.8
		c0.4-0.2,0.9-0.2,1.3,0l2.7,1.6c0.6,0.3,0.8,1.1,0.5,1.7s-1.1,0.8-1.7,0.5l-2.1-1.2l-10.9,6.3l4.2,2.4l12.8-7.4
		c0.4-0.2,0.9-0.2,1.3,0l6.7,3.9c0.4,0.2,0.6,0.6,0.6,1.1s-0.2,0.9-0.6,1.1l-2.7,1.6c-0.6,0.3-1.4,0.1-1.7-0.5
		c-0.3-0.6-0.1-1.4,0.5-1.7l0.9-0.5l-4.2-2.4l-12.8,7.4C169.3,95.2,169.1,95.3,168.9,95.3z"/>
</g>
</svg>
