<?xml version="1.0" encoding="utf-8"?>
<!-- Generator: Adobe Illustrator 25.1.0, SVG Export Plug-In . SVG Version: 6.00 Build 0)  -->
<svg version="1.1" id="Layer_1" xmlns="http://www.w3.org/2000/svg" xmlns:xlink="http://www.w3.org/1999/xlink" x="0px" y="0px"
	 viewBox="0 0 427 214" style="enable-background:new 0 0 427 214;" xml:space="preserve">
<style type="text/css">
	.st0{clip-path:url(#SVGID_2_);}
	.st1{clip-path:url(#SVGID_2_);fill:#1FC5DB;}
	.st2{clip-path:url(#SVGID_2_);fill:#CCCCCC;}
</style>
<desc>Created with Sketch.</desc>
<g>
	<defs>
		<rect id="SVGID_1_" x="66.4" y="77.6" width="297.3" height="58.7"/>
	</defs>
	<clipPath id="SVGID_2_">
		<use xlink:href="#SVGID_1_"  style="overflow:visible;"/>
	</clipPath>
	<path class="st0" d="M159.8,104.4c0-1-0.4-1.9-1.2-2.5c-1.3-0.8-2.7-1.3-4.2-1.5c-1.6-0.3-3.3-0.8-4.8-1.5c-1-0.5-1.9-1.2-2.6-2.1
		c-0.6-0.9-0.9-1.9-0.8-2.9c0-1.9,0.9-3.7,2.4-4.8c1.8-1.4,3.9-2.1,6.1-2c2.3-0.1,4.6,0.6,6.4,2c1.6,1.3,2.5,3.2,2.4,5.2h-4
		c0-1.1-0.5-2.1-1.4-2.8c-1-0.8-2.2-1.2-3.5-1.2c-1.2-0.1-2.4,0.3-3.4,0.9c-0.8,0.6-1.2,1.5-1.2,2.5c0,0.9,0.4,1.7,1.1,2.2
		c1.3,0.7,2.7,1.1,4.1,1.4c1.7,0.3,3.3,0.9,4.8,1.6c1.1,0.5,2,1.3,2.7,2.2c0.6,0.9,0.9,2,0.9,3.2c0.1,2-0.9,3.8-2.5,5
		c-1.9,1.3-4.1,2-6.4,1.9c-1.7,0-3.4-0.3-4.9-1c-1.3-0.6-2.5-1.5-3.4-2.8c-0.8-1.1-1.2-2.4-1.2-3.8h4c0,1.2,0.6,2.4,1.6,3.2
		c1.1,0.8,2.5,1.2,3.9,1.2c1.3,0.1,2.5-0.3,3.6-0.9C159.3,106.3,159.8,105.4,159.8,104.4 M173.7,87.4l0.1,2.6c1.7-2,4.2-3.1,6.9-3
		c3.2,0,5.4,1.2,6.6,3.7c0.8-1.1,1.8-2,3-2.7c1.3-0.7,2.9-1.1,4.4-1c5.1,0,7.7,2.7,7.7,8.1v15.5h-4V95.3c0.1-1.3-0.3-2.7-1.1-3.7
		c-0.8-0.8-2-1.2-3.8-1.2c-1.3,0-2.7,0.4-3.7,1.3c-1,0.9-1.6,2.2-1.7,3.5v15.4h-4V95.4c0-3.4-1.6-5-4.9-5c-2.3-0.2-4.5,1.2-5.3,3.3
		v16.9h-4V87.4H173.7z M213.8,110.5h-4V87.4h4V110.5z M209.5,81.2c0-0.6,0.2-1.2,0.6-1.6c0.5-0.5,1.1-0.7,1.7-0.7
		c0.7,0,1.3,0.2,1.8,0.7c0.4,0.4,0.6,1,0.6,1.6c0,0.6-0.2,1.2-0.6,1.6c-0.5,0.5-1.1,0.7-1.8,0.6c-0.6,0-1.3-0.2-1.7-0.6
		C209.7,82.4,209.5,81.8,209.5,81.2 M225.5,110.5h-4V77.7h4V110.5z M242.5,111c-2.9,0.1-5.7-1-7.7-3.1c-2-2.3-3.1-5.2-2.9-8.3v-0.7
		c0-2.1,0.4-4.2,1.3-6.1c0.8-1.7,2.1-3.2,3.7-4.2c1.5-1,3.3-1.5,5.1-1.5c2.7-0.1,5.3,1,7,3c1.7,2,2.5,4.8,2.5,8.5v1.6h-15.7
		c0,2,0.7,4,2,5.5c1.2,1.4,3,2.2,4.9,2.1c1.2,0,2.5-0.3,3.6-0.9c1-0.6,1.9-1.4,2.5-2.3l2.4,1.9C249.3,109.5,246.4,111,242.5,111
		 M242,90.2c-1.5,0-3,0.6-4,1.7c-1.2,1.4-1.9,3.1-2,4.9h11.6v-0.3c0-1.7-0.6-3.3-1.6-4.7C245,90.7,243.5,90.1,242,90.2 M266.5,107.7
		c1.3,0,2.7-0.4,3.7-1.3c1-0.8,1.6-1.9,1.8-3.2h3.7c-0.1,1.4-0.6,2.7-1.4,3.8c-0.9,1.2-2,2.2-3.4,2.9c-1.4,0.7-2.9,1.1-4.5,1.1
		c-2.9,0.1-5.6-1-7.5-3.2c-1.9-2.1-2.8-5-2.8-8.6v-0.7c0-2.1,0.4-4.1,1.2-6c0.8-1.7,2-3.1,3.6-4.1c1.7-1,3.6-1.5,5.5-1.5
		c2.4-0.1,4.7,0.8,6.5,2.3c1.7,1.5,2.7,3.7,2.7,6.1H272c-0.1-1.4-0.7-2.7-1.7-3.7c-1-1-2.4-1.5-3.8-1.4c-1.8-0.1-3.6,0.7-4.7,2.2
		c-1.1,1.4-1.7,3.5-1.7,6.3v0.7c0,2.7,0.5,4.7,1.6,6.2C262.9,107,264.7,107.8,266.5,107.7L266.5,107.7z M285.5,110.5h-4V77.7h4
		V110.5z M291.9,98.7c0-2.1,0.4-4.2,1.3-6.1c0.8-1.7,2.1-3.2,3.7-4.2c1.6-1,3.5-1.5,5.4-1.5c2.9-0.1,5.7,1.1,7.6,3.3
		c1.9,2.2,2.9,5.1,2.9,8.7v0.3c0,2.1-0.4,4.2-1.3,6.1c-0.8,1.7-2.1,3.2-3.7,4.2c-1.7,1-3.6,1.5-5.5,1.5c-2.9,0.1-5.7-1.1-7.6-3.3
		c-1.9-2.2-2.9-5.1-2.9-8.7L291.9,98.7z M295.9,99.2c-0.1,2.2,0.5,4.4,1.8,6.2c1.1,1.5,2.9,2.4,4.8,2.3c1.9,0.1,3.7-0.8,4.8-2.4
		c1.2-1.6,1.8-3.8,1.8-6.6c0.1-2.2-0.5-4.4-1.8-6.2c-1.1-1.5-2.9-2.4-4.8-2.4c-1.9,0-3.6,0.8-4.7,2.3
		C296.5,94.1,295.9,96.3,295.9,99.2L295.9,99.2z M333.3,108.2c-1.5,1.8-3.8,2.7-6.8,2.7c-2.1,0.1-4.2-0.6-5.6-2.1
		c-1.3-1.4-1.9-3.6-2-6.4V87.4h4v15c0,3.5,1.4,5.3,4.3,5.3c3,0,5-1.1,6-3.4V87.4h4v23.1h-3.8L333.3,108.2z M343.3,98.8
		c0-3.6,0.8-6.4,2.5-8.6c1.5-2.1,4-3.3,6.6-3.2c2.5-0.1,4.8,0.9,6.4,2.8V77.7h4v32.9h-3.6L359,108c-1.6,2-4.1,3-6.6,2.9
		c-2.6,0-5-1.2-6.6-3.3c-1.8-2.5-2.7-5.5-2.5-8.6L343.3,98.8z M347.3,99.2c-0.1,2.2,0.4,4.3,1.6,6.2c1,1.5,2.7,2.3,4.5,2.2
		c2.4,0.1,4.5-1.2,5.5-3.4V93.6c-1-2.1-3.1-3.4-5.5-3.3c-1.8-0.1-3.5,0.8-4.5,2.2C347.8,94.1,347.3,96.3,347.3,99.2"/>
	<path class="st1" d="M78.7,97.9c1.8,0.4,3.6-0.6,4-2.4l0,0c2-7.9,10-12.8,18-10.8c5.3,1.3,9.5,5.5,10.8,10.8
		c0.5,1.8,2.3,2.8,4.1,2.3c1.7-0.5,2.7-2.2,2.3-3.9c-2.9-11.5-14.5-18.5-26-15.6c-7.7,1.9-13.7,7.9-15.6,15.6
		C75.9,95.7,76.9,97.4,78.7,97.9 M111.9,104.5c-10.5,0-14.5,8-17.7,14.4c-3.3,6.7-5.7,10.8-11.8,10.8c-5.1,0-9.3-4.2-9.3-9.3
		c0-5.1,4.2-9.3,9.3-9.3c1.6,0,3.2,0.4,4.6,1.2c1.3,0.7,2.9,0.5,3.9-0.5l0.1-0.1c1.3-1.3,1.3-3.4,0-4.6c-0.2-0.2-0.4-0.4-0.7-0.5
		c-7.6-4.4-17.3-1.8-21.7,5.9c-4.4,7.6-1.8,17.3,5.9,21.7c2.4,1.4,5.1,2.1,7.9,2.1c10.6,0,14.5-8,17.8-14.4
		c3.3-6.7,5.7-10.7,11.8-10.7c5.1,0,9.3,4.2,9.3,9.3c0,5.1-4.2,9.3-9.3,9.3c-1.6,0-3.2-0.4-4.6-1.2c-1.3-0.7-2.9-0.5-4,0.6
		c-1.3,1.3-1.3,3.4,0,4.6c0.2,0.2,0.4,0.4,0.7,0.5c7.6,4.4,17.3,1.8,21.7-5.9c4.4-7.6,1.8-17.3-5.9-21.7
		C117.4,105.3,114.7,104.5,111.9,104.5L111.9,104.5z"/>
	<path class="st2" d="M147,134.4l1.8-1.5L147,128l1.7-1.4l0.1-4.4l-1.8-1.5h4.5c1.2-0.1,2.4,0.2,3.3,0.9c0.8,0.7,1.2,1.7,1.1,2.7
		c0,0.6-0.2,1.2-0.5,1.7c-0.4,0.5-0.9,0.9-1.5,1.1c0.7,0.2,1.3,0.6,1.8,1.2c0.4,0.6,0.7,1.3,0.6,2.1c0.1,1.1-0.4,2.2-1.2,2.9
		c-1,0.8-2.2,1.1-3.4,1.1H147z M147,128l1.8,4.9h3c0.7,0,1.4-0.2,2-0.7c0.5-0.5,0.8-1.1,0.7-1.8c0-1.6-0.9-2.5-2.7-2.5L147,128z
		 M148.7,126.6h2.8c0.7,0,1.4-0.2,1.9-0.6c0.5-0.4,0.7-1,0.7-1.6c0.1-0.6-0.2-1.2-0.7-1.6c-0.6-0.4-1.3-0.6-2-0.5h-2.7L148.7,126.6z
		 M172.9,134.4h-1.8v-13.7l1.8,2V134.4z M198.8,128c0,1.2-0.2,2.4-0.7,3.5c-0.4,0.9-1.1,1.7-1.9,2.3c-0.9,0.5-1.9,0.8-2.9,0.8
		c-1,0-2-0.3-2.9-0.8c-0.9-0.6-1.5-1.3-1.9-2.3c-0.5-1.1-0.7-2.2-0.7-3.4v-1c0-1.2,0.2-2.4,0.7-3.5c0.4-0.9,1.1-1.8,1.9-2.3
		c0.9-0.5,1.9-0.8,2.9-0.8c1,0,2,0.3,2.9,0.8c0.9,0.6,1.5,1.4,1.9,2.3c0.5,1.1,0.7,2.3,0.7,3.5L198.8,128z M197,127.1
		c0.1-1.3-0.3-2.6-1-3.7c-0.6-0.9-1.7-1.3-2.7-1.3c-1.1,0-2.1,0.4-2.7,1.3c-0.7,1.1-1.1,2.3-1,3.6v1c-0.1,1.3,0.3,2.6,1,3.7
		c0.6,0.9,1.7,1.4,2.7,1.3c1.1,0.1,2.1-0.4,2.7-1.3c0.7-1.1,1-2.4,1-3.6V127.1z M215.8,120.7l4.5,11.1l4.5-11.1h2.3v13.7h-1.8v-5.3
		l0.2-5.7l-4.5,11.1h-1.4l-4.5-11l-1-2.6H215.8z M250,128.1h-5.9v4.8h6.9v1.5h-8.7l1.8-1.5v-4.8h-1.8l1.8-1.5v-4.4l-1.8-1.5h8.6v1.5
		h-6.8v4.4h5.9V128.1z M274.9,122.2h-4.4v12.2h-1.8v-13.7h6.2V122.2z M294,128.9h-5l1.8-1.5v-5.2l-1.8-1.5h4.5
		c1.3-0.1,2.5,0.3,3.6,1.1c0.9,0.8,1.3,1.9,1.2,3.1c0,0.8-0.2,1.6-0.7,2.2c-0.5,0.7-1.2,1.1-1.9,1.4l3.2,5.8v0.1h-1.9L294,128.9z
		 M290.8,127.4h2.8c0.8,0,1.5-0.2,2.1-0.7c0.5-0.5,0.8-1.2,0.8-1.9c0-0.7-0.2-1.4-0.8-1.9c-0.6-0.5-1.4-0.7-2.2-0.7h-2.8
		L290.8,127.4z M314.8,134.4h-1.8v-13.7l1.8,1.9L314.8,134.4z M340.1,130.1c-0.1,1.3-0.7,2.5-1.6,3.3c-1,0.8-2.3,1.2-3.6,1.2
		c-1.5,0.1-2.9-0.6-3.9-1.7c-1-1.3-1.5-3-1.5-4.6v-1.3c0-1.2,0.2-2.3,0.7-3.3c0.4-0.9,1.1-1.7,1.9-2.2c0.9-0.5,1.9-0.8,2.9-0.8
		c1.3-0.1,2.5,0.4,3.5,1.2c0.9,0.9,1.5,2.1,1.5,3.4h-1.8c-0.1-0.9-0.4-1.7-1-2.4c-0.6-0.5-1.4-0.8-2.2-0.7c-1.1,0-2.1,0.4-2.7,1.3
		c-0.7,1.1-1.1,2.3-1,3.6v1.3c-0.1,1.2,0.3,2.5,0.9,3.5c0.6,0.9,1.6,1.4,2.6,1.3c0.8,0.1,1.6-0.2,2.3-0.7c0.6-0.6,1-1.5,1.1-2.4
		H340.1z M358.6,128.3c-1.2-0.3-2.4-0.8-3.4-1.6c-0.7-0.6-1.1-1.5-1.1-2.4c0-1,0.5-2,1.3-2.7c1-0.7,2.1-1.1,3.4-1.1
		c0.9,0,1.7,0.2,2.5,0.5c0.7,0.3,1.3,0.9,1.7,1.5c0.4,0.6,0.6,1.4,0.6,2.1h-1.8c0-0.7-0.3-1.4-0.8-2c-0.6-0.5-1.4-0.8-2.2-0.7
		c-0.7,0-1.5,0.2-2.1,0.6c-0.5,0.4-0.8,1-0.7,1.6c0,0.6,0.3,1.1,0.7,1.4c0.7,0.5,1.5,0.9,2.4,1.1c0.9,0.2,1.8,0.6,2.7,1.1
		c0.6,0.3,1.1,0.8,1.4,1.3c0.3,0.5,0.5,1.2,0.5,1.8c0,1-0.5,2-1.3,2.7c-1,0.7-2.2,1.1-3.5,1c-0.9,0-1.8-0.2-2.6-0.5
		c-0.7-0.3-1.4-0.8-1.9-1.5c-0.4-0.6-0.7-1.4-0.7-2.1h1.8c0,0.8,0.3,1.5,0.9,2c0.7,0.5,1.6,0.8,2.4,0.7c0.8,0.1,1.5-0.2,2.2-0.6
		c0.5-0.4,0.8-1,0.8-1.6c0-0.6-0.2-1.2-0.7-1.6C360.4,128.9,359.6,128.5,358.6,128.3L358.6,128.3z"/>
</g>
</svg>
