<?xml version="1.0" encoding="utf-8"?>
<!-- Generator: Adobe Illustrator 25.1.0, SVG Export Plug-In . SVG Version: 6.00 Build 0)  -->
<svg version="1.1" id="Layer_1" xmlns="http://www.w3.org/2000/svg" xmlns:xlink="http://www.w3.org/1999/xlink" x="0px" y="0px"
	 viewBox="0 0 214 214" style="enable-background:new 0 0 214 214;" xml:space="preserve">
<style type="text/css">
	.st0{fill-rule:evenodd;clip-rule:evenodd;fill:#AB206D;}
</style>
<desc>Created with Sketch.</desc>
<g id="Exports">
	<g id="Homepage-New" transform="translate(-270.000000, -3963.000000)">
		<g id="Group-18" transform="translate(270.000000, 3963.000000)">
			<path id="Combined-Shape" class="st0" d="M72.8,98.3l4.9,7.4l4.8-7.4h3.8l-6.8,10.1v8.2l-3.6,3.8v-12L69,98.3H72.8z M146.2,98.3
				L146.2,98.3c2.7,0.1,5,0.9,6.8,2.7c1.9,1.8,2.8,4.1,2.8,6.8c0,2.7-0.9,4.9-2.8,6.6c-1.9,1.7-4.3,2.6-7.1,2.6
				c-2.8,0-5.1-0.9-6.9-2.7s-2.8-4-2.8-6.7c0-2.3,0.7-4.3,2.1-5.9l0.2-0.2h-8.3v-3.3H146.2z M62.3,97.9c1.8,0,3.7,0.5,5.5,1.5l0,0
				v3.6c-2.2-1.3-3.9-2-5.3-2c-0.7,0-1.3,0.2-1.7,0.5c-0.4,0.3-0.7,0.7-0.7,1.2c0,0.4,0.2,0.8,0.6,1.2c0.4,0.4,1.1,0.9,2.1,1.4l0,0
				l1.3,0.7c3.1,1.7,4.6,3.7,4.6,5.8c0,1.5-0.6,2.7-1.8,3.7c-1.2,1-2.7,1.5-4.6,1.5c-1.1,0-2.1-0.1-2.9-0.3
				c-0.9-0.2-1.9-0.7-3.2-1.3l0,0v-3.9c1,0.7,2.1,1.3,3.1,1.8c1.1,0.4,2,0.7,2.7,0.7c0.8,0,1.4-0.2,2-0.6c0.5-0.4,0.8-0.8,0.8-1.3
				c0-0.5-0.2-1-0.5-1.3c-0.3-0.4-1.1-0.9-2.3-1.5c-2.4-1.3-3.9-2.4-4.6-3.4c-0.7-0.9-1.1-1.9-1.1-3c0-1.4,0.5-2.6,1.6-3.5
				C59.2,98.4,60.6,97.9,62.3,97.9z M127.8,94.5l0,3.8v12.3c0,2.1,0.9,3.2,2.6,3.2c1.3,0,2.7-0.4,4.1-1.3l0,0v3.4
				c-1.4,0.8-2.9,1.2-4.6,1.2c-1.7,0-3.1-0.5-4.2-1.5c-0.3-0.3-0.6-0.6-0.9-1c-0.2-0.4-0.4-0.8-0.6-1.4c-0.2-0.6-0.2-1.7-0.2-3.4
				l0,0v-8.2h-3.2v-0.4l3-3L127.8,94.5z M113,97.9c2.4,0,4.4,0.9,5.9,2.6c1.4,1.6,2.1,3.8,2.2,6.5l0,0.3v0.5h-13
				c0.1,1.8,0.7,3.2,1.8,4.2c1.1,1,2.5,1.6,4.2,1.6c2.3,0,4.4-0.7,6.4-2.1l0.3-0.2v3.6c-1.1,0.8-2.2,1.3-3.3,1.6
				c-1.1,0.3-2.4,0.5-3.9,0.5c-2,0-3.7-0.4-4.9-1.3c-1.3-0.8-2.3-2-3-3.4c-0.8-1.4-1.1-3.1-1.1-4.9c0-2.8,0.8-5.1,2.4-6.9
				C108.4,98.8,110.4,97.9,113,97.9z M96.9,97.9c1.1,0,2.2,0.3,3.2,0.9c1,0.6,1.7,1.4,2.2,2.4c0.5,1,0.8,2.7,0.8,4.9l0,0v10.5h-3.6
				l0-10.5c0-1.9-0.3-3.2-0.9-4c-0.6-0.8-1.5-1.2-2.9-1.2c-1.7,0-3.2,0.9-4.4,2.6l0,0v13.2h-3.7V98.3h3.7v2.3
				C93,98.8,94.8,97.9,96.9,97.9z M145.8,101.6L145.8,101.6c-1.8,0-3.2,0.6-4.3,1.7c-1.1,1.2-1.7,2.6-1.7,4.4c0,1.8,0.6,3.2,1.7,4.3
				c1.1,1.1,2.6,1.7,4.4,1.7c1.8,0,3.3-0.6,4.4-1.7c1.1-1.1,1.7-2.6,1.7-4.3c0-1.7-0.6-3.2-1.8-4.3
				C149.1,102.1,147.6,101.6,145.8,101.6z M113,101.1c-1.3,0-2.4,0.4-3.2,1.2c-0.8,0.7-1.3,1.8-1.6,3.1l0,0.3h9.3
				c-0.1-1.5-0.5-2.6-1.3-3.4C115.3,101.5,114.3,101.1,113,101.1z"/>
		</g>
	</g>
</g>
</svg>
