<?xml version="1.0" encoding="utf-8"?>
<!-- Generator: Adobe Illustrator 25.1.0, SVG Export Plug-In . SVG Version: 6.00 Build 0)  -->
<svg version="1.1" id="Layer_1" xmlns="http://www.w3.org/2000/svg" xmlns:xlink="http://www.w3.org/1999/xlink" x="0px" y="0px"
	 viewBox="0 0 214 214" style="enable-background:new 0 0 214 214;" xml:space="preserve">
<style type="text/css">
	.st0{fill-rule:evenodd;clip-rule:evenodd;fill:#AB206D;}
</style>
<desc>Created with Sketch.</desc>
<g id="Exports">
	<g id="Homepage-New" transform="translate(-270.000000, -3963.000000)">
		<g id="Group-18" transform="translate(270.000000, 3963.000000)">
			<path id="Combined-Shape" class="st0" d="M74.7,98.8l4.6,7l4.5-7h3.6l-6.4,9.5v7.7l-3.4,3.6v-11.3l-6.5-9.5H74.7z M143.9,98.8
				L143.9,98.8c2.5,0.1,4.7,0.8,6.4,2.5c1.8,1.7,2.6,3.9,2.6,6.4c0,2.5-0.8,4.6-2.6,6.2c-1.8,1.6-4.1,2.5-6.7,2.5
				c-2.6,0-4.8-0.8-6.5-2.5s-2.6-3.8-2.6-6.3c0-2.2,0.7-4.1,2-5.6l0.2-0.2h-7.8v-3.1L143.9,98.8L143.9,98.8z M64.8,98.4
				c1.7,0,3.5,0.5,5.2,1.4l0,0v3.4c-2.1-1.2-3.7-1.9-5-1.9c-0.7,0-1.2,0.2-1.6,0.5c-0.4,0.3-0.7,0.7-0.7,1.1c0,0.4,0.2,0.8,0.6,1.1
				c0.4,0.4,1,0.8,2,1.3l0,0l1.2,0.7c2.9,1.6,4.3,3.5,4.3,5.5c0,1.4-0.6,2.5-1.7,3.5c-1.1,0.9-2.5,1.4-4.3,1.4c-1,0-2-0.1-2.7-0.3
				c-0.8-0.2-1.8-0.7-3-1.2l0,0v-3.7c0.9,0.7,2,1.2,2.9,1.7c1,0.4,1.9,0.7,2.5,0.7c0.8,0,1.3-0.2,1.9-0.6c0.5-0.4,0.8-0.8,0.8-1.2
				c0-0.5-0.2-0.9-0.5-1.2c-0.3-0.4-1-0.8-2.2-1.4c-2.3-1.2-3.7-2.3-4.3-3.2c-0.7-0.8-1-1.8-1-2.8c0-1.3,0.5-2.5,1.5-3.3
				C61.8,98.9,63.2,98.4,64.8,98.4z M126.6,95.2v3.6v11.6c0,2,0.8,3,2.5,3c1.2,0,2.5-0.4,3.9-1.2l0,0v3.2c-1.3,0.8-2.7,1.1-4.3,1.1
				s-2.9-0.5-4-1.4c-0.3-0.3-0.6-0.6-0.8-0.9c-0.2-0.4-0.4-0.8-0.6-1.3c-0.2-0.6-0.2-1.6-0.2-3.2l0,0v-7.7h-3v-0.4l2.8-2.8
				L126.6,95.2z M112.6,98.4c2.3,0,4.2,0.8,5.6,2.5c1.3,1.5,2,3.6,2.1,6.1v0.3v0.5H108c0.1,1.7,0.7,3,1.7,4c1,0.9,2.4,1.5,4,1.5
				c2.2,0,4.2-0.7,6-2l0.3-0.2v3.4c-1,0.8-2.1,1.2-3.1,1.5c-1,0.3-2.3,0.5-3.7,0.5c-1.9,0-3.5-0.4-4.6-1.2c-1.2-0.8-2.2-1.9-2.8-3.2
				c-0.8-1.3-1-2.9-1-4.6c0-2.6,0.8-4.8,2.3-6.5C108.3,99.3,110.2,98.4,112.6,98.4z M97.4,98.4c1,0,2.1,0.3,3,0.8
				c0.9,0.6,1.6,1.3,2.1,2.3c0.5,0.9,0.8,2.5,0.8,4.6l0,0v9.9h-3.4v-9.9c0-1.8-0.3-3-0.8-3.8c-0.6-0.8-1.4-1.1-2.7-1.1
				c-1.6,0-3,0.8-4.2,2.5l0,0v12.5h-3.5V98.8h3.5v2.2C93.7,99.3,95.4,98.4,97.4,98.4z M143.6,101.9L143.6,101.9
				c-1.7,0-3,0.6-4.1,1.6c-1,1.1-1.6,2.5-1.6,4.2s0.6,3,1.6,4.1c1,1,2.5,1.6,4.2,1.6c1.7,0,3.1-0.6,4.2-1.6c1-1,1.6-2.5,1.6-4.1
				s-0.6-3-1.7-4.1C146.7,102.4,145.3,101.9,143.6,101.9z M112.6,101.5c-1.2,0-2.3,0.4-3,1.1c-0.8,0.7-1.2,1.7-1.5,2.9v0.3h8.8
				c-0.1-1.4-0.5-2.5-1.2-3.2C114.8,101.8,113.8,101.5,112.6,101.5z"/>
		</g>
	</g>
</g>
</svg>
