<?xml version="1.0" encoding="utf-8"?>
<!-- Generator: Adobe Illustrator 25.1.0, SVG Export Plug-In . SVG Version: 6.00 Build 0)  -->
<svg version="1.1" id="Layer_1" xmlns="http://www.w3.org/2000/svg" xmlns:xlink="http://www.w3.org/1999/xlink" x="0px" y="0px"
	 viewBox="0 0 150 100" style="enable-background:new 0 0 150 100;" xml:space="preserve">
<style type="text/css">
	.st0{fill-rule:evenodd;clip-rule:evenodd;fill:#AB206D;}
</style>
<desc>Created with Sketch.</desc>
<g id="Exports">
	<g id="Homepage-New" transform="translate(-270.000000, -3963.000000)">
		<g id="Group-18" transform="translate(270.000000, 3963.000000)">
			<path id="Combined-Shape" class="st0" d="M39.2,40.5l5.3,8l5.2-8h4.1l-7.3,10.9v8.8l-3.9,4.1V51.5l-7.5-10.9
				C35,40.5,39.2,40.5,39.2,40.5z M118.4,40.5L118.4,40.5c2.9,0.1,5.4,0.9,7.3,2.9c2,1.9,3,4.5,3,7.3s-0.9,5.3-3,7.1
				c-2,1.8-4.7,2.9-7.7,2.9c-3,0-5.5-0.9-7.5-2.9c-1.9-1.9-3-4.3-3-7.2c0-2.6,0.8-4.7,2.3-6.4l0.3-0.3h-8.9v-3.5L118.4,40.5
				L118.4,40.5z M27.8,40.1c1.9,0,4.1,0.6,6,1.6l0,0v3.9c-2.4-1.4-4.2-2.2-5.7-2.2c-0.8,0-1.4,0.3-1.8,0.6c-0.4,0.4-0.8,0.8-0.8,1.2
				c0,0.4,0.3,0.9,0.7,1.2c0.4,0.4,1.1,0.9,2.3,1.5l0,0l1.4,0.8c3.3,1.8,4.9,4.1,4.9,6.3c0,1.6-0.7,2.9-1.9,4.1
				c-1.2,1.1-2.9,1.6-4.9,1.6c-1.1,0-2.3-0.1-3.1-0.4c-0.9-0.3-2-0.8-3.4-1.4l0,0v-4.2c1.1,0.8,2.3,1.4,3.3,1.9
				c1.1,0.4,2.2,0.8,2.9,0.8c0.9,0,1.5-0.3,2.2-0.7c0.6-0.4,0.9-0.9,0.9-1.4c0-0.6-0.3-1.1-0.6-1.4c-0.4-0.4-1.1-0.9-2.6-1.6
				c-2.6-1.4-4.2-2.6-4.9-3.7c-0.8-0.9-1.1-2-1.1-3.2c0-1.5,0.6-2.9,1.8-3.8C24.4,40.6,25.9,40.1,27.8,40.1z M98.6,36.4v4.1v13.3
				c0,2.3,0.9,3.4,2.9,3.4c1.4,0,2.9-0.4,4.5-1.4l0,0v3.7c-1.5,0.9-3.1,1.2-4.9,1.2c-1.8,0-3.3-0.6-4.6-1.6
				c-0.4-0.4-0.7-0.7-0.9-1.1c-0.3-0.4-0.4-0.9-0.7-1.5c-0.3-0.7-0.3-1.8-0.3-3.7l0,0v-8.8h-3.4v-0.4l3.2-3.2L98.6,36.4z M82.6,40.1
				c2.6,0,4.8,0.9,6.4,2.9c1.5,1.8,2.3,4.1,2.4,7v0.4v0.6H77.3c0.1,1.9,0.8,3.4,1.9,4.6c1.1,1.1,2.7,1.8,4.6,1.8
				c2.6,0,4.8-0.8,6.9-2.3l0.4-0.3v3.9c-1.1,0.9-2.4,1.4-3.5,1.8c-1.1,0.4-2.6,0.6-4.2,0.6c-2.2,0-4.1-0.4-5.3-1.4
				c-1.4-0.9-2.6-2.2-3.2-3.7c-0.9-1.5-1.1-3.3-1.1-5.3c0-3,0.9-5.5,2.6-7.5C77.6,41.2,79.9,40.1,82.6,40.1z M65.1,40.1
				c1.1,0,2.4,0.4,3.4,0.9c1.1,0.7,1.8,1.5,2.4,2.6c0.6,1.1,0.9,2.9,0.9,5.3l0,0v11.4H68V48.9c0-2-0.4-3.4-0.9-4.3
				c-0.7-0.9-1.6-1.2-3.1-1.2c-1.8,0-3.4,0.9-4.8,2.9l0,0v14.4h-4.1V40.5h4.1v2.6C60.9,41.2,62.9,40.1,65.1,40.1z M118.1,44.1
				L118.1,44.1c-1.9,0-3.4,0.7-4.7,1.8c-1.1,1.2-1.8,2.9-1.8,4.8s0.7,3.4,1.8,4.7c1.1,1.1,2.9,1.8,4.8,1.8c1.9,0,3.5-0.7,4.8-1.8
				c1.1-1.1,1.8-2.9,1.8-4.7c0-1.8-0.7-3.4-1.9-4.7C121.6,44.7,120,44.1,118.1,44.1z M82.6,43.6c-1.4,0-2.6,0.4-3.4,1.2
				c-0.9,0.8-1.4,1.9-1.8,3.3v0.4h10c-0.1-1.6-0.6-2.9-1.4-3.7C85,44,83.9,43.6,82.6,43.6z"/>
		</g>
	</g>
</g>
</svg>
