<?xml version="1.0" encoding="utf-8"?>
<!-- Generator: Adobe Illustrator 25.1.0, SVG Export Plug-In . SVG Version: 6.00 Build 0)  -->
<svg version="1.1" id="Layer_1" xmlns="http://www.w3.org/2000/svg" xmlns:xlink="http://www.w3.org/1999/xlink" x="0px" y="0px"
	 viewBox="0 0 160 100" style="enable-background:new 0 0 160 100;" xml:space="preserve">
<style type="text/css">
	.st0{fill-rule:evenodd;clip-rule:evenodd;fill:#AB206D;}
</style>
<desc>Created with Sketch.</desc>
<g id="Exports">
	<g id="Homepage-New" transform="translate(-270.000000, -3963.000000)">
		<g id="Group-18" transform="translate(270.000000, 3963.000000)">
			<path id="Combined-Shape" class="st0" d="M39.3,39.2l6,9.1l5.9-9.1h4.7l-8.3,12.4v10l-4.4,4.7V51.6l-8.5-12.4
				C34.6,39.2,39.3,39.2,39.3,39.2z M129.3,39.2L129.3,39.2c3.3,0.1,6.1,1,8.3,3.3c2.3,2.2,3.4,5.1,3.4,8.3s-1,6-3.4,8.1
				c-2.3,2.1-5.3,3.3-8.7,3.3c-3.4,0-6.2-1-8.5-3.3c-2.2-2.2-3.4-4.9-3.4-8.2c0-2.9,0.9-5.3,2.6-7.3l0.3-0.3h-10.1v-4L129.3,39.2
				L129.3,39.2z M26.4,38.7c2.2,0,4.6,0.7,6.8,1.8l0,0v4.4c-2.7-1.6-4.8-2.5-6.5-2.5c-0.9,0-1.6,0.3-2.1,0.7
				c-0.5,0.4-0.9,0.9-0.9,1.4c0,0.5,0.3,1,0.8,1.4c0.5,0.5,1.3,1,2.6,1.7l0,0l1.6,0.9c3.8,2.1,5.6,4.6,5.6,7.2
				c0,1.8-0.8,3.3-2.2,4.6c-1.4,1.2-3.3,1.8-5.6,1.8c-1.3,0-2.6-0.1-3.5-0.4c-1-0.3-2.3-0.9-3.9-1.6l0,0v-4.8
				c1.2,0.9,2.6,1.6,3.8,2.2c1.3,0.5,2.5,0.9,3.3,0.9c1,0,1.7-0.3,2.5-0.8c0.7-0.5,1-1,1-1.6c0-0.7-0.3-1.2-0.7-1.6
				c-0.4-0.5-1.3-1-2.9-1.8c-3-1.6-4.8-3-5.6-4.2c-0.9-1-1.3-2.3-1.3-3.6c0-1.7,0.7-3.3,2-4.3C22.5,39.3,24.3,38.7,26.4,38.7z
				 M106.8,34.5v4.7v15.1c0,2.6,1,3.9,3.3,3.9c1.6,0,3.3-0.5,5.1-1.6l0,0v4.2c-1.7,1-3.5,1.4-5.6,1.4s-3.8-0.7-5.2-1.8
				c-0.4-0.4-0.8-0.8-1-1.2c-0.3-0.5-0.5-1-0.8-1.7c-0.3-0.8-0.3-2.1-0.3-4.2l0,0v-10h-3.9v-0.5l3.6-3.6L106.8,34.5z M88.6,38.7
				c3,0,5.5,1,7.3,3.3c1.7,2,2.6,4.7,2.7,7.9v0.4v0.7h-16c0.1,2.2,0.9,3.9,2.2,5.2c1.3,1.2,3.1,2,5.2,2c2.9,0,5.5-0.9,7.8-2.6
				l0.4-0.3v4.4c-1.3,1-2.7,1.6-4,2c-1.3,0.4-3,0.7-4.8,0.7c-2.5,0-4.6-0.5-6-1.6c-1.6-1-2.9-2.5-3.6-4.2c-1-1.7-1.3-3.8-1.3-6
				c0-3.4,1-6.2,3-8.5C83,39.9,85.5,38.7,88.6,38.7z M68.8,38.7c1.3,0,2.7,0.4,3.9,1c1.2,0.8,2.1,1.7,2.7,3c0.7,1.2,1,3.3,1,6l0,0
				v12.9h-4.4V48.7c0-2.3-0.4-3.9-1-4.9c-0.8-1-1.8-1.4-3.5-1.4c-2.1,0-3.9,1-5.5,3.3l0,0v16.3h-4.6V39.2h4.6v2.9
				C64,39.9,66.2,38.7,68.8,38.7z M128.9,43.2L128.9,43.2c-2.2,0-3.9,0.8-5.3,2.1c-1.3,1.4-2.1,3.3-2.1,5.5c0,2.2,0.8,3.9,2.1,5.3
				c1.3,1.3,3.3,2.1,5.5,2.1c2.2,0,4-0.8,5.5-2.1c1.3-1.3,2.1-3.3,2.1-5.3c0-2.1-0.8-3.9-2.2-5.3C132.9,43.9,131.1,43.2,128.9,43.2z
				 M88.6,42.7c-1.6,0-3,0.5-3.9,1.4c-1,0.9-1.6,2.2-2,3.8v0.4h11.4c-0.1-1.8-0.7-3.3-1.6-4.2C91.4,43.1,90.1,42.7,88.6,42.7z"/>
		</g>
	</g>
</g>
</svg>
