<?xml version="1.0" encoding="utf-8"?>
<!-- Generator: Adobe Illustrator 25.1.0, SVG Export Plug-In . SVG Version: 6.00 Build 0)  -->
<svg version="1.1" id="Layer_1" xmlns="http://www.w3.org/2000/svg" xmlns:xlink="http://www.w3.org/1999/xlink" x="0px" y="0px"
	 viewBox="0 0 220 100" style="enable-background:new 0 0 220 100;" xml:space="preserve">
<style type="text/css">
	.st0{fill-rule:evenodd;clip-rule:evenodd;fill:#372B85;}
	.st1{filter:url(#Adobe_OpacityMaskFilter);}
	.st2{fill-rule:evenodd;clip-rule:evenodd;fill:#FFFFFF;}
	.st3{mask:url(#mask-2_1_);fill-rule:evenodd;clip-rule:evenodd;fill:#372B85;}
	.st4{filter:url(#Adobe_OpacityMaskFilter_1_);}
	.st5{mask:url(#mask-2_2_);fill-rule:evenodd;clip-rule:evenodd;fill:#372B85;}
	.st6{filter:url(#Adobe_OpacityMaskFilter_2_);}
	.st7{mask:url(#mask-2_3_);fill-rule:evenodd;clip-rule:evenodd;fill:#372B85;}
	.st8{filter:url(#Adobe_OpacityMaskFilter_3_);}
	.st9{mask:url(#mask-2_4_);fill-rule:evenodd;clip-rule:evenodd;fill:#372B85;}
	.st10{filter:url(#Adobe_OpacityMaskFilter_4_);}
	.st11{mask:url(#mask-2_5_);fill-rule:evenodd;clip-rule:evenodd;fill:#372B85;}
	.st12{filter:url(#Adobe_OpacityMaskFilter_5_);}
	.st13{mask:url(#mask-2_6_);fill-rule:evenodd;clip-rule:evenodd;fill:#372B85;}
	.st14{filter:url(#Adobe_OpacityMaskFilter_6_);}
	.st15{mask:url(#mask-2_7_);fill-rule:evenodd;clip-rule:evenodd;fill:#372B85;}
	.st16{filter:url(#Adobe_OpacityMaskFilter_7_);}
	.st17{mask:url(#mask-2_8_);fill-rule:evenodd;clip-rule:evenodd;fill:#372B85;}
	.st18{filter:url(#Adobe_OpacityMaskFilter_8_);}
	.st19{mask:url(#mask-2_9_);fill-rule:evenodd;clip-rule:evenodd;fill:#372B85;}
	.st20{filter:url(#Adobe_OpacityMaskFilter_9_);}
	.st21{mask:url(#mask-2_10_);fill-rule:evenodd;clip-rule:evenodd;fill:#372B85;}
	.st22{filter:url(#Adobe_OpacityMaskFilter_10_);}
	.st23{mask:url(#mask-2_11_);fill-rule:evenodd;clip-rule:evenodd;fill:#372B85;}
	.st24{filter:url(#Adobe_OpacityMaskFilter_11_);}
	.st25{mask:url(#mask-2_12_);fill-rule:evenodd;clip-rule:evenodd;fill:#372B85;}
	.st26{filter:url(#Adobe_OpacityMaskFilter_12_);}
	.st27{mask:url(#mask-2_13_);fill-rule:evenodd;clip-rule:evenodd;fill:#372B85;}
	.st28{filter:url(#Adobe_OpacityMaskFilter_13_);}
	.st29{mask:url(#mask-2_14_);fill-rule:evenodd;clip-rule:evenodd;fill:#372B85;}
	.st30{filter:url(#Adobe_OpacityMaskFilter_14_);}
	.st31{mask:url(#mask-2_15_);fill-rule:evenodd;clip-rule:evenodd;fill:#372B85;}
	.st32{filter:url(#Adobe_OpacityMaskFilter_15_);}
	.st33{mask:url(#mask-2_16_);fill-rule:evenodd;clip-rule:evenodd;fill:#372B85;}
	.st34{filter:url(#Adobe_OpacityMaskFilter_16_);}
	.st35{mask:url(#mask-2_17_);fill-rule:evenodd;clip-rule:evenodd;fill:#372B85;}
	.st36{filter:url(#Adobe_OpacityMaskFilter_17_);}
	.st37{mask:url(#mask-2_18_);fill-rule:evenodd;clip-rule:evenodd;fill:#372B85;}
</style>
<desc>Created with Sketch.</desc>
<g id="Exports">
	<g id="Homepage-New" transform="translate(-769.000000, -4468.000000)">
		<g id="Group-22" transform="translate(788.000000, 4561.000000)">
			<path id="Fill-1" class="st0" d="M72.5-50.9c-1.6,0-2.8,0.7-3.5,1.7v-1.4h-3.5v11.9H69v-7.5c0.4-1,1.3-1.6,2.2-1.6
				c1.2,0,2.1,0.7,2.1,2.3v6.8h3.5v-7.5C76.7-49.4,74.9-50.9,72.5-50.9"/>
			<g id="Clip-4">
			</g>
			<defs>
				<filter id="Adobe_OpacityMaskFilter" filterUnits="userSpaceOnUse" x="79.8" y="-50.6" width="3.5" height="11.9">
					<feColorMatrix  type="matrix" values="1 0 0 0 0  0 1 0 0 0  0 0 1 0 0  0 0 0 1 0"/>
				</filter>
			</defs>
			<mask maskUnits="userSpaceOnUse" x="79.8" y="-50.6" width="3.5" height="11.9" id="mask-2_1_">
				<g class="st1">
					<polygon id="path-1_1_" class="st2" points="6,-25.5 175.8,-25.5 175.8,-61 6,-61 					"/>
				</g>
			</mask>
			<polygon id="Fill-3" class="st3" points="79.8,-38.7 83.2,-38.7 83.2,-50.6 79.8,-50.6 			"/>
			<defs>
				<filter id="Adobe_OpacityMaskFilter_1_" filterUnits="userSpaceOnUse" x="95" y="-50.6" width="3.5" height="11.9">
					<feColorMatrix  type="matrix" values="1 0 0 0 0  0 1 0 0 0  0 0 1 0 0  0 0 0 1 0"/>
				</filter>
			</defs>
			<mask maskUnits="userSpaceOnUse" x="95" y="-50.6" width="3.5" height="11.9" id="mask-2_2_">
				<g class="st4">
					<polygon id="path-1_2_" class="st2" points="6,-25.5 175.8,-25.5 175.8,-61 6,-61 					"/>
				</g>
			</mask>
			<polygon id="Fill-5" class="st5" points="95,-38.7 98.5,-38.7 98.5,-50.6 95,-50.6 			"/>
			<defs>
				<filter id="Adobe_OpacityMaskFilter_2_" filterUnits="userSpaceOnUse" x="100.9" y="-50.9" width="11.7" height="12.5">
					<feColorMatrix  type="matrix" values="1 0 0 0 0  0 1 0 0 0  0 0 1 0 0  0 0 0 1 0"/>
				</filter>
			</defs>
			<mask maskUnits="userSpaceOnUse" x="100.9" y="-50.9" width="11.7" height="12.5" id="mask-2_3_">
				<g class="st6">
					<polygon id="path-1_3_" class="st2" points="6,-25.5 175.8,-25.5 175.8,-61 6,-61 					"/>
				</g>
			</mask>
			<path id="Fill-6" class="st7" d="M112.6-45.1c-0.1-3.6-2.4-5.8-5.7-5.8c-3.2,0-6,2.3-6,6.2c0,4.1,2.9,6.3,6.2,6.3
				c2.6,0,4.4-1,5.4-2.7l-2.3-1.6c-0.6,1-1.6,1.6-2.8,1.6c-1.6,0-2.8-1-3-2.7h8.3C112.6-44,112.6-44.4,112.6-45.1L112.6-45.1z
				 M104.4-46.1c0.1-1.5,1.2-2.2,2.4-2.2s2.3,0.7,2.3,2.2H104.4z"/>
			<defs>
				<filter id="Adobe_OpacityMaskFilter_3_" filterUnits="userSpaceOnUse" x="114.2" y="-55.9" width="11.8" height="17.4">
					<feColorMatrix  type="matrix" values="1 0 0 0 0  0 1 0 0 0  0 0 1 0 0  0 0 0 1 0"/>
				</filter>
			</defs>
			<mask maskUnits="userSpaceOnUse" x="114.2" y="-55.9" width="11.8" height="17.4" id="mask-2_4_">
				<g class="st8">
					<polygon id="path-1_4_" class="st2" points="6,-25.5 175.8,-25.5 175.8,-61 6,-61 					"/>
				</g>
			</mask>
			<path id="Fill-7" class="st9" d="M122.6-49.9c-0.8-0.6-1.8-1-3-1c-2.8,0-5.4,2.1-5.4,6.2s2.6,6.2,5.4,6.2c1.4,0,2.5-0.6,3.2-1.4
				v1.1h3.2v-17.2h-3.5L122.6-49.9z M122.6-44c0,1.5-1.1,2.4-2.4,2.4c-1.4,0-2.5-1-2.5-3.1c0-2.1,1.2-3.1,2.5-3.1
				c1.4,0,2.3,0.9,2.4,2.4V-44z"/>
			<defs>
				<filter id="Adobe_OpacityMaskFilter_4_" filterUnits="userSpaceOnUse" x="129.3" y="-50.9" width="11.9" height="16.7">
					<feColorMatrix  type="matrix" values="1 0 0 0 0  0 1 0 0 0  0 0 1 0 0  0 0 0 1 0"/>
				</filter>
			</defs>
			<mask maskUnits="userSpaceOnUse" x="129.3" y="-50.9" width="11.9" height="16.7" id="mask-2_5_">
				<g class="st10">
					<polygon id="path-1_5_" class="st2" points="6,-25.5 175.8,-25.5 175.8,-61 6,-61 					"/>
				</g>
			</mask>
			<path id="Fill-8" class="st11" d="M141.1-44.7c0-4.1-2.6-6.2-5.4-6.2c-1.4,0-2.5,0.6-3.3,1.4v-1.1h-3.2v16.5h3.5v-5.5
				c0.8,0.7,1.8,1.1,3,1.1C138.5-38.5,141.1-40.6,141.1-44.7 M135.1-41.6c-1.3,0-2.4-0.9-2.4-2.4v-1.5c0-1.5,1.1-2.4,2.4-2.4
				s2.5,1,2.5,3.1C137.6-42.5,136.5-41.6,135.1-41.6"/>
			<defs>
				<filter id="Adobe_OpacityMaskFilter_5_" filterUnits="userSpaceOnUse" x="142.8" y="-50.9" width="12.3" height="12.5">
					<feColorMatrix  type="matrix" values="1 0 0 0 0  0 1 0 0 0  0 0 1 0 0  0 0 0 1 0"/>
				</filter>
			</defs>
			<mask maskUnits="userSpaceOnUse" x="142.8" y="-50.9" width="12.3" height="12.5" id="mask-2_6_">
				<g class="st12">
					<polygon id="path-1_6_" class="st2" points="6,-25.5 175.8,-25.5 175.8,-61 6,-61 					"/>
				</g>
			</mask>
			<path id="Fill-9" class="st13" d="M148.9-50.9c-3.1,0-6.1,2.2-6.1,6.2c0,4.1,2.9,6.3,6.1,6.3c3.1,0,6.1-2.2,6.1-6.3
				C155.1-48.8,152.2-50.9,148.9-50.9 M148.9-41.4c-1.4,0-2.6-1.1-2.6-3.3c0-2.1,1.2-3.2,2.6-3.2c1.4,0,2.6,1.1,2.6,3.2
				C151.6-42.6,150.4-41.4,148.9-41.4"/>
			<defs>
				<filter id="Adobe_OpacityMaskFilter_6_" filterUnits="userSpaceOnUse" x="156.3" y="-50.9" width="10.5" height="12.5">
					<feColorMatrix  type="matrix" values="1 0 0 0 0  0 1 0 0 0  0 0 1 0 0  0 0 0 1 0"/>
				</filter>
			</defs>
			<mask maskUnits="userSpaceOnUse" x="156.3" y="-50.9" width="10.5" height="12.5" id="mask-2_7_">
				<g class="st14">
					<polygon id="path-1_7_" class="st2" points="6,-25.5 175.8,-25.5 175.8,-61 6,-61 					"/>
				</g>
			</mask>
			<path id="Fill-10" class="st15" d="M166.8-42.3c0-2.5-1.9-3.4-4.3-3.8c-1.5-0.2-2.4-0.4-2.4-1.2c0-0.7,0.6-1.1,1.7-1.1
				c1.1,0,1.7,0.4,2,1.4l2.9-0.7c-0.5-1.8-2-3.2-4.9-3.2c-2.9,0-5,1.5-5,3.8c0,2.3,1.7,3.2,4.1,3.7c1.5,0.2,2.5,0.6,2.5,1.4
				c0,0.8-0.8,1.1-1.8,1.1c-1.2,0-2-0.6-2.4-1.8l-2.9,0.9c0.6,2.3,2.4,3.5,5.3,3.5C164.6-38.4,166.8-39.9,166.8-42.3"/>
			<defs>
				<filter id="Adobe_OpacityMaskFilter_7_" filterUnits="userSpaceOnUse" x="138" y="-34.1" width="3.2" height="3.5">
					<feColorMatrix  type="matrix" values="1 0 0 0 0  0 1 0 0 0  0 0 1 0 0  0 0 0 1 0"/>
				</filter>
			</defs>
			<mask maskUnits="userSpaceOnUse" x="138" y="-34.1" width="3.2" height="3.5" id="mask-2_8_">
				<g class="st16">
					<polygon id="path-1_8_" class="st2" points="6,-25.5 175.8,-25.5 175.8,-61 6,-61 					"/>
				</g>
			</mask>
			<path id="Fill-11" class="st17" d="M139.7-31.8h0.8c-0.1,0.3-0.4,0.5-0.8,0.5c-0.5,0-0.9-0.4-0.9-1.1c0-0.7,0.4-1.1,0.9-1.1
				c0.4,0,0.7,0.3,0.8,0.6l0.7-0.2c-0.2-0.6-0.8-1-1.5-1c-0.9,0-1.6,0.6-1.6,1.7c0,1.1,0.8,1.7,1.6,1.7c0.8,0,1.6-0.5,1.6-1.6v-0.2
				h-1.5V-31.8z"/>
			<defs>
				<filter id="Adobe_OpacityMaskFilter_8_" filterUnits="userSpaceOnUse" x="145.7" y="-34" width="2.7" height="3.4">
					<feColorMatrix  type="matrix" values="1 0 0 0 0  0 1 0 0 0  0 0 1 0 0  0 0 0 1 0"/>
				</filter>
			</defs>
			<mask maskUnits="userSpaceOnUse" x="145.7" y="-34" width="2.7" height="3.4" id="mask-2_9_">
				<g class="st18">
					<polygon id="path-1_9_" class="st2" points="6,-25.5 175.8,-25.5 175.8,-61 6,-61 					"/>
				</g>
			</mask>
			<path id="Fill-12" class="st19" d="M148-32.4c0.2-0.2,0.3-0.4,0.3-0.7c0-0.6-0.5-1-1.1-1h-1.5v3.4h0.7v-1.4h0.4l0.8,1.4h0.8
				l-0.9-1.5C147.7-32.2,147.8-32.3,148-32.4 M147.1-32.7h-0.6v-0.7h0.6c0.2,0,0.4,0.1,0.4,0.4C147.5-32.8,147.3-32.7,147.1-32.7"/>
			<defs>
				<filter id="Adobe_OpacityMaskFilter_9_" filterUnits="userSpaceOnUse" x="152.6" y="-34.1" width="3.3" height="3.5">
					<feColorMatrix  type="matrix" values="1 0 0 0 0  0 1 0 0 0  0 0 1 0 0  0 0 0 1 0"/>
				</filter>
			</defs>
			<mask maskUnits="userSpaceOnUse" x="152.6" y="-34.1" width="3.3" height="3.5" id="mask-2_10_">
				<g class="st20">
					<polygon id="path-1_10_" class="st2" points="6,-25.5 175.8,-25.5 175.8,-61 6,-61 					"/>
				</g>
			</mask>
			<path id="Fill-13" class="st21" d="M154.3-34.1c-0.9,0-1.7,0.6-1.7,1.7c0,1.1,0.8,1.7,1.7,1.7c0.9,0,1.6-0.6,1.6-1.7
				C155.9-33.5,155.2-34.1,154.3-34.1 M154.3-31.3c-0.5,0-0.9-0.4-0.9-1.1c0-0.7,0.4-1.1,0.9-1.1c0.5,0,0.9,0.4,0.9,1.1
				C155.2-31.7,154.8-31.3,154.3-31.3"/>
			<defs>
				<filter id="Adobe_OpacityMaskFilter_10_" filterUnits="userSpaceOnUse" x="160.4" y="-34" width="2.7" height="3.4">
					<feColorMatrix  type="matrix" values="1 0 0 0 0  0 1 0 0 0  0 0 1 0 0  0 0 0 1 0"/>
				</filter>
			</defs>
			<mask maskUnits="userSpaceOnUse" x="160.4" y="-34" width="2.7" height="3.4" id="mask-2_11_">
				<g class="st22">
					<polygon id="path-1_11_" class="st2" points="6,-25.5 175.8,-25.5 175.8,-61 6,-61 					"/>
				</g>
			</mask>
			<path id="Fill-14" class="st23" d="M162.4-32c0,0.4-0.2,0.7-0.6,0.7c-0.4,0-0.6-0.3-0.6-0.7V-34h-0.7v2.1c0,0.9,0.5,1.4,1.4,1.4
				c0.8,0,1.4-0.4,1.4-1.4V-34h-0.7V-32z"/>
			<defs>
				<filter id="Adobe_OpacityMaskFilter_11_" filterUnits="userSpaceOnUse" x="167.7" y="-34" width="2.4" height="3.4">
					<feColorMatrix  type="matrix" values="1 0 0 0 0  0 1 0 0 0  0 0 1 0 0  0 0 0 1 0"/>
				</filter>
			</defs>
			<mask maskUnits="userSpaceOnUse" x="167.7" y="-34" width="2.4" height="3.4" id="mask-2_12_">
				<g class="st24">
					<polygon id="path-1_12_" class="st2" points="6,-25.5 175.8,-25.5 175.8,-61 6,-61 					"/>
				</g>
			</mask>
			<path id="Fill-15" class="st25" d="M169.1-34h-1.4v3.4h0.7V-32h0.6c0.6,0,1.1-0.4,1.1-1S169.7-34,169.1-34 M169-32.7h-0.6v-0.8
				h0.6c0.2,0,0.4,0.1,0.4,0.4C169.4-32.8,169.2-32.7,169-32.7"/>
			<defs>
				<filter id="Adobe_OpacityMaskFilter_12_" filterUnits="userSpaceOnUse" x="51.3" y="-50.6" width="11" height="12.2">
					<feColorMatrix  type="matrix" values="1 0 0 0 0  0 1 0 0 0  0 0 1 0 0  0 0 0 1 0"/>
				</filter>
			</defs>
			<mask maskUnits="userSpaceOnUse" x="51.3" y="-50.6" width="11" height="12.2" id="mask-2_13_">
				<g class="st26">
					<polygon id="path-1_13_" class="st2" points="6,-25.5 175.8,-25.5 175.8,-61 6,-61 					"/>
				</g>
			</mask>
			<path id="Fill-16" class="st27" d="M58.9-43.5c0,1.3-0.8,2.1-2.1,2.1c-1.3,0-2.1-0.9-2.1-2.4v-6.9h-3.5v7.1
				c0,1.6,0.4,2.8,1.3,3.7c1,0.9,2.5,1.4,4.2,1.4c1.6,0,3.1-0.5,4.1-1.3c1-0.9,1.4-1.9,1.4-3.8v-7.1h-3.5L58.9-43.5z"/>
			<defs>
				<filter id="Adobe_OpacityMaskFilter_13_" filterUnits="userSpaceOnUse" x="85.3" y="-56.1" width="7.8" height="17.4">
					<feColorMatrix  type="matrix" values="1 0 0 0 0  0 1 0 0 0  0 0 1 0 0  0 0 0 1 0"/>
				</filter>
			</defs>
			<mask maskUnits="userSpaceOnUse" x="85.3" y="-56.1" width="7.8" height="17.4" id="mask-2_14_">
				<g class="st28">
					<polygon id="path-1_14_" class="st2" points="6,-25.5 175.8,-25.5 175.8,-61 6,-61 					"/>
				</g>
			</mask>
			<path id="Fill-17" class="st29" d="M87.1-51.3v0.6h-1.8v2.8h1.8v9.1h3.4v-9.1h2.6v-2.8h-2.6v-0.6c0-1.1,0.5-1.6,1.6-1.6h0.9v-3.2
				h-0.9C88.7-56.1,87.1-54.6,87.1-51.3"/>
			<defs>
				<filter id="Adobe_OpacityMaskFilter_14_" filterUnits="userSpaceOnUse" x="95" y="-56.1" width="3.5" height="3.2">
					<feColorMatrix  type="matrix" values="1 0 0 0 0  0 1 0 0 0  0 0 1 0 0  0 0 0 1 0"/>
				</filter>
			</defs>
			<mask maskUnits="userSpaceOnUse" x="95" y="-56.1" width="3.5" height="3.2" id="mask-2_15_">
				<g class="st30">
					<polygon id="path-1_15_" class="st2" points="6,-25.5 175.8,-25.5 175.8,-61 6,-61 					"/>
				</g>
			</mask>
			<polygon id="Fill-18" class="st31" points="95,-52.9 98.5,-52.9 98.5,-56.1 95,-56.1 			"/>
			<defs>
				<filter id="Adobe_OpacityMaskFilter_15_" filterUnits="userSpaceOnUse" x="79.7" y="-56.1" width="3.5" height="3.2">
					<feColorMatrix  type="matrix" values="1 0 0 0 0  0 1 0 0 0  0 0 1 0 0  0 0 0 1 0"/>
				</filter>
			</defs>
			<mask maskUnits="userSpaceOnUse" x="79.7" y="-56.1" width="3.5" height="3.2" id="mask-2_16_">
				<g class="st32">
					<polygon id="path-1_16_" class="st2" points="6,-25.5 175.8,-25.5 175.8,-61 6,-61 					"/>
				</g>
			</mask>
			<polygon id="Fill-19" class="st33" points="79.7,-52.9 83.2,-52.9 83.2,-56.1 79.7,-56.1 			"/>
			<defs>
				<filter id="Adobe_OpacityMaskFilter_16_" filterUnits="userSpaceOnUse" x="167.7" y="-53.8" width="8" height="15.1">
					<feColorMatrix  type="matrix" values="1 0 0 0 0  0 1 0 0 0  0 0 1 0 0  0 0 0 1 0"/>
				</filter>
			</defs>
			<mask maskUnits="userSpaceOnUse" x="167.7" y="-53.8" width="8" height="15.1" id="mask-2_17_">
				<g class="st34">
					<polygon id="path-1_17_" class="st2" points="6,-25.5 175.8,-25.5 175.8,-61 6,-61 					"/>
				</g>
			</mask>
			<path id="Fill-20" class="st35" d="M175.4-39v-2.8h-0.9c-1.2,0-1.6-0.6-1.6-1.6v-4.4h3v-2.8h-3v-3.2h-3.3v3.2h-1.7v2.8h1.7v4.4
				c0,2.8,1.1,4.2,3.5,4.6C174.3-38.6,175.4-39,175.4-39"/>
			<defs>
				<filter id="Adobe_OpacityMaskFilter_17_" filterUnits="userSpaceOnUse" x="6" y="-61" width="28.5" height="35.5">
					<feColorMatrix  type="matrix" values="1 0 0 0 0  0 1 0 0 0  0 0 1 0 0  0 0 0 1 0"/>
				</filter>
			</defs>
			<mask maskUnits="userSpaceOnUse" x="6" y="-61" width="28.5" height="35.5" id="mask-2_18_">
				<g class="st36">
					<polygon id="path-1_18_" class="st2" points="6,-25.5 175.8,-25.5 175.8,-61 6,-61 					"/>
				</g>
			</mask>
			<path id="Fill-21" class="st37" d="M12.8-25.5L6-37.3v-18.3L18.9-61l10.7,3.8l4.9,8.5l-5.8,16.5L12.8-25.5z M7.8-37.8l5.8,10
				l13.7-5.8l5.3-15l-4.2-7.2l-9.5-3.3L7.8-54.4L7.8-37.8z"/>
		</g>
	</g>
</g>
</svg>
