<?xml version="1.0" encoding="UTF-8"?>
<svg width="214px" height="214px" viewBox="0 0 214 214" version="1.1" xmlns="http://www.w3.org/2000/svg" xmlns:xlink="http://www.w3.org/1999/xlink">
    <!-- Generator: Sketch 56.3 (81716) - https://sketch.com -->
    <title>unifiedpost_logo</title>
    <desc>Created with Sketch.</desc>
    <defs>
        <polygon id="path-1" points="0 35.4680484 169.794473 35.4680484 169.794473 -1.42108547e-14 0 -1.42108547e-14"></polygon>
    </defs>
    <g id="Exports" stroke="none" stroke-width="1" fill="none" fill-rule="evenodd">
        <g id="Homepage-New" transform="translate(-769.000000, -4468.000000)">
            <g id="Group-22" transform="translate(788.000000, 4561.000000)">
                <path d="M66.4732591,10.1002021 C64.8877668,10.1002021 63.7133282,10.7755043 62.979304,11.8324991 L62.979304,10.3938117 L59.5147098,10.3938117 L59.5147098,22.3143644 L62.979304,22.3143644 L62.979304,14.7685959 C63.4197185,13.740962 64.3005475,13.1831036 65.2107375,13.1831036 C66.4438981,13.1831036 67.2660052,13.8584059 67.2660052,15.50262 L67.2660052,22.3143644 L70.7305993,22.3143644 L70.7305993,14.8273178 C70.7305993,11.5976114 68.9395803,10.1002021 66.4732591,10.1002021" id="Fill-1" fill="#372B85"></path>
                <mask id="mask-2" fill="white">
                    <use xlink:href="#path-1"></use>
                </mask>
                <g id="Clip-4"></g>
                <polygon id="Fill-3" fill="#372B85" mask="url(#mask-2)" points="73.7547496 22.3143351 77.2193437 22.3143351 77.2193437 10.3937824 73.7547496 10.3937824"></polygon>
                <polygon id="Fill-5" fill="#372B85" mask="url(#mask-2)" points="88.9930915 22.3143351 92.4576857 22.3143351 92.4576857 10.3937824 88.9930915 10.3937824"></polygon>
                <path d="M106.58037,15.9430052 C106.462926,12.3609672 104.143409,10.1001727 100.854981,10.1001727 C97.6546356,10.1001727 94.8653437,12.3903282 94.8653437,16.2953368 C94.8653437,20.4352332 97.8014404,22.6079447 101.089869,22.6079447 C103.702995,22.6079447 105.494014,21.5803109 106.462926,19.8773748 L104.114048,18.2918826 C103.497468,19.3195164 102.499195,19.9067358 101.265741,19.9067358 C99.6805423,19.9067358 98.4180207,18.8791019 98.3005769,17.1761658 L106.609731,17.1761658 C106.58037,16.970639 106.58037,16.6476684 106.58037,15.9430052 L106.58037,15.9430052 Z M98.3592988,14.9447323 C98.4764491,13.447323 99.5924594,12.7426598 100.766898,12.7426598 C101.941337,12.7426598 103.057054,13.447323 103.115775,14.9447323 L98.3592988,14.9447323 Z" id="Fill-6" fill="#372B85" mask="url(#mask-2)"></path>
                <path d="M116.621879,11.1278359 C115.8582,10.5112556 114.830566,10.129563 113.597406,10.129563 C110.808114,10.129563 108.224349,12.2141917 108.224349,16.3247271 C108.224349,20.4352625 110.837769,22.5198912 113.62706,22.5198912 C114.977371,22.5198912 116.093088,21.9326718 116.856767,21.1692867 L116.856767,22.3143644 L120.056819,22.3143644 L120.056819,5.10883765 L116.592225,5.10883765 L116.621879,11.1278359 Z M116.621879,17.0293903 C116.592225,18.5561606 115.535523,19.4369896 114.243347,19.4369896 C112.893036,19.4369896 111.718598,18.4680777 111.718598,16.2953661 C111.718598,14.1520155 112.893036,13.1831036 114.243347,13.1831036 C115.594245,13.1831036 116.592225,14.1226546 116.621879,15.561342 L116.621879,17.0293903 Z" id="Fill-7" fill="#372B85" mask="url(#mask-2)"></path>
                <path d="M135.148532,16.324639 C135.148532,12.2141036 132.594128,10.129475 129.746114,10.129475 C128.336788,10.129475 127.221071,10.6873333 126.487047,11.5388014 L126.487047,10.3937237 L123.286701,10.3937237 L123.286701,26.8652263 L126.751295,26.8652263 L126.751295,21.3747254 C127.51468,22.0500276 128.542314,22.4904421 129.775475,22.4904421 C132.506045,22.5200967 135.148532,20.4351744 135.148532,16.324639 M129.129534,19.4371952 C127.80829,19.4371952 126.751295,18.5267116 126.721934,17.0293022 L126.721934,15.5318929 C126.751295,14.0638446 127.80829,13.1536546 129.129534,13.1536546 C130.450777,13.1536546 131.654577,14.1225665 131.654577,16.2952781 C131.625216,18.4973506 130.450777,19.4371952 129.129534,19.4371952" id="Fill-8" fill="#372B85" mask="url(#mask-2)"></path>
                <path d="M142.929188,10.0708117 C139.846287,10.0708117 136.792746,12.2435233 136.792746,16.2659758 C136.792746,20.3765112 139.728843,22.5785838 142.929188,22.5785838 C146.041451,22.5785838 149.06563,20.3471503 149.06563,16.2659758 C149.094991,12.2435233 146.158895,10.0708117 142.929188,10.0708117 M142.929188,19.5544041 C141.549223,19.5544041 140.286701,18.4386874 140.286701,16.2953368 C140.286701,14.1813472 141.519862,13.1243523 142.929188,13.1243523 C144.309154,13.1243523 145.571675,14.2107081 145.571675,16.2953368 C145.571675,18.4386874 144.367876,19.5544041 142.929188,19.5544041" id="Fill-9" fill="#372B85" mask="url(#mask-2)"></path>
                <path d="M160.751354,18.7322971 C160.751354,16.2659758 158.842891,15.2970639 156.494014,14.9447323 C154.996311,14.7392055 154.086415,14.5336788 154.086415,13.7409326 C154.086415,13.0362694 154.732356,12.5958549 155.75999,12.5958549 C156.816984,12.5958549 157.491993,13.0362694 157.756535,14.0345423 L160.692632,13.3005181 C160.164135,11.4507772 158.666432,10.1001727 155.789351,10.1001727 C152.882615,10.1001727 150.768625,11.597582 150.768625,13.9170984 C150.768625,16.2072539 152.4422,17.1468048 154.879161,17.5872193 C156.347209,17.8221071 157.345188,18.1450777 157.345188,18.9378238 C157.345188,19.701209 156.552736,20.0535406 155.58353,20.0535406 C154.350663,20.0535406 153.587278,19.4369603 153.205585,18.2625216 L150.269489,19.1139896 C150.856708,21.4041451 152.677088,22.6079447 155.554463,22.6079447 C158.637364,22.5785838 160.751354,21.0518135 160.751354,18.7322971" id="Fill-10" fill="#372B85" mask="url(#mask-2)"></path>
                <path d="M133.709727,29.1846839 L134.473406,29.1846839 C134.385323,29.5079482 134.062059,29.713475 133.651299,29.713475 C133.152162,29.713475 132.740815,29.3314888 132.740815,28.6271192 C132.740815,27.9518169 133.152162,27.5698307 133.651299,27.5698307 C134.091713,27.5698307 134.385323,27.8340794 134.473406,28.1276891 L135.148415,27.9221623 C134.942888,27.2762211 134.385323,26.8945285 133.621644,26.8945285 C132.740815,26.8945285 131.977724,27.5404698 131.977724,28.6271192 C131.977724,29.7425423 132.740815,30.3591226 133.621644,30.3591226 C134.41439,30.3591226 135.20743,29.8602798 135.20743,28.7442694 L135.20743,28.5681036 L133.709727,28.5681036 L133.709727,29.1846839 Z" id="Fill-11" fill="#372B85" mask="url(#mask-2)"></path>
                <path d="M141.960335,28.5974646 C142.136501,28.4212988 142.22429,28.1867047 142.22429,27.9221623 C142.22429,27.334943 141.754808,26.9532504 141.167589,26.9532504 L139.699541,26.9532504 L139.699541,30.3297617 L140.404204,30.3297617 L140.404204,28.9207288 L140.815257,28.9207288 L141.578642,30.3297617 L142.40075,30.3297617 L141.549282,28.8326459 C141.725447,28.773924 141.842891,28.6858411 141.960335,28.5974646 M141.079506,28.3038549 L140.433565,28.3038549 L140.433565,27.5994853 L141.079506,27.5994853 C141.314394,27.5994853 141.490266,27.7462902 141.490266,27.9518169 C141.461199,28.1570501 141.314394,28.3038549 141.079506,28.3038549" id="Fill-12" fill="#372B85" mask="url(#mask-2)"></path>
                <path d="M148.272943,26.8945872 C147.392114,26.8945872 146.599368,27.5405285 146.599368,28.6268843 C146.599368,29.742601 147.362459,30.3591813 148.272943,30.3591813 C149.153772,30.3591813 149.917157,29.742601 149.917157,28.6268843 C149.917157,27.5114611 149.153772,26.8945872 148.272943,26.8945872 M148.272943,29.6838791 C147.773807,29.6838791 147.362459,29.3021865 147.362459,28.6268843 C147.362459,27.9518756 147.773807,27.5698895 148.272943,27.5698895 C148.772079,27.5698895 149.183133,27.980943 149.183133,28.6268843 C149.183133,29.3021865 148.772079,29.6838791 148.272943,29.6838791" id="Fill-13" fill="#372B85" mask="url(#mask-2)"></path>
                <path d="M156.376453,29.0086356 C156.376453,29.4490501 156.141565,29.7132988 155.730511,29.7132988 C155.348819,29.7132988 155.084864,29.4490501 155.084864,29.0086356 L155.084864,26.9533679 L154.379907,26.9533679 L154.379907,29.0379965 C154.379907,29.9481865 154.908404,30.388601 155.730511,30.388601 C156.552912,30.388601 157.110477,29.9481865 157.110477,29.0379965 L157.110477,26.9533679 L156.376453,26.9533679 L156.376453,29.0086356 Z" id="Fill-14" fill="#372B85" mask="url(#mask-2)"></path>
                <path d="M163.070694,26.9533679 L161.72009,26.9533679 L161.72009,30.3298791 L162.425047,30.3298791 L162.425047,29.0086356 L163.041333,29.0086356 C163.628553,29.0086356 164.127983,28.656304 164.127983,27.9810017 C164.127983,27.3056995 163.687568,26.9533679 163.070694,26.9533679 M162.982611,28.3333333 L162.425047,28.3333333 L162.425047,27.5699482 L162.982611,27.5699482 C163.217499,27.5699482 163.393959,27.716753 163.393959,27.9516408 C163.393959,28.1865285 163.247154,28.3333333 162.982611,28.3333333" id="Fill-15" fill="#372B85" mask="url(#mask-2)"></path>
                <path d="M52.9084335,17.528468 C52.9084335,18.8497116 52.1450484,19.6718187 50.8531658,19.6718187 C49.5906442,19.6718187 48.7685371,18.7322677 48.7685371,17.2935803 L48.7685371,10.3643921 L45.303943,10.3643921 L45.303943,17.4991071 C45.303943,19.1433212 45.7443575,20.3471209 46.6251865,21.169228 C47.5940984,22.079418 49.0915078,22.5491934 50.8531658,22.5491934 C52.49738,22.5491934 53.9360674,22.079418 54.9343402,21.2573109 C55.9619741,20.3764819 56.3436667,19.348848 56.3436667,17.4991071 L56.3436667,10.3643921 L52.8790725,10.3643921 L52.9084335,17.528468 Z" id="Fill-16" fill="#372B85" mask="url(#mask-2)"></path>
                <path d="M81.0951088,9.74781174 L81.0951088,10.393753 L79.3334508,10.393753 L79.3334508,13.2417668 L81.0951088,13.2417668 L81.0951088,22.3143057 L84.5300484,22.3143057 L84.5300484,13.2417668 L87.1141071,13.2417668 L87.1141071,10.393753 L84.5300484,10.393753 L84.5300484,9.74781174 C84.5300484,8.69081693 85.0001174,8.10359758 86.1745561,8.10359758 L87.1141071,8.10359758 L87.1141071,4.93261313 L86.1745561,4.93261313 C82.739323,4.93261313 81.0951088,6.40066149 81.0951088,9.74781174" id="Fill-17" fill="#372B85" mask="url(#mask-2)"></path>
                <polygon id="Fill-18" fill="#372B85" mask="url(#mask-2)" points="88.9930915 8.10362694 92.5164076 8.10362694 92.5164076 4.93264249 88.9930915 4.93264249"></polygon>
                <polygon id="Fill-19" fill="#372B85" mask="url(#mask-2)" points="73.6666667 8.10362694 77.1896891 8.10362694 77.1896891 4.93264249 73.6666667 4.93264249"></polygon>
                <path d="M169.354059,21.991247 L169.354059,19.2316097 L168.414508,19.2316097 C167.240069,19.2316097 166.799655,18.6443903 166.799655,17.6167565 L166.799655,13.2416788 L169.794473,13.2416788 L169.794473,10.3936649 L166.829016,10.3936649 L166.829016,7.19361313 L163.481865,7.19361313 L163.481865,10.3936649 L161.749568,10.3936649 L161.749568,13.2416788 L163.452504,13.2416788 L163.452504,17.6167565 C163.452504,20.3763938 164.597582,21.8150812 166.97582,22.1967737 C168.267703,22.4023005 169.354059,21.991247 169.354059,21.991247" id="Fill-20" fill="#372B85" mask="url(#mask-2)"></path>
                <path d="M6.81171503,35.4680484 L-2.93609672e-05,23.6649396 L-2.93609672e-05,5.40241796 L12.8600743,-1.42108547e-14 L23.6061883,3.78756477 L28.5094698,12.3022453 L22.6666373,28.8031088 L6.81171503,35.4680484 Z M1.76162867,23.1951641 L7.57510017,33.2366149 L21.2866718,27.4818653 L26.6010069,12.4784111 L22.4317496,5.25561313 L12.9481572,1.90846287 L1.79098964,6.57685665 L1.76162867,23.1951641 Z" id="Fill-21" fill="#372B85" mask="url(#mask-2)"></path>
            </g>
        </g>
    </g>
</svg>