<?xml version="1.0" encoding="utf-8"?>
<!-- Generator: Adobe Illustrator 25.1.0, SVG Export Plug-In . SVG Version: 6.00 Build 0)  -->
<svg version="1.1" id="Layer_1" xmlns="http://www.w3.org/2000/svg" xmlns:xlink="http://www.w3.org/1999/xlink" x="0px" y="0px"
	 viewBox="0 0 220 100" style="enable-background:new 0 0 220 100;" xml:space="preserve">
<style type="text/css">
	.st0{fill-rule:evenodd;clip-rule:evenodd;fill:#372B85;}
</style>
<desc>Created with Sketch.</desc>
<g id="Exports">
	<g id="Homepage-New" transform="translate(-769.000000, -4468.000000)">
		<g id="Group-22" transform="translate(788.000000, 4561.000000)">
			<path id="Fill-1" class="st0" d="M70.3-51.8c-1.8,0-3.1,0.8-3.9,1.9v-1.5h-3.9v13.3h3.9v-8.4c0.5-1.1,1.4-1.8,2.5-1.8
				c1.3,0,2.4,0.8,2.4,2.6v7.6h3.9v-8.4C75-50.2,73-51.8,70.3-51.8"/>
			<g id="Clip-4">
			</g>
			<polygon id="Fill-3" class="st0" points="78.5,-38.2 82.2,-38.2 82.2,-51.5 78.5,-51.5 			"/>
			<polygon id="Fill-5" class="st0" points="95.5,-38.2 99.4,-38.2 99.4,-51.5 95.5,-51.5 			"/>
			<path id="Fill-6" class="st0" d="M115.2-45.3c-0.1-4-2.7-6.5-6.4-6.5c-3.6,0-6.7,2.6-6.7,7c0,4.6,3.2,7.1,7,7.1c3,0,5-1.1,6-3
				l-2.6-1.8c-0.7,1.1-1.8,1.8-3.1,1.8c-1.8,0-3.1-1.1-3.3-3h9.3C115.2-44.1,115.2-44.5,115.2-45.3L115.2-45.3z M106.1-46.4
				c0.1-1.7,1.3-2.5,2.7-2.5s2.6,0.8,2.6,2.5H106.1z"/>
			<path id="Fill-7" class="st0" d="M126.3-50.7c-0.9-0.7-2-1.1-3.3-1.1c-3.1,0-6,2.4-6,7s3,7,6,7c1.5,0,2.8-0.7,3.6-1.5v1.2h3.6
				v-19.2h-4L126.3-50.7z M126.3-44.1c0,1.7-1.2,2.7-2.7,2.7c-1.5,0-2.8-1.1-2.8-3.4s1.3-3.4,2.8-3.4c1.5,0,2.6,1,2.7,2.7V-44.1z"/>
			<path id="Fill-8" class="st0" d="M147.1-44.9c0-4.6-3-7-6-7c-1.5,0-2.8,0.7-3.7,1.5v-1.2h-3.6v18.5h3.9v-6.1
				c0.9,0.8,2,1.2,3.3,1.2C144.2-38,147.1-40.2,147.1-44.9 M140.4-41.4c-1.4,0-2.7-1-2.7-2.7v-1.7c0-1.7,1.2-2.7,2.7-2.7
				c1.4,0,2.8,1.1,2.8,3.4C143.2-42.4,142-41.4,140.4-41.4"/>
			<path id="Fill-9" class="st0" d="M155.8-51.8c-3.4,0-6.9,2.5-6.9,7c0,4.6,3.2,7.1,6.9,7.1c3.4,0,6.9-2.5,6.9-7.1
				C162.7-49.5,159.5-51.8,155.8-51.8 M155.8-41.2c-1.5,0-3-1.2-3-3.7c0-2.4,1.3-3.6,3-3.6c1.5,0,3,1.2,3,3.6
				C158.8-42.5,157.5-41.2,155.8-41.2"/>
			<path id="Fill-10" class="st0" d="M175.9-42.2c0-2.8-2.1-3.8-4.9-4.3c-1.7-0.2-2.7-0.5-2.7-1.3c0-0.8,0.7-1.2,1.9-1.2
				s1.9,0.5,2.2,1.5l3.2-0.8c-0.6-2-2.2-3.6-5.5-3.6c-3.3,0-5.6,1.7-5.6,4.3s1.9,3.6,4.6,4.1c1.7,0.2,2.8,0.7,2.8,1.5
				c0,0.9-0.9,1.2-2,1.2c-1.3,0-2.2-0.7-2.7-2l-3.2,1c0.7,2.6,2.7,3.9,5.9,3.9C173.4-37.9,175.9-39.5,175.9-42.2"/>
			<path id="Fill-11" class="st0" d="M145.5-30.4h0.9c-0.1,0.4-0.5,0.6-0.9,0.6c-0.6,0-1-0.5-1-1.2s0.5-1.2,1-1.2
				c0.5,0,0.8,0.4,0.9,0.7l0.8-0.2c-0.2-0.7-0.9-1.1-1.7-1.1c-1,0-1.8,0.7-1.8,1.9c0,1.2,0.9,1.9,1.8,1.9c0.9,0,1.8-0.6,1.8-1.8
				v-0.2h-1.7L145.5-30.4C145.5-30.4,145.5-30.4,145.5-30.4z"/>
			<path id="Fill-12" class="st0" d="M154.8-31.1c0.2-0.2,0.4-0.5,0.4-0.8c0-0.7-0.6-1.1-1.2-1.1h-1.7v3.8h0.8v-1.5h0.5l0.9,1.5h0.9
				l-1-1.7C154.5-30.9,154.6-31,154.8-31.1 M153.8-31.5h-0.7v-0.8h0.7c0.2,0,0.5,0.1,0.5,0.5C154.3-31.6,154-31.5,153.8-31.5"/>
			<path id="Fill-13" class="st0" d="M161.9-33c-1,0-1.9,0.7-1.9,1.9c0,1.2,0.9,1.9,1.9,1.9s1.8-0.7,1.8-1.9
				C163.7-32.3,162.8-33,161.9-33 M161.9-29.9c-0.6,0-1-0.5-1-1.2s0.5-1.2,1-1.2s1,0.5,1,1.2C162.8-30.3,162.5-29.9,161.9-29.9"/>
			<path id="Fill-14" class="st0" d="M170.9-30.6c0,0.5-0.2,0.8-0.7,0.8s-0.7-0.4-0.7-0.8v-2.2h-0.8v2.4c0,1,0.6,1.5,1.5,1.5
				c0.9,0,1.5-0.5,1.5-1.5v-2.4h-0.8v2.2H170.9z"/>
			<path id="Fill-15" class="st0" d="M178.5-32.9h-1.5v3.8h0.8v-1.5h0.7c0.7,0,1.2-0.5,1.2-1.1C179.6-32.4,179.1-32.9,178.5-32.9
				 M178.3-31.5h-0.7v-0.9h0.7c0.2,0,0.5,0.1,0.5,0.5C178.8-31.6,178.6-31.5,178.3-31.5"/>
			<path id="Fill-16" class="st0" d="M55.1-43.5c0,1.4-0.9,2.4-2.4,2.4c-1.5,0-2.4-1-2.4-2.7v-7.8h-3.9v7.9c0,1.8,0.5,3.1,1.4,4.1
				c1.1,1,2.8,1.5,4.7,1.5c1.8,0,3.4-0.6,4.6-1.4c1.1-1,1.5-2.1,1.5-4.3v-7.8h-3.9L55.1-43.5z"/>
			<path id="Fill-17" class="st0" d="M86.6-52.3v0.7h-2v3.1h2v10.2h3.8v-10.2h3v-3.1h-3v-0.7c0-1.2,0.6-1.8,1.8-1.8h1v-3.6h-1
				C88.4-57.6,86.6-56,86.6-52.3"/>
			<polygon id="Fill-18" class="st0" points="95.5,-54.1 99.4,-54.1 99.4,-57.6 95.5,-57.6 			"/>
			<polygon id="Fill-19" class="st0" points="78.3,-54.1 82.2,-54.1 82.2,-57.6 78.3,-57.6 			"/>
			<path id="Fill-20" class="st0" d="M185.5-38.5v-3.1h-1c-1.3,0-1.8-0.7-1.8-1.8v-5h3.3v-3.1h-3.3v-3.6h-3.7v3.6H177v3.1h1.9v5
				c0,3.1,1.2,4.7,3.9,5.1C184.3-38.1,185.5-38.5,185.5-38.5"/>
			<path id="Fill-21" class="st0" d="M3.4-23.4l-7.6-13.2v-20.5l14.5-6l12,4.3l5.5,9.5l-6.5,18.5L3.4-23.4z M-2.1-37.1L4.4-26
				l15.3-6.5l5.9-16.8L21-57.3L10.3-61l-12.4,5.2C-2.1-55.8-2.1-37.1-2.1-37.1z"/>
		</g>
	</g>
</g>
</svg>
