<?xml version="1.0" encoding="utf-8"?>
<!-- Generator: Adobe Illustrator 25.1.0, SVG Export Plug-In . SVG Version: 6.00 Build 0)  -->
<svg version="1.1" id="Layer_1" xmlns="http://www.w3.org/2000/svg" xmlns:xlink="http://www.w3.org/1999/xlink" x="0px" y="0px"
	 viewBox="0 0 240 100" style="enable-background:new 0 0 240 100;" xml:space="preserve">
<style type="text/css">
	.st0{fill-rule:evenodd;clip-rule:evenodd;fill:#372B85;}
</style>
<desc>Created with Sketch.</desc>
<g id="Exports">
	<g id="Homepage-New" transform="translate(-769.000000, -4468.000000)">
		<g id="Group-22" transform="translate(788.000000, 4561.000000)">
			<path id="Fill-1" class="st0" d="M79.3-52.2c-1.9,0-3.3,0.8-4.1,2v-1.6h-4.1v14h4.1v-8.8c0.5-1.2,1.5-1.9,2.6-1.9
				c1.4,0,2.5,0.8,2.5,2.7v8h4.1v-8.8C84.2-50.5,82.1-52.2,79.3-52.2"/>
			<g id="Clip-4">
			</g>
			<polygon id="Fill-3" class="st0" points="87.9,-37.9 91.8,-37.9 91.8,-51.9 87.9,-51.9 			"/>
			<polygon id="Fill-5" class="st0" points="105.7,-37.9 109.8,-37.9 109.8,-51.9 105.7,-51.9 			"/>
			<path id="Fill-6" class="st0" d="M126.4-45.4c-0.1-4.2-2.8-6.8-6.7-6.8c-3.8,0-7,2.7-7,7.3c0,4.8,3.4,7.4,7.3,7.4
				c3.1,0,5.2-1.2,6.3-3.2l-2.7-1.9c-0.7,1.2-1.9,1.9-3.3,1.9c-1.9,0-3.3-1.2-3.5-3.2h9.8C126.4-44.1,126.4-44.6,126.4-45.4
				L126.4-45.4z M116.8-46.6c0.1-1.8,1.4-2.6,2.8-2.6s2.7,0.8,2.7,2.6H116.8z"/>
			<path id="Fill-7" class="st0" d="M138.1-51.1c-0.9-0.7-2.1-1.2-3.5-1.2c-3.3,0-6.3,2.5-6.3,7.3s3.1,7.3,6.3,7.3
				c1.6,0,2.9-0.7,3.8-1.6v1.3h3.8v-20.2H138L138.1-51.1z M138.1-44.1c0,1.8-1.3,2.8-2.8,2.8c-1.6,0-2.9-1.2-2.9-3.6
				s1.4-3.6,2.9-3.6c1.6,0,2.7,1.1,2.8,2.8V-44.1z"/>
			<path id="Fill-8" class="st0" d="M159.9-45c0-4.8-3.1-7.3-6.3-7.3c-1.6,0-2.9,0.7-3.9,1.6v-1.3h-3.8v19.4h4.1V-39
				c0.9,0.8,2.1,1.3,3.5,1.3C156.8-37.7,159.9-40.1,159.9-45 M152.8-41.3c-1.5,0-2.8-1.1-2.8-2.8v-1.8c0-1.8,1.3-2.8,2.8-2.8
				c1.5,0,2.9,1.2,2.9,3.6C155.8-42.4,154.5-41.3,152.8-41.3"/>
			<path id="Fill-9" class="st0" d="M169-52.2c-3.6,0-7.2,2.6-7.2,7.3c0,4.8,3.4,7.4,7.2,7.4c3.6,0,7.2-2.6,7.2-7.4
				C176.3-49.8,172.9-52.2,169-52.2 M169-41.1c-1.6,0-3.1-1.3-3.1-3.9c0-2.5,1.4-3.8,3.1-3.8c1.6,0,3.1,1.3,3.1,3.8
				C172.2-42.5,170.8-41.1,169-41.1"/>
			<path id="Fill-10" class="st0" d="M190.1-42.1c0-2.9-2.2-4-5.1-4.5c-1.8-0.2-2.8-0.5-2.8-1.4c0-0.8,0.7-1.3,2-1.3
				c1.3,0,2,0.5,2.3,1.6l3.4-0.8c-0.6-2.1-2.3-3.8-5.8-3.8s-5.9,1.8-5.9,4.5s2,3.8,4.8,4.3c1.8,0.2,2.9,0.7,2.9,1.6
				c0,0.9-0.9,1.3-2.1,1.3c-1.4,0-2.3-0.7-2.8-2.1l-3.4,1.1c0.7,2.7,2.8,4.1,6.2,4.1C187.5-37.6,190.1-39.3,190.1-42.1"/>
			<path id="Fill-11" class="st0" d="M158.2-29.8h0.9c-0.1,0.4-0.5,0.6-0.9,0.6c-0.6,0-1.1-0.5-1.1-1.3c0-0.8,0.5-1.3,1.1-1.3
				c0.5,0,0.8,0.4,0.9,0.7l0.8-0.2c-0.2-0.7-0.9-1.2-1.8-1.2c-1.1,0-1.9,0.7-1.9,2c0,1.3,0.9,2,1.9,2c0.9,0,1.9-0.6,1.9-1.9v-0.2
				h-1.8v0.8H158.2z"/>
			<path id="Fill-12" class="st0" d="M168-30.5c0.2-0.2,0.4-0.5,0.4-0.8c0-0.7-0.6-1.2-1.3-1.2h-1.8v4h0.8v-1.6h0.5l0.9,1.6h0.9
				l-1.1-1.8C167.6-30.3,167.7-30.4,168-30.5 M166.9-30.9h-0.7v-0.8h0.7c0.2,0,0.5,0.1,0.5,0.5C167.4-31,167.1-30.9,166.9-30.9"/>
			<path id="Fill-13" class="st0" d="M175.4-32.5c-1.1,0-2,0.7-2,2c0,1.3,0.9,2,2,2c1.1,0,1.9-0.7,1.9-2
				C177.3-31.8,176.4-32.5,175.4-32.5 M175.4-29.2c-0.6,0-1.1-0.5-1.1-1.3c0-0.8,0.5-1.3,1.1-1.3c0.6,0,1.1,0.5,1.1,1.3
				C176.4-29.7,176-29.2,175.4-29.2"/>
			<path id="Fill-14" class="st0" d="M184.9-30c0,0.5-0.2,0.8-0.7,0.8c-0.5,0-0.7-0.4-0.7-0.8v-2.3h-0.8v2.5c0,1.1,0.6,1.6,1.6,1.6
				c0.9,0,1.6-0.5,1.6-1.6v-2.5h-0.8v2.3H184.9z"/>
			<path id="Fill-15" class="st0" d="M192.8-32.4h-1.6v4h0.8V-30h0.7c0.7,0,1.3-0.5,1.3-1.2S193.5-32.4,192.8-32.4 M192.6-30.9h-0.7
				v-0.9h0.7c0.2,0,0.5,0.1,0.5,0.5C193.1-31,192.9-30.9,192.6-30.9"/>
			<path id="Fill-16" class="st0" d="M63.3-43.5c0,1.5-0.9,2.5-2.5,2.5s-2.5-1.1-2.5-2.8V-52h-4.1v8.3c0,1.9,0.5,3.3,1.5,4.3
				c1.2,1.1,2.9,1.6,4.9,1.6c1.9,0,3.6-0.6,4.8-1.5c1.2-1.1,1.6-2.2,1.6-4.5V-52h-4.1L63.3-43.5z"/>
			<path id="Fill-17" class="st0" d="M96.4-52.7v0.7h-2.1v3.3h2.1V-38h4v-10.7h3.1V-52h-3.1v-0.7c0-1.3,0.6-1.9,1.9-1.9h1.1v-3.8
				h-1.1C98.3-58.3,96.4-56.6,96.4-52.7"/>
			<polygon id="Fill-18" class="st0" points="105.7,-54.6 109.8,-54.6 109.8,-58.3 105.7,-58.3 			"/>
			<polygon id="Fill-19" class="st0" points="87.7,-54.6 91.8,-54.6 91.8,-58.3 87.7,-58.3 			"/>
			<path id="Fill-20" class="st0" d="M200.2-38.3v-3.3h-1.1c-1.4,0-1.9-0.7-1.9-1.9v-5.2h3.5v-3.3h-3.5v-3.8h-3.9v3.8h-2v3.3h2v5.2
				c0,3.3,1.3,4.9,4.1,5.4C198.9-37.8,200.2-38.3,200.2-38.3"/>
			<path id="Fill-21" class="st0" d="M9.1-22.4l-8-13.9v-21.5l15.2-6.3l12.6,4.5l5.8,10l-6.8,19.4L9.1-22.4z M3.3-36.8l6.8,11.7
				l16.1-6.8l6.2-17.6L27.5-58l-11.2-3.9l-13,5.5V-36.8z"/>
		</g>
	</g>
</g>
</svg>
