<?xml version="1.0" encoding="UTF-8"?>
<svg width="427px" height="214px" viewBox="0 0 427 214" version="1.1" xmlns="http://www.w3.org/2000/svg" xmlns:xlink="http://www.w3.org/1999/xlink">
    <!-- Generator: Sketch 63.1 (92452) - https://sketch.com -->
    <title>visma_logo</title>
    <desc>Created with Sketch.</desc>
    <g id="Exports" stroke="none" stroke-width="1" fill="none" fill-rule="evenodd">
        <g id="Homepage-New" transform="translate(-1065.000000, -3636.000000)">
            <g id="Group-6" transform="translate(1182.000000, 3723.000000)">
                <path d="M43.0725956,17.2224191 C37.2070074,10.5492574 26.9159779,5.85153676 17.5895074,5.06197794 L33.6725221,29.5866838 L3.90605147,7.76830147 C-1.28372794,11.3722721 -1.44997794,17.9110956 4.29877206,24.4499191 C11.8145074,32.9940368 26.5865662,38.3032279 37.2924485,36.3030809 C48.0024485,34.3075662 50.5888456,25.7649926 43.0725956,17.2224191" id="Fill-1" fill="#D91C52"></path>
                <path d="M170.801853,7.275625 C169.106926,7.275625 167.748103,5.90547794 167.748103,4.23525735 C167.748103,2.56503676 169.106926,1.21599265 170.801853,1.21599265 C172.463838,1.21599265 173.836044,2.56503676 173.836044,4.23525735 C173.836044,5.90547794 172.463838,7.275625 170.801853,7.275625 L170.801853,7.275625 Z M170.801853,0.514448529 C168.711118,0.514448529 167.041412,2.16716912 167.041412,4.23525735 C167.041412,6.30540441 168.711118,7.97716912 170.801853,7.97716912 C172.877147,7.97716912 174.539647,6.30540441 174.539647,4.23525735 C174.539647,2.16716912 172.877147,0.514448529 170.801853,0.514448529 L170.801853,0.514448529 Z M170.767368,3.985625 L170.32575,3.985625 L170.32575,2.77606618 L170.767368,2.77606618 C171.080309,2.77606618 171.284132,2.93665441 171.284132,3.34584559 C171.284132,3.62636029 171.164206,3.985625 170.767368,3.985625 L170.767368,3.985625 Z M171.39325,4.27540441 L171.39325,4.25738971 C172.040235,4.15547794 172.272368,3.74680147 172.272368,3.19503676 C172.272368,2.45540441 171.8395,2.05547794 171.164206,2.05547794 L169.340088,2.05547794 L169.340088,6.38775735 L170.32575,6.38775735 L170.32575,4.59555147 L170.580015,4.59555147 C171.343838,4.59555147 171.266118,5.03768382 171.266118,5.54621324 C171.266118,5.83547794 171.266118,6.12834559 171.39325,6.38775735 L172.365529,6.38775735 C172.272368,6.20658088 172.254353,5.39746324 172.254353,5.11643382 C172.254353,4.33665441 171.60325,4.28827206 171.39325,4.27540441 L171.39325,4.27540441 Z M107.371559,18.0072426 C105.841338,15.3843015 104.105235,12.4082721 105.723985,8.53613971 C106.275235,7.21283088 107.091559,5.92194853 108.154941,5.18025735 L100.752441,5.18025735 C100.752441,5.18025735 100.217662,6.18033088 99.9721471,6.76452206 C97.3934706,12.9502574 99.8254559,17.4631985 102.175088,21.8273897 C104.130971,25.4550368 106.152735,29.203125 104.437735,33.3048162 C103.934868,34.5112868 103.006338,35.5720956 102.161706,36.2365809 L109.619279,36.2365809 C109.619279,36.2365809 110.031044,35.4382721 110.209132,35.0151838 C112.704426,29.0476838 111.379059,24.8600368 108.040676,19.175625 C107.826559,18.7854779 107.592882,18.3927574 107.371559,18.0072426 L107.371559,18.0072426 Z M133.397147,5.18025735 L130.909574,23.5171691 L130.827221,23.5171691 L127.796118,5.18025735 L119.652956,5.18025735 L116.912147,36.2520221 L123.559574,36.2520221 L124.471632,13.8762132 L124.550897,13.8762132 L124.550897,14.4516544 L125.591632,21.3734191 L128.624279,36.2520221 L133.397147,36.2520221 L136.056632,21.5391544 L137.055162,13.8762132 L137.137515,13.8762132 L138.635309,36.2520221 L144.989353,36.2520221 L141.706559,5.18025735 L133.397147,5.18025735 Z M86.6206765,36.2520221 L92.8110441,36.2520221 L92.8110441,5.18025735 L86.6206765,5.18025735 L86.6206765,36.2520221 Z M71.7158235,20.0140809 C71.2175882,21.8273897 71.0889118,23.6015809 70.7595,25.414375 L70.6771471,25.414375 C70.3019265,23.6401838 70.0955294,21.8690809 69.5561176,20.0979779 L65.8167794,5.18025735 L59.1739853,5.18025735 L68.2256029,36.2520221 L73.2949412,36.2520221 L81.9713382,5.18025735 L75.4922206,5.18025735 L71.7158235,20.0140809 Z M157.195088,5.18025735 L148.515603,36.2520221 L154.992662,36.2520221 L158.773691,21.415625 C159.270897,19.6028309 159.396485,17.8317279 159.725897,16.0189338 L159.808765,16.0189338 C160.186044,17.7895221 160.392441,19.5626838 160.933397,21.3337868 L164.668103,36.2520221 L171.315529,36.2520221 L162.259794,5.18025735 L157.195088,5.18025735 Z" id="Fill-3" fill="#323232"></path>
            </g>
        </g>
    </g>
</svg>