<?xml version="1.0" encoding="utf-8"?>
<!-- Generator: Adobe Illustrator 25.1.0, SVG Export Plug-In . SVG Version: 6.00 Build 0)  -->
<svg version="1.1" id="Layer_1" xmlns="http://www.w3.org/2000/svg" xmlns:xlink="http://www.w3.org/1999/xlink" x="0px" y="0px"
	 viewBox="0 0 427 214" style="enable-background:new 0 0 427 214;" xml:space="preserve">
<style type="text/css">
	.st0{fill-rule:evenodd;clip-rule:evenodd;fill:#D91C52;}
	.st1{fill-rule:evenodd;clip-rule:evenodd;fill:#323232;}
</style>
<desc>Created with Sketch.</desc>
<g id="Exports">
	<g id="Homepage-New" transform="translate(-1065.000000, -3636.000000)">
		<g id="Group-6" transform="translate(1182.000000, 3723.000000)">
			<path id="Fill-1" class="st0" d="M26.4,16.7C18.3,7.5,4.1,1-8.7-0.1l22.2,33.8l-41-30.1c-7.1,5-7.4,14,0.5,23
				C-16.7,38.4,3.7,45.7,18.4,43C33.2,40.2,36.7,28.5,26.4,16.7"/>
			<path id="Fill-3" class="st1" d="M202.3,3c-2.3,0-4.2-1.9-4.2-4.2s1.9-4.2,4.2-4.2c2.3,0,4.2,1.9,4.2,4.2S204.6,3,202.3,3
				L202.3,3z M202.3-6.3c-2.9,0-5.2,2.3-5.2,5.1c0,2.9,2.3,5.2,5.2,5.2c2.9,0,5.1-2.3,5.1-5.2C207.5-4,205.2-6.3,202.3-6.3
				L202.3-6.3z M202.3-1.5h-0.6v-1.7h0.6c0.4,0,0.7,0.2,0.7,0.8C203-2,202.8-1.5,202.3-1.5L202.3-1.5z M203.2-1.1L203.2-1.1
				c0.9-0.2,1.2-0.7,1.2-1.5c0-1-0.6-1.6-1.5-1.6h-2.5v6h1.4v-2.5h0.4c1.1,0,0.9,0.6,0.9,1.3c0,0.4,0,0.8,0.2,1.2h1.3
				c-0.1-0.2-0.2-1.4-0.2-1.8C204.3-1.1,203.4-1.1,203.2-1.1L203.2-1.1z M115,17.8c-2.1-3.6-4.5-7.7-2.3-13c0.8-1.8,1.9-3.6,3.3-4.6
				h-10.2c0,0-0.7,1.4-1.1,2.2c-3.6,8.5-0.2,14.7,3,20.8c2.7,5,5.5,10.2,3.1,15.8c-0.7,1.7-2,3.1-3.1,4h10.3c0,0,0.6-1.1,0.8-1.7
				c3.4-8.2,1.6-14-3-21.8C115.6,18.8,115.3,18.3,115,17.8L115,17.8z M150.8,0.1l-3.4,25.3h-0.1l-4.2-25.3h-11.2l-3.8,42.8h9.2
				l1.3-30.8h0.1v0.8l1.4,9.5l4.2,20.5h6.6l3.7-20.3l1.4-10.6h0.1l2.1,30.8h8.8l-4.5-42.8H150.8z M86.4,42.9h8.5V0.1h-8.5V42.9z
				 M65.8,20.5C65.2,23,65,25.5,64.5,28h-0.1c-0.5-2.4-0.8-4.9-1.5-7.3L57.7,0.1h-9.2L61,42.9h7L80,0.1H71L65.8,20.5z M183.6,0.1
				l-12,42.8h8.9l5.2-20.4c0.7-2.5,0.9-4.9,1.3-7.4h0.1c0.5,2.4,0.8,4.9,1.5,7.3l5.1,20.6h9.2L190.6,0.1H183.6z"/>
		</g>
	</g>
</g>
</svg>
