<?xml version="1.0" encoding="utf-8"?>
<!-- Generator: Adobe Illustrator 25.1.0, SVG Export Plug-In . SVG Version: 6.00 Build 0)  -->
<svg version="1.1" id="Layer_1" xmlns="http://www.w3.org/2000/svg" xmlns:xlink="http://www.w3.org/1999/xlink" x="0px" y="0px"
	 viewBox="0 0 427 214" style="enable-background:new 0 0 427 214;" xml:space="preserve">
<style type="text/css">
	.st0{fill-rule:evenodd;clip-rule:evenodd;}
	.st1{fill-rule:evenodd;clip-rule:evenodd;fill:#65A74E;}
	.st2{fill-rule:evenodd;clip-rule:evenodd;fill:#46597C;}
	.st3{fill:#65A74E;}
	.st4{fill:#FFE86B;}
	.st5{fill:#46597C;}
</style>
<g id="Layer_2_1_">
	<g id="Partners">
		<g id="Partners-2">
			<path class="st0" d="M169,115.5c0-1.6-0.3-2.9-0.8-4c-0.5-1.1-1.3-2-2.3-2.6c-1.1-0.7-2.2-1.2-3.5-1.5c-1.4-0.3-2.8-0.5-4.3-0.5
				h-10.2v27.8h6.7v-10.5h3.3c1.4,0,2.8-0.2,4.2-0.5c1.3-0.3,2.5-0.8,3.5-1.5c1-0.7,1.9-1.6,2.4-2.7
				C168.7,118.5,169,117.1,169,115.5z M161.9,117.1c-0.3,0.4-0.6,0.8-1.1,1c-0.5,0.3-1,0.5-1.6,0.5c-0.6,0.1-1.2,0.2-1.8,0.2h-2.8
				v-6.6h2.9c0.6,0,1.2,0,1.7,0.1c0.5,0.1,1,0.2,1.5,0.5c0.4,0.2,0.8,0.6,1.1,1c0.3,0.5,0.4,1,0.4,1.6
				C162.3,116.1,162.2,116.6,161.9,117.1z M179,106.9l-11.7,27.8h7.3l2-5.5h10.8l2.2,5.5h7.4l-11.6-27.8H179z M178.6,123.9l3.5-9.6
				l3.5,9.6H178.6z M219.1,120.1c1-1.3,1.5-2.9,1.5-4.8c0-1.6-0.3-2.9-0.9-4c-0.6-1.1-1.4-1.9-2.4-2.6c-1-0.7-2.2-1.1-3.4-1.4
				c-1.3-0.3-2.6-0.4-3.9-0.4h-10.6v27.8h6.6v-11.1h2.3l6,11h7.9l-7.3-11.9C216.7,122.3,218.1,121.4,219.1,120.1L219.1,120.1z
				 M213.5,117.2c-0.3,0.4-0.7,0.8-1.2,1c-0.5,0.2-1,0.4-1.6,0.5c-0.6,0.1-1.1,0.1-1.7,0.1h-3.2v-6.5h3.6c0.5,0,1,0,1.6,0.1
				c0.5,0.1,1,0.2,1.5,0.5c0.4,0.2,0.8,0.5,1.1,0.9c0.3,0.5,0.4,1,0.4,1.6C214,116.1,213.8,116.7,213.5,117.2L213.5,117.2z
				 M222.3,112.6h7.9v22.1h6.7v-22.1h7.9v-5.7h-22.4V112.6z M266.7,125.1h-0.1l-11.2-18.2h-7.7v27.8h6.5l-0.2-18.2h0.1l11.2,18.2
				h7.6v-27.8h-6.5L266.7,125.1z M285.3,123.2h11.6v-5.4h-11.6v-5.3h12.2v-5.7h-18.7v27.8h19.4V129h-12.9L285.3,123.2z M322.4,120.1
				c1-1.3,1.5-2.9,1.5-4.8c0-1.6-0.3-2.9-0.9-4c-0.6-1.1-1.4-1.9-2.4-2.6c-1-0.7-2.2-1.1-3.4-1.4c-1.3-0.3-2.6-0.4-3.9-0.4h-10.6
				v27.8h6.6v-11.1h2.3l6,11h7.9l-7.3-11.9C320,122.3,321.4,121.4,322.4,120.1L322.4,120.1z M316.9,117.2c-0.3,0.4-0.7,0.8-1.2,1
				c-0.5,0.2-1,0.4-1.6,0.5c-0.6,0.1-1.1,0.1-1.7,0.1h-3.2v-6.5h3.6c0.5,0,1,0,1.6,0.1c0.5,0.1,1,0.2,1.5,0.5
				c0.4,0.2,0.8,0.5,1.1,0.9c0.3,0.5,0.4,1,0.4,1.6C317.3,116.1,317.2,116.7,316.9,117.2L316.9,117.2z M344.6,120.4
				c-0.9-0.6-1.8-1.1-2.8-1.5c-1-0.4-2-0.7-2.9-1c-0.7-0.2-1.2-0.4-1.8-0.6c-0.5-0.2-0.9-0.4-1.4-0.6c-0.3-0.2-0.6-0.5-0.9-0.8
				c-0.2-0.4-0.3-0.8-0.3-1.2c0-0.5,0.1-1,0.4-1.4c0.2-0.3,0.6-0.6,0.9-0.9c0.4-0.2,0.8-0.4,1.2-0.5c0.4-0.1,0.9-0.1,1.4-0.1
				c0.9,0,1.9,0.2,2.7,0.6c0.9,0.4,1.7,1,2.3,1.7l4.3-4.5c-1.2-1.1-2.7-2-4.3-2.6c-1.5-0.6-3.2-0.9-4.8-0.9c-1.3,0-2.6,0.2-3.9,0.5
				c-1.2,0.3-2.4,0.8-3.5,1.6c-1,0.7-1.9,1.6-2.5,2.7c-0.6,1.1-0.9,2.4-0.9,4c0,1.3,0.2,2.3,0.6,3.2c0.4,0.8,0.9,1.6,1.6,2.2
				c0.7,0.6,1.4,1.1,2.3,1.5c0.8,0.4,1.7,0.7,2.6,1c0.9,0.3,1.7,0.6,2.5,0.8c0.6,0.2,1.2,0.5,1.8,0.8c0.4,0.3,0.8,0.6,1.1,1
				c0.3,0.4,0.4,0.9,0.4,1.3c0,0.5-0.1,1-0.3,1.4c-0.2,0.4-0.5,0.7-0.8,0.9c-0.4,0.2-0.8,0.4-1.2,0.5c-0.5,0.1-1,0.2-1.5,0.2
				c-1.2,0-2.3-0.3-3.3-0.8c-1-0.5-2-1.2-2.7-2.1l-4.4,4.5c1.3,1.3,2.9,2.3,4.6,3c1.8,0.7,3.8,1,5.8,1c1.3,0,2.7-0.2,4-0.5
				c1.2-0.3,2.4-0.9,3.4-1.7c1-0.8,1.8-1.8,2.4-2.9c0.6-1.2,0.9-2.5,0.9-4.1c0-1.4-0.3-2.6-0.8-3.5
				C346.2,121.8,345.5,121,344.6,120.4L344.6,120.4z"/>
		</g>
	</g>
	<g id="Square">
		<g id="Square-2">
			<path class="st1" d="M262.3,90.9c-0.5-0.4-1-0.7-1.6-0.9c-0.6-0.2-1.1-0.4-1.7-0.6c-0.5-0.1-0.9-0.3-1.3-0.4
				c-0.4-0.1-0.7-0.3-1-0.5c-0.3-0.2-0.5-0.4-0.7-0.7c-0.2-0.3-0.3-0.6-0.2-1c0-0.4,0.1-0.7,0.3-1.1c0.2-0.3,0.4-0.5,0.7-0.7
				c0.3-0.2,0.6-0.3,1-0.4c0.3-0.1,0.7-0.1,1.1-0.1c0.6,0,1.2,0.1,1.8,0.4c0.5,0.2,1,0.6,1.4,1l2-2.2c-0.7-0.6-1.5-1.1-2.3-1.4
				c-0.8-0.3-1.7-0.5-2.6-0.5c-0.8,0-1.5,0.1-2.3,0.3c-0.7,0.2-1.4,0.5-2,0.9c-0.6,0.4-1.1,0.9-1.4,1.6c-0.4,0.7-0.6,1.5-0.5,2.2
				c0,0.7,0.1,1.4,0.4,2c0.2,0.5,0.6,1,1,1.4c0.4,0.4,0.9,0.7,1.4,0.9c0.5,0.2,1,0.4,1.5,0.6l1.5,0.5c0.4,0.1,0.9,0.3,1.2,0.6
				c0.3,0.2,0.6,0.5,0.8,0.8c0.2,0.3,0.3,0.7,0.3,1.1c0,0.4-0.1,0.8-0.3,1.2c-0.2,0.3-0.4,0.6-0.7,0.8c-0.3,0.2-0.6,0.4-1,0.4
				c-1.1,0.3-2.2,0.1-3.1-0.4c-0.7-0.3-1.2-0.8-1.7-1.4l-2.2,2c0.7,0.8,1.6,1.4,2.6,1.8c1,0.4,2.1,0.6,3.2,0.6
				c0.8,0,1.6-0.1,2.4-0.3c0.7-0.2,1.4-0.5,2-1c0.6-0.5,1-1,1.3-1.7c0.3-0.7,0.5-1.6,0.5-2.4c0-0.7-0.1-1.4-0.5-2.1
				C263.2,91.7,262.8,91.2,262.3,90.9z M281.2,96.8c0.4-0.3,0.8-0.6,1.1-1c0.4-0.4,0.7-0.9,1-1.4c0.3-0.6,0.5-1.1,0.7-1.7
				c0.2-0.7,0.3-1.4,0.3-2.1c0-1.2-0.2-2.4-0.7-3.5c-0.4-1-1.1-2-1.9-2.7c-0.8-0.8-1.8-1.4-2.9-1.8c-1.2-0.4-2.4-0.6-3.6-0.6
				c-1.2,0-2.5,0.2-3.6,0.6c-1.1,0.4-2.1,1-2.9,1.8c-0.8,0.8-1.5,1.7-1.9,2.7c-0.5,1.1-0.7,2.3-0.7,3.5c0,1.3,0.2,2.5,0.6,3.7
				c0.4,1,1,2,1.8,2.7c0.8,0.8,1.8,1.3,2.9,1.7c1.2,0.4,2.4,0.6,3.7,0.6h10.3v-2.4L281.2,96.8L281.2,96.8z M280.5,93.1
				c-0.3,0.7-0.7,1.4-1.2,1.9c-0.5,0.5-1.1,1-1.8,1.2c-1.5,0.6-3.1,0.6-4.6,0c-0.7-0.3-1.3-0.7-1.8-1.2c-0.5-0.6-0.9-1.2-1.2-1.9
				c-0.3-0.8-0.4-1.6-0.4-2.5c0-0.8,0.1-1.6,0.4-2.4c0.3-0.7,0.7-1.4,1.2-1.9c0.5-0.5,1.1-1,1.8-1.2c0.7-0.3,1.5-0.5,2.3-0.5
				c0.8,0,1.6,0.1,2.4,0.5c1.4,0.6,2.5,1.7,3,3.1c0.3,0.8,0.4,1.6,0.4,2.4C280.9,91.5,280.8,92.3,280.5,93.1z M298,93
				c0,0.5-0.1,1-0.2,1.5c-0.1,0.5-0.3,0.9-0.6,1.3c-0.3,0.4-0.7,0.7-1.2,0.9c-1.2,0.5-2.5,0.5-3.6,0c-0.5-0.2-0.9-0.5-1.2-0.9
				c-0.3-0.4-0.5-0.8-0.6-1.3c-0.1-0.5-0.2-1-0.2-1.5V82.3h-3v10.8c0,0.9,0.2,1.9,0.5,2.8c0.3,0.8,0.8,1.5,1.4,2.1
				c0.6,0.6,1.4,1,2.2,1.3c1.8,0.6,3.7,0.6,5.4,0c0.8-0.3,1.5-0.7,2.2-1.3c0.6-0.6,1.1-1.3,1.4-2.1c0.4-0.9,0.5-1.8,0.5-2.8V82.3h-3
				L298,93z M309.6,82.3l-7.4,17h3.4l1.5-3.9h7.4l1.6,3.9h3.5l-7.3-17H309.6z M308.2,92.9l2.7-6.9l2.6,6.9H308.2z M332.4,90.2
				c0.7-0.8,1-1.8,1-3c0-0.8-0.2-1.6-0.5-2.3c-0.3-0.6-0.8-1.1-1.4-1.5c-0.6-0.4-1.3-0.7-2-0.8c-0.8-0.2-1.5-0.3-2.3-0.3h-5.9v17h3
				v-7.2h2.2l3.9,7.2h3.6l-4.5-7.5C330.7,91.5,331.7,91,332.4,90.2L332.4,90.2z M328.1,89.6c-0.4,0.1-0.9,0.1-1.3,0.1h-2.5v-4.8h2.7
				c0.4,0,0.8,0,1.2,0.1c0.4,0.1,0.8,0.2,1.1,0.4c0.3,0.2,0.6,0.4,0.8,0.7c0.2,0.3,0.3,0.7,0.3,1.1c0,0.4-0.1,0.9-0.3,1.3
				c-0.2,0.3-0.5,0.6-0.9,0.8C328.9,89.4,328.5,89.5,328.1,89.6L328.1,89.6z M339.4,96.7v-4.8h7.8v-2.5h-7.8V85h8.2v-2.6h-11.3v17
				h11.7v-2.7L339.4,96.7z"/>
		</g>
	</g>
	<g id="Victory">
		<g id="Victory-2">
			<path class="st2" d="M153.1,97.1L153.1,97.1l-5.6-14.8h-1.9l6.5,17h1.8l6.5-17h-1.9L153.1,97.1z M162.8,99.3h1.7v-17h-1.7V99.3z
				 M179.8,97.6c-0.9,0.4-1.8,0.6-2.8,0.6c-1,0-2-0.2-2.9-0.6c-0.8-0.4-1.6-0.9-2.2-1.6c-0.6-0.7-1.1-1.5-1.4-2.4
				c-0.3-0.9-0.5-1.9-0.5-2.8c0-1,0.2-1.9,0.5-2.8c0.3-0.9,0.8-1.7,1.4-2.4c0.6-0.7,1.4-1.2,2.2-1.6c0.9-0.4,1.9-0.6,3-0.6
				c0.5,0,1,0.1,1.5,0.2c0.5,0.1,0.9,0.3,1.3,0.5c0.4,0.2,0.7,0.4,1,0.7c0.3,0.2,0.5,0.5,0.7,0.8l1.4-1.1c-0.3-0.4-0.7-0.8-1.1-1.1
				c-0.4-0.3-0.9-0.6-1.4-0.8c-1.1-0.5-2.3-0.7-3.5-0.7c-1.2,0-2.4,0.2-3.5,0.7c-2.1,0.9-3.8,2.6-4.7,4.7c-0.5,1.1-0.7,2.4-0.7,3.6
				c0,1.2,0.2,2.4,0.7,3.6c0.8,2.1,2.5,3.8,4.6,4.7c1.1,0.5,2.3,0.7,3.6,0.7c0.7,0,1.4-0.1,2.1-0.3c0.6-0.2,1.2-0.4,1.8-0.7
				c0.5-0.3,1-0.6,1.4-1c0.4-0.4,0.7-0.8,1-1.2l-1.3-0.9C181.5,96.6,180.7,97.2,179.8,97.6z M184.3,83.9h5.7v15.5h1.7V83.9h5.7v-1.5
				h-13.1V83.9z M213.5,84.4c-0.8-0.8-1.8-1.4-2.8-1.9c-2.3-0.9-4.8-0.9-7,0c-2.1,0.9-3.8,2.6-4.7,4.7c-0.5,1.1-0.7,2.4-0.7,3.6
				c0,1.2,0.2,2.4,0.7,3.6c0.9,2.1,2.5,3.8,4.7,4.7c2.3,0.9,4.8,0.9,7,0c2.1-0.9,3.8-2.6,4.7-4.7c0.5-1.1,0.7-2.4,0.7-3.6
				c0-1.2-0.2-2.4-0.7-3.6C214.9,86.2,214.3,85.2,213.5,84.4z M213.7,93.7c-0.3,0.9-0.8,1.7-1.4,2.4c-0.6,0.7-1.4,1.2-2.2,1.6
				c-1.9,0.8-4,0.8-5.9,0c-0.8-0.4-1.6-0.9-2.2-1.6c-0.6-0.7-1.1-1.5-1.4-2.4c-0.6-1.8-0.6-3.8,0-5.7c0.3-0.9,0.8-1.7,1.4-2.4
				c0.6-0.7,1.4-1.2,2.2-1.6c1.9-0.8,4-0.8,5.9,0c0.8,0.4,1.6,0.9,2.2,1.6c0.6,0.7,1.1,1.5,1.4,2.4
				C214.3,89.9,214.3,91.9,213.7,93.7z M227.8,90.8c0.5-0.2,1-0.5,1.4-0.9c0.8-0.8,1.3-1.9,1.2-3c0-0.7-0.1-1.5-0.4-2.1
				c-0.3-0.6-0.7-1-1.2-1.4c-0.6-0.4-1.2-0.6-1.8-0.8c-0.8-0.2-1.5-0.2-2.3-0.2h-5v17h1.7v-8h2.9l4.7,8h2.1l-5-8.1
				C226.7,91.2,227.2,91,227.8,90.8L227.8,90.8z M221.3,89.9v-6.1h3.1c0.6,0,1.2,0,1.8,0.2c0.5,0.1,0.9,0.3,1.3,0.5
				c0.4,0.2,0.7,0.6,0.9,0.9c0.2,0.4,0.3,0.9,0.3,1.4c0,1-0.4,1.8-1.1,2.3c-0.8,0.5-1.8,0.8-3.2,0.8H221.3z M244,82.3l-5.2,8.2
				l-5.1-8.2h-2.2L238,92v7.3h1.7V92l6.4-9.7H244z"/>
		</g>
	</g>
	<g id="Center_Block">
		<g id="Center_Block-2">
			<path class="st3" d="M122.8,104.9l-10.8-10.8c0,0-0.9-0.9-1.9-0.9s-2,0.9-2,0.9l-10.8,10.8c0,0-0.8,0.8-0.8,1.9s0.8,1.9,0.8,1.9
				l10.8,10.8c0,0,0.9,0.9,2,0.9s1.9-0.9,1.9-0.9l10.8-10.8c0,0,0.9-0.9,0.9-1.9C123.7,105.8,122.8,104.9,122.8,104.9z"/>
		</g>
	</g>
	<g id="Yellow_L">
		<g id="Yellow_L-2">
			<path class="st4" d="M139.7,102.3l-24.8-24.8c0,0-2.2-2.2-4.5-2.2c-2.4,0-4.5,2.2-4.5,2.2l-2.5,2.5l24.2,24.1
				c0,0,1.3,1.3,1.3,2.7s-1.3,2.7-1.3,2.7l-14.9,14.9l7,7l20.1-20c0,0,2.2-2.2,2.2-4.5C141.9,104.5,139.7,102.3,139.7,102.3z"/>
		</g>
	</g>
	<g id="Blue_L">
		<g id="Blue_L-2">
			<path class="st5" d="M92.3,109.6c0,0-1.3-1.3-1.3-2.7s1.3-2.7,1.3-2.7l14.9-14.9l-7-7l-20.1,20c0,0-2.2,2.2-2.2,4.5
				c0,2.4,2.2,4.5,2.2,4.5l24.8,24.8c0,0,2.2,2.2,4.5,2.2c2.4,0,4.5-2.2,4.5-2.2l2.5-2.5L92.3,109.6z"/>
		</g>
	</g>
</g>
</svg>
