<?xml version="1.0" encoding="utf-8"?>
<!-- Generator: Adobe Illustrator 25.1.0, SVG Export Plug-In . SVG Version: 6.00 Build 0)  -->
<svg version="1.1" id="Layer_1" xmlns="http://www.w3.org/2000/svg" xmlns:xlink="http://www.w3.org/1999/xlink" x="0px" y="0px"
	 viewBox="0 0 200 100" style="enable-background:new 0 0 200 100;" xml:space="preserve">
<style type="text/css">
	.st0{fill:#ABEF96;}
	.st1{fill:#2AAEA3;}
</style>
<desc>Created with Sketch.</desc>
<path class="st0" d="M65.4,41.1c-2.3,0.1-4.2,0.9-5.8,2.5V36c0-0.2-0.2-0.4-0.4-0.4h-2c-0.2,0-0.4,0.2-0.4,0.4v14.2v0.1
	c-0.1,2.5,0.8,4.8,2.7,6.6c1.8,1.8,3.9,2.7,6.2,2.7c0.1,0,0.2,0,0.3,0c2.4-0.1,4.5-1,6.2-2.8c1.7-1.8,2.5-3.9,2.5-6.4
	c0-2.5-0.9-4.8-2.8-6.6C70.2,41.9,68,41.1,65.4,41.1z M71.8,50.2c0,1.7-0.5,3.2-1.7,4.5c-1.1,1.3-2.5,1.9-4.2,2
	c-1.7,0.1-3.2-0.5-4.5-1.8c-1.3-1.3-1.8-2.9-1.8-4.7c0-1.7,0.6-3.1,1.8-4.3c1.1-1.2,2.5-1.8,4.1-1.8c1.7,0,3.1,0.6,4.3,1.8
	C71.1,47.1,71.7,48.5,71.8,50.2z"/>
<path class="st0" d="M91.5,44c-1.7-1.8-3.8-2.8-6.3-2.8c-2.5-0.1-4.8,0.8-6.5,2.6c-1.8,1.8-2.7,4-2.7,6.6c0,2.4,0.9,4.6,2.5,6.4
	c1.7,1.8,3.7,2.7,6.2,2.8c0.1,0,0.2,0,0.3,0c2.3,0,4.4-0.8,6.1-2.5v1.7c0,0.2,0.2,0.4,0.4,0.4h2c0.2,0,0.4-0.2,0.4-0.4v-8.4
	C94,47.9,93.2,45.8,91.5,44z M91,50.2c0,1.8-0.6,3.3-1.8,4.7c-1.2,1.3-2.7,1.9-4.5,1.8c-1.6-0.1-3-0.8-4.2-2
	c-1.1-1.2-1.7-2.7-1.7-4.5c0-1.6,0.6-3,1.6-4.2c1.2-1.3,2.8-2,4.5-2c0,0,0,0,0,0c1.6,0,3,0.6,4.1,1.8C90.4,47.1,91,48.5,91,50.2z"/>
<path class="st0" d="M113.9,41.2c-2.4-0.2-4.4,0.8-5.9,2.9c-1.5-2.1-3.5-3.1-5.9-2.9c-1.9,0.2-3.5,0.9-4.7,2.2
	c-1.3,1.3-1.9,3.1-1.9,5.4v10.1c0,0.2,0.2,0.4,0.4,0.4h2.2c0.2,0,0.4-0.2,0.4-0.4V48.5c0-1.3,0.3-2.3,1-3.1c0.7-0.9,1.5-1.3,2.6-1.3
	c1.1,0,2.1,0.4,3,1.1c0.8,0.7,1.2,1.6,1.2,2.8v10.8c0,0.2,0.2,0.4,0.4,0.4h2.2c0.2,0,0.4-0.2,0.4-0.4V48c0-1.1,0.4-2,1.2-2.8
	c0.9-0.8,1.8-1.1,3-1.1c1.1,0,2,0.4,2.7,1.3c0.7,0.9,1,1.9,1,3.1v10.3c0,0.2,0.2,0.4,0.4,0.4h2.2c0.2,0,0.4-0.2,0.4-0.4V48.7
	c0-2.2-0.6-4-1.9-5.4C117.4,42.1,115.8,41.4,113.9,41.2z"/>
<path class="st0" d="M130.9,41.1c-2.3,0.1-4.2,0.9-5.8,2.5V36c0-0.2-0.2-0.4-0.4-0.4h-2c-0.2,0-0.4,0.2-0.4,0.4v14.3
	c-0.1,2.5,0.8,4.8,2.7,6.6c1.8,1.8,3.9,2.7,6.2,2.7c0.1,0,0.2,0,0.3,0c2.4-0.1,4.5-1,6.2-2.8c1.7-1.8,2.5-3.9,2.5-6.4
	c0-2.5-0.9-4.8-2.8-6.6C135.7,41.9,133.5,41.1,130.9,41.1z M137.2,50.2c0,1.7-0.5,3.2-1.7,4.5c-1.1,1.3-2.5,1.9-4.2,2
	c-1.7,0.1-3.2-0.5-4.5-1.8c-1.3-1.3-1.8-2.9-1.8-4.7c0-1.7,0.6-3.1,1.8-4.3c1.1-1.2,2.5-1.8,4.1-1.8c1.7,0,3.1,0.6,4.3,1.8
	C136.6,47.1,137.2,48.5,137.2,50.2z"/>
<path class="st0" d="M150.7,41.1c-2.5-0.1-4.7,0.8-6.5,2.7c-1.8,1.8-2.7,4-2.7,6.6c0,2.5,0.8,4.6,2.5,6.4c1.7,1.8,3.8,2.7,6.2,2.8
	c0.1,0,0.2,0,0.4,0c2.4,0,4.4-0.9,6.2-2.6c1.8-1.8,2.8-4.1,2.8-6.6c0-2.4-0.9-4.6-2.5-6.4C155.3,42.2,153.2,41.2,150.7,41.1z
	 M156.5,50.2c0,1.8-0.6,3.3-1.8,4.6c-1.2,1.3-2.7,1.9-4.5,1.8h0c-1.6-0.1-3-0.7-4.2-2c-1.1-1.2-1.7-2.7-1.7-4.5
	c0-1.7,0.6-3.2,1.8-4.4c1.2-1.2,2.6-1.8,4.2-1.8c0,0,0.1,0,0.1,0c1.6,0,3,0.6,4.1,1.8C155.9,47.1,156.5,48.5,156.5,50.2z"/>
<path class="st0" d="M170.3,41.1c-2.5-0.1-4.7,0.8-6.5,2.7c-1.8,1.8-2.7,4-2.7,6.6c0,2.5,0.8,4.6,2.5,6.4c1.7,1.8,3.8,2.7,6.2,2.8
	c0.1,0,0.2,0,0.4,0c2.4,0,4.4-0.9,6.2-2.6c1.8-1.8,2.8-4.1,2.8-6.6c0-2.4-0.9-4.6-2.5-6.4C174.8,42.2,172.8,41.2,170.3,41.1z
	 M176.1,50.2c0,1.8-0.6,3.3-1.8,4.6c-1.2,1.3-2.7,1.9-4.5,1.8h0c-1.6-0.1-3-0.7-4.2-2c-1.1-1.2-1.7-2.7-1.7-4.5
	c0-1.7,0.6-3.2,1.8-4.4c1.2-1.2,2.6-1.8,4.2-1.8c0,0,0.1,0,0.1,0c1.6,0,3,0.6,4.1,1.8C175.5,47.1,176.1,48.5,176.1,50.2z"/>
<path class="st0" d="M192,53.8c-0.2-2.4-1.4-4-3.8-4.8l-2-0.7c-1.4-0.5-2-1.2-1.9-2.2c0-1.1,0.9-2,2-2c1,0,2.1,0.6,2.1,1.6v0.7h3.1
	l-0.1-0.9c-0.1-1.3-0.7-2.4-1.8-3.2c-1.1-0.9-2.2-1.3-3.4-1.2c-1.4,0.1-2.6,0.6-3.6,1.6c-1,1-1.5,2.2-1.4,3.6
	c0.1,2.3,1.3,3.9,3.5,4.6l2,0.6c1.5,0.5,2.2,1.4,2.2,2.6c0,0.8-0.2,1.4-0.7,1.8c-0.5,0.5-1.1,0.7-2,0.8c-0.6,0-1.2-0.2-1.7-0.8
	c-0.6-0.6-0.8-1.1-0.8-1.5v-0.5c0-0.2-0.2-0.4-0.4-0.4h-2.2c-0.1,0-0.2,0-0.3,0.1c-0.1,0.1-0.1,0.2-0.1,0.3c0,1.5,0.5,2.8,1.5,3.9
	c1.1,1.1,2.3,1.7,3.8,1.8c0.1,0,0.2,0,0.4,0c1.5,0,2.8-0.5,4-1.6C191.5,56.8,192.1,55.4,192,53.8z"/>
<path class="st1" d="M34.3,41.6h-2.2c-0.2,0-0.3,0.1-0.4,0.3l-4.9,13l-3.5-11c-0.1-0.2-0.2-0.3-0.4-0.3h-1.8c-0.2,0-0.4,0.1-0.4,0.3
	l-3.5,11l-4.8-13.1c-0.1-0.2-0.2-0.3-0.4-0.3H9.8c-0.1,0-0.3,0.1-0.4,0.2c-0.1,0.1-0.1,0.3,0,0.4l6.3,16.8c0.1,0.2,0.2,0.3,0.4,0.3
	h2.4c0.2,0,0.4-0.1,0.4-0.3L22,48.8l3.3,10.1c0.1,0.2,0.2,0.3,0.4,0.3h2.5c0.2,0,0.3-0.1,0.4-0.3l6.2-16.8c0-0.1,0-0.3-0.1-0.4
	C34.6,41.6,34.5,41.6,34.3,41.6z"/>
<path class="st1" d="M45.5,41.1c-2.6-0.2-4.8,0.7-6.7,2.7c-1.9,1.9-2.8,4.2-2.7,6.8c0,2.5,1,4.6,2.8,6.5c1.8,1.7,3.9,2.6,6.2,2.6
	c0,0,0.1,0,0.1,0c1.9,0,3.6-0.6,5.1-1.7c1.5-1.1,2.6-2.6,3.2-4.4c0-0.1,0-0.3-0.1-0.4S53.3,53,53.1,53h-2.2c-0.2,0-0.3,0.1-0.4,0.2
	c-1.1,2.3-2.8,3.4-5.3,3.5c-1.6,0-3-0.5-4.2-1.6c-1.1-0.9-1.7-2.2-2-3.6h14.5c0.2,0,0.4-0.2,0.4-0.4v-1.1c0-2.2-0.8-4.2-2.5-6
	C49.9,42.2,47.8,41.2,45.5,41.1z M39.1,48.7c0.3-1.4,1-2.4,2-3.3c1.1-0.9,2.5-1.4,4-1.4c1.5,0,2.8,0.5,3.9,1.4c1,0.8,1.6,1.9,2,3.2
	H39.1z"/>
<path class="st1" d="M70.4,43.8c-1.8-1.8-4-2.7-6.5-2.6c-2.3,0.1-4.2,0.9-5.8,2.5V36c0-0.2-0.2-0.4-0.4-0.4h-2
	c-0.2,0-0.4,0.2-0.4,0.4v14.2v0.1c-0.1,2.5,0.8,4.8,2.7,6.6c1.8,1.8,3.8,2.7,6.2,2.7c0.1,0,0.2,0,0.3,0c2.4-0.1,4.5-1,6.1-2.8
	c1.7-1.8,2.5-3.9,2.5-6.4C73.1,47.9,72.2,45.6,70.4,43.8z M70.2,50.2c0,1.7-0.5,3.2-1.7,4.5c-1.1,1.3-2.5,1.9-4.1,2
	c-1.7,0.1-3.1-0.5-4.4-1.8c-1.3-1.3-1.8-2.9-1.8-4.7c0-1.7,0.6-3.1,1.8-4.3c1.1-1.2,2.5-1.8,4.1-1.8c1.7,0,3.1,0.6,4.3,1.8
	C69.5,47.1,70.1,48.5,70.2,50.2z"/>
<path class="st0" d="M76,35.3c-1.9,0-3.8,0.1-5.6,0.4c-1.8,0.3-3.5,0.8-5.2,1.5c2.2-1.9,4-4.3,5.3-7c1.3-2.7,2-5.7,2.1-8.7v0l0,0
	c-1.5,0.9-2.9,2.1-4.1,3.3c-1.2,1.3-2.3,2.7-3.2,4.2c-1.8,3.1-2.7,6.6-2.9,10.1v0h0c0.7,0.1,1.4,0.1,2.1,0.1c2.1,0,4.1-0.3,6.1-1
	c1-0.3,1.9-0.7,2.8-1.2C74.3,36.5,75.2,35.9,76,35.3l0.1,0L76,35.3z"/>
</svg>
