<?xml version="1.0" encoding="utf-8"?>
<!-- Generator: Adobe Illustrator 25.1.0, SVG Export Plug-In . SVG Version: 6.00 Build 0)  -->
<svg version="1.1" id="Layer_1" xmlns="http://www.w3.org/2000/svg" xmlns:xlink="http://www.w3.org/1999/xlink" x="0px" y="0px"
	 viewBox="0 0 150 100" style="enable-background:new 0 0 150 100;" xml:space="preserve">
<style type="text/css">
	.st0{fill:#00B0C1;}
	.st1{fill:#FFFFFF;}
	.st2{fill:#0E0E0E;}
</style>
<desc>Created with Sketch.</desc>
<g>
	<path class="st0" d="M33.8,69l23-9.8c8.2-4,8.2-15.1,0-19l-23.1-9.6c-5-2.4-10.8,1-10.8,6.3v25.8C23,68,28.8,71.4,33.8,69"/>
	<path class="st1" d="M58.3,50.8h-8.9c0.2,2.3,1.4,3.3,3.3,3.3c1.1,0,1.9-0.3,2.5-1.1c0.2-0.3,0.6-0.7,1.1-0.7h1.5
		c0.8,0,1.3,0.5,1,1c-0.8,2.3-3.1,3.5-6.1,3.5c-4.2,0-6.9-2.7-6.9-7.2c0-4.2,2.7-6.9,6.9-6.9c4,0,6.7,2.7,6.7,6.9
		C59.4,50.4,59.1,50.8,58.3,50.8 M55.8,48.1c-0.2-1.7-1.4-2.6-3.1-2.6s-2.8,0.9-3.2,2.6H55.8z"/>
	<path class="st1" d="M45.1,43.1h-1.7c-0.6,0-1,0.2-1.3,0.8l-2.7,6.5l0,0L38,47.1l-1.4-3.2c-0.1-0.3-0.3-0.6-0.6-0.7
		c-0.2-0.1-0.3-0.1-0.6-0.1h-1.8c-0.8,0-1.1,0.6-0.8,1.3l1.3,2.8l-1.4,3.2l0,0l-2.6-6.5c-0.2-0.6-0.7-0.8-1.3-0.8h-1.8
		c-0.8,0-1.1,0.6-0.8,1.3l5.1,11.4c0.2,0.6,0.7,0.8,1.3,0.8h0.2c0.6,0,1-0.2,1.3-0.8l1.9-4.3l1.9,4.3c0.2,0.6,0.7,0.8,1.3,0.8h0.2
		c0.6,0,1-0.2,1.3-0.8L46,44.3C46.2,43.6,45.9,43.1,45.1,43.1"/>
	<path class="st2" d="M95.4,37.5c0.7,0,1,0.3,1,1v16.8c0,0.7-0.3,1-1,1h-0.8c-0.6,0-0.9-0.2-1.1-0.8c-1.1,0.7-2.5,1.1-4,1.1
		c-0.1,0-0.2,0-0.5,0l0,0l0,0l0,0l0,0c-3.8-0.1-6.1-2.5-6.5-6.3c0-0.2,0-0.6,0-0.9c0-0.1,0-0.2,0-0.3c0.1-4,3-6.6,6.9-6.6
		c0.1,0,0.3,0,0.5,0c1,0,2,0.2,2.8,0.7v-0.5v-4.2c0-0.7,0.3-1,1-1h1.6V37.5z M86.2,49.8c0,2.6,1.3,4.1,3.4,4.1
		c1.5,0,2.5-0.7,3.1-1.9l0,0c0.2-0.6,0.3-1.4,0.3-2.2c0-2.4-1.3-4-3.4-4c-0.6,0-1.1,0.1-1.5,0.3C86.8,46.6,86.2,47.9,86.2,49.8
		 M112.6,49.8c0,4.3,2.8,7.2,7.2,7.2s7.3-2.8,7.3-7.2c0-4.2-2.8-6.9-7.2-6.9C115.5,42.7,112.6,45.6,112.6,49.8 M123.4,49.8
		c0,2.7-1.3,4.1-3.6,4.1c-2.3,0-3.5-1.5-3.5-4.1c0-2.6,1.4-4,3.6-4C122.1,45.8,123.4,47.3,123.4,49.8 M110.6,50.8c0.7,0,1-0.3,1-1
		c0-4.2-2.6-6.9-6.7-6.9c-4.2,0-6.9,2.7-6.9,6.9c0,4.3,2.7,7.2,6.9,7.2c3.1,0,5.2-1.3,6.1-3.5c0.2-0.7-0.2-1-1-1h-1.5
		c-0.6,0-0.9,0.3-1.1,0.7c-0.6,0.8-1.4,1.1-2.5,1.1c-1.9,0-3.1-1.1-3.3-3.3h9V50.8z M101.9,48.2c0.3-1.7,1.5-2.6,3.2-2.6
		s2.8,0.9,3.1,2.6H101.9z M77.3,38.9c0,1.3,0.9,2.3,2.2,2.3s2.3-0.9,2.3-2.3c0-1.3-0.9-2.2-2.2-2.2C78.2,36.7,77.3,37.6,77.3,38.9
		 M77.6,55.5c0,0.7,0.3,1,1,1h1.5c0.7,0,1-0.3,1-1V44.2c0-0.7-0.3-1-1-1h-1.5c-0.7,0-1,0.3-1,1V55.5z M68.5,55.7l-5.1-11.4
		c-0.3-0.8,0-1.3,0.8-1.3H66c0.6,0,1,0.2,1.3,0.8l2.6,6.5l0,0l2.7-6.5c0.2-0.6,0.7-0.8,1.3-0.8h1.7c0.8,0,1.1,0.6,0.8,1.3l-5.2,11.4
		c-0.2,0.6-0.7,0.8-1.3,0.8h-0.2C69.1,56.5,68.7,56.3,68.5,55.7"/>
</g>
</svg>
