<?xml version="1.0" encoding="utf-8"?>
<!-- Generator: Adobe Illustrator 25.1.0, SVG Export Plug-In . SVG Version: 6.00 Build 0)  -->
<svg version="1.1" id="Layer_1" xmlns="http://www.w3.org/2000/svg" xmlns:xlink="http://www.w3.org/1999/xlink" x="0px" y="0px"
	 viewBox="0 0 214 214" style="enable-background:new 0 0 214 214;" xml:space="preserve">
<style type="text/css">
	.st0{fill:#00B0C1;}
	.st1{fill:#FFFFFF;}
	.st2{fill:#0E0E0E;}
</style>
<desc>Created with Sketch.</desc>
<g>
	<path class="st0" d="M70.8,123.7l20.2-8.6c7.2-3.5,7.2-13.3,0-16.7L70.7,90c-4.4-2.1-9.5,0.9-9.5,5.5v22.7
		C61.3,122.8,66.4,125.8,70.8,123.7"/>
	<path class="st1" d="M92.3,107.7h-7.8c0.2,2,1.2,2.9,2.9,2.9c1,0,1.7-0.3,2.2-1c0.2-0.3,0.5-0.6,1-0.6h1.3c0.7,0,1.1,0.4,0.9,0.9
		c-0.7,2-2.7,3.1-5.4,3.1c-3.7,0-6.1-2.4-6.1-6.3c0-3.7,2.4-6.1,6.1-6.1c3.5,0,5.9,2.4,5.9,6.1C93.3,107.3,93,107.7,92.3,107.7
		 M90.1,105.3c-0.2-1.5-1.2-2.3-2.7-2.3c-1.5,0-2.5,0.8-2.8,2.3H90.1z"/>
	<path class="st1" d="M80.7,100.9h-1.5c-0.5,0-0.9,0.2-1.1,0.7l-2.4,5.7h0l-1.2-2.9l-1.2-2.8c-0.1-0.3-0.3-0.5-0.5-0.6
		c-0.2-0.1-0.3-0.1-0.5-0.1h-1.6c-0.7,0-1,0.5-0.7,1.1l1.1,2.5l-1.2,2.8h0l-2.3-5.7c-0.2-0.5-0.6-0.7-1.1-0.7h-1.6
		c-0.7,0-1,0.5-0.7,1.1l4.5,10c0.2,0.5,0.6,0.7,1.1,0.7h0.2c0.5,0,0.9-0.2,1.1-0.7l1.7-3.8l1.7,3.8c0.2,0.5,0.6,0.7,1.1,0.7h0.2
		c0.5,0,0.9-0.2,1.1-0.7l4.6-10C81.7,101.4,81.4,100.9,80.7,100.9"/>
	<path class="st2" d="M124.9,96c0.6,0,0.9,0.3,0.9,0.9v14.8c0,0.6-0.3,0.9-0.9,0.9h-0.7c-0.5,0-0.8-0.2-1-0.7c-1,0.6-2.2,1-3.5,1
		c-0.1,0-0.2,0-0.4,0h0c0,0,0,0,0,0h0c0,0,0,0,0,0c-3.3-0.1-5.4-2.2-5.7-5.5c0-0.2,0-0.5,0-0.8c0-0.1,0-0.2,0-0.3
		c0.1-3.5,2.6-5.8,6.1-5.8c0.1,0,0.3,0,0.4,0c0.9,0,1.8,0.2,2.5,0.6l0-0.4V97c0-0.6,0.3-0.9,0.9-0.9H124.9z M116.8,106.8
		c0,2.3,1.1,3.6,3,3.6c1.3,0,2.2-0.6,2.7-1.7c0,0,0,0,0,0c0.2-0.5,0.3-1.2,0.3-1.9c0-2.1-1.1-3.5-3-3.5c-0.5,0-1,0.1-1.3,0.3
		C117.4,104,116.8,105.1,116.8,106.8 M140,106.8c0,3.8,2.5,6.3,6.3,6.3c3.8,0,6.4-2.5,6.4-6.3c0-3.7-2.5-6.1-6.3-6.1
		C142.6,100.6,140,103.1,140,106.8 M149.5,106.8c0,2.4-1.1,3.6-3.2,3.6c-2,0-3.1-1.3-3.1-3.6c0-2.3,1.2-3.5,3.2-3.5
		C148.4,103.3,149.5,104.6,149.5,106.8 M138.3,107.7c0.6,0,0.9-0.3,0.9-0.9c0-3.7-2.3-6.1-5.9-6.1c-3.7,0-6.1,2.4-6.1,6.1
		c0,3.8,2.4,6.3,6.1,6.3c2.7,0,4.6-1.1,5.4-3.1c0.2-0.6-0.2-0.9-0.9-0.9h-1.3c-0.5,0-0.8,0.3-1,0.6c-0.5,0.7-1.2,1-2.2,1
		c-1.7,0-2.7-1-2.9-2.9H138.3z M130.6,105.4c0.3-1.5,1.3-2.3,2.8-2.3c1.5,0,2.5,0.8,2.7,2.3H130.6z M109,97.2c0,1.1,0.8,2,1.9,2
		c1.1,0,2-0.8,2-2c0-1.1-0.8-1.9-1.9-1.9C109.8,95.3,109,96.1,109,97.2 M109.3,111.8c0,0.6,0.3,0.9,0.9,0.9h1.3
		c0.6,0,0.9-0.3,0.9-0.9v-9.9c0-0.6-0.3-0.9-0.9-0.9h-1.3c-0.6,0-0.9,0.3-0.9,0.9V111.8z M101.3,112l-4.5-10c-0.3-0.7,0-1.1,0.7-1.1
		h1.6c0.5,0,0.9,0.2,1.1,0.7l2.3,5.7h0l2.4-5.7c0.2-0.5,0.6-0.7,1.1-0.7h1.5c0.7,0,1,0.5,0.7,1.1l-4.6,10c-0.2,0.5-0.6,0.7-1.1,0.7
		h-0.2C101.8,112.7,101.5,112.5,101.3,112"/>
</g>
</svg>
