<?xml version="1.0" encoding="UTF-8"?>
<svg width="427px" height="214px" viewBox="0 0 427 214" version="1.1" xmlns="http://www.w3.org/2000/svg" xmlns:xlink="http://www.w3.org/1999/xlink">
    <!-- Generator: Sketch 63.1 (92452) - https://sketch.com -->
    <title>123-form-builder_logo</title>
    <desc>Created with Sketch.</desc>
    <defs>
        <polygon id="path-1" points="-0.000326666667 0 12.5995333 0 12.5995333 16.3333333 -0.000326666667 16.3333333"></polygon>
        <polygon id="path-3" points="0 42 223.999533 42 223.999533 0 0 0"></polygon>
    </defs>
    <g id="Exports" stroke="none" stroke-width="1" fill="none" fill-rule="evenodd">
        <g id="Homepage-New" transform="translate(-1667.000000, -3578.000000)">
            <g id="Group-33" transform="translate(1769.000000, 3664.000000)">
                <g id="Group-3" transform="translate(211.400000, 25.666667)">
                    <mask id="mask-2" fill="white">
                        <use xlink:href="#path-1"></use>
                    </mask>
                    <g id="Clip-2"></g>
                    <path d="M3.26634,7.7 L5.97300667,7.7 C6.81020667,7.7 7.52047333,7.2898 7.97967333,6.86 C8.43887333,6.42973333 8.63300667,5.8884 8.63300667,5.13333333 C8.63300667,4.36333333 8.41274,3.84766667 7.97967333,3.40666667 C7.54660667,2.9652 6.86947333,2.56666667 5.97300667,2.56666667 L3.26634,2.56666667 L3.26634,7.7 Z M5.98840667,10.2666667 L3.33307333,10.2666667 L3.33307333,16.3333333 L-0.000326666667,16.3333333 L-0.000326666667,0 L6.01080667,0 C7.92227333,0 9.22894,0.3066 10.26634,1.16666667 C11.30374,2.02673333 11.8996733,3.32966667 11.8996733,4.9 C11.8996733,6.0144 11.6770733,6.95566667 11.1996733,7.7 C10.7222733,8.44433333 10.0698733,9.07853333 9.09967333,9.52 L12.5996733,16.1760667 L12.5996733,16.3333333 L9.88740667,16.3333333 C9.35680667,16.3333333 8.87240667,16.0337333 8.63487333,15.5596 L5.98840667,10.2666667 Z" id="Fill-1" fill="#565656" mask="url(#mask-2)"></path>
                </g>
                <polygon id="Fill-4" fill="#565656" points="206.733007 35 200.199673 35 200.199673 39.2 207.899673 39.2 207.899673 42 196.933007 42 196.933007 25.6666667 207.899673 25.6666667 207.899673 28.4666667 200.199673 28.4666667 200.199673 32.2 206.733007 32.2"></polygon>
                <path d="M184.56634,28.4566333 L184.56634,39.3094333 L186.199673,39.1997667 C187.510073,39.1997667 188.54094,38.8889667 189.233007,38.0331 C189.925073,37.1772333 190.294207,35.9447667 190.309607,34.3520333 L190.309607,33.4919667 C190.309607,31.8395 189.918073,30.4857 189.233007,29.6331 C188.54794,28.7809667 187.517073,28.4664333 186.199673,28.4664333 L184.56634,28.4566333 Z M181.06634,41.9997667 L181.06634,25.6664333 L186.433007,25.6664333 C187.855407,25.6664333 188.81114,25.9534333 189.933007,26.5997667 C191.054873,27.2465667 191.869673,28.2074333 192.499673,29.3997667 C193.129673,30.5925667 193.433007,31.9421667 193.433007,33.4602333 L193.433007,34.2064333 C193.433007,35.7245 193.118007,37.0825 192.499673,38.2645667 C191.88134,39.4461667 191.059073,40.4159 189.933007,41.0664333 C188.80694,41.7174333 187.381273,41.9927667 185.96634,41.9997667 L181.06634,41.9997667 Z" id="Fill-6" fill="#565656"></path>
                <polygon id="Fill-8" fill="#565656" points="169.86634 39.2 177.099673 39.2 177.099673 42 166.599673 42 166.599673 25.6666667 169.86634 25.6666667"></polygon>
                <path d="M161.933007,42 L158.66634,42 L158.66634,25.6666667 L160.533007,25.6666667 C161.306273,25.6666667 161.933007,26.2934 161.933007,27.0666667 L161.933007,42 Z" id="Fill-10" fill="#565656"></path>
                <path d="M153.999673,25.6666667 L153.999673,36.4 C153.999673,38.1630667 153.44994,39.5747333 152.36634,40.6 C151.28274,41.6252667 149.80994,42 147.933007,42 C146.08454,42 144.587007,41.5958667 143.499673,40.6 C142.41234,39.6041333 141.888273,38.1406667 141.86634,36.4 L141.86634,25.6666667 L145.133007,25.6666667 L145.133007,36.1666667 C145.133007,38.0874667 146.072873,39.2 147.933007,39.2 C149.79314,39.2 150.733007,38.0772 150.733007,36.1666667 L150.733007,25.6666667 L153.999673,25.6666667 Z" id="Fill-12" fill="#565656"></path>
                <path d="M129.26634,32.4333333 L131.833007,32.4333333 C133.530273,32.4034667 134.39874,31.8906 134.39874,30.5666667 C134.39874,29.8260667 134.129473,29.1652667 133.699673,28.84 C133.269873,28.5147333 132.620273,28.2333333 131.693007,28.2333333 L129.26634,28.2333333 L129.26634,32.4333333 Z M129.26634,34.7666667 L129.26634,39.4333333 L132.299673,39.4333333 C133.092073,39.4333333 133.67494,39.1113333 134.119673,38.7333333 C134.564873,38.3553333 134.773007,37.7659333 134.773007,37.1 C134.773007,35.6043333 134.080473,34.7890667 132.533007,34.7666667 L129.26634,34.7666667 Z M125.999673,42 L125.999673,25.6666667 L131.599673,25.6666667 C133.580673,25.6666667 135.242473,26.0740667 136.26634,26.8333333 C137.290207,27.5926 137.66634,28.6342 137.66634,30.1 C137.66634,30.9003333 137.610807,31.5905333 137.199673,32.2 C136.78854,32.8094667 136.065673,33.3134667 135.333007,33.5976667 C136.170207,33.8072 136.95094,34.2244 137.433007,34.86 C137.915073,35.4956 138.133007,36.2735333 138.133007,37.1933333 C138.133007,38.7636667 137.64114,39.9322 136.639673,40.74 C135.63774,41.5478 134.15374,41.9850667 132.299673,42 L125.999673,42 Z" id="Fill-14" fill="#565656"></path>
                <polygon id="Fill-16" fill="#565656" points="177.89856 0 181.999627 11.9 186.07876 0 190.399627 0 190.399627 16.3333333 187.13296 16.3333333 187.13296 11.9 187.366293 4.2 183.118227 16.3333333 180.859093 16.3333333 176.63296 4.2 176.866293 11.9 176.866293 16.3333333 173.599627 16.3333333 173.599627 0"></polygon>
                <path d="M160.999673,7.7 L163.70634,7.7 C164.54354,7.7 165.253807,7.29026667 165.713007,6.86 C166.172207,6.42973333 166.36634,5.88886667 166.36634,5.13333333 C166.36634,4.36286667 166.146073,3.84813333 165.713007,3.40666667 C165.27994,2.9652 164.602807,2.56666667 163.70634,2.56666667 L160.999673,2.56666667 L160.999673,7.7 Z M163.72174,10.2666667 L161.066407,10.2666667 L161.066407,16.3333333 L157.733007,16.3333333 L157.733007,0 L163.74414,0 C165.655607,0 166.962273,0.3066 167.999673,1.16666667 C169.037073,2.02673333 169.633007,3.32966667 169.633007,4.9 C169.633007,6.0144 169.410407,6.95566667 168.933007,7.7 C168.455607,8.44433333 167.803207,9.079 166.833007,9.52 L170.333007,16.1765333 L170.333007,16.3333333 L167.62074,16.3333333 C167.09014,16.3333333 166.60574,16.0337333 166.368207,15.5596 L163.72174,10.2666667 Z" id="Fill-18" fill="#565656"></path>
                <path d="M150.26634,7.79342667 C150.26634,6.15822667 149.943407,4.90989333 149.29754,4.06009333 C148.651673,3.21029333 147.730007,2.80009333 146.533007,2.80009333 C145.343473,2.80009333 144.426007,3.21962667 143.780607,4.05869333 C143.13474,4.89776 142.807607,6.17222667 142.799673,7.79342667 L142.799673,8.54009333 C142.799673,10.13236 143.122607,11.39516 143.768473,12.2734267 C144.41434,13.1516933 145.343473,13.5334267 146.556807,13.5334267 C147.74634,13.5334267 148.659607,13.1194933 149.29754,12.2734267 C149.935473,11.42736 150.258407,10.1612933 150.26634,8.54009333 L150.26634,7.79342667 Z M153.533007,8.52702667 C153.533007,10.09176 153.24694,11.46376 152.674807,12.6430267 C152.10314,13.8222933 151.284607,14.7322933 150.219207,15.37256 C149.154273,16.0132933 147.933007,16.3334267 146.555873,16.3334267 C145.193207,16.3334267 143.97754,16.01656 142.908407,15.3832933 C141.83974,14.7500267 141.011873,13.8460933 140.424807,12.67056 C139.83774,11.4950267 139.54094,10.1430933 139.533007,8.61429333 L139.533007,7.82842667 C139.533007,6.26322667 139.824673,4.88609333 140.408007,3.69562667 C140.99134,2.50562667 141.81594,1.59236 142.880873,0.95536 C143.945807,0.31836 145.162873,9.33333333e-05 146.533007,9.33333333e-05 C147.90314,9.33333333e-05 149.120207,0.31836 150.18514,0.95536 C151.250073,1.59236 152.074673,2.50562667 152.658007,3.69562667 C153.24134,4.88609333 153.533007,6.25949333 153.533007,7.81722667 L153.533007,8.52702667 Z" id="Fill-20" fill="#565656"></path>
                <path d="M135.56634,9.56666667 L129.26634,9.56666667 L129.26634,16.3333333 L125.999673,16.3333333 L125.999673,1.4 C125.999673,0.626733333 126.626407,0 127.399673,0 L136.499673,0 L136.499673,2.8 L129.26634,2.8 L129.26634,7 L135.56634,7 L135.56634,9.56666667 Z" id="Fill-22" fill="#565656"></path>
                <path d="M111.999673,28 C111.999673,35.7317333 105.731407,42 97.9996733,42 L72.3330067,42 L72.3330067,37.3333333 C72.3330067,34.7564 74.4222733,32.6666667 76.9996733,32.6666667 L97.9996733,32.6666667 C100.577073,32.6666667 102.66634,30.5769333 102.66634,28 C102.66634,25.7152 101.023673,23.8130667 98.8550733,23.4117333 L105.856007,16.4103333 C109.563673,18.9289333 111.999673,23.1798 111.999673,28" id="Fill-24" fill="#0372F2"></path>
                <path d="M103.124093,0 C104.611827,0 106.038893,0.591266667 107.09076,1.64313333 C109.281293,3.83366667 109.281293,7.385 107.09076,9.576 L93.33296,23.3333333 L80.2662933,23.3333333 L94.2662933,9.33333333 L69.9996267,9.33333333 L69.9996267,0 L103.124093,0 Z" id="Fill-26" fill="#068FF6"></path>
                <mask id="mask-4" fill="white">
                    <use xlink:href="#path-3"></use>
                </mask>
                <g id="Clip-29"></g>
                <polygon id="Fill-28" fill="#FF9C00" mask="url(#mask-4)" points="23.3328667 42 65.3328667 42 65.3328667 32.6666667 23.3328667 32.6666667"></polygon>
                <path d="M65.3330067,14 C65.3330067,21.7317333 59.06474,28 51.3330067,28 L23.3330067,28 L23.3330067,23.3333333 C23.3330067,20.7559333 25.4222733,18.6666667 27.9996733,18.6666667 L51.3330067,18.6666667 C53.9104067,18.6666667 55.9996733,16.5774 55.9996733,14 C55.9996733,11.4226 53.9104067,9.33333333 51.3330067,9.33333333 L23.3330067,9.33333333 L23.3330067,0 L51.3330067,0 C59.06474,0 65.3330067,6.26826667 65.3330067,14" id="Fill-30" fill="#FFAD00" mask="url(#mask-4)"></path>
                <polygon id="Fill-31" fill="#01A063" mask="url(#mask-4)" points="6.99967333 19.1333333 16.3330067 14.4666667 16.3330067 42 6.99967333 42"></polygon>
                <path d="M16.3330067,0 L16.3330067,9.33333333 L0.000606666667,17.4995333 L-0.000326666667,11.0511333 C-0.000326666667,9.2834 0.99834,7.66733333 2.57987333,6.8768 L16.3330067,0 Z" id="Fill-32" fill="#02B880" mask="url(#mask-4)"></path>
            </g>
        </g>
    </g>
</svg>