<?xml version="1.0" encoding="UTF-8"?>
<svg width="427px" height="214px" viewBox="0 0 427 214" version="1.1" xmlns="http://www.w3.org/2000/svg" xmlns:xlink="http://www.w3.org/1999/xlink">
    <!-- Generator: Sketch 63.1 (92452) - https://sketch.com -->
    <title>e-spres-oh_logo</title>
    <desc>Created with Sketch.</desc>
    <defs>
        <polygon id="path-1" points="0 36.9135802 230 36.9135802 230 0.080287037 0 0.080287037"></polygon>
    </defs>
    <g id="Exports" stroke="none" stroke-width="1" fill="none" fill-rule="evenodd">
        <g id="Homepage-New" transform="translate(-1667.000000, -3890.000000)">
            <g id="Group-16" transform="translate(1765.500000, 3978.000000)">
                <polygon id="Fill-1" fill="#D62027" points="0 0.230732948 0 36.6547468 11.34981 36.6547468 11.34981 32.487665 6.23139 32.487665 6.23139 4.41627153 11.34981 4.41627153 11.34981 0.230732948"></polygon>
                <g id="Group-15" transform="translate(0.000000, 0.150423)">
                    <path d="M24.31307,12.2650215 C23.20033,12.2650215 22.30701,12.5875539 21.63334,13.232388 C20.95921,13.8774529 20.53601,14.8632762 20.36282,16.1903194 L28.48573,16.1903194 C28.31254,15.0245424 27.83966,14.0788626 27.06709,13.35328 C26.29429,12.6276975 25.37636,12.2650215 24.31307,12.2650215 M34.75415,19.6502754 L20.21447,19.6502754 C20.36282,21.1510431 20.87894,22.3385069 21.76306,23.2126666 C22.64672,24.087057 23.78729,24.5242522 25.18477,24.5242522 C26.73014,24.5242522 28.23825,23.7552962 29.70979,22.2173842 L34.53151,23.7802129 C33.46799,25.3799552 32.15147,26.5796465 30.58126,27.3797484 C29.01105,28.1796195 27.15035,28.5794397 24.99916,28.5794397 C22.84797,28.5794397 20.94702,28.1731596 19.29654,27.3610609 C17.64606,26.5489621 16.36634,25.398412 15.45761,23.9103333 C14.54888,22.4220238 14.0944,20.6734737 14.0944,18.6644521 C14.0944,16.6803471 14.56728,14.8819637 15.51327,13.2695323 C16.45903,11.6575624 17.73875,10.3953487 19.3522,9.48404468 C20.96565,8.57250995 22.71802,8.11662724 24.60977,8.11662724 C26.66183,8.11662724 28.4487,8.59096674 29.96946,9.53964576 C31.49022,10.4885555 32.66138,11.8342862 33.48386,13.5766072 C34.30588,15.3191589 34.72908,17.343638 34.75415,19.6502754" id="Fill-2" fill="#D62027"></path>
                    <mask id="mask-2" fill="white">
                        <use xlink:href="#path-1"></use>
                    </mask>
                    <g id="Clip-5"></g>
                    <polygon id="Fill-4" fill="#D62027" mask="url(#mask-2)" points="37.2577 21.1011867 48.49619 21.1011867 48.49619 15.6506659 37.2577 15.6506659"></polygon>
                    <path d="M63.091415,9.25137377 L63.091415,8.5631662 L67.523745,8.5631662 L67.523745,14.292846 L63.091415,14.292846 C62.708005,12.9162002 61.286145,12.2277619 58.826065,12.2277619 C57.057825,12.2277619 56.173935,12.7240188 56.173935,13.7160713 C56.173935,14.1502673 56.408765,14.472569 56.878655,14.6834378 C57.348545,14.8943066 58.034635,15.0678005 58.937155,15.20415 C61.471525,15.5269131 63.468385,15.9887943 64.927275,16.5902549 C66.386165,17.1917156 67.406215,17.9359856 67.987425,18.822373 C68.568405,19.7094525 68.859125,20.7850219 68.859125,22.0500042 C68.859125,24.1088591 68.157165,25.7118313 66.754165,26.8586901 C65.350705,28.006241 63.443775,28.5795551 61.032915,28.5795551 C58.683695,28.5795551 57.088875,28.1084455 56.248225,27.165765 L56.248225,28.114444 L51.723205,28.114444 L51.723205,21.3802534 L56.248225,21.3802534 C56.371505,22.3104756 56.820005,23.0422873 57.592805,23.5754579 C58.365145,24.1088591 59.320335,24.375329 60.457915,24.375329 C61.570655,24.375329 62.392675,24.2482079 62.924435,23.9939656 C63.455965,23.739954 63.722075,23.2962989 63.722075,22.6639231 C63.722075,22.2299579 63.610755,21.8919679 63.388115,21.650184 C63.165705,21.4081693 62.735835,21.1943012 62.099195,21.0081184 C61.462325,20.8221662 60.488735,20.6115281 59.178425,20.3757426 C56.260415,19.9170914 54.161895,19.1760512 52.882175,18.1528529 C51.602455,17.1296546 50.962825,15.7500096 50.962825,14.013687 C50.962825,12.2404509 51.627295,10.8451176 52.956465,9.82814846 C54.285175,8.81141003 56.037775,8.30269475 58.214035,8.30269475 C59.969395,8.30269475 61.595495,8.61899799 63.091415,9.25137377" id="Fill-6" fill="#D62027" mask="url(#mask-2)"></path>
                    <path d="M83.009231,23.6499079 C84.233291,23.6499079 85.172611,23.1940252 85.828111,22.2824905 C86.483151,21.3711865 86.810901,20.0782883 86.810901,18.4040268 C86.810901,16.8040538 86.477171,15.557759 85.809481,14.6649118 C85.141791,13.7718339 84.183611,13.3254103 82.934941,13.3254103 C81.748141,13.3254103 80.799161,13.7905214 80.088231,14.7205129 C79.377071,15.6507351 79.021951,16.9034897 79.021951,18.4783154 C79.021951,19.9543971 79.389721,21.1850036 80.125261,22.1708269 C80.860801,23.1568809 81.822201,23.6499079 83.009231,23.6499079 M93.190641,18.5528346 C93.190641,20.462651 92.850471,22.1772868 92.170591,23.6962806 C91.490481,25.2157359 90.510911,26.4094288 89.231191,27.2773593 C87.951471,28.1452899 86.477171,28.5794859 84.808061,28.5794859 C82.755541,28.5794859 80.857811,27.7673871 79.114641,26.1427282 L79.114641,32.4118076 L82.971971,32.4118076 L82.971971,36.9136495 L69.619321,36.9136495 L69.619321,32.4118076 L72.920511,32.4118076 L72.920511,13.1394581 L70.138661,13.1394581 L70.138661,8.56309699 L79.114641,8.56309699 L79.114641,11.0000854 C80.832971,9.20193264 82.755541,8.30285625 84.882351,8.30285625 C86.600681,8.30285625 88.087631,8.75227909 89.342511,9.65135548 C90.597161,10.5506626 91.552351,11.7752706 92.207851,13.3254103 C92.862891,14.8757806 93.190641,16.6181016 93.190641,18.5528346" id="Fill-7" fill="#D62027" mask="url(#mask-2)"></path>
                    <path d="M111.921496,8.33990826 L111.921496,14.1997084 C110.215356,14.311372 108.858356,14.5810718 107.850726,15.0090387 C106.842866,15.4367748 106.064086,16.1715857 105.514156,17.2132408 C104.963766,18.2551266 104.688686,19.7432053 104.688686,21.6779383 L104.688686,23.6126714 L108.564646,23.6126714 L108.564646,28.1145132 L94.896666,28.1145132 L94.896666,23.6126714 L98.476156,23.6126714 L98.476156,13.1393658 L95.082276,13.1393658 L95.082276,8.56300471 L104.169346,8.56300471 L104.169346,13.5299576 C104.626816,12.0296513 105.473676,10.7831258 106.710156,9.79084267 C107.946406,8.7987902 109.479586,8.30276397 111.309466,8.30276397 C111.581326,8.30276397 111.785336,8.3152223 111.921496,8.33990826" id="Fill-8" fill="#D62027" mask="url(#mask-2)"></path>
                    <path d="M123.994472,12.2650215 C122.881732,12.2650215 121.988412,12.5875539 121.314742,13.232388 C120.640612,13.8774529 120.217412,14.8632762 120.044452,16.1903194 L128.167362,16.1903194 C127.993942,15.0245424 127.521062,14.0788626 126.748492,13.35328 C125.975692,12.6276975 125.057762,12.2650215 123.994472,12.2650215 M134.435552,19.6502754 L119.896102,19.6502754 C120.044452,21.1510431 120.560342,22.3385069 121.444462,23.2126666 C122.328352,24.087057 123.468922,24.5242522 124.866172,24.5242522 C126.411542,24.5242522 127.919652,23.7552962 129.391192,22.2173842 L134.213142,23.7802129 C133.149622,25.3799552 131.832872,26.5796465 130.262892,27.3797484 C128.692682,28.1796195 126.831982,28.5794397 124.680562,28.5794397 C122.529372,28.5794397 120.628422,28.1731596 118.977942,27.3610609 C117.327462,26.5489621 116.047742,25.398412 115.139242,23.9103333 C114.230282,22.4220238 113.776032,20.6734737 113.776032,18.6644521 C113.776032,16.6803471 114.248912,14.8819637 115.194672,13.2695323 C116.140662,11.6575624 117.420152,10.3953487 119.033602,9.48404468 C120.647052,8.57250995 122.399652,8.11662724 124.291172,8.11662724 C126.343232,8.11662724 128.130102,8.59096674 129.650862,9.53964576 C131.171622,10.4885555 132.342782,11.8342862 133.165262,13.5766072 C133.987282,15.3191589 134.410712,17.343638 134.435552,19.6502754" id="Fill-9" fill="#D62027" mask="url(#mask-2)"></path>
                    <path d="M148.604265,9.25137377 L148.604265,8.5631662 L153.036595,8.5631662 L153.036595,14.292846 L148.604265,14.292846 C148.220855,12.9162002 146.798995,12.2277619 144.338915,12.2277619 C142.570675,12.2277619 141.686785,12.7240188 141.686785,13.7160713 C141.686785,14.1502673 141.921615,14.472569 142.391505,14.6834378 C142.861395,14.8943066 143.547485,15.0678005 144.450005,15.20415 C146.984375,15.5269131 148.981235,15.9887943 150.440125,16.5902549 C151.899015,17.1917156 152.918835,17.9359856 153.500275,18.822373 C154.081255,19.7094525 154.371975,20.7850219 154.371975,22.0500042 C154.371975,24.1088591 153.670015,25.7118313 152.267015,26.8586901 C150.863555,28.006241 148.956625,28.5795551 146.545765,28.5795551 C144.196545,28.5795551 142.601725,28.1084455 141.761075,27.165765 L141.761075,28.114444 L137.235825,28.114444 L137.235825,21.3802534 L141.761075,21.3802534 C141.884355,22.3104756 142.332625,23.0422873 143.105655,23.5754579 C143.877995,24.1088591 144.833185,24.375329 145.970765,24.375329 C147.083505,24.375329 147.905525,24.2482079 148.437285,23.9939656 C148.968815,23.739954 149.234925,23.2962989 149.234925,22.6639231 C149.234925,22.2299579 149.123605,21.8919679 148.900965,21.650184 C148.678555,21.4081693 148.248685,21.1943012 147.612045,21.0081184 C146.975175,20.8221662 146.001585,20.6115281 144.691275,20.3757426 C141.773035,19.9170914 139.674745,19.1760512 138.395025,18.1528529 C137.115305,17.1296546 136.475675,15.7500096 136.475675,14.013687 C136.475675,12.2404509 137.140145,10.8451176 138.469315,9.82814846 C139.798025,8.81141003 141.550625,8.30269475 143.726885,8.30269475 C145.482245,8.30269475 147.108345,8.61899799 148.604265,9.25137377" id="Fill-10" fill="#D62027" mask="url(#mask-2)"></path>
                    <polygon id="Fill-11" fill="#D62027" mask="url(#mask-2)" points="156.76409 21.1011867 168.00258 21.1011867 168.00258 15.6506659 156.76409 15.6506659"></polygon>
                    <path d="M181.114328,23.7242427 C182.325968,23.7242427 183.274948,23.2499032 183.961038,22.3012242 C184.647128,21.3523144 184.990288,19.9915876 184.990288,18.21789 C184.990288,16.5560868 184.647128,15.2571902 183.961038,14.3207388 C183.274948,13.3845181 182.313318,12.9161771 181.077298,12.9161771 C179.828398,12.9161771 178.882408,13.378289 178.239788,14.3020513 C177.596938,15.2260444 177.275398,16.6181478 177.275398,18.4783615 C177.275398,20.0534178 177.624768,21.32163 178.323278,22.2825367 C179.021558,23.243674 179.952138,23.7242427 181.114328,23.7242427 M191.370028,18.3295536 C191.370028,20.276745 190.912558,22.0315243 189.997618,23.5941223 C189.082448,25.1567203 187.846428,26.3783291 186.288638,27.258718 C184.730618,28.1391069 183.018038,28.579532 181.151358,28.579532 C179.173128,28.579532 177.405348,28.1391069 175.847558,27.258718 C174.289538,26.3783291 173.074908,25.1567203 172.203208,23.5941223 C171.331738,22.0315243 170.895888,20.276745 170.895888,18.3295536 C170.895888,16.3948206 171.343928,14.6524996 172.240238,13.1021292 C173.136548,11.5519896 174.370038,10.3336107 175.940018,9.44676196 C177.510228,8.5601439 179.247418,8.11671952 181.151358,8.11671952 C183.092328,8.11671952 184.841938,8.5601439 186.399728,9.44676196 C187.957518,10.3336107 189.175138,11.5519896 190.053278,13.1021292 C190.930958,14.6524996 191.370028,16.3948206 191.370028,18.3295536" id="Fill-12" fill="#D62027" mask="url(#mask-2)"></path>
                    <path d="M207.671347,8.11662724 C209.649347,8.11662724 211.136067,8.7183186 212.131507,9.92100918 C213.126717,11.1241612 213.624437,12.8729421 213.624437,15.1671211 L213.624437,23.6127175 L216.517607,23.6127175 L216.517607,28.1145593 L207.393047,28.1145593 L207.393047,15.4647368 C207.393047,14.6586365 207.241707,14.0818618 206.938797,13.7346434 C206.635657,13.3876558 206.132187,13.2137005 205.427237,13.2137005 C204.463077,13.2137005 203.374947,13.6107522 202.163307,14.4043942 L202.163307,23.6127175 L204.889497,23.6127175 L204.889497,28.1145593 L192.816567,28.1145593 L192.816567,23.6127175 L195.969177,23.6127175 L195.969177,4.56346443 L192.816567,4.56346443 L192.816567,0.080310108 L202.163307,0.080310108 L202.163307,10.1630238 C204.166377,8.79883634 206.002237,8.11662724 207.671347,8.11662724" id="Fill-13" fill="#D62027" mask="url(#mask-2)"></path>
                    <polygon id="Fill-14" fill="#D62027" mask="url(#mask-2)" points="218.650259 36.504324 218.650259 32.3372422 223.768679 32.3372422 223.768679 4.26584869 218.650259 4.26584869 218.650259 0.080310108 230.000069 0.080310108 230.000069 36.504324"></polygon>
                </g>
            </g>
        </g>
    </g>
</svg>