<?xml version="1.0" encoding="UTF-8"?>
<svg width="427px" height="214px" viewBox="0 0 427 214" version="1.1" xmlns="http://www.w3.org/2000/svg" xmlns:xlink="http://www.w3.org/1999/xlink">
    <!-- Generator: Sketch 63.1 (92452) - https://sketch.com -->
    <title>haufe_logo</title>
    <desc>Created with Sketch.</desc>
    <defs>
        <polygon id="path-1" points="0.200912467 0.307034483 12.6709814 0.307034483 12.6709814 19.0981432 0.200912467 19.0981432"></polygon>
    </defs>
    <g id="Exports" stroke="none" stroke-width="1" fill="none" fill-rule="evenodd">
        <g id="Homepage-New" transform="translate(-1065.000000, -3890.000000)">
            <g id="Group-24" transform="translate(1159.000000, 3990.000000)">
                <path d="M74.6555968,17.5790133 C65.0836074,17.5790133 62.1660477,15.0555119 62.1660477,11.7884562 L62.1666844,0.185061008 L68.4404244,0.185061008 L68.4404244,11.1232042 C68.4404244,13.789305 71.2204775,14.5156711 74.9573475,14.5156711 C77.4974005,14.5156711 79.3963926,14.4392785 80.8013793,14.269305 L80.8013793,0.185061008 L87.0763926,0.185061008 L87.0763926,16.8157241 C84.7375066,17.2065995 80.0380902,17.5790133 74.6555968,17.5790133" id="Fill-1" fill="#231F20"></path>
                <polygon id="Fill-3" fill="#231F20" points="18.6356499 17.1674483 18.6356499 10.1571565 6.27533156 10.1571565 6.27533156 17.1674483 0.000318302387 17.1674483 0.000318302387 0.184742706 6.27533156 0.184742706 6.27533156 7.1301008 18.6356499 7.1301008 18.6356499 0.184742706 24.9100265 0.184742706 24.9100265 17.1674483"></polygon>
                <path d="M101.526684,3.58058355 L118.466737,3.58058355 L118.466737,0.184933687 L100.210186,0.184933687 C95.2561273,0.184933687 93.5563926,1.06854111 93.5563926,3.63023873 L93.5563926,17.1676393 L99.829496,17.1676393 L99.8307692,10.0618568 L118.466737,10.0618568 L118.466737,7.04307692 L99.8307692,7.04307692 L99.829496,4.62588859 C99.829496,4.00201592 100.187268,3.58122016 101.526684,3.58058355" id="Fill-5" fill="#231F20"></path>
                <path d="M131.355056,3.58058355 C130.015639,3.58122016 129.657867,4.00201592 129.658504,4.62588859 L129.659777,7.10291777 L148.295109,7.10291777 L148.295109,10.0013793 L129.659777,10.0013793 L129.658504,12.7279576 C129.657231,13.3511936 130.015639,13.7719894 131.355056,13.7719894 L148.295109,13.772626 L148.295109,17.1676393 L130.038557,17.1676393 C125.084499,17.1676393 123.384127,16.2840318 123.384127,13.7236074 L123.384127,3.63023873 C123.384127,1.06854111 125.084499,0.184933687 130.038557,0.184933687 L148.295109,0.184933687 L148.295109,3.58058355 L131.355056,3.58058355 Z" id="Fill-7" fill="#231F20"></path>
                <path d="M154.639639,13.9744934 C154.639639,13.1169867 155.136191,12.8158727 156.585103,12.8158727 L159.080594,12.8158727 C160.528233,12.8158727 161.025422,13.1169867 161.025422,13.9744934 L161.025422,16.0090822 C161.025422,16.8659523 160.528233,17.1677029 159.080594,17.1677029 L156.585103,17.1677029 C155.136191,17.1677029 154.639639,16.8659523 154.639639,16.0090822 L154.639639,13.9744934 Z" id="Fill-9" fill="#0066B2"></path>
                <path d="M43.6621751,14.7634377 C41.6893369,14.7634377 39.7496021,14.6087427 38.4891247,14.3560106 C37.5953316,14.2140477 37.2095491,13.8779204 37.2095491,13.1197241 L37.2095491,11.1437029 C37.2095491,10.3861432 37.5953316,10.0487427 38.4891247,9.90805305 C39.7496021,9.65404775 41.6899735,9.50699204 43.6634483,9.50699204 L49.5405836,9.50699204 L49.5405836,14.5087958 C48.3545889,14.6736764 46.028435,14.7557984 43.6640849,14.7557984 L43.6621751,14.7634377 Z M43.6710875,6.70402122 C39.6693899,6.70402122 36.0426525,7.06051989 33.5414324,7.50232361 C31.7322016,7.79261538 30.9517241,8.46996286 30.9517241,10.001634 L30.9517241,14.270069 C30.9517241,15.8017401 31.7322016,16.4809973 33.5414324,16.7712891 C36.0426525,17.2124562 39.6681167,17.5625889 43.6710875,17.5791406 C48.9275332,17.6001485 53.5677454,17.1952679 55.8614324,16.813305 L55.8614324,5.81723077 C55.8614324,0.508583554 53.8096552,0.185188329 46.8592042,0.185188329 L32.904191,0.185188329 L32.904191,3.12057294 L46.7089655,3.12057294 C49.3018568,3.12057294 49.5405836,3.82911406 49.5405836,5.39834483 L49.5405836,6.70402122 L43.6710875,6.70402122 Z" id="Fill-11" fill="#231F20"></path>
                <path d="M175.572987,17.413687 C170.659034,17.413687 166.696806,14.5604244 166.696806,8.58397878 C166.696806,2.95129973 170.750706,0 175.572987,0 C177.876859,0 179.504658,0.369230769 180.518769,0.885517241 L179.689273,2.28732095 C178.982005,1.94291777 177.753995,1.59851459 175.87983,1.59851459 C171.979353,1.59851459 169.614366,3.86164456 169.614366,8.78005305 C169.614366,13.3795225 172.225082,15.8393634 175.54243,15.8393634 C176.986249,15.8393634 177.753995,15.6426525 178.18434,15.4459416 L178.18434,9.09962865 L174.590706,9.09962865 L174.590706,7.67363395 L180.91792,7.67363395 L180.91792,16.4785146 C179.627523,17.0692838 178.21426,17.413687 175.572987,17.413687" id="Fill-13" fill="#231F20"></path>
                <path d="M191.760446,5.33684881 C190.408934,5.01727321 188.872806,5.11531034 187.982196,5.58321485 L187.982196,17.1675119 L185.279172,17.1675119 L185.279172,4.62385146 C186.906971,3.95987268 188.473655,3.6154695 192.405326,3.68931565 L191.760446,5.33684881 Z" id="Fill-15" fill="#231F20"></path>
                <path d="M200.600785,5.04216446 C197.436859,5.04216446 196.822536,7.86996286 196.822536,10.5513422 C196.822536,13.2320849 197.49861,15.9128276 200.600785,15.9128276 C203.764711,15.9128276 204.348477,13.2072573 204.348477,10.5513422 C204.348477,7.89479045 203.764711,5.04216446 200.600785,5.04216446 M200.600785,17.4139416 C196.085347,17.4139416 194.119512,14.4378143 194.119512,10.5513422 C194.119512,6.59166048 196.116541,3.66455172 200.570228,3.66455172 C205.116223,3.66455172 207.050865,6.59166048 207.050865,10.5513422 C207.050865,14.4378143 205.085029,17.4139416 200.600785,17.4139416" id="Fill-17" fill="#231F20"></path>
                <path d="M216.633995,17.437878 C212.487788,17.437878 210.767682,15.7655172 210.767682,13.1089655 L210.767682,3.91066313 L213.470706,3.91066313 L213.470706,13.1828117 C213.470706,14.7323077 214.514737,15.9125729 216.787416,15.9125729 C218.078451,15.9125729 218.999618,15.7406897 219.767363,15.3720955 L219.767363,3.91066313 L222.470387,3.91066313 L222.470387,16.3804775 C221.241103,16.9464191 219.306462,17.437878 216.633995,17.437878" id="Fill-19" fill="#231F20"></path>
                <g id="Group-23" transform="translate(226.631300, 3.357390)">
                    <mask id="mask-2" fill="white">
                        <use xlink:href="#path-1"></use>
                    </mask>
                    <g id="Clip-22"></g>
                    <path d="M5.23772944,1.61080106 C4.22425464,1.61080106 3.51825995,1.75785676 2.87274271,1.97939523 L2.87274271,12.3834271 C3.39475862,12.5553103 4.07083289,12.6788117 4.90032891,12.6788117 C8.24823342,12.6788117 9.96833952,10.5882016 9.96833952,7.07096021 C9.96833952,3.70141114 8.73969231,1.61080106 5.23772944,1.61080106 M5.45290186,14.0074058 C4.50117772,14.0074058 3.48706631,13.8590769 2.87274271,13.6871936 L2.87274271,19.0983342 L0.200912467,19.0983342 L0.200912467,1.2422069 C1.30605836,0.72528382 2.99624403,0.307034483 5.36059416,0.307034483 C10.0294536,0.307034483 12.6713634,2.91456764 12.6713634,6.97292308 C12.6713634,11.3750451 9.81428117,14.0074058 5.45290186,14.0074058" id="Fill-21" fill="#231F20" mask="url(#mask-2)"></path>
                </g>
            </g>
        </g>
    </g>
</svg>