<?xml version="1.0" encoding="UTF-8"?>
<svg width="239px" height="105px" viewBox="0 0 239 105" version="1.1" xmlns="http://www.w3.org/2000/svg" xmlns:xlink="http://www.w3.org/1999/xlink">
    <!-- Generator: Sketch 54.1 (76490) - https://sketchapp.com -->
    <title>03.logo_diagram</title>
    <desc>Created with Sketch.</desc>
    <g id="FINAL" stroke="none" stroke-width="1" fill="none" fill-rule="evenodd">
        <g id="Press-Info" transform="translate(-345.000000, -1333.000000)">
            <g id="03.logo_diagram" transform="translate(345.000000, 1333.000000)">
                <path d="M228,43 C234.075132,43 239,47.9248678 239,54 L239,55 C239,61.0751322 234.075132,66 228,66 C221.924868,66 217,61.0751322 217,55 L217,54 C217,47.9248678 221.924868,43 228,43 Z M228,44 C222.477153,44 218,48.4771525 218,54 L218,55 C218,60.5228475 222.477153,65 228,65 C233.522847,65 238,60.5228475 238,55 L238,54 C238,48.4771525 233.522847,44 228,44 Z" id="Rectangle" fill="#DADCE1" fill-rule="nonzero"></path>
                <path d="M11,43 C17.0751322,43 22,47.9248678 22,54 L22,55 C22,61.0751322 17.0751322,66 11,66 C4.92486775,66 0,61.0751322 0,55 L0,54 C0,47.9248678 4.92486775,43 11,43 Z M11,44 C5.4771525,44 1,48.4771525 1,54 L1,55 C1,60.5228475 5.4771525,65 11,65 C16.5228475,65 21,60.5228475 21,55 L21,54 C21,48.4771525 16.5228475,44 11,44 Z" id="Rectangle" fill="#DADCE1" fill-rule="nonzero"></path>
                <path d="M11,0 C17.0751322,0 22,4.92486775 22,11 L22,12 C22,18.0751322 17.0751322,23 11,23 C4.92486775,23 0,18.0751322 0,12 L0,11 C0,4.92486775 4.92486775,0 11,0 Z M11,1 C5.4771525,1 1,5.4771525 1,11 L1,12 C1,17.5228475 5.4771525,22 11,22 C16.5228475,22 21,17.5228475 21,12 L21,11 C21,5.4771525 16.5228475,1 11,1 Z" id="Rectangle" fill="#DADCE1" fill-rule="nonzero"></path>
                <path d="M228,0 C234.075132,0 239,4.92486775 239,11 L239,12 C239,18.0751322 234.075132,23 228,23 C221.924868,23 217,18.0751322 217,12 L217,11 C217,4.92486775 221.924868,0 228,0 Z M228,1 C222.477153,1 218,5.4771525 218,11 L218,12 C218,17.5228475 222.477153,22 228,22 C233.522847,22 238,17.5228475 238,12 L238,11 C238,5.4771525 233.522847,1 228,1 Z" id="Rectangle" fill="#DADCE1" fill-rule="nonzero"></path>
                <path d="M11,82 C17.0751322,82 22,86.9248678 22,93 L22,94 C22,100.075132 17.0751322,105 11,105 C4.92486775,105 0,100.075132 0,94 L0,93 C0,86.9248678 4.92486775,82 11,82 Z M11,83 C5.4771525,83 1,87.4771525 1,93 L1,94 C1,99.5228475 5.4771525,104 11,104 C16.5228475,104 21,99.5228475 21,94 L21,93 C21,87.4771525 16.5228475,83 11,83 Z" id="Rectangle" fill="#DADCE1" fill-rule="nonzero"></path>
                <path d="M228,82 C234.075132,82 239,86.9248678 239,93 L239,94 C239,100.075132 234.075132,105 228,105 C221.924868,105 217,100.075132 217,94 L217,93 C217,86.9248678 221.924868,82 228,82 Z M228,83 C222.477153,83 218,87.4771525 218,93 L218,94 C218,99.5228475 222.477153,104 228,104 C233.522847,104 238,99.5228475 238,94 L238,93 C238,87.4771525 233.522847,83 228,83 Z" id="Rectangle" fill="#DADCE1" fill-rule="nonzero"></path>
                <path d="M77.2607422,44 L78.2607422,44 L78.7607422,44 L78.7607422,43 L78.2607422,43 L77.2607422,43 L76.7607422,43 L76.7607422,44 L77.2607422,44 Z M81.2607422,44 L82.2607422,44 L82.7607422,44 L82.7607422,43 L82.2607422,43 L81.2607422,43 L80.7607422,43 L80.7607422,44 L81.2607422,44 Z M85.2607422,44 L86.2607422,44 L86.7607422,44 L86.7607422,43 L86.2607422,43 L85.2607422,43 L84.7607422,43 L84.7607422,44 L85.2607422,44 Z M89.2607422,44 L90.2607422,44 L90.7607422,44 L90.7607422,43 L90.2607422,43 L89.2607422,43 L88.7607422,43 L88.7607422,44 L89.2607422,44 Z M93.2607422,44 L94.2607422,44 L94.7607422,44 L94.7607422,43 L94.2607422,43 L93.2607422,43 L92.7607422,43 L92.7607422,44 L93.2607422,44 Z M97.2607422,44 L98.2607422,44 L98.7607422,44 L98.7607422,43 L98.2607422,43 L97.2607422,43 L96.7607422,43 L96.7607422,44 L97.2607422,44 Z M101.260742,44 L102.260742,44 L102.760742,44 L102.760742,43 L102.260742,43 L101.260742,43 L100.760742,43 L100.760742,44 L101.260742,44 Z M105.260742,44 L106.260742,44 L106.760742,44 L106.760742,43 L106.260742,43 L105.260742,43 L104.760742,43 L104.760742,44 L105.260742,44 Z M109.260742,44 L110.260742,44 L110.760742,44 L110.760742,43 L110.260742,43 L109.260742,43 L108.760742,43 L108.760742,44 L109.260742,44 Z M113.260742,44 L114.260742,44 L114.760742,44 L114.760742,43 L114.260742,43 L113.260742,43 L112.760742,43 L112.760742,44 L113.260742,44 Z M117.260742,44 L118.260742,44 L118.760742,44 L118.760742,43 L118.260742,43 L117.260742,43 L116.760742,43 L116.760742,44 L117.260742,44 Z M121.260742,44 L122.260742,44 L122.760742,44 L122.760742,43 L122.260742,43 L121.260742,43 L120.760742,43 L120.760742,44 L121.260742,44 Z M125.260742,44 L126.260742,44 L126.760742,44 L126.760742,43 L126.260742,43 L125.260742,43 L124.760742,43 L124.760742,44 L125.260742,44 Z M129.260742,44 L130.260742,44 L130.760742,44 L130.760742,43 L130.260742,43 L129.260742,43 L128.760742,43 L128.760742,44 L129.260742,44 Z M133.260742,44 L134.260742,44 L134.760742,44 L134.760742,43 L134.260742,43 L133.260742,43 L132.760742,43 L132.760742,44 L133.260742,44 Z M137.260742,44 L138.260742,44 L138.760742,44 L138.760742,43 L138.260742,43 L137.260742,43 L136.760742,43 L136.760742,44 L137.260742,44 Z M141.260742,44 L142.260742,44 L142.760742,44 L142.760742,43 L142.260742,43 L141.260742,43 L140.760742,43 L140.760742,44 L141.260742,44 Z M145.260742,44 L146.260742,44 L146.760742,44 L146.760742,43 L146.260742,43 L145.260742,43 L144.760742,43 L144.760742,44 L145.260742,44 Z M149.260742,44 L150.260742,44 L150.760742,44 L150.760742,43 L150.260742,43 L149.260742,43 L148.760742,43 L148.760742,44 L149.260742,44 Z M153.260742,44 L154.260742,44 L154.760742,44 L154.760742,43 L154.260742,43 L153.260742,43 L152.760742,43 L152.760742,44 L153.260742,44 Z M157.260742,44 L158.260742,44 L158.760742,44 L158.760742,43 L158.260742,43 L157.260742,43 L156.760742,43 L156.760742,44 L157.260742,44 Z M161.260742,44 L162.260742,44 L162.760742,44 L162.760742,43 L162.260742,43 L161.260742,43 L160.760742,43 L160.760742,44 L161.260742,44 Z M165.260742,44 L166.260742,44 L166.760742,44 L166.760742,43 L166.260742,43 L165.260742,43 L164.760742,43 L164.760742,44 L165.260742,44 Z M169.260742,44 L170.260742,44 L170.760742,44 L170.760742,43 L170.260742,43 L169.260742,43 L168.760742,43 L168.760742,44 L169.260742,44 Z M173.260742,44 L174.260742,44 L174.760742,44 L174.760742,43 L174.260742,43 L173.260742,43 L172.760742,43 L172.760742,44 L173.260742,44 Z M177.260742,44 L178.260742,44 L178.760742,44 L178.760742,43 L178.260742,43 L177.260742,43 L176.760742,43 L176.760742,44 L177.260742,44 Z M181.260742,44 L182.260742,44 L182.760742,44 L182.760742,43 L182.260742,43 L181.260742,43 L180.760742,43 L180.760742,44 L181.260742,44 Z M185.260742,44 L186.260742,44 L186.760742,44 L186.760742,43 L186.260742,43 L185.260742,43 L184.760742,43 L184.760742,44 L185.260742,44 Z M189.260742,44 L190.260742,44 L190.760742,44 L190.760742,43 L190.260742,43 L189.260742,43 L188.760742,43 L188.760742,44 L189.260742,44 Z M193.260742,44 L194.260742,44 L194.760742,44 L194.760742,43 L194.260742,43 L193.260742,43 L192.760742,43 L192.760742,44 L193.260742,44 Z M197.260742,44 L198.260742,44 L198.760742,44 L198.760742,43 L198.260742,43 L197.260742,43 L196.760742,43 L196.760742,44 L197.260742,44 Z M201.260742,44 L202.260742,44 L202.760742,44 L202.760742,43 L202.260742,43 L201.260742,43 L200.760742,43 L200.760742,44 L201.260742,44 Z M205.260742,44 L206.260742,44 L206.760742,44 L206.760742,43 L206.260742,43 L205.260742,43 L204.760742,43 L204.760742,44 L205.260742,44 Z M209.260742,44 L210.260742,44 L210.760742,44 L210.760742,43 L210.260742,43 L209.260742,43 L208.760742,43 L208.760742,44 L209.260742,44 Z M213.260742,44 L214.260742,44 L214.760742,44 L214.760742,43 L214.260742,43 L213.260742,43 L212.760742,43 L212.760742,44 L213.260742,44 Z M217.260742,44 L218.260742,44 L218.760742,44 L218.760742,43 L218.260742,43 L217.260742,43 L216.760742,43 L216.760742,44 L217.260742,44 Z M221.260742,44 L222.260742,44 L222.760742,44 L222.760742,43 L222.260742,43 L221.260742,43 L220.760742,43 L220.760742,44 L221.260742,44 Z M225.260742,44 L226.260742,44 L226.760742,44 L226.760742,43 L226.260742,43 L225.260742,43 L224.760742,43 L224.760742,44 L225.260742,44 Z M229.260742,44 L230.260742,44 L230.760742,44 L230.760742,43 L230.260742,43 L229.260742,43 L228.760742,43 L228.760742,44 L229.260742,44 Z M233.260742,44 L234.260742,44 L234.760742,44 L234.760742,43 L234.260742,43 L233.260742,43 L232.760742,43 L232.760742,44 L233.260742,44 Z" id="Line" fill="#DADCE1" fill-rule="nonzero"></path>
                <path d="M0.5,44 L1.5,44 L2,44 L2,43 L1.5,43 L0.5,43 L-2.84217094e-14,43 L-2.84217094e-14,44 L0.5,44 Z M4.5,44 L5.5,44 L6,44 L6,43 L5.5,43 L4.5,43 L4,43 L4,44 L4.5,44 Z M8.5,44 L9.5,44 L10,44 L10,43 L9.5,43 L8.5,43 L8,43 L8,44 L8.5,44 Z M12.5,44 L13.5,44 L14,44 L14,43 L13.5,43 L12.5,43 L12,43 L12,44 L12.5,44 Z M16.5,44 L17.5,44 L18,44 L18,43 L17.5,43 L16.5,43 L16,43 L16,44 L16.5,44 Z M20.5,44 L21.5,44 L22,44 L22,43 L21.5,43 L20.5,43 L20,43 L20,44 L20.5,44 Z M24.5,44 L25.5,44 L26,44 L26,43 L25.5,43 L24.5,43 L24,43 L24,44 L24.5,44 Z M28.5,44 L29.5,44 L30,44 L30,43 L29.5,43 L28.5,43 L28,43 L28,44 L28.5,44 Z M32.5,44 L32.8574219,44 L33.3574219,44 L33.3574219,43 L32.8574219,43 L32.5,43 L32,43 L32,44 L32.5,44 Z" id="Line" fill="#DADCE1" fill-rule="nonzero"></path>
                <path d="M1.234375,23 L2.234375,23 L2.734375,23 L2.734375,22 L2.234375,22 L1.234375,22 L0.734375,22 L0.734375,23 L1.234375,23 Z M5.234375,23 L6.234375,23 L6.734375,23 L6.734375,22 L6.234375,22 L5.234375,22 L4.734375,22 L4.734375,23 L5.234375,23 Z M9.234375,23 L10.234375,23 L10.734375,23 L10.734375,22 L10.234375,22 L9.234375,22 L8.734375,22 L8.734375,23 L9.234375,23 Z M13.234375,23 L14.234375,23 L14.734375,23 L14.734375,22 L14.234375,22 L13.234375,22 L12.734375,22 L12.734375,23 L13.234375,23 Z M17.234375,23 L18.234375,23 L18.734375,23 L18.734375,22 L18.234375,22 L17.234375,22 L16.734375,22 L16.734375,23 L17.234375,23 Z M21.234375,23 L22.234375,23 L22.734375,23 L22.734375,22 L22.234375,22 L21.234375,22 L20.734375,22 L20.734375,23 L21.234375,23 Z M25.234375,23 L26.234375,23 L26.734375,23 L26.734375,22 L26.234375,22 L25.234375,22 L24.734375,22 L24.734375,23 L25.234375,23 Z M29.234375,23 L30.234375,23 L30.734375,23 L30.734375,22 L30.234375,22 L29.234375,22 L28.734375,22 L28.734375,23 L29.234375,23 Z M33.234375,23 L34.234375,23 L34.734375,23 L34.734375,22 L34.234375,22 L33.234375,22 L32.734375,22 L32.734375,23 L33.234375,23 Z M37.234375,23 L38.234375,23 L38.734375,23 L38.734375,22 L38.234375,22 L37.234375,22 L36.734375,22 L36.734375,23 L37.234375,23 Z M41.234375,23 L42.234375,23 L42.734375,23 L42.734375,22 L42.234375,22 L41.234375,22 L40.734375,22 L40.734375,23 L41.234375,23 Z M45.234375,23 L46.234375,23 L46.734375,23 L46.734375,22 L46.234375,22 L45.234375,22 L44.734375,22 L44.734375,23 L45.234375,23 Z M49.234375,23 L50.234375,23 L50.734375,23 L50.734375,22 L50.234375,22 L49.234375,22 L48.734375,22 L48.734375,23 L49.234375,23 Z M53.234375,23 L54.234375,23 L54.734375,23 L54.734375,22 L54.234375,22 L53.234375,22 L52.734375,22 L52.734375,23 L53.234375,23 Z M57.234375,23 L58.234375,23 L58.734375,23 L58.734375,22 L58.234375,22 L57.234375,22 L56.734375,22 L56.734375,23 L57.234375,23 Z M61.234375,23 L62.234375,23 L62.734375,23 L62.734375,22 L62.234375,22 L61.234375,22 L60.734375,22 L60.734375,23 L61.234375,23 Z M65.234375,23 L66.234375,23 L66.734375,23 L66.734375,22 L66.234375,22 L65.234375,22 L64.734375,22 L64.734375,23 L65.234375,23 Z M69.234375,23 L70.234375,23 L70.734375,23 L70.734375,22 L70.234375,22 L69.234375,22 L68.734375,22 L68.734375,23 L69.234375,23 Z M73.234375,23 L74.234375,23 L74.734375,23 L74.734375,22 L74.234375,22 L73.234375,22 L72.734375,22 L72.734375,23 L73.234375,23 Z M77.234375,23 L78.234375,23 L78.734375,23 L78.734375,22 L78.234375,22 L77.234375,22 L76.734375,22 L76.734375,23 L77.234375,23 Z M81.234375,23 L82.234375,23 L82.734375,23 L82.734375,22 L82.234375,22 L81.234375,22 L80.734375,22 L80.734375,23 L81.234375,23 Z M85.234375,23 L86.234375,23 L86.734375,23 L86.734375,22 L86.234375,22 L85.234375,22 L84.734375,22 L84.734375,23 L85.234375,23 Z M89.234375,23 L90.234375,23 L90.734375,23 L90.734375,22 L90.234375,22 L89.234375,22 L88.734375,22 L88.734375,23 L89.234375,23 Z M93.234375,23 L94.234375,23 L94.734375,23 L94.734375,22 L94.234375,22 L93.234375,22 L92.734375,22 L92.734375,23 L93.234375,23 Z M97.234375,23 L98.234375,23 L98.734375,23 L98.734375,22 L98.234375,22 L97.234375,22 L96.734375,22 L96.734375,23 L97.234375,23 Z M101.234375,23 L102.234375,23 L102.734375,23 L102.734375,22 L102.234375,22 L101.234375,22 L100.734375,22 L100.734375,23 L101.234375,23 Z M105.234375,23 L106.234375,23 L106.734375,23 L106.734375,22 L106.234375,22 L105.234375,22 L104.734375,22 L104.734375,23 L105.234375,23 Z M109.234375,23 L110.234375,23 L110.734375,23 L110.734375,22 L110.234375,22 L109.234375,22 L108.734375,22 L108.734375,23 L109.234375,23 Z M113.234375,23 L114.234375,23 L114.734375,23 L114.734375,22 L114.234375,22 L113.234375,22 L112.734375,22 L112.734375,23 L113.234375,23 Z M117.234375,23 L118.234375,23 L118.734375,23 L118.734375,22 L118.234375,22 L117.234375,22 L116.734375,22 L116.734375,23 L117.234375,23 Z M121.234375,23 L122.234375,23 L122.734375,23 L122.734375,22 L122.234375,22 L121.234375,22 L120.734375,22 L120.734375,23 L121.234375,23 Z M125.234375,23 L126.234375,23 L126.734375,23 L126.734375,22 L126.234375,22 L125.234375,22 L124.734375,22 L124.734375,23 L125.234375,23 Z M129.234375,23 L130.234375,23 L130.734375,23 L130.734375,22 L130.234375,22 L129.234375,22 L128.734375,22 L128.734375,23 L129.234375,23 Z M133.234375,23 L134.234375,23 L134.734375,23 L134.734375,22 L134.234375,22 L133.234375,22 L132.734375,22 L132.734375,23 L133.234375,23 Z M137.234375,23 L138.234375,23 L138.734375,23 L138.734375,22 L138.234375,22 L137.234375,22 L136.734375,22 L136.734375,23 L137.234375,23 Z M141.234375,23 L142.234375,23 L142.734375,23 L142.734375,22 L142.234375,22 L141.234375,22 L140.734375,22 L140.734375,23 L141.234375,23 Z M145.234375,23 L146.234375,23 L146.734375,23 L146.734375,22 L146.234375,22 L145.234375,22 L144.734375,22 L144.734375,23 L145.234375,23 Z M149.234375,23 L150.234375,23 L150.734375,23 L150.734375,22 L150.234375,22 L149.234375,22 L148.734375,22 L148.734375,23 L149.234375,23 Z M153.234375,23 L154.234375,23 L154.734375,23 L154.734375,22 L154.234375,22 L153.234375,22 L152.734375,22 L152.734375,23 L153.234375,23 Z M157.234375,23 L158.234375,23 L158.734375,23 L158.734375,22 L158.234375,22 L157.234375,22 L156.734375,22 L156.734375,23 L157.234375,23 Z M161.234375,23 L162.234375,23 L162.734375,23 L162.734375,22 L162.234375,22 L161.234375,22 L160.734375,22 L160.734375,23 L161.234375,23 Z M165.234375,23 L166.234375,23 L166.734375,23 L166.734375,22 L166.234375,22 L165.234375,22 L164.734375,22 L164.734375,23 L165.234375,23 Z M169.234375,23 L170.234375,23 L170.734375,23 L170.734375,22 L170.234375,22 L169.234375,22 L168.734375,22 L168.734375,23 L169.234375,23 Z M173.234375,23 L174.234375,23 L174.734375,23 L174.734375,22 L174.234375,22 L173.234375,22 L172.734375,22 L172.734375,23 L173.234375,23 Z M177.234375,23 L178.234375,23 L178.734375,23 L178.734375,22 L178.234375,22 L177.234375,22 L176.734375,22 L176.734375,23 L177.234375,23 Z M181.234375,23 L182.234375,23 L182.734375,23 L182.734375,22 L182.234375,22 L181.234375,22 L180.734375,22 L180.734375,23 L181.234375,23 Z M185.234375,23 L186.234375,23 L186.734375,23 L186.734375,22 L186.234375,22 L185.234375,22 L184.734375,22 L184.734375,23 L185.234375,23 Z M189.234375,23 L190.234375,23 L190.734375,23 L190.734375,22 L190.234375,22 L189.234375,22 L188.734375,22 L188.734375,23 L189.234375,23 Z M193.234375,23 L194.234375,23 L194.734375,23 L194.734375,22 L194.234375,22 L193.234375,22 L192.734375,22 L192.734375,23 L193.234375,23 Z M197.234375,23 L198.234375,23 L198.734375,23 L198.734375,22 L198.234375,22 L197.234375,22 L196.734375,22 L196.734375,23 L197.234375,23 Z M201.234375,23 L202.234375,23 L202.734375,23 L202.734375,22 L202.234375,22 L201.234375,22 L200.734375,22 L200.734375,23 L201.234375,23 Z M205.234375,23 L206.234375,23 L206.734375,23 L206.734375,22 L206.234375,22 L205.234375,22 L204.734375,22 L204.734375,23 L205.234375,23 Z M209.234375,23 L210.234375,23 L210.734375,23 L210.734375,22 L210.234375,22 L209.234375,22 L208.734375,22 L208.734375,23 L209.234375,23 Z M213.234375,23 L214.234375,23 L214.734375,23 L214.734375,22 L214.234375,22 L213.234375,22 L212.734375,22 L212.734375,23 L213.234375,23 Z M217.234375,23 L218.234375,23 L218.734375,23 L218.734375,22 L218.234375,22 L217.234375,22 L216.734375,22 L216.734375,23 L217.234375,23 Z M221.234375,23 L222.234375,23 L222.734375,23 L222.734375,22 L222.234375,22 L221.234375,22 L220.734375,22 L220.734375,23 L221.234375,23 Z M225.234375,23 L226.234375,23 L226.734375,23 L226.734375,22 L226.234375,22 L225.234375,22 L224.734375,22 L224.734375,23 L225.234375,23 Z M229.234375,23 L230.234375,23 L230.734375,23 L230.734375,22 L230.234375,22 L229.234375,22 L228.734375,22 L228.734375,23 L229.234375,23 Z M233.234375,23 L234.234375,23 L234.734375,23 L234.734375,22 L234.234375,22 L233.234375,22 L232.734375,22 L232.734375,23 L233.234375,23 Z M237.234375,23 L238.234375,23 L238.734375,23 L238.734375,22 L238.234375,22 L237.234375,22 L236.734375,22 L236.734375,23 L237.234375,23 Z" id="Line" fill="#DADCE1" fill-rule="nonzero"></path>
                <path d="M1.234375,1 L2.234375,1 L2.734375,1 L2.734375,0 L2.234375,0 L1.234375,0 L0.734375,0 L0.734375,1 L1.234375,1 Z M5.234375,1 L6.234375,1 L6.734375,1 L6.734375,0 L6.234375,0 L5.234375,0 L4.734375,0 L4.734375,1 L5.234375,1 Z M9.234375,1 L10.234375,1 L10.734375,1 L10.734375,0 L10.234375,0 L9.234375,0 L8.734375,0 L8.734375,1 L9.234375,1 Z M13.234375,1 L14.234375,1 L14.734375,1 L14.734375,0 L14.234375,0 L13.234375,0 L12.734375,0 L12.734375,1 L13.234375,1 Z M17.234375,1 L18.234375,1 L18.734375,1 L18.734375,0 L18.234375,0 L17.234375,0 L16.734375,0 L16.734375,1 L17.234375,1 Z M21.234375,1 L22.234375,1 L22.734375,1 L22.734375,0 L22.234375,0 L21.234375,0 L20.734375,0 L20.734375,1 L21.234375,1 Z M25.234375,1 L26.234375,1 L26.734375,1 L26.734375,0 L26.234375,0 L25.234375,0 L24.734375,0 L24.734375,1 L25.234375,1 Z M29.234375,1 L30.234375,1 L30.734375,1 L30.734375,0 L30.234375,0 L29.234375,0 L28.734375,0 L28.734375,1 L29.234375,1 Z M33.234375,1 L34.234375,1 L34.734375,1 L34.734375,0 L34.234375,0 L33.234375,0 L32.734375,0 L32.734375,1 L33.234375,1 Z M37.234375,1 L38.234375,1 L38.734375,1 L38.734375,0 L38.234375,0 L37.234375,0 L36.734375,0 L36.734375,1 L37.234375,1 Z M41.234375,1 L42.234375,1 L42.734375,1 L42.734375,0 L42.234375,0 L41.234375,0 L40.734375,0 L40.734375,1 L41.234375,1 Z M45.234375,1 L46.234375,1 L46.734375,1 L46.734375,0 L46.234375,0 L45.234375,0 L44.734375,0 L44.734375,1 L45.234375,1 Z M49.234375,1 L50.234375,1 L50.734375,1 L50.734375,0 L50.234375,0 L49.234375,0 L48.734375,0 L48.734375,1 L49.234375,1 Z M53.234375,1 L54.234375,1 L54.734375,1 L54.734375,0 L54.234375,0 L53.234375,0 L52.734375,0 L52.734375,1 L53.234375,1 Z M57.234375,1 L58.234375,1 L58.734375,1 L58.734375,0 L58.234375,0 L57.234375,0 L56.734375,0 L56.734375,1 L57.234375,1 Z M61.234375,1 L62.234375,1 L62.734375,1 L62.734375,0 L62.234375,0 L61.234375,0 L60.734375,0 L60.734375,1 L61.234375,1 Z M65.234375,1 L66.234375,1 L66.734375,1 L66.734375,0 L66.234375,0 L65.234375,0 L64.734375,0 L64.734375,1 L65.234375,1 Z M69.234375,1 L70.234375,1 L70.734375,1 L70.734375,0 L70.234375,0 L69.234375,0 L68.734375,0 L68.734375,1 L69.234375,1 Z M73.234375,1 L74.234375,1 L74.734375,1 L74.734375,0 L74.234375,0 L73.234375,0 L72.734375,0 L72.734375,1 L73.234375,1 Z M77.234375,1 L78.234375,1 L78.734375,1 L78.734375,0 L78.234375,0 L77.234375,0 L76.734375,0 L76.734375,1 L77.234375,1 Z M81.234375,1 L82.234375,1 L82.734375,1 L82.734375,0 L82.234375,0 L81.234375,0 L80.734375,0 L80.734375,1 L81.234375,1 Z M85.234375,1 L86.234375,1 L86.734375,1 L86.734375,0 L86.234375,0 L85.234375,0 L84.734375,0 L84.734375,1 L85.234375,1 Z M89.234375,1 L90.234375,1 L90.734375,1 L90.734375,0 L90.234375,0 L89.234375,0 L88.734375,0 L88.734375,1 L89.234375,1 Z M93.234375,1 L94.234375,1 L94.734375,1 L94.734375,0 L94.234375,0 L93.234375,0 L92.734375,0 L92.734375,1 L93.234375,1 Z M97.234375,1 L98.234375,1 L98.734375,1 L98.734375,0 L98.234375,0 L97.234375,0 L96.734375,0 L96.734375,1 L97.234375,1 Z M101.234375,1 L102.234375,1 L102.734375,1 L102.734375,0 L102.234375,0 L101.234375,0 L100.734375,0 L100.734375,1 L101.234375,1 Z M105.234375,1 L106.234375,1 L106.734375,1 L106.734375,0 L106.234375,0 L105.234375,0 L104.734375,0 L104.734375,1 L105.234375,1 Z M109.234375,1 L110.234375,1 L110.734375,1 L110.734375,0 L110.234375,0 L109.234375,0 L108.734375,0 L108.734375,1 L109.234375,1 Z M113.234375,1 L114.234375,1 L114.734375,1 L114.734375,0 L114.234375,0 L113.234375,0 L112.734375,0 L112.734375,1 L113.234375,1 Z M117.234375,1 L118.234375,1 L118.734375,1 L118.734375,0 L118.234375,0 L117.234375,0 L116.734375,0 L116.734375,1 L117.234375,1 Z M121.234375,1 L122.234375,1 L122.734375,1 L122.734375,0 L122.234375,0 L121.234375,0 L120.734375,0 L120.734375,1 L121.234375,1 Z M125.234375,1 L126.234375,1 L126.734375,1 L126.734375,0 L126.234375,0 L125.234375,0 L124.734375,0 L124.734375,1 L125.234375,1 Z M129.234375,1 L130.234375,1 L130.734375,1 L130.734375,0 L130.234375,0 L129.234375,0 L128.734375,0 L128.734375,1 L129.234375,1 Z M133.234375,1 L134.234375,1 L134.734375,1 L134.734375,0 L134.234375,0 L133.234375,0 L132.734375,0 L132.734375,1 L133.234375,1 Z M137.234375,1 L138.234375,1 L138.734375,1 L138.734375,0 L138.234375,0 L137.234375,0 L136.734375,0 L136.734375,1 L137.234375,1 Z M141.234375,1 L142.234375,1 L142.734375,1 L142.734375,0 L142.234375,0 L141.234375,0 L140.734375,0 L140.734375,1 L141.234375,1 Z M145.234375,1 L146.234375,1 L146.734375,1 L146.734375,0 L146.234375,0 L145.234375,0 L144.734375,0 L144.734375,1 L145.234375,1 Z M149.234375,1 L150.234375,1 L150.734375,1 L150.734375,0 L150.234375,0 L149.234375,0 L148.734375,0 L148.734375,1 L149.234375,1 Z M153.234375,1 L154.234375,1 L154.734375,1 L154.734375,0 L154.234375,0 L153.234375,0 L152.734375,0 L152.734375,1 L153.234375,1 Z M157.234375,1 L158.234375,1 L158.734375,1 L158.734375,0 L158.234375,0 L157.234375,0 L156.734375,0 L156.734375,1 L157.234375,1 Z M161.234375,1 L162.234375,1 L162.734375,1 L162.734375,0 L162.234375,0 L161.234375,0 L160.734375,0 L160.734375,1 L161.234375,1 Z M165.234375,1 L166.234375,1 L166.734375,1 L166.734375,0 L166.234375,0 L165.234375,0 L164.734375,0 L164.734375,1 L165.234375,1 Z M169.234375,1 L170.234375,1 L170.734375,1 L170.734375,0 L170.234375,0 L169.234375,0 L168.734375,0 L168.734375,1 L169.234375,1 Z M173.234375,1 L174.234375,1 L174.734375,1 L174.734375,0 L174.234375,0 L173.234375,0 L172.734375,0 L172.734375,1 L173.234375,1 Z M177.234375,1 L178.234375,1 L178.734375,1 L178.734375,0 L178.234375,0 L177.234375,0 L176.734375,0 L176.734375,1 L177.234375,1 Z M181.234375,1 L182.234375,1 L182.734375,1 L182.734375,0 L182.234375,0 L181.234375,0 L180.734375,0 L180.734375,1 L181.234375,1 Z M185.234375,1 L186.234375,1 L186.734375,1 L186.734375,0 L186.234375,0 L185.234375,0 L184.734375,0 L184.734375,1 L185.234375,1 Z M189.234375,1 L190.234375,1 L190.734375,1 L190.734375,0 L190.234375,0 L189.234375,0 L188.734375,0 L188.734375,1 L189.234375,1 Z M193.234375,1 L194.234375,1 L194.734375,1 L194.734375,0 L194.234375,0 L193.234375,0 L192.734375,0 L192.734375,1 L193.234375,1 Z M197.234375,1 L198.234375,1 L198.734375,1 L198.734375,0 L198.234375,0 L197.234375,0 L196.734375,0 L196.734375,1 L197.234375,1 Z M201.234375,1 L202.234375,1 L202.734375,1 L202.734375,0 L202.234375,0 L201.234375,0 L200.734375,0 L200.734375,1 L201.234375,1 Z M205.234375,1 L206.234375,1 L206.734375,1 L206.734375,0 L206.234375,0 L205.234375,0 L204.734375,0 L204.734375,1 L205.234375,1 Z M209.234375,1 L210.234375,1 L210.734375,1 L210.734375,0 L210.234375,0 L209.234375,0 L208.734375,0 L208.734375,1 L209.234375,1 Z M213.234375,1 L214.234375,1 L214.734375,1 L214.734375,0 L214.234375,0 L213.234375,0 L212.734375,0 L212.734375,1 L213.234375,1 Z M217.234375,1 L218.234375,1 L218.734375,1 L218.734375,0 L218.234375,0 L217.234375,0 L216.734375,0 L216.734375,1 L217.234375,1 Z M221.234375,1 L222.234375,1 L222.734375,1 L222.734375,0 L222.234375,0 L221.234375,0 L220.734375,0 L220.734375,1 L221.234375,1 Z M225.234375,1 L226.234375,1 L226.734375,1 L226.734375,0 L226.234375,0 L225.234375,0 L224.734375,0 L224.734375,1 L225.234375,1 Z M229.234375,1 L230.234375,1 L230.734375,1 L230.734375,0 L230.234375,0 L229.234375,0 L228.734375,0 L228.734375,1 L229.234375,1 Z M233.234375,1 L234.234375,1 L234.734375,1 L234.734375,0 L234.234375,0 L233.234375,0 L232.734375,0 L232.734375,1 L233.234375,1 Z M237.234375,1 L238.234375,1 L238.734375,1 L238.734375,0 L238.234375,0 L237.234375,0 L236.734375,0 L236.734375,1 L237.234375,1 Z M238,3.234375 L238,4.234375 L238,4.734375 L239,4.734375 L239,4.234375 L239,3.234375 L239,2.734375 L238,2.734375 L238,3.234375 Z M238,7.234375 L238,8.234375 L238,8.734375 L239,8.734375 L239,8.234375 L239,7.234375 L239,6.734375 L238,6.734375 L238,7.234375 Z M238,11.234375 L238,12.234375 L238,12.734375 L239,12.734375 L239,12.234375 L239,11.234375 L239,10.734375 L238,10.734375 L238,11.234375 Z M238,15.234375 L238,16.234375 L238,16.734375 L239,16.734375 L239,16.234375 L239,15.234375 L239,14.734375 L238,14.734375 L238,15.234375 Z M238,19.234375 L238,20.234375 L238,20.734375 L239,20.734375 L239,20.234375 L239,19.234375 L239,18.734375 L238,18.734375 L238,19.234375 Z M238,23.234375 L238,24.234375 L238,24.734375 L239,24.734375 L239,24.234375 L239,23.234375 L239,22.734375 L238,22.734375 L238,23.234375 Z M238,27.234375 L238,28.234375 L238,28.734375 L239,28.734375 L239,28.234375 L239,27.234375 L239,26.734375 L238,26.734375 L238,27.234375 Z M238,31.234375 L238,32.234375 L238,32.734375 L239,32.734375 L239,32.234375 L239,31.234375 L239,30.734375 L238,30.734375 L238,31.234375 Z M238,35.234375 L238,36.234375 L238,36.734375 L239,36.734375 L239,36.234375 L239,35.234375 L239,34.734375 L238,34.734375 L238,35.234375 Z M238,39.234375 L238,40.234375 L238,40.734375 L239,40.734375 L239,40.234375 L239,39.234375 L239,38.734375 L238,38.734375 L238,39.234375 Z M238,43.234375 L238,44.234375 L238,44.734375 L239,44.734375 L239,44.234375 L239,43.234375 L239,42.734375 L238,42.734375 L238,43.234375 Z M238,47.234375 L238,48.234375 L238,48.734375 L239,48.734375 L239,48.234375 L239,47.234375 L239,46.734375 L238,46.734375 L238,47.234375 Z M238,51.234375 L238,52.234375 L238,52.734375 L239,52.734375 L239,52.234375 L239,51.234375 L239,50.734375 L238,50.734375 L238,51.234375 Z M238,55.234375 L238,56.234375 L238,56.734375 L239,56.734375 L239,56.234375 L239,55.234375 L239,54.734375 L238,54.734375 L238,55.234375 Z M238,59.234375 L238,60.234375 L238,60.734375 L239,60.734375 L239,60.234375 L239,59.234375 L239,58.734375 L238,58.734375 L238,59.234375 Z M238,63.234375 L238,64.234375 L238,64.734375 L239,64.734375 L239,64.234375 L239,63.234375 L239,62.734375 L238,62.734375 L238,63.234375 Z M238,67.234375 L238,68.234375 L238,68.734375 L239,68.734375 L239,68.234375 L239,67.234375 L239,66.734375 L238,66.734375 L238,67.234375 Z M238,71.234375 L238,72.234375 L238,72.734375 L239,72.734375 L239,72.234375 L239,71.234375 L239,70.734375 L238,70.734375 L238,71.234375 Z M238,75.234375 L238,76.234375 L238,76.734375 L239,76.734375 L239,76.234375 L239,75.234375 L239,74.734375 L238,74.734375 L238,75.234375 Z M238,79.234375 L238,80.234375 L238,80.734375 L239,80.734375 L239,80.234375 L239,79.234375 L239,78.734375 L238,78.734375 L238,79.234375 Z M238,83.234375 L238,84.234375 L238,84.734375 L239,84.734375 L239,84.234375 L239,83.234375 L239,82.734375 L238,82.734375 L238,83.234375 Z M238,87.234375 L238,88.234375 L238,88.734375 L239,88.734375 L239,88.234375 L239,87.234375 L239,86.734375 L238,86.734375 L238,87.234375 Z M238,91.234375 L238,92.234375 L238,92.734375 L239,92.734375 L239,92.234375 L239,91.234375 L239,90.734375 L238,90.734375 L238,91.234375 Z M238,95.234375 L238,96.234375 L238,96.734375 L239,96.734375 L239,96.234375 L239,95.234375 L239,94.734375 L238,94.734375 L238,95.234375 Z M238,99.234375 L238,100.234375 L238,100.734375 L239,100.734375 L239,100.234375 L239,99.234375 L239,98.734375 L238,98.734375 L238,99.234375 Z M238,103.234375 L238,104.234375 L238,104.734375 L239,104.734375 L239,104.234375 L239,103.234375 L239,102.734375 L238,102.734375 L238,103.234375 Z M235.765625,104 L234.765625,104 L234.265625,104 L234.265625,105 L234.765625,105 L235.765625,105 L236.265625,105 L236.265625,104 L235.765625,104 Z M231.765625,104 L230.765625,104 L230.265625,104 L230.265625,105 L230.765625,105 L231.765625,105 L232.265625,105 L232.265625,104 L231.765625,104 Z M227.765625,104 L226.765625,104 L226.265625,104 L226.265625,105 L226.765625,105 L227.765625,105 L228.265625,105 L228.265625,104 L227.765625,104 Z M223.765625,104 L222.765625,104 L222.265625,104 L222.265625,105 L222.765625,105 L223.765625,105 L224.265625,105 L224.265625,104 L223.765625,104 Z M219.765625,104 L218.765625,104 L218.265625,104 L218.265625,105 L218.765625,105 L219.765625,105 L220.265625,105 L220.265625,104 L219.765625,104 Z M215.765625,104 L214.765625,104 L214.265625,104 L214.265625,105 L214.765625,105 L215.765625,105 L216.265625,105 L216.265625,104 L215.765625,104 Z M211.765625,104 L210.765625,104 L210.265625,104 L210.265625,105 L210.765625,105 L211.765625,105 L212.265625,105 L212.265625,104 L211.765625,104 Z M207.765625,104 L206.765625,104 L206.265625,104 L206.265625,105 L206.765625,105 L207.765625,105 L208.265625,105 L208.265625,104 L207.765625,104 Z M203.765625,104 L202.765625,104 L202.265625,104 L202.265625,105 L202.765625,105 L203.765625,105 L204.265625,105 L204.265625,104 L203.765625,104 Z M199.765625,104 L198.765625,104 L198.265625,104 L198.265625,105 L198.765625,105 L199.765625,105 L200.265625,105 L200.265625,104 L199.765625,104 Z M195.765625,104 L194.765625,104 L194.265625,104 L194.265625,105 L194.765625,105 L195.765625,105 L196.265625,105 L196.265625,104 L195.765625,104 Z M191.765625,104 L190.765625,104 L190.265625,104 L190.265625,105 L190.765625,105 L191.765625,105 L192.265625,105 L192.265625,104 L191.765625,104 Z M187.765625,104 L186.765625,104 L186.265625,104 L186.265625,105 L186.765625,105 L187.765625,105 L188.265625,105 L188.265625,104 L187.765625,104 Z M183.765625,104 L182.765625,104 L182.265625,104 L182.265625,105 L182.765625,105 L183.765625,105 L184.265625,105 L184.265625,104 L183.765625,104 Z M179.765625,104 L178.765625,104 L178.265625,104 L178.265625,105 L178.765625,105 L179.765625,105 L180.265625,105 L180.265625,104 L179.765625,104 Z M175.765625,104 L174.765625,104 L174.265625,104 L174.265625,105 L174.765625,105 L175.765625,105 L176.265625,105 L176.265625,104 L175.765625,104 Z M171.765625,104 L170.765625,104 L170.265625,104 L170.265625,105 L170.765625,105 L171.765625,105 L172.265625,105 L172.265625,104 L171.765625,104 Z M167.765625,104 L166.765625,104 L166.265625,104 L166.265625,105 L166.765625,105 L167.765625,105 L168.265625,105 L168.265625,104 L167.765625,104 Z M163.765625,104 L162.765625,104 L162.265625,104 L162.265625,105 L162.765625,105 L163.765625,105 L164.265625,105 L164.265625,104 L163.765625,104 Z M159.765625,104 L158.765625,104 L158.265625,104 L158.265625,105 L158.765625,105 L159.765625,105 L160.265625,105 L160.265625,104 L159.765625,104 Z M155.765625,104 L154.765625,104 L154.265625,104 L154.265625,105 L154.765625,105 L155.765625,105 L156.265625,105 L156.265625,104 L155.765625,104 Z M151.765625,104 L150.765625,104 L150.265625,104 L150.265625,105 L150.765625,105 L151.765625,105 L152.265625,105 L152.265625,104 L151.765625,104 Z M147.765625,104 L146.765625,104 L146.265625,104 L146.265625,105 L146.765625,105 L147.765625,105 L148.265625,105 L148.265625,104 L147.765625,104 Z M143.765625,104 L142.765625,104 L142.265625,104 L142.265625,105 L142.765625,105 L143.765625,105 L144.265625,105 L144.265625,104 L143.765625,104 Z M139.765625,104 L138.765625,104 L138.265625,104 L138.265625,105 L138.765625,105 L139.765625,105 L140.265625,105 L140.265625,104 L139.765625,104 Z M135.765625,104 L134.765625,104 L134.265625,104 L134.265625,105 L134.765625,105 L135.765625,105 L136.265625,105 L136.265625,104 L135.765625,104 Z M131.765625,104 L130.765625,104 L130.265625,104 L130.265625,105 L130.765625,105 L131.765625,105 L132.265625,105 L132.265625,104 L131.765625,104 Z M127.765625,104 L126.765625,104 L126.265625,104 L126.265625,105 L126.765625,105 L127.765625,105 L128.265625,105 L128.265625,104 L127.765625,104 Z M123.765625,104 L122.765625,104 L122.265625,104 L122.265625,105 L122.765625,105 L123.765625,105 L124.265625,105 L124.265625,104 L123.765625,104 Z M119.765625,104 L118.765625,104 L118.265625,104 L118.265625,105 L118.765625,105 L119.765625,105 L120.265625,105 L120.265625,104 L119.765625,104 Z M115.765625,104 L114.765625,104 L114.265625,104 L114.265625,105 L114.765625,105 L115.765625,105 L116.265625,105 L116.265625,104 L115.765625,104 Z M111.765625,104 L110.765625,104 L110.265625,104 L110.265625,105 L110.765625,105 L111.765625,105 L112.265625,105 L112.265625,104 L111.765625,104 Z M107.765625,104 L106.765625,104 L106.265625,104 L106.265625,105 L106.765625,105 L107.765625,105 L108.265625,105 L108.265625,104 L107.765625,104 Z M103.765625,104 L102.765625,104 L102.265625,104 L102.265625,105 L102.765625,105 L103.765625,105 L104.265625,105 L104.265625,104 L103.765625,104 Z M99.765625,104 L98.765625,104 L98.265625,104 L98.265625,105 L98.765625,105 L99.765625,105 L100.265625,105 L100.265625,104 L99.765625,104 Z M95.765625,104 L94.765625,104 L94.265625,104 L94.265625,105 L94.765625,105 L95.765625,105 L96.265625,105 L96.265625,104 L95.765625,104 Z M91.765625,104 L90.765625,104 L90.265625,104 L90.265625,105 L90.765625,105 L91.765625,105 L92.265625,105 L92.265625,104 L91.765625,104 Z M87.765625,104 L86.765625,104 L86.265625,104 L86.265625,105 L86.765625,105 L87.765625,105 L88.265625,105 L88.265625,104 L87.765625,104 Z M83.765625,104 L82.765625,104 L82.265625,104 L82.265625,105 L82.765625,105 L83.765625,105 L84.265625,105 L84.265625,104 L83.765625,104 Z M79.765625,104 L78.765625,104 L78.265625,104 L78.265625,105 L78.765625,105 L79.765625,105 L80.265625,105 L80.265625,104 L79.765625,104 Z M75.765625,104 L74.765625,104 L74.265625,104 L74.265625,105 L74.765625,105 L75.765625,105 L76.265625,105 L76.265625,104 L75.765625,104 Z M71.765625,104 L70.765625,104 L70.265625,104 L70.265625,105 L70.765625,105 L71.765625,105 L72.265625,105 L72.265625,104 L71.765625,104 Z M67.765625,104 L66.765625,104 L66.265625,104 L66.265625,105 L66.765625,105 L67.765625,105 L68.265625,105 L68.265625,104 L67.765625,104 Z M63.765625,104 L62.765625,104 L62.265625,104 L62.265625,105 L62.765625,105 L63.765625,105 L64.265625,105 L64.265625,104 L63.765625,104 Z M59.765625,104 L58.765625,104 L58.265625,104 L58.265625,105 L58.765625,105 L59.765625,105 L60.265625,105 L60.265625,104 L59.765625,104 Z M55.765625,104 L54.765625,104 L54.265625,104 L54.265625,105 L54.765625,105 L55.765625,105 L56.265625,105 L56.265625,104 L55.765625,104 Z M51.765625,104 L50.765625,104 L50.265625,104 L50.265625,105 L50.765625,105 L51.765625,105 L52.265625,105 L52.265625,104 L51.765625,104 Z M47.765625,104 L46.765625,104 L46.265625,104 L46.265625,105 L46.765625,105 L47.765625,105 L48.265625,105 L48.265625,104 L47.765625,104 Z M43.765625,104 L42.765625,104 L42.265625,104 L42.265625,105 L42.765625,105 L43.765625,105 L44.265625,105 L44.265625,104 L43.765625,104 Z M39.765625,104 L38.765625,104 L38.265625,104 L38.265625,105 L38.765625,105 L39.765625,105 L40.265625,105 L40.265625,104 L39.765625,104 Z M35.765625,104 L34.765625,104 L34.265625,104 L34.265625,105 L34.765625,105 L35.765625,105 L36.265625,105 L36.265625,104 L35.765625,104 Z M31.765625,104 L30.765625,104 L30.265625,104 L30.265625,105 L30.765625,105 L31.765625,105 L32.265625,105 L32.265625,104 L31.765625,104 Z M27.765625,104 L26.765625,104 L26.265625,104 L26.265625,105 L26.765625,105 L27.765625,105 L28.265625,105 L28.265625,104 L27.765625,104 Z M23.765625,104 L22.765625,104 L22.265625,104 L22.265625,105 L22.765625,105 L23.765625,105 L24.265625,105 L24.265625,104 L23.765625,104 Z M19.765625,104 L18.765625,104 L18.265625,104 L18.265625,105 L18.765625,105 L19.765625,105 L20.265625,105 L20.265625,104 L19.765625,104 Z M15.765625,104 L14.765625,104 L14.265625,104 L14.265625,105 L14.765625,105 L15.765625,105 L16.265625,105 L16.265625,104 L15.765625,104 Z M11.765625,104 L10.765625,104 L10.265625,104 L10.265625,105 L10.765625,105 L11.765625,105 L12.265625,105 L12.265625,104 L11.765625,104 Z M7.765625,104 L6.765625,104 L6.265625,104 L6.265625,105 L6.765625,105 L7.765625,105 L8.265625,105 L8.265625,104 L7.765625,104 Z M3.765625,104 L2.765625,104 L2.265625,104 L2.265625,105 L2.765625,105 L3.765625,105 L4.265625,105 L4.265625,104 L3.765625,104 Z M1,103.765625 L1,102.765625 L1,102.265625 L0,102.265625 L0,102.765625 L0,103.765625 L0,104.265625 L1,104.265625 L1,103.765625 Z M1,99.765625 L1,98.765625 L1,98.265625 L0,98.265625 L0,98.765625 L0,99.765625 L0,100.265625 L1,100.265625 L1,99.765625 Z M1,95.765625 L1,94.765625 L1,94.265625 L0,94.265625 L0,94.765625 L0,95.765625 L0,96.265625 L1,96.265625 L1,95.765625 Z M1,91.765625 L1,90.765625 L1,90.265625 L0,90.265625 L0,90.765625 L0,91.765625 L0,92.265625 L1,92.265625 L1,91.765625 Z M1,87.765625 L1,86.765625 L1,86.265625 L0,86.265625 L0,86.765625 L0,87.765625 L0,88.265625 L1,88.265625 L1,87.765625 Z M1,83.765625 L1,82.765625 L1,82.265625 L0,82.265625 L0,82.765625 L0,83.765625 L0,84.265625 L1,84.265625 L1,83.765625 Z M1,79.765625 L1,78.765625 L1,78.265625 L0,78.265625 L0,78.765625 L0,79.765625 L0,80.265625 L1,80.265625 L1,79.765625 Z M1,75.765625 L1,74.765625 L1,74.265625 L0,74.265625 L0,74.765625 L0,75.765625 L0,76.265625 L1,76.265625 L1,75.765625 Z M1,71.765625 L1,70.765625 L1,70.265625 L0,70.265625 L0,70.765625 L0,71.765625 L0,72.265625 L1,72.265625 L1,71.765625 Z M1,67.765625 L1,66.765625 L1,66.265625 L0,66.265625 L0,66.765625 L0,67.765625 L0,68.265625 L1,68.265625 L1,67.765625 Z M1,63.765625 L1,62.765625 L1,62.265625 L0,62.265625 L0,62.765625 L0,63.765625 L0,64.265625 L1,64.265625 L1,63.765625 Z M1,59.765625 L1,58.765625 L1,58.265625 L0,58.265625 L0,58.765625 L0,59.765625 L0,60.265625 L1,60.265625 L1,59.765625 Z M1,55.765625 L1,54.765625 L1,54.265625 L0,54.265625 L0,54.765625 L0,55.765625 L0,56.265625 L1,56.265625 L1,55.765625 Z M1,51.765625 L1,50.765625 L1,50.265625 L0,50.265625 L0,50.765625 L0,51.765625 L0,52.265625 L1,52.265625 L1,51.765625 Z M1,47.765625 L1,46.765625 L1,46.265625 L0,46.265625 L0,46.765625 L0,47.765625 L0,48.265625 L1,48.265625 L1,47.765625 Z M1,43.765625 L1,42.765625 L1,42.265625 L0,42.265625 L0,42.765625 L0,43.765625 L0,44.265625 L1,44.265625 L1,43.765625 Z M1,39.765625 L1,38.765625 L1,38.265625 L0,38.265625 L0,38.765625 L0,39.765625 L0,40.265625 L1,40.265625 L1,39.765625 Z M1,35.765625 L1,34.765625 L1,34.265625 L0,34.265625 L0,34.765625 L0,35.765625 L0,36.265625 L1,36.265625 L1,35.765625 Z M1,31.765625 L1,30.765625 L1,30.265625 L0,30.265625 L0,30.765625 L0,31.765625 L0,32.265625 L1,32.265625 L1,31.765625 Z M1,27.765625 L1,26.765625 L1,26.265625 L0,26.265625 L0,26.765625 L0,27.765625 L0,28.265625 L1,28.265625 L1,27.765625 Z M1,23.765625 L1,22.765625 L1,22.265625 L0,22.265625 L0,22.765625 L0,23.765625 L0,24.265625 L1,24.265625 L1,23.765625 Z M1,19.765625 L1,18.765625 L1,18.265625 L0,18.265625 L0,18.765625 L0,19.765625 L0,20.265625 L1,20.265625 L1,19.765625 Z M1,15.765625 L1,14.765625 L1,14.265625 L0,14.265625 L0,14.765625 L0,15.765625 L0,16.265625 L1,16.265625 L1,15.765625 Z M1,11.765625 L1,10.765625 L1,10.265625 L0,10.265625 L0,10.765625 L0,11.765625 L0,12.265625 L1,12.265625 L1,11.765625 Z M1,7.765625 L1,6.765625 L1,6.265625 L0,6.265625 L0,6.765625 L0,7.765625 L0,8.265625 L1,8.265625 L1,7.765625 Z M1,3.765625 L1,2.765625 L1,2.265625 L0,2.265625 L0,2.765625 L0,3.765625 L0,4.265625 L1,4.265625 L1,3.765625 Z" id="Line" fill="#DADCE1" fill-rule="nonzero"></path>
                <path d="M1.234375,66 L2.234375,66 L2.734375,66 L2.734375,65 L2.234375,65 L1.234375,65 L0.734375,65 L0.734375,66 L1.234375,66 Z M5.234375,66 L6.234375,66 L6.734375,66 L6.734375,65 L6.234375,65 L5.234375,65 L4.734375,65 L4.734375,66 L5.234375,66 Z M9.234375,66 L10.234375,66 L10.734375,66 L10.734375,65 L10.234375,65 L9.234375,65 L8.734375,65 L8.734375,66 L9.234375,66 Z M13.234375,66 L14.234375,66 L14.734375,66 L14.734375,65 L14.234375,65 L13.234375,65 L12.734375,65 L12.734375,66 L13.234375,66 Z M17.234375,66 L18.234375,66 L18.734375,66 L18.734375,65 L18.234375,65 L17.234375,65 L16.734375,65 L16.734375,66 L17.234375,66 Z M21.234375,66 L22.234375,66 L22.734375,66 L22.734375,65 L22.234375,65 L21.234375,65 L20.734375,65 L20.734375,66 L21.234375,66 Z M25.234375,66 L26.234375,66 L26.734375,66 L26.734375,65 L26.234375,65 L25.234375,65 L24.734375,65 L24.734375,66 L25.234375,66 Z M29.234375,66 L30.234375,66 L30.734375,66 L30.734375,65 L30.234375,65 L29.234375,65 L28.734375,65 L28.734375,66 L29.234375,66 Z M33.234375,66 L34.234375,66 L34.734375,66 L34.734375,65 L34.234375,65 L33.234375,65 L32.734375,65 L32.734375,66 L33.234375,66 Z M37.234375,66 L38.234375,66 L38.734375,66 L38.734375,65 L38.234375,65 L37.234375,65 L36.734375,65 L36.734375,66 L37.234375,66 Z M41.234375,66 L42.234375,66 L42.734375,66 L42.734375,65 L42.234375,65 L41.234375,65 L40.734375,65 L40.734375,66 L41.234375,66 Z M45.234375,66 L46.234375,66 L46.734375,66 L46.734375,65 L46.234375,65 L45.234375,65 L44.734375,65 L44.734375,66 L45.234375,66 Z M49.234375,66 L50.234375,66 L50.734375,66 L50.734375,65 L50.234375,65 L49.234375,65 L48.734375,65 L48.734375,66 L49.234375,66 Z M53.234375,66 L54.234375,66 L54.734375,66 L54.734375,65 L54.234375,65 L53.234375,65 L52.734375,65 L52.734375,66 L53.234375,66 Z M57.234375,66 L58.234375,66 L58.734375,66 L58.734375,65 L58.234375,65 L57.234375,65 L56.734375,65 L56.734375,66 L57.234375,66 Z M61.234375,66 L62.234375,66 L62.734375,66 L62.734375,65 L62.234375,65 L61.234375,65 L60.734375,65 L60.734375,66 L61.234375,66 Z M65.234375,66 L66.234375,66 L66.734375,66 L66.734375,65 L66.234375,65 L65.234375,65 L64.734375,65 L64.734375,66 L65.234375,66 Z M69.234375,66 L70.234375,66 L70.734375,66 L70.734375,65 L70.234375,65 L69.234375,65 L68.734375,65 L68.734375,66 L69.234375,66 Z M73.234375,66 L74.234375,66 L74.734375,66 L74.734375,65 L74.234375,65 L73.234375,65 L72.734375,65 L72.734375,66 L73.234375,66 Z M77.234375,66 L78.234375,66 L78.734375,66 L78.734375,65 L78.234375,65 L77.234375,65 L76.734375,65 L76.734375,66 L77.234375,66 Z M81.234375,66 L82.234375,66 L82.734375,66 L82.734375,65 L82.234375,65 L81.234375,65 L80.734375,65 L80.734375,66 L81.234375,66 Z M85.234375,66 L86.234375,66 L86.734375,66 L86.734375,65 L86.234375,65 L85.234375,65 L84.734375,65 L84.734375,66 L85.234375,66 Z M89.234375,66 L90.234375,66 L90.734375,66 L90.734375,65 L90.234375,65 L89.234375,65 L88.734375,65 L88.734375,66 L89.234375,66 Z M93.234375,66 L94.234375,66 L94.734375,66 L94.734375,65 L94.234375,65 L93.234375,65 L92.734375,65 L92.734375,66 L93.234375,66 Z M97.234375,66 L98.234375,66 L98.734375,66 L98.734375,65 L98.234375,65 L97.234375,65 L96.734375,65 L96.734375,66 L97.234375,66 Z M101.234375,66 L102.234375,66 L102.734375,66 L102.734375,65 L102.234375,65 L101.234375,65 L100.734375,65 L100.734375,66 L101.234375,66 Z M105.234375,66 L106.234375,66 L106.734375,66 L106.734375,65 L106.234375,65 L105.234375,65 L104.734375,65 L104.734375,66 L105.234375,66 Z M109.234375,66 L110.234375,66 L110.734375,66 L110.734375,65 L110.234375,65 L109.234375,65 L108.734375,65 L108.734375,66 L109.234375,66 Z M113.234375,66 L114.234375,66 L114.734375,66 L114.734375,65 L114.234375,65 L113.234375,65 L112.734375,65 L112.734375,66 L113.234375,66 Z M117.234375,66 L118.234375,66 L118.734375,66 L118.734375,65 L118.234375,65 L117.234375,65 L116.734375,65 L116.734375,66 L117.234375,66 Z M121.234375,66 L122.234375,66 L122.734375,66 L122.734375,65 L122.234375,65 L121.234375,65 L120.734375,65 L120.734375,66 L121.234375,66 Z M125.234375,66 L126.234375,66 L126.734375,66 L126.734375,65 L126.234375,65 L125.234375,65 L124.734375,65 L124.734375,66 L125.234375,66 Z M129.234375,66 L130.234375,66 L130.734375,66 L130.734375,65 L130.234375,65 L129.234375,65 L128.734375,65 L128.734375,66 L129.234375,66 Z M133.234375,66 L134.234375,66 L134.734375,66 L134.734375,65 L134.234375,65 L133.234375,65 L132.734375,65 L132.734375,66 L133.234375,66 Z M137.234375,66 L138.234375,66 L138.734375,66 L138.734375,65 L138.234375,65 L137.234375,65 L136.734375,65 L136.734375,66 L137.234375,66 Z M141.234375,66 L142.234375,66 L142.734375,66 L142.734375,65 L142.234375,65 L141.234375,65 L140.734375,65 L140.734375,66 L141.234375,66 Z M145.234375,66 L146.234375,66 L146.734375,66 L146.734375,65 L146.234375,65 L145.234375,65 L144.734375,65 L144.734375,66 L145.234375,66 Z M149.234375,66 L150.234375,66 L150.734375,66 L150.734375,65 L150.234375,65 L149.234375,65 L148.734375,65 L148.734375,66 L149.234375,66 Z M153.234375,66 L154.234375,66 L154.734375,66 L154.734375,65 L154.234375,65 L153.234375,65 L152.734375,65 L152.734375,66 L153.234375,66 Z M157.234375,66 L158.234375,66 L158.734375,66 L158.734375,65 L158.234375,65 L157.234375,65 L156.734375,65 L156.734375,66 L157.234375,66 Z M161.234375,66 L162.234375,66 L162.734375,66 L162.734375,65 L162.234375,65 L161.234375,65 L160.734375,65 L160.734375,66 L161.234375,66 Z M165.234375,66 L166.234375,66 L166.734375,66 L166.734375,65 L166.234375,65 L165.234375,65 L164.734375,65 L164.734375,66 L165.234375,66 Z M169.234375,66 L170.234375,66 L170.734375,66 L170.734375,65 L170.234375,65 L169.234375,65 L168.734375,65 L168.734375,66 L169.234375,66 Z M173.234375,66 L174.234375,66 L174.734375,66 L174.734375,65 L174.234375,65 L173.234375,65 L172.734375,65 L172.734375,66 L173.234375,66 Z M177.234375,66 L178.234375,66 L178.734375,66 L178.734375,65 L178.234375,65 L177.234375,65 L176.734375,65 L176.734375,66 L177.234375,66 Z M181.234375,66 L182.234375,66 L182.734375,66 L182.734375,65 L182.234375,65 L181.234375,65 L180.734375,65 L180.734375,66 L181.234375,66 Z M185.234375,66 L186.234375,66 L186.734375,66 L186.734375,65 L186.234375,65 L185.234375,65 L184.734375,65 L184.734375,66 L185.234375,66 Z M189.234375,66 L190.234375,66 L190.734375,66 L190.734375,65 L190.234375,65 L189.234375,65 L188.734375,65 L188.734375,66 L189.234375,66 Z M193.234375,66 L194.234375,66 L194.734375,66 L194.734375,65 L194.234375,65 L193.234375,65 L192.734375,65 L192.734375,66 L193.234375,66 Z M197.234375,66 L198.234375,66 L198.734375,66 L198.734375,65 L198.234375,65 L197.234375,65 L196.734375,65 L196.734375,66 L197.234375,66 Z M201.234375,66 L202.234375,66 L202.734375,66 L202.734375,65 L202.234375,65 L201.234375,65 L200.734375,65 L200.734375,66 L201.234375,66 Z M205.234375,66 L206.234375,66 L206.734375,66 L206.734375,65 L206.234375,65 L205.234375,65 L204.734375,65 L204.734375,66 L205.234375,66 Z M209.234375,66 L210.234375,66 L210.734375,66 L210.734375,65 L210.234375,65 L209.234375,65 L208.734375,65 L208.734375,66 L209.234375,66 Z M213.234375,66 L214.234375,66 L214.734375,66 L214.734375,65 L214.234375,65 L213.234375,65 L212.734375,65 L212.734375,66 L213.234375,66 Z M217.234375,66 L218.234375,66 L218.734375,66 L218.734375,65 L218.234375,65 L217.234375,65 L216.734375,65 L216.734375,66 L217.234375,66 Z M221.234375,66 L222.234375,66 L222.734375,66 L222.734375,65 L222.234375,65 L221.234375,65 L220.734375,65 L220.734375,66 L221.234375,66 Z M225.234375,66 L226.234375,66 L226.734375,66 L226.734375,65 L226.234375,65 L225.234375,65 L224.734375,65 L224.734375,66 L225.234375,66 Z M229.234375,66 L230.234375,66 L230.734375,66 L230.734375,65 L230.234375,65 L229.234375,65 L228.734375,65 L228.734375,66 L229.234375,66 Z M233.234375,66 L234.234375,66 L234.734375,66 L234.734375,65 L234.234375,65 L233.234375,65 L232.734375,65 L232.734375,66 L233.234375,66 Z M237.234375,66 L238.234375,66 L238.734375,66 L238.734375,65 L238.234375,65 L237.234375,65 L236.734375,65 L236.734375,66 L237.234375,66 Z" id="Line" fill="#DADCE1" fill-rule="nonzero"></path>
                <path d="M1.234375,83 L2.234375,83 L2.734375,83 L2.734375,82 L2.234375,82 L1.234375,82 L0.734375,82 L0.734375,83 L1.234375,83 Z M5.234375,83 L6.234375,83 L6.734375,83 L6.734375,82 L6.234375,82 L5.234375,82 L4.734375,82 L4.734375,83 L5.234375,83 Z M9.234375,83 L10.234375,83 L10.734375,83 L10.734375,82 L10.234375,82 L9.234375,82 L8.734375,82 L8.734375,83 L9.234375,83 Z M13.234375,83 L14.234375,83 L14.734375,83 L14.734375,82 L14.234375,82 L13.234375,82 L12.734375,82 L12.734375,83 L13.234375,83 Z M17.234375,83 L18.234375,83 L18.734375,83 L18.734375,82 L18.234375,82 L17.234375,82 L16.734375,82 L16.734375,83 L17.234375,83 Z M21.234375,83 L22.234375,83 L22.734375,83 L22.734375,82 L22.234375,82 L21.234375,82 L20.734375,82 L20.734375,83 L21.234375,83 Z M25.234375,83 L26.234375,83 L26.734375,83 L26.734375,82 L26.234375,82 L25.234375,82 L24.734375,82 L24.734375,83 L25.234375,83 Z M29.234375,83 L30.234375,83 L30.734375,83 L30.734375,82 L30.234375,82 L29.234375,82 L28.734375,82 L28.734375,83 L29.234375,83 Z M33.234375,83 L34.234375,83 L34.734375,83 L34.734375,82 L34.234375,82 L33.234375,82 L32.734375,82 L32.734375,83 L33.234375,83 Z M37.234375,83 L38.234375,83 L38.734375,83 L38.734375,82 L38.234375,82 L37.234375,82 L36.734375,82 L36.734375,83 L37.234375,83 Z M41.234375,83 L42.234375,83 L42.734375,83 L42.734375,82 L42.234375,82 L41.234375,82 L40.734375,82 L40.734375,83 L41.234375,83 Z M45.234375,83 L46.234375,83 L46.734375,83 L46.734375,82 L46.234375,82 L45.234375,82 L44.734375,82 L44.734375,83 L45.234375,83 Z M49.234375,83 L50.234375,83 L50.734375,83 L50.734375,82 L50.234375,82 L49.234375,82 L48.734375,82 L48.734375,83 L49.234375,83 Z M53.234375,83 L54.234375,83 L54.734375,83 L54.734375,82 L54.234375,82 L53.234375,82 L52.734375,82 L52.734375,83 L53.234375,83 Z M57.234375,83 L58.234375,83 L58.734375,83 L58.734375,82 L58.234375,82 L57.234375,82 L56.734375,82 L56.734375,83 L57.234375,83 Z M61.234375,83 L62.234375,83 L62.734375,83 L62.734375,82 L62.234375,82 L61.234375,82 L60.734375,82 L60.734375,83 L61.234375,83 Z M65.234375,83 L66.234375,83 L66.734375,83 L66.734375,82 L66.234375,82 L65.234375,82 L64.734375,82 L64.734375,83 L65.234375,83 Z M69.234375,83 L70.234375,83 L70.734375,83 L70.734375,82 L70.234375,82 L69.234375,82 L68.734375,82 L68.734375,83 L69.234375,83 Z M73.234375,83 L74.234375,83 L74.734375,83 L74.734375,82 L74.234375,82 L73.234375,82 L72.734375,82 L72.734375,83 L73.234375,83 Z M77.234375,83 L78.234375,83 L78.734375,83 L78.734375,82 L78.234375,82 L77.234375,82 L76.734375,82 L76.734375,83 L77.234375,83 Z M81.234375,83 L82.234375,83 L82.734375,83 L82.734375,82 L82.234375,82 L81.234375,82 L80.734375,82 L80.734375,83 L81.234375,83 Z M85.234375,83 L86.234375,83 L86.734375,83 L86.734375,82 L86.234375,82 L85.234375,82 L84.734375,82 L84.734375,83 L85.234375,83 Z M89.234375,83 L90.234375,83 L90.734375,83 L90.734375,82 L90.234375,82 L89.234375,82 L88.734375,82 L88.734375,83 L89.234375,83 Z M93.234375,83 L94.234375,83 L94.734375,83 L94.734375,82 L94.234375,82 L93.234375,82 L92.734375,82 L92.734375,83 L93.234375,83 Z M97.234375,83 L98.234375,83 L98.734375,83 L98.734375,82 L98.234375,82 L97.234375,82 L96.734375,82 L96.734375,83 L97.234375,83 Z M101.234375,83 L102.234375,83 L102.734375,83 L102.734375,82 L102.234375,82 L101.234375,82 L100.734375,82 L100.734375,83 L101.234375,83 Z M105.234375,83 L106.234375,83 L106.734375,83 L106.734375,82 L106.234375,82 L105.234375,82 L104.734375,82 L104.734375,83 L105.234375,83 Z M109.234375,83 L110.234375,83 L110.734375,83 L110.734375,82 L110.234375,82 L109.234375,82 L108.734375,82 L108.734375,83 L109.234375,83 Z M113.234375,83 L114.234375,83 L114.734375,83 L114.734375,82 L114.234375,82 L113.234375,82 L112.734375,82 L112.734375,83 L113.234375,83 Z M117.234375,83 L118.234375,83 L118.734375,83 L118.734375,82 L118.234375,82 L117.234375,82 L116.734375,82 L116.734375,83 L117.234375,83 Z M121.234375,83 L122.234375,83 L122.734375,83 L122.734375,82 L122.234375,82 L121.234375,82 L120.734375,82 L120.734375,83 L121.234375,83 Z M125.234375,83 L126.234375,83 L126.734375,83 L126.734375,82 L126.234375,82 L125.234375,82 L124.734375,82 L124.734375,83 L125.234375,83 Z M129.234375,83 L130.234375,83 L130.734375,83 L130.734375,82 L130.234375,82 L129.234375,82 L128.734375,82 L128.734375,83 L129.234375,83 Z M133.234375,83 L134.234375,83 L134.734375,83 L134.734375,82 L134.234375,82 L133.234375,82 L132.734375,82 L132.734375,83 L133.234375,83 Z M137.234375,83 L138.234375,83 L138.734375,83 L138.734375,82 L138.234375,82 L137.234375,82 L136.734375,82 L136.734375,83 L137.234375,83 Z M141.234375,83 L142.234375,83 L142.734375,83 L142.734375,82 L142.234375,82 L141.234375,82 L140.734375,82 L140.734375,83 L141.234375,83 Z M145.234375,83 L146.234375,83 L146.734375,83 L146.734375,82 L146.234375,82 L145.234375,82 L144.734375,82 L144.734375,83 L145.234375,83 Z M149.234375,83 L150.234375,83 L150.734375,83 L150.734375,82 L150.234375,82 L149.234375,82 L148.734375,82 L148.734375,83 L149.234375,83 Z M153.234375,83 L154.234375,83 L154.734375,83 L154.734375,82 L154.234375,82 L153.234375,82 L152.734375,82 L152.734375,83 L153.234375,83 Z M157.234375,83 L158.234375,83 L158.734375,83 L158.734375,82 L158.234375,82 L157.234375,82 L156.734375,82 L156.734375,83 L157.234375,83 Z M161.234375,83 L162.234375,83 L162.734375,83 L162.734375,82 L162.234375,82 L161.234375,82 L160.734375,82 L160.734375,83 L161.234375,83 Z M165.234375,83 L166.234375,83 L166.734375,83 L166.734375,82 L166.234375,82 L165.234375,82 L164.734375,82 L164.734375,83 L165.234375,83 Z M169.234375,83 L170.234375,83 L170.734375,83 L170.734375,82 L170.234375,82 L169.234375,82 L168.734375,82 L168.734375,83 L169.234375,83 Z M173.234375,83 L174.234375,83 L174.734375,83 L174.734375,82 L174.234375,82 L173.234375,82 L172.734375,82 L172.734375,83 L173.234375,83 Z M177.234375,83 L178.234375,83 L178.734375,83 L178.734375,82 L178.234375,82 L177.234375,82 L176.734375,82 L176.734375,83 L177.234375,83 Z M181.234375,83 L182.234375,83 L182.734375,83 L182.734375,82 L182.234375,82 L181.234375,82 L180.734375,82 L180.734375,83 L181.234375,83 Z M185.234375,83 L186.234375,83 L186.734375,83 L186.734375,82 L186.234375,82 L185.234375,82 L184.734375,82 L184.734375,83 L185.234375,83 Z M189.234375,83 L190.234375,83 L190.734375,83 L190.734375,82 L190.234375,82 L189.234375,82 L188.734375,82 L188.734375,83 L189.234375,83 Z M193.234375,83 L194.234375,83 L194.734375,83 L194.734375,82 L194.234375,82 L193.234375,82 L192.734375,82 L192.734375,83 L193.234375,83 Z M197.234375,83 L198.234375,83 L198.734375,83 L198.734375,82 L198.234375,82 L197.234375,82 L196.734375,82 L196.734375,83 L197.234375,83 Z M201.234375,83 L202.234375,83 L202.734375,83 L202.734375,82 L202.234375,82 L201.234375,82 L200.734375,82 L200.734375,83 L201.234375,83 Z M205.234375,83 L206.234375,83 L206.734375,83 L206.734375,82 L206.234375,82 L205.234375,82 L204.734375,82 L204.734375,83 L205.234375,83 Z M209.234375,83 L210.234375,83 L210.734375,83 L210.734375,82 L210.234375,82 L209.234375,82 L208.734375,82 L208.734375,83 L209.234375,83 Z M213.234375,83 L214.234375,83 L214.734375,83 L214.734375,82 L214.234375,82 L213.234375,82 L212.734375,82 L212.734375,83 L213.234375,83 Z M217.234375,83 L218.234375,83 L218.734375,83 L218.734375,82 L218.234375,82 L217.234375,82 L216.734375,82 L216.734375,83 L217.234375,83 Z M221.234375,83 L222.234375,83 L222.734375,83 L222.734375,82 L222.234375,82 L221.234375,82 L220.734375,82 L220.734375,83 L221.234375,83 Z M225.234375,83 L226.234375,83 L226.734375,83 L226.734375,82 L226.234375,82 L225.234375,82 L224.734375,82 L224.734375,83 L225.234375,83 Z M229.234375,83 L230.234375,83 L230.734375,83 L230.734375,82 L230.234375,82 L229.234375,82 L228.734375,82 L228.734375,83 L229.234375,83 Z M233.234375,83 L234.234375,83 L234.734375,83 L234.734375,82 L234.234375,82 L233.234375,82 L232.734375,82 L232.734375,83 L233.234375,83 Z M237.234375,83 L238.234375,83 L238.734375,83 L238.734375,82 L238.234375,82 L237.234375,82 L236.734375,82 L236.734375,83 L237.234375,83 Z" id="Line" fill="#DADCE1" fill-rule="nonzero"></path>
                <path d="M148.895536,52.4011086 L151.459569,44.1940291 L156.689127,44.1940291 L151.91978,59.9602933 L151.62886,60.803585 C150.778703,63.0652523 148.877045,64.6477612 146.619135,64.6526975 L146.599,64.6526975 C146.59859,64.6526975 146.597768,64.6526975 146.596946,64.6526975 C146.596124,64.6526975 146.595302,64.6526975 146.594481,64.6526975 L146.59407,64.6526975 L146.575168,64.6526975 L146.574346,64.6526975 C146.573525,64.6526975 146.573114,64.6526975 146.572292,64.6526975 L146.571881,64.6526975 C146.57147,64.6526975 146.570237,64.6526975 146.569826,64.6526975 L146.549692,64.6526975 C144.291782,64.6477612 142.390124,63.0652523 141.539966,60.803585 L141.249047,59.9602933 L136.4797,44.1940291 L141.709258,44.1940291 L144.273291,52.4011086 L146.559554,59.7188239 L146.584208,59.7188239 L146.584208,59.7192353 L146.584619,59.7188239 L146.609273,59.7188239 L148.895536,52.4011086 Z M190.198078,64.4117629 L190.198078,44.1649458 L195.598984,44.1649458 L195.598984,64.4940353 C195.598984,68.1983484 192.598983,71.2012896 188.898393,71.2012896 L186.52091,71.2012896 L186.52091,66.5232831 L188.088504,66.5232831 C189.253413,66.5232831 190.198078,65.5779736 190.198078,64.4117629 Z M216.997851,55.5220696 C217.35698,56.1588576 217.535723,56.9429133 217.530792,57.8750591 C217.524218,59.1959419 217.253022,60.3020938 216.718848,61.1931035 C216.183853,62.0841132 215.488606,62.7994714 214.632695,63.3395895 C213.775141,63.8792962 212.797193,64.2569263 211.697206,64.4712458 C210.595165,64.6859767 209.475866,64.7908739 208.338077,64.7855262 C207.173168,64.7797672 206.035789,64.6575927 204.924708,64.4194142 C203.812805,64.1808244 202.825406,63.7871511 201.960867,63.2396285 C201.096738,62.6912832 200.389164,61.9689319 199.837322,61.0729859 C199.285068,60.1762171 198.986342,59.0552562 198.941965,57.7076349 L204.180563,57.7331393 C204.178098,58.3292026 204.298081,58.8405253 204.542158,59.2691643 C204.785001,59.6978033 205.100985,60.0491063 205.487234,60.3230733 C205.874304,60.5966289 206.319723,60.7998416 206.8239,60.9314774 C207.327667,61.0639359 207.851157,61.1309879 208.394781,61.1338674 C208.782674,61.1355129 209.189878,61.0927312 209.617217,61.0034657 C210.044556,60.9150229 210.43327,60.7743372 210.78377,60.5818199 C211.133859,60.3893025 211.426422,60.1322014 211.661047,59.808871 C211.895262,59.4863634 212.014012,59.0791152 212.016478,58.5867151 C212.020587,57.7582324 211.473675,57.1337851 210.376154,56.7137847 C209.277811,56.294607 207.746377,55.8725498 205.783084,55.4484358 C204.981413,55.2637343 204.199465,55.0461239 203.438473,54.796016 C202.675838,54.5467307 201.998259,54.2192867 201.405326,53.814918 C200.811572,53.4105494 200.335747,52.9033403 199.976618,52.292468 C199.617078,51.6828298 199.439979,50.9370308 199.444088,50.0563051 C199.450662,48.7613382 199.707887,47.7008474 200.215763,46.8740102 C200.724461,46.0479956 201.393821,45.3972213 202.223845,44.921687 C203.054279,44.4465641 203.987439,44.1145951 205.023325,43.9249573 C206.0588,43.7357309 207.120572,43.6439972 208.206999,43.6493449 C209.293837,43.6542812 210.34698,43.7632921 211.368895,43.9751435 C212.389578,44.1878175 213.299316,44.542 214.099344,45.037691 C214.89896,45.533382 215.562157,46.1903268 216.088524,47.0093482 C216.614479,47.8275468 216.926765,48.8588309 217.02456,50.1023777 L211.78514,50.0772846 C211.712821,49.014737 211.315067,48.2944425 210.5927,47.9147555 C209.869511,47.5363027 209.016888,47.3441967 208.034009,47.3392604 C207.723366,47.3376149 207.386426,47.3553035 207.024832,47.3927374 C206.662005,47.42976 206.331639,47.5128551 206.033734,47.6403772 C205.73583,47.7687221 205.482303,47.955069 205.274386,48.2002406 C205.066059,48.4454123 204.961278,48.7753245 204.959224,49.1891544 C204.956348,49.6815545 205.135501,50.0838664 205.496274,50.3965014 C205.857046,50.708725 206.328352,50.9633579 206.909368,51.1604003 C207.490385,51.3578539 208.155636,51.5355622 208.905944,51.6947593 C209.655431,51.8539563 210.417655,52.0263169 211.192618,52.210607 C211.993467,52.3965425 212.775415,52.6203233 213.53764,52.8827722 C214.299453,53.1456324 214.97621,53.491999 215.570375,53.9218721 C216.162897,54.3525679 216.639133,54.8861042 216.997851,55.5220696 Z M183.346769,43.7679405 C185.085298,43.7761678 186.48812,45.1941319 186.479902,46.9346038 C186.471273,48.6754869 185.054891,50.0794648 183.316362,50.0712376 L183.193502,50.0704149 C181.454973,50.0621876 180.05174,48.6442235 180.06078,46.9037516 C180.068587,45.1632798 181.48538,43.7588906 183.223909,43.7675292 L183.346769,43.7679405 Z M192.903051,34.1840741 C194.641991,34.1927127 196.044813,35.6106769 196.036595,37.3515601 C196.027966,39.0924433 194.611584,40.4972439 192.872644,40.4886053 L192.749784,40.4881939 C191.010844,40.4795553 189.607611,39.0615911 189.61624,37.320708 C189.624458,35.5798248 191.041251,34.1754355 192.780191,34.1836628 L192.903051,34.1840741 Z M121.21902,52.0534256 L130.183273,52.0966186 C129.931801,50.6967544 129.478164,49.6333841 128.821131,48.9044509 C128.164919,48.1767519 127.164371,47.8085831 125.819075,47.8020013 C124.939744,47.7978877 124.207515,47.9439211 123.624033,48.2384562 C123.040551,48.5334026 122.573355,48.9003373 122.221622,49.338849 C121.8703,49.7777721 121.621704,50.2430223 121.477888,50.7337769 C121.332429,51.2253543 121.246139,51.6651001 121.21902,52.0534256 Z M133.563359,47.3346943 C134.373659,48.4527757 134.955497,49.724295 135.311339,51.1500751 C135.666359,52.5766778 135.788397,54.0666303 135.677864,55.6203439 L121.201762,55.550001 C121.271204,57.3377795 121.717856,58.635626 122.541715,59.4418951 C123.365986,60.248987 124.553906,60.6562352 126.106707,60.6636397 C127.21861,60.6689874 128.177657,60.3954318 128.982204,59.8421502 C129.786752,59.2892799 130.280657,58.702678 130.465563,58.0815216 L135.316681,58.1049693 C134.528569,60.5097904 133.329555,62.227226 131.720871,63.2552192 C130.111365,64.2836237 128.168206,64.7916555 125.891805,64.7805488 C124.313528,64.7731442 122.891805,64.5139863 121.627457,64.0026636 C120.361466,63.4917522 119.291886,62.767344 118.416663,61.8310846 C117.541851,60.8940023 116.86756,59.7775664 116.395844,58.4797199 C115.922484,57.1826961 115.690735,55.7565047 115.69772,54.2027911 C115.705527,52.7009091 115.957411,51.303513 116.456246,50.0106029 C116.953439,48.718104 117.656904,47.6012567 118.567054,46.6596495 C119.477203,45.7188651 120.560754,44.9792365 121.818116,44.4415866 C123.075478,43.9035254 124.467616,43.638197 125.99412,43.6456015 C127.702243,43.6542401 129.188478,43.9915568 130.452414,44.6579629 C131.716762,45.3247804 132.75388,46.2170242 133.563359,47.3346943 Z M172.342671,56.6252185 C172.502101,55.8621424 172.58346,55.0789095 172.587569,54.2759312 C172.590856,53.4733643 172.517305,52.6823156 172.366093,51.9044304 C172.21447,51.1265452 171.951903,50.4395709 171.580447,49.8418622 C171.207758,49.2445649 170.705635,48.7566898 170.074077,48.3778255 C169.441287,47.9993727 168.660161,47.8072667 167.728645,47.8027417 C166.797539,47.7982167 166.020111,47.9829182 165.397594,48.3552006 C164.775076,48.7278944 164.273775,49.2108332 163.896155,49.8048397 C163.517714,50.3992575 163.250216,51.0833522 163.090375,51.8600033 C162.932178,52.636243 162.849997,53.4260577 162.846299,54.2286246 C162.84219,55.0316029 162.916563,55.8160698 163.067775,56.5803801 C163.219809,57.3451017 163.481144,58.03331 163.854243,58.6433596 C164.225699,59.2538205 164.721659,59.742107 165.340478,60.1073963 C165.96012,60.4735083 166.735493,60.6582098 167.666188,60.6627347 C168.598115,60.6672597 169.381295,60.4899628 170.016962,60.1304325 C170.652628,59.7709023 171.159682,59.2875522 171.538124,58.6803822 C171.914922,58.0740348 172.184063,57.3882947 172.342671,56.6252185 Z M175.302403,46.5768835 C176.203513,47.5008022 176.896295,48.6184722 177.381571,49.9278369 C177.866436,51.2384356 178.105993,52.6967132 178.098185,54.3026697 C178.090378,55.9086263 177.837262,57.3578539 177.339659,58.6499414 C176.841645,59.9432629 176.137769,61.047358 175.22803,61.9618153 C174.317881,62.8770954 173.221592,63.5780559 171.939165,64.0634628 C170.656327,64.5488698 169.22392,64.7886937 167.646053,64.7808778 C166.068187,64.7734733 164.646464,64.5200745 163.381705,64.0219153 C162.115303,63.5241675 161.032574,62.8129229 160.131465,61.8885929 C159.230766,60.965497 158.537573,59.8548201 158.052708,58.5569736 C157.567432,57.2595385 157.328697,55.808254 157.336094,54.2022975 C157.343901,52.5963409 157.596606,51.1405315 158.094209,49.8348691 C158.591812,48.5296181 159.296099,47.4193525 160.205838,46.5040725 C161.115988,45.5892038 162.205702,44.8816615 163.476213,44.3826796 C164.745902,43.8836977 166.170502,43.6381147 167.748779,43.6455192 C169.326234,43.6533351 170.755354,43.9129044 172.033262,44.4238158 C173.31158,44.9355499 174.400883,45.6533763 175.302403,46.5768835 Z M99.7264661,48.257749 C99.7264661,46.0108908 101.545943,44.1893807 103.790294,44.1893807 L113.846316,44.1893807 L113.846316,49.5592978 L105.237082,49.5592978 L105.237082,64.3341801 L99.7264661,64.3341801 L99.7264661,48.257749 Z M42.652738,57.7940209 L42.652738,64.8529896 L49.7038284,64.8529896 L49.7038284,57.7940209 L49.7038284,50.7350521 L56.7545079,50.7350521 L63.8055983,50.7350521 L63.8055983,43.6764948 L56.7545079,43.6764948 L49.7038284,43.6764948 L42.652738,43.6764948 L42.652738,50.7350521 L42.652738,57.7940209 Z M21.4998777,40.1470104 L39.1271928,22.5 L81.4329134,22.5 L81.4329134,64.8529896 L63.8055983,82.5 L21.4998777,82.5 L21.4998777,40.1470104 Z" id="Combined-Shape" fill="#F45919"></path>
            </g>
        </g>
    </g>
</svg>