<?xml version="1.0" encoding="UTF-8"?>
<svg width="103px" height="105px" viewBox="0 0 103 105" version="1.1" xmlns="http://www.w3.org/2000/svg" xmlns:xlink="http://www.w3.org/1999/xlink">
    <!-- Generator: Sketch 54.1 (76490) - https://sketchapp.com -->
    <title>04.symbol_diagram</title>
    <desc>Created with Sketch.</desc>
    <g id="FINAL" stroke="none" stroke-width="1" fill="none" fill-rule="evenodd">
        <g id="Press-Info" transform="translate(-644.000000, -1333.000000)">
            <g id="04.symbol_diagram" transform="translate(644.000000, 1333.000000)">
                <path d="M11,0 C17.0751322,0 22,4.92486775 22,11 L22,12 C22,18.0751322 17.0751322,23 11,23 C4.92486775,23 0,18.0751322 0,12 L0,11 C0,4.92486775 4.92486775,0 11,0 Z M11,1 C5.4771525,1 1,5.4771525 1,11 L1,12 C1,17.5228475 5.4771525,22 11,22 C16.5228475,22 21,17.5228475 21,12 L21,11 C21,5.4771525 16.5228475,1 11,1 Z" id="Rectangle" fill="#DADCE1" fill-rule="nonzero"></path>
                <path d="M92,0 C98.0751322,0 103,4.92486775 103,11 L103,12 C103,18.0751322 98.0751322,23 92,23 C85.9248678,23 81,18.0751322 81,12 L81,11 C81,4.92486775 85.9248678,0 92,0 Z M92,1 C86.4771525,1 82,5.4771525 82,11 L82,12 C82,17.5228475 86.4771525,22 92,22 C97.5228475,22 102,17.5228475 102,12 L102,11 C102,5.4771525 97.5228475,1 92,1 Z" id="Rectangle" fill="#DADCE1" fill-rule="nonzero"></path>
                <path d="M11,82 C17.0751322,82 22,86.9248678 22,93 L22,94 C22,100.075132 17.0751322,105 11,105 C4.92486775,105 0,100.075132 0,94 L0,93 C0,86.9248678 4.92486775,82 11,82 Z M11,83 C5.4771525,83 1,87.4771525 1,93 L1,94 C1,99.5228475 5.4771525,104 11,104 C16.5228475,104 21,99.5228475 21,94 L21,93 C21,87.4771525 16.5228475,83 11,83 Z" id="Rectangle" fill="#DADCE1" fill-rule="nonzero"></path>
                <path d="M92,82 C98.0751322,82 103,86.9248678 103,93 L103,94 C103,100.075132 98.0751322,105 92,105 C85.9248678,105 81,100.075132 81,94 L81,93 C81,86.9248678 85.9248678,82 92,82 Z M92,83 C86.4771525,83 82,87.4771525 82,93 L82,94 C82,99.5228475 86.4771525,104 92,104 C97.5228475,104 102,99.5228475 102,94 L102,93 C102,87.4771525 97.5228475,83 92,83 Z" id="Rectangle" fill="#DADCE1" fill-rule="nonzero"></path>
                <path d="M1.234375,23 L2.234375,23 L2.734375,23 L2.734375,22 L2.234375,22 L1.234375,22 L0.734375,22 L0.734375,23 L1.234375,23 Z M5.234375,23 L6.234375,23 L6.734375,23 L6.734375,22 L6.234375,22 L5.234375,22 L4.734375,22 L4.734375,23 L5.234375,23 Z M9.234375,23 L10.234375,23 L10.734375,23 L10.734375,22 L10.234375,22 L9.234375,22 L8.734375,22 L8.734375,23 L9.234375,23 Z M13.234375,23 L14.234375,23 L14.734375,23 L14.734375,22 L14.234375,22 L13.234375,22 L12.734375,22 L12.734375,23 L13.234375,23 Z M17.234375,23 L18.234375,23 L18.734375,23 L18.734375,22 L18.234375,22 L17.234375,22 L16.734375,22 L16.734375,23 L17.234375,23 Z M21.234375,23 L22.234375,23 L22.734375,23 L22.734375,22 L22.234375,22 L21.234375,22 L20.734375,22 L20.734375,23 L21.234375,23 Z M25.234375,23 L26.234375,23 L26.734375,23 L26.734375,22 L26.234375,22 L25.234375,22 L24.734375,22 L24.734375,23 L25.234375,23 Z M29.234375,23 L30.234375,23 L30.734375,23 L30.734375,22 L30.234375,22 L29.234375,22 L28.734375,22 L28.734375,23 L29.234375,23 Z M33.234375,23 L34.234375,23 L34.734375,23 L34.734375,22 L34.234375,22 L33.234375,22 L32.734375,22 L32.734375,23 L33.234375,23 Z M37.234375,23 L38.234375,23 L38.734375,23 L38.734375,22 L38.234375,22 L37.234375,22 L36.734375,22 L36.734375,23 L37.234375,23 Z M41.234375,23 L42.234375,23 L42.734375,23 L42.734375,22 L42.234375,22 L41.234375,22 L40.734375,22 L40.734375,23 L41.234375,23 Z M45.234375,23 L46.234375,23 L46.734375,23 L46.734375,22 L46.234375,22 L45.234375,22 L44.734375,22 L44.734375,23 L45.234375,23 Z M49.234375,23 L50.234375,23 L50.734375,23 L50.734375,22 L50.234375,22 L49.234375,22 L48.734375,22 L48.734375,23 L49.234375,23 Z M53.234375,23 L54.234375,23 L54.734375,23 L54.734375,22 L54.234375,22 L53.234375,22 L52.734375,22 L52.734375,23 L53.234375,23 Z M57.234375,23 L58.234375,23 L58.734375,23 L58.734375,22 L58.234375,22 L57.234375,22 L56.734375,22 L56.734375,23 L57.234375,23 Z M61.234375,23 L62.234375,23 L62.734375,23 L62.734375,22 L62.234375,22 L61.234375,22 L60.734375,22 L60.734375,23 L61.234375,23 Z M65.234375,23 L66.234375,23 L66.734375,23 L66.734375,22 L66.234375,22 L65.234375,22 L64.734375,22 L64.734375,23 L65.234375,23 Z M69.234375,23 L70.234375,23 L70.734375,23 L70.734375,22 L70.234375,22 L69.234375,22 L68.734375,22 L68.734375,23 L69.234375,23 Z M73.234375,23 L74.234375,23 L74.734375,23 L74.734375,22 L74.234375,22 L73.234375,22 L72.734375,22 L72.734375,23 L73.234375,23 Z M77.234375,23 L78.234375,23 L78.734375,23 L78.734375,22 L78.234375,22 L77.234375,22 L76.734375,22 L76.734375,23 L77.234375,23 Z M81.234375,23 L82.234375,23 L82.734375,23 L82.734375,22 L82.234375,22 L81.234375,22 L80.734375,22 L80.734375,23 L81.234375,23 Z M85.234375,23 L86.234375,23 L86.734375,23 L86.734375,22 L86.234375,22 L85.234375,22 L84.734375,22 L84.734375,23 L85.234375,23 Z M89.234375,23 L90.234375,23 L90.734375,23 L90.734375,22 L90.234375,22 L89.234375,22 L88.734375,22 L88.734375,23 L89.234375,23 Z M93.234375,23 L94.234375,23 L94.734375,23 L94.734375,22 L94.234375,22 L93.234375,22 L92.734375,22 L92.734375,23 L93.234375,23 Z M97.234375,23 L98.234375,23 L98.734375,23 L98.734375,22 L98.234375,22 L97.234375,22 L96.734375,22 L96.734375,23 L97.234375,23 Z M101.234375,23 L102.234375,23 L102.734375,23 L102.734375,22 L102.234375,22 L101.234375,22 L100.734375,22 L100.734375,23 L101.234375,23 Z" id="Line" fill="#DADCE1" fill-rule="nonzero"></path>
                <path d="M0.814732143,1 L1.81473214,1 L2.31473214,1 L2.31473214,0 L1.81473214,0 L0.814732143,0 L0.314732143,0 L0.314732143,1 L0.814732143,1 Z M4.81473214,1 L5.81473214,1 L6.31473214,1 L6.31473214,0 L5.81473214,0 L4.81473214,0 L4.31473214,0 L4.31473214,1 L4.81473214,1 Z M8.81473214,1 L9.81473214,1 L10.3147321,1 L10.3147321,0 L9.81473214,0 L8.81473214,0 L8.31473214,0 L8.31473214,1 L8.81473214,1 Z M12.8147321,1 L13.8147321,1 L14.3147321,1 L14.3147321,0 L13.8147321,0 L12.8147321,0 L12.3147321,0 L12.3147321,1 L12.8147321,1 Z M16.8147321,1 L17.8147321,1 L18.3147321,1 L18.3147321,0 L17.8147321,0 L16.8147321,0 L16.3147321,0 L16.3147321,1 L16.8147321,1 Z M20.8147321,1 L21.8147321,1 L22.3147321,1 L22.3147321,0 L21.8147321,0 L20.8147321,0 L20.3147321,0 L20.3147321,1 L20.8147321,1 Z M24.8147321,1 L25.8147321,1 L26.3147321,1 L26.3147321,0 L25.8147321,0 L24.8147321,0 L24.3147321,0 L24.3147321,1 L24.8147321,1 Z M28.8147321,1 L29.8147321,1 L30.3147321,1 L30.3147321,0 L29.8147321,0 L28.8147321,0 L28.3147321,0 L28.3147321,1 L28.8147321,1 Z M32.8147321,1 L33.8147321,1 L34.3147321,1 L34.3147321,0 L33.8147321,0 L32.8147321,0 L32.3147321,0 L32.3147321,1 L32.8147321,1 Z M36.8147321,1 L37.8147321,1 L38.3147321,1 L38.3147321,0 L37.8147321,0 L36.8147321,0 L36.3147321,0 L36.3147321,1 L36.8147321,1 Z M40.8147321,1 L41.8147321,1 L42.3147321,1 L42.3147321,0 L41.8147321,0 L40.8147321,0 L40.3147321,0 L40.3147321,1 L40.8147321,1 Z M44.8147321,1 L45.8147321,1 L46.3147321,1 L46.3147321,0 L45.8147321,0 L44.8147321,0 L44.3147321,0 L44.3147321,1 L44.8147321,1 Z M48.8147321,1 L49.8147321,1 L50.3147321,1 L50.3147321,0 L49.8147321,0 L48.8147321,0 L48.3147321,0 L48.3147321,1 L48.8147321,1 Z M52.8147321,1 L53.8147321,1 L54.3147321,1 L54.3147321,0 L53.8147321,0 L52.8147321,0 L52.3147321,0 L52.3147321,1 L52.8147321,1 Z M56.8147321,1 L57.8147321,1 L58.3147321,1 L58.3147321,0 L57.8147321,0 L56.8147321,0 L56.3147321,0 L56.3147321,1 L56.8147321,1 Z M60.8147321,1 L61.8147321,1 L62.3147321,1 L62.3147321,0 L61.8147321,0 L60.8147321,0 L60.3147321,0 L60.3147321,1 L60.8147321,1 Z M64.8147321,1 L65.8147321,1 L66.3147321,1 L66.3147321,0 L65.8147321,0 L64.8147321,0 L64.3147321,0 L64.3147321,1 L64.8147321,1 Z M68.8147321,1 L69.8147321,1 L70.3147321,1 L70.3147321,0 L69.8147321,0 L68.8147321,0 L68.3147321,0 L68.3147321,1 L68.8147321,1 Z M72.8147321,1 L73.8147321,1 L74.3147321,1 L74.3147321,0 L73.8147321,0 L72.8147321,0 L72.3147321,0 L72.3147321,1 L72.8147321,1 Z M76.8147321,1 L77.8147321,1 L78.3147321,1 L78.3147321,0 L77.8147321,0 L76.8147321,0 L76.3147321,0 L76.3147321,1 L76.8147321,1 Z M80.8147321,1 L81.8147321,1 L82.3147321,1 L82.3147321,0 L81.8147321,0 L80.8147321,0 L80.3147321,0 L80.3147321,1 L80.8147321,1 Z M84.8147321,1 L85.8147321,1 L86.3147321,1 L86.3147321,0 L85.8147321,0 L84.8147321,0 L84.3147321,0 L84.3147321,1 L84.8147321,1 Z M88.8147321,1 L89.8147321,1 L90.3147321,1 L90.3147321,0 L89.8147321,0 L88.8147321,0 L88.3147321,0 L88.3147321,1 L88.8147321,1 Z M92.8147321,1 L93.8147321,1 L94.3147321,1 L94.3147321,0 L93.8147321,0 L92.8147321,0 L92.3147321,0 L92.3147321,1 L92.8147321,1 Z M96.8147321,1 L97.8147321,1 L98.3147321,1 L98.3147321,0 L97.8147321,0 L96.8147321,0 L96.3147321,0 L96.3147321,1 L96.8147321,1 Z M100.814732,1 L101.814732,1 L102.314732,1 L102.314732,0 L101.814732,0 L100.814732,0 L100.314732,0 L100.314732,1 L100.814732,1 Z M102,2.81473214 L102,3.81473214 L102,4.31473214 L103,4.31473214 L103,3.81473214 L103,2.81473214 L103,2.31473214 L102,2.31473214 L102,2.81473214 Z M102,6.81473214 L102,7.81473214 L102,8.31473214 L103,8.31473214 L103,7.81473214 L103,6.81473214 L103,6.31473214 L102,6.31473214 L102,6.81473214 Z M102,10.8147321 L102,11.8147321 L102,12.3147321 L103,12.3147321 L103,11.8147321 L103,10.8147321 L103,10.3147321 L102,10.3147321 L102,10.8147321 Z M102,14.8147321 L102,15.8147321 L102,16.3147321 L103,16.3147321 L103,15.8147321 L103,14.8147321 L103,14.3147321 L102,14.3147321 L102,14.8147321 Z M102,18.8147321 L102,19.8147321 L102,20.3147321 L103,20.3147321 L103,19.8147321 L103,18.8147321 L103,18.3147321 L102,18.3147321 L102,18.8147321 Z M102,22.8147321 L102,23.8147321 L102,24.3147321 L103,24.3147321 L103,23.8147321 L103,22.8147321 L103,22.3147321 L102,22.3147321 L102,22.8147321 Z M102,26.8147321 L102,27.8147321 L102,28.3147321 L103,28.3147321 L103,27.8147321 L103,26.8147321 L103,26.3147321 L102,26.3147321 L102,26.8147321 Z M102,30.8147321 L102,31.8147321 L102,32.3147321 L103,32.3147321 L103,31.8147321 L103,30.8147321 L103,30.3147321 L102,30.3147321 L102,30.8147321 Z M102,34.8147321 L102,35.8147321 L102,36.3147321 L103,36.3147321 L103,35.8147321 L103,34.8147321 L103,34.3147321 L102,34.3147321 L102,34.8147321 Z M102,38.8147321 L102,39.8147321 L102,40.3147321 L103,40.3147321 L103,39.8147321 L103,38.8147321 L103,38.3147321 L102,38.3147321 L102,38.8147321 Z M102,42.8147321 L102,43.8147321 L102,44.3147321 L103,44.3147321 L103,43.8147321 L103,42.8147321 L103,42.3147321 L102,42.3147321 L102,42.8147321 Z M102,46.8147321 L102,47.8147321 L102,48.3147321 L103,48.3147321 L103,47.8147321 L103,46.8147321 L103,46.3147321 L102,46.3147321 L102,46.8147321 Z M102,50.8147321 L102,51.8147321 L102,52.3147321 L103,52.3147321 L103,51.8147321 L103,50.8147321 L103,50.3147321 L102,50.3147321 L102,50.8147321 Z M102,54.8147321 L102,55.8147321 L102,56.3147321 L103,56.3147321 L103,55.8147321 L103,54.8147321 L103,54.3147321 L102,54.3147321 L102,54.8147321 Z M102,58.8147321 L102,59.8147321 L102,60.3147321 L103,60.3147321 L103,59.8147321 L103,58.8147321 L103,58.3147321 L102,58.3147321 L102,58.8147321 Z M102,62.8147321 L102,63.8147321 L102,64.3147321 L103,64.3147321 L103,63.8147321 L103,62.8147321 L103,62.3147321 L102,62.3147321 L102,62.8147321 Z M102,66.8147321 L102,67.8147321 L102,68.3147321 L103,68.3147321 L103,67.8147321 L103,66.8147321 L103,66.3147321 L102,66.3147321 L102,66.8147321 Z M102,70.8147321 L102,71.8147321 L102,72.3147321 L103,72.3147321 L103,71.8147321 L103,70.8147321 L103,70.3147321 L102,70.3147321 L102,70.8147321 Z M102,74.8147321 L102,75.8147321 L102,76.3147321 L103,76.3147321 L103,75.8147321 L103,74.8147321 L103,74.3147321 L102,74.3147321 L102,74.8147321 Z M102,78.8147321 L102,79.8147321 L102,80.3147321 L103,80.3147321 L103,79.8147321 L103,78.8147321 L103,78.3147321 L102,78.3147321 L102,78.8147321 Z M102,82.8147321 L102,83.8147321 L102,84.3147321 L103,84.3147321 L103,83.8147321 L103,82.8147321 L103,82.3147321 L102,82.3147321 L102,82.8147321 Z M102,86.8147321 L102,87.8147321 L102,88.3147321 L103,88.3147321 L103,87.8147321 L103,86.8147321 L103,86.3147321 L102,86.3147321 L102,86.8147321 Z M102,90.8147321 L102,91.8147321 L102,92.3147321 L103,92.3147321 L103,91.8147321 L103,90.8147321 L103,90.3147321 L102,90.3147321 L102,90.8147321 Z M102,94.8147321 L102,95.8147321 L102,96.3147321 L103,96.3147321 L103,95.8147321 L103,94.8147321 L103,94.3147321 L102,94.3147321 L102,94.8147321 Z M102,98.8147321 L102,99.8147321 L102,100.314732 L103,100.314732 L103,99.8147321 L103,98.8147321 L103,98.3147321 L102,98.3147321 L102,98.8147321 Z M102,102.814732 L102,103.814732 L102,104.314732 L103,104.314732 L103,103.814732 L103,102.814732 L103,102.314732 L102,102.314732 L102,102.814732 Z M100.185268,104 L99.1852679,104 L98.6852679,104 L98.6852679,105 L99.1852679,105 L100.185268,105 L100.685268,105 L100.685268,104 L100.185268,104 Z M96.1852679,104 L95.1852679,104 L94.6852679,104 L94.6852679,105 L95.1852679,105 L96.1852679,105 L96.6852679,105 L96.6852679,104 L96.1852679,104 Z M92.1852679,104 L91.1852679,104 L90.6852679,104 L90.6852679,105 L91.1852679,105 L92.1852679,105 L92.6852679,105 L92.6852679,104 L92.1852679,104 Z M88.1852679,104 L87.1852679,104 L86.6852679,104 L86.6852679,105 L87.1852679,105 L88.1852679,105 L88.6852679,105 L88.6852679,104 L88.1852679,104 Z M84.1852679,104 L83.1852679,104 L82.6852679,104 L82.6852679,105 L83.1852679,105 L84.1852679,105 L84.6852679,105 L84.6852679,104 L84.1852679,104 Z M80.1852679,104 L79.1852679,104 L78.6852679,104 L78.6852679,105 L79.1852679,105 L80.1852679,105 L80.6852679,105 L80.6852679,104 L80.1852679,104 Z M76.1852679,104 L75.1852679,104 L74.6852679,104 L74.6852679,105 L75.1852679,105 L76.1852679,105 L76.6852679,105 L76.6852679,104 L76.1852679,104 Z M72.1852679,104 L71.1852679,104 L70.6852679,104 L70.6852679,105 L71.1852679,105 L72.1852679,105 L72.6852679,105 L72.6852679,104 L72.1852679,104 Z M68.1852679,104 L67.1852679,104 L66.6852679,104 L66.6852679,105 L67.1852679,105 L68.1852679,105 L68.6852679,105 L68.6852679,104 L68.1852679,104 Z M64.1852679,104 L63.1852679,104 L62.6852679,104 L62.6852679,105 L63.1852679,105 L64.1852679,105 L64.6852679,105 L64.6852679,104 L64.1852679,104 Z M60.1852679,104 L59.1852679,104 L58.6852679,104 L58.6852679,105 L59.1852679,105 L60.1852679,105 L60.6852679,105 L60.6852679,104 L60.1852679,104 Z M56.1852679,104 L55.1852679,104 L54.6852679,104 L54.6852679,105 L55.1852679,105 L56.1852679,105 L56.6852679,105 L56.6852679,104 L56.1852679,104 Z M52.1852679,104 L51.1852679,104 L50.6852679,104 L50.6852679,105 L51.1852679,105 L52.1852679,105 L52.6852679,105 L52.6852679,104 L52.1852679,104 Z M48.1852679,104 L47.1852679,104 L46.6852679,104 L46.6852679,105 L47.1852679,105 L48.1852679,105 L48.6852679,105 L48.6852679,104 L48.1852679,104 Z M44.1852679,104 L43.1852679,104 L42.6852679,104 L42.6852679,105 L43.1852679,105 L44.1852679,105 L44.6852679,105 L44.6852679,104 L44.1852679,104 Z M40.1852679,104 L39.1852679,104 L38.6852679,104 L38.6852679,105 L39.1852679,105 L40.1852679,105 L40.6852679,105 L40.6852679,104 L40.1852679,104 Z M36.1852679,104 L35.1852679,104 L34.6852679,104 L34.6852679,105 L35.1852679,105 L36.1852679,105 L36.6852679,105 L36.6852679,104 L36.1852679,104 Z M32.1852679,104 L31.1852679,104 L30.6852679,104 L30.6852679,105 L31.1852679,105 L32.1852679,105 L32.6852679,105 L32.6852679,104 L32.1852679,104 Z M28.1852679,104 L27.1852679,104 L26.6852679,104 L26.6852679,105 L27.1852679,105 L28.1852679,105 L28.6852679,105 L28.6852679,104 L28.1852679,104 Z M24.1852679,104 L23.1852679,104 L22.6852679,104 L22.6852679,105 L23.1852679,105 L24.1852679,105 L24.6852679,105 L24.6852679,104 L24.1852679,104 Z M20.1852679,104 L19.1852679,104 L18.6852679,104 L18.6852679,105 L19.1852679,105 L20.1852679,105 L20.6852679,105 L20.6852679,104 L20.1852679,104 Z M16.1852679,104 L15.1852679,104 L14.6852679,104 L14.6852679,105 L15.1852679,105 L16.1852679,105 L16.6852679,105 L16.6852679,104 L16.1852679,104 Z M12.1852679,104 L11.1852679,104 L10.6852679,104 L10.6852679,105 L11.1852679,105 L12.1852679,105 L12.6852679,105 L12.6852679,104 L12.1852679,104 Z M8.18526786,104 L7.18526786,104 L6.68526786,104 L6.68526786,105 L7.18526786,105 L8.18526786,105 L8.68526786,105 L8.68526786,104 L8.18526786,104 Z M4.18526786,104 L3.18526786,104 L2.68526786,104 L2.68526786,105 L3.18526786,105 L4.18526786,105 L4.68526786,105 L4.68526786,104 L4.18526786,104 Z M1,104.185268 L1,103.185268 L1,102.685268 L0,102.685268 L0,103.185268 L0,104.185268 L0,104.685268 L1,104.685268 L1,104.185268 Z M1,100.185268 L1,99.1852679 L1,98.6852679 L0,98.6852679 L0,99.1852679 L0,100.185268 L0,100.685268 L1,100.685268 L1,100.185268 Z M1,96.1852679 L1,95.1852679 L1,94.6852679 L0,94.6852679 L0,95.1852679 L0,96.1852679 L0,96.6852679 L1,96.6852679 L1,96.1852679 Z M1,92.1852679 L1,91.1852679 L1,90.6852679 L0,90.6852679 L0,91.1852679 L0,92.1852679 L0,92.6852679 L1,92.6852679 L1,92.1852679 Z M1,88.1852679 L1,87.1852679 L1,86.6852679 L0,86.6852679 L0,87.1852679 L0,88.1852679 L0,88.6852679 L1,88.6852679 L1,88.1852679 Z M1,84.1852679 L1,83.1852679 L1,82.6852679 L0,82.6852679 L0,83.1852679 L0,84.1852679 L0,84.6852679 L1,84.6852679 L1,84.1852679 Z M1,80.1852679 L1,79.1852679 L1,78.6852679 L0,78.6852679 L0,79.1852679 L0,80.1852679 L0,80.6852679 L1,80.6852679 L1,80.1852679 Z M1,76.1852679 L1,75.1852679 L1,74.6852679 L0,74.6852679 L0,75.1852679 L0,76.1852679 L0,76.6852679 L1,76.6852679 L1,76.1852679 Z M1,72.1852679 L1,71.1852679 L1,70.6852679 L0,70.6852679 L0,71.1852679 L0,72.1852679 L0,72.6852679 L1,72.6852679 L1,72.1852679 Z M1,68.1852679 L1,67.1852679 L1,66.6852679 L0,66.6852679 L0,67.1852679 L0,68.1852679 L0,68.6852679 L1,68.6852679 L1,68.1852679 Z M1,64.1852679 L1,63.1852679 L1,62.6852679 L0,62.6852679 L0,63.1852679 L0,64.1852679 L0,64.6852679 L1,64.6852679 L1,64.1852679 Z M1,60.1852679 L1,59.1852679 L1,58.6852679 L0,58.6852679 L0,59.1852679 L0,60.1852679 L0,60.6852679 L1,60.6852679 L1,60.1852679 Z M1,56.1852679 L1,55.1852679 L1,54.6852679 L0,54.6852679 L0,55.1852679 L0,56.1852679 L0,56.6852679 L1,56.6852679 L1,56.1852679 Z M1,52.1852679 L1,51.1852679 L1,50.6852679 L0,50.6852679 L0,51.1852679 L0,52.1852679 L0,52.6852679 L1,52.6852679 L1,52.1852679 Z M1,48.1852679 L1,47.1852679 L1,46.6852679 L0,46.6852679 L0,47.1852679 L0,48.1852679 L0,48.6852679 L1,48.6852679 L1,48.1852679 Z M1,44.1852679 L1,43.1852679 L1,42.6852679 L0,42.6852679 L0,43.1852679 L0,44.1852679 L0,44.6852679 L1,44.6852679 L1,44.1852679 Z M1,40.1852679 L1,39.1852679 L1,38.6852679 L0,38.6852679 L0,39.1852679 L0,40.1852679 L0,40.6852679 L1,40.6852679 L1,40.1852679 Z M1,36.1852679 L1,35.1852679 L1,34.6852679 L0,34.6852679 L0,35.1852679 L0,36.1852679 L0,36.6852679 L1,36.6852679 L1,36.1852679 Z M1,32.1852679 L1,31.1852679 L1,30.6852679 L0,30.6852679 L0,31.1852679 L0,32.1852679 L0,32.6852679 L1,32.6852679 L1,32.1852679 Z M1,28.1852679 L1,27.1852679 L1,26.6852679 L0,26.6852679 L0,27.1852679 L0,28.1852679 L0,28.6852679 L1,28.6852679 L1,28.1852679 Z M1,24.1852679 L1,23.1852679 L1,22.6852679 L0,22.6852679 L0,23.1852679 L0,24.1852679 L0,24.6852679 L1,24.6852679 L1,24.1852679 Z M1,20.1852679 L1,19.1852679 L1,18.6852679 L0,18.6852679 L0,19.1852679 L0,20.1852679 L0,20.6852679 L1,20.6852679 L1,20.1852679 Z M1,16.1852679 L1,15.1852679 L1,14.6852679 L0,14.6852679 L0,15.1852679 L0,16.1852679 L0,16.6852679 L1,16.6852679 L1,16.1852679 Z M1,12.1852679 L1,11.1852679 L1,10.6852679 L0,10.6852679 L0,11.1852679 L0,12.1852679 L0,12.6852679 L1,12.6852679 L1,12.1852679 Z M1,8.18526786 L1,7.18526786 L1,6.68526786 L0,6.68526786 L0,7.18526786 L0,8.18526786 L0,8.68526786 L1,8.68526786 L1,8.18526786 Z M1,4.18526786 L1,3.18526786 L1,2.68526786 L0,2.68526786 L0,3.18526786 L0,4.18526786 L0,4.68526786 L1,4.68526786 L1,4.18526786 Z" id="Line" fill="#DADCE1" fill-rule="nonzero"></path>
                <path d="M1.234375,83 L2.234375,83 L2.734375,83 L2.734375,82 L2.234375,82 L1.234375,82 L0.734375,82 L0.734375,83 L1.234375,83 Z M5.234375,83 L6.234375,83 L6.734375,83 L6.734375,82 L6.234375,82 L5.234375,82 L4.734375,82 L4.734375,83 L5.234375,83 Z M9.234375,83 L10.234375,83 L10.734375,83 L10.734375,82 L10.234375,82 L9.234375,82 L8.734375,82 L8.734375,83 L9.234375,83 Z M13.234375,83 L14.234375,83 L14.734375,83 L14.734375,82 L14.234375,82 L13.234375,82 L12.734375,82 L12.734375,83 L13.234375,83 Z M17.234375,83 L18.234375,83 L18.734375,83 L18.734375,82 L18.234375,82 L17.234375,82 L16.734375,82 L16.734375,83 L17.234375,83 Z M21.234375,83 L22.234375,83 L22.734375,83 L22.734375,82 L22.234375,82 L21.234375,82 L20.734375,82 L20.734375,83 L21.234375,83 Z M25.234375,83 L26.234375,83 L26.734375,83 L26.734375,82 L26.234375,82 L25.234375,82 L24.734375,82 L24.734375,83 L25.234375,83 Z M29.234375,83 L30.234375,83 L30.734375,83 L30.734375,82 L30.234375,82 L29.234375,82 L28.734375,82 L28.734375,83 L29.234375,83 Z M33.234375,83 L34.234375,83 L34.734375,83 L34.734375,82 L34.234375,82 L33.234375,82 L32.734375,82 L32.734375,83 L33.234375,83 Z M37.234375,83 L38.234375,83 L38.734375,83 L38.734375,82 L38.234375,82 L37.234375,82 L36.734375,82 L36.734375,83 L37.234375,83 Z M41.234375,83 L42.234375,83 L42.734375,83 L42.734375,82 L42.234375,82 L41.234375,82 L40.734375,82 L40.734375,83 L41.234375,83 Z M45.234375,83 L46.234375,83 L46.734375,83 L46.734375,82 L46.234375,82 L45.234375,82 L44.734375,82 L44.734375,83 L45.234375,83 Z M49.234375,83 L50.234375,83 L50.734375,83 L50.734375,82 L50.234375,82 L49.234375,82 L48.734375,82 L48.734375,83 L49.234375,83 Z M53.234375,83 L54.234375,83 L54.734375,83 L54.734375,82 L54.234375,82 L53.234375,82 L52.734375,82 L52.734375,83 L53.234375,83 Z M57.234375,83 L58.234375,83 L58.734375,83 L58.734375,82 L58.234375,82 L57.234375,82 L56.734375,82 L56.734375,83 L57.234375,83 Z M61.234375,83 L62.234375,83 L62.734375,83 L62.734375,82 L62.234375,82 L61.234375,82 L60.734375,82 L60.734375,83 L61.234375,83 Z M65.234375,83 L66.234375,83 L66.734375,83 L66.734375,82 L66.234375,82 L65.234375,82 L64.734375,82 L64.734375,83 L65.234375,83 Z M69.234375,83 L70.234375,83 L70.734375,83 L70.734375,82 L70.234375,82 L69.234375,82 L68.734375,82 L68.734375,83 L69.234375,83 Z M73.234375,83 L74.234375,83 L74.734375,83 L74.734375,82 L74.234375,82 L73.234375,82 L72.734375,82 L72.734375,83 L73.234375,83 Z M77.234375,83 L78.234375,83 L78.734375,83 L78.734375,82 L78.234375,82 L77.234375,82 L76.734375,82 L76.734375,83 L77.234375,83 Z M81.234375,83 L82.234375,83 L82.734375,83 L82.734375,82 L82.234375,82 L81.234375,82 L80.734375,82 L80.734375,83 L81.234375,83 Z M85.234375,83 L86.234375,83 L86.734375,83 L86.734375,82 L86.234375,82 L85.234375,82 L84.734375,82 L84.734375,83 L85.234375,83 Z M89.234375,83 L90.234375,83 L90.734375,83 L90.734375,82 L90.234375,82 L89.234375,82 L88.734375,82 L88.734375,83 L89.234375,83 Z M93.234375,83 L94.234375,83 L94.734375,83 L94.734375,82 L94.234375,82 L93.234375,82 L92.734375,82 L92.734375,83 L93.234375,83 Z M97.234375,83 L98.234375,83 L98.734375,83 L98.734375,82 L98.234375,82 L97.234375,82 L96.734375,82 L96.734375,83 L97.234375,83 Z M101.234375,83 L101.922728,83 L102.422728,83 L102.422728,82 L101.922728,82 L101.234375,82 L100.734375,82 L100.734375,83 L101.234375,83 Z" id="Line" fill="#DADCE1" fill-rule="nonzero"></path>
                <path d="M42.652738,57.7940209 L42.652738,50.7350521 L42.652738,43.6764948 L49.7038284,43.6764948 L56.7545079,43.6764948 L63.8055983,43.6764948 L63.8055983,50.7350521 L56.7545079,50.7350521 L49.7038284,50.7350521 L49.7038284,57.7940209 L49.7038284,64.8529896 L42.652738,64.8529896 L42.652738,57.7940209 Z M21.4998777,40.1470104 L21.4998777,82.5 L63.8055983,82.5 L81.4329134,64.8529896 L81.4329134,22.5 L39.1271928,22.5 L21.4998777,40.1470104 Z" id="Combined-Shape" fill="#F45919"></path>
            </g>
        </g>
    </g>
</svg>