<?xml version="1.0" encoding="UTF-8"?>
<svg width="300px" height="252px" viewBox="0 0 300 252" version="1.1" xmlns="http://www.w3.org/2000/svg" xmlns:xlink="http://www.w3.org/1999/xlink">
    <!-- Generator: Sketch 54.1 (76490) - https://sketchapp.com -->
    <title>05.color_story</title>
    <desc>Created with Sketch.</desc>
    <defs>
        <polygon id="path-1" points="0.458 0.0005 180.667 0.0005 180.667 183 0.458 183"></polygon>
        <polygon id="path-3" points="0 0 180.2087 0 180.2087 183 0 183"></polygon>
        <polygon id="path-5" points="0.7752 0.3868 7.633 0.3868 7.633 7.9598 0.7752 7.9598"></polygon>
    </defs>
    <g id="FINAL" stroke="none" stroke-width="1" fill="none" fill-rule="evenodd">
        <g id="Press-Info" transform="translate(-345.000000, -1682.000000)">
            <g id="05.color_story" transform="translate(345.000000, 1682.000000)">
                <g id="Group-3" transform="translate(91.000000, 69.000000)">
                    <mask id="mask-2" fill="white">
                        <use xlink:href="#path-1"></use>
                    </mask>
                    <g id="Clip-2"></g>
                    <path d="M89.209,0.0005 C91.029,7.1995 92,14.7355 92,22.5005 C92,73.0345 51.034,114.0005 0.5,114.0005 C0.486,114.0005 0.472,113.9995 0.458,113.9995 C10.484,153.6535 46.397,183.0005 89.167,183.0005 C139.701,183.0005 180.667,142.0345 180.667,91.5005 C180.667,40.9805 139.724,0.0235 89.209,0.0005" id="Fill-1" fill="#DC363A" mask="url(#mask-2)"></path>
                </g>
                <g id="Group-6">
                    <mask id="mask-4" fill="white">
                        <use xlink:href="#path-3"></use>
                    </mask>
                    <g id="Clip-5"></g>
                    <path d="M180.1667,69 C180.1807,69 180.1947,69 180.2087,69 C170.1827,29.347 134.2697,0 91.4997,0 C40.9657,0 -0.0003,40.966 -0.0003,91.5 C-0.0003,142.02 40.9427,182.977 91.4577,183 C89.6377,175.801 88.6667,168.264 88.6667,160.5 C88.6667,109.966 129.6327,69 180.1667,69" id="Fill-4" fill="#FAE452" mask="url(#mask-4)"></path>
                </g>
                <path d="M183,91.5 C183,83.736 182.029,76.199 180.209,69 C180.195,69 180.181,69 180.167,69 C129.633,69 88.667,109.966 88.667,160.5 C88.667,168.264 89.637,175.801 91.458,183 C91.472,183 91.486,183 91.5,183 C142.034,183 183,142.034 183,91.5" id="Fill-7" fill="#F45919"></path>
                <path d="M138.9524,201.4856 L140.4724,201.4856 C141.0514,201.4856 141.4984,201.3386 141.8124,201.0436 C142.1264,200.7486 142.2834,200.3456 142.2834,199.8346 C142.2834,199.3036 142.1304,198.8906 141.8234,198.5966 C141.5164,198.3016 141.0634,198.1536 140.4644,198.1536 L138.9524,198.1536 L138.9524,201.4856 Z M140.5084,203.1516 L138.9524,203.1516 L138.9524,207.1256 L136.8994,207.1256 L136.8994,196.4886 L140.4644,196.4886 C141.0544,196.4886 141.5874,196.5576 142.0644,196.6966 C142.5414,196.8356 142.9494,197.0386 143.2884,197.3066 C143.6264,197.5746 143.8874,197.9086 144.0694,198.3076 C144.2524,198.7066 144.3444,199.1696 144.3444,199.6956 C144.3444,200.0756 144.2984,200.4176 144.2084,200.7226 C144.1184,201.0266 143.9894,201.2996 143.8214,201.5406 C143.6534,201.7816 143.4514,201.9926 143.2154,202.1726 C142.9784,202.3526 142.7144,202.5086 142.4224,202.6396 L144.7094,207.0306 L144.7094,207.1256 L142.5104,207.1256 L140.5084,203.1516 Z" id="Fill-9" fill="#FFFFFF"></path>
                <path d="M149.5457,200.7185 C149.3167,200.7185 149.1077,200.7585 148.9177,200.8385 C148.7277,200.9195 148.5607,201.0355 148.4167,201.1865 C148.2737,201.3365 148.1527,201.5175 148.0557,201.7265 C147.9577,201.9365 147.8847,202.1695 147.8367,202.4275 L151.1677,202.4275 L151.1677,202.2675 C151.1577,202.0525 151.1167,201.8505 151.0437,201.6605 C150.9707,201.4705 150.8657,201.3065 150.7297,201.1675 C150.5927,201.0285 150.4257,200.9195 150.2287,200.8385 C150.0317,200.7585 149.8037,200.7185 149.5457,200.7185 M149.7867,207.2715 C149.1777,207.2715 148.6247,207.1715 148.1287,206.9725 C147.6317,206.7725 147.2057,206.5005 146.8497,206.1575 C146.4937,205.8145 146.2207,205.4095 146.0277,204.9445 C145.8357,204.4795 145.7397,203.9815 145.7397,203.4505 L145.7397,203.1585 C145.7397,202.5545 145.8347,202.0035 146.0247,201.5035 C146.2147,201.0045 146.4797,200.5745 146.8207,200.2145 C147.1617,199.8535 147.5657,199.5735 148.0337,199.3745 C148.5007,199.1745 149.0097,199.0745 149.5607,199.0745 C150.1297,199.0745 150.6377,199.1685 151.0837,199.3555 C151.5287,199.5435 151.9067,199.8075 152.2157,200.1485 C152.5247,200.4895 152.7597,200.8995 152.9207,201.3795 C153.0817,201.8595 153.1617,202.3885 153.1617,202.9685 L153.1617,203.8305 L147.7997,203.8305 C147.8387,204.0985 147.9177,204.3435 148.0367,204.5645 C148.1567,204.7865 148.3087,204.9775 148.4937,205.1385 C148.6787,205.2995 148.8907,205.4235 149.1287,205.5105 C149.3677,205.5985 149.6287,205.6425 149.9107,205.6425 C150.1107,205.6425 150.3087,205.6235 150.5067,205.5835 C150.7037,205.5455 150.8927,205.4875 151.0727,205.4125 C151.2527,205.3365 151.4207,205.2435 151.5767,205.1315 C151.7327,205.0195 151.8687,204.8875 151.9857,204.7365 L153.0017,205.8325 C152.8747,206.0125 152.7107,206.1895 152.5077,206.3625 C152.3057,206.5345 152.0667,206.6885 151.7927,206.8225 C151.5167,206.9565 151.2117,207.0645 150.8757,207.1475 C150.5397,207.2305 150.1767,207.2715 149.7867,207.2715" id="Fill-11" fill="#FFFFFF"></path>
                <polygon id="Fill-13" fill="#FFFFFF" points="158.2903 204.7803 158.3923 205.3503 158.4953 204.8023 160.2333 199.2203 162.3523 199.2203 159.3493 207.1253 157.4433 207.1253 154.4253 199.2203 156.5443 199.2203"></polygon>
                <path d="M165.6619,203.2534 C165.6619,203.5844 165.6939,203.8954 165.7569,204.1854 C165.8199,204.4744 165.9199,204.7284 166.0569,204.9444 C166.1929,205.1614 166.3699,205.3334 166.5859,205.4594 C166.8029,205.5864 167.0649,205.6494 167.3709,205.6494 C167.6689,205.6494 167.9239,205.5864 168.1389,205.4594 C168.3529,205.3334 168.5269,205.1614 168.6609,204.9444 C168.7949,204.7284 168.8929,204.4744 168.9569,204.1854 C169.0199,203.8954 169.0519,203.5844 169.0519,203.2534 L169.0519,203.1004 C169.0519,202.7784 169.0199,202.4744 168.9569,202.1864 C168.8929,201.8994 168.7949,201.6464 168.6609,201.4274 C168.5269,201.2084 168.3529,201.0354 168.1389,200.9084 C167.9239,200.7814 167.6639,200.7184 167.3569,200.7184 C167.0549,200.7184 166.7969,200.7814 166.5819,200.9084 C166.3679,201.0354 166.1929,201.2084 166.0569,201.4274 C165.9199,201.6464 165.8199,201.8994 165.7569,202.1864 C165.6939,202.4744 165.6619,202.7784 165.6619,203.1004 L165.6619,203.2534 Z M163.6309,203.1004 C163.6309,202.5254 163.7139,201.9934 163.8799,201.5034 C164.0449,201.0144 164.2869,200.5894 164.6059,200.2294 C164.9249,199.8684 165.3149,199.5864 165.7749,199.3814 C166.2349,199.1774 166.7629,199.0744 167.3569,199.0744 C167.9509,199.0744 168.4789,199.1774 168.9419,199.3814 C169.4049,199.5864 169.7959,199.8684 170.1149,200.2294 C170.4339,200.5894 170.6759,201.0144 170.8419,201.5034 C171.0069,201.9934 171.0899,202.5254 171.0899,203.1004 L171.0899,203.2534 C171.0899,203.8334 171.0069,204.3674 170.8419,204.8574 C170.6759,205.3464 170.4349,205.7714 170.1189,206.1314 C169.8019,206.4924 169.4119,206.7734 168.9499,206.9754 C168.4869,207.1774 167.9609,207.2784 167.3709,207.2784 C166.7769,207.2784 166.2479,207.1774 165.7829,206.9754 C165.3169,206.7734 164.9249,206.4924 164.6059,206.1314 C164.2869,205.7714 164.0449,205.3464 163.8799,204.8574 C163.7139,204.3674 163.6309,203.8334 163.6309,203.2534 L163.6309,203.1004 Z" id="Fill-15" fill="#FFFFFF"></path>
                <polygon id="Fill-17" fill="#FFFFFF" points="173.3108 195.9041 177.7308 195.9041 177.7308 205.4741 179.9958 205.4741 179.9958 207.1251 173.3108 207.1251 173.3108 205.4741 175.6778 205.4741 175.6778 197.5621 173.3108 197.5621"></polygon>
                <path d="M186.9067,206.0151 C186.6387,206.4091 186.3157,206.7191 185.9387,206.9431 C185.5617,207.1671 185.1487,207.2791 184.7007,207.2791 C184.2917,207.2791 183.9167,207.2151 183.5757,207.0891 C183.2347,206.9621 182.9417,206.7611 182.6987,206.4861 C182.4547,206.2111 182.2667,205.8601 182.1327,205.4341 C181.9987,205.0081 181.9317,204.4951 181.9317,203.8961 L181.9317,199.2211 L183.9627,199.2211 L183.9627,203.9111 C183.9627,204.2321 183.9857,204.5031 184.0317,204.7221 C184.0777,204.9411 184.1527,205.1181 184.2547,205.2511 C184.3567,205.3851 184.4907,205.4821 184.6567,205.5401 C184.8217,205.5981 185.0237,205.6281 185.2627,205.6281 C185.6667,205.6281 185.9957,205.5511 186.2497,205.3981 C186.5027,205.2441 186.6947,205.0341 186.8267,204.7661 L186.8267,199.2211 L188.8647,199.2211 L188.8647,207.1251 L187.0237,207.1251 L186.9067,206.0151 Z" id="Fill-19" fill="#FFFFFF"></path>
                <path d="M194.5703,197.2847 L194.5703,199.2207 L197.5213,199.2207 L197.5213,200.7187 L194.5703,200.7187 L194.5703,204.1157 C194.5703,204.4027 194.6033,204.6427 194.6693,204.8357 C194.7343,205.0277 194.8283,205.1807 194.9503,205.2957 C195.0713,205.4097 195.2193,205.4917 195.3923,205.5397 C195.5653,205.5887 195.7583,205.6137 195.9733,205.6137 C196.1283,205.6137 196.2883,205.6057 196.4513,205.5917 C196.6143,205.5767 196.7703,205.5587 196.9193,205.5367 C197.0673,205.5147 197.2063,205.4917 197.3353,205.4667 C197.4643,205.4427 197.5753,205.4187 197.6673,205.3937 L197.8653,206.7897 C197.7233,206.8727 197.5583,206.9437 197.3683,207.0047 C197.1783,207.0657 196.9763,207.1157 196.7623,207.1547 C196.5473,207.1937 196.3243,207.2237 196.0933,207.2457 C195.8623,207.2677 195.6343,207.2787 195.4103,207.2787 C194.9763,207.2787 194.5833,207.2217 194.2303,207.1077 C193.8773,206.9927 193.5753,206.8147 193.3243,206.5737 C193.0733,206.3327 192.8803,206.0257 192.7443,205.6537 C192.6073,205.2807 192.5393,204.8337 192.5393,204.3127 L192.5393,200.7187 L190.7343,200.7187 L190.7343,199.2207 L192.5393,199.2207 L192.5393,197.2847 L194.5703,197.2847 Z" id="Fill-21" fill="#FFFFFF"></path>
                <path d="M202.4678,197.197 C202.4678,197.041 202.4958,196.896 202.5518,196.762 C202.6078,196.628 202.6868,196.514 202.7888,196.419 C202.8918,196.324 203.0148,196.25 203.1578,196.196 C203.3018,196.143 203.4608,196.116 203.6368,196.116 C203.9968,196.116 204.2828,196.217 204.4948,196.419 C204.7068,196.621 204.8128,196.881 204.8128,197.197 C204.8128,197.514 204.7068,197.773 204.4948,197.975 C204.2828,198.177 203.9968,198.278 203.6368,198.278 C203.4608,198.278 203.3018,198.252 203.1578,198.198 C203.0148,198.145 202.8918,198.07 202.7888,197.975 C202.6868,197.88 202.6078,197.766 202.5518,197.632 C202.4958,197.498 202.4678,197.353 202.4678,197.197 L202.4678,197.197 Z M200.3638,199.221 L204.6668,199.221 L204.6668,205.474 L206.8078,205.474 L206.8078,207.125 L200.3638,207.125 L200.3638,205.474 L202.6138,205.474 L202.6138,200.879 L200.3638,200.879 L200.3638,199.221 Z" id="Fill-23" fill="#FFFFFF"></path>
                <path d="M210.5549,203.2534 C210.5549,203.5844 210.5869,203.8954 210.6499,204.1854 C210.7129,204.4744 210.8129,204.7284 210.9499,204.9444 C211.0859,205.1614 211.2629,205.3334 211.4789,205.4594 C211.6959,205.5864 211.9579,205.6494 212.2639,205.6494 C212.5619,205.6494 212.8169,205.5864 213.0319,205.4594 C213.2459,205.3334 213.4199,205.1614 213.5539,204.9444 C213.6879,204.7284 213.7859,204.4744 213.8499,204.1854 C213.9129,203.8954 213.9449,203.5844 213.9449,203.2534 L213.9449,203.1004 C213.9449,202.7784 213.9129,202.4744 213.8499,202.1864 C213.7859,201.8994 213.6879,201.6464 213.5539,201.4274 C213.4199,201.2084 213.2459,201.0354 213.0319,200.9084 C212.8169,200.7814 212.5569,200.7184 212.2499,200.7184 C211.9479,200.7184 211.6899,200.7814 211.4749,200.9084 C211.2609,201.0354 211.0859,201.2084 210.9499,201.4274 C210.8129,201.6464 210.7129,201.8994 210.6499,202.1864 C210.5869,202.4744 210.5549,202.7784 210.5549,203.1004 L210.5549,203.2534 Z M208.5239,203.1004 C208.5239,202.5254 208.6069,201.9934 208.7729,201.5034 C208.9379,201.0144 209.1799,200.5894 209.4989,200.2294 C209.8179,199.8684 210.2079,199.5864 210.6679,199.3814 C211.1279,199.1774 211.6559,199.0744 212.2499,199.0744 C212.8439,199.0744 213.3719,199.1774 213.8349,199.3814 C214.2979,199.5864 214.6889,199.8684 215.0079,200.2294 C215.3269,200.5894 215.5689,201.0144 215.7349,201.5034 C215.8999,201.9934 215.9829,202.5254 215.9829,203.1004 L215.9829,203.2534 C215.9829,203.8334 215.8999,204.3674 215.7349,204.8574 C215.5689,205.3464 215.3279,205.7714 215.0119,206.1314 C214.6949,206.4924 214.3049,206.7734 213.8429,206.9754 C213.3799,207.1774 212.8539,207.2784 212.2639,207.2784 C211.6699,207.2784 211.1409,207.1774 210.6759,206.9754 C210.2099,206.7734 209.8179,206.4924 209.4989,206.1314 C209.1799,205.7714 208.9379,205.3464 208.7729,204.8574 C208.6069,204.3674 208.5239,203.8334 208.5239,203.2534 L208.5239,203.1004 Z" id="Fill-25" fill="#FFFFFF"></path>
                <path d="M219.6213,199.2207 L219.7453,200.3167 C220.0283,199.9217 220.3713,199.6167 220.7753,199.3997 C221.1803,199.1827 221.6283,199.0747 222.1203,199.0747 C222.5193,199.0747 222.8843,199.1327 223.2153,199.2497 C223.5473,199.3667 223.8333,199.5537 224.0743,199.8087 C224.3153,200.0647 224.5023,200.3937 224.6363,200.7947 C224.7703,201.1967 224.8373,201.6857 224.8373,202.2597 L224.8373,207.1257 L222.8063,207.1257 L222.8063,202.2887 C222.8063,201.9777 222.7713,201.7207 222.7003,201.5187 C222.6303,201.3167 222.5293,201.1567 222.3973,201.0397 C222.2663,200.9227 222.1073,200.8417 221.9223,200.7947 C221.7373,200.7487 221.5283,200.7257 221.2943,200.7257 C220.9483,200.7257 220.6533,200.7947 220.4103,200.9337 C220.1663,201.0727 219.9693,201.2637 219.8183,201.5077 L219.8183,207.1257 L217.7803,207.1257 L217.7803,199.2207 L219.6213,199.2207 Z" id="Fill-27" fill="#FFFFFF"></path>
                <path d="M46.3792,41.5923 L52.4652,41.5923 L52.4862,63.4463 C52.4722,64.9483 52.1872,66.3163 51.6312,67.5513 C51.0752,68.7853 50.3142,69.8513 49.3462,70.7463 C48.3782,71.6413 47.2412,72.3343 45.9352,72.8253 C44.6282,73.3163 43.2242,73.5613 41.7222,73.5613 C40.1332,73.5613 38.6902,73.3593 37.3902,72.9553 C36.0902,72.5513 34.9752,71.9483 34.0442,71.1463 C33.1122,70.3453 32.3872,69.3383 31.8672,68.1253 C31.3472,66.9123 31.0792,65.4903 31.0662,63.8583 L37.1732,63.8583 C37.1882,65.5473 37.5642,66.7713 38.3002,67.5293 C39.0362,68.2873 40.1772,68.6663 41.7222,68.6663 C42.4152,68.6663 43.0502,68.5333 43.6282,68.2663 C44.2052,67.9983 44.6962,67.6343 45.1012,67.1723 C45.5052,66.7103 45.8182,66.1573 46.0432,65.5153 C46.2672,64.8733 46.3792,64.1833 46.3792,63.4463 L46.3792,41.5923 Z" id="Fill-29" fill="#000000"></path>
                <path d="M74.4924,64.8977 C74.4924,64.3347 74.3944,63.8077 74.2004,63.3167 C74.0054,62.8257 73.6734,62.3677 73.2034,61.9417 C72.7344,61.5157 72.1204,61.1257 71.3624,60.7717 C70.6044,60.4177 69.6624,60.0897 68.5364,59.7857 C67.1644,59.4107 65.8534,58.9417 64.6044,58.3787 C63.3554,57.8147 62.2554,57.1367 61.3024,56.3427 C60.3484,55.5487 59.5874,54.6237 59.0164,53.5697 C58.4464,52.5157 58.1614,51.3037 58.1614,49.9307 C58.1614,48.6027 58.4424,47.3967 59.0064,46.3137 C59.5694,45.2307 60.3484,44.3067 61.3454,43.5417 C62.3414,42.7767 63.5174,42.1877 64.8754,41.7767 C66.2324,41.3647 67.7054,41.1587 69.2944,41.1587 C70.9404,41.1587 72.4454,41.3977 73.8094,41.8737 C75.1754,42.3507 76.3474,43.0187 77.3304,43.8767 C78.3114,44.7367 79.0764,45.7587 79.6264,46.9417 C80.1744,48.1267 80.4484,49.4257 80.4484,50.8407 L74.5134,50.8407 C74.4844,50.1337 74.3584,49.4837 74.1354,48.8917 C73.9114,48.2997 73.5794,47.7907 73.1384,47.3647 C72.6984,46.9387 72.1494,46.6067 71.4924,46.3677 C70.8354,46.1297 70.0664,46.0107 69.1854,46.0107 C68.3774,46.0107 67.6584,46.1077 67.0304,46.3037 C66.4024,46.4977 65.8724,46.7727 65.4384,47.1267 C65.0064,47.4807 64.6774,47.8987 64.4534,48.3827 C64.2294,48.8667 64.1174,49.3897 64.1174,49.9527 C64.1174,50.5447 64.2654,51.0787 64.5614,51.5557 C64.8574,52.0317 65.2874,52.4617 65.8494,52.8447 C66.4134,53.2267 67.0964,53.5777 67.8964,53.8947 C68.6984,54.2127 69.6044,54.5087 70.6154,54.7827 C72.0584,55.2017 73.3884,55.7137 74.6004,56.3207 C75.8134,56.9277 76.8564,57.6457 77.7304,58.4757 C78.6034,59.3067 79.2824,60.2517 79.7664,61.3137 C80.2504,62.3747 80.4924,63.5547 80.4924,64.8547 C80.4924,66.2407 80.2144,67.4717 79.6584,68.5477 C79.1014,69.6237 78.3334,70.5327 77.3514,71.2767 C76.3694,72.0207 75.1994,72.5837 73.8434,72.9657 C72.4854,73.3487 71.0054,73.5397 69.4024,73.5397 C68.4064,73.5397 67.4134,73.4497 66.4244,73.2697 C65.4344,73.0887 64.4894,72.8107 63.5874,72.4357 C62.6844,72.0597 61.8434,71.5907 61.0634,71.0277 C60.2834,70.4647 59.6084,69.8077 59.0384,69.0567 C58.4684,68.3057 58.0204,67.4537 57.6954,66.5007 C57.3704,65.5477 57.2084,64.4937 57.2084,63.3387 L63.1854,63.3387 C63.2154,64.2917 63.3814,65.1077 63.6844,65.7857 C63.9874,66.4647 64.4104,67.0207 64.9514,67.4537 C65.4934,67.8867 66.1424,68.2047 66.9004,68.4067 C67.6584,68.6087 68.4924,68.7097 69.4024,68.7097 C70.2114,68.7097 70.9294,68.6167 71.5574,68.4287 C72.1854,68.2407 72.7164,67.9807 73.1494,67.6487 C73.5834,67.3167 73.9144,66.9157 74.1454,66.4467 C74.3774,65.9777 74.4924,65.4607 74.4924,64.8977" id="Fill-31" fill="#000000"></path>
                <path d="M141.5959,117.1794 C141.4649,117.1794 141.3359,117.1264 141.2429,117.0334 C141.1499,116.9404 141.0969,116.8114 141.0969,116.6794 C141.0969,116.5474 141.1499,116.4194 141.2429,116.3264 C141.4289,116.1394 141.7639,116.1404 141.9499,116.3264 C142.0429,116.4194 142.0959,116.5474 142.0959,116.6794 C142.0959,116.8114 142.0429,116.9404 141.9499,117.0334 C141.8569,117.1264 141.7279,117.1794 141.5959,117.1794" id="Fill-33" fill="#30343A"></path>
                <path d="M216.583,25.1113 C216.369,24.9363 216.337,24.6213 216.512,24.4073 C216.687,24.1933 217.002,24.1623 217.216,24.3373 C217.43,24.5123 217.461,24.8273 217.286,25.0413 C217.187,25.1613 217.043,25.2243 216.899,25.2243 C216.788,25.2243 216.676,25.1873 216.583,25.1113 M214.073,28.1763 C213.859,28.0013 213.827,27.6863 214.002,27.4723 C214.177,27.2593 214.492,27.2273 214.706,27.4023 C214.919,27.5773 214.951,27.8933 214.776,28.1063 C214.677,28.2263 214.533,28.2893 214.388,28.2893 C214.277,28.2893 214.165,28.2523 214.073,28.1763 M211.563,31.2413 C211.349,31.0663 211.317,30.7513 211.492,30.5383 C211.667,30.3243 211.982,30.2923 212.196,30.4673 C212.409,30.6423 212.441,30.9583 212.266,31.1713 C212.167,31.2923 212.023,31.3543 211.879,31.3543 C211.767,31.3543 211.655,31.3173 211.563,31.2413 M209.053,34.3063 C208.839,34.1313 208.807,33.8173 208.982,33.6033 C209.157,33.3893 209.472,33.3573 209.686,33.5323 C209.899,33.7073 209.931,34.0233 209.756,34.2363 C209.657,34.3573 209.514,34.4193 209.369,34.4193 C209.258,34.4193 209.145,34.3823 209.053,34.3063 M206.542,37.3723 C206.329,37.1973 206.297,36.8823 206.472,36.6683 C206.647,36.4543 206.962,36.4233 207.175,36.5983 C207.389,36.7733 207.421,37.0873 207.246,37.3013 C207.147,37.4223 207.003,37.4853 206.858,37.4853 C206.747,37.4853 206.635,37.4483 206.542,37.3723 M204.032,40.4373 C203.819,40.2623 203.787,39.9473 203.962,39.7333 C204.137,39.5203 204.452,39.4883 204.665,39.6633 C204.879,39.8383 204.911,40.1533 204.736,40.3663 C204.637,40.4873 204.493,40.5503 204.348,40.5503 C204.237,40.5503 204.125,40.5133 204.032,40.4373 M201.522,43.5023 C201.309,43.3273 201.277,43.0113 201.452,42.7993 C201.627,42.5853 201.942,42.5533 202.155,42.7283 C202.369,42.9033 202.401,43.2183 202.226,43.4323 C202.127,43.5533 201.984,43.6153 201.839,43.6153 C201.727,43.6153 201.615,43.5783 201.522,43.5023 M199.012,46.5673 C198.798,46.3923 198.767,46.0773 198.942,45.8643 C199.117,45.6503 199.431,45.6183 199.645,45.7933 C199.859,45.9693 199.891,46.2833 199.716,46.4973 C199.617,46.6183 199.473,46.6803 199.329,46.6803 C199.217,46.6803 199.105,46.6433 199.012,46.5673 M196.502,49.6323 C196.288,49.4583 196.257,49.1423 196.432,48.9293 C196.607,48.7153 196.921,48.6843 197.135,48.8593 C197.349,49.0343 197.381,49.3483 197.206,49.5623 C197.107,49.6833 196.963,49.7453 196.818,49.7453 C196.706,49.7453 196.594,49.7093 196.502,49.6323 M193.992,52.6973 C193.778,52.5223 193.747,52.2073 193.922,51.9933 C194.097,51.7813 194.411,51.7493 194.625,51.9243 C194.839,52.0993 194.871,52.4143 194.696,52.6283 C194.597,52.7483 194.453,52.8113 194.308,52.8113 C194.197,52.8113 194.085,52.7733 193.992,52.6973 M191.482,55.7623 C191.268,55.5873 191.236,55.2733 191.411,55.0593 C191.586,54.8463 191.901,54.8143 192.115,54.9893 C192.329,55.1643 192.36,55.4793 192.185,55.6933 C192.086,55.8133 191.943,55.8763 191.799,55.8763 C191.687,55.8763 191.575,55.8393 191.482,55.7623 M188.972,58.8283 C188.758,58.6533 188.726,58.3383 188.901,58.1243 C189.076,57.9103 189.391,57.8793 189.605,58.0543 C189.819,58.2303 189.85,58.5443 189.675,58.7583 C189.576,58.8783 189.432,58.9413 189.288,58.9413 C189.176,58.9413 189.064,58.9043 188.972,58.8283 M186.462,61.8933 C186.248,61.7183 186.216,61.4033 186.391,61.1893 C186.566,60.9753 186.881,60.9443 187.095,61.1193 C187.309,61.2943 187.34,61.6103 187.165,61.8233 C187.066,61.9433 186.922,62.0063 186.778,62.0063 C186.666,62.0063 186.554,61.9693 186.462,61.8933 M183.952,64.9583 C183.738,64.7833 183.706,64.4683 183.881,64.2553 C184.056,64.0413 184.371,64.0093 184.585,64.1843 C184.799,64.3593 184.83,64.6753 184.655,64.8883 C184.556,65.0093 184.412,65.0713 184.268,65.0713 C184.156,65.0713 184.044,65.0343 183.952,64.9583 M181.442,68.0233 C181.228,67.8483 181.196,67.5343 181.371,67.3203 C181.546,67.1063 181.861,67.0743 182.075,67.2493 C182.289,67.4243 182.32,67.7403 182.145,67.9533 C182.046,68.0743 181.903,68.1373 181.758,68.1373 C181.646,68.1373 181.534,68.0993 181.442,68.0233 M178.931,71.0893 C178.718,70.9143 178.686,70.5993 178.861,70.3853 C179.036,70.1713 179.351,70.1403 179.564,70.3153 C179.778,70.4903 179.81,70.8043 179.635,71.0183 C179.536,71.1393 179.392,71.2023 179.247,71.2023 C179.135,71.2023 179.023,71.1653 178.931,71.0893 M176.421,74.1543 C176.208,73.9793 176.176,73.6643 176.351,73.4503 C176.526,73.2373 176.841,73.2053 177.054,73.3803 C177.268,73.5553 177.3,73.8703 177.125,74.0833 C177.026,74.2043 176.882,74.2673 176.737,74.2673 C176.625,74.2673 176.513,74.2303 176.421,74.1543 M173.911,77.2193 C173.698,77.0443 173.666,76.7293 173.841,76.5163 C174.016,76.3023 174.331,76.2703 174.544,76.4453 C174.758,76.6203 174.79,76.9353 174.615,77.1493 C174.516,77.2703 174.373,77.3323 174.228,77.3323 C174.116,77.3323 174.004,77.2953 173.911,77.2193 M171.401,80.2843 C171.187,80.1093 171.156,79.7943 171.331,79.5813 C171.506,79.3673 171.82,79.3353 172.034,79.5103 C172.248,79.6853 172.28,80.0003 172.105,80.2143 C172.006,80.3353 171.863,80.3973 171.718,80.3973 C171.606,80.3973 171.494,80.3603 171.401,80.2843 M168.891,83.3503 C168.677,83.1753 168.646,82.8593 168.821,82.6463 C168.996,82.4323 169.31,82.4013 169.524,82.5763 C169.738,82.7513 169.77,83.0653 169.595,83.2793 C169.496,83.4003 169.352,83.4633 169.207,83.4633 C169.095,83.4633 168.983,83.4263 168.891,83.3503 M166.381,86.4153 C166.167,86.2403 166.136,85.9243 166.311,85.7103 C166.486,85.4983 166.8,85.4663 167.014,85.6413 C167.228,85.8163 167.26,86.1313 167.085,86.3453 C166.986,86.4653 166.842,86.5283 166.697,86.5283 C166.586,86.5283 166.474,86.4913 166.381,86.4153 M163.871,89.4793 C163.657,89.3043 163.625,88.9903 163.8,88.7763 C163.975,88.5633 164.29,88.5313 164.504,88.7063 C164.718,88.8813 164.749,89.1963 164.574,89.4103 C164.475,89.5313 164.332,89.5933 164.187,89.5933 C164.076,89.5933 163.964,89.5563 163.871,89.4793 M161.361,92.5453 C161.147,92.3703 161.115,92.0553 161.29,91.8413 C161.465,91.6273 161.78,91.5963 161.994,91.7723 C162.208,91.9473 162.239,92.2613 162.064,92.4753 C161.965,92.5963 161.821,92.6583 161.676,92.6583 C161.565,92.6583 161.453,92.6213 161.361,92.5453 M158.851,95.6103 C158.637,95.4353 158.605,95.1203 158.78,94.9063 C158.955,94.6923 159.27,94.6613 159.484,94.8363 C159.698,95.0123 159.729,95.3273 159.554,95.5403 C159.455,95.6603 159.311,95.7233 159.166,95.7233 C159.055,95.7233 158.943,95.6863 158.851,95.6103 M156.341,98.6753 C156.127,98.5003 156.095,98.1853 156.27,97.9723 C156.445,97.7583 156.76,97.7263 156.974,97.9013 C157.188,98.0763 157.219,98.3923 157.044,98.6063 C156.945,98.7263 156.801,98.7883 156.656,98.7883 C156.545,98.7883 156.433,98.7513 156.341,98.6753 M153.831,101.7403 C153.617,101.5653 153.585,101.2513 153.76,101.0373 C153.935,100.8233 154.25,100.7913 154.464,100.9663 C154.678,101.1413 154.709,101.4573 154.534,101.6703 C154.435,101.7913 154.291,101.8543 154.147,101.8543 C154.035,101.8543 153.923,101.8163 153.831,101.7403 M151.321,104.8063 C151.107,104.6313 151.075,104.3163 151.25,104.1023 C151.425,103.8883 151.74,103.8573 151.954,104.0323 C152.168,104.2073 152.199,104.5223 152.024,104.7353 C151.925,104.8563 151.781,104.9193 151.636,104.9193 C151.525,104.9193 151.413,104.8823 151.321,104.8063 M148.81,107.8713 C148.597,107.6963 148.565,107.3813 148.74,107.1673 C148.915,106.9543 149.23,106.9223 149.443,107.0973 C149.657,107.2723 149.689,107.5873 149.514,107.8003 C149.415,107.9213 149.271,107.9843 149.126,107.9843 C149.014,107.9843 148.902,107.9473 148.81,107.8713 M146.3,110.9363 C146.087,110.7613 146.055,110.4463 146.23,110.2333 C146.405,110.0193 146.72,109.9873 146.933,110.1623 C147.147,110.3373 147.179,110.6523 147.004,110.8663 C146.905,110.9863 146.761,111.0493 146.616,111.0493 C146.505,111.0493 146.393,111.0123 146.3,110.9363 M143.79,114.0013 C143.577,113.8263 143.545,113.5123 143.72,113.2983 C143.895,113.0843 144.21,113.0523 144.423,113.2273 C144.637,113.4023 144.669,113.7173 144.494,113.9313 C144.395,114.0523 144.251,114.1143 144.107,114.1143 C143.995,114.1143 143.883,114.0773 143.79,114.0013" id="Fill-35" fill="#30343A"></path>
                <path d="M219.4089,22.1594 C219.2789,22.1594 219.1499,22.1054 219.0559,22.0124 C218.9629,21.9184 218.9089,21.7894 218.9089,21.6594 C218.9089,21.5284 218.9629,21.3994 219.0559,21.3054 C219.2449,21.1194 219.5779,21.1204 219.7629,21.3054 C219.8559,21.3984 219.9089,21.5274 219.9089,21.6594 C219.9089,21.7904 219.8559,21.9194 219.7629,22.0124 C219.6699,22.1054 219.5409,22.1594 219.4089,22.1594" id="Fill-37" fill="#30343A"></path>
                <path d="M231.8557,4.3872 C232.1387,4.3872 232.4007,4.4062 232.6417,4.4442 C232.8817,4.4822 233.0777,4.5242 233.2257,4.5692 L232.9487,6.4392 C232.7017,6.3802 232.4487,6.3362 232.1897,6.3072 C231.9307,6.2782 231.6837,6.2632 231.4507,6.2632 C230.9237,6.2632 230.5017,6.3652 230.1847,6.5672 C229.8677,6.7702 229.6297,7.0602 229.4727,7.4382 L229.4727,11.8252 L227.5967,11.8252 L227.5967,4.5222 L229.3447,4.5222 L229.4317,5.7172 C229.7297,5.3032 230.0847,4.9782 230.4987,4.7412 C230.9127,4.5052 231.3647,4.3872 231.8557,4.3872" id="Fill-39" fill="#F45919"></path>
                <path d="M238.2268,5.9058 C238.0148,5.9058 237.8218,5.9428 237.6468,6.0168 C237.4708,6.0918 237.3168,6.1978 237.1838,6.3378 C237.0508,6.4778 236.9398,6.6438 236.8498,6.8368 C236.7598,7.0308 236.6928,7.2468 236.6478,7.4848 L239.7248,7.4848 L239.7248,7.3368 C239.7158,7.1388 239.6778,6.9518 239.6108,6.7768 C239.5428,6.6008 239.4458,6.4488 239.3208,6.3208 C239.1938,6.1928 239.0398,6.0918 238.8578,6.0168 C238.6758,5.9428 238.4648,5.9058 238.2268,5.9058 M238.4498,11.9598 C237.8868,11.9598 237.3758,11.8678 236.9168,11.6828 C236.4578,11.4988 236.0648,11.2478 235.7368,10.9308 C235.4078,10.6138 235.1548,10.2398 234.9768,9.8108 C234.7988,9.3808 234.7098,8.9208 234.7098,8.4298 L234.7098,8.1598 C234.7098,7.6018 234.7978,7.0928 234.9738,6.6318 C235.1488,6.1698 235.3938,5.7728 235.7088,5.4398 C236.0238,5.1068 236.3978,4.8488 236.8298,4.6638 C237.2618,4.4798 237.7318,4.3868 238.2408,4.3868 C238.7668,4.3868 239.2358,4.4738 239.6478,4.6468 C240.0588,4.8208 240.4078,5.0648 240.6938,5.3798 C240.9798,5.6948 241.1968,6.0738 241.3448,6.5168 C241.4938,6.9598 241.5678,7.4488 241.5678,7.9848 L241.5678,8.7808 L236.6138,8.7808 C236.6498,9.0288 236.7228,9.2548 236.8328,9.4588 C236.9438,9.6638 237.0838,9.8408 237.2548,9.9888 C237.4258,10.1378 237.6218,10.2528 237.8418,10.3328 C238.0628,10.4148 238.3028,10.4548 238.5638,10.4548 C238.7478,10.4548 238.9318,10.4368 239.1148,10.4008 C239.2958,10.3648 239.4708,10.3118 239.6368,10.2418 C239.8038,10.1728 239.9588,10.0858 240.1028,9.9828 C240.2478,9.8788 240.3728,9.7578 240.4808,9.6178 L241.4188,10.6308 C241.3018,10.7968 241.1508,10.9598 240.9628,11.1198 C240.7768,11.2798 240.5558,11.4208 240.3018,11.5448 C240.0478,11.6688 239.7658,11.7688 239.4558,11.8448 C239.1448,11.9218 238.8098,11.9598 238.4498,11.9598" id="Fill-41" fill="#F45919"></path>
                <polygon id="Fill-43" fill="#F45919" points="246.3059 9.6584 246.3999 10.1844 246.4939 9.6784 248.1009 4.5224 250.0579 4.5224 247.2849 11.8254 245.5229 11.8254 242.7359 4.5224 244.6929 4.5224"></polygon>
                <path d="M253.1155,8.2478 C253.1155,8.5538 253.1445,8.8408 253.2035,9.1088 C253.2615,9.3758 253.3535,9.6098 253.4795,9.8098 C253.6055,10.0108 253.7685,10.1688 253.9695,10.2858 C254.1695,10.4028 254.4115,10.4618 254.6945,10.4618 C254.9695,10.4618 255.2055,10.4028 255.4035,10.2858 C255.6015,10.1688 255.7625,10.0108 255.8865,9.8098 C256.0105,9.6098 256.1005,9.3758 256.1595,9.1088 C256.2185,8.8408 256.2475,8.5538 256.2475,8.2478 L256.2475,8.1058 C256.2475,7.8088 256.2185,7.5278 256.1595,7.2628 C256.1005,6.9968 256.0105,6.7628 255.8865,6.5608 C255.7625,6.3578 255.6015,6.1978 255.4035,6.0808 C255.2055,5.9648 254.9655,5.9058 254.6815,5.9058 C254.4025,5.9058 254.1645,5.9648 253.9665,6.0808 C253.7675,6.1978 253.6055,6.3578 253.4795,6.5608 C253.3535,6.7628 253.2615,6.9968 253.2035,7.2628 C253.1445,7.5278 253.1155,7.8088 253.1155,8.1058 L253.1155,8.2478 Z M251.2395,8.1058 C251.2395,7.5748 251.3155,7.0838 251.4695,6.6318 C251.6215,6.1788 251.8455,5.7868 252.1405,5.4538 C252.4345,5.1208 252.7955,4.8598 253.2195,4.6708 C253.6455,4.4818 254.1325,4.3868 254.6815,4.3868 C255.2305,4.3868 255.7195,4.4818 256.1455,4.6708 C256.5735,4.8598 256.9345,5.1208 257.2295,5.4538 C257.5235,5.7868 257.7485,6.1788 257.9005,6.6318 C258.0535,7.0838 258.1305,7.5748 258.1305,8.1058 L258.1305,8.2478 C258.1305,8.7828 258.0535,9.2768 257.9005,9.7288 C257.7485,10.1818 257.5255,10.5738 257.2325,10.9068 C256.9405,11.2398 256.5805,11.4998 256.1525,11.6868 C255.7255,11.8728 255.2395,11.9668 254.6945,11.9668 C254.1455,11.9668 253.6565,11.8728 253.2265,11.6868 C252.7975,11.4998 252.4345,11.2398 252.1405,10.9068 C251.8455,10.5738 251.6215,10.1818 251.4695,9.7288 C251.3155,9.2768 251.2395,8.7828 251.2395,8.2478 L251.2395,8.1058 Z" id="Fill-45" fill="#F45919"></path>
                <path d="M265.0354,4.3872 C265.3184,4.3872 265.5804,4.4062 265.8214,4.4442 C266.0614,4.4822 266.2574,4.5242 266.4054,4.5692 L266.1284,6.4392 C265.8814,6.3802 265.6284,6.3362 265.3694,6.3072 C265.1104,6.2782 264.8634,6.2632 264.6304,6.2632 C264.1034,6.2632 263.6814,6.3652 263.3644,6.5672 C263.0474,6.7702 262.8094,7.0602 262.6524,7.4382 L262.6524,11.8252 L260.7764,11.8252 L260.7764,4.5222 L262.5244,4.5222 L262.6114,5.7172 C262.9094,5.3032 263.2644,4.9782 263.6784,4.7412 C264.0924,4.5052 264.5444,4.3872 265.0354,4.3872" id="Fill-47" fill="#F45919"></path>
                <path d="M270.8596,10.5088 C271.0486,10.5088 271.2236,10.4868 271.3856,10.4418 C271.5476,10.3968 271.6946,10.3378 271.8246,10.2658 C271.9556,10.1938 272.0676,10.1118 272.1626,10.0198 C272.2566,9.9268 272.3316,9.8338 272.3846,9.7398 L272.3846,8.4838 L271.4266,8.4838 C271.1336,8.4838 270.8836,8.5118 270.6766,8.5688 C270.4696,8.6248 270.3016,8.7038 270.1716,8.8048 C270.0406,8.9058 269.9436,9.0278 269.8806,9.1688 C269.8176,9.3108 269.7866,9.4648 269.7866,9.6318 C269.7866,9.8838 269.8756,10.0928 270.0526,10.2588 C270.2306,10.4258 270.4996,10.5088 270.8596,10.5088 L270.8596,10.5088 Z M272.6486,11.8248 C272.6026,11.7348 272.5646,11.6318 272.5336,11.5148 C272.5026,11.3978 272.4746,11.2738 272.4526,11.1438 C272.3486,11.2558 272.2296,11.3618 272.0946,11.4608 C271.9606,11.5598 271.8096,11.6458 271.6456,11.7198 C271.4816,11.7948 271.3006,11.8528 271.1026,11.8958 C270.9046,11.9388 270.6906,11.9598 270.4616,11.9598 C270.0886,11.9598 269.7456,11.9058 269.4316,11.7978 C269.1196,11.6898 268.8506,11.5398 268.6256,11.3458 C268.4006,11.1528 268.2246,10.9218 268.0986,10.6538 C267.9726,10.3858 267.9106,10.0948 267.9106,9.7798 C267.9106,9.0108 268.1976,8.4158 268.7706,7.9948 C269.3436,7.5738 270.2006,7.3638 271.3386,7.3638 L272.3846,7.3638 L272.3846,6.9318 C272.3846,6.5808 272.2706,6.3028 272.0416,6.0978 C271.8116,5.8938 271.4806,5.7908 271.0486,5.7908 C270.6666,5.7908 270.3866,5.8728 270.2126,6.0378 C270.0366,6.2018 269.9486,6.4208 269.9486,6.6958 L268.0726,6.6958 C268.0726,6.3848 268.1406,6.0908 268.2776,5.8108 C268.4156,5.5318 268.6156,5.2868 268.8796,5.0758 C269.1416,4.8638 269.4636,4.6968 269.8436,4.5728 C270.2236,4.4488 270.6596,4.3868 271.1496,4.3868 C271.5906,4.3868 272.0016,4.4408 272.3816,4.5488 C272.7616,4.6568 273.0906,4.8168 273.3706,5.0288 C273.6496,5.2398 273.8676,5.5068 274.0256,5.8278 C274.1826,6.1498 274.2606,6.5218 274.2606,6.9448 L274.2606,10.0768 C274.2606,10.4678 274.2866,10.7918 274.3356,11.0488 C274.3846,11.3048 274.4576,11.5258 274.5516,11.7098 L274.5516,11.8248 L272.6486,11.8248 Z" id="Fill-49" fill="#F45919"></path>
                <path d="M278.0813,4.5222 L278.1963,5.5342 C278.4573,5.1702 278.7743,4.8872 279.1473,4.6872 C279.5213,4.4872 279.9353,4.3872 280.3903,4.3872 C280.7593,4.3872 281.0963,4.4412 281.4023,4.5492 C281.7083,4.6572 281.9733,4.8292 282.1953,5.0652 C282.4183,5.3022 282.5913,5.6052 282.7153,5.9762 C282.8393,6.3482 282.9003,6.7992 282.9003,7.3302 L282.9003,11.8252 L281.0243,11.8252 L281.0243,7.3572 C281.0243,7.0692 280.9913,6.8312 280.9263,6.6452 C280.8603,6.4582 280.7683,6.3112 280.6453,6.2022 C280.5243,6.0952 280.3783,6.0192 280.2073,5.9762 C280.0363,5.9342 279.8433,5.9122 279.6273,5.9122 C279.3083,5.9122 279.0353,5.9762 278.8103,6.1052 C278.5853,6.2332 278.4033,6.4092 278.2643,6.6352 L278.2643,11.8252 L276.3813,11.8252 L276.3813,4.5222 L278.0813,4.5222 Z" id="Fill-51" fill="#F45919"></path>
                <path d="M286.3704,8.2612 C286.3704,8.5672 286.4004,8.8522 286.4624,9.1152 C286.5224,9.3782 286.6154,9.6072 286.7414,9.8032 C286.8674,9.9992 287.0274,10.1532 287.2214,10.2662 C287.4144,10.3782 287.6434,10.4342 287.9094,10.4342 C288.2374,10.4342 288.5094,10.3712 288.7234,10.2452 C288.9364,10.1192 289.1064,9.9442 289.2324,9.7192 L289.2324,6.6282 C289.1064,6.3982 288.9364,6.2222 288.7234,6.0982 C288.5094,5.9742 288.2424,5.9122 287.9234,5.9122 C287.6574,5.9122 287.4284,5.9702 287.2344,6.0842 C287.0414,6.1992 286.8804,6.3572 286.7524,6.5572 C286.6234,6.7572 286.5274,6.9912 286.4654,7.2592 C286.4014,7.5272 286.3704,7.8132 286.3704,8.1192 L286.3704,8.2612 Z M284.4874,8.1192 C284.4874,7.5662 284.5564,7.0602 284.6934,6.6012 C284.8304,6.1422 285.0274,5.7482 285.2844,5.4192 C285.5404,5.0912 285.8504,4.8372 286.2154,4.6572 C286.5804,4.4772 286.9914,4.3872 287.4504,4.3872 C287.8784,4.3872 288.2444,4.4592 288.5514,4.6032 C288.8564,4.7472 289.1174,4.9522 289.3334,5.2172 L289.4074,4.5222 L291.1154,4.5222 L291.1154,11.5882 C291.1154,12.0842 291.0314,12.5242 290.8624,12.9112 C290.6934,13.2982 290.4574,13.6252 290.1534,13.8902 C289.8494,14.1562 289.4854,14.3572 289.0594,14.4942 C288.6354,14.6312 288.1664,14.7002 287.6524,14.7002 C287.4324,14.7002 287.1964,14.6782 286.9444,14.6332 C286.6924,14.5872 286.4424,14.5182 286.1954,14.4232 C285.9474,14.3292 285.7134,14.2082 285.4934,14.0622 C285.2724,13.9162 285.0834,13.7412 284.9264,13.5392 L285.7694,12.3982 C286.0084,12.6682 286.2784,12.8742 286.5804,13.0162 C286.8814,13.1582 287.2074,13.2292 287.5584,13.2292 C288.0854,13.2292 288.4954,13.0882 288.7904,12.8072 C289.0854,12.5252 289.2324,12.1262 289.2324,11.6092 L289.2324,11.1902 C289.0124,11.4332 288.7544,11.6222 288.4594,11.7572 C288.1644,11.8922 287.8234,11.9602 287.4364,11.9602 C286.9824,11.9602 286.5744,11.8662 286.2124,11.6802 C285.8494,11.4932 285.5404,11.2352 285.2844,10.9072 C285.0274,10.5782 284.8304,10.1882 284.6934,9.7362 C284.5564,9.2832 284.4874,8.7922 284.4874,8.2612 L284.4874,8.1192 Z" id="Fill-53" fill="#F45919"></path>
                <g id="Group-57" transform="translate(292.000000, 4.000000)">
                    <mask id="mask-6" fill="white">
                        <use xlink:href="#path-5"></use>
                    </mask>
                    <g id="Clip-56"></g>
                    <path d="M4.2922,1.9058 C4.0802,1.9058 3.8872,1.9428 3.7122,2.0168 C3.5362,2.0918 3.3822,2.1978 3.2492,2.3378 C3.1162,2.4778 3.0052,2.6438 2.9152,2.8368 C2.8252,3.0308 2.7582,3.2468 2.7132,3.4848 L5.7902,3.4848 L5.7902,3.3368 C5.7812,3.1388 5.7432,2.9518 5.6762,2.7768 C5.6082,2.6008 5.5112,2.4488 5.3862,2.3208 C5.2592,2.1928 5.1052,2.0918 4.9232,2.0168 C4.7412,1.9428 4.5302,1.9058 4.2922,1.9058 M4.5152,7.9598 C3.9522,7.9598 3.4412,7.8678 2.9822,7.6828 C2.5232,7.4988 2.1302,7.2478 1.8022,6.9308 C1.4732,6.6138 1.2202,6.2398 1.0422,5.8108 C0.8642,5.3808 0.7752,4.9208 0.7752,4.4298 L0.7752,4.1598 C0.7752,3.6018 0.8632,3.0928 1.0392,2.6318 C1.2142,2.1698 1.4592,1.7728 1.7742,1.4398 C2.0892,1.1068 2.4632,0.8488 2.8952,0.6638 C3.3272,0.4798 3.7972,0.3868 4.3062,0.3868 C4.8322,0.3868 5.3012,0.4738 5.7132,0.6468 C6.1242,0.8208 6.4732,1.0648 6.7592,1.3798 C7.0452,1.6948 7.2622,2.0738 7.4102,2.5168 C7.5592,2.9598 7.6332,3.4488 7.6332,3.9848 L7.6332,4.7808 L2.6792,4.7808 C2.7152,5.0288 2.7882,5.2548 2.8982,5.4588 C3.0092,5.6638 3.1492,5.8408 3.3202,5.9888 C3.4912,6.1378 3.6872,6.2528 3.9072,6.3328 C4.1282,6.4148 4.3682,6.4548 4.6292,6.4548 C4.8132,6.4548 4.9972,6.4368 5.1802,6.4008 C5.3612,6.3648 5.5362,6.3118 5.7022,6.2418 C5.8692,6.1728 6.0242,6.0858 6.1682,5.9828 C6.3132,5.8788 6.4382,5.7578 6.5462,5.6178 L7.4842,6.6308 C7.3672,6.7968 7.2162,6.9598 7.0282,7.1198 C6.8422,7.2798 6.6212,7.4208 6.3672,7.5448 C6.1132,7.6688 5.8312,7.7688 5.5212,7.8448 C5.2102,7.9218 4.8752,7.9598 4.5152,7.9598" id="Fill-55" fill="#F45919" mask="url(#mask-6)"></path>
                </g>
            </g>
        </g>
    </g>
</svg>