<?xml version="1.0" encoding="UTF-8"?>
<svg width="334px" height="100px" viewBox="0 0 334 100" version="1.1" xmlns="http://www.w3.org/2000/svg" xmlns:xlink="http://www.w3.org/1999/xlink">
    <!-- Generator: Sketch 54.1 (76490) - https://sketchapp.com -->
    <title>09.logo_monochrome_blackBG</title>
    <desc>Created with Sketch.</desc>
    <g id="FINAL" stroke="none" stroke-width="1" fill="none" fill-rule="evenodd">
        <g id="Press-Info" transform="translate(-345.000000, -2512.000000)">
            <g id="09.logo_monochrome_blackBG" transform="translate(345.000000, 2512.000000)">
                <polygon id="Fill-1" fill="#15161A" points="234 100 334 100 334 0 234 0"></polygon>
                <polygon id="Fill-2" fill="#15161A" points="0.662333333 100 211.329 100 211.329 0 0.662333333 0"></polygon>
                <path d="M276.849767,54.2900333 L276.849767,48.5700333 L276.849767,42.8503667 L282.569767,42.8503667 L288.289433,42.8503667 L294.009433,42.8503667 L294.009433,48.5700333 L288.289433,48.5700333 L282.569767,48.5700333 L282.569767,54.2900333 L282.569767,60.0097 L276.849767,60.0097 L276.849767,54.2900333 Z M259.690433,39.9903667 L259.690433,74.3093667 L294.009433,74.3093667 L308.308767,60.0097 L308.308767,25.6907 L273.989767,25.6907 L259.690433,39.9903667 Z" id="Fill-3" fill="#FFFFFF"></path>
                <g id="Group-22" transform="translate(26.000000, 25.666667)" fill="#FFFFFF">
                    <path d="M103.496567,24.2529 L101.6419,30.1822333 L101.6219,30.1822333 L101.621567,30.1829 L101.621567,30.1822333 L101.601567,30.1822333 L99.7469,24.2529 L97.6669,17.6025667 L93.4245667,17.6025667 L97.2935667,30.3782333 L97.5295667,31.0615667 C98.2192333,32.8945667 99.7619,34.1765667 101.593567,34.1805667 L101.6099,34.1805667 C101.610233,34.1805667 101.611233,34.1802333 101.611567,34.1802333 L101.6119,34.1802333 C101.612567,34.1802333 101.6129,34.1805667 101.613567,34.1805667 L101.614233,34.1805667 L101.629567,34.1805667 L101.6299,34.1805667 C101.630567,34.1805667 101.631233,34.1802333 101.6319,34.1802333 C101.632567,34.1802333 101.633233,34.1805667 101.633567,34.1805667 L101.6499,34.1805667 C103.481567,34.1765667 105.024233,32.8945667 105.7139,31.0615667 L105.9499,30.3782333 L109.8189,17.6025667 L105.576567,17.6025667 L103.496567,24.2529 Z" id="Fill-4"></path>
                    <path d="M137.0021,33.9853333 C137.0021,34.9303333 136.235767,35.6963333 135.290767,35.6963333 L134.0191,35.6963333 L134.0191,39.4873333 L135.947767,39.4873333 C138.949767,39.4873333 141.383433,37.0536667 141.383433,34.052 L141.383433,17.579 L137.0021,17.579 L137.0021,33.9853333 Z" id="Fill-6"></path>
                    <path d="M158.742667,26.7819 C158.451667,26.2662333 158.065333,25.8339 157.584667,25.4852333 C157.102667,25.1369 156.553667,24.8565667 155.935667,24.6432333 C155.317333,24.4305667 154.683,24.2489 154.033333,24.0985667 C153.404667,23.9492333 152.786333,23.8092333 152.178333,23.6805667 C151.569667,23.5515667 151.03,23.4075667 150.558667,23.2475667 C150.087333,23.0882333 149.705,22.8815667 149.412333,22.6285667 C149.119667,22.3749 148.974333,22.0492333 148.976667,21.6502333 C148.978333,21.3149 149.063333,21.0479 149.232333,20.8489 C149.401,20.6502333 149.606667,20.4992333 149.848333,20.3955667 C150.09,20.2915667 150.358,20.2245667 150.652333,20.1945667 C150.945667,20.1642333 151.219,20.1499 151.471,20.1509 C152.268333,20.1549 152.96,20.3109 153.546667,20.6175667 C154.132667,20.9252333 154.455333,21.5092333 154.514,22.3699 L158.764333,22.3902333 C158.685,21.3825667 158.431667,20.5469 158.005,19.8839 C157.578,19.2202333 157.04,18.6882333 156.391333,18.2862333 C155.742333,17.8845667 155.004333,17.5975667 154.176333,17.4252333 C153.347333,17.2535667 152.493,17.1652333 151.611333,17.1612333 C150.73,17.1569 149.868667,17.2315667 149.028667,17.3845667 C148.188333,17.5382333 147.431333,17.8072333 146.757667,18.1922333 C146.084333,18.5775667 145.541333,19.1049 145.128667,19.7742333 C144.716667,20.4439 144.508,21.3035667 144.502667,22.3529 C144.499333,23.0665667 144.643,23.6705667 144.934667,24.1649 C145.226,24.6599 145.612,25.0709 146.093667,25.3989 C146.574667,25.7262333 147.124333,25.9915667 147.743,26.1935667 C148.360333,26.3962333 148.994667,26.5722333 149.645,26.7222333 C151.237667,27.0662333 152.48,27.4079 153.371,27.7475667 C154.261333,28.0879 154.705,28.5939 154.701667,29.2652333 C154.699667,29.6639 154.603333,29.9945667 154.413333,30.2555667 C154.223,30.5172333 153.985667,30.7255667 153.701667,30.8819 C153.417333,31.0379 153.102,31.1519 152.755333,31.2235667 C152.408667,31.2955667 152.078333,31.3305667 151.763667,31.3292333 C151.322667,31.3269 150.898,31.2729 150.489333,31.1652333 C150.080333,31.0585667 149.719,30.8942333 149.405,30.6722333 C149.091667,30.4502333 148.835333,30.1655667 148.638333,29.8182333 C148.440333,29.4709 148.343,29.0562333 148.345,28.5735667 L144.095333,28.5529 C144.131333,29.6449 144.373667,30.5532333 144.821667,31.2795667 C145.269333,32.0062333 145.843333,32.5912333 146.544333,33.0355667 C147.245667,33.4795667 148.046667,33.7985667 148.948667,33.9915667 C149.85,34.1845667 150.772667,34.2835667 151.717667,34.2882333 C152.640667,34.2925667 153.548667,34.2075667 154.442667,34.0335667 C155.335,33.8595667 156.128333,33.5535667 156.824,33.1165667 C157.518333,32.6789 158.082333,32.0992333 158.516333,31.3772333 C158.949667,30.6552333 159.169667,29.7589 159.175,28.6885667 C159.179,27.9329 159.034,27.2979 158.742667,26.7819" id="Fill-8"></path>
                    <path d="M131.444167,17.2571333 L131.3445,17.2568 C129.934167,17.2501333 128.784833,18.3878 128.7785,19.7981333 C128.771167,21.2084667 129.9095,22.3574667 131.319833,22.3641333 L131.4195,22.3648 C132.829833,22.3718 133.978833,21.2338 133.985833,19.8234667 C133.9925,18.4131333 132.8545,17.2641333 131.444167,17.2571333" id="Fill-10"></path>
                    <path d="M139.196467,9.49153333 L139.0968,9.49086667 C137.686133,9.4842 136.5368,10.6222 136.530133,12.0328667 C136.523133,13.4435333 137.661467,14.5928667 139.072133,14.5995333 L139.1718,14.5998667 C140.582467,14.6068667 141.731467,13.4688667 141.738467,12.0582 C141.745133,10.6475333 140.607133,9.49853333 139.196467,9.49153333" id="Fill-12"></path>
                    <path d="M81.0447667,23.9713333 C81.0667667,23.6566667 81.1367667,23.3003333 81.2547667,22.9016667 C81.3714333,22.5043333 81.5731,22.1273333 81.8581,21.7713333 C82.1434333,21.4163333 82.5224333,21.1186667 82.9957667,20.88 C83.4691,20.641 84.0631,20.5226667 84.7764333,20.5263333 C85.8677667,20.5316667 86.6794333,20.8296667 87.2117667,21.4193333 C87.7447667,22.01 88.1127667,22.8716667 88.3167667,24.0063333 L81.0447667,23.9713333 Z M91.0587667,20.1473333 C90.4021,19.242 89.5607667,18.519 88.5351,17.9786667 C87.5097667,17.4383333 86.3041,17.165 84.9184333,17.1583333 C83.6801,17.1523333 82.5507667,17.3673333 81.5307667,17.803 C80.5107667,18.239 79.6317667,18.8383333 78.8934333,19.6006667 C78.1551,20.3633333 77.5844333,21.2683333 77.1811,22.3156667 C76.7764333,23.3633333 76.5721,24.4956667 76.5657667,25.713 C76.5601,26.972 76.7481,28.1273333 77.1321,29.1786667 C77.5147667,30.23 78.0617667,31.1346667 78.7714333,31.894 C79.4814333,32.653 80.3491,33.2396667 81.3761,33.654 C82.4017667,34.068 83.5551,34.2783333 84.8354333,34.2843333 C86.6821,34.2933333 88.2584333,33.8813333 89.5641,33.048 C90.8691,32.215 91.8417667,30.8236667 92.4811,28.8746667 L88.5457667,28.8556667 C88.3957667,29.359 87.9951,29.8346667 87.3424333,30.2826667 C86.6897667,30.7306667 85.9117667,30.9523333 85.0097667,30.9483333 C83.7501,30.942 82.7864333,30.6123333 82.1177667,29.9583333 C81.4494333,29.3046667 81.0871,28.2533333 81.0307667,26.8046667 L92.7741,26.8613333 C92.8637667,25.6026667 92.7647667,24.395 92.4767667,23.2393333 C92.1881,22.084 91.7161,21.0533333 91.0587667,20.1473333 L91.0587667,20.1473333 Z" id="Fill-14"></path>
                    <path d="M122.5174,27.6757667 C122.388733,28.2941 122.1704,28.8494333 121.864733,29.3411 C121.557733,29.8331 121.1464,30.2244333 120.630733,30.5161 C120.115067,30.8074333 119.479733,30.9511 118.723733,30.9474333 C117.968733,30.9437667 117.339733,30.7937667 116.837067,30.4974333 C116.335067,30.2014333 115.932733,29.8057667 115.6314,29.3111 C115.328733,28.8167667 115.116733,28.2594333 114.9934,27.6397667 C114.870733,27.0197667 114.8104,26.3844333 114.813733,25.7337667 C114.816733,25.0834333 114.8834,24.4434333 115.011733,23.8144333 C115.1414,23.1851 115.3584,22.6304333 115.6654,22.1491 C115.971733,21.6681 116.3784,21.2764333 116.8834,20.9744333 C117.3884,20.6724333 118.019067,20.5231 118.7744,20.5267667 C119.530067,20.5304333 120.163733,20.6857667 120.677067,20.9924333 C121.1894,21.2997667 121.596733,21.6951 121.899067,22.1791 C122.2004,22.6634333 122.4134,23.2201 122.5364,23.8504333 C122.659067,24.4807667 122.718733,25.1217667 122.716067,25.7721 C122.712733,26.4227667 122.646733,27.0574333 122.5174,27.6757667 M124.9184,19.5334333 C124.187067,18.7851 123.3034,18.2031 122.2664,17.7891 C121.229733,17.3747667 120.0704,17.1647667 118.790733,17.1581 C117.5104,17.1524333 116.354733,17.3511 115.324733,17.7554333 C114.294067,18.1597667 113.410067,18.7331 112.671733,19.4744333 C111.933733,20.2157667 111.3624,21.1157667 110.958733,22.1734333 C110.555067,23.2314333 110.350067,24.4111 110.343733,25.7121 C110.337733,27.0141 110.5314,28.1897667 110.925067,29.2411 C111.3184,30.2927667 111.880733,31.1927667 112.6114,31.9411 C113.3424,32.6897667 114.220733,33.2661 115.248067,33.6694333 C116.274067,34.0727667 117.4274,34.2784333 118.7074,34.2844333 C119.9874,34.2907667 121.1494,34.0964333 122.190067,33.7031 C123.2304,33.3094333 124.119733,32.7417667 124.858067,32.0004333 C125.596067,31.2587667 126.167067,30.3644333 126.571067,29.3164333 C126.974733,28.2694333 127.180067,27.0951 127.1864,25.7937667 C127.192733,24.4921 126.9984,23.3107667 126.605067,22.2491 C126.2114,21.1874333 125.6494,20.2817667 124.9184,19.5334333" id="Fill-16"></path>
                    <path d="M63.6095333,20.8955 L63.6095333,33.9225 L68.0798667,33.9225 L68.0798667,21.9501667 L75.0638667,21.9501667 L75.0638667,17.5988333 L66.9062,17.5988333 C65.0855333,17.5988333 63.6095333,19.0748333 63.6095333,20.8955" id="Fill-18"></path>
                    <path d="M17.3100667,28.6227 L17.3100667,22.9030333 L17.3100667,17.1830333 L23.0300667,17.1830333 L28.7497333,17.1830333 L34.4697333,17.1830333 L34.4697333,22.9030333 L28.7497333,22.9030333 L23.0300667,22.9030333 L23.0300667,28.6227 L23.0300667,34.3427 L17.3100667,34.3427 L17.3100667,28.6227 Z M0.1504,14.3233667 L0.1504,48.6427 L34.4697333,48.6427 L48.7694,34.3427 L48.7694,0.0233666667 L14.4500667,0.0233666667 L0.1504,14.3233667 Z" id="Fill-20"></path>
                </g>
            </g>
        </g>
    </g>
</svg>