<?xml version="1.0" encoding="utf-8"?>
<!-- Generator: Adobe Illustrator 25.1.0, SVG Export Plug-In . SVG Version: 6.00 Build 0)  -->
<svg version="1.1" id="Layer_1" xmlns="http://www.w3.org/2000/svg" xmlns:xlink="http://www.w3.org/1999/xlink" x="0px" y="0px"
	 viewBox="0 0 214 214" style="enable-background:new 0 0 214 214;" xml:space="preserve">
<style type="text/css">
	.st0{fill-rule:evenodd;clip-rule:evenodd;}
	.st1{fill:url(#SVGID_1_);}
</style>
<desc>Created with Sketch.</desc>
<desc>Created with Sketch.</desc>
<path class="st0" d="M46.8,35v4.4H29v15.5h2.2v2.2H29v2.2h2.2v2.2H29v2.2h2.2v-2.2h2.2v2.2h2.2v-2.2h-2.2v-2.2h2.2v-2.2h2.2v2.2h2.2
	v-2.2h-2.2v-2.2h2.2v-2.2h2.2v2.2h2.2v-2.2h-2.2v-2.2h2.2v-2.2h2.2V46h-2.2v-2.2h2.2v-4.4h17.7V23.9h-2.2v-2.2h2.2v-2.2h-2.2v-2.2
	h2.2V15h-2.2v2.2h-2.2V15h-2.2v2.2h2.2v2.2h-2.2v2.2h-2.2v-2.2h-2.2v2.2h2.2v2.2h-2.2v2.2h-2.2v-2.2H49v2.2h2.2v2.2H49v2.2h-2.2v2.2
	H49V35H46.8z M49,35h2.2v2.2H49V35z M51.2,30.5v2.2H49v-2.2H51.2z M53.4,30.5h-2.2v-2.2h2.2V30.5z M53.4,30.5h2.2v2.2h-2.2V30.5z
	 M55.6,26.1v2.2h-2.2v-2.2H55.6z M57.9,26.1h-2.2v-2.2h2.2V26.1z M57.9,26.1h2.2v2.2h-2.2V26.1z M60.1,21.7h2.2v-2.2h-2.2V21.7z
	 M60.1,21.7v2.2h-2.2v-2.2H60.1z M44.6,43.8h-2.2v-2.2h2.2V43.8z M42.3,48.3V46h2.2v2.2H42.3z M40.1,48.3h2.2v2.2h-2.2V48.3z
	 M40.1,48.3h-2.2V46h2.2V48.3z M37.9,52.7v-2.2h2.2v2.2H37.9z M35.7,52.7h2.2v2.2h-2.2V52.7z M35.7,52.7h-2.2v-2.2h2.2V52.7z
	 M33.5,57.1h-2.2v2.2h2.2V57.1z M33.5,57.1v-2.2h2.2v2.2H33.5z M64.5,66h2.2v-2.2h2.2V66h4.4v-2.2h2.2V66H80v-2.2h2.2V66v26.6H64.5
	v-2.2h2.2v-2.2h-2.2h-2.2v-2.2h2.2v-2.2h2.2v-2.2h-2.2h-2.2v-2.2h2.2v-2.2h2.2v-2.2h-2.2h-2.2v-2.2h2.2v-2.2h2.2v-2.2h-2.2h-2.2V66
	H64.5z M60.1,70.4v-2.2h2.2v2.2H60.1z M57.9,72.6v-2.2h2.2v2.2H57.9z M55.6,74.9v-2.2h2.2v2.2H55.6z M53.4,77.1v-2.2h2.2v2.2H53.4z
	 M51.2,79.3v-2.2h2.2v2.2H51.2z M49,81.5v-2.2h2.2v2.2H49z M46.8,83.7H49v-2.2h-2.2v-2.2h-2.2v-2.2h2.2H49v-2.2h2.2v-2.2h2.2v-2.2
	h2.2v-2.2h2.2V66h-2.2v2.2h-2.2v2.2h-2.2v2.2H49v2.2h-2.2h-2.2v-2.2h2.2v-2.2H49v-2.2h2.2V66H49v2.2h-2.2V66h-2.2v2.2h-2.2V66h-2.2
	v2.2h-2.2V66h-2.2v2.2h-2.2V66h-2.2v2.2H29V66h-2.2v2.2h-2.2V66h-2.2h-2.2v2.2H18V66h-2.2h-2.2v2.2h-2.2v4.4h2.2v2.2h-2.2v4.4h2.2
	v2.2h-2.2v4.4h2.2v2.2h-2.2v4.4h2.2v-2.2h2.2v2.2H18h2.2v-2.2h2.2v2.2h4.4v-2.2H29v2.2v2.2h-2.2V117H29h2.2v2.2h2.2h2.2V117h2.2v2.2
	h2.2h2.2V117h2.2v2.2h2.2h17.7v-6.7v-2.2h-2.2v-2.2h-2.2v2.2h-2.2v-2.2h-2.2v2.2h-2.2v-2.2h-2.2v2.2H49v-2.2h-2.2h-2.2v-2.2h2.2H49
	v-2.2h-2.2v-2.2h-2.2v-2.2h2.2v-4.4h-2.2v-2.2v-2.2h2.2H49v-2.2h2.2v-2.2h2.2v-2.2h2.2v-2.2h2.2v-2.2h2.2v-2.2h2.2v-2.2h-2.2v2.2
	h-2.2v2.2h-2.2v2.2h-2.2v2.2h-2.2v2.2H49v2.2h-2.2h-2.2v-2.2h2.2V83.7z M44.6,83.7h2.2v-2.2h-2.2v-2.2h-2.2v-2.2h2.2v-2.2h-2.2v-2.2
	h2.2v-2.2h2.2v-2.2h-2.2v2.2h-2.2v-2.2h-2.2v2.2h-2.2v-2.2h-2.2v2.2h-2.2v-2.2h-2.2v2.2H29h-2.2v2.2h-2.2v2.2h-2.2v2.2h-2.2v2.2H18
	v2.2h-2.2v2.2h-2.2v2.2h2.2v-2.2H18v-2.2h2.2v-2.2h2.2v-2.2h2.2v-2.2h2.2v-2.2H29h2.2v2.2H29v2.2h-2.2v2.2h-2.2v2.2h-2.2v2.2h-2.2
	v2.2H18v2.2h-2.2v2.2H18v-2.2h2.2v-2.2h2.2v-2.2h2.2v-2.2h2.2v-2.2H29v2.2h2.2v2.2H29h-2.2v2.2h-2.2v2.2h-2.2v2.2h2.2v-2.2h2.2v-2.2
	H29h2.2v2.2H29v2.2h2.2v2.2v2.2h2.2V97h2.2v2.2h2.2v2.2h2.2v2.2h2.2v2.2h2.2v-2.2h-2.2v-2.2h-2.2v-2.2h-2.2V97h-2.2v-2.2h-2.2v-2.2
	v-2.2h2.2v2.2h2.2v2.2h2.2V97h2.2v2.2h2.2V97h-2.2v-2.2h-2.2v-2.2h2.2v-2.2h2.2v-2.2h-2.2v-2.2h2.2V83.7z M42.3,83.7h2.2v-2.2h-2.2
	v-2.2h-2.2v-2.2h2.2v-2.2h-2.2v-2.2h2.2v-2.2h-2.2v2.2h-2.2v-2.2h-2.2v2.2h-2.2v-2.2h-2.2v2.2h2.2v2.2h-2.2v2.2H29v2.2h2.2v2.2h2.2
	v2.2h-2.2v2.2h2.2v2.2h-2.2v2.2h2.2v-2.2h2.2v2.2h2.2v2.2h2.2v-2.2h2.2v-2.2h-2.2v-2.2h2.2V83.7z M40.1,83.7h2.2v-2.2h-2.2v-2.2
	h-2.2v-2.2h2.2v-2.2h-2.2v-2.2h-2.2v2.2h-2.2v2.2h-2.2v2.2h2.2v2.2h2.2v2.2h-2.2v2.2h2.2v2.2h2.2v2.2h2.2v-2.2h-2.2v-2.2h2.2V83.7z
	 M37.9,83.7h2.2v-2.2h-2.2v-2.2h-2.2v-2.2h2.2v-2.2h-2.2v2.2h-2.2v2.2h2.2v2.2h2.2V83.7z M37.9,83.7v2.2h-2.2v-2.2H37.9z
	 M46.8,112.5H49v-2.2h-2.2V112.5z M44.6,112.5v2.2h2.2v-2.2H44.6z M42.3,110.3v2.2h2.2v-2.2H42.3z M40.1,108.1v2.2h2.2v-2.2H40.1z
	 M37.9,105.9v2.2h2.2v-2.2H37.9z M35.7,103.7v2.2h2.2v-2.2H35.7z M33.5,101.5v2.2h2.2v-2.2H33.5z M31.3,99.2v2.2h2.2v-2.2H31.3z
	 M31.3,99.2V97H29v2.2H31.3z M51.2,110.3h2.2v2.2h-2.2V110.3z M55.6,110.3h2.2v2.2h-2.2V110.3z M60.1,110.3h2.2v2.2h-2.2V110.3z
	 M40.1,114.8h2.2v2.2h-2.2V114.8z M37.9,112.5h2.2v2.2h-2.2V112.5z M35.7,110.3h2.2v2.2h-2.2V110.3z M33.5,108.1h2.2v2.2h-2.2V108.1
	z M31.3,105.9h2.2v2.2h-2.2V105.9z M31.3,105.9H29v-2.2h2.2V105.9z M33.5,114.8h2.2v2.2h-2.2V114.8z M31.3,112.5h2.2v2.2h-2.2V112.5
	z M31.3,112.5H29v-2.2h2.2V112.5z M15.7,77.1h-2.2v2.2h2.2V77.1z M18,74.9h-2.2v2.2H18V74.9z M20.2,72.6H18v2.2h2.2V72.6z
	 M22.4,70.4h2.2v-2.2h-2.2V70.4z M22.4,70.4h-2.2v2.2h2.2V70.4z M15.7,70.4H18v-2.2h-2.2V70.4z M15.7,70.4h-2.2v2.2h2.2V70.4z
	 M60.1,83.7v-2.2h2.2v2.2H60.1z M57.9,85.9v-2.2h2.2v2.2H57.9z M55.6,88.2v-2.2h2.2v2.2H55.6z M53.4,90.4v-2.2h2.2v2.2H53.4z
	 M53.4,90.4v2.2h-2.2v-2.2H53.4z M60.1,90.4v-2.2h2.2v2.2H60.1z M60.1,90.4v2.2h-2.2v-2.2H60.1z M77.8,61.6H80v2.2h-2.2V61.6z
	 M75.6,59.3h2.2v2.2h-2.2V59.3z M73.4,57.1h2.2v2.2h-2.2V57.1z M71.2,54.9h2.2v2.2h-2.2V54.9z M68.9,52.7h2.2v2.2h-2.2V52.7z
	 M66.7,50.5h2.2v2.2h-2.2V50.5z M66.7,50.5v-2.2h-2.2v2.2H66.7z M71.2,61.6h2.2v2.2h-2.2V61.6z M68.9,59.3h2.2v2.2h-2.2V59.3z
	 M66.7,57.1h2.2v2.2h-2.2V57.1z M66.7,57.1v-2.2h-2.2v2.2H66.7z M66.7,61.6v2.2h-2.2v-2.2H66.7z M71.2,68.2h2.2v2.2h-2.2V68.2z
	 M80,68.2h-2.2v2.2H80V68.2z M71.2,88.2h2.2v2.2h-2.2V88.2z M80,88.2h-2.2v2.2H80V88.2z M71.2,81.5h2.2v2.2h-2.2V81.5z M80,81.5
	h-2.2v2.2H80V81.5z M71.2,74.9h2.2v2.2h-2.2V74.9z M80,74.9h-2.2v2.2H80V74.9z M77.8,43.8H80V46h2.2v-2.2H80v-2.2h-2.2v-2.2h-2.2
	v2.2h2.2V43.8z M66.7,41.6h-2.2v2.2h2.2V46h2.2v2.2h2.2v2.2h2.2v2.2h2.2v2.2h2.2v2.2H80v2.2h2.2v-2.2H80v-2.2h-2.2v-2.2h-2.2v-2.2
	h-2.2v-2.2h-2.2V46h-2.2v-2.2h-2.2V41.6z M80,50.5h2.2v2.2H80V50.5z M80,48.3v2.2h-2.2v-2.2H80z M75.6,46h2.2v2.2h-2.2V46z
	 M73.4,43.8h2.2V46h-2.2V43.8z M73.4,43.8v-2.2h-2.2v-2.2h-2.2v2.2h2.2v2.2H73.4z M13.5,94.8h2.2V117h-2.2V94.8z M24.6,94.8h-2.2
	V117h2.2V94.8z M18,94.8h2.2V117H18V94.8z M51.2,97H49v2.2h2.2V97z M62.3,103.7h-2.2v2.2h2.2V103.7z M57.9,103.7h-2.2v2.2h2.2V103.7
	z M53.4,103.7h-2.2v2.2h2.2V103.7z M62.3,97h2.2v2.2h-2.2V97z M60.1,97h-2.2v2.2h2.2V97z M53.4,97h2.2v2.2h-2.2V97z M29,121.4h2.2
	v2.2H29V121.4z M33.5,123.6h-2.2v2.2H29v2.2h2.2v2.2H29v15.5h4.4h4.4h4.4h2.2h2.2H49v-2.2h-2.2v-2.2h-2.2v-2.2h2.2H49v-2.2h-2.2
	h-2.2v-2.2h-2.2v-2.2h2.2v-2.2h-2.2v2.2h-2.2v-2.2h-2.2v-2.2h2.2v-2.2h-2.2v2.2h-2.2v-2.2h-2.2V123.6z M33.5,123.6v-2.2h2.2v2.2
	H33.5z M33.5,128.1h-2.2v-2.2h2.2V128.1z M35.7,130.3h-2.2v-2.2h2.2V130.3z M35.7,132.5v-2.2h2.2v2.2H35.7z M35.7,132.5h-2.2v2.2
	h2.2V132.5z M40.1,134.7h-2.2v-2.2h2.2V134.7z M40.1,136.9v-2.2h2.2v2.2H40.1z M40.1,136.9v2.2h-2.2v-2.2H40.1z M42.3,136.9h2.2v2.2
	h-2.2V136.9z M44.6,141.4v2.2h-2.2v-2.2H44.6z M46.8,123.6H49v2.2h-2.2V123.6z M53.4,123.6h2.2v2.2h-2.2V123.6z M62.3,123.6h-2.2
	v2.2h2.2V123.6z M55.6,143.6h-2.2v2.2h2.2V143.6z M60.1,143.6h2.2v2.2h-2.2V143.6z M53.4,136.9h2.2v2.2h-2.2V136.9z M62.3,136.9
	h-2.2v2.2h2.2V136.9z M46.8,130.3H49v2.2h-2.2V130.3z M55.6,130.3h-2.2v2.2h2.2V130.3z M60.1,130.3h2.2v2.2h-2.2V130.3z M82.2,172.4
	h2.2v2.2h-2.2V172.4z M82.2,179h2.2v2.2h-2.2V179z M86.7,183.5h-2.2v-2.2h2.2V183.5z M88.9,185.7h-2.2v-2.2h2.2V185.7z M91.1,187.9
	h-2.2v-2.2h2.2V187.9z M91.1,190.1v-2.2h2.2v2.2H91.1z M88.9,192.3v-2.2h2.2v2.2H88.9z M86.7,194.6v-2.2h2.2v2.2H86.7z M84.5,196.8
	v-2.2h2.2v2.2H84.5z M84.5,196.8v2.2h-2.2v-2.2H84.5z M86.7,176.8h-2.2v2.2h2.2V176.8z M88.9,174.6v2.2h-2.2v-2.2H88.9z M88.9,174.6
	h2.2v-2.2h-2.2V174.6z M88.9,179h2.2v2.2h-2.2V179z M93.3,183.5h-2.2v-2.2h2.2V183.5z M95.5,185.7h-2.2v-2.2h2.2V185.7z M97.8,187.9
	h-2.2v-2.2h2.2V187.9z M97.8,190.1v-2.2h2.2v2.2H97.8z M95.5,192.3v-2.2h2.2v2.2H95.5z M93.3,194.6v-2.2h2.2v2.2H93.3z M91.1,196.8
	v-2.2h2.2v2.2H91.1z M91.1,196.8v2.2h-2.2v-2.2H91.1z M93.3,176.8h-2.2v2.2h2.2V176.8z M95.5,174.6v2.2h-2.2v-2.2H95.5z M95.5,174.6
	h2.2v-2.2h-2.2V174.6z M97.8,176.8h2.2v2.2h-2.2V176.8z M97.8,181.3h-2.2V179h2.2V181.3z M97.8,181.3h2.2v2.2h-2.2V181.3z
	 M86.7,187.9h-2.2v-2.2h-2.2v2.2h2.2v2.2h-2.2v2.2h2.2v-2.2h2.2V187.9z M97.8,194.6h2.2v2.2h-2.2V194.6z M97.8,196.8v2.2h-2.2v-2.2
	H97.8z M102.2,39.4H100v2.2h2.2V39.4z M102.2,46H100v2.2h2.2v2.2h2.2v2.2h2.2v2.2h2.2v2.2h-2.2v2.2h-2.2v2.2h-2.2v2.2H100V66h2.2
	v-2.2h2.2v-2.2h2.2v-2.2h2.2v-2.2h2.2v-2.2h-2.2v-2.2h-2.2v-2.2h-2.2v-2.2h-2.2V46z M104.4,43.8V46h-2.2v-2.2H104.4z M106.6,41.6
	h-2.2v2.2h2.2V41.6z M106.6,41.6v-2.2h2.2v2.2H106.6z M108.8,46h-2.2v2.2h2.2v2.2h2.2v2.2h2.2v2.2h2.2v2.2h-2.2v2.2h-2.2v2.2h-2.2
	v2.2h-2.2V66h2.2v-2.2h2.2v-2.2h2.2v-2.2h2.2v-2.2h2.2v-2.2h-2.2v-2.2h-2.2v-2.2h-2.2v-2.2h-2.2V46z M111.1,43.8V46h-2.2v-2.2H111.1
	z M113.3,41.6h-2.2v2.2h2.2V41.6z M113.3,41.6v-2.2h2.2v2.2H113.3z M117.7,43.8h-2.2V46h-2.2v2.2h2.2v2.2h2.2v-2.2h-2.2V46h2.2V43.8
	z M102.2,54.9h2.2v2.2h-2.2V54.9z M102.2,54.9H100v-2.2h2.2V54.9z M102.2,57.1v2.2H100v-2.2H102.2z M117.7,61.6h-2.2v2.2h-2.2V66
	h2.2v-2.2h2.2V61.6z"/>
<linearGradient id="SVGID_1_" gradientUnits="userSpaceOnUse" x1="64.51" y1="110.1084" x2="202.6948" y2="110.1084" gradientTransform="matrix(1 0 0 -1 0 216)">
	<stop  offset="0" style="stop-color:#00FFB4"/>
	<stop  offset="1" style="stop-color:#FAE45B"/>
</linearGradient>
<rect x="64.5" y="92.6" class="st1" width="138.2" height="26.6"/>
<path d="M82.3,101.7v-1c0-2.1-1.4-4-3.8-4h-0.9c-2.4,0-3.8,1.9-3.8,4v1.4h-1.2c-0.4,0-0.7,0.3-0.7,0.7v0.9c0,0.4,0.3,0.7,0.7,0.7
	h1.2v6.6h-1.4c-0.4,0-0.7,0.3-0.7,0.7v0.9c0,0.4,0.3,0.7,0.7,0.7h7.3c0.4,0,0.7-0.3,0.7-0.7v-0.9c0-0.4-0.3-0.7-0.7-0.7h-3.6v-6.6
	h2.1c0.4,0,0.7-0.3,0.7-0.7v-0.9c0-0.4-0.3-0.7-0.7-0.7h-2.1v-1.4c0-1.1,0.6-1.7,1.4-1.7h0.9c0.8,0,1.4,0.6,1.4,1.7v1
	c0,0.4,0.3,0.7,0.7,0.7h0.9C82,102.4,82.3,102,82.3,101.7z"/>
<path d="M96.8,107.1v-1.7c0-2.1-1.7-4-4-4h-0.5c-2.3,0-4,1.9-4,4v5.7h-1.2c-0.4,0-0.7,0.3-0.7,0.7v0.9c0,0.4,0.3,0.7,0.7,0.7h7.1
	c0.4,0,0.7-0.3,0.7-0.7v-0.9c0-0.4-0.3-0.7-0.7-0.7h-3.6v-5.7c0-1,0.8-1.6,1.7-1.6h0.5c0.8,0,1.7,0.7,1.7,1.6v1.7
	c0,0.4,0.3,0.7,0.7,0.7h0.9C96.5,107.8,96.8,107.5,96.8,107.1z"/>
<path d="M112,109.7v-4.3c0-2.2-1.8-4-4-4h-0.5c-2.2,0-4,1.8-4,4v4.3c0,2.2,1.8,4,4,4h0.5C110.2,113.7,112,111.9,112,109.7z
	 M109.6,109.7c0,0.9-0.7,1.7-1.7,1.7h-0.5c-0.9,0-1.7-0.8-1.7-1.7v-4.3c0-0.9,0.7-1.6,1.7-1.6h0.5c0.9,0,1.7,0.7,1.7,1.6V109.7z"/>
<path d="M127.7,112.8v-7.3c0-2.2-1.8-4-4-4h-0.5c-0.7,0-1.3,0.2-1.9,0.4c-0.1-0.1-0.3-0.2-0.5-0.2h-1c-0.4,0-0.7,0.3-0.7,0.7v10.4
	c0,0.4,0.3,0.7,0.7,0.7h1c0.4,0,0.7-0.3,0.7-0.7v-7.3c0-0.9,0.8-1.6,1.7-1.6h0.5c0.9,0,1.7,0.7,1.7,1.6v7.3c0,0.4,0.3,0.7,0.7,0.7
	h0.9C127.4,113.5,127.7,113.2,127.7,112.8z"/>
<path d="M143.8,109.7v-0.5c0-0.4-0.3-0.7-0.7-0.7h-0.9c-0.4,0-0.7,0.3-0.7,0.7v0.5c0,0.9-0.7,1.7-1.7,1.7c-0.9,0-1.7-0.8-1.7-1.7
	v-5.2h4c0.4,0,0.7-0.3,0.7-0.7v-0.9c0-0.4-0.3-0.7-0.7-0.7h-4v-4.5c0-0.4-0.3-0.7-0.7-0.7h-1c-0.4,0-0.7,0.3-0.7,0.7v4.5h-1.2
	c-0.4,0-0.7,0.3-0.7,0.7v0.9c0,0.4,0.3,0.7,0.7,0.7h1.2v5.2c0,2.2,1.8,4,4,4C142,113.7,143.8,111.9,143.8,109.7z"/>
<path d="M159,108v-2.6c0-2.2-1.8-4-4-4h-0.5c-2.2,0-4,1.8-4,4v4.3c0,2.2,1.8,4,4,4h0.5c1.9,0,3.4-1.3,3.9-3c0.1-0.4-0.1-0.8-0.5-0.9
	l-0.9-0.2c-0.4-0.1-0.8,0.1-0.9,0.5c0,0.1-0.4,1.2-1.6,1.2h-0.5c-0.9,0-1.7-0.8-1.7-1.7v-0.9h5.5C158.6,108.8,159,108.4,159,108z
	 M156.6,106.4h-3.8v-1c0-0.9,0.7-1.6,1.7-1.6h0.5c0.9,0,1.7,0.7,1.7,1.6V106.4z"/>
<path d="M174.7,112.8v-7.3c0-2.2-1.8-4-4-4h-0.5c-0.7,0-1.3,0.2-1.9,0.4c-0.1-0.1-0.3-0.2-0.5-0.2h-1c-0.4,0-0.7,0.3-0.7,0.7v10.4
	c0,0.4,0.3,0.7,0.7,0.7h1c0.4,0,0.7-0.3,0.7-0.7v-7.3c0-0.9,0.8-1.6,1.7-1.6h0.5c0.9,0,1.7,0.7,1.7,1.6v7.3c0,0.4,0.3,0.7,0.7,0.7
	h0.9C174.4,113.5,174.7,113.2,174.7,112.8z"/>
<path d="M190.1,112.8V97.6c0-0.4-0.3-0.7-0.7-0.7h-1c-0.4,0-0.7,0.3-0.7,0.7v4.2c-0.5-0.2-1.1-0.4-1.7-0.4h-0.5c-2.2,0-4,1.8-4,4
	v4.3c0,2.2,1.8,4,4,4h0.5c0.7,0,1.3-0.2,1.9-0.5c0.1,0.1,0.3,0.2,0.5,0.2h1C189.8,113.5,190.1,113.2,190.1,112.8z M187.7,109.7
	c0,0.9-0.7,1.7-1.7,1.7h-0.5c-0.9,0-1.7-0.8-1.7-1.7v-4.3c0-0.9,0.7-1.6,1.7-1.6h0.5c0.9,0,1.7,0.7,1.7,1.6V109.7z"/>
<path d="M81.6,138.7v-8.3c0-1.7-1.4-3.1-3.1-3.1h-0.2c-0.7,0-1.4,0.2-1.9,0.6c-0.5-0.4-1.2-0.6-1.9-0.6h-0.2c-0.4,0-0.9,0.1-1.3,0.3
	c-0.1,0-0.1,0-0.2,0h-1c-0.4,0-0.7,0.3-0.7,0.7v10.4c0,0.4,0.3,0.7,0.7,0.7h1c0.4,0,0.7-0.3,0.7-0.7v-8.3c0-0.4,0.3-0.7,0.7-0.7h0.2
	c0.4,0,0.7,0.3,0.7,0.7v8.3c0,0.4,0.3,0.7,0.7,0.7h0.9c0.4,0,0.7-0.3,0.7-0.7v-8.3c0-0.4,0.3-0.7,0.7-0.7h0.2c0.4,0,0.7,0.3,0.7,0.7
	v8.3c0,0.4,0.3,0.7,0.7,0.7h1C81.3,139.4,81.6,139.1,81.6,138.7z"/>
<path d="M96.3,133.9v-2.6c0-2.2-1.8-4-4-4h-0.5c-2.2,0-4,1.8-4,4v4.3c0,2.2,1.8,4,4,4h0.5c1.9,0,3.4-1.3,3.9-3
	c0.1-0.4-0.1-0.8-0.5-0.9l-0.9-0.2c-0.4-0.1-0.8,0.1-0.9,0.5c0,0.1-0.4,1.2-1.6,1.2h-0.5c-0.9,0-1.7-0.8-1.7-1.7v-0.9h5.5
	C96,134.7,96.3,134.3,96.3,133.9z M94,132.3h-3.8v-1c0-0.9,0.7-1.7,1.7-1.7h0.5c0.9,0,1.7,0.7,1.7,1.7V132.3z"/>
<path d="M112,133.9v-2.6c0-2.2-1.8-4-4-4h-0.5c-2.2,0-4,1.8-4,4v4.3c0,2.2,1.8,4,4,4h0.5c1.9,0,3.4-1.3,3.9-3
	c0.1-0.4-0.1-0.8-0.5-0.9l-0.9-0.2c-0.4-0.1-0.8,0.1-0.9,0.5c0,0.1-0.4,1.2-1.6,1.2h-0.5c-0.9,0-1.7-0.8-1.7-1.7v-0.9h5.5
	C111.7,134.7,112,134.3,112,133.9z M109.6,132.3h-3.8v-1c0-0.9,0.7-1.7,1.7-1.7h0.5c0.9,0,1.7,0.7,1.7,1.7V132.3z"/>
<path d="M128.1,135.6v-0.5c0-0.4-0.3-0.7-0.7-0.7h-0.9c-0.4,0-0.7,0.3-0.7,0.7v0.5c0,0.9-0.7,1.7-1.7,1.7c-0.9,0-1.7-0.8-1.7-1.7
	v-5.2h4c0.4,0,0.7-0.3,0.7-0.7v-0.9c0-0.4-0.3-0.7-0.7-0.7h-4v-4.5c0-0.4-0.3-0.7-0.7-0.7h-1c-0.4,0-0.7,0.3-0.7,0.7v4.5h-1.2
	c-0.4,0-0.7,0.3-0.7,0.7v0.9c0,0.4,0.3,0.7,0.7,0.7h1.2v5.2c0,2.2,1.8,4,4,4C126.3,139.6,128.1,137.8,128.1,135.6z"/>
<path d="M143.2,138.7v-10.4c0-0.4-0.3-0.7-0.7-0.7h-1c-0.4,0-0.7,0.3-0.7,0.7v7.3c0,0.9-0.8,1.7-1.7,1.7h-0.5
	c-0.9,0-1.7-0.8-1.7-1.7v-7.3c0-0.4-0.3-0.7-0.7-0.7h-0.9c-0.4,0-0.7,0.3-0.7,0.7v7.3c0,2.2,1.8,4,4,4h0.5c0.7,0,1.3-0.2,1.9-0.5
	c0.1,0.1,0.3,0.2,0.5,0.2h1C142.9,139.4,143.2,139.1,143.2,138.7z"/>
<path d="M159.1,135.6v-4.3c0-2.2-1.8-4-4-4h-0.5c-0.7,0-1.3,0.2-1.9,0.4c-0.1-0.1-0.3-0.2-0.5-0.2h-1c-0.4,0-0.7,0.3-0.7,0.7v15.2
	c0,0.4,0.3,0.7,0.7,0.7h1c0.4,0,0.7-0.3,0.7-0.7v-4.1c0.5,0.2,1.1,0.4,1.7,0.4h0.5C157.4,139.6,159.1,137.8,159.1,135.6z
	 M156.8,135.6c0,0.9-0.7,1.7-1.7,1.7h-0.5c-0.9,0-1.7-0.8-1.7-1.7v-4.3c0-0.9,0.7-1.7,1.7-1.7h0.5c0.9,0,1.7,0.7,1.7,1.7V135.6z"/>
<path d="M80.4,162.7V158c0-2-1.6-3.6-3.6-3.6h-0.5c-1.1,0-2.1,0.5-2.8,1.3v-6.2c0-0.1-0.1-0.1-0.1-0.1h-0.5c-0.1,0-0.1,0-0.1,0.1
	v16.3c0,0.1,0,0.1,0.1,0.1h0.5c0.1,0,0.1-0.1,0.1-0.1V165c0.6,0.8,1.7,1.3,2.8,1.3h0.5C78.8,166.3,80.4,164.7,80.4,162.7z
	 M79.7,162.7c0,1.5-1.2,2.7-2.8,2.7h-0.5c-1.5,0-2.8-1.2-2.8-2.7V158c0-1.5,1.2-2.8,2.8-2.8h0.5c1.5,0,2.8,1.2,2.8,2.8V162.7z"/>
<path d="M95.8,165.9v-11c0-0.1-0.1-0.1-0.1-0.1h-0.5c-0.1,0-0.1,0.1-0.1,0.1v7.9c0,1.5-1.3,2.7-2.8,2.7h-0.5c-1.5,0-2.8-1.2-2.8-2.7
	v-7.9c0-0.1-0.1-0.1-0.1-0.1h-0.5c-0.1,0-0.1,0.1-0.1,0.1v7.9c0,2,1.6,3.5,3.6,3.5h0.5c1.1,0,2.1-0.5,2.8-1.3v0.9
	c0,0.1,0.1,0.1,0.1,0.1h0.5C95.7,166,95.8,165.9,95.8,165.9z"/>
<path d="M111.3,165.9v-16.3c0-0.1,0-0.1-0.1-0.1h-0.5c-0.1,0-0.1,0-0.1,0.1v6.2c-0.6-0.8-1.7-1.3-2.8-1.3h-0.5c-2,0-3.6,1.6-3.6,3.6
	v4.7c0,2,1.6,3.5,3.6,3.5h0.5c1.1,0,2.1-0.5,2.8-1.3v0.9c0,0.1,0.1,0.1,0.1,0.1h0.5C111.3,166,111.3,165.9,111.3,165.9z
	 M110.5,162.7c0,1.5-1.2,2.7-2.8,2.7h-0.5c-1.5,0-2.8-1.2-2.8-2.7V158c0-1.5,1.2-2.8,2.8-2.8h0.5c1.5,0,2.8,1.2,2.8,2.8V162.7z"/>
<path d="M128.5,165.9v-0.5c0-0.1-0.1-0.1-0.1-0.1h-0.5c-0.4,0-0.6-0.3-0.6-0.7v-6.8c0-2-1.6-3.3-3.6-3.3h-0.3c-2,0-3.6,1.6-3.6,3.6
	v0.5c0,0.1,0.1,0.1,0.1,0.1h0.5c0.1,0,0.1-0.1,0.1-0.1V158c0-1.5,1.3-2.8,2.8-2.8h0.3c1.6,0,2.8,1,2.8,2.5c0,2.6-6.9,1.1-6.9,5.2
	v0.5c0,1.6,1.3,2.8,3,2.8h0.5c1.2,0,2.5-0.6,3.3-1.6c0.1,0.7,0.7,1.3,1.4,1.3h0.5C128.5,166,128.5,165.9,128.5,165.9z M126.4,162.7
	c0,1.4-1.7,2.7-3.3,2.7h-0.5c-1.4,0-2.3-0.9-2.3-2V163c0-2.7,4.3-2.2,6.1-3.6V162.7z"/>
<path d="M143.1,162.7V158c0-2-1.6-3.6-3.6-3.6H139c-1.1,0-2.1,0.5-2.8,1.3v-0.9c0-0.1-0.1-0.1-0.1-0.1h-0.5c-0.1,0-0.1,0.1-0.1,0.1
	v16.3c0,0.1,0,0.1,0.1,0.1h0.5c0.1,0,0.1-0.1,0.1-0.1V165c0.6,0.8,1.7,1.3,2.8,1.3h0.5C141.5,166.3,143.1,164.7,143.1,162.7z
	 M142.3,162.7c0,1.5-1.2,2.7-2.8,2.7H139c-1.5,0-2.8-1.2-2.8-2.7V158c0-1.5,1.2-2.8,2.8-2.8h0.5c1.5,0,2.8,1.2,2.8,2.8V162.7z"/>
<path d="M158.5,158c0-2-1.6-3.6-3.6-3.6h-0.5c-2,0-3.6,1.6-3.6,3.6v4.7c0,2,1.6,3.5,3.6,3.5h0.5c1.5,0,2.9-1,3.4-2.4
	c0-0.1,0-0.1-0.1-0.2l-0.5-0.2c-0.1,0-0.1,0-0.2,0.1c-0.4,1-1.4,1.8-2.6,1.8h-0.5c-1.5,0-2.8-1.2-2.8-2.7v-2h6.7
	c0.1,0,0.1,0,0.1-0.1V158z M157.7,158v2h-6.1v-2c0-1.5,1.3-2.8,2.8-2.8h0.5C156.5,155.2,157.7,156.5,157.7,158z"/>
<path d="M174.4,163c0-3.8-6.9-2.3-6.9-5.4c0-1.5,1.2-2.4,2.8-2.4h0.3c1.6,0,2.8,1,2.8,2.5c0,0.1,0,0.1,0.1,0.1h0.5
	c0.1,0,0.1-0.1,0.1-0.1c0-2-1.6-3.3-3.6-3.3h-0.3c-1.9,0-3.6,1.2-3.6,3.2c0,3.9,6.8,2.3,6.8,5.4c0,1.5-1.2,2.5-2.8,2.5h-0.8
	c-1.6,0-2.8-1-2.8-2.5v-0.2c0-0.1,0-0.1-0.1-0.1h-0.5c-0.1,0-0.1,0.1-0.1,0.1v0.2c0,2,1.6,3.3,3.6,3.3h0.8
	C172.8,166.3,174.4,165,174.4,163z"/>
<path d="M190.3,162.7v-0.3c0-0.1,0-0.1-0.1-0.1h-0.5c-0.1,0-0.1,0.1-0.1,0.1v0.3c0,1.5-1.2,2.7-2.8,2.7c-1.5,0-2.8-1.2-2.8-2.7V156
	h5.1c0.1,0,0.1-0.1,0.1-0.1v-0.5c0-0.1,0-0.1-0.1-0.1H184v-5.7c0-0.1-0.1-0.1-0.1-0.1h-0.5c-0.1,0-0.1,0-0.1,0.1v5.7h-2
	c-0.1,0-0.1,0.1-0.1,0.1v0.5c0,0.1,0.1,0.1,0.1,0.1h2v6.7c0,2,1.6,3.5,3.6,3.5C188.8,166.3,190.3,164.7,190.3,162.7z"/>
</svg>
