<?xml version="1.0" encoding="utf-8"?>
<!-- Generator: Adobe Illustrator 25.1.0, SVG Export Plug-In . SVG Version: 6.00 Build 0)  -->
<svg version="1.1" id="Layer_1" xmlns="http://www.w3.org/2000/svg" xmlns:xlink="http://www.w3.org/1999/xlink" x="0px" y="0px"
	 viewBox="0 0 214 214" style="enable-background:new 0 0 214 214;" xml:space="preserve">
<style type="text/css">
	.st0{fill:#161616;}
	.st1{fill:#E40000;}
	.st2{fill:#F6D01C;}
	.st3{fill:#00B4C9;}
	.st4{fill:none;stroke:#000000;stroke-miterlimit:10;}
</style>
<desc>Created with Sketch.</desc>
<path class="st0" d="M75.4,94.9V72.2h12.7v3.6h-8.5v6.3h7.5v3.7h-7.5v9.1H75.4z M90.3,78.1H94l0.1,2.9h0.3c0.4-1.2,0.9-2,1.7-2.5
	c0.8-0.5,1.8-0.7,3.1-0.7v4c-1.3,0-2.2,0.2-2.9,0.6c-0.7,0.4-1.2,1-1.5,1.8c-0.3,0.8-0.4,2-0.4,3.5v7.3h-4V78.1z M107.1,95.2
	c-2.2,0-3.7-0.2-4.7-0.7c-0.9-0.5-1.6-1.3-1.8-2.4c-0.3-1.1-0.4-3-0.4-5.5c0-2.6,0.1-4.4,0.4-5.5c0.3-1.1,0.9-2,1.8-2.4
	c0.9-0.5,2.5-0.7,4.7-0.7c2.1,0,3.7,0.2,4.6,0.7c0.9,0.5,1.6,1.3,1.8,2.4c0.3,1.1,0.4,3,0.4,5.5s-0.1,4.4-0.4,5.5
	c-0.3,1.1-0.9,1.9-1.8,2.4C110.7,95,109.2,95.2,107.1,95.2z M107.1,91.9c1,0,1.6-0.1,2-0.3c0.4-0.2,0.6-0.7,0.7-1.3
	c0.1-0.7,0.1-1.9,0.1-3.7c0-1.8,0-3.1-0.1-3.7c-0.1-0.7-0.3-1.1-0.7-1.3c-0.4-0.2-1-0.3-2-0.3c-1,0-1.7,0.1-2,0.3
	c-0.4,0.2-0.6,0.7-0.7,1.3c-0.1,0.6-0.1,1.9-0.1,3.7c0,1.8,0,3,0.1,3.7c0.1,0.7,0.3,1.1,0.7,1.3C105.4,91.8,106.1,91.9,107.1,91.9z
	 M125.8,85.9c0-1.5-0.1-2.5-0.2-3.1c-0.1-0.6-0.3-0.9-0.6-1.1c-0.3-0.2-0.9-0.3-1.7-0.3c-0.8,0-1.5,0.2-1.9,0.5
	c-0.4,0.3-0.6,0.8-0.8,1.4c-0.1,0.6-0.2,1.6-0.2,2.9v8.7h-4V78.1h3.7l0.1,2.1h0.2c0.4-0.8,0.9-1.4,1.7-1.8c0.7-0.4,1.7-0.6,2.9-0.6
	c1.3,0,2.3,0.2,2.9,0.7c0.7,0.4,1.1,1.1,1.3,2c0.2,0.9,0.4,2.1,0.4,3.6v10.8h-4V85.9z M134.3,94.9V81.4h-2.7v-3.3h2.7v-4.9h4v4.9
	h3.3v3.3h-3.3v13.5H134.3z M155.8,87.8h-9.2c0,1.3,0.1,2.2,0.2,2.8c0.2,0.5,0.5,0.9,1,1.1c0.6,0.2,1.5,0.3,2.8,0.3
	c1.4,0,3-0.1,4.6-0.3v3.1c-0.6,0.2-1.5,0.3-2.5,0.4c-1,0.1-2,0.1-3,0.1c-2.2,0-3.8-0.3-4.8-0.8c-1-0.6-1.6-1.4-1.9-2.6
	c-0.3-1.2-0.4-2.9-0.4-5.3c0-2.3,0.1-4,0.4-5.2c0.3-1.2,0.9-2.1,1.9-2.7c1-0.6,2.5-0.9,4.5-0.9c2,0,3.4,0.3,4.3,0.9
	c0.9,0.6,1.5,1.4,1.7,2.6c0.2,1.1,0.3,2.9,0.3,5.3V87.8z M149.4,81.1c-0.9,0-1.5,0.1-1.9,0.3c-0.4,0.2-0.6,0.6-0.8,1.1
	c-0.1,0.5-0.2,1.4-0.2,2.6h5.5c0-1.2-0.1-2.1-0.2-2.6c-0.1-0.6-0.4-0.9-0.8-1.1C150.7,81.2,150.2,81.1,149.4,81.1z M167.8,85.9
	c0-1.5-0.1-2.5-0.2-3.1c-0.1-0.6-0.3-0.9-0.6-1.1c-0.3-0.2-0.9-0.3-1.7-0.3c-0.8,0-1.5,0.2-1.9,0.5c-0.4,0.3-0.6,0.8-0.8,1.4
	c-0.1,0.6-0.2,1.6-0.2,2.9v8.7h-4V78.1h3.7l0.1,2.1h0.2c0.4-0.8,0.9-1.4,1.7-1.8c0.7-0.4,1.7-0.6,2.9-0.6c1.3,0,2.3,0.2,2.9,0.7
	c0.7,0.4,1.1,1.1,1.3,2c0.2,0.9,0.4,2.1,0.4,3.6v10.8h-4V85.9z M179.5,95.2c-1.3,0-2.3-0.3-3-0.8c-0.7-0.5-1.3-1.4-1.6-2.6
	c-0.3-1.3-0.5-3-0.5-5.3c0-2.2,0.2-4,0.5-5.2c0.3-1.3,0.8-2.1,1.6-2.7c0.7-0.6,1.7-0.8,3-0.8c1.1,0,1.9,0.2,2.6,0.5
	c0.7,0.3,1.3,0.8,1.7,1.6h0.2v-9.5h4v24.6h-3.7l-0.1-2.1h-0.2C183.2,94.4,181.8,95.2,179.5,95.2z M181.2,91.7c0.7,0,1.2-0.1,1.6-0.3
	c0.4-0.2,0.6-0.5,0.8-1c0.1-0.4,0.2-0.9,0.3-1.5c0.1-0.6,0.1-1.4,0.1-2.4c0-0.9,0-1.6-0.1-2.1c0-0.6-0.1-1-0.2-1.4
	c-0.2-0.6-0.4-1-0.8-1.2c-0.4-0.2-0.9-0.4-1.7-0.4c-0.9,0-1.5,0.1-1.9,0.3c-0.4,0.2-0.6,0.6-0.7,1.3c-0.1,0.7-0.2,1.8-0.2,3.5
	c0,1.7,0.1,2.9,0.2,3.5c0.1,0.7,0.4,1.1,0.7,1.3C179.7,91.6,180.3,91.7,181.2,91.7z"/>
<path class="st0" d="M151.3,124.8v-8.2h-6.5v8.2h-3.6v-19.6h3.6v8.1h6.5v-8.1h3.6v19.6H151.3z M171.9,105.2v10.9
	c0,2.6-0.1,4.5-0.4,5.7c-0.3,1.2-0.9,2-1.8,2.5c-0.9,0.5-2.4,0.7-4.5,0.7c-2.1,0-3.6-0.2-4.5-0.7c-0.9-0.5-1.5-1.3-1.8-2.5
	c-0.3-1.2-0.4-3.1-0.4-5.6v-10.9h3.6v12c0,1.5,0.1,2.5,0.2,3.1c0.1,0.6,0.4,1,0.8,1.2c0.4,0.2,1.1,0.3,2.2,0.3c1,0,1.8-0.1,2.2-0.3
	c0.4-0.2,0.7-0.6,0.8-1.2c0.1-0.6,0.2-1.6,0.2-3.2v-12H171.9z M175.4,105.2h8.1c1.7,0,3,0.4,3.8,1.3c0.8,0.8,1.2,2,1.2,3.7
	c0,1.4-0.2,2.4-0.7,3.2c-0.5,0.7-1.2,1.2-2.3,1.5v0.1c1.2,0.2,2,0.7,2.5,1.5c0.5,0.7,0.7,1.8,0.7,3.2c0,1.7-0.4,3-1.2,3.9
	c-0.8,0.9-2.1,1.3-4,1.3h-8.1V105.2z M182.3,113.3c1,0,1.6-0.2,2-0.5c0.4-0.4,0.6-1,0.6-2c0-0.7-0.1-1.2-0.2-1.6
	c-0.1-0.3-0.4-0.6-0.7-0.7c-0.4-0.2-0.9-0.2-1.6-0.2H179v5H182.3z M182.4,121.7c0.7,0,1.3-0.1,1.6-0.2c0.4-0.2,0.6-0.4,0.7-0.8
	c0.2-0.4,0.2-0.9,0.2-1.6c0-0.7-0.1-1.3-0.2-1.6c-0.2-0.4-0.4-0.6-0.8-0.8c-0.4-0.2-0.9-0.2-1.6-0.2H179v5.2H182.4z"/>
<path class="st1" d="M39.6,67.9l-14.2,8V92l14.2,8l14.2-8V75.9L39.6,67.9z"/>
<path class="st2" d="M70.4,126.6l-8.3,4.8v9.6l8.3,4.8l8.3-4.8v-9.6L70.4,126.6z"/>
<path class="st3" d="M56.1,100l-11.5,6.7V120l11.5,6.7l11.5-6.7v-13.3L56.1,100z"/>
<path class="st4" d="M135.8,100.3v24.5c0,2.9,2.4,5.3,5.3,5.3h3.6c1.2,0,2.3-0.4,3.2-1.1c0.9,0.7,2,1.1,3.2,1.1h3.6
	c1.2,0,2.3-0.4,3.2-1.1c1.8,0.9,4,1.3,7,1.3c3,0,5.2-0.4,7-1.3c0.9,0.7,2,1.1,3.3,1.1h8.1c3.5,0,6.2-1.1,8-3.1
	c1.7-1.9,2.6-4.4,2.6-7.4c0-2-0.3-3.6-1-5c0.5-1.3,0.8-2.8,0.8-4.4c0-3.8-1.5-6.2-2.7-7.4c-1.2-1.2-2.6-2-4.3-2.5h1.2
	c2.9,0,5.3-2.4,5.3-5.3V70.4c0-2.9-2.4-5.3-5.3-5.3h-4c-2.9,0-5.3,2.4-5.3,5.3v2.1c-2.1,0.1-3.8,0.7-5.3,1.8
	c-0.1-0.1-0.2-0.1-0.3-0.2c-1.6-1.1-3.6-1.6-5.9-1.6c-1.2,0-2.4,0.2-3.5,0.5c-0.5-0.1-0.9-0.2-1.4-0.2h-3.7c-1.1,0-2.1,0.3-2.9,0.9
	c-1.6-0.8-3.6-1.1-6.1-1.1c-2.2,0-4,0.3-5.6,0.8c-0.1-0.1-0.2-0.1-0.4-0.2c0-2.9-2.4-5.3-5.3-5.3h-4c-2.9,0-5.3,2.3-5.3,5.2
	c-1.1-0.4-2.4-0.6-3.8-0.6c-1.2,0-2.4,0.2-3.5,0.5c-0.5-0.1-0.9-0.2-1.4-0.2h-3.7c-1.1,0-2,0.3-2.9,0.8c-1.7-0.8-3.8-1.1-6.6-1.1
	c-2.2,0-3.9,0.2-5.4,0.7c-0.8-0.4-1.6-0.7-2.6-0.7c-1.3,0-2.5,0.2-3.6,0.5c-0.5-0.1-1-0.2-1.5-0.2h-0.5v-0.5c0-2.9-2.4-5.3-5.3-5.3
	H75.4c-2.7,0-4.9,2-5.3,4.5H56.6c-0.1,0-0.1-0.1-0.2-0.1l-14.2-8c-0.8-0.5-1.7-0.7-2.6-0.7c-0.9,0-1.8,0.2-2.6,0.7l-14.2,8
	C21,72.2,20,74,20,75.9V92c0,1.9,1,3.7,2.7,4.6l14.2,8c0.8,0.4,1.6,0.7,2.5,0.7c-0.1,0.4-0.2,0.9-0.2,1.3V120c0,1.9,1,3.7,2.7,4.6
	l11.5,6.7c0.8,0.5,1.8,0.7,2.7,0.7c0.2,0,0.4,0,0.6,0v9.2c0,1.9,1,3.7,2.7,4.6l8.3,4.8c0.8,0.5,1.7,0.7,2.7,0.7s1.8-0.2,2.7-0.7
	l8.3-4.8c1.7-1,2.7-2.7,2.7-4.6v-9.6c0-1.9-1-3.7-2.7-4.6l-8.3-4.8c-0.2-0.1-0.3-0.2-0.5-0.2c0.2-0.6,0.3-1.2,0.3-1.8v-13.3
	c0-1.9-1-3.7-2.7-4.6l-3-1.8h12.4c2.8,0,5.1-2.1,5.3-4.9c0.2,2.7,2.5,4.9,5.3,4.9h4c1.7,0,3.2-0.8,4.2-2.1c0.4,0.4,0.9,0.7,1.4,1
	c0,0,0.1,0,0.1,0c1.8,0.9,4,1.3,7.1,1.3c2.8,0,4.9-0.4,6.6-1.1c0.8,0.5,1.8,0.8,2.9,0.8h4c1,0,1.9-0.3,2.6-0.7
	c0.8,0.4,1.7,0.7,2.6,0.7h4c0.8,0,1.6-0.2,2.3-0.5c0.7,0.3,1.4,0.5,2.3,0.5H135.8 M142.3,99"/>
</svg>
