<?xml version="1.0" encoding="UTF-8"?>
<svg width="214px" height="214px" viewBox="0 0 214 214" version="1.1" xmlns="http://www.w3.org/2000/svg" xmlns:xlink="http://www.w3.org/1999/xlink">
    <!-- Generator: Sketch 54.1 (76490) - https://sketchapp.com -->
    <title>iasiJS_logo</title>
    <desc>Created with Sketch.</desc>
    <g id="Exports" stroke="none" stroke-width="1" fill="none" fill-rule="evenodd">
        <g id="Homepage-New" transform="translate(-529.000000, -5234.000000)">
            <g id="Group-8" transform="translate(566.000000, 5285.000000)">
                <polygon id="Fill-1" fill="#D39807" points="61.5321649 111.034433 139.960069 52.4745017 131.642818 40.6683162 71.3735395 24.355189 32.4371821 5.29305842"></polygon>
                <polygon id="Fill-2" fill="#FFE442" points="90.9997113 -0.000144329897 61.4375808 29.5619863 32.3887835 5.24576632 0.000192439863 42.0046667 61.4375808 110.92989 131.681017 40.6850103"></polygon>
                <g id="Group-7" transform="translate(41.855670, 20.587698)" fill="#281C00">
                    <path d="M57.5484192,32.6936564 L56.9778351,26.4860275 C58.4317182,26.3744124 59.8610653,26.0520756 61.2216151,25.5296014 C62.5975601,25.0042405 63.7440206,24.2835533 64.6609966,23.365134 C65.6900687,22.3370241 66.265945,21.3805979 66.3891065,20.4968179 C66.512268,19.614 66.2495876,18.8480893 65.6001031,18.1990859 C65.2652577,17.8632784 64.9015464,17.6453402 64.5099313,17.5447904 C64.1183162,17.4442405 63.6882131,17.4389485 63.2181787,17.5279519 C62.7486254,17.6179175 62.2343299,17.7737938 61.674811,17.9975052 L59.8302749,18.7359931 L55.7702749,20.3799107 C54.9668385,20.7210103 54.1287629,20.9740687 53.2704811,21.1352371 C52.3871821,21.3026598 51.49811,21.3531753 50.6032646,21.2858213 C49.7084192,21.2189485 48.8193471,20.9894639 47.9365292,20.5978488 C47.052268,20.2067148 46.2079381,19.6082268 45.4030584,18.8033471 C44.5221649,17.9306323 43.8505498,16.8693265 43.4401718,15.6992921 C43.025945,14.5254089 42.8695876,13.2952371 42.9706186,12.0087766 C43.0711684,10.7227973 43.4291065,9.43681787 44.044433,8.15131959 C44.6597595,6.86437801 45.5368041,5.65152577 46.6779725,4.50987629 C47.9538488,3.2354433 49.4572852,2.22320962 51.1906873,1.47413746 C52.9000344,0.729876289 54.7445704,0.347402062 56.6088316,0.35028866 L57.2130928,5.98685223 C55.9376976,6.14320962 54.7917182,6.42898282 53.7732302,6.84272852 C52.7561856,7.25551203 51.8113058,7.89874227 50.9390722,8.77145704 C50.0889691,9.62107904 49.5857388,10.4711821 49.4289003,11.3208041 C49.272543,12.1713883 49.5068385,12.9093952 50.1337113,13.5357869 C50.4690378,13.8711134 50.8380412,14.0731753 51.2412027,14.1390859 C51.6434021,14.2064399 52.0908247,14.1838282 52.5829897,14.0731753 C53.1275945,13.9432784 53.6601718,13.7696014 54.1763918,13.5526254 C54.747457,13.3173677 55.3675945,13.0662337 56.0382474,12.797299 L59.9976976,11.1197045 C61.8763918,10.3148247 63.6713746,9.99585567 65.382646,10.1632784 C67.0934364,10.3316632 68.7209966,11.1870584 70.2643643,12.7304261 C71.1654639,13.6223849 71.8635395,14.6981237 72.3114433,15.8840344 C72.7574227,17.069945 72.9363918,18.3222474 72.8469072,19.6419038 C72.7574227,20.961079 72.3836082,22.3201856 71.7235395,23.7187423 C71.0634708,25.1158557 70.0853952,26.464378 68.7873883,27.7609416 C67.3561168,29.1926942 65.667457,30.355512 63.7214089,31.2503574 C61.7825773,32.1432784 59.6825773,32.6344811 57.5484192,32.6936564 M41.3372852,47.2940687 L42.2095189,41.4564055 C43.3502062,41.791732 44.367732,41.8696701 45.2625773,41.6911821 C46.1564605,41.5122131 46.8843643,41.1432096 47.442921,40.5836907 C48.3372852,39.6898076 48.7404467,38.7386735 48.6509622,37.7322131 C48.5614777,36.7257526 47.7897938,35.4955808 46.3363918,34.0421787 L32.144433,19.8497388 L37.0752234,14.9179863 L51.6708247,29.5121443 C52.7220275,30.5633471 53.5779038,31.6987423 54.2370103,32.9173677 C54.8965979,34.1369553 55.2886942,35.3777113 55.4118557,36.6420412 C55.534055,37.9054089 55.3550859,39.1808041 54.8744674,40.4667835 C54.3943299,41.7527629 53.5490378,42.9992921 52.3419588,44.2073333 C50.6638832,45.8849278 48.9362543,46.9640344 47.15811,47.4456151 C45.3799656,47.9262337 43.4396907,47.8752371 41.3372852,47.2940687" id="Fill-3"></path>
                    <path d="M40.2809828,38.6902749 L27.1017388,25.5105498 L28.6345223,23.9772852 L41.8142474,37.1574914 L40.2809828,38.6902749 Z M28.869299,49.2557045 L27.3899175,47.776323 C28.1976838,47.4443643 28.9703299,47.0339863 29.6982337,46.5504811 C30.4511546,46.0592784 31.1521168,45.4920619 31.7895739,44.8560481 C32.8109485,43.8341924 33.3873058,42.8719931 33.5157595,41.9670447 C33.6446942,41.0625773 33.363732,40.264433 32.673354,39.574055 C32.2163093,39.1174914 31.7510859,38.8346048 31.2752784,38.7263574 C30.8009141,38.6185911 30.2255189,38.6556357 29.5490928,38.8389347 C28.8731478,39.0222337 27.9402955,39.3965292 26.7505361,39.9618213 C25.0854502,40.7484192 23.689299,41.1049141 22.5630447,41.0293814 C21.4358282,40.9543299 20.3884742,40.4328179 19.4209828,39.4653265 C18.4053814,38.4497251 17.9791271,37.2599656 18.1407766,35.8960481 C18.3033883,34.5311684 19.0125292,33.2206529 20.2677182,31.9649828 C21.5787148,30.6549485 23.0239381,29.6903436 24.6048316,29.0711684 L25.461189,30.8834708 C23.916378,31.5146735 22.6303986,32.3440893 21.6027698,33.3717182 C20.7911546,34.1828522 20.3312234,34.9910997 20.223457,35.7959794 C20.1152096,36.6018213 20.3701924,37.3143299 20.9893677,37.932543 C21.4468935,38.3900687 21.9049003,38.6792096 22.3638694,38.80189 C22.8238007,38.9260137 23.375622,38.9091753 24.0183711,38.7537801 C24.6620825,38.5974227 25.5420137,38.2543986 26.6600893,37.7256701 C28.5358969,36.8361168 30.0147973,36.4141924 31.099677,36.4589347 C32.1845567,36.5046392 33.1770653,36.9765979 34.0791271,37.8791409 C35.2390584,39.0390722 35.7230447,40.3640206 35.5306048,41.8544674 C35.338646,43.3453952 34.5202955,44.8117869 33.0784399,46.2536426 C31.5163093,47.8162543 30.1124605,48.8174227 28.869299,49.2557045 L28.869299,49.2557045 Z M14.7961718,53.0328179 L19.0601581,48.7688316 L13.4438007,46.2175601 C12.7293677,45.8990722 11.890811,45.4699313 10.9290928,44.9282131 C11.37411,45.6383162 11.8181649,46.4614777 12.2636632,47.3986598 L14.7961718,53.0328179 Z M16.6532165,62.3185223 L8.63039863,43.8736426 L9.9197457,42.5852577 L28.3376838,50.6345361 L26.7505361,52.2212027 L20.9176838,49.6699313 L15.6352096,54.9533677 L18.2042818,60.767457 L16.6532165,62.3185223 Z M13.3182337,65.6539863 L0.138027491,52.4742612 L1.6703299,50.9419588 L14.8505361,64.1207216 L13.3182337,65.6539863 Z" id="Fill-5"></path>
                </g>
            </g>
        </g>
    </g>
</svg>