<?xml version="1.0" encoding="utf-8"?>
<!-- Generator: Adobe Illustrator 25.1.0, SVG Export Plug-In . SVG Version: 6.00 Build 0)  -->
<svg version="1.1" id="Layer_1" xmlns="http://www.w3.org/2000/svg" xmlns:xlink="http://www.w3.org/1999/xlink" x="0px" y="0px"
	 viewBox="0 0 214 214" style="enable-background:new 0 0 214 214;" xml:space="preserve">
<style type="text/css">
	.st0{clip-path:url(#SVGID_2_);}
	.st1{fill:#F2DE48;}
	.st2{fill:#20201F;}
	.st3{fill:#3580C2;}
	.st4{fill:#43A447;}
	.st5{fill:#DB3127;}
	.st6{fill:#FFFFFF;}
</style>
<g>
	<defs>
		<rect id="SVGID_1_" x="50.8" y="50.8" width="112.5" height="112.5"/>
	</defs>
	<clipPath id="SVGID_2_">
		<use xlink:href="#SVGID_1_"  style="overflow:visible;"/>
	</clipPath>
	<g class="st0">
		<path class="st1" d="M163.2,50.8H50.8v112.5h112.5V50.8z"/>
		<path class="st2" d="M135.3,101.3c-4.1,0.3-7.5,1.8-10,4.3c-2.6,2.6-3.9,5.8-3.9,9.8c0,6,2.5,10.2,8,13.5c1.4,0.8,3.3,1.8,6.6,3.2
			c4.5,1.9,6.2,2.8,7.2,4c1.3,1.4,1.7,3.7,0.9,5.4c-0.2,0.3-0.6,0.9-1,1.3c-1.3,1.3-3.3,2-5.8,2c-4.2,0-7.3-1.7-9.8-5.4
			c-0.3-0.5-0.7-0.9-0.7-0.9c-0.1,0-8.3,4.7-8.5,4.9c-0.1,0.1,0,0.3,0.4,1c3.3,5.5,8.4,8.7,15.3,9.7c1.8,0.2,5.2,0.2,6.9,0
			c4.3-0.6,7.6-2.1,10.1-4.5c2.7-2.6,4-5.9,4-10.2c0-2.7-0.4-4.8-1.4-6.9c-0.7-1.4-1.4-2.4-2.6-3.6c-2.3-2.3-5.2-4-11.1-6.6
			c-4.4-1.9-5.9-2.7-6.9-3.8c-0.9-1-1.3-2.2-1.2-3.6c0.1-1.2,0.4-1.9,1.1-2.7c1-1.1,2.2-1.6,4-1.6c2.1,0,3.4,0.5,4.8,1.9
			c0.5,0.5,1.1,1.2,1.4,1.7c0.3,0.5,0.6,0.8,0.7,0.8c0.3-0.1,8.1-5.2,8.1-5.2c0,0-0.4-0.7-0.9-1.4c-1-1.5-2.9-3.5-4.2-4.3
			c-2.4-1.6-4.9-2.4-8.2-2.6C137,101.1,136.8,101.1,135.3,101.3z"/>
		<path class="st2" d="M101.8,120.8l0,19l-0.2,0.9c-0.3,1.2-0.7,1.9-1.3,2.5c-0.9,0.9-2.1,1.3-4,1.3c-2.8,0-4.4-1.2-6.3-4.5
			c-0.3-0.5-0.6-0.9-0.6-0.9c0,0-2,1.2-4.3,2.6l-4.2,2.6L81,145c1.9,3.8,5.3,6.7,9.3,8.1c4.2,1.4,9.7,1.3,13.7-0.3
			c4.8-1.9,7.6-5.9,8.3-11.9c0.1-0.6,0.1-7.3,0.1-20v-19.1h-5.3h-5.3L101.8,120.8z"/>
		<path class="st3" d="M73.3,62H62l11.3-11.3L84.5,62H73.3z"/>
		<path class="st3" d="M62,95.8H50.8L62,84.5l11.3,11.2H62z"/>
		<path class="st3" d="M50.8,107V95.8L62,107l-11.2,11.3V107z"/>
		<path class="st3" d="M73.3,84.5V73.3l11.3,11.2L73.3,95.8V84.5z"/>
		<path class="st3" d="M107,50.8h11.3L107,62L95.8,50.8H107z"/>
		<path class="st4" d="M62.1,73.3v11.3L50.8,73.3L62.1,62V73.3z"/>
		<path class="st4" d="M95.8,62v11.3L84.5,62l11.3-11.2V62z"/>
		<path class="st4" d="M95.8,84.5H84.5l11.3-11.3L107,84.5H95.8z"/>
		<path class="st4" d="M62,118.3h11.3L62,129.5l-11.3-11.3H62z"/>
		<path class="st4" d="M118.3,62v11.3L107,62l11.2-11.2V62z"/>
		<path class="st5" d="M50.8,62V50.8L62,62L50.8,73.3V62z"/>
		<path class="st5" d="M84.6,73.3H73.3L84.6,62l11.3,11.3H84.6z"/>
		<path class="st5" d="M73.3,84.5v11.3L62,84.5l11.3-11.3V84.5z"/>
		<path class="st5" d="M62,95.8h11.3L62,107L50.8,95.8H62z"/>
		<path class="st5" d="M84.5,95.8V107L73.3,95.8l11.3-11.3V95.8z"/>
		<path class="st6" d="M62,50.8h11.3L62,62L50.8,50.8H62z"/>
		<path class="st6" d="M95.8,62V50.8L107,62L95.8,73.3V62z"/>
		<path class="st6" d="M62.1,73.3V62l11.3,11.3L62.1,84.5V73.3z"/>
		<path class="st6" d="M84.6,73.3h11.3L84.6,84.5L73.3,73.3H84.6z"/>
		<path class="st6" d="M50.8,84.5V73.3L62,84.5L50.8,95.8V84.5z"/>
		<path class="st6" d="M73.3,107v11.3L62,107l11.3-11.2V107z"/>
		<path class="st6" d="M129.5,50.8h11.3L129.5,62l-11.3-11.2H129.5z"/>
	</g>
</g>
</svg>
