<?xml version="1.0" encoding="UTF-8"?>
<svg width="214px" height="214px" viewBox="0 0 214 214" version="1.1" xmlns="http://www.w3.org/2000/svg" xmlns:xlink="http://www.w3.org/1999/xlink">
    <!-- Generator: Sketch 54.1 (76490) - https://sketchapp.com -->
    <title>JSgirls_logo</title>
    <desc>Created with Sketch.</desc>
    <defs>
        <polygon id="path-1" points="0.0556996047 0.13 28.9259763 0.13 28.9259763 41.4494466 0.0556996047 41.4494466"></polygon>
        <polygon id="path-3" points="0.266731225 0.0570869565 17.3357826 0.0570869565 17.3357826 37.5098814 0.266731225 37.5098814"></polygon>
    </defs>
    <g id="Exports" stroke="none" stroke-width="1" fill="none" fill-rule="evenodd">
        <g id="Homepage-New" transform="translate(-1253.000000, -4716.000000)">
            <g id="Group-19" transform="translate(1295.000000, 4796.000000)">
                <path d="M0,34.2451858 L6.75794466,30.1550672 C8.06205534,32.4668063 9.24798419,34.4234862 12.0935968,34.4234862 C14.8205138,34.4234862 16.5392885,33.356253 16.5392885,29.2060158 L16.5392885,0.987794466 L24.839249,0.987794466 L24.839249,29.3252253 C24.839249,37.9206403 19.8000791,41.8334862 12.44917,41.8334862 C5.80940711,41.8334862 1.95616601,38.3949091 0,34.2451858" id="Fill-1" fill="#313330"></path>
                <g id="Group-5" transform="translate(29.288538, 0.383834)">
                    <mask id="mask-2" fill="white">
                        <use xlink:href="#path-1"></use>
                    </mask>
                    <g id="Clip-4"></g>
                    <path d="M0.0556996047,32.9722134 L6.81364427,29.0598814 C8.59253755,31.964585 10.9042767,34.0985375 14.9949091,34.0985375 C18.4334862,34.0985375 20.6265296,32.3797628 20.6265296,30.0079051 C20.6265296,27.1622925 18.3738814,26.154664 14.5797312,24.4949802 L12.5048696,23.6055336 C6.51767589,21.056917 2.54573913,17.8557312 2.54573913,11.0977866 C2.54573913,4.87217391 7.28842688,0.13 14.6984269,0.13 C19.9744743,0.13 23.7686245,1.96798419 26.4955415,6.76976285 L20.0335652,10.9194862 C18.6107589,8.37035573 17.0697708,7.36221344 14.6984269,7.36221344 C12.2679921,7.36221344 10.7264901,8.90371542 10.7264901,10.9194862 C10.7264901,13.4095257 12.2679921,14.4171542 15.824751,15.9586561 L17.8996126,16.8475889 C24.9540395,19.8709881 28.9259763,22.9539921 28.9259763,29.8897233 C28.9259763,37.3593281 23.0574783,41.4494466 15.1726957,41.4494466 C7.46621344,41.4494466 2.48613439,37.7745059 0.0556996047,32.9722134" id="Fill-3" fill="#313330" mask="url(#mask-2)"></path>
                </g>
                <g id="Group-8" transform="translate(63.201581, 16.826522)">
                    <mask id="mask-4" fill="white">
                        <use xlink:href="#path-3"></use>
                    </mask>
                    <g id="Clip-7"></g>
                    <path d="M14.0215534,10.9395771 C14.0215534,10.1662569 13.7456245,9.52242292 13.193253,9.00601976 C13.0827787,7.45989328 12.6958617,6.13368775 12.0330158,5.02894466 C11.1851897,3.66728458 10.0444783,2.98542688 8.60831225,2.98542688 C7.61352964,2.98542688 6.6197747,4.10866798 5.62499209,6.35463636 C4.88815415,8.04926087 4.39127668,9.63289723 4.13384585,11.1050316 C3.76542688,13.3150316 3.58147431,15.1930949 3.58147431,16.7397352 C3.58147431,21.2696957 4.88815415,23.5346759 7.50305534,23.5346759 C9.49210672,23.5346759 11.1492213,21.8770474 12.474913,18.5628182 C13.505664,15.8749526 14.0215534,13.3340435 14.0215534,10.9395771 M17.3357826,7.90127668 C17.3357826,8.12273913 17.3172846,8.43566403 17.2808024,8.84056522 C16.5074822,12.5232134 16.1210791,15.4885494 16.1210791,17.7345178 C16.1210791,18.8757431 16.1760593,20.6258617 16.2865336,22.9823043 C16.3970079,25.3382332 16.4519881,27.1058221 16.4519881,28.2850711 C16.4519881,30.5675217 16.2675217,32.2251502 15.8996166,33.2569289 C15.4582332,34.4716324 14.6104071,35.4843992 13.3587075,36.2947154 C12.1059802,37.1045178 10.8177984,37.5099328 9.49210672,37.5099328 C7.9454664,37.5099328 6.15835178,37.1785099 4.13384585,36.515664 C1.55542688,35.704834 0.266731225,34.7290632 0.266731225,33.5878379 C0.266731225,32.594083 0.653648221,32.0966917 1.42696838,32.0966917 C1.7583913,32.0966917 2.05281818,32.3171265 2.31076285,32.7595375 C2.67866798,33.3853874 2.91862846,33.7342806 3.02858893,33.8087866 C3.32352964,34.1032134 4.07835178,34.3791423 5.294083,34.6376008 C6.39882609,34.9315138 7.22712648,35.0789842 7.78001186,35.0789842 C9.84151383,35.0789842 11.4061383,34.268668 12.474913,32.6490632 C13.3951897,31.2863755 13.8560988,29.5002885 13.8560988,27.2902885 C13.8560988,24.933332 13.6531344,23.0562964 13.2482332,21.6560988 C11.4806443,23.9760593 9.36262055,25.1362964 6.89570356,25.1362964 C6.15835178,25.1362964 5.294083,24.8881146 4.2993004,24.3907233 C3.30554545,23.893332 2.56819368,23.3502095 2.08981423,22.7608419 C1.09554545,21.5826206 0.598667984,19.7230553 0.598667984,17.1816324 C0.598667984,14.0523834 1.16902372,10.6826601 2.31076285,7.07297628 C3.78341107,2.39657312 5.71696838,0.0570869565 8.11092095,0.0570869565 C10.0254664,0.0570869565 12.051,1.78870751 14.1875217,5.24989328 C14.4084704,5.65582213 14.7583913,6.18918182 15.2367708,6.85202767 C15.7151502,6.99949802 16.4149921,7.34941897 17.3357826,7.90127668" id="Fill-6" fill="#4D4D4D" mask="url(#mask-4)"></path>
                </g>
                <path d="M88.6022451,19.7012688 C88.6022451,20.3641146 88.4450119,21.3583834 88.1331146,22.6840751 C87.8196759,24.0097668 87.6634704,25.0040356 87.6634704,25.6668814 L87.6634704,37.8750632 C87.6634704,38.6853794 87.8469091,39.7906364 88.2158419,41.1892925 C88.0683715,41.4837194 87.8648933,41.6317036 87.6079763,41.6317036 C85.8033913,41.6317036 84.9016126,40.7664071 84.9016126,39.0353004 L84.9016126,18.7619802 C85.3794783,18.5050632 85.8403874,18.3755771 86.2822846,18.3755771 C86.7241818,18.3755771 87.1840632,18.5050632 87.6634704,18.7619802 C88.2893202,19.0204387 88.6022451,19.3333636 88.6022451,19.7012688" id="Fill-9" fill="#4D4D4D"></path>
                <path d="M104.676617,21.6346719 C104.676617,21.7821423 104.657605,22.0950672 104.621636,22.5734466 C104.142229,23.3107984 103.681834,23.6787036 103.240451,23.6787036 C102.94551,23.6787036 102.688079,23.4942372 102.46713,23.1258182 C102.356142,20.8058577 101.398356,19.6461344 99.5942846,19.6461344 C98.4155494,19.6461344 97.2558261,21.8191383 96.1146008,26.1641186 C95.6727036,27.7477549 95.4517549,29.8652648 95.4517549,32.5166482 C95.4517549,35.9053834 95.5432174,37.9853834 95.7276838,38.7587036 C95.7636522,38.8691779 95.8566561,39.0998893 96.0041265,39.4492964 C96.1505692,39.8002451 96.2250751,40.0664111 96.2250751,40.2503636 C96.2250751,41.0611937 95.6727036,41.465581 94.5674466,41.465581 C93.315747,41.465581 92.6898972,40.821747 92.6898972,39.5320237 C92.6898972,39.348585 92.7356285,39.0813913 92.8276047,38.7309565 C92.9190672,38.3815494 92.9658261,38.1148696 92.9658261,37.9304032 C92.9658261,35.9053834 92.873336,32.867083 92.6898972,28.8160158 C92.504917,24.7649486 92.4134545,21.7271621 92.4134545,19.7011146 C92.4134545,18.9647905 92.541913,18.5136443 92.8003715,18.3481897 C93.0572885,18.1817075 93.554166,18.0989802 94.2915178,18.0989802 C95.2117945,18.0989802 95.745668,18.430917 95.8931383,19.0937628 C95.9301344,19.8306008 95.9671304,20.5489407 96.0041265,21.2477549 C96.9608854,19.7756206 97.5137708,18.9468063 97.6612411,18.7618261 C98.4710435,17.8420632 99.3183557,17.3811542 100.20215,17.3811542 C100.864996,17.3811542 101.527842,17.5836047 102.190688,17.9885059 C102.558593,18.2094545 103.065233,18.7808379 103.710095,19.7011146 C104.353929,20.6219051 104.676617,21.2667668 104.676617,21.6346719" id="Fill-11" fill="#4D4D4D"></path>
                <path d="M111.526075,40.7473953 C111.526075,41.704668 111.010186,42.1835613 109.979435,42.1835613 C108.358802,42.1835613 107.566984,38.8513478 107.60398,32.1853794 L107.769949,7.38261265 C107.769949,6.97771146 107.714968,6.39759289 107.60398,5.64277075 C107.493506,4.88846245 107.438526,4.32632806 107.438526,3.95739526 C108.13734,3.4425336 108.727221,3.1840751 109.206115,3.1840751 C109.72149,3.1840751 110.236866,3.36905534 110.752755,3.73696047 C111.26813,4.10537945 111.526075,4.54727668 111.526075,5.06265217 C111.526075,5.43158498 111.433585,5.90996443 111.250146,6.49881818 C111.029198,7.23565613 110.899711,7.69605138 110.863229,7.88000395 C110.421846,10.3844308 110.200383,13.8831265 110.200383,18.3755771 C110.200383,25.630913 110.181885,29.1290949 110.144889,28.8711502 C110.255364,33.4005968 110.550304,36.8073162 111.029198,39.0902806 C111.029198,39.2007549 111.111925,39.4494506 111.277893,39.8363676 C111.443348,40.2227708 111.526075,40.5264466 111.526075,40.7473953" id="Fill-13" fill="#4D4D4D"></path>
                <path d="M129.920715,38.0854269 C129.920715,39.3777194 128.944945,40.4670474 126.993403,41.3523834 C125.371743,42.0537668 123.807632,42.4047154 122.297988,42.4047154 C121.303206,42.4047154 120.161466,42.1632134 118.872771,41.6812372 C118.172929,41.3847549 117.049688,40.6057826 115.503047,39.3438063 C113.809451,37.9713557 112.962138,37.0248735 112.962138,36.5053874 C112.962138,35.3564545 113.642968,34.8369684 115.00617,34.9474427 L115.337593,34.9474427 C115.411071,36.064004 116.589292,37.2735692 118.872771,38.5751107 C120.9353,39.7661779 122.591901,40.3611976 123.844628,40.3611976 C125.464233,40.3611976 126.275063,39.8077984 126.275063,38.6989447 C126.275063,38.035585 125.280794,37.1127391 123.292257,35.9314348 C120.566368,34.3452292 118.707316,33.0709209 117.712534,32.1110791 C115.687,30.154913 114.674747,27.9038063 114.674747,25.3557036 C114.674747,23.4360198 115.172138,21.6088261 116.165893,19.8741225 C117.307119,17.8074822 118.743285,16.7731344 120.474905,16.7731344 C121.726605,16.7731344 123.236763,17.353253 125.004866,18.5134901 C126.771941,19.6737273 127.802692,20.8426996 128.097632,22.0209209 C128.392059,23.0157036 128.53953,24.1759407 128.53953,25.5016324 C128.53953,26.9377984 128.282099,28.5034506 127.766723,30.1965336 C127.434787,30.4544783 127.048383,30.5829368 126.606486,30.5829368 C126.348542,30.5829368 125.94364,30.4822253 125.391269,30.2797747 C124.838383,30.0778379 124.562455,29.8651107 124.562455,29.6441621 C124.562455,29.7916324 124.764391,29.3867312 125.17032,28.4289447 C125.464233,27.8030949 125.612217,26.6613557 125.612217,25.0042411 C125.612217,21.0641621 124.377988,19.0936087 121.911071,19.0936087 C120.621348,19.0936087 119.590597,19.9609605 118.817791,21.6961779 C118.154945,23.0994585 117.823522,24.5202095 117.823522,25.9594585 C117.823522,27.768668 118.872771,29.5218696 120.971783,31.2195771 C121.671111,31.8104862 123.604668,33.0847945 126.771941,35.0404466 C128.871466,36.3327391 129.920715,37.3475613 129.920715,38.0854269" id="Fill-15" fill="#4D4D4D"></path>
                <path d="M83.4604111,6.77212648 C83.9321107,10.0647747 84.9325455,13.2361581 86.4987115,16.1742609 C86.500253,16.1763162 86.5017945,16.1763162 86.5023083,16.1788854 C86.4591462,16.3402292 86.5953123,16.536 86.8049565,16.4640632 C90.6366166,15.1763953 97.2707273,10.7543399 96.0652727,5.83746245 C95.2107668,2.34904348 91.4669723,2.79916206 89.7070909,5.08726482 C89.4820316,3.79034783 88.8572095,2.55457708 87.7308854,1.80232411 C86.8512016,1.21398419 85.3862609,0.593272727 84.4361818,1.44675099 C82.9881976,2.74726482 83.2112016,5.02252174 83.4604111,6.77212648" id="Fill-17" fill="#F0DB4F"></path>
            </g>
        </g>
    </g>
</svg>