<?xml version="1.0" encoding="UTF-8"?>
<svg width="214px" height="214px" viewBox="0 0 214 214" version="1.1" xmlns="http://www.w3.org/2000/svg" xmlns:xlink="http://www.w3.org/1999/xlink">
    <!-- Generator: Sketch 53.2 (72643) - https://sketchapp.com -->
    <title>jsHeroes_logo</title>
    <desc>Created with Sketch.</desc>
    <defs>
        <polygon id="path-1" points="0.0856327307 2.85442436e-05 109.310181 2.85442436e-05 109.310181 25.9752617 0.0856327307 25.9752617"></polygon>
    </defs>
    <g id="Exports" stroke="none" stroke-width="1" fill="none" fill-rule="evenodd">
        <g id="Homepage-New" transform="translate(-529.000000, -4468.000000)">
            <g id="Group-6" transform="translate(561.000000, 4558.000000)">
                <path d="M32.6117983,19.1674596 C32.6117983,18.2683159 32.2978116,17.5547098 31.6555661,17.0551855 C31.0133206,16.5556613 29.885823,16.0275928 28.2873454,15.4852521 C26.6745956,14.9429115 25.3615604,14.4291151 24.3482398,13.9153187 C21.0228354,12.2882969 19.3672693,10.0475737 19.3672693,7.19314938 C19.3672693,5.78020932 19.7811608,4.52426261 20.6089439,3.43958135 C21.4367269,2.3549001 22.6070409,1.51284491 24.1198858,0.899143673 C25.6184586,0.299714558 27.3311132,0 29.2150333,0 C31.056137,0 32.7117031,0.328258801 34.1674596,0.984776403 C35.623216,1.64129401 36.7649857,2.58325404 37.5784967,3.7963844 C38.3920076,5.00951475 38.791627,6.39391056 38.791627,7.96384396 L32.6260704,7.96384396 C32.6260704,6.92197907 32.3120837,6.10846813 31.6698382,5.53758325 C31.0275928,4.96669838 30.1712655,4.68125595 29.0723121,4.68125595 C27.9733587,4.68125595 27.1027593,4.92388202 26.4605138,5.40913416 C25.8182683,5.8943863 25.5042816,6.50808754 25.5042816,7.26450999 C25.5042816,7.92102759 25.8610847,8.52045671 26.5604186,9.04852521 C27.2597526,9.57659372 28.5014272,10.1332065 30.2711703,10.7040913 C32.0409134,11.2749762 33.4966698,11.8886775 34.6384396,12.5451951 C37.4072312,14.1436727 38.791627,16.3415794 38.791627,19.1389153 C38.791627,21.3796384 37.9495718,23.1351094 36.2511893,24.4196004 C34.567079,25.7040913 32.2407231,26.3320647 29.300666,26.3320647 C27.2312084,26.3320647 25.3472883,25.9609895 23.6631779,25.2188392 C21.9790676,24.4766889 20.7088487,23.4490961 19.8667935,22.150333 C19.0104662,20.8515699 18.5965747,19.3672693 18.5965747,17.6688868 L24.7906755,17.6688868 C24.7906755,19.0390105 25.1474786,20.0523311 25.8610847,20.7088487 C26.5746908,21.3653663 27.7164605,21.679353 29.3149382,21.679353 C30.3425309,21.679353 31.1417697,21.4652712 31.7411989,21.0228354 C32.3120837,20.5803996 32.6117983,19.9666984 32.6117983,19.1674596 L32.6117983,19.1674596 Z M11.5033302,0.356803045 L17.6688868,0.356803045 L17.6688868,17.9400571 C17.6688868,19.567079 17.2835395,21.0228354 16.527117,22.3073264 C15.7706946,23.5918173 14.7145576,24.5765937 13.358706,25.2759277 C12.0028544,25.9752617 10.4900095,26.3320647 8.82017127,26.3320647 C6.02283539,26.3320647 3.85347288,25.6327307 2.31208373,24.2197907 C0.770694577,22.8068506 0,20.8087536 0,18.2254995 L6.19410086,18.2254995 C6.19410086,19.3958135 6.39391056,20.2521408 6.80780209,20.7802093 C7.22169363,21.3082778 7.89248335,21.565176 8.83444339,21.565176 C9.69077069,21.565176 10.3472883,21.2511893 10.8182683,20.6089439 C11.2749762,19.9666984 11.5176023,19.0818268 11.5176023,17.925785 L11.5176023,0.356803045 L11.5033302,0.356803045 Z" id="Fill-1" fill="#0098FF"></path>
                <g id="Group-5" transform="translate(40.675547, 0.356803)">
                    <mask id="mask-2" fill="white">
                        <use xlink:href="#path-1"></use>
                    </mask>
                    <g id="Clip-4"></g>
                    <path d="M103.544244,20.2664415 C103.544244,19.7669172 103.287345,19.3530257 102.759277,19.0533111 C102.231208,18.7534539 101.23216,18.4253378 99.7478592,18.097079 C98.2635585,17.7688202 97.0504282,17.3406565 96.094196,16.7983159 C95.1379638,16.2702474 94.3958135,15.6135871 93.8962892,14.8573073 C93.396765,14.1008849 93.1398668,13.2160133 93.1398668,12.2312369 C93.1398668,10.4900381 93.867745,9.04855376 95.3092293,7.90678402 C96.7507136,6.77928639 98.6346337,6.20840152 100.975262,6.20840152 C103.487155,6.20840152 105.499524,6.77928639 107.026641,7.92105614 C108.553758,9.06282588 109.310181,10.5613987 109.310181,12.4025024 L103.358706,12.4025024 C103.358706,10.8753853 102.559467,10.1189629 100.946717,10.1189629 C100.318744,10.1189629 99.8049477,10.2902284 99.376784,10.6327593 C98.9486204,10.9752902 98.7488107,11.4034539 98.7488107,11.9315224 C98.7488107,12.4595909 99.0057088,12.8877545 99.5195052,13.2160133 C100.033302,13.5442721 100.861085,13.8154424 101.988582,14.0295243 C103.11608,14.2436061 104.115128,14.4862322 104.971456,14.7859467 C107.840152,15.7707231 109.267364,17.5403235 109.267364,20.0809039 C109.267364,21.82196 108.49667,23.2350428 106.955281,24.3195814 C105.413892,25.4044053 103.415794,25.9608754 100.96099,25.9608754 C99.3339676,25.9608754 97.8782112,25.6613035 96.5937203,25.0761465 C95.3092293,24.4909895 94.3244529,23.6917507 93.5965747,22.6782873 C92.8829686,21.6651094 92.5261656,20.6088297 92.5261656,19.4957469 L98.0637488,19.4957469 C98.0922931,20.3806185 98.3777355,21.0228639 98.9486204,21.4224833 C99.5052331,21.82196 100.233111,22.0360419 101.117983,22.0360419 C101.931494,22.0360419 102.530923,21.8791912 102.944814,21.5365176 C103.344434,21.2226736 103.544244,20.79451 103.544244,20.2664415 L103.544244,20.2664415 Z M83.2207422,10.8040247 C81.4795433,10.8040247 80.4519505,11.9600666 80.1236917,14.2577355 L86.1037108,14.2577355 L86.1037108,13.8011703 C86.132255,12.8449382 85.8896289,12.1170599 85.3758325,11.5889914 C84.8763083,11.0609229 84.1627022,10.8040247 83.2207422,10.8040247 L83.2207422,10.8040247 Z M83.8915319,25.9752902 C80.9657469,25.9752902 78.6108468,25.104548 76.7982873,23.3634919 C74.9857279,21.6222931 74.0865842,19.3530257 74.0865842,16.5556898 L74.0865842,16.0561656 C74.0865842,14.1150143 74.4433873,12.3882303 75.1712655,10.9039296 C75.8991437,9.41962892 76.9410086,8.26358706 78.3254044,7.45007612 C79.7098002,6.63656518 81.3510942,6.22267364 83.2492864,6.22267364 C85.9181732,6.22267364 88.0304472,7.05045671 89.5861085,8.70602284 C91.1417697,10.361589 91.9124643,12.6736727 91.9124643,15.642274 L91.9124643,17.9543578 L80.1236917,17.9543578 C80.3377735,19.0247669 80.7944814,19.8668221 81.5080875,20.4661085 C82.2216936,21.0799524 83.1493815,21.379667 84.2911513,21.379667 C86.1750714,21.379667 87.6308278,20.7231494 88.6869648,19.4101142 L91.3986679,22.6069267 C90.6565176,23.6346622 89.6146527,24.433901 88.2588011,25.0476023 C86.9029496,25.6613035 85.4471931,25.9752902 83.8915319,25.9752902 L83.8915319,25.9752902 Z M60.3425309,16.2845195 C60.3425309,18.0398478 60.6137012,19.3387536 61.170314,20.1522645 C61.7269267,20.9800476 62.5404377,21.379667 63.6108468,21.379667 C65.7231208,21.379667 66.8078021,19.7525024 66.8506185,16.4986013 L66.8506185,15.8990295 C66.8506185,12.4881351 65.7659372,10.7754805 63.5823026,10.7754805 C61.5984776,10.7754805 60.5280685,12.245509 60.356803,15.1854234 L60.3425309,16.2845195 Z M54.4196004,15.9277165 C54.4196004,14.0295243 54.7906755,12.3311418 55.5328259,10.8468411 C56.2749762,9.36254044 57.3311132,8.22077069 58.715509,7.42153187 C60.0999049,6.62229305 61.7269267,6.22267364 63.5965747,6.22267364 C66.450999,6.22267364 68.6917222,7.1075452 70.3330162,8.8772883 C71.9600381,10.6327593 72.7878211,13.0447479 72.7878211,16.0847098 L72.7878211,16.2987916 C72.7878211,19.267393 71.9600381,21.6222931 70.3187441,23.3634919 C68.67745,25.104548 66.4367269,25.9752902 63.6251189,25.9752902 C60.9134158,25.9752902 58.7440533,25.1617793 57.1027593,23.5346147 C55.4614653,21.9077355 54.5765937,19.7098287 54.4481446,16.926765 L54.4196004,15.9277165 Z M54.1056137,11.9457945 L52.150333,11.8030733 C50.2806851,11.8030733 49.0818268,12.3882303 48.5537583,13.5585442 L48.5537583,25.6184872 L42.6165557,25.6184872 L42.6165557,6.57947669 L48.1826832,6.57947669 L48.3824929,9.02000951 C49.3815414,7.15036156 50.7659372,6.22267364 52.5499524,6.22267364 C53.1779258,6.22267364 53.7345385,6.29403425 54.2055186,6.43675547 L54.1056137,11.9457945 Z M32.226451,10.8040247 C30.4852521,10.8040247 29.4576594,11.9600666 29.1294006,14.2577355 L35.1094196,14.2577355 L35.1094196,13.8011703 C35.1379638,12.8449382 34.8953378,12.1170599 34.3815414,11.5889914 C33.8962892,11.0609229 33.168411,10.8040247 32.226451,10.8040247 L32.226451,10.8040247 Z M32.8972407,25.9752902 C29.9714558,25.9752902 27.6165557,25.104548 25.8039962,23.3634919 C23.9914367,21.6222931 23.0922931,19.3530257 23.0922931,16.5556898 L23.0922931,16.0561656 C23.0922931,14.1150143 23.4490961,12.3882303 24.1769743,10.9039296 C24.9048525,9.41962892 25.9467174,8.26358706 27.3311132,7.45007612 C28.715509,6.63656518 30.356803,6.22267364 32.2549952,6.22267364 C34.923882,6.22267364 37.036156,7.05045671 38.5918173,8.70602284 C40.1474786,10.361589 40.9181732,12.6736727 40.9181732,15.642274 L40.9181732,17.9543578 L29.1294006,17.9543578 C29.3434824,19.0247669 29.8001903,19.8668221 30.5137964,20.4661085 C31.2274025,21.0799524 32.1550904,21.379667 33.2968601,21.379667 C35.1807802,21.379667 36.6365366,20.7231494 37.6926736,19.4101142 L40.4043768,22.6069267 C39.6622265,23.6346622 38.6203616,24.433901 37.26451,25.0476023 C35.9086584,25.6613035 34.452902,25.9752902 32.8972407,25.9752902 L32.8972407,25.9752902 Z M21.4938154,25.6184872 L15.356803,25.6184872 L15.356803,14.9143958 L6.26546147,14.9143958 L6.26546147,25.6184872 L0.0856327307,25.6184872 L0.0856327307,2.85442436e-05 L6.26546147,2.85442436e-05 L6.26546147,10.1760514 L15.356803,10.1760514 L15.356803,2.85442436e-05 L21.4938154,2.85442436e-05 L21.4938154,25.6184872 Z" id="Fill-3" fill="#001C2C" mask="url(#mask-2)"></path>
                </g>
            </g>
        </g>
    </g>
</svg>