<?xml version="1.0" encoding="UTF-8"?>
<svg width="214px" height="214px" viewBox="0 0 214 214" version="1.1" xmlns="http://www.w3.org/2000/svg" xmlns:xlink="http://www.w3.org/1999/xlink">
    <!-- Generator: Sketch 54.1 (76490) - https://sketchapp.com -->
    <title>JSLeague_logo</title>
    <desc>Created with Sketch.</desc>
    <defs>
        <polygon id="path-1" points="0.238382022 0.10741573 84.6469213 0.10741573 84.6469213 111.460674 0.238382022 111.460674"></polygon>
        <polygon id="path-3" points="0 0.0408089888 119.941933 0.0408089888 119.941933 32.3718202 0 32.3718202"></polygon>
    </defs>
    <g id="Exports" stroke="none" stroke-width="1" fill="none" fill-rule="evenodd">
        <g id="Homepage-New" transform="translate(-1003.000000, -4716.000000)">
            <g id="Group-33" transform="translate(1050.000000, 4767.000000)">
                <g id="Group-3" transform="translate(17.528090, 0.342022)">
                    <mask id="mask-2" fill="white">
                        <use xlink:href="#path-1"></use>
                    </mask>
                    <g id="Clip-2"></g>
                    <path d="M84.6469213,12.1146067 C84.6469213,12.1146067 70.5871461,0.10741573 42.4415281,0.10741573 C14.2959101,0.10741573 0.238382022,12.1146067 0.238382022,12.1146067 L0.238382022,51.9006742 C0.238382022,100.942921 29.4577079,98.4242697 42.4662472,111.460674 C55.475236,98.4242697 84.6195056,100.926742 84.6195056,51.8853933 L84.6469213,12.1146067 Z" id="Fill-1" fill="#293656" mask="url(#mask-2)"></path>
                </g>
                <path d="M97.3075506,16.889573 C97.3075506,16.889573 84.8738427,6.268 59.969573,6.268 C35.0724944,6.268 22.6302472,16.889573 22.6302472,16.889573 L22.6302472,52.0891236 C22.6302472,95.4729438 48.482382,93.2509213 59.9947416,104.779461 C71.5003596,93.2509213 97.286427,95.4639551 97.286427,52.0765393 L97.3075506,16.889573 Z" id="Fill-4" fill="#F6DD72"></path>
                <g id="Group-8" transform="translate(0.000000, 64.162247)">
                    <mask id="mask-4" fill="white">
                        <use xlink:href="#path-3"></use>
                    </mask>
                    <g id="Clip-7"></g>
                    <path d="M110.912719,32.3718202 C78.7760899,16.6284494 41.1657528,16.6284494 9.0291236,32.3718202 C9.41069663,28.3381124 9.98148315,24.2760899 10.7441798,20.2010337 C7.31226966,17.9776629 3.72844944,15.8859775 -8.98876405e-05,13.9412584 C37.8322697,-4.59267416 82.1091236,-4.59267416 119.941933,13.9412584 C116.578337,16.0648539 113.338787,18.3021573 110.228674,20.6432809 C110.613843,24.5772135 110.841258,28.4900225 110.912719,32.3718202" id="Fill-6" fill="#293656" mask="url(#mask-4)"></path>
                </g>
                <path d="M41.9639101,72.3210337 C42.2924494,72.2747416 42.6214382,72.2302472 42.950427,72.1862022 C43.2097528,74.1394607 43.4686292,76.0927191 43.7275056,78.0450787 C44.7558202,77.9093483 45.7850337,77.7857528 46.8155955,77.6756404 C46.8416629,77.9138427 46.8668315,78.1520449 46.8924494,78.3902472 C45.5549213,78.5331685 44.2196404,78.6985618 42.8861573,78.8855281 C42.5787416,76.6972135 42.2713258,74.5093483 41.9639101,72.3210337" id="Fill-9" fill="#F6DD72"></path>
                <path d="M51.4363146,74.8710562 C50.4821573,74.9357753 49.5284494,75.0112809 48.575191,75.0980225 C48.6475506,75.8917303 48.7199101,76.6858876 48.7918202,77.4800449 C49.8381124,77.3852135 50.8857528,77.3034157 51.9338427,77.2351011 L51.9805843,77.9524045 C50.6246292,78.0409438 49.269573,78.1519551 47.9158652,78.2854382 C47.699236,76.0858876 47.4826067,73.887236 47.2655281,71.6876854 C48.6354157,71.5528539 50.0066517,71.4395955 51.3796854,71.3483596 C51.3954157,71.5874607 51.4111461,71.8270112 51.4273258,72.0661124 C50.3913708,72.134427 49.3563146,72.2162247 48.3221573,72.3101573 C48.3850787,73.0049888 48.4484494,73.7002697 48.5113708,74.3946517 C49.4700225,74.3079101 50.4286742,74.2319551 51.3886742,74.1667865 C51.4044045,74.4013933 51.4205843,74.6364494 51.4363146,74.8710562" id="Fill-11" fill="#F6DD72"></path>
                <path d="M56.6610337,74.980764 C56.3994607,74.3515506 56.1342921,73.723236 55.8655281,73.0958202 C55.6857528,72.6711011 55.560809,72.279191 55.436764,71.9003146 C55.4273258,71.900764 55.4183371,71.9012135 55.4088989,71.9012135 C55.3122697,72.2881798 55.2129438,72.7039101 55.073618,73.1124494 C54.8538427,73.7605393 54.6381124,74.4095281 54.4259775,75.0594157 C55.1706966,75.0266067 55.9158652,75.0000899 56.6610337,74.980764 M54.2610337,75.7358202 C54.0385618,76.4423371 53.8205843,77.1493034 53.6066517,77.8571685 C53.2848539,77.8737978 52.9630562,77.8922247 52.6417079,77.9115506 C53.3315955,75.6562697 54.0659775,73.4068315 54.8453034,71.1645843 C55.236764,71.1493034 55.6277753,71.1353708 56.0187865,71.1236854 C56.9513708,73.3057079 57.8403596,75.4980674 58.6844045,77.6994157 C58.3522697,77.7030112 58.0205843,77.7075056 57.6884494,77.7137978 C57.4178876,77.0225618 57.142382,76.3326742 56.8628315,75.6436854 C55.9954157,75.6652584 55.128,75.6958202 54.2610337,75.7358202" id="Fill-13" fill="#F6DD72"></path>
                <path d="M65.1033708,77.5053483 C64.68,77.6343371 63.8373034,77.8181573 62.861573,77.7956854 C61.7716854,77.7705169 60.8768539,77.5048989 60.1653933,76.8851236 C59.5429213,76.3332135 59.1429213,75.4518652 59.1352809,74.4195056 C59.1123596,72.4437753 60.6741573,70.9732135 63.2377528,71.035236 C64.1213483,71.0572584 64.8139326,71.2500674 65.1361798,71.4015281 C65.0435955,71.631191 64.9514607,71.8604045 64.8597753,72.0900674 C64.458427,71.9071461 63.9595506,71.769618 63.1964045,71.7502921 C61.3505618,71.7053483 60.1447191,72.7161348 60.1483146,74.3772584 C60.1510112,76.0622022 61.2480899,77.0482697 62.9406742,77.0882697 C63.5591011,77.1031011 63.9797753,77.038382 64.1973034,76.9484944 C64.2197753,76.2905169 64.2426966,75.6325393 64.2651685,74.9741124 C63.7689888,74.9574831 63.2737079,74.9435506 62.7775281,74.9323146 C62.7829213,74.7017528 62.7883146,74.4707416 62.792809,74.2397303 C63.6076404,74.2581573 64.4220225,74.2842247 65.2364045,74.3179326 C65.1919101,75.3804045 65.1478652,76.4428764 65.1033708,77.5053483" id="Fill-15" fill="#F6DD72"></path>
                <path d="M67.8421573,71.3027416 C67.7621573,72.6110562 67.6830562,73.9193708 67.6030562,75.2276854 C67.5158652,76.703191 68.1990112,77.3733034 69.1657528,77.4452135 C70.2277753,77.5252135 70.979236,76.9445393 71.1113708,75.4906067 C71.2277753,74.1849888 71.3441798,72.8798202 71.4605843,71.5742022 C71.7913708,71.6034157 72.1217079,71.6339775 72.4524944,71.6663371 C72.328,72.9512809 72.2035056,74.2362247 72.0790112,75.5220674 C71.876764,77.5490337 70.6340674,78.2577978 69.076764,78.1422921 C67.6093483,78.0330787 66.5387865,77.2119551 66.6430562,75.1458876 C66.7122697,73.8461124 66.7819326,72.5463371 66.8506966,71.2461124 C67.1810337,71.2636404 67.5118202,71.2825169 67.8421573,71.3027416" id="Fill-17" fill="#F6DD72"></path>
                <path d="M77.5665169,75.816 C76.6177528,75.6820674 75.6676404,75.5593708 74.7166292,75.4474607 C74.6235955,76.2389213 74.5301124,77.0308315 74.4366292,77.8227416 C75.4806742,77.9458876 76.5238202,78.0825169 77.5651685,78.2321798 C77.5310112,78.4690337 77.4968539,78.7067865 77.4626966,78.9436404 C76.1161798,78.7499326 74.7674157,78.5786966 73.4173034,78.4299326 C73.6591011,76.2339775 73.9008989,74.0371236 74.1426966,71.8407191 C75.5098876,71.9912809 76.8748315,72.1634157 78.2375281,72.3580225 C78.2038202,72.5948764 78.1701124,72.8321798 78.1364045,73.0694831 C77.107191,72.9229663 76.0766292,72.7890337 75.0447191,72.667236 L74.7997753,74.7463371 C75.7557303,74.8591461 76.711236,74.9827416 77.6653933,75.1171236 C77.6321348,75.350382 77.5993258,75.5827416 77.5665169,75.816" id="Fill-19" fill="#F6DD72"></path>
                <polygon id="Fill-21" fill="#293656" points="59.9695281 55.012809 56.9443596 51.9835955 59.9695281 48.9593258 62.9937978 51.9835955"></polygon>
                <polygon id="Fill-23" fill="#293656" points="57.7249438 94.6520449 57.7249438 95.6097978 53.9020225 93.6655281 53.9020225 92.8129438 57.7249438 90.8704719 57.7249438 91.8255281 55.0062921 93.2385618"></polygon>
                <polygon id="Fill-25" fill="#293656" points="58.3324045 97.0563596 60.8613933 90.2648989 61.6056629 90.2648989 59.0771236 97.0563596"></polygon>
                <polygon id="Fill-27" fill="#293656" points="62.2132135 91.8254831 62.2132135 90.870427 66.0406292 92.8128989 66.0406292 93.6645843 62.2132135 95.6097528 62.2132135 94.652 64.9422022 93.2389663"></polygon>
                <path d="M41.7789213,37.8718652 L46.0036404,35.3181573 C46.8171236,36.7635506 47.5582472,37.9842247 49.3353258,37.9842247 C51.0404944,37.9842247 52.116,37.3123146 52.116,34.7231011 L52.116,17.0848989 L57.3034157,17.0848989 L57.3034157,34.796809 C57.3034157,40.171191 54.1533034,42.6156854 49.5595955,42.6156854 C45.4099326,42.6156854 42.9986966,40.4673708 41.7789213,37.8718652" id="Fill-29" fill="#293656"></path>
                <path d="M60.1187416,37.3122247 L64.3416629,34.8731236 C65.4553708,36.6861573 66.9016629,38.0223371 69.4585169,38.0223371 C71.6081798,38.0223371 72.9758202,36.9477303 72.9758202,35.4645843 C72.9758202,33.6870562 71.5699775,33.0555955 69.1996404,32.0178427 L67.8994157,31.4650337 C64.1600899,29.8695281 61.679191,27.8695281 61.679191,23.6434607 C61.679191,19.7522247 64.6400899,16.7922247 69.2697528,16.7922247 C72.5722247,16.7922247 74.9403146,17.9387416 76.6450337,20.9355955 L72.6086292,23.532 C71.7160449,21.9387416 70.7560449,21.3099775 69.2697528,21.3099775 C67.7555955,21.3099775 66.7884045,22.270427 66.7884045,23.532 C66.7884045,25.0857079 67.7555955,25.7171685 69.9749213,26.6830112 L71.2764944,27.2344719 C75.683236,29.1288539 78.163236,31.0551461 78.163236,35.3899775 C78.163236,40.0582921 74.4989663,42.6155955 69.570427,42.6155955 C64.7533483,42.6155955 61.6409888,40.320764 60.1187416,37.3122247" id="Fill-31" fill="#293656"></path>
            </g>
        </g>
    </g>
</svg>