<?xml version="1.0" encoding="UTF-8"?>
<svg width="214px" height="214px" viewBox="0 0 214 214" version="1.1" xmlns="http://www.w3.org/2000/svg" xmlns:xlink="http://www.w3.org/1999/xlink">
    <!-- Generator: Sketch 57.1 (83088) - https://sketch.com -->
    <title>ktz_logo</title>
    <desc>Created with Sketch.</desc>
    <defs>
        <polygon id="path-1" points="0.00015 0.4995 96.0005 0.4995 96.0005 96.5 0.00015 96.5"></polygon>
    </defs>
    <g id="Exports" stroke="none" stroke-width="1" fill="none" fill-rule="evenodd">
        <g id="Homepage-New" transform="translate(-2019.000000, -5234.000000)">
            <g id="Group-6" transform="translate(2078.000000, 5293.000000)">
                <g id="Group-3" transform="translate(0.000000, 0.000500)">
                    <mask id="mask-2" fill="white">
                        <use xlink:href="#path-1"></use>
                    </mask>
                    <g id="Clip-2"></g>
                    <path d="M48.00015,0.4995 C74.51015,0.4995 96.00065,21.99 96.00065,48.4995 C96.00065,75.0095 74.51015,96.5 48.00015,96.5 C21.49015,96.5 0.00015,75.0095 0.00015,48.4995 C0.00015,21.99 21.49015,0.4995 48.00015,0.4995" id="Fill-1" fill="#C81B37" mask="url(#mask-2)"></path>
                </g>
                <path d="M39.65225,25.9043 L47.52875,33.0188 L49.44375,31.4233 L55.84825,26.0998 C56.31125,27.4898 56.74375,28.8593 57.53675,30.7538 C59.22525,34.8003 61.56275,38.9908 61.56275,42.6663 C61.65675,46.2658 60.42175,49.7738 58.09275,52.5198 C55.85875,55.0113 52.63575,56.6383 47.96125,56.6383 C38.84925,56.6383 33.64925,48.6588 33.64925,42.5528 C33.64925,38.8363 35.93475,34.7383 37.65425,30.8258 C38.55025,28.7663 39.09575,27.3558 39.65175,25.9248 L39.65225,25.9043 Z M37.00625,15.7523 L35.67775,20.0768 C34.73375,22.9353 33.63375,25.7398 32.38275,28.4783 C30.91075,31.8348 27.88325,36.7153 27.88325,42.5328 C27.88325,51.7993 35.53375,62.3833 47.96125,62.3833 C53.40775,62.5368 58.65725,60.3433 62.37525,56.3603 C65.65675,52.5583 67.41725,47.6773 67.31775,42.6558 C67.31775,36.8183 64.22875,31.9168 62.83875,28.5193 C61.70975,25.9338 60.80025,23.2573 60.12075,20.5188 L59.09075,15.8858 L47.66225,25.3893 L37.00625,15.7523 Z M47.53925,34.7173 C48.92875,36.7768 50.52525,39.5668 50.52525,42.0998 C50.52525,44.3028 49.91775,45.0443 49.27875,45.6213 C48.33375,46.4973 46.86525,46.4698 45.95375,45.5593 C45.26375,44.9723 44.65625,44.2308 44.65625,42.1308 C44.65625,39.3608 46.20075,36.6633 47.55975,34.7378 L47.53925,34.7173 Z M47.67325,26.0273 L45.61375,27.9423 C45.61375,27.9423 38.91075,33.7903 38.85925,42.0793 C38.77725,45.0368 39.98325,47.8843 42.16425,49.8833 C45.29725,52.6153 49.96575,52.6153 53.09875,49.8833 C55.22325,47.8458 56.38025,45.0003 56.28025,42.0588 C56.28025,34.0998 49.67025,28.0148 49.67025,28.0148 L47.69375,26.0273 L47.67325,26.0273 Z M19.55325,57.4718 L19.55325,60.8803 C19.55325,65.9148 21.83925,69.2608 24.25875,70.7953 C25.73575,71.7188 27.42875,72.2408 29.16975,72.3088 L39.98075,72.3088 C40.96775,72.2373 41.94425,72.5468 42.70925,73.1738 C43.38325,73.7783 43.89975,74.5378 44.21275,75.3873 C44.67025,76.6013 44.93125,77.8803 44.98475,79.1763 L50.69925,79.1763 C50.65925,77.1373 50.25525,75.1218 49.50525,73.2253 C48.85475,71.4753 47.77475,69.9178 46.36425,68.6953 C44.54975,67.2498 42.29025,66.4783 39.97075,66.5118 L29.16975,66.5118 C28.52025,66.4623 27.89375,66.2498 27.34775,65.8943 C26.40025,65.2868 25.28825,64.3603 25.28825,60.8393 L25.28825,57.4718 L19.55325,57.4718 Z M70.59225,57.4718 L70.59225,60.8803 C70.59225,64.4013 69.56275,65.3278 68.53275,65.9353 C67.98675,66.2908 67.36025,66.5033 66.71075,66.5528 L55.93075,66.5528 C53.61575,66.5078 51.35725,67.2643 49.53675,68.6948 C48.11675,69.9013 47.02275,71.4448 46.35525,73.1838 C45.60475,75.0803 45.20025,77.0958 45.16075,79.1348 L50.91625,79.1348 C50.98725,77.8508 51.26225,76.5858 51.72975,75.3873 C52.04275,74.5378 52.55875,73.7778 53.23325,73.1738 C53.99825,72.5463 54.97475,72.2368 55.96175,72.3088 L66.77275,72.3088 C68.50625,72.2228 70.18875,71.6873 71.65275,70.7538 C74.07225,69.2198 76.35825,65.8733 76.35825,60.8388 L76.35825,57.4718 L70.59225,57.4718 Z" id="Fill-4" fill="#FFFFFF"></path>
            </g>
        </g>
    </g>
</svg>