<?xml version="1.0" encoding="UTF-8"?>
<svg width="214px" height="214px" viewBox="0 0 214 214" version="1.1" xmlns="http://www.w3.org/2000/svg" xmlns:xlink="http://www.w3.org/1999/xlink">
    <!-- Generator: Sketch 57.1 (83088) - https://sketch.com -->
    <title>ktz_logo</title>
    <desc>Created with Sketch.</desc>
    <defs>
        <polygon id="path-1" points="0 0.499 96.0009 0.499 96.0009 96.5 0 96.5"></polygon>
    </defs>
    <g id="Exports" stroke="none" stroke-width="1" fill="none" fill-rule="evenodd">
        <g id="Homepage-New" transform="translate(-2019.000000, -5234.000000)">
            <g id="Group-6" transform="translate(2078.000000, 5293.000000)">
                <g id="Group-3" transform="translate(0.000000, 0.001000)">
                    <mask id="mask-2" fill="white">
                        <use xlink:href="#path-1"></use>
                    </mask>
                    <g id="Clip-2"></g>
                    <path d="M48.0004,0.499 C74.5104,0.499 96.0009,21.9895 96.0009,48.4995 C96.0009,75.0095 74.5104,96.5 48.0004,96.5 C21.4904,96.5 -0.0001,75.0095 -0.0001,48.4995 C-0.0001,21.9895 21.4904,0.499 48.0004,0.499" id="Fill-1" fill="#C81B37" mask="url(#mask-2)"></path>
                </g>
                <path d="M19.5531,57.47045 L19.5531,60.87895 C19.5531,65.91395 21.8386,69.25995 24.2581,70.79345 C25.7356,71.71745 27.4281,72.23995 29.1691,72.30795 L39.9801,72.30795 C40.9671,72.23545 41.9431,72.54545 42.7086,73.17245 C43.3826,73.77695 43.8991,74.53645 44.2121,75.38595 C44.6696,76.59995 44.9301,77.87845 44.9841,79.17495 L50.6986,79.17495 C50.6981,79.16145 50.6971,79.14745 50.6971,79.13395 L50.9151,79.13395 C50.9866,77.84945 51.2616,76.58495 51.7286,75.38645 C52.0416,74.53695 52.5576,73.77645 53.2316,73.17195 C53.9966,72.54495 54.9736,72.23595 55.9606,72.30795 L66.7711,72.30795 C68.5051,72.22245 70.1876,71.68645 71.6521,70.75295 C74.0716,69.21895 76.3571,65.87245 76.3571,60.83745 L76.3571,57.47095 L70.5916,57.47095 L70.5916,60.87945 C70.5916,64.40045 69.5616,65.32745 68.5321,65.93445 C67.9861,66.28995 67.3596,66.50145 66.7096,66.55195 L55.9296,66.55195 C53.6156,66.50595 51.3561,67.26295 49.5356,68.69345 C48.9416,69.19845 48.4081,69.76545 47.9356,70.37795 C47.4716,69.76695 46.9481,69.20045 46.3641,68.69395 C44.5491,67.24895 42.2896,66.47695 39.9696,66.51095 L29.1686,66.51095 C28.5191,66.46045 27.8926,66.24895 27.3466,65.89345 C26.3991,65.28595 25.2876,64.35945 25.2876,60.83845 L25.2876,57.47145 L19.5531,57.47095 L19.5531,57.47045 Z M47.5556,34.74345 C48.9416,36.79995 50.5241,39.57645 50.5241,42.09895 C50.5241,44.30245 49.9166,45.04345 49.2781,45.62045 C48.3331,46.49645 46.8651,46.46945 45.9531,45.55895 C45.2631,44.97195 44.6551,44.22995 44.6551,42.12945 C44.6551,39.36245 46.1976,36.66845 47.5556,34.74345 L47.5556,34.74345 Z M39.6511,25.90395 L43.8976,29.73995 C41.9081,32.07745 38.8936,36.52595 38.8586,42.07845 C38.7766,45.03645 39.9821,47.88395 42.1631,49.88295 C45.2961,52.61445 49.9646,52.61445 53.0971,49.88295 C55.2216,47.84545 56.3786,44.99995 56.2791,42.05795 C56.2791,36.71145 53.3016,32.22145 51.3436,29.84295 L55.8466,26.09945 C56.3101,27.48945 56.7431,28.85895 57.5356,30.75295 C59.2241,34.79945 61.5611,38.99045 61.5611,42.66595 C61.6556,46.26545 60.4206,49.77295 58.0916,52.51945 C55.8576,55.01045 52.6351,56.63745 47.9601,56.63745 C38.8481,56.63745 33.6481,48.65795 33.6481,42.55195 C33.6481,38.83495 35.9331,34.73745 37.6531,30.82495 C38.5486,28.76545 39.0946,27.35545 39.6511,25.92445 L39.6511,25.90395 Z M37.0051,15.75195 L35.6776,20.07595 C34.7331,22.93495 33.6331,25.73945 32.3821,28.47745 C30.9096,31.83395 27.8831,36.71445 27.8831,42.53195 C27.8831,51.79845 35.5331,62.38245 47.9606,62.38245 C53.4071,62.53645 58.6566,60.34295 62.3746,56.35995 C65.6566,52.55795 67.4166,47.67695 67.3171,42.65595 C67.3171,36.81795 64.2281,31.91645 62.8386,28.51895 C61.7096,25.93295 60.8001,23.25695 60.1196,20.51845 L59.0911,15.88545 L47.6611,25.38945 L37.0056,15.75245 L37.0051,15.75195 Z" id="Fill-4" fill="#FFFFFF"></path>
            </g>
        </g>
    </g>
</svg>