<?xml version="1.0" encoding="UTF-8"?>
<svg width="214px" height="214px" viewBox="0 0 214 214" version="1.1" xmlns="http://www.w3.org/2000/svg" xmlns:xlink="http://www.w3.org/1999/xlink">
    <!-- Generator: Sketch 63.1 (92452) - https://sketch.com -->
    <title>ngparty_no-spray_logo</title>
    <desc>Created with Sketch.</desc>
    <g id="Exports" stroke="none" stroke-width="1" fill="none" fill-rule="evenodd">
        <g id="Homepage-New" transform="translate(-1768.000000, -4966.000000)">
            <g id="ngparty-logo_light" transform="translate(1840.000000, 5043.000000)">
                <g id="Group" transform="translate(0.491879, 0.953596)">
                    <path d="M8.4696331,8.19009429 L8.97867207,11.7863412 C12.2355564,9.47917832 16.3408391,7.51137506 20.6158014,7.51137506 C26.7564357,7.51137506 30.2851292,10.9379422 30.2851292,17.3166162 L30.2851292,41.9821093 L20.5482512,41.9821093 L20.5482512,20.3362735 C20.5482512,17.689751 19.3604936,16.2309871 16.6126482,16.2309871 C14.6448467,16.2309871 12.100456,17.1131613 9.86004127,18.7078298 L9.86004127,41.9821093 L0.123163273,41.9821093 L0.123163273,8.19009429 L8.4696331,8.19009429 Z" id="Path" fill="#000000"></path>
                    <path d="M46.0187562,20.5397466 C46.0187562,23.3213696 47.4091644,25.9678921 51.1075375,25.9678921 C54.8059107,25.9678921 56.197123,23.2875944 56.197123,20.5397466 L56.197123,19.2506625 C56.197123,16.5020105 54.8059107,13.7203875 51.1075375,13.7203875 C47.6809735,13.7203875 46.0187562,15.9937752 46.0187562,18.4698138 L46.0187562,20.5397466 Z M48.8687311,43.5092458 C48.2237876,43.5092458 47.6126192,43.5092458 47.0030591,43.4754707 C45.6456218,44.2217401 44.1530842,45.6467289 44.1530842,47.580757 C44.1530842,50.36238 46.5953454,51.1432288 49.9543592,51.1432288 L53.584378,51.1432288 C56.9771669,51.1432288 60.2686305,50.8714194 60.2686305,47.4448523 C60.2686305,44.4935495 58.1311494,43.5092458 55.4846293,43.5092458 L48.8687311,43.5092458 Z M67.3935677,2.45638248 C66.0707097,5.54358997 63.7627448,8.73292701 61.693618,10.7007303 C64.4414634,12.8719885 65.629221,15.6544156 65.629221,19.2506625 L65.629221,20.5735217 C65.629221,27.3928808 60.2010803,32.312791 50.9040828,32.312791 C49.6833543,32.312791 48.4955967,32.2114656 47.4091644,32.0072065 C46.4940201,32.7872511 45.7469471,33.7715549 45.7469471,34.653729 C45.7469471,35.7731332 46.6636998,36.3843022 48.0541079,36.3843022 L56.4005778,36.3843022 C63.3220602,36.3843022 68.8185551,40.1502289 68.8185551,47.5461777 C68.8185551,54.7394757 62.3723366,58.1322676 54.4327763,58.1322676 L48.6652763,58.1322676 C40.6919409,58.1322676 36.0100691,55.0104809 36.0100691,49.4802058 C36.0100691,45.9185382 38.7579145,43.4079204 41.4044346,41.9829317 C39.5379584,40.9302735 38.1475503,39.1329543 38.1475503,36.9271168 C38.1475503,34.1784647 40.1153518,31.9058811 42.286608,30.412538 C38.6903643,28.5130892 36.5866583,25.289977 36.5866583,21.2860161 L36.5866583,18.5719433 C36.5866583,12.0235894 42.2182536,7.51139323 50.9040828,7.51139323 C52.770559,7.51139323 54.5686808,7.78320259 56.1633479,8.25766271 C57.2152009,6.1877299 58.3000249,2.52393274 58.8090638,0.0470900522 L67.3935677,2.45638248 Z" id="Shape" fill="#000000"></path>
                    <path d="M0.899245375,46.8143721 L0.984487287,48.0206267 C2.13364476,47.1754443 3.43479016,46.6245881 4.62254775,46.6245881 C6.21721483,46.6245881 7.11949243,47.5268665 7.11949243,49.1979311 L7.11949243,56.2738203 L6.10382701,56.2738203 L6.10382701,49.4070152 C6.10382701,48.2104107 5.54332123,47.5839625 4.39416376,47.5839625 C3.44444019,47.5839625 2.21004081,48.0206267 1.07053337,48.8754591 L1.07053337,56.2738203 L0.0540637782,56.2738203 L0.0540637782,46.8143721 L0.899245375,46.8143721 Z" id="Path" fill="#75BBD7"></path>
                    <path d="M15.9390823,50.2339297 C15.9390823,48.458323 14.9226127,47.4418525 13.3938875,47.4418525 C11.8651623,47.4418525 10.8486927,48.458323 10.8486927,50.2339297 L10.8486927,50.927124 L15.9390823,50.927124 L15.9390823,50.2339297 Z M16.9555519,52.6649347 C16.9555519,54.9439517 15.3697307,56.3689404 13.0714158,56.3689404 C11.6938743,56.3689404 10.4594749,56.0271683 10.041307,55.8558801 L10.1747991,54.9729018 C10.5632127,55.1055898 11.6657284,55.438516 13.0521157,55.438516 C14.8848168,55.438516 15.9390823,54.3456494 15.9390823,52.6271388 L15.9390823,51.7248604 L9.84187313,51.7248604 L9.84187313,50.1961337 C9.84187313,47.8881667 11.4188485,46.5299241 13.3938875,46.5299241 C15.3697307,46.5299241 16.9555519,47.8881667 16.9555519,50.1961337 L16.9555519,52.6649347 L16.9555519,52.6649347 Z" id="Shape" fill="#75BBD7"></path>
                    <polygon id="Path" fill="#75BBD7" points="22.096331 50.6798627 24.6696717 46.814219 25.8099834 46.814219 22.7042828 51.335261 26.0665133 56.2736672 24.9270058 56.2736672 22.096331 52.0662513 19.2656562 56.2736672 18.1261488 56.2736672 21.4787292 51.430153 18.3738328 46.814219 19.5133403 46.814219"></polygon>
                    <path d="M27.0423177,46.8148181 L28.7326809,46.8148181 L28.8364187,44.174729 L29.7202004,44.174729 L29.7202004,46.8148181 L32.388433,46.8148181 L32.388433,47.6511546 L29.7298504,47.6511546 L29.7298504,53.9092032 C29.7298504,55.1339537 30.3764023,55.5521219 31.2867215,55.5521219 C31.7153436,55.5521219 32.2372493,55.47653 32.597517,55.4001338 L32.711709,56.2646163 C32.3321412,56.3691583 31.7619854,56.4640503 31.1733337,56.4640503 C29.7202004,56.4640503 28.7230308,55.7322559 28.7230308,54.0330453 L28.7230308,47.6511546 L27.0423177,47.6511546 L27.0423177,46.8148181 Z" id="Path" fill="#75BBD7"></path>
                </g>
            </g>
        </g>
    </g>
</svg>