<?xml version="1.0" encoding="UTF-8"?>
<svg width="214px" height="214px" viewBox="0 0 214 214" version="1.1" xmlns="http://www.w3.org/2000/svg" xmlns:xlink="http://www.w3.org/1999/xlink">
    <!-- Generator: Sketch 54.1 (76490) - https://sketchapp.com -->
    <title>ngparty_no-spray_logo</title>
    <desc>Created with Sketch.</desc>
    <g id="Exports" stroke="none" stroke-width="1" fill="none" fill-rule="evenodd">
        <g id="Homepage-New" transform="translate(-1003.000000, -4966.000000)">
            <g id="Group-7" transform="translate(1040.000000, 5003.000000)">
                <polygon id="Fill-1" fill="#232323" points="0 139.900431 139.900733 139.900431 139.900733 0 0 0"></polygon>
                <g id="Group-6" transform="translate(58.534483, 60.848707)" fill="#FFFFFF">
                    <path d="M0.23462069,2.99035776 L0.23462069,15.1585905 L3.7409569,15.1585905 L3.7409569,6.77759914 C4.54746552,6.2034181 5.46380172,5.88600431 6.17255172,5.88600431 C7.16160345,5.88600431 7.58914655,6.41100431 7.58914655,7.36415086 L7.58914655,15.1585905 L11.0954828,15.1585905 L11.0954828,6.27673707 C11.0954828,3.98001293 9.82522414,2.74565948 7.61418966,2.74565948 C6.07418966,2.74565948 4.59634483,3.45440948 3.42324138,4.28535776 L3.24039655,2.99035776 L0.23462069,2.99035776 Z" id="Fill-2"></path>
                    <path d="M20.1852543,15.7085733 C21.1384009,15.7085733 21.9080991,16.0624957 21.9080991,17.1254698 C21.9080991,18.3598233 20.7229267,18.4569784 19.500944,18.4569784 L18.193875,18.4569784 C16.9842629,18.4569784 16.1047371,18.1760733 16.1047371,17.1746509 C16.1047371,16.4779698 16.6424095,15.9647371 17.1309009,15.6959009 C17.3508578,15.7085733 17.5708147,15.7085733 17.8028405,15.7085733 L20.1852543,15.7085733 Z M16.7766767,6.69215086 C16.7766767,5.80025431 17.3752974,4.981375 18.6090474,4.981375 C19.940556,4.981375 20.4420216,5.98340086 20.4420216,6.97305603 L20.4420216,7.43710776 C20.4420216,8.42706466 19.940556,9.39228017 18.6090474,9.39228017 C17.2775388,9.39228017 16.7766767,8.43913362 16.7766767,7.43710776 L16.7766767,6.69215086 Z M21.3824957,0.0581422414 C21.1993491,0.950038793 20.8080129,2.26947845 20.4299526,3.01473707 C19.8554698,2.84365948 19.2076681,2.74590086 18.5360302,2.74590086 C15.4086595,2.74590086 13.3804698,4.37068534 13.3804698,6.72865948 L13.3804698,7.70624569 C13.3804698,9.14788362 14.1377974,10.3086164 15.4330991,10.9923233 C14.6507284,11.5299957 13.9425819,12.348875 13.9425819,13.3382284 C13.9425819,14.1323664 14.443444,14.7795647 15.1153836,15.1585302 C14.1622371,15.6714612 13.1725819,16.5757284 13.1725819,17.8583578 C13.1725819,19.8503405 14.8589181,20.9736595 17.7295216,20.9736595 L19.8068922,20.9736595 C22.6654267,20.9736595 24.9865905,19.7519784 24.9865905,17.1619784 C24.9865905,14.4986595 23.0075819,13.1427112 20.5150388,13.1427112 L17.5098664,13.1427112 C17.0087026,13.1427112 16.6789181,12.923056 16.6789181,12.5196509 C16.6789181,12.2022371 16.9477543,11.8477112 17.2775388,11.5665043 C17.6685733,11.640125 18.0961164,11.6766336 18.5360302,11.6766336 C21.8836595,11.6766336 23.8382284,9.90521121 23.8382284,7.44947845 L23.8382284,6.97305603 C23.8382284,5.67775431 23.4103836,4.67603017 22.4207284,3.89426293 C23.1662888,3.18551293 23.9972371,2.03715086 24.4733578,0.925599138 L21.3824957,0.0581422414 Z" id="Fill-4"></path>
                </g>
            </g>
        </g>
    </g>
</svg>