<?xml version="1.0" encoding="utf-8"?>
<!-- Generator: Adobe Illustrator 25.1.0, SVG Export Plug-In . SVG Version: 6.00 Build 0)  -->
<svg version="1.1" id="Layer_1" xmlns="http://www.w3.org/2000/svg" xmlns:xlink="http://www.w3.org/1999/xlink" x="0px" y="0px"
	 viewBox="0 0 214 214" style="enable-background:new 0 0 214 214;" xml:space="preserve">
<style type="text/css">
	.st0{fill:#FFBC1D;}
	.st1{fill:#191863;}
</style>
<desc>Created with Sketch.</desc>
<g id="Layer_1-2">
	<g>
		<g>
			<path class="st0" d="M39,94.5l-5.7-4.3H14.5l-5.7,4.3v17.7l5.7,4.3h18.8l5.7-4.3L39,94.5L39,94.5z M30.6,109.4H17.2V97.7h13.4
				L30.6,109.4L30.6,109.4z"/>
			<polygon class="st0" points="52.5,116.6 68.5,116.6 68.5,109.4 55.2,109.4 55.2,97.7 68.5,97.7 68.5,90.3 55.2,90.3 55.2,84.2 
				50.2,84.2 46.3,90.3 41.8,90.3 41.8,97.7 46.8,97.7 46.8,112.3 			"/>
			<polygon class="st0" points="101.7,116.6 101.7,94.5 96,90.3 86.9,90.3 80.7,93.4 80.7,82.5 72.3,82.5 72.3,116.6 80.7,116.6 
				80.7,97.7 93.2,97.7 93.2,116.6 			"/>
		</g>
		<g>
			<g>
				<path class="st1" d="M177.5,99.6c-0.6-0.5-0.9-1.2-0.9-2v-0.7c0-0.8,0.3-1.5,1-2c0.7-0.5,1.5-0.8,2.6-0.8h3.6
					c0.6,0,1,0.1,1.2,0.2v-0.7c0-0.3-0.1-0.6-0.3-0.8c-0.2-0.2-0.5-0.3-0.9-0.3h-3.1c-0.4,0-0.7,0.1-0.9,0.3
					c-0.2,0.2-0.3,0.4-0.3,0.7h-2.6c0-1,0.3-1.7,1-2.3c0.7-0.6,1.6-0.9,2.8-0.9h3.1c1.2,0,2.1,0.3,2.8,0.9c0.7,0.6,1.1,1.4,1.1,2.4
					v6.6h-2.5v-1.2c-0.3,0.4-0.7,0.7-1.2,1c-0.5,0.2-2.3,0.4-2.7,0.4H180C179,100.4,178.2,100.1,177.5,99.6L177.5,99.6z M182.8,98.4
					c0.5,0,0.9-0.1,1.3-0.4c0.4-0.2,0.7-0.6,0.8-1v-0.8h-4.7c-0.3,0-0.6,0.1-0.8,0.2c-0.2,0.2-0.3,0.4-0.3,0.6v0.5
					c0,0.2,0.1,0.5,0.3,0.6c0.2,0.2,0.5,0.2,0.9,0.2L182.8,98.4L182.8,98.4z"/>
				<path class="st1" d="M118.1,99.9c-0.6-0.3-1.1-0.8-1.5-1.4c-0.3-0.6-0.5-1.3-0.5-2v-2.3c0-0.8,0.2-1.5,0.5-2.1
					c0.4-0.6,0.8-1.1,1.5-1.4c0.6-0.3,1.4-0.5,2.2-0.5h3.1c0.8,0,1.6,0.2,2.2,0.5c0.6,0.3,1.1,0.8,1.5,1.4c0.4,0.6,0.5,1.3,0.5,2.1
					v2.3c0,0.8-0.2,1.5-0.5,2c-0.4,0.6-0.8,1-1.5,1.4s-1.4,0.5-2.2,0.5h-3.1C119.5,100.4,118.7,100.2,118.1,99.9L118.1,99.9z
					 M123.4,98.1c0.5,0,0.9-0.2,1.2-0.5c0.3-0.3,0.4-0.8,0.4-1.3v-1.9c0-0.5-0.1-1-0.4-1.3c-0.3-0.3-0.7-0.5-1.1-0.5h-3.1
					c-0.5,0-0.9,0.2-1.1,0.5c-0.3,0.3-0.4,0.8-0.4,1.3v1.9c0,0.5,0.1,1,0.4,1.3c0.3,0.3,0.7,0.5,1.1,0.5H123.4L123.4,98.1z"/>
				<path class="st1" d="M129.5,90.4h2.5v1.3c0.2-0.4,0.6-0.7,1.1-0.9c0.5-0.2,1-0.4,1.5-0.4h2.7v2.3h-2.7c-0.7,0-1.3,0.2-1.7,0.6
					c-0.4,0.4-0.6,1-0.6,1.6v5.3h-2.7L129.5,90.4L129.5,90.4z"/>
				<path class="st1" d="M138.8,99.6c-0.6-0.5-0.9-1.2-0.9-2v-0.7c0-0.8,0.3-1.5,1-2c0.7-0.5,1.5-0.8,2.6-0.8h3.6
					c0.6,0,1,0.1,1.2,0.2v-0.7c0-0.3-0.1-0.6-0.3-0.8c-0.2-0.2-0.5-0.3-0.9-0.3h-3.1c-0.4,0-0.7,0.1-0.9,0.3
					c-0.2,0.2-0.3,0.4-0.3,0.7h-2.6c0-1,0.3-1.7,1-2.3c0.7-0.6,1.6-0.9,2.8-0.9h3.1c1.2,0,2.1,0.3,2.8,0.9c0.7,0.6,1.1,1.4,1.1,2.4
					v6.6h-2.5v-1.2c-0.3,0.4-0.7,0.7-1.2,1c-0.5,0.2-2.3,0.4-2.7,0.4h-1.2C140.2,100.4,139.4,100.1,138.8,99.6L138.8,99.6z
					 M144,98.4c0.5,0,0.9-0.1,1.3-0.4c0.4-0.2,0.7-0.6,0.8-1v-0.8h-4.7c-0.3,0-0.6,0.1-0.8,0.2c-0.2,0.2-0.3,0.4-0.3,0.6v0.5
					c0,0.2,0.1,0.5,0.3,0.6c0.2,0.2,0.5,0.2,0.9,0.2L144,98.4L144,98.4z"/>
				<path class="st1" d="M151.6,99.3c-0.7-0.7-1.1-1.6-1.1-2.8v-2.2c0-0.8,0.2-1.5,0.5-2.1c0.3-0.6,0.8-1.1,1.4-1.4
					c0.6-0.3,1.3-0.5,2.1-0.5h2.5c0.4,0,0.8,0.1,1.2,0.2c0.4,0.2,0.7,0.4,1,0.7v-4.7h2.7v13.7h-2.5v-1.3c-0.3,0.4-0.6,0.8-1.1,1
					c-0.4,0.3-2.3,0.4-2.8,0.4h-1.2C153.3,100.4,152.4,100,151.6,99.3L151.6,99.3z M157.3,98.1c0.5,0,1-0.2,1.3-0.6
					c0.4-0.4,0.6-0.9,0.6-1.5v-1.7c-0.1-0.5-0.3-0.9-0.6-1.2c-0.3-0.3-0.7-0.5-1.1-0.5H155c-0.5,0-0.9,0.2-1.3,0.5s-0.5,0.8-0.5,1.4
					v1.8c0,0.5,0.1,0.9,0.4,1.3c0.3,0.3,0.7,0.5,1.1,0.5L157.3,98.1L157.3,98.1z"/>
				<path class="st1" d="M165.8,99.9c-0.6-0.3-1.1-0.7-1.5-1.3c-0.4-0.6-0.5-1.2-0.5-1.9v-2.5c0-0.8,0.2-1.5,0.5-2
					c0.4-0.6,0.8-1,1.5-1.4c0.6-0.3,1.4-0.5,2.2-0.5h2.9c1.3,0,2.3,0.4,3,1.1s1.1,1.6,1.1,2.8v2.1h-8.6v0.5c0,0.4,0.1,0.8,0.4,1
					c0.3,0.3,0.6,0.4,1.1,0.4h2.9c0.5,0,0.8-0.1,1.1-0.3c0.3-0.2,0.4-0.5,0.4-0.8h2.6c0,0.7-0.2,1.2-0.5,1.7
					c-0.4,0.5-0.8,0.9-1.5,1.2s-1.4,0.4-2.2,0.4H168C167.2,100.4,166.5,100.2,165.8,99.9L165.8,99.9z M172.5,94.3v-0.2
					c0-0.5-0.1-0.9-0.4-1.2c-0.3-0.3-0.6-0.5-1.1-0.5h-3c-0.5,0-0.9,0.2-1.1,0.5c-0.3,0.3-0.4,0.8-0.4,1.3v0.1L172.5,94.3
					L172.5,94.3z"/>
			</g>
			<path class="st1" d="M118.6,115.8c-0.5-0.5-0.8-1.3-0.8-2.4V109h-1.7v-2.3h1.8v-3h2.6v3h3.9v2.3h-3.9v4.2c0,0.4,0.1,0.6,0.2,0.8
				c0.1,0.2,0.4,0.3,0.7,0.3h3.1v2.3h-3.3C120,116.6,119.2,116.3,118.6,115.8L118.6,115.8z"/>
			<path class="st1" d="M127.6,116.2c-0.6-0.3-1.1-0.7-1.5-1.3c-0.4-0.6-0.5-1.2-0.5-1.9v-2.5c0-0.8,0.2-1.5,0.5-2
				c0.4-0.6,0.8-1,1.5-1.4c0.6-0.3,1.4-0.5,2.2-0.5h2.9c1.3,0,2.3,0.4,3,1.1s1.1,1.6,1.1,2.8v2.1h-8.6v0.5c0,0.4,0.1,0.8,0.4,1
				s0.6,0.4,1.1,0.4h2.9c0.5,0,0.8-0.1,1.1-0.3c0.3-0.2,0.4-0.5,0.4-0.8h2.6c0,0.7-0.2,1.2-0.5,1.7s-0.8,0.9-1.5,1.2
				c-0.6,0.3-1.4,0.4-2.2,0.4h-2.9C129,116.7,128.3,116.6,127.6,116.2L127.6,116.2z M134.3,110.6v-0.2c0-0.5-0.1-0.9-0.4-1.2
				c-0.3-0.3-0.6-0.5-1.1-0.5h-3c-0.5,0-0.9,0.2-1.1,0.5c-0.3,0.3-0.4,0.8-0.4,1.3v0.1L134.3,110.6L134.3,110.6z"/>
			<path class="st1" d="M140.3,116.2c-0.6-0.3-1.1-0.8-1.5-1.4s-0.5-1.3-0.5-2v-2.3c0-0.8,0.2-1.5,0.5-2c0.3-0.6,0.8-1,1.5-1.4
				c0.6-0.3,1.4-0.5,2.2-0.5h2.9c0.8,0,1.5,0.2,2.1,0.5c0.6,0.3,1.1,0.8,1.4,1.3c0.3,0.6,0.5,1.2,0.5,2h-2.7c0-0.4-0.1-0.8-0.4-1.1
				c-0.2-0.3-0.6-0.4-1-0.4h-2.9c-0.5,0-0.8,0.2-1.1,0.5c-0.3,0.3-0.4,0.8-0.4,1.3v1.9c0,0.5,0.1,1,0.4,1.3c0.3,0.3,0.7,0.5,1.1,0.5
				h2.9c0.4,0,0.8-0.2,1-0.5c0.3-0.3,0.4-0.7,0.4-1.2h2.7c0,1.2-0.4,2.1-1.1,2.9s-1.7,1.1-2.9,1.1h-2.9
				C141.7,116.7,141,116.6,140.3,116.2L140.3,116.2z"/>
			<path class="st1" d="M151.1,102.8h2.7v4.9c0.3-0.3,0.6-0.6,1.1-0.8c0.4-0.2,0.8-0.3,1.2-0.3h2.6c1,0,1.9,0.3,2.5,1
				c0.6,0.7,1,1.5,1,2.6v6.4h-2.7v-6.3c0-0.4-0.1-0.7-0.3-1c-0.2-0.2-0.5-0.4-0.8-0.4h-2.6c-0.5,0-0.9,0.2-1.2,0.5
				c-0.4,0.3-0.6,0.8-0.7,1.3v5.8h-2.7V102.8L151.1,102.8z"/>
			<path class="st1" d="M170,102.8h2.7v4.9c0.3-0.3,0.6-0.6,1.1-0.8c0.4-0.2,0.8-0.3,1.2-0.3h2.6c1,0,1.9,0.3,2.5,1
				c0.6,0.7,1,1.5,1,2.6v6.4h-2.7v-6.3c0-0.4-0.1-0.7-0.3-1c-0.2-0.2-0.5-0.4-0.8-0.4h-2.6c-0.5,0-0.9,0.2-1.2,0.5s-0.6,0.8-0.7,1.3
				v5.8H170L170,102.8L170,102.8z"/>
			<path class="st1" d="M184,115.7c-0.6-0.7-0.9-1.6-0.9-2.8v-6.1h2.7v6.2c0,0.4,0.1,0.8,0.3,1c0.2,0.3,0.5,0.4,0.9,0.4h2.5
				c0.4,0,0.8-0.2,1.2-0.5c0.4-0.4,0.6-0.8,0.7-1.4v-5.7h2.7v9.8h-2.5v-1.3c-0.3,0.4-0.7,0.8-1.1,1c-0.4,0.3-0.9,0.4-1.3,0.4h-2.7
				C185.4,116.7,184.6,116.4,184,115.7L184,115.7z"/>
			<path class="st1" d="M199.8,116.3c-0.4-0.3-0.8-0.6-1-1v1.3h-2.5v-13.7h2.7v4.7c0.3-0.3,0.6-0.5,1-0.7c0.4-0.2,0.8-0.3,1.1-0.3
				h2.7c0.8,0,1.4,0.2,2,0.5c0.6,0.3,1,0.8,1.4,1.4c0.3,0.6,0.5,1.3,0.5,2v2.2c0,0.8-0.2,1.5-0.5,2.1s-0.8,1.1-1.4,1.4
				s-1.3,0.5-2,0.5H201C200.6,116.7,200.2,116.6,199.8,116.3L199.8,116.3z M203.4,114.4c0.5,0,0.8-0.2,1.1-0.5
				c0.3-0.3,0.4-0.8,0.4-1.3v-1.8c0-0.5-0.1-0.9-0.4-1.3c-0.3-0.3-0.6-0.5-1.1-0.5h-2.6c-0.5,0-1,0.2-1.3,0.5
				c-0.4,0.4-0.6,0.9-0.6,1.5v1.7c0.1,0.5,0.3,0.9,0.6,1.3c0.3,0.3,0.7,0.5,1.2,0.5L203.4,114.4L203.4,114.4z"/>
		</g>
	</g>
</g>
</svg>
