<?xml version="1.0" encoding="UTF-8"?>
<svg width="214px" height="214px" viewBox="0 0 214 214" version="1.1" xmlns="http://www.w3.org/2000/svg" xmlns:xlink="http://www.w3.org/1999/xlink">
    <!-- Generator: Sketch 57.1 (83088) - https://sketch.com -->
    <title>pionir_logo</title>
    <desc>Created with Sketch.</desc>
    <defs>
        <polygon id="path-1" points="0 0.655144832 8.5462224 0.655144832 8.5462224 22.7522936 0 22.7522936"></polygon>
    </defs>
    <g id="Exports" stroke="none" stroke-width="1" fill="none" fill-rule="evenodd">
        <g id="Homepage-New" transform="translate(-2259.000000, -5234.000000)">
            <g id="Group-20" transform="translate(2286.000000, 5330.000000)">
                <path d="M17.1920734,2.08873394 L27.0951927,2.08873394 L31.0687706,2.08286239 L23.3293211,10.0924037 L27.6566606,16.9995596 C27.6566606,16.9995596 17.9619817,16.981211 13.1142752,16.981211 C11.7351927,16.981211 10.9087706,15.9096514 11.2838165,14.5885505 L14.050789,4.49827523 C14.4170275,3.16616514 15.8210642,2.10561468 17.1920734,2.10561468 L17.1920734,2.08873394 Z" id="Fill-1" fill="#4427B7"></path>
                <g id="Group-5" transform="translate(0.000000, 0.656587)">
                    <mask id="mask-2" fill="white">
                        <use xlink:href="#path-1"></use>
                    </mask>
                    <g id="Clip-4"></g>
                    <path d="M7.01541284,0.698201835 L7.55266055,0.846458716 C8.31302752,1.05563303 8.72477064,1.96792661 8.47155963,2.88388991 L3.36330275,21.429945 C3.11155963,22.3459083 2.29100917,22.9183853 1.5306422,22.709211 L0.993394495,22.5616881 C0.233027523,22.3517798 -0.177981651,21.4394862 0.0737614679,20.522789 L5.18275229,1.97820183 C5.43522936,1.06223853 6.25504587,0.489027523 7.01541284,0.698201835" id="Fill-3" fill="#2C2354" mask="url(#mask-2)"></path>
                </g>
                <path d="M8.38150459,0.000146788991 L18.7007706,0.000146788991 C19.9646239,0.000146788991 20.7176514,0.988036697 20.3829725,2.20638532 L17.5044404,12.6753761 C17.1697615,13.8937248 15.8736147,14.8816147 14.6097615,14.8816147 L4.29049541,14.8816147 C3.0266422,14.8816147 2.27361468,13.8937248 2.60829358,12.6753761 L5.48682569,2.20638532 C5.82150459,0.988036697 7.11765138,0.000146788991 8.38150459,0.000146788991" id="Fill-6" fill="#6633CC"></path>
                <path d="M147.650422,5.52161468 L152.622165,5.52161468 C153.573358,5.52161468 154.486385,5.68308257 155.056661,6.02069725 C155.629138,6.36051376 155.941064,6.76565138 155.941064,7.73959633 C155.941064,8.71280734 155.629138,9.1186789 155.056661,9.45776147 C154.484917,9.79684404 153.571156,9.95684404 152.622165,9.95684404 L147.650422,9.95684404 L147.650422,5.52161468 Z M145.765651,1.88124771 C144.721248,1.88124771 143.891156,2.75244037 143.891156,3.77629358 L143.891156,17.5898716 C143.891156,18.6144587 144.741798,19.4651009 145.765651,19.4651009 C146.788771,19.4651009 147.650422,18.6247339 147.650422,17.5898716 L147.650422,13.6162936 L152.831339,13.6162936 C155.160881,13.6162936 156.929688,12.9469358 158.073174,11.8357431 C159.222532,10.7245505 159.718679,9.21409174 159.718679,7.75794495 C159.718679,6.28711927 159.222532,4.78326606 158.073174,3.68014679 C156.925284,2.56968807 155.182165,1.89959633 152.831339,1.89959633 L145.765651,1.88124771 Z" id="Fill-8" fill="#2C2354"></path>
                <path d="M39.0373578,1.88088073 C38.0590092,1.88088073 37.2604771,2.70069725 37.2604771,3.6680367 L37.2604771,17.4405138 C37.2604771,18.4078532 38.061211,19.2276697 39.0373578,19.2276697 C40.0149725,19.2276697 40.8450642,18.4350092 40.8450642,17.4405138 L40.8450642,5.31133945 L49.0006606,5.31133945 L49.0006606,17.4405138 C49.0006606,18.4188624 49.8124037,19.2276697 50.7878165,19.2276697 C51.7654312,19.2276697 52.5852477,18.4262018 52.5852477,17.4405138 L52.5852477,3.68858716 C52.5852477,2.72124771 51.8028624,1.88088073 50.808367,1.88088073 L39.0373578,1.88088073 Z" id="Fill-10" fill="#2C2354"></path>
                <path d="M124.660917,1.46444037 C123.681101,1.46444037 122.881835,2.26370642 122.881835,3.24352294 L122.881835,16.7187523 C122.881835,17.9378349 123.899817,18.9235229 125.108624,18.9235229 L125.37945,18.9235229 C126.113394,18.9235229 126.758532,18.5616881 127.168807,18.0178349 L127.179817,17.9855413 L134.583119,7.33379817 L134.583119,17.1870092 C134.583119,17.8101284 134.935413,18.2945321 135.413211,18.7473761 C135.551927,18.8758165 135.733945,18.9470092 135.923303,18.9455635 L136.349725,18.9455635 C137.313394,18.9455635 138.106789,18.1462752 138.106789,17.1870092 L138.106789,3.71251376 C138.106789,2.50370642 137.122569,1.48645872 135.902018,1.48645872 L135.610642,1.48645872 C134.902385,1.48645872 134.225688,1.85856881 133.778716,2.456 L133.767706,2.48829358 L126.418716,13.0864587 L126.418716,3.28682569 C126.418716,2.33343119 125.651743,1.50774312 124.671193,1.50774312 L124.660917,1.46444037 Z" id="Fill-12" fill="#2C2354"></path>
                <path d="M87.6812477,5.09695413 C89.3003303,5.09695413 90.5091376,5.66209174 91.3502385,6.58319266 C92.197211,7.51016514 92.6816147,8.83053211 92.6816147,10.4121835 C92.6816147,11.9938349 92.1957431,13.325211 91.3502385,14.2521835 C90.504,15.179156 89.3003303,15.738422 87.6812477,15.738422 C86.0621651,15.738422 84.8577615,15.179156 84.0115229,14.2521835 C83.1645505,13.325211 82.6691376,11.9938349 82.6691376,10.4121835 C82.6691376,8.83053211 83.1638165,7.51016514 84.0115229,6.58319266 C84.8577615,5.65622018 86.0621651,5.09695413 87.6812477,5.09695413 L87.6812477,5.09695413 Z M87.6702385,1.46466055 C82.530422,1.42722936 78.9355596,5.34209174 78.9355596,10.4121835 L78.9355596,10.4334679 C78.9847339,15.498422 82.5627156,19.4345688 87.7238165,19.3809908 C92.8526239,19.4433761 96.4049174,15.472 96.4584954,10.4334679 L96.4584954,10.4121835 C96.4093211,5.37365138 92.8364771,1.41181651 87.7238165,1.46466055 L87.6702385,1.46466055 Z" id="Fill-14" fill="#2C2354"></path>
                <path d="M103.324183,1.88088073 C102.281248,1.88088073 101.464367,2.76308257 101.464367,3.77225688 L101.464367,17.6695046 C101.464367,18.6801468 102.304,19.5395963 103.324183,19.5395963 C104.345835,19.5395963 105.214826,18.7095046 105.214826,17.6695046 L105.214826,12.530422 L113.016661,12.530422 L113.016661,17.6695046 C113.016661,18.6801468 113.857761,19.5395963 114.876477,19.5395963 C115.898128,19.5395963 116.767853,18.7095046 116.767853,17.6695046 L116.767853,3.77225688 C116.767853,2.7293211 115.918679,1.88088073 114.876477,1.88088073 C113.834275,1.88088073 113.016661,2.76308257 113.016661,3.77225688 L113.016661,8.9106055 L105.214826,8.9106055 L105.214826,3.77225688 C105.214826,2.7293211 104.366385,1.88088073 103.324183,1.88088073" id="Fill-16" fill="#2C2354"></path>
                <path d="M60.4661284,1.88088073 C59.392367,1.84638532 58.5497982,2.90033028 58.6892477,3.93592661 C58.6914495,8.36748624 58.684844,12.7990459 58.6921835,17.2306055 C58.7274128,18.4834495 59.9611743,19.4566606 61.1890642,19.3113394 C62.0837431,19.3377615 62.832367,18.7366606 63.2507156,17.9946422 C65.6220917,14.5612477 67.9942018,11.1491376 70.365578,7.71647706 C70.3685138,11.024367 70.3597064,14.3535413 70.3699817,17.6606972 C70.4353028,18.3183119 70.8837431,18.9348257 71.4474128,19.2584954 C72.3296147,19.4522569 73.3989725,19.1366606 73.7571376,18.2273028 C74.0022752,17.4742752 73.8569541,16.6647339 73.8965872,15.8764771 C73.8885138,11.8816147 73.9112661,7.86620183 73.884844,3.87133945 C73.792367,2.65886239 72.5975046,1.72895413 71.4092477,1.8706055 C70.4712661,1.85005505 69.7241101,2.52161468 69.2874128,3.28711927 C66.9358532,6.6786789 64.5850275,10.0695046 62.2342018,13.4610642 C62.2290642,10.1318899 62.245945,6.80344954 62.2253945,3.47427523 C62.1497982,2.60234862 61.3725505,1.85812844 60.4881468,1.87427523 L60.4661284,1.88088073 Z" id="Fill-18" fill="#2C2354"></path>
            </g>
        </g>
    </g>
</svg>