<?xml version="1.0" encoding="UTF-8"?>
<svg width="214px" height="214px" viewBox="0 0 214 214" version="1.1" xmlns="http://www.w3.org/2000/svg" xmlns:xlink="http://www.w3.org/1999/xlink">
    <!-- Generator: Sketch 54.1 (76490) - https://sketchapp.com -->
    <title>tbt_logo</title>
    <desc>Created with Sketch.</desc>
    <defs>
        <polygon id="path-1" points="0 0.286511628 19.6580775 0.286511628 19.6580775 21.3231008 0 21.3231008"></polygon>
    </defs>
    <g id="Exports" stroke="none" stroke-width="1" fill="none" fill-rule="evenodd">
        <g id="Homepage-New" transform="translate(-1249.000000, -5493.000000)">
            <g id="Group-42" transform="translate(1276.000000, 5569.000000)">
                <path d="M44.4374574,23.3489302 C44.1844341,24.2924961 43.2138915,24.8537364 42.2700155,24.6007132 L23.8293953,19.6593178 C22.8852093,19.4059845 22.3248992,18.4357519 22.5776124,17.491876 L26.9128062,1.31234109 C27.1658295,0.368155039 28.1366822,-0.192155039 29.0808682,0.0608682171 L47.5214884,5.00226357 C48.4653643,5.25497674 49.0256744,6.2252093 48.7729612,7.16939535 L44.4374574,23.3489302 Z" id="Fill-1" fill="#41B6BC"></path>
                <path d="M28.939938,17.2939225 C29.4233488,16.7612093 31.8946667,13.6672558 32.2115659,13.3816744 L38.7783876,14.8102016 C38.9067597,15.1531473 39.8983876,19.3754729 40.0887752,20.159969 L41.952031,19.5590388 C41.1827287,17.347876 38.9300155,8.03996899 37.9703256,5.04462016 L37.9328062,5.03500775 C37.2990078,5.60617054 29.1517209,14.4855504 27.6562171,15.9556279 L28.939938,17.2939225 Z M33.168155,12.3522171 C33.4143566,12.1066357 36.7557519,8.2315969 37.1433488,7.90663566 C37.2531163,8.24431008 38.4273798,13.0557829 38.5266047,13.5072558 L33.168155,12.3522171 Z" id="Fill-3" fill="#FEFEFE"></path>
                <path d="M95.9855814,18.4288682 C96.2386047,19.3724341 95.6786047,20.3432868 94.7341085,20.5963101 L76.2937984,25.5377054 C75.3502326,25.7901085 74.3790698,25.2304186 74.1260465,24.2859225 L69.7911628,8.1063876 C69.5375194,7.16220155 70.0984496,6.19165891 71.0423256,5.93925581 L89.4829457,0.997860465 C90.4271318,0.744837209 91.3973643,1.30452713 91.6503876,2.24933333 L95.9855814,18.4288682 Z" id="Fill-5" fill="#E51355"></path>
                <path d="M79.7425426,21.0823876 C79.8963411,20.3847132 80.4966512,16.4957209 80.6290543,16.0938605 L87.0603721,14.1586667 C87.3437829,14.3949457 90.3226977,17.5893643 90.8817674,18.180062 L92.2020775,16.7549457 C90.4244031,15.2030078 83.7992868,8.19277519 81.4628527,6.05044961 L81.4256434,6.06037209 C81.1602171,6.86409302 78.5195969,18.5357209 77.9546357,20.5391318 L79.7425426,21.0823876 Z M80.9459535,14.7351008 C81.0371163,14.4020775 82.0033178,9.41231008 82.1775814,8.9416124 C82.4420775,9.18254264 85.8752558,12.8014574 86.188124,13.1462636 L80.9459535,14.7351008 Z" id="Fill-7" fill="#FEFEFE"></path>
                <path d="M127.912062,49.2393488 C128.165705,50.1835349 127.605085,51.1540775 126.661209,51.4071008 L108.220279,56.347876 C107.275783,56.6008992 106.30524,56.0405891 106.052837,55.0970233 L101.717333,38.9174884 C101.46462,37.9723721 102.02493,37.0024496 102.969426,36.7494264 L121.409116,31.8086512 C122.352992,31.555938 123.323535,32.1153178 123.577488,33.059814 L127.912062,49.2393488 Z" id="Fill-9" fill="#F5940F"></path>
                <path d="M111.669023,51.8931783 C111.822512,51.1955039 112.422822,47.3065116 112.555225,46.9046512 L118.986543,44.9691473 C119.270264,45.2054264 122.249178,48.400155 122.807938,48.9908527 L124.128558,47.5657364 C122.350574,46.0137984 115.725767,39.0035659 113.389333,36.8612403 L113.351814,36.8711628 C113.086388,37.6748837 110.445767,49.3465116 109.881116,51.3499225 L111.669023,51.8931783 Z M112.872434,45.5458915 C112.963287,45.2128682 113.929488,40.2231008 114.104062,39.7524031 C114.368558,39.9933333 117.801736,43.6122481 118.114295,43.9570543 L112.872434,45.5458915 Z" id="Fill-11" fill="#FEFEFE"></path>
                <path d="M132.137178,17.5458605 L129.725085,16.899969 L132.137178,17.5458605 Z" id="Fill-13" fill="#E51355"></path>
                <path d="M140.502016,25.2217984 C140.249612,26.1662946 139.27907,26.7259845 138.333953,26.4735814 L119.893643,21.532186 C118.949767,21.2791628 118.389457,20.3083101 118.642171,19.3647442 L122.977364,3.1852093 C123.230698,2.24102326 124.20093,1.68071318 125.145736,1.93373643 L143.585426,6.87513178 C144.529302,7.12753488 145.090233,8.09807752 144.836899,9.04226357 L140.502016,25.2217984 Z" id="Fill-15" fill="#BED700"></path>
                <path d="M125.004496,19.1668217 C125.487907,18.6341085 127.958915,15.540155 128.276124,15.2545736 L134.842946,16.6834109 C134.971628,17.0260465 135.962946,21.2486822 136.153333,22.0328682 L138.016589,21.431938 C137.247287,19.2207752 134.994574,9.91286822 134.034884,6.91751938 L133.997364,6.90790698 C133.363876,7.47906977 125.216589,16.3584496 123.720775,17.8288372 L125.004496,19.1668217 Z M129.232713,14.2251163 C129.478915,13.9795349 132.82031,10.1044961 133.207907,9.77953488 C133.317674,10.1172093 134.491938,14.9286822 134.591163,15.380155 L129.232713,14.2251163 Z" id="Fill-17" fill="#FEFEFE"></path>
                <g id="Group-21" transform="translate(0.000000, 0.284651)">
                    <mask id="mask-2" fill="white">
                        <use xlink:href="#path-1"></use>
                    </mask>
                    <g id="Clip-20"></g>
                    <path d="M11.5371473,21.3231008 C11.4773023,20.7237209 11.1774574,13.5916279 11.1774574,7.50852713 L11.1774574,2.56403101 C13.6946667,2.56403101 19.2385426,2.71379845 19.6580775,2.83379845 L19.6580775,0.286511628 C18.3393178,0.526511628 11.8069147,0.64620155 11.2373023,0.64620155 L8.63017054,0.64620155 C8.30055814,0.64620155 1.19854264,0.526511628 -0.000217054264,0.286511628 L-0.000217054264,2.83379845 C0.779007752,2.71379845 5.03451163,2.56403101 8.48071318,2.56403101 L8.48071318,7.02914729 C8.48071318,11.7937984 8.45063566,20.543876 8.30055814,21.3231008 L11.5371473,21.3231008 Z" id="Fill-19" fill="#151616" mask="url(#mask-2)"></path>
                </g>
                <path d="M53.9985426,12.3806822 C53.9985426,12.9025426 53.9985426,21.1983566 53.8611783,22.7090543 L54.0810233,22.7090543 C60.6735814,22.6814574 64.8214884,19.5226977 64.8214884,16.2538605 C64.8214884,13.7816124 62.404124,12.2709147 60.5086202,11.9685891 L60.5086202,11.9137054 C63.4205581,10.5676589 63.9697054,8.67215504 63.9697054,7.62843411 C63.9697054,6.09013953 63.2007132,3.94750388 57.651876,3.48052713 C56.5805581,3.34316279 55.3169922,3.31587597 53.8611783,3.31587597 C53.9436589,3.89262016 53.9985426,8.50750388 53.9985426,9.33168992 L53.9985426,12.3806822 Z M56.3610233,13.3146357 C59.8217984,13.1496744 62.0745116,14.4957209 62.0745116,16.4185116 C62.0745116,19.0008372 59.3548217,20.4290543 56.3610233,20.7313798 L56.3610233,13.3146357 Z M56.3610233,5.07370543 C58.2562171,5.12858915 61.3876899,5.51339535 61.3876899,7.98564341 C61.3876899,9.82595349 59.3824186,11.6662636 56.3610233,11.7487442 L56.3610233,5.07370543 Z" id="Fill-22" fill="#151616"></path>
                <path d="M103.761457,5.15624806 C108.953085,5.21113178 109.859752,7.05144186 109.859752,8.28772093 C109.859752,10.979814 107.113085,12.6554729 105.739442,13.3971783 C106.563318,14.5506667 112.744093,22.6542326 113.046109,23.0387287 L115.13386,21.3630698 C114.364558,20.5388837 109.420372,14.4133023 108.73355,13.4793488 C110.985953,12.0508217 112.551845,10.2381085 112.551845,7.90322481 C112.551845,5.56834109 110.49138,4.03004651 106.865643,3.59035659 C104.750295,3.34322481 102.443008,3.31562791 101.151845,3.31562791 C101.234636,3.83779845 101.289209,9.52368992 101.289209,10.347876 L101.289209,12.6002791 C101.289209,13.1773333 101.344403,21.8849302 101.234636,22.544155 L103.898822,22.544155 C103.843938,22.1323721 103.761457,15.1822946 103.761457,14.1385736 L103.761457,5.15624806 Z" id="Fill-24" fill="#151616"></path>
                <path d="M40.4111628,52.3546357 C40.3513178,51.7552558 40.0514729,44.6231628 40.0514729,38.540062 L40.0514729,33.5955659 C42.5686822,33.5955659 48.1125581,33.7456434 48.532093,33.8653333 L48.532093,31.3183566 C47.2133333,31.5580465 40.6809302,31.6777364 40.1113178,31.6777364 L37.504186,31.6777364 C37.1745736,31.6777364 30.0725581,31.5580465 28.8741085,31.3183566 L28.8741085,33.8653333 C29.6533333,33.7456434 33.9085271,33.5955659 37.3547287,33.5955659 L37.3547287,38.0606822 C37.3547287,42.8253333 37.3246512,51.5754109 37.1745736,52.3546357 L40.4111628,52.3546357 Z" id="Fill-26" fill="#151616"></path>
                <path d="M61.6585736,51.0474109 C59.4061705,51.2123721 55.7252403,51.1298915 55.0660155,51.1298915 L55.0660155,44.4272558 C55.6151628,44.4272558 59.9004341,44.5370233 60.5047752,44.5370233 L60.4226047,42.3671008 C59.0765581,42.532062 55.5602791,42.6694264 55.0660155,42.6694264 L55.0660155,35.692062 C55.5053953,35.692062 60.4498915,35.5546977 61.3289612,35.5546977 L61.2191938,33.3847752 C60.340124,33.4945426 53.1705116,33.9066357 52.5112868,33.9066357 C52.5388837,34.4284961 52.5937674,41.0486512 52.5937674,41.488031 L52.5937674,45.1689612 C52.5937674,45.8008992 52.5937674,51.6793488 52.5112868,53.1351628 C53.0607442,53.1351628 61.3289612,53.4098915 61.7683411,53.4098915 L61.6585736,51.0474109 Z" id="Fill-28" fill="#151616"></path>
                <path d="M69.027907,53.1613333 C74.3020155,51.9253643 77.1590698,48.9861395 77.1590698,46.2940465 C77.1590698,44.0689302 75.4831008,43.1901705 73.3953488,41.9538915 C72.2418605,41.2670698 70.2914729,40.3883101 70.2914729,38.9597829 C70.2914729,36.652186 74.3568992,35.3337364 76.0325581,35.0593178 L75.4555039,32.943969 C71.6924031,33.7954419 67.6269767,36.5148217 67.6269767,39.4267597 C67.6269767,41.3771473 69.2474419,42.5306357 71.5826357,43.7945116 C73.5603101,44.8658295 74.4393798,45.579938 74.4393798,46.9532713 C74.4393798,49.1783876 71.0055814,50.5517209 68.3134884,51.1011783 L69.027907,53.1613333 Z" id="Fill-30" fill="#151616"></path>
                <path d="M90.3378915,53.1351318 C90.2826977,52.5859845 90.0082791,46.048 90.0082791,40.471876 L90.0082791,35.9391628 C92.3155659,35.9391628 97.3974264,36.0765271 97.7822326,36.1866047 L97.7822326,33.8517209 C96.5732403,34.0715659 90.5850233,34.1813333 90.0628527,34.1813333 L87.6730853,34.1813333 C87.3713798,34.1813333 80.8609922,34.0715659 79.7623876,33.8517209 L79.7623876,36.1866047 C80.476186,36.0765271 84.3769612,35.9391628 87.536031,35.9391628 L87.536031,40.032186 C87.536031,44.399938 87.5084341,52.4207132 87.3713798,53.1351318 L90.3378915,53.1351318 Z" id="Fill-32" fill="#151616"></path>
                <path d="M134.196279,35.9031318 C139.387907,35.9580155 140.294574,37.7986357 140.294574,39.0346047 C140.294574,41.7266977 137.547597,43.4023566 136.174264,44.1437519 C136.99814,45.2975504 143.178915,53.4011163 143.48093,53.7856124 L145.568682,52.1099535 C144.79938,51.2857674 139.854884,45.160186 139.168372,44.2262326 C141.420775,42.7977054 142.986667,40.9849922 142.986667,38.6501085 C142.986667,36.3152248 140.926202,34.7769302 137.300465,34.3372403 C135.185116,34.0901085 132.877829,34.0625116 131.586667,34.0625116 C131.669147,34.5846822 131.724031,40.2705736 131.724031,41.0947597 L131.724031,43.3471628 C131.724031,43.9242171 131.778915,52.631814 131.669147,53.2910388 L134.333643,53.2910388 C134.27876,52.8792558 134.196279,45.9294884 134.196279,44.8854574 L134.196279,35.9031318 Z" id="Fill-34" fill="#151616"></path>
                <path d="M159.830357,51.2035039 C157.577643,51.368155 153.896713,51.2859845 153.237488,51.2859845 L153.237488,44.5833488 C153.786946,44.5833488 158.072217,44.6931163 158.676558,44.6931163 L158.594078,42.5231938 C157.248031,42.687845 153.732062,42.8252093 153.237488,42.8252093 L153.237488,35.848155 C153.676868,35.848155 158.621674,35.7107907 159.500744,35.7107907 L159.390667,33.5408682 C158.511597,33.6506357 151.342295,34.0627287 150.68276,34.0627287 C150.710357,34.5845891 150.76555,41.2047442 150.76555,41.644124 L150.76555,45.3250543 C150.76555,45.9569922 150.76555,51.8351318 150.68276,53.2909457 C151.232217,53.2909457 159.500744,53.5656744 159.940124,53.5656744 L159.830357,51.2035039 Z" id="Fill-36" fill="#151616"></path>
                <path d="M6.42663566,47.2254884 C6.42663566,47.6636279 6.39407752,51.6893643 6.32927132,52.4357209 C10.0300465,52.4357209 16.4253953,50.3420775 16.4253953,45.3101395 C16.4253953,44.1737054 15.776093,41.8202171 10.4846202,41.1547907 C9.07252713,40.976186 7.27066667,40.9923101 6.34539535,40.9923101 C6.41051163,41.4468837 6.42663566,44.872 6.42663566,45.2127752 L6.42663566,47.2254884 Z M7.88741085,42.2096744 C12.0914419,42.1609922 14.8346977,43.2648682 14.8346977,45.732155 C14.8346977,48.0044031 12.3187287,50.6177364 7.88741085,51.0075039 L7.88741085,42.2096744 Z" id="Fill-38" fill="#151616"></path>
                <path d="M25.9858915,51.1209922 C24.6550388,51.2183566 22.479845,51.1696744 22.0903876,51.1696744 L22.0903876,47.2090543 C22.4147287,47.2090543 24.9471318,47.2741705 25.3043411,47.2741705 L25.2556589,45.9916899 C24.4603101,46.0890543 22.3824806,46.1702946 22.0903876,46.1702946 L22.0903876,42.0475039 C22.3499225,42.0475039 25.2717829,41.9662636 25.7911628,41.9662636 L25.7263566,40.684093 C25.2066667,40.7488992 20.9703876,40.9923101 20.5806202,40.9923101 C20.5970543,41.3008372 20.6296124,45.2127752 20.6296124,45.4723101 L20.6296124,47.6475039 C20.6296124,48.0208372 20.6296124,51.4943256 20.5806202,52.3547907 C20.9052713,52.3547907 25.7911628,52.5169612 26.0506977,52.5169612 L25.9858915,51.1209922 Z" id="Fill-40" fill="#151616"></path>
            </g>
        </g>
    </g>
</svg>