<?xml version="1.0" encoding="UTF-8"?>
<svg width="214px" height="214px" viewBox="0 0 214 214" version="1.1" xmlns="http://www.w3.org/2000/svg" xmlns:xlink="http://www.w3.org/1999/xlink">
    <!-- Generator: Sketch 55.2 (78181) - https://sketchapp.com -->
    <title>tech hub_logo</title>
    <desc>Created with Sketch.</desc>
    <defs>
        <polygon id="path-1" points="0 0.0161413715 149.990318 0.0161413715 149.990318 75.5163511 0 75.5163511"></polygon>
    </defs>
    <g id="Exports" stroke="none" stroke-width="1" fill="none" fill-rule="evenodd">
        <g id="Homepage-New" transform="translate(-1508.000000, -4966.000000)">
            <g id="Group-22" transform="translate(1540.000000, 5035.000000)">
                <path d="M71.5545826,58.0360585 L78.1776893,64.9298623 C78.5289372,65.2667814 78.7887909,65.5630379 79.1364243,65.9252582 C79.4437823,66.2656627 79.7914157,66.5619191 80.0951592,66.9023236 L82.0125,68.8709122 C82.319858,69.1892427 82.6236015,69.5770224 82.9309596,69.8697935 L85.8071644,72.8155766 C86.1107788,73.1557229 86.4584122,73.4741824 86.7657702,73.7706971 L88.0721386,71.9775387 C88.5075516,71.3883821 88.9430938,70.8212995 89.3785069,70.188253 C89.8175344,69.5770224 90.2529475,69.0100688 90.6883606,68.3731497 L101.497526,53.3669535 C101.62571,53.1619621 101.62571,53.0961274 101.976958,53.048494 C102.412371,52.9608434 102.891803,52.8912651 103.327216,52.8218158 L135.667061,47.5196644 C139.457982,46.9085628 141.7267,46.8609294 144.383197,43.7322289 C145.341932,42.645568 146.084832,41.4453098 146.69219,39.7878227 C147.347182,37.9288296 147.391071,36.3663511 147.522741,34.3026248 C147.738705,30.3800344 147.958154,26.4391136 148.174118,22.5163941 C148.305917,20.544191 148.393696,18.5718589 148.525366,16.5995267 C148.653421,14.5358003 148.829238,12.8123494 148.305917,10.8179432 C147.47898,7.85047332 145.038188,5.0841222 141.247268,5.3767642 C137.452861,5.69522375 133.661812,6.14883821 129.870891,6.53313253 L21.778722,17.4374355 C19.6454174,17.6422978 18.4671041,17.7777108 16.637543,18.5718589 C13.8931368,19.772117 11.668438,22.1322289 10.4059596,24.8509466 C8.79223322,28.2503442 9.40333477,32.0376506 9.61929862,35.9821859 L10.6219234,53.8208262 C10.7097031,55.7016351 10.7097031,57.7213425 11.2328959,59.441179 C12.2356497,62.4819707 14.5006239,64.7251291 17.5084983,65.6983219 C19.4258391,66.3095525 21.0395654,66.2876076 23.044815,65.9728916 C32.0244191,64.5420826 41.0004088,63.0016781 49.9800129,61.5524096 C53.5549699,60.9854561 57.1703313,60.3961704 60.7452883,59.8072719 L68.8064329,58.4679862 C69.6371127,58.3325731 70.7275172,58.0836919 71.5545826,58.0360585" id="Fill-1" fill="#3D3C3C"></path>
                <path d="M71.5545826,58.0360585 L78.1776893,64.9298623 C78.5289372,65.2667814 78.7887909,65.5630379 79.1364243,65.9252582 C79.4437823,66.2656627 79.7914157,66.5619191 80.0951592,66.9023236 L82.0125,68.8709122 C82.319858,69.1892427 82.6236015,69.5770224 82.9309596,69.8697935 L85.8071644,72.8155766 C86.1107788,73.1557229 86.4584122,73.4741824 86.7657702,73.7706971 L88.0721386,71.9775387 C88.5075516,71.3883821 88.9430938,70.8212995 89.3785069,70.188253 C89.8175344,69.5770224 90.2529475,69.0100688 90.6883606,68.3731497 L101.497526,53.3669535 C101.62571,53.1619621 101.62571,53.0961274 101.976958,53.048494 C102.412371,52.9608434 102.891803,52.8912651 103.327216,52.8218158 L135.667061,47.5196644 C139.457982,46.9085628 141.7267,46.8609294 144.383197,43.7322289 C145.341932,42.645568 146.084832,41.4453098 146.69219,39.7878227 C147.347182,37.9288296 147.391071,36.3663511 147.522741,34.3026248 C147.738705,30.3800344 147.958154,26.4391136 148.174118,22.5163941 C148.305917,20.544191 148.393696,18.5718589 148.525366,16.5995267 C148.653421,14.5358003 148.829238,12.8123494 148.305917,10.8179432 C147.47898,7.85047332 145.038188,5.0841222 141.247268,5.3767642 C137.452861,5.69522375 133.661812,6.14883821 129.870891,6.53313253 L21.778722,17.4374355 C19.6454174,17.6422978 18.4671041,17.7777108 16.637543,18.5718589 C13.8931368,19.772117 11.668438,22.1322289 10.4059596,24.8509466 C8.79223322,28.2503442 9.40333477,32.0376506 9.61929862,35.9821859 L10.6219234,53.8208262 C10.7097031,55.7016351 10.7097031,57.7213425 11.2328959,59.441179 C12.2356497,62.4819707 14.5006239,64.7251291 17.5084983,65.6983219 C19.4258391,66.3095525 21.0395654,66.2876076 23.044815,65.9728916 C32.0244191,64.5420826 41.0004088,63.0016781 49.9800129,61.5524096 C53.5549699,60.9854561 57.1703313,60.3961704 60.7452883,59.8072719 L68.8064329,58.4679862 C69.6371127,58.3325731 70.7275172,58.0836919 71.5545826,58.0360585 Z" id="Stroke-3" stroke="#3D3C3C"></path>
                <g id="Group-7" transform="translate(0.000000, 0.112952)">
                    <mask id="mask-2" fill="white">
                        <use xlink:href="#path-1"></use>
                    </mask>
                    <g id="Clip-6"></g>
                    <path d="M93.216932,67.0381627 C96.0052281,63.2509854 98.8374139,59.1270181 101.62571,55.3617857 C101.75738,55.1605379 101.845288,55.0213812 102.020848,54.8202625 C102.672225,53.9125172 102.324591,54.2309768 103.894428,53.9786102 L133.574032,49.1045138 C135.05596,48.8556325 138.587156,48.3579991 139.80923,48.0652281 C140.80824,47.8128614 141.594901,47.4725861 142.421966,47.022457 C143.947784,46.1589888 145.169987,44.9366566 146.172483,43.5315361 C148.046063,41.0140663 148.613275,38.3832573 148.785219,35.2105379 C149.048688,30.6329561 149.308412,26.0516308 149.57188,21.495994 C149.700065,19.1833864 149.831734,16.8707788 149.963533,14.5581713 C150.095202,12.315142 149.743825,10.1854518 148.872999,8.44005594 C148.046063,6.82994406 146.82386,5.56023666 145.298042,4.74427281 C144.427087,4.29052926 143.512371,4.11122633 142.553636,3.83678571 L131.04559,0.730159208 C127.865641,-0.151768503 128.04133,-0.0858046472 124.682207,0.232525818 C88.0721386,3.70137263 51.4180508,7.03493546 14.8079819,10.456278 C12.6710628,10.6391954 10.4059596,10.726975 8.48861876,11.4076549 C5.04520224,12.6773623 2.34120052,15.3083003 0.990942341,18.5028356 C0.163876936,20.4969836 -0.099591222,22.3339028 0.032207401,24.7160886 L1.29468589,45.299006 C1.42635542,47.4286962 1.42635542,49.8985327 2.08134682,51.8050301 C2.64481497,53.415142 3.69145869,55.1605379 4.95742255,56.1995654 C5.5685241,56.7449613 6.13199225,57.5388511 6.7430938,58.084247 C7.3980852,58.6950904 7.92140706,59.2843761 8.52876506,59.943111 C8.70445353,60.100469 8.83625215,60.213679 9.01181153,60.3967255 C9.18375645,60.5540835 9.27166523,60.6893675 9.44722461,60.8467255 L12.1038511,63.6130766 C14.8518718,66.5149699 18.4232143,67.9200904 22.6971816,67.265099 C26.8796256,66.6281799 31.0620697,65.8819234 35.2042384,65.2230594 C45.6218804,63.5691867 56.0797978,61.7762866 66.4975688,60.100469 C66.761037,60.056321 67.0207616,60.0089458 67.2842298,59.9650559 C68.3271299,59.7381196 83.6262263,73.5880766 87.1134036,75.5163898 L93.216932,67.0381627 Z M71.5545826,57.9231454 C70.7275172,57.9707788 69.6371127,58.2196601 68.8064329,58.3549441 L60.7452883,59.6942298 C57.1703313,60.2832573 53.5549699,60.8724139 49.9800129,61.4394966 C41.0004088,62.888636 32.0244191,64.4291695 23.044815,65.8599785 C21.0395654,66.1746945 19.4258391,66.1965103 17.5084983,65.5854088 C14.5006239,64.612216 12.2356497,62.3690577 11.2328959,59.3281368 C10.7097031,57.6084294 10.7097031,55.588722 10.6219234,53.707784 L9.61916954,35.8692728 C9.40333477,31.9246084 8.79223322,28.1374312 10.4059596,24.7380336 C11.668438,22.0191867 13.8931368,19.6590749 16.637543,18.4588167 C18.4671041,17.6647978 19.6454174,17.5293847 21.778722,17.3245224 L129.870891,6.42021945 C133.661812,6.03592513 137.452861,5.58218158 141.247268,5.26385112 C145.038188,4.97120912 147.47898,7.73743115 148.305917,10.7050301 C148.829238,12.6993072 148.653421,14.4227582 148.525366,16.4866136 C148.393696,18.4588167 148.305917,20.4311489 148.174118,22.4034811 C147.958154,26.3260714 147.738705,30.2669923 147.522741,34.1897117 C147.391071,36.253438 147.347182,37.8159165 146.69219,39.6747806 C146.084832,41.3322676 145.341932,42.5326549 144.383197,43.6193158 C141.7267,46.7478873 139.457982,46.7956497 135.667061,47.4067513 L103.327216,52.7089028 C102.891803,52.7782229 102.412371,52.8478012 101.976958,52.9355809 C101.62571,52.9832143 101.62571,53.0490491 101.497526,53.2540404 L90.6883606,68.2602367 C90.2529475,68.8970267 89.8175344,69.4641093 89.3785069,70.0752108 C88.9430938,70.7083864 88.5075516,71.2753399 88.0721386,71.8646256 L86.7657702,73.6576549 C86.4584122,73.3611403 86.1107788,73.0428098 85.8071644,72.7026635 L82.9309596,69.7568804 C82.6236015,69.4641093 82.319858,69.0763296 82.0125,68.7578701 L80.0951592,66.7892814 C79.7914157,66.449006 79.4437823,66.1527496 79.1364243,65.8123451 C78.7886618,65.4499957 78.5289372,65.1537392 78.1776893,64.8169492 L71.5545826,57.9231454 Z" id="Fill-5" fill="#F6B12F" mask="url(#mask-2)"></path>
                </g>
                <path d="M132.443352,28.6601979 C132.571407,26.7537005 132.048214,24.4887263 129.827001,25.1692771 C129.04034,25.4181583 128.476872,26.0512048 128.125495,26.6878657 C127.082724,28.5686747 127.038705,33.7830465 130.174634,32.8316695 C131.876269,32.3083477 132.355443,30.2446213 132.443352,28.6601979" id="Fill-8" fill="#3D3C3C"></path>
                <path d="M121.714583,16.2738253 C121.582784,16.5885413 121.539023,19.2194793 121.539023,19.7647461 L123.807741,19.4683606 L123.2404,33.9769234 L119.797113,34.5221902 L120.188765,23.0506756 L114.001071,23.9105293 L113.869402,27.4014501 L115.874651,27.108679 C115.918541,28.0161661 115.830633,29.0810112 115.786743,29.9884983 L115.698834,33.5451248 C115.655073,34.0427582 115.175641,34.3612177 114.608429,34.7014931 C114.173016,34.9978787 113.130116,35.5870353 112.431235,35.1991265 C111.820262,34.8588511 111.995822,33.5012349 111.995822,32.7512349 C112.039712,31.7997289 112.039712,30.848352 112.083731,29.896975 C112.127491,27.9906067 112.255676,26.0657788 112.255676,24.1594105 L105.980073,25.0449527 L105.892423,28.5576893 L107.897543,28.2650473 C107.897543,30.0104432 107.809763,31.7558391 107.765744,33.5012349 C107.725598,35.1332917 107.50602,36.9006325 108.289066,38.1703399 C109.686829,40.4354432 112.954557,39.3924139 114.784118,37.9654776 L115.526889,37.376321 L115.526889,38.5765792 L127.11923,36.6957702 L127.207009,35.0637134 C128.033946,35.6309251 128.688937,36.5384122 130.518627,36.3553657 C131.217509,36.2675861 131.780977,36.0846687 132.304299,35.8138425 C134.832741,34.56608 136.142724,31.5509768 136.402577,28.2869923 C136.622027,25.2717599 135.835495,22.6883262 133.961915,21.5540318 C132.26028,20.5551506 130.258774,21.1222332 128.817121,22.3920697 C128.381579,22.7798494 127.818111,23.526364 127.730331,23.6178873 L128.033946,15.4798064 L121.714583,16.2738253 Z M132.348188,28.6711575 C132.26028,30.2591954 131.780977,32.3230508 130.083214,32.8426291 C126.943541,33.794006 126.98756,28.5796343 128.033946,26.6988253 C128.381579,26.0657788 128.948791,25.4291179 129.735581,25.1803657 C131.956665,24.4996859 132.479858,26.7684036 132.348188,28.6711575 L132.348188,28.6711575 Z" id="Fill-10" fill="#FEFEFE"></path>
                <path d="M89.9419621,20.4416308 L89.8980723,24.0458907 L92.1630465,23.7313038 C92.2509552,24.4557444 92.0349914,35.0857358 92.0349914,36.9921041 L91.9911015,38.6461059 C91.9470826,39.0084552 91.9470826,38.8730422 90.8566781,39.0558305 L89.7664028,39.3047117 C89.678494,39.4620697 89.678494,42.2943847 89.678494,42.7479991 L98.3104647,41.3648236 L98.3983735,37.8739028 L96.4368847,38.1923623 L96.521179,30.9398236 C96.9602065,30.7130164 98.1349053,29.5091437 99.3571084,29.6481713 C100.619458,29.7616394 100.271695,31.7777324 100.271695,32.8902108 C100.184045,35.6089286 100.096136,38.3497203 100.096136,41.0720525 L106.371609,40.0512263 L106.459518,36.6298838 L104.498158,36.9225258 C104.32247,33.9989458 105.284819,29.1029045 103.974966,26.7902969 C102.844157,24.7521299 100.184045,25.1144793 98.1787952,26.3584983 L97.0004819,27.2440404 C96.8724269,27.3794535 96.7846472,27.4709768 96.6089587,27.5625 L96.7407573,19.5378873 C95.9978571,19.603722 90.2018158,20.3062177 89.9419621,20.4416308" id="Fill-12" fill="#FEFEFE"></path>
                <path d="M69.2821859,23.0945525 L69.238296,25.9304819 L71.9863167,25.5681325 L72.0265921,42.8833219 L69.3260757,43.3152496 L69.3700947,46.0120224 C69.5420396,46.0377108 76.867642,44.8812134 77.4751291,44.7203701 L77.4751291,42.0455422 L74.9465577,42.4333219 L74.9064114,33.7720482 L75.6454389,33.1609466 C75.9052926,32.9121945 76.1248709,32.751222 76.4286145,32.5242857 C77.2591652,31.8692943 79.0887263,30.6654217 80.2231497,31.3240275 C80.9184165,31.7083219 80.9184165,32.2534596 80.9623064,33.2744148 C81.0061962,35.0637005 80.9623064,36.9006196 80.9623064,38.7154647 C80.9623064,40.5269535 80.9184165,42.3417986 80.9184165,44.1530293 L86.1948795,43.3152496 L86.1948795,40.6623666 L83.7507315,41.0244578 C83.7944923,38.9862909 83.7944923,36.9225645 83.7944923,34.8845267 C83.8383821,33.2744148 83.9701807,30.5300086 83.1431153,29.3737694 C81.6611876,27.287969 78.6094234,28.2650344 76.6041738,29.7359897 L75.3418244,30.8044492 C75.2100258,30.9618072 75.1222461,31.0972203 74.9064114,31.1887435 L74.9064114,22.3920568 L69.2821859,23.0945525 Z" id="Fill-14" fill="#FEFEFE"></path>
                <path d="M50.1483176,45.4704217 C49.9727582,45.3350086 47.7954346,44.7202926 47.4039114,44.6545869 C44.2643675,49.6859122 37.3339028,49.3893976 36.5947461,43.9041997 L50.1044277,41.8660327 C50.016648,38.2142685 48.6225,35.5174957 45.5304604,34.1818244 C42.7824398,33.0000258 39.8623451,33.5232186 37.4655723,35.1112565 C36.2434983,35.90179 35.244488,37.0141394 34.4138081,38.239957 C32.2366136,41.5697762 32.2805034,47.3951205 36.331278,49.8687005 C37.2058477,50.3884079 38.204858,50.7982616 39.3391523,50.9556196 C42.2152281,51.3399139 45.2231024,50.3188296 47.3161317,48.778296 C48.2748666,48.0759294 49.7567943,46.5131928 50.1483176,45.4704217 M36.638636,41.5478313 C36.8984897,38.9168933 38.7719406,36.7872031 41.0845482,36.3115146 C42.6506411,35.9931842 43.9167341,36.3115146 44.9632487,37.0835886 C45.6585155,37.6471859 46.5733606,38.6900861 46.8368287,39.9854819 C46.6611403,40.0989501 46.1817083,40.120895 45.5707358,40.2085456 L41.7359251,40.7756282 C40.5612263,40.9586747 37.5973709,41.4563081 36.638636,41.5478313" id="Fill-16" fill="#FEFEFE"></path>
                <path d="M64.5764587,30.8263941 L64.5764587,31.9608176 C63.8775775,31.642358 63.7020181,31.2545783 62.3517599,31.0056971 C61.393025,30.8263941 60.3465103,30.9179174 59.4316652,31.1447246 C57.645994,31.5729088 56.379901,32.5937349 55.4650559,33.545241 C55.3333864,33.7062134 55.2492212,33.7720482 55.0736618,33.9549656 C54.985753,34.0903787 54.8540835,34.2257917 54.7258993,34.3612048 C53.9831282,35.3125818 53.4599355,36.3115921 53.0684122,37.5336661 C52.1096773,40.8670998 52.9366136,44.8118933 55.6846343,46.9193804 C57.7337737,48.4601721 60.8258133,48.2332358 63.2225861,47.1463167 C65.3156153,46.2170138 67.0171213,44.2445525 67.756278,42.0929174 C67.5805895,41.9101291 65.7071386,41.3209725 65.3156153,41.2294492 C65.0558907,42.2502754 64.0971558,43.3848279 63.4860542,43.8823322 C61.9163468,45.2216179 58.7766738,45.9242427 57.1226721,43.6334509 C55.0296429,40.7536317 55.944488,35.7004905 59.1718115,34.2953701 C60.8258133,33.5670568 63.0067513,33.680525 64.0532659,35.246747 C64.4008993,35.8138296 64.4446601,36.176179 64.6203485,36.9225645 L67.276975,36.5383993 L67.2330852,30.4641738 L64.5764587,30.8263941 Z" id="Fill-18" fill="#FEFEFE"></path>
                <path d="M23.7363769,36.5603313 L21.5151635,36.8567169 L21.6433477,39.8023709 L23.8241566,39.5058563 C23.9559552,39.937784 24.0401205,43.8129991 24.0840103,44.5849441 C24.17179,46.2389458 24.17179,48.0097719 24.3474785,49.6418287 C24.4755336,51.1604174 24.7390017,52.4521988 26.3966179,52.9058133 C27.4834079,53.1985843 28.7933907,52.9277582 29.8399053,52.543722 C30.1875387,52.4045654 30.4912823,52.2472074 30.7985112,52.1338683 L30.6668417,49.1882143 C30.2314286,49.3675172 28.4859036,50.2748752 27.8785456,49.5944535 C27.4834079,49.1405809 27.4834079,46.9889458 27.4834079,46.2389458 C27.3992427,45.0607616 27.3553528,43.8603744 27.3113339,42.6821902 C27.2674441,41.7306842 27.0918847,39.8719492 27.2235542,39.030426 C27.9627108,38.7595998 29.6642169,38.8508649 30.2753184,38.5326635 L30.1875387,35.6528442 L27.0478657,36.0846429 L26.832031,30.4386015 C26.6124527,30.5519406 26.4367642,30.8483262 26.2648193,31.0312435 L24.0401205,33.4537048 C23.8241566,33.7720353 23.6045783,33.7062005 23.6485972,34.2038339 C23.6485972,34.9978528 23.6924871,35.7663124 23.7363769,36.5603313" id="Fill-20" fill="#FEFEFE"></path>
            </g>
        </g>
    </g>
</svg>