<?xml version="1.0" encoding="UTF-8"?>
<svg width="214px" height="214px" viewBox="0 0 214 214" version="1.1" xmlns="http://www.w3.org/2000/svg" xmlns:xlink="http://www.w3.org/1999/xlink">
    <!-- Generator: Sketch 54.1 (76490) - https://sketchapp.com -->
    <title>vueJSbarcelona_logo</title>
    <desc>Created with Sketch.</desc>
    <defs>
        <polygon id="path-1" points="84.9121951 0.0951219512 66.5695122 0.0951219512 54.6474024 20.8158537 48.5437439 31.4219512 42.345122 20.8792683 30.1536585 0.0951219512 11.7634146 0.0951219512 0.126987805 0.0951219512 48.4806463 83.5329268 96.85 0.0951219512"></polygon>
        <polyline id="path-3" points="84.9121951 0.0951219512 66.5695122 0.0951219512 54.6474024 20.8158537 48.5437439 31.4219512 42.345122 20.8792683 30.1536585 0.0951219512 11.7634146 0.0951219512 0.126987805 0.0951219512 48.4806463 83.5329268 96.85 0.0951219512"></polyline>
        <polyline id="path-5" points="84.9121951 0.0951219512 66.5695122 0.0951219512 54.6474024 20.8158537 48.5437439 31.4219512 42.345122 20.8792683 30.1536585 0.0951219512 11.7634146 0.0951219512 0.126987805 0.0951219512 48.4806463 83.5329268 96.85 0.0951219512"></polyline>
    </defs>
    <g id="Exports" stroke="none" stroke-width="1" fill="none" fill-rule="evenodd">
        <g id="Homepage-New" transform="translate(-1249.000000, -5234.000000)">
            <g id="Group-15" transform="translate(1291.000000, 5288.000000)">
                <polygon id="Fill-1" fill="#FFFFFF" points="10.4633988 7.84757683 48.6707159 7.84757683 65.0158378 35.6548939 81.0121793 7.84757683 119.504862 7.84757683 64.9841305 101.891479"></polygon>
                <path d="M125.687837,4.28050366 L101.400032,4.28050366 L78.9512512,4.28050366 L64.984178,28.5683085 L50.7158854,4.28050366 L28.2512512,4.28050366 L4.28051951,4.28050366 L64.984178,109.009772 L125.687837,4.28050366 Z M113.305971,11.41465 L64.984178,94.7731866 L16.6622268,11.41465 L28.2671049,11.41465 L46.6256415,11.41465 L58.8171049,32.1829427 L65.0315805,42.7731866 L71.1512512,32.1353817 L83.0732024,11.41465 L101.400032,11.41465 L113.305971,11.41465 Z" id="Fill-2" fill="#41B883"></path>
                <g id="Group-5" transform="translate(16.487805, 11.287805)">
                    <mask id="mask-2" fill="white">
                        <use xlink:href="#path-1"></use>
                    </mask>
                    <g id="Clip-4"></g>
                    <path d="M75.5427463,103.048828 L11.3986854,103.048828 L11.3986854,85.2134622 C11.3986854,85.2134622 13.8244537,74.6866329 13.903722,74.4645232 C13.9829902,74.2427305 14.2683561,74.0206207 14.3476244,74.4645232 C14.3476244,74.5437915 14.4901488,75.2732183 14.7122585,76.3037061 C15.3781122,73.1329744 16.3293317,68.3451695 16.4086,68.1230598 C16.4878683,67.9012671 16.7732341,67.6791573 16.8525024,68.1230598 C16.9317707,68.4244378 17.803722,73.6402915 18.3268927,76.589072 C18.6281122,75.3364744 18.8499049,74.3852549 18.8499049,74.3059866 C18.9291732,74.0841939 19.2146976,73.8620841 19.2939659,74.3059866 C19.2939659,74.448828 19.5159171,75.3364744 19.7378683,76.589072 C20.3244537,73.4183402 21.2915268,68.3451695 21.3549415,68.1230598 C21.4183561,67.9012671 21.7195756,67.6791573 21.7988439,68.1230598 C21.8781122,68.4244378 22.7500634,73.798828 23.2732341,76.6683402 C23.5744537,75.2732183 23.7964049,74.3059866 23.8598195,74.2427305 C23.9390878,74.0206207 24.2244537,73.798828 24.303722,74.2427305 C24.303722,74.3854134 24.5256732,75.3524866 24.7476244,76.6683402 C25.2706366,73.7195598 26.3011244,68.3451695 26.3011244,68.202328 C26.3803927,67.9805354 26.6659171,67.7584256 26.7451854,68.202328 C26.8244537,68.5037061 27.6964049,73.6561451 28.2195756,76.5254988 C28.5206366,75.2732183 28.7425878,74.3219988 28.7425878,74.2427305 C28.8218561,74.0206207 29.1073805,73.798828 29.1866488,74.2427305 C29.1866488,74.3852549 29.4086,75.2732183 29.6303927,76.4462305 C30.3598195,73.3547671 31.6121,68.3451695 31.6121,68.1230598 C31.6913683,67.9012671 31.9767341,67.6791573 32.0560024,68.1230598 C32.1352707,68.3451695 32.7852707,71.8803768 33.3086,74.8293159 L35.0047829,73.7195598 C35.0047829,73.7195598 35.0047829,66.4268768 35.3060024,58.991511 C35.5281122,53.1730598 37.2877098,40.7279378 37.5890878,39.0317549 C37.4462463,38.889072 36.9230756,38.4451695 36.9230756,38.14395 C36.9230756,37.7793159 37.5098195,36.9707793 37.9535634,36.891511 C38.3181976,36.891511 38.9840512,37.7000476 38.9840512,38.0646817 C38.9840512,38.2866329 38.5403073,38.7305354 38.3181976,38.9524866 C38.5403073,40.5061451 40.2364902,52.6500476 40.5220146,58.8329744 C40.6012829,60.2279378 40.6646976,61.702328 40.6646976,63.1768768 C40.7439659,60.3072061 40.807222,57.2793159 40.8864902,54.6317549 C41.1084415,48.8133037 42.9474659,36.146389 43.1694171,34.6085841 C43.0267341,34.4659012 42.503722,33.9427305 42.503722,33.7207793 C42.503722,33.3561451 43.0901488,32.5476085 43.5342098,32.5476085 C43.8986854,32.5476085 44.5646976,33.3561451 44.5646976,33.7207793 C44.5646976,33.9427305 44.1206366,34.3866329 43.8986854,34.6085841 C44.0413683,35.8610232 45.8171366,48.2267183 46.1023439,54.5681817 C46.1816122,56.549889 46.2450268,58.8329744 46.3242951,61.0524866 L47.4340512,60.6878524 L47.8781122,56.8512671 C47.8781122,56.4866329 47.9573805,55.6779378 47.8781122,55.2340354 C47.7988439,54.9329744 47.4340512,54.4256573 47.4340512,54.1242793 C47.4340512,53.7598037 47.9573805,53.2366329 48.2425878,53.0937915 L48.464539,53.0937915 C48.7659171,53.2366329 49.1939659,53.8232183 49.2732341,54.1242793 C49.3525024,54.4256573 48.9084415,54.9329744 48.8291732,55.2340354 C48.7499049,55.5986695 48.8291732,56.4073646 48.8291732,56.8512671 L49.2732341,60.7511085 L50.3829902,61.0524866 C50.4622585,58.8486695 50.5255146,56.5659012 50.6047829,54.5681817 C50.906161,48.0841939 52.7450268,35.3537061 52.8086,34.545011 C52.6657585,34.4024866 52.1425878,33.8793159 52.1425878,33.6573646 C52.1425878,33.2927305 52.7293317,32.4840354 53.1730756,32.4840354 C53.5377098,32.4840354 54.2035634,33.2927305 54.2035634,33.6573646 C54.2035634,33.8793159 53.6805512,34.3864744 53.4744537,34.545011 C53.553722,35.2110232 55.5354293,48.6073646 55.757222,54.7267183 C55.8364902,57.3742793 55.9000634,60.4024866 55.9793317,63.2719988 C56.0586,61.7976085 56.0586,60.2598037 56.1218561,58.9279378 C56.4230756,52.745011 58.0403073,40.8072061 58.3255146,39.0476085 C58.1828317,38.9047671 57.659661,38.3817549 57.7389293,38.1598037 C57.7389293,37.795011 58.3255146,36.9866329 58.7694171,36.9866329 C59.1340512,36.9866329 59.7999049,37.795011 59.7999049,38.1598037 C59.7999049,38.3817549 59.3560024,38.8254988 59.1340512,39.0476085 C59.3560024,40.74395 61.1950268,53.252328 61.416978,59.0707793 C61.7183561,66.5061451 61.7816122,71.9596451 61.7816122,71.9596451 L63.6999049,74.9085841 L64.4291732,82.3437915 L65.9828317,85.0707793 L66.5694171,85.0707793 L67.2986854,70.7866329 L67.8218561,70.7866329 L69.0742951,85.1500476 L70.3268927,85.1500476 L70.7706366,73.6561451 L71.0718561,75.939072 L71.1511244,71.9596451 L71.3730756,71.9596451 L71.816978,75.939072 L71.8962463,73.798828 L75.5427463,103.048828 Z" id="Fill-3" fill="#41B883" mask="url(#mask-2)"></path>
                </g>
                <g id="Group-8" transform="translate(16.487805, 11.287805)">
                    <mask id="mask-4" fill="white">
                        <use xlink:href="#path-3"></use>
                    </mask>
                    <g id="Clip-7"></g>
                    <path d="M55.9475293,72.0865061 L55.9475293,63.2561768 C56.0267976,61.781628 56.0267976,60.2439817 56.0902122,58.9279695 C56.3914317,52.7450427 58.0085049,40.8073963 58.2938707,39.0476402 C58.1511878,38.9049573 57.6281756,38.381628 57.7074439,38.1596768 C57.7074439,37.7952012 58.2938707,36.9866646 58.7379317,36.9866646 C59.1024073,36.9866646 59.7684195,37.7952012 59.7684195,38.1596768 C59.7684195,38.381628 59.3243585,38.825689 59.1024073,39.0476402 C59.3243585,40.7438232 61.1633829,53.2523598 61.3853341,59.0706524 C61.6865537,66.5061768 61.7501268,71.9596768 61.7501268,71.9596768" id="Fill-6" fill="#35495E" mask="url(#mask-4)"></path>
                </g>
                <g id="Group-11" transform="translate(16.487805, 11.287805)">
                    <mask id="mask-6" fill="white">
                        <use xlink:href="#path-5"></use>
                    </mask>
                    <g id="Clip-10"></g>
                    <path d="M34.9573012,73.73535 C34.9573012,73.73535 34.9573012,66.4426671 35.2585207,59.0073012 C35.480472,53.1890085 37.240228,40.7438866 37.5414476,39.0475451 C37.3987646,38.9048622 36.8755939,38.4609598 36.8755939,38.1597402 C36.8755939,37.7951061 37.4621793,36.9865695 37.9060817,36.9073012 C38.2707159,36.9073012 38.9365695,37.7158378 38.9365695,38.080472 C38.9365695,38.3024232 38.4926671,38.7463256 38.2707159,38.9682768 C38.4926671,40.5219354 40.1890085,52.6658378 40.4743744,58.8487646 C40.5536427,60.2280329 40.6170573,61.6865695 40.6170573,63.1451061 L40.6170573,73.6719354" id="Fill-9" fill="#35495E" mask="url(#mask-6)"></path>
                </g>
                <polygon id="Fill-12" fill="#35495E" points="40.965822 4.28050366 64.9365537 45.4841622 88.7013463 4.28050366 77.3024073 4.28050366 64.9365537 20.1183085 52.3646024 4.28050366"></polygon>
                <path d="M125.687837,1.58536585e-05 L101.400032,1.58536585e-05 L78.9512512,1.58536585e-05 C77.4134463,1.58536585e-05 76.0024707,0.824406098 75.2414951,2.14025976 L64.9524707,20.0390402 L54.4097878,2.10855244 C53.6329585,0.79269878 52.2378366,1.58536585e-05 50.7158854,1.58536585e-05 L28.2512512,1.58536585e-05 L4.28051951,1.58536585e-05 C2.74271463,1.58536585e-05 1.33173902,0.824406098 0.570763415,2.14025976 C-0.190212195,3.47196707 -0.190212195,5.1048939 0.570763415,6.42074756 L61.274422,111.150016 C62.0353976,112.465711 63.4463732,113.29026 64.984178,113.29026 C66.5219829,113.29026 67.9171049,112.481723 68.6939341,111.150016 L129.397434,6.42074756 C130.158568,5.08904024 130.174422,3.45611341 129.397434,2.14025976 C128.636617,0.808552439 127.225641,1.58536585e-05 125.687837,1.58536585e-05 M125.687837,4.28050366 L64.984178,108.993918 L4.28051951,4.28050366 L28.2671049,4.28050366 L50.731739,4.28050366 L65.0000317,28.5683085 L78.9512512,4.28050366 L101.415727,4.28050366 L125.687837,4.28050366" id="Fill-13" fill="#FFFFFF"></path>
            </g>
        </g>
    </g>
</svg>