<?xml version="1.0" encoding="UTF-8"?>
<svg width="638px" height="160px" viewBox="0 0 638 160" version="1.1" xmlns="http://www.w3.org/2000/svg" xmlns:xlink="http://www.w3.org/1999/xlink">
    <!-- Generator: Sketch 63.1 (92452) - https://sketch.com -->
    <title>pixel_separation_footer</title>
    <desc>Created with Sketch.</desc>
    <g id="Exports" stroke="none" stroke-width="1" fill="none" fill-rule="evenodd">
        <g id="Homepage-New" transform="translate(-1660.000000, -2741.000000)">
            <g id="pixel_separation_footer" transform="translate(1660.000000, 2741.000000)">
                <rect id="Rectangle" fill="#15161A" x="32" y="32" width="32" height="32"></rect>
                <rect id="Rectangle" fill="#FFFFFF" x="0" y="32" width="32" height="32"></rect>
                <g id="Group-12" transform="translate(606.000000, 64.000000)" fill="#15161A">
                    <rect id="Rectangle" x="0" y="0" width="32" height="32"></rect>
                </g>
                <rect id="Rectangle" fill="#FFFFFF" x="254" y="64" width="32" height="64"></rect>
                <path d="M126,128 L126,64 L190,64 L190,128 L126,128 Z" id="Combined-Shape" fill="#FFFFFF"></path>
                <rect id="Rectangle" fill="#FFFFFF" x="190" y="128" width="32" height="32"></rect>
                <path d="M414,128 L382,128 L382,96 L350,96 L350,64 L414,64 L414,128 Z" id="Combined-Shape" fill="#15161A"></path>
                <rect id="Rectangle" fill="#FFFFFF" x="350" y="96" width="32" height="32"></rect>
                <path d="M574,128 L574,64 L606,64 L606,96 L638,96 L638,128 L574,128 Z" id="Combined-Shape" fill="#FFFFFF"></path>
                <rect id="Rectangle" fill="#7549EB" x="286" y="0" width="32" height="32"></rect>
                <rect id="Rectangle" fill="#15161A" x="478" y="64" width="32" height="64"></rect>
                <rect id="Rectangle" fill="#F45919" x="510" y="32" width="32" height="32"></rect>
            </g>
        </g>
    </g>
</svg>