<?xml version="1.0" encoding="UTF-8"?>
<svg width="1440px" height="267px" viewBox="0 0 1440 267" version="1.1" xmlns="http://www.w3.org/2000/svg" xmlns:xlink="http://www.w3.org/1999/xlink">
    <!-- Generator: Sketch 63.1 (92452) - https://sketch.com -->
    <title>pixel_separation_detail</title>
    <desc>Created with Sketch.</desc>
    <g id="Exports" stroke="none" stroke-width="1" fill="none" fill-rule="evenodd">
        <g id="Homepage-New" transform="translate(-1545.000000, -773.000000)" fill-rule="nonzero">
            <g id="pixel_separation_detail" transform="translate(1545.000000, 773.000000)">
                <rect id="Rectangle" fill="#15161A" x="1037" y="139" width="64" height="64"></rect>
                <rect id="Rectangle" fill="#15161A" x="813" y="139" width="64" height="64"></rect>
                <rect id="Rectangle" fill="#FFFFFF" x="1266" y="43" width="32" height="32"></rect>
                <rect id="Rectangle" fill="#7549EB" x="1101" y="203" width="32" height="32"></rect>
                <rect id="Rectangle" fill="#FFFFFF" x="877" y="139" width="32" height="64"></rect>
                <rect id="Rectangle" fill="#15161A" x="717" y="139" width="32" height="64"></rect>
                <rect id="Rectangle" fill="#15161A" x="685" y="203" width="32" height="32"></rect>
                <rect id="Rectangle" fill="#15161A" x="877" y="203" width="32" height="32"></rect>
                <rect id="Rectangle" fill="#15161A" x="1298" y="203" width="32" height="32"></rect>
                <rect id="Rectangle" fill="#FFFFFF" x="1408" y="203" width="32" height="32"></rect>
                <rect id="Rectangle" fill="#15161A" x="209" y="235" width="32" height="32"></rect>
                <rect id="Rectangle" fill="#FFFFFF" x="0" y="235" width="32" height="32"></rect>
                <rect id="Rectangle" fill="#15161A" x="1005" y="171" width="32" height="32"></rect>
                <rect id="Rectangle" fill="#15161A" x="749" y="107" width="32" height="32"></rect>
                <rect id="Rectangle" fill="#FFFFFF" x="1005" y="139" width="32" height="32"></rect>
                <rect id="Rectangle" fill="#FFFFFF" x="1037" y="107" width="32" height="32"></rect>
                <rect id="Rectangle" fill="#F45919" x="781" y="0" width="32" height="32"></rect>
            </g>
        </g>
    </g>
</svg>