<?xml version="1.0" encoding="UTF-8"?>
<svg width="520px" height="530px" viewBox="0 0 520 530" version="1.1" xmlns="http://www.w3.org/2000/svg" xmlns:xlink="http://www.w3.org/1999/xlink">
    <!-- Generator: Sketch 53.2 (72643) - https://sketchapp.com -->
    <title>cfp_graphic</title>
    <desc>Created with Sketch.</desc>
    <g id="Page-1" stroke="none" stroke-width="1" fill="none" fill-rule="evenodd">
        <g id="CFP-Desktop" transform="translate(-840.000000, -170.000000)">
            <g id="cfp_graphic" transform="translate(840.000000, 170.000000)">
                <path d="M201.792764,143.751086 L0.116459687,345.42739 L184.718548,530.028252 C184.956371,529.113737 519.776744,309.297918 519.776744,309.297918 C519.776744,309.297918 202.275765,144.800449 201.78786,143.75599 L201.792764,143.751086 Z M203.528626,155.88496 C205.55625,156.962518 208.061972,158.287707 211.021274,159.845815 C219.305849,164.211214 231.459336,170.573591 247.142166,178.757642 C273.54419,192.53421 310.318481,211.666698 356.445098,235.623068 C414.779142,265.918523 473.642771,296.434639 500.389271,310.297019 C473.033503,328.260007 409.691693,369.86431 346.948117,411.12659 C298.326811,443.102742 259.575157,468.619673 231.770713,486.96759 C215.255503,497.86699 202.465778,506.326867 193.757045,512.113075 C190.687413,514.152958 188.052972,515.907209 185.903985,517.34518 L13.9861954,345.42739 L203.528626,155.88496 L203.528626,155.88496 Z" id="Fill-9" fill="#71230A"></path>
                <path d="M218.887329,95.9173229 L0.145390725,314.659262 L167.674489,482.187134 C167.765205,481.514119 519.806901,206.274522 519.806901,206.274522 C519.806901,206.274522 219.772423,96.9311352 218.887329,95.9173229 L218.887329,95.9173229 Z M221.286399,107.387989 C223.24047,108.125976 225.653024,109.024554 228.649103,110.140115 C236.5181,113.071222 248.040254,117.327517 262.893154,122.792541 C287.89521,131.990404 322.690913,144.739675 366.311808,160.687297 C419.689573,180.201037 473.512336,199.833688 499.843259,209.43487 C471.534973,231.570792 404.304635,284.14805 337.730149,336.254565 C286.621509,376.257855 245.894944,408.160453 216.680725,431.074816 C199.330683,444.684663 185.901043,455.234685 176.762022,462.434345 C173.476633,465.023428 170.669341,467.238614 168.395313,469.038222 L14.0151265,314.659262 L221.286399,107.387989 L221.286399,107.387989 Z" id="Fill-11" fill="#B13A14"></path>
                <path d="M235.989986,48.0755913 L0.175057297,283.89052 L150.629939,434.345402 C150.650779,433.982538 519.835341,103.250513 519.835341,103.250513 C519.835341,103.250513 237.550546,48.813578 235.989986,48.0755913 L235.989986,48.0755913 Z M239.194466,58.7420727 C251.106453,61.212244 283.733554,67.58075 376.634059,85.5682551 C424.479376,94.8310908 472.664265,104.135607 498.569803,109.134792 C468.911811,135.705989 398.804306,198.518214 328.694348,261.358635 C275.104504,309.39274 232.403028,347.679781 201.777808,375.159363 C184.468221,390.690182 170.04193,403.641725 159.943037,412.721903 C156.394081,415.912898 153.379614,418.625796 150.959704,420.806657 L14.044793,283.89052 L239.194466,58.7420727 L239.194466,58.7420727 Z" id="Fill-13" fill="#D24617"></path>
                <path d="M519.865008,0.225646259 C519.865008,0.225646259 250.403037,0.226872151 253.101224,0.226872151 L0.20472387,253.123372 L133.58539,386.504038 L519.865008,0.225646259 Z M496.188141,10.0327778 L133.58539,372.634303 L14.0732337,253.123372 L257.162602,10.0340037 C284.074597,10.0340037 436.748342,10.0327778 496.188141,10.0327778 L496.188141,10.0327778 Z" id="Fill-15" fill="#F2511B"></path>
            </g>
        </g>
    </g>
</svg>