<?xml version="1.0" encoding="UTF-8"?>
<svg width="40px" height="40px" viewBox="0 0 40 40" version="1.1" xmlns="http://www.w3.org/2000/svg" xmlns:xlink="http://www.w3.org/1999/xlink">
    <!-- Generator: sketchtool 53 (72520) - https://sketchapp.com -->
    <title>4B0F3B21-9C8F-4190-8C58-97A93A36BEAB</title>
    <desc>Created with sketchtool.</desc>
    <defs>
        <circle id="path-1" cx="20" cy="20" r="20"></circle>
    </defs>
    <g id="Page-1" stroke="none" stroke-width="1" fill="none" fill-rule="evenodd">
        <g id="06" transform="translate(-844.000000, -1168.000000)">
            <g id="Group" transform="translate(732.000000, 863.000000)">
                <g id="contact" transform="translate(0.000000, 262.000000)">
                    <g id="Group-7" transform="translate(0.000000, 43.000000)">
                        <g id="instagram" transform="translate(112.000000, 0.000000)">
                            <g id="Group-9">
                                <mask id="mask-2" fill="white">
                                    <use xlink:href="#path-1"></use>
                                </mask>
                                <use id="Oval" fill="#FFFFFF" xlink:href="#path-1"></use>
                            </g>
                            <path d="M19.9999762,8 C23.2590043,8 23.6676094,8.01381388 24.947537,8.07221326 C26.2248447,8.13046973 27.0971199,8.33334326 27.860456,8.63000828 C28.6495621,8.93662882 29.3187732,9.34694874 29.9858884,10.014064 C30.6530513,10.6812268 31.0633235,11.3504379 31.3699917,12.1394964 C31.6666567,12.9028324 31.8695303,13.7751076 31.9277867,15.0524153 C31.9861861,16.3323429 32,16.7409957 32,19.9999762 C32,23.2590043 31.9861861,23.6676571 31.9277867,24.9475847 C31.8695303,26.2248447 31.6666567,27.0971676 31.3699917,27.860456 C31.0633235,28.6495621 30.6530513,29.3187732 29.9858884,29.9858884 C29.3187732,30.6530513 28.6495621,31.0633235 27.860456,31.3700394 C27.0971199,31.6666567 26.2248447,31.8695303 24.947537,31.9278344 C23.6676094,31.9861861 23.2590043,32 19.9999762,32 C16.7409957,32 16.3322953,31.9861861 15.0524153,31.9278344 C13.7751076,31.8695303 12.9028324,31.6666567 12.1394964,31.3700394 C11.3504379,31.0633235 10.6811792,30.6530513 10.014064,29.9858884 C9.34690111,29.3187732 8.93662882,28.6495144 8.62996064,27.860456 C8.33329562,27.0971676 8.13046973,26.2248447 8.07216562,24.9475847 C8.01376625,23.6676571 8,23.2590043 8,19.9999762 C8,16.740948 8.01376625,16.3323429 8.07216562,15.0524153 C8.13046973,13.7751076 8.33329562,12.9028324 8.62996064,12.1394964 C8.93662882,11.3504379 9.34690111,10.6812268 10.014064,10.014064 C10.6811792,9.34694874 11.3504379,8.93662882 12.1394964,8.63000828 C12.9028324,8.33334326 13.7751076,8.13046973 15.0524153,8.07221326 C16.3322953,8.01381388 16.7409957,8 19.9999762,8 Z M19.9999762,10.1621583 C16.7958225,10.1621583 16.4163218,10.1743526 15.1509226,10.2320851 C13.9809821,10.2854829 13.3455435,10.4809732 12.9226959,10.6453107 C12.3626144,10.8629984 11.9628216,11.1230329 11.5429272,11.5429749 C11.1230329,11.9628692 10.8629508,12.3626144 10.6452631,12.9227435 C10.4809732,13.3455912 10.2854829,13.9809821 10.2320851,15.1509702 C10.1743526,16.4163218 10.1621583,16.7958701 10.1621583,19.9999762 C10.1621583,23.2041299 10.1743526,23.5836782 10.2320851,24.8490298 C10.2854829,26.0190179 10.4809732,26.6544088 10.6452631,27.0772565 C10.8629508,27.637338 11.1230329,28.0371308 11.5429272,28.4570251 C11.9628216,28.8769671 12.3626144,29.1370016 12.9226959,29.3546893 C13.3455435,29.5189792 13.9809821,29.7145171 15.1509702,29.7678672 C16.4161313,29.8255997 16.7955843,29.8378417 19.9999762,29.8378417 C23.204368,29.8378417 23.5838211,29.8255997 24.8489821,29.7678672 C26.0189703,29.7145171 26.6543612,29.5189792 27.0772089,29.3546893 C27.637338,29.1370016 28.0371308,28.8769671 28.4570251,28.4570251 C28.8769195,28.0371308 29.1369539,27.637338 29.3546893,27.0772565 C29.5189792,26.6544088 29.7144694,26.0190179 29.7678672,24.8489821 C29.8255521,23.5836782 29.8377941,23.2041299 29.8377941,19.9999762 C29.8377941,16.7958701 29.8255521,16.4163218 29.7678672,15.1509702 C29.7144694,13.9809821 29.5189792,13.3455912 29.3546893,12.9227435 C29.1369539,12.3626144 28.8769195,11.9628692 28.4570251,11.5429272 C28.0371308,11.1230329 27.637338,10.8629984 27.0772089,10.6453107 C26.6543612,10.4809732 26.0189703,10.2854829 24.8489821,10.2320851 C23.5836306,10.1743526 23.2041299,10.1621583 19.9999762,10.1621583 Z M19.9999762,24 C22.2091017,24 24,22.2091017 24,19.9999762 C24,17.7908507 22.2091017,16 19.9999762,16 C17.7908507,16 15.9999524,17.7908507 15.9999524,19.9999762 C15.9999524,22.2091017 17.7908507,24 19.9999762,24 Z M19.9999762,13.8378417 C23.4032403,13.8378417 26.1621107,16.5967121 26.1621107,19.9999762 C26.1621107,23.4032879 23.4032403,26.1621583 19.9999762,26.1621583 C16.5967121,26.1621583 13.8377941,23.4032879 13.8377941,19.9999762 C13.8377941,16.5967121 16.5967121,13.8378417 19.9999762,13.8378417 Z M27.8455989,13.5943744 C27.8455989,14.3896729 27.2009193,15.0343525 26.4056208,15.0343525 C25.6103223,15.0343525 24.9655951,14.3896729 24.9655951,13.5943744 C24.9655951,12.7990759 25.6103223,12.1543963 26.4056208,12.1543963 C27.2009193,12.1543963 27.8455989,12.7990759 27.8455989,13.5943744 Z" id="Combined-Shape" fill="#15161A"></path>
                        </g>
                    </g>
                </g>
            </g>
        </g>
    </g>
</svg>