<?xml version="1.0" encoding="UTF-8"?>
<svg width="40px" height="40px" viewBox="0 0 40 40" version="1.1" xmlns="http://www.w3.org/2000/svg" xmlns:xlink="http://www.w3.org/1999/xlink">
    <!-- Generator: sketchtool 53 (72520) - https://sketchapp.com -->
    <title>50093CDC-0D7C-413E-AC4F-A81897198E5C</title>
    <desc>Created with sketchtool.</desc>
    <g id="Page-1" stroke="none" stroke-width="1" fill="none" fill-rule="evenodd">
        <g id="06" transform="translate(-900.000000, -1168.000000)">
            <g id="Group" transform="translate(732.000000, 863.000000)">
                <g id="contact" transform="translate(0.000000, 262.000000)">
                    <g id="Group-7" transform="translate(0.000000, 43.000000)">
                        <g id="linkedin" transform="translate(168.000000, 0.000000)">
                            <circle id="Oval" fill="#FFFFFF" cx="20" cy="20" r="20"></circle>
                            <path d="M13.1445615,9.69230769 C14.3270231,9.69230769 15.2872538,10.6525385 15.2872538,11.8356923 C15.2872538,13.0195385 14.3270231,13.9797692 13.1445615,13.9797692 C11.9572538,13.9797692 10.9997923,13.0195385 10.9997923,11.8356923 C10.9997923,10.6525385 11.9572538,9.69230769 13.1445615,9.69230769 Z M11.2933308,27.4984615 L11.2933308,15.6046154 L14.9937154,15.6046154 L14.9937154,27.4984615 L11.2933308,27.4984615 Z M17.3126,15.6046154 L20.8558308,15.6046154 L20.8558308,17.2308462 L20.9063692,17.2308462 C21.3992923,16.2955385 22.6059846,15.3096923 24.4039077,15.3096923 C28.1465231,15.3096923 28.8381385,17.7722308 28.8381385,20.9755385 L28.8381385,27.4984615 L25.1426,27.4984615 L25.1426,21.7142308 C25.1426,20.3351538 25.1183692,18.5607692 23.2214462,18.5607692 C21.2982154,18.5607692 21.0046769,20.0637692 21.0046769,21.6159231 L21.0046769,27.4984615 L17.3126,27.4984615 L17.3126,15.6046154 Z" id="Combined-Shape" fill="#15161A"></path>
                        </g>
                    </g>
                </g>
            </g>
        </g>
    </g>
</svg>