<?xml version="1.0" encoding="utf-8"?>
<!-- Generator: Adobe Illustrator 25.1.0, SVG Export Plug-In . SVG Version: 6.00 Build 0)  -->
<svg version="1.1" id="Layer_1" xmlns="http://www.w3.org/2000/svg" xmlns:xlink="http://www.w3.org/1999/xlink" x="0px" y="0px"
	 viewBox="0 0 22 22" style="enable-background:new 0 0 22 22;" xml:space="preserve">
<style type="text/css">
	.st0{fill-rule:evenodd;clip-rule:evenodd;fill:#F45919;}
	.st1{fill:#FFFFFF;}
	.st2{fill:#F45919;}
</style>
<desc>Created with Sketch.</desc>
<g id="FINAL">
	<g id="Speaker-Detail" transform="translate(-345.000000, -631.000000)">
		<g id="Group-11" transform="translate(345.000000, 631.000000)">
			<g id="twitter">
				<path id="twitter_speaker" class="st0" d="M22,11c0,6.1-4.9,11-11,11S0,17.1,0,11S4.9,0,11,0S22,4.9,22,11z"/>
			</g>
		</g>
	</g>
	<path class="st1" d="M16.4,12.2c-0.2,0.9-1.5,1.8-3,2c-0.8,0.1-1.6,0.2-2.4,0.1C9.6,14.3,8.6,14,8.6,14c0,0.1,0,0.3,0,0.4
		c0.2,1.3,1.3,1.4,2.4,1.5c1.1,0,2.1-0.3,2.1-0.3l0,1c0,0-0.8,0.4-2.1,0.5c-0.8,0-1.7,0-2.8-0.3c-2.4-0.6-2.8-3.2-2.8-5.7
		c0-0.8,0-1.5,0-2.1c0-2.6,1.7-3.4,1.7-3.4C7.9,5.1,9.4,5,11,5h0c1.5,0,3,0.2,3.9,0.6c0,0,1.7,0.8,1.7,3.4
		C16.6,8.9,16.7,10.9,16.4,12.2"/>
	<path class="st2" d="M14.6,9.1v3.2h-1.3V9.2c0-0.6-0.3-1-0.8-1c-0.6,0-0.9,0.4-0.9,1.2v1.7h-1.3V9.4c0-0.8-0.3-1.2-0.9-1.2
		c-0.5,0-0.8,0.3-0.8,1v3.1H7.4V9.1c0-0.6,0.2-1.2,0.5-1.5C8.2,7.2,8.7,7,9.2,7c0.6,0,1.1,0.2,1.5,0.7L11,8.3l0.3-0.5
		C11.6,7.3,12.1,7,12.8,7c0.6,0,1,0.2,1.3,0.6C14.4,8,14.6,8.5,14.6,9.1"/>
</g>
</svg>
