<?xml version="1.0" encoding="UTF-8"?>
<svg width="40px" height="40px" viewBox="0 0 40 40" version="1.1" xmlns="http://www.w3.org/2000/svg" xmlns:xlink="http://www.w3.org/1999/xlink">
    <!-- Generator: sketchtool 53 (72520) - https://sketchapp.com -->
    <title>3F5322FE-A68A-41F8-84EF-ED5EA2CD4BFC</title>
    <desc>Created with sketchtool.</desc>
    <g id="Page-1" stroke="none" stroke-width="1" fill="none" fill-rule="evenodd">
        <g id="06" transform="translate(-956.000000, -1168.000000)">
            <g id="Group" transform="translate(732.000000, 863.000000)">
                <g id="contact" transform="translate(0.000000, 262.000000)">
                    <g id="Group-7" transform="translate(0.000000, 43.000000)">
                        <g id="medium" transform="translate(224.000000, 0.000000)">
                            <circle id="Oval" fill="#FFFFFF" cx="20" cy="20" r="20"></circle>
                            <path d="M12.3716031,15.239084 C12.3964885,14.9935878 12.3027481,14.7508397 12.119542,14.5856489 L10.2520611,12.3360305 L10.2520611,12 L16.0503817,12 L20.5322137,21.8291603 L24.4725191,12 L30,12 L30,12.3360305 L28.4033588,13.8668702 C28.2656489,13.9719084 28.1974046,14.1442748 28.2259542,14.3149618 L28.2259542,25.5629008 C28.1974046,25.7335878 28.2656489,25.9061069 28.4033588,26.0109924 L29.9627481,27.5418321 L29.9627481,27.8778626 L22.119542,27.8778626 L22.119542,27.5418321 L23.7348092,25.9737405 C23.8935878,25.8149618 23.8935878,25.7683969 23.8935878,25.5256489 L23.8935878,16.4338931 L19.4024427,27.8406107 L18.7955725,27.8406107 L13.5667176,16.4338931 L13.5667176,24.0787786 C13.5230534,24.4001527 13.6299237,24.7238168 13.8561832,24.9561832 L15.9569466,27.5045802 L15.9569466,27.8406107 L10,27.8406107 L10,27.5045802 L12.100916,24.9561832 C12.3254962,24.7233588 12.4259542,24.3975573 12.3716031,24.0787786 L12.3716031,15.239084 Z" id="Fill-1" fill="#15161A"></path>
                        </g>
                    </g>
                </g>
            </g>
        </g>
    </g>
</svg>