<?xml version="1.0" encoding="UTF-8"?>
<svg width="1121px" height="256px" viewBox="0 0 1121 256" version="1.1" xmlns="http://www.w3.org/2000/svg" xmlns:xlink="http://www.w3.org/1999/xlink">
    <!-- Generator: Sketch 55.2 (78181) - https://sketchapp.com -->
    <title>pixel_separation_meet_the_team</title>
    <desc>Created with Sketch.</desc>
    <g id="FINAL" stroke="none" stroke-width="1" fill="none" fill-rule="evenodd">
        <g id="Team-NEW" transform="translate(-157.000000, -1550.000000)">
            <g id="pixel_separation_meet_the_team" transform="translate(717.500000, 1678.000000) scale(1, -1) translate(-717.500000, -1678.000000) translate(157.000000, 1550.000000)">
                <rect id="Rectangle" fill="#FFFFFF" x="444" y="64" width="32" height="32"></rect>
                <rect id="Rectangle" fill="#FFFFFF" x="92" y="64" width="32" height="32"></rect>
                <rect id="Rectangle" fill="#FFFFFF" x="1057" y="0" width="32" height="32"></rect>
                <rect id="Rectangle" fill="#FFFFFF" x="412" y="96" width="32" height="64"></rect>
                <rect id="Rectangle" fill="#15161A" x="508" y="96" width="32" height="64"></rect>
                <path d="M220,160 L188,160 L188,96 L220,96 L252,96 L252,160 L220,160 Z M252,160 L284,160 L284,192 L252,192 L252,160 Z" id="Combined-Shape" fill="#15161A"></path>
                <rect id="Rectangle" fill="#FFFFFF" x="636" y="96" width="32" height="32"></rect>
                <rect id="Rectangle" fill="#FFFFFF" x="540" y="96" width="32" height="64"></rect>
                <rect id="Rectangle" fill="#FFFFFF" x="924" y="96" width="32" height="64"></rect>
                <rect id="Rectangle" fill="#15161A" x="604" y="96" width="32" height="32"></rect>
                <rect id="Rectangle" fill="#FFFFFF" x="284" y="96" width="32" height="64"></rect>
                <rect id="Rectangle" fill="#15161A" x="412" y="160" width="32" height="32"></rect>
                <rect id="Rectangle" fill="#15161A" x="316" y="96" width="96" height="64"></rect>
                <rect id="Rectangle" fill="#15161A" x="796" y="160" width="32" height="32"></rect>
                <rect id="Rectangle" fill="#15161A" x="604" y="96" width="32" height="64"></rect>
                <rect id="Rectangle" fill="#15161A" x="604" y="128" width="64" height="32"></rect>
                <rect id="Rectangle" fill="#15161A" x="1089" y="160" width="32" height="32"></rect>
                <rect id="Rectangle" fill="#15161A" x="0" y="224" width="32" height="32"></rect>
                <rect id="Rectangle" fill="#FFFFFF" x="540" y="128" width="64" height="32"></rect>
                <rect id="Rectangle" fill="#15161A" x="796" y="128" width="32" height="32"></rect>
                <rect id="Rectangle" fill="#15161A" x="828" y="96" width="64" height="64"></rect>
                <rect id="Rectangle" fill="#15161A" x="540" y="64" width="32" height="32"></rect>
                <rect id="Rectangle" fill="#FFFFFF" x="796" y="96" width="32" height="32"></rect>
                <rect id="Rectangle" fill="#FFFFFF" x="828" y="64" width="32" height="32"></rect>
            </g>
        </g>
    </g>
</svg>