<?xml version="1.0" encoding="UTF-8"?>
<svg width="638px" height="192px" viewBox="0 0 638 192" version="1.1" xmlns="http://www.w3.org/2000/svg" xmlns:xlink="http://www.w3.org/1999/xlink">
    <!-- Generator: Sketch 53.2 (72643) - https://sketchapp.com -->
    <title>pixel_separation_footer</title>
    <desc>Created with Sketch.</desc>
    <g id="Exports" stroke="none" stroke-width="1" fill="none" fill-rule="evenodd">
        <g id="Homepage-New" transform="translate(-337.000000, -3023.000000)">
            <g id="pixel_separation_footer" transform="translate(337.000000, 3023.000000)">
                <rect id="Rectangle" fill="#15161A" x="350" y="96" width="64" height="32"></rect>
                <rect id="Rectangle" fill="#15161A" x="32" y="64" width="32" height="32"></rect>
                <rect id="Rectangle" fill="#FFFFFF" x="0" y="64" width="32" height="32"></rect>
                <rect id="Rectangle" fill="#15161A" x="606" y="0" width="32" height="32"></rect>
                <rect id="Rectangle" fill="#FFFFFF" x="254" y="128" width="32" height="32"></rect>
                <path d="M158,160 L126,160 L126,128 L158,128 L190,128 L190,160 L158,160 Z M190,160 L222,160 L222,192 L190,192 L190,160 Z" id="Combined-Shape" fill="#FFFFFF"></path>
                <rect id="Rectangle" fill="#FFFFFF" x="350" y="128" width="32" height="32"></rect>
                <rect id="Rectangle" fill="#15161A" x="286" y="32" width="32" height="32"></rect>
                <rect id="Rectangle" fill="#15161A" x="478" y="96" width="32" height="32"></rect>
                <rect id="Rectangle" fill="#15161A" x="510" y="64" width="32" height="32"></rect>
            </g>
        </g>
    </g>
</svg>