<?xml version="1.0" encoding="UTF-8"?>
<svg width="512px" height="128px" viewBox="0 0 512 128" version="1.1" xmlns="http://www.w3.org/2000/svg" xmlns:xlink="http://www.w3.org/1999/xlink">
    <!-- Generator: Sketch 54.1 (76490) - https://sketchapp.com -->
    <title>pixel_separation_speakers</title>
    <desc>Created with Sketch.</desc>
    <g id="FINAL" stroke="none" stroke-width="1" fill="none" fill-rule="evenodd">
        <g id="Speakers" transform="translate(-464.000000, -1488.000000)">
            <g id="pixel_separation_speakers" transform="translate(464.000000, 1488.000000)">
                <rect id="Rectangle" fill="#15161A" x="224" y="32" width="96" height="64"></rect>
                <rect id="Rectangle" fill="#FFFFFF" x="224" y="32" width="32" height="32"></rect>
                <rect id="Rectangle" fill="#FFFFFF" x="448" y="0" width="32" height="32"></rect>
                <path d="M32,96 L0,96 L0,64 L32,64 L64,64 L64,96 L32,96 Z M64,96 L96,96 L96,128 L64,128 L64,96 Z" id="Combined-Shape" fill="#15161A"></path>
                <rect id="Rectangle" fill="#15161A" x="416" y="32" width="32" height="32"></rect>
                <rect id="Rectangle" fill="#FFFFFF" x="32" y="32" width="32" height="32"></rect>
                <rect id="Rectangle" fill="#15161A" x="0" y="32" width="32" height="64"></rect>
                <rect id="Rectangle" fill="#15161A" x="320" y="96" width="32" height="32"></rect>
                <rect id="Rectangle" fill="#15161A" x="128" y="32" width="64" height="64"></rect>
                <rect id="Rectangle" fill="#15161A" x="416" y="32" width="64" height="64"></rect>
                <rect id="Rectangle" fill="#FFFFFF" x="480" y="32" width="32" height="64"></rect>
                <rect id="Rectangle" fill="#15161A" x="352" y="0" width="32" height="32"></rect>
            </g>
        </g>
    </g>
</svg>