<?xml version="1.0" encoding="UTF-8"?>
<svg width="48px" height="69px" viewBox="0 0 48 69" version="1.1" xmlns="http://www.w3.org/2000/svg" xmlns:xlink="http://www.w3.org/1999/xlink">
    <!-- Generator: Sketch 53.2 (72643) - https://sketchapp.com -->
    <title>sep_arrow_03</title>
    <desc>Created with Sketch.</desc>
    <g id="Page-1" stroke="none" stroke-width="1" fill="none" fill-rule="evenodd">
        <g id="Home-Desktop" transform="translate(-439.000000, -1291.000000)" fill="#F45919">
            <g id="arrow_separation" transform="translate(297.000000, 1291.000000)">
                <path d="M166.474325,37.496762 L147.49823,56.499362 L154.863671,63.875232 L181.205898,37.496762 L166.474325,37.496762 Z M154.863671,65.683952 L145.691781,56.499362 L165.680544,36.483382 C165.772647,36.357572 165.934802,36.258212 166.209042,36.227392 L166.209042,36.217732 L166.389572,36.217732 L166.394396,36.217732 L184.289148,36.217732 L154.863671,65.683952 Z M167.444203,39.841451 L150.809486,56.499431 L154.863832,60.559391 L175.553125,39.841451 L167.444203,39.841451 Z M154.863832,62.368111 L149.003496,56.499431 L166.932242,38.545401 L167.17938,39.201591 L166.946712,38.562421 L178.636376,38.562421 L154.863832,62.368111 Z M168.414288,42.186209 L154.120949,56.499339 L154.86374,57.243389 L169.900101,42.186209 L168.414288,42.186209 Z M154.86374,59.052109 L152.31473,56.499339 L167.88533,40.907179 L172.983811,40.907179 L154.86374,59.052109 Z M165.50447,33.847973 L186.858693,33.848203 L154.863763,1.808743 L144.186767,12.500523 L165.50447,33.847973 Z M154.863763,67.191303 L186.858693,35.151843 L165.50447,35.152073 L144.186767,56.499523 L154.863763,67.191303 Z M188.689717,33.872813 L189.31606,34.500023 L188.689717,35.127003 L154.863763,69.000023 L142.380548,56.499523 L164.349399,34.500023 L142.380548,12.500523 L154.863763,2.3e-05 L188.689717,33.872813 Z M166.474325,31.503215 L181.205898,31.503215 L154.863671,5.124745 L147.49823,12.500615 L166.474325,31.503215 Z M145.691781,12.500615 L154.863671,3.316025 L184.289148,32.782245 L166.209961,32.782245 L166.209961,32.772585 C165.935261,32.742225 165.772647,32.642635 165.680544,32.516595 L145.691781,12.500615 Z M167.444203,29.158526 L175.553125,29.158526 L154.863832,8.440586 L150.809486,12.500546 L167.444203,29.158526 Z M149.003496,12.500546 L154.863832,6.631866 L178.636376,30.437556 L166.947631,30.437556 L166.946712,30.440316 L149.003496,12.500546 Z M168.414288,26.813768 L169.900101,26.813768 L154.86374,11.756588 L154.120949,12.500638 L168.414288,26.813768 Z M152.31473,12.500638 L154.86374,9.947868 L172.983811,28.092798 L167.88533,28.092798 L152.31473,12.500638 Z" id="sep_arrow_03"></path>
            </g>
        </g>
    </g>
</svg>