<?xml version="1.0" encoding="UTF-8"?>
<svg width="48px" height="69px" viewBox="0 0 48 69" version="1.1" xmlns="http://www.w3.org/2000/svg" xmlns:xlink="http://www.w3.org/1999/xlink">
    <!-- Generator: Sketch 53.2 (72643) - https://sketchapp.com -->
    <title>sep_arrow_02</title>
    <desc>Created with Sketch.</desc>
    <g id="Page-1" stroke="none" stroke-width="1" fill="none" fill-rule="evenodd">
        <g id="Home-Desktop" transform="translate(-365.000000, -1291.000000)" fill="#F45919">
            <g id="arrow_separation" transform="translate(297.000000, 1291.000000)">
                <path d="M92.0755318,35.17367 L98.7071396,35.17367 L93.6127933,44.05742 L72.7186237,54.55738 L92.0755318,35.17367 Z M72.7395247,14.46378 L93.6157792,24.94925 L98.7071396,33.82656 L92.0755318,33.82656 L72.7395247,14.46378 Z M111.290956,35.17367 L95.7922456,42.96239 L100.258412,35.17367 L111.290956,35.17367 Z M111.289578,33.82633 L100.258412,33.82633 L95.7950018,26.04382 L111.289578,33.82633 Z M83.7339417,5.01331 L110.712157,32.02911 L94.5809028,23.9269 L83.7339417,5.01331 Z M92.4016802,22.83233 L70.6445954,11.90434 L80.483712,2.0516 L92.4016802,22.83233 Z M94.577917,45.07977 L110.70986,36.97296 L83.7389947,63.98117 L94.577917,45.07977 Z M80.4853198,66.95001 L70.6524046,57.10325 L92.3984647,46.17503 L80.4853198,66.95001 Z M80.6300194,0 L68.5115389,12.13503 L90.8455848,34.5 L68.5115389,56.86497 L80.6297898,69 L115.082316,34.5 L80.6300194,0 Z" id="sep_arrow_02"></path>
            </g>
        </g>
    </g>
</svg>