<?xml version="1.0" encoding="UTF-8"?>
<svg width="42px" height="67px" viewBox="0 0 42 67" version="1.1" xmlns="http://www.w3.org/2000/svg" xmlns:xlink="http://www.w3.org/1999/xlink">
    <!-- Generator: Sketch 53.2 (72643) - https://sketchapp.com -->
    <title>sep_arrow_01</title>
    <desc>Created with Sketch.</desc>
    <g id="Page-1" stroke="none" stroke-width="1" fill="none" fill-rule="evenodd">
        <g id="Home-Desktop" transform="translate(-297.000000, -1292.000000)" fill="#F45919">
            <g id="arrow_separation" transform="translate(297.000000, 1291.000000)">
                <path d="M35.5073869,37.983879 C37.4259205,37.983879 38.9863799,36.421029 38.9863799,34.500069 C38.9863799,32.579109 37.4259205,31.016259 35.5073869,31.016259 C33.589083,31.016259 32.0286237,32.579109 32.0286237,34.500069 C32.0286237,36.421029 33.589083,37.983879 35.5073869,37.983879 Z M35.5073869,28.786409 C38.6535707,28.786409 41.2133763,31.349529 41.2133763,34.500069 C41.2133763,37.650609 38.6535707,40.213729 35.5073869,40.213729 C32.3614329,40.213729 29.8016272,37.650609 29.8016272,34.500069 C29.8016272,31.349529 32.3614329,28.786409 35.5073869,28.786409 Z M26.6511714,34.500023 C26.6511714,39.368433 30.5892986,43.331793 35.4429382,43.366983 L33.4153057,45.397423 C28.3014364,44.414633 24.4246343,39.903413 24.4246343,34.500023 C24.4246343,29.096633 28.3014364,24.585413 33.4155353,23.602623 L35.4431678,25.633063 C30.5892986,25.668023 26.6511714,29.631613 26.6511714,34.500023 Z M21.0488604,34.500023 C21.0488604,40.786153 25.0712809,46.146993 30.6729947,48.143623 L28.9547438,49.864253 C23.3500442,47.457993 19.3209629,42.063343 18.8694081,35.693493 C18.8413869,35.298813 18.8220936,34.901833 18.8220936,34.500023 C18.8220936,34.098443 18.8413869,33.701463 18.8694081,33.306783 C19.3209629,26.936703 23.3500442,21.541823 28.9547438,19.135563 L30.6729947,20.856423 C25.0712809,22.852823 21.0488604,28.213663 21.0488604,34.500023 Z M15.7518198,38.81526 C17.0534276,44.79526 21.0002827,49.7973 26.2995053,52.52326 L24.655212,54.1696 C19.4901237,51.30058 15.5666961,46.45218 13.9164311,40.65319 L15.7518198,38.81526 Z M13.9163852,28.346833 C15.5668799,22.547843 19.4903074,17.699213 24.6553958,14.830193 L26.2994594,16.476763 C21.0000071,19.202723 17.0531519,24.204763 15.7517739,30.184993 L13.9163852,28.346833 Z M9.31893286,23.74313 C10.7229788,20.31475 12.8068834,17.16628 15.5022014,14.467 C16.9990389,12.96809 18.6346042,11.65801 20.3790389,10.54826 L21.9973781,12.16861 C20.2295159,13.24547 18.5774134,14.54106 17.0766714,16.04365 C14.3655053,18.75903 12.3266184,21.96776 11.0403993,25.46698 L9.31893286,23.74313 Z M11.0404223,43.533181 C12.3266413,47.032401 14.3655283,50.241131 17.0766943,52.956281 C18.5772067,54.458871 20.2293092,55.754461 21.9971714,56.831321 L20.3790618,58.451671 C18.6343975,57.341921 16.9990618,56.031841 15.5022244,54.532931 C12.8066767,51.833651 10.7232314,48.685411 9.31895583,45.257031 L11.0404223,43.533181 Z M4.66406007,19.081697 C6.30330035,15.801207 8.47746996,12.771187 11.143159,10.101807 C12.633106,8.609567 14.2369753,7.273037 15.932947,6.095667 L17.5345194,7.699687 C15.823159,8.855667 14.2098728,10.184377 12.717629,11.678457 C10.0429823,14.357037 7.89683392,17.423167 6.33063251,20.750577 L4.66406007,19.081697 Z M6.33058657,48.249538 C7.89678799,51.576948 10.0429364,54.643078 12.7178127,57.321428 C14.2098269,58.815738 15.8231131,60.144218 17.5344735,61.300198 L15.9326714,62.904218 C14.2369293,61.727078 12.6330601,60.390318 11.1431131,58.898078 C8.47742403,56.228928 6.30325442,53.198678 4.66401413,49.918418 L6.33058657,48.249538 Z M8.24946466,7.204244 C5.59663781,9.860744 3.3804364,12.837404 1.63186749,16.045444 L-2.29681979e-05,14.411294 C1.8089523,11.206704 4.04215018,8.264084 6.6749947,5.627594 C8.15713251,4.143404 9.73711484,2.787784 11.4043763,1.561194 L12.9969912,3.155784 C11.325136,4.365354 9.73665548,5.715224 8.24946466,7.204244 Z M1.63198233,52.954717 C3.38055124,56.162757 5.59675265,59.139417 8.24957951,61.795687 C9.73631095,63.284707 11.3250212,64.634577 12.9968763,65.844147 L11.4044912,67.438737 C9.737,66.212147 8.15678799,64.856527 6.67487986,63.372337 C4.04203534,60.736077 1.80906714,57.793227 9.18727915e-05,54.588867 L1.63198233,52.954717 Z" id="sep_arrow_01"></path>
            </g>
        </g>
    </g>
</svg>