<?xml version="1.0" encoding="UTF-8"?>
<svg width="48px" height="69px" viewBox="0 0 48 69" version="1.1" xmlns="http://www.w3.org/2000/svg" xmlns:xlink="http://www.w3.org/1999/xlink">
    <!-- Generator: Sketch 53.2 (72643) - https://sketchapp.com -->
    <title>sep_arrow_04</title>
    <desc>Created with Sketch.</desc>
    <g id="Page-1" stroke="none" stroke-width="1" fill="none" fill-rule="evenodd">
        <g id="Home-Desktop" transform="translate(-513.000000, -1291.000000)">
            <g id="arrow_separation" transform="translate(297.000000, 1291.000000)">
                <g id="sep_arrow_04" transform="translate(216.614314, -0.000023)">
                    <polygon id="Fill-18" fill="#F45919" points="9.69418728 4.60000001e-05 19.3899823 11.500506 29.0841696 22.999586 38.779735 34.500046 29.0841696 45.999126 19.3899823 57.499586 9.69418728 69.000046 -4.97379915e-14 57.499586 9.69418728 45.999126 19.3899823 34.500046 9.69418728 22.999586 -4.97379915e-14 11.500506"></polygon>
                    <polygon id="Fill-21" fill="#B93A24" points="37.1362456 22.99954 27.4418286 11.50046 17.7462633 -3.55271368e-15 9.6945318 -3.55271368e-15 19.3898675 11.50046 29.0840548 22.99954 38.7796201 34.5 46.831811 34.5"></polygon>
                    <polygon id="Fill-24" fill="#672110" points="38.779689 34.499977 29.0841237 45.999057 19.3899364 57.499517 9.69437102 68.999977 17.7463322 68.999977 27.4418975 57.499517 37.1363145 45.999057 46.8318799 34.499977"></polygon>
                </g>
            </g>
        </g>
    </g>
</svg>