<?xml version="1.0" encoding="UTF-8"?>
<svg width="22px" height="22px" viewBox="0 0 22 22" version="1.1" xmlns="http://www.w3.org/2000/svg" xmlns:xlink="http://www.w3.org/1999/xlink">
    <!-- Generator: Sketch 54.1 (76490) - https://sketchapp.com -->
    <title>twitter_speaker</title>
    <desc>Created with Sketch.</desc>
    <g id="FINAL" stroke="none" stroke-width="1" fill="none" fill-rule="evenodd">
        <g id="Speaker-Detail" transform="translate(-345.000000, -631.000000)" fill="#F45919">
            <g id="Group-11" transform="translate(345.000000, 631.000000)">
                <g id="twitter">
                    <path d="M22,11 C22,17.075135 17.075135,22 11,22 C4.924865,22 0,17.075135 0,11 C0,4.924865 4.924865,0 11,0 C17.075135,0 22,4.924865 22,11 Z M8.987319,16.802126 C13.864884,16.802126 16.532219,12.761221 16.532219,9.257281 C16.532219,9.142441 16.529854,9.028151 16.524629,8.914466 C17.042344,8.540191 17.492409,8.073186 17.847489,7.541446 C17.372344,7.752481 16.861064,7.894766 16.324649,7.958896 C16.872119,7.630656 17.292429,7.111181 17.490704,6.491991 C16.978214,6.795756 16.410944,7.016691 15.806934,7.135656 C15.323044,6.620251 14.633894,6.297896 13.871264,6.297896 C12.406724,6.297896 11.219164,7.485456 11.219164,8.949446 C11.219164,9.157566 11.242429,9.359911 11.287969,9.554061 C9.084119,9.443291 7.129804,8.388006 5.822124,6.783546 C5.594149,7.175311 5.462974,7.630656 5.462974,8.116306 C5.462974,9.036346 5.931134,9.848476 6.642999,10.323566 C6.208059,10.310201 5.799354,10.190686 5.441964,9.991861 C5.441359,10.002916 5.441359,10.014081 5.441359,10.025686 C5.441359,11.310101 6.355569,12.382271 7.568814,12.625426 C7.346119,12.685981 7.111709,12.718706 6.869819,12.718706 C6.698989,12.718706 6.532834,12.701766 6.371299,12.670856 C6.708889,13.724381 7.687779,14.491026 8.848554,14.512641 C7.940834,15.223956 6.797494,15.647786 5.555099,15.647786 C5.341094,15.647786 5.130059,15.635521 4.922489,15.611046 C6.096134,16.363171 7.489559,16.802126 8.987319,16.802126 Z" id="twitter_speaker"></path>
                </g>
            </g>
        </g>
    </g>
</svg>