<?xml version="1.0" encoding="UTF-8"?>
<svg width="426px" height="69px" viewBox="0 0 426 69" version="1.1" xmlns="http://www.w3.org/2000/svg" xmlns:xlink="http://www.w3.org/1999/xlink">
    <!-- Generator: Sketch 63.1 (92452) - https://sketch.com -->
    <title>arrows_new</title>
    <desc>Created with Sketch.</desc>
    <g id="Final" stroke="none" stroke-width="1" fill="none" fill-rule="evenodd">
        <g id="Hover-01" transform="translate(-507.000000, -1527.000000)">
            <g id="arrows_new" transform="translate(507.000000, 1527.000000)">
                <polygon id="Path" fill="#F45919" points="2.42650344e-12 11.5002234 11.5002234 0 46.0002234 34.5 11.5002234 69 0.000670176191 57.5004468 23.0004468 34.5006702"></polygon>
                <polygon id="Path" fill="#DB5643" points="76.0002234 11.5002234 87.5004468 0 122.000447 34.5 87.5004468 69 76.0008936 57.5004468 99.0006702 34.5006702"></polygon>
                <polygon id="Path" fill="#C1536D" points="152.000447 11.5002234 163.50067 0 198.00067 34.5 163.50067 69 152.001117 57.5004468 175.000894 34.5006702"></polygon>
                <polygon id="Path" fill="#A84F97" points="228.00067 11.5002234 239.500894 0 274.000894 34.5 239.500894 69 228.00134 57.5004468 251.001117 34.5006702"></polygon>
                <polygon id="Path" fill="#8E4CC1" points="304.000894 11.5002234 315.501117 0 350.001117 34.5 315.501117 69 304.001564 57.5004468 327.00134 34.5006702"></polygon>
                <polygon id="Path" fill="#7549EB" points="380.001117 11.5002234 391.50134 0 426.00134 34.5 391.50134 69 380.001787 57.5004468 403.001564 34.5006702"></polygon>
            </g>
        </g>
    </g>
</svg>