<?xml version="1.0" encoding="UTF-8"?>
<svg width="926px" height="500px" viewBox="0 0 926 500" version="1.1" xmlns="http://www.w3.org/2000/svg" xmlns:xlink="http://www.w3.org/1999/xlink">
    <!-- Generator: Sketch 63.1 (92452) - https://sketch.com -->
    <title>homepage_illustration</title>
    <desc>Created with Sketch.</desc>
    <g id="Final" stroke="none" stroke-width="1" fill="none" fill-rule="evenodd">
        <g id="Hover-01" transform="translate(-257.000000, -514.000000)">
            <g id="homepage_illustration" transform="translate(257.000000, 514.000000)">
                <path d="M216,482 C214.453301,484.177195 212.494053,486.314777 210.097819,488.406879 C207.573651,490.610482 204.590937,492.566142 201.156862,494.272394 C197.718475,495.98158 193.902038,497.363599 189.704675,498.416986 C185.507313,499.47184 180.976462,500 176.109246,500 C168.505121,500 161.601035,498.726547 155.396989,496.182574 C149.191505,493.638601 143.870054,490.174749 139.429762,485.799821 C138.20649,484.593854 137.068027,483.323335 136,482 L136,482 Z M492,482 C491.149179,483.198249 490.241734,484.351253 489.277664,485.454634 C485.283452,490.025784 480.368728,493.594259 474.532039,496.157139 C468.692446,498.7171 462.057205,500 454.624864,500 C447.127188,500 440.446937,498.7171 434.579758,496.157139 C428.712579,493.594259 423.764461,490.025784 419.742663,485.454634 C418.771333,484.351253 417.856628,483.198249 417,482 L417,482 Z M923,482 C921.453301,484.177195 919.494053,486.314777 917.097819,488.406879 C914.573651,490.610482 911.590937,492.566142 908.155425,494.272394 C904.719912,495.98158 900.902038,497.363599 896.704675,498.416986 C892.507313,499.47184 887.976462,500 883.109246,500 C875.506558,500 868.601035,498.726547 862.396989,496.182574 C856.191505,493.638601 850.870054,490.174749 846.428325,485.799821 C845.20649,484.593854 844.068027,483.323335 843,482 L843,482 Z M26,482 L26,498 L0,498 L0,482 L26,482 Z M331,482 L324.968972,498 L301.059892,498 L295,482 L331,482 Z M641,482 L641,498 L557,498 L557,482 L641,482 Z M755,482 L748.968972,498 L725.059892,498 L719,482 L755,482 Z" id="Combined-Shape" fill="#7549EB"></path>
                <path d="M436.493982,421 C437.12003,422.597051 437.860298,424.080444 438.713342,425.448721 C440.425214,428.19256 442.644574,430.366648 445.367086,431.969528 C448.089598,433.572408 451.378878,434.372391 455.233481,434.372391 C458.963741,434.372391 462.177838,433.572408 464.869987,431.969528 C467.562137,430.366648 469.748243,428.19256 471.431198,425.448721 C472.269783,424.080444 472.999931,422.597051 473.617304,421 L473.617304,421 L499.81877,421 C499.518035,422.127845 499.194168,423.245489 498.828371,424.338362 C496.747811,430.534222 493.717336,435.916985 489.741283,440.477907 C485.763784,445.041743 480.869624,448.603051 475.057358,451.161831 C474.55999,451.380405 474.049609,451.577123 473.539229,451.776754 C468.099988,453.91587 462.002892,455 455.233481,455 C448.292015,455 442.063348,453.877984 436.524345,451.667467 C436.106498,451.499893 435.681421,451.341062 435.272249,451.161831 C429.42962,448.603051 424.502206,445.041743 420.497237,440.477907 C416.487929,435.916985 413.442996,430.534222 411.363882,424.338362 C410.996639,423.245489 410.675663,422.127845 410.373483,421 L410.373483,421 Z M154.726292,421 C155.350894,422.12493 156.042004,423.184288 156.801069,424.182445 C157.830505,425.534693 158.969825,426.780568 160.249391,427.898213 C162.572852,429.93387 165.236085,431.50615 168.233306,432.615052 C171.230527,433.726868 174.505348,434.28059 178.053433,434.28059 C180.560515,434.28059 183.054585,434.034329 185.534196,433.541808 C188.010916,433.047829 190.382089,432.323619 192.646271,431.36772 C194.909006,430.41182 197.018483,429.225689 198.979038,427.806412 C200.935257,426.388591 202.65002,424.72451 204.118991,422.811254 L204.118991,422.811254 L216.874168,436.686367 C215.635086,438.467021 214.093823,440.218532 212.274959,441.942356 C211.763133,442.427592 211.23974,442.91137 210.680201,443.393691 C208.14131,445.580894 205.141198,447.523293 201.687092,449.217975 C198.228649,450.91557 194.38995,452.286761 190.168105,453.334462 C185.94626,454.382163 181.38898,454.906742 176.493375,454.906742 C168.844895,454.906742 161.900538,453.641923 155.660303,451.115202 C155.144139,450.906827 154.646771,450.682424 154.142174,450.460935 C148.551121,448.004157 143.695999,444.789654 139.599941,440.802854 C135.132304,436.454678 131.69121,431.337119 129.27377,425.448721 C128.675194,423.991557 128.153246,422.508164 127.702145,421 L127.702145,421 Z M861.852124,421 C862.476726,422.12493 863.16639,423.184288 863.925455,424.182445 C864.954891,425.534693 866.094211,426.780568 867.373777,427.898213 C869.698684,429.93387 872.36047,431.50615 875.359137,432.615052 C878.354912,433.726868 881.628288,434.28059 885.177819,434.28059 C887.684901,434.28059 890.180417,434.034329 892.658582,433.541808 C895.135302,433.047829 897.507921,432.323619 899.770656,431.36772 C902.034838,430.41182 904.144315,429.225689 906.103424,427.806412 C908.061088,426.388591 909.774406,424.72451 911.243376,422.811254 L911.243376,422.811254 L924,436.686367 C922.759471,438.467021 921.218209,440.218532 919.399345,441.942356 C918.886073,442.427592 918.36268,442.91137 917.804587,443.393691 C915.265696,445.580894 912.265583,447.523293 908.810032,449.217975 C905.354481,450.91557 901.514336,452.286761 897.292491,453.334462 C893.070646,454.382163 888.513366,454.906742 883.617761,454.906742 C875.970726,454.906742 869.024923,453.641923 862.784689,451.115202 C862.268525,450.906827 861.771157,450.682424 861.26656,450.460935 C855.675507,448.004157 850.820384,444.789654 846.722881,440.802854 C842.256689,436.454678 838.815596,431.337119 836.398156,425.448721 C835.801025,423.991557 835.277632,422.508164 834.826531,421 L834.826531,421 Z M25.5132473,421 L25.5132473,453.057601 L0,453.057601 L0,421 L25.5132473,421 Z M311.501336,421 L312.238713,423.366434 L313.522617,430.580851 L314.807967,423.643295 L315.624865,421 L337.629064,421 L325.546201,453.057601 L301.593012,453.057601 L289.45087,421 L311.501336,421 Z M612.861569,421 L612.861569,432.154588 L641.314204,432.154588 L641.314204,453.057601 L557.337074,453.057601 L557.337074,432.154588 L587.073613,432.154588 L587.073613,421 L612.861569,421 Z M735.20544,421 L735.942817,423.366434 L737.226721,430.580851 L738.512071,423.643295 L739.328969,421 L761.333169,421 L749.250305,453.057601 L725.297116,453.057601 L713.154974,421 L735.20544,421 Z" id="Combined-Shape" fill="#8E4CC1"></path>
                <path d="M434.329563,352 C434.501618,353.192718 434.699698,354.369686 434.949828,355.509426 C435.745038,359.113354 437.000025,362.266253 438.713342,364.960965 C438.943231,365.321788 439.203481,365.64395 439.447828,365.983295 C440.324005,367.191764 441.312958,368.272799 442.416132,369.227832 C443.329901,370.019637 444.298612,370.749872 445.367086,371.368425 C448.089598,372.944874 451.378878,373.732383 455.233481,373.732383 C458.963741,373.732383 462.177838,372.944874 464.869987,371.368425 C465.919665,370.754168 466.871026,370.028228 467.767445,369.24215 C468.86339,368.284253 469.843668,367.197491 470.708279,365.984727 C470.949734,365.645382 471.207093,365.321788 471.431198,364.960965 C473.115598,362.266253 474.353235,359.113354 475.148446,355.509426 C475.400021,354.369686 475.598101,353.192718 475.770156,352 L475.770156,352 L501.482928,352 C500.988452,356.16807 500.106491,360.127092 498.828371,363.871339 C498.591254,364.565779 498.336786,365.247332 498.07509,365.921726 C496.040796,371.153649 493.264789,375.759861 489.741283,379.730338 C489.361027,380.159888 488.964868,380.572257 488.565817,380.983193 C485.121832,384.545597 481.047462,387.426448 476.342707,389.634337 C475.914739,389.833362 475.495447,390.039546 475.057358,390.228548 C472.71221,391.242287 470.232598,392.04125 467.628645,392.646916 C463.776934,393.541813 459.649068,394 455.233481,394 C450.721022,394 446.512189,393.53179 442.592524,392.613984 C440.026163,392.012614 437.582698,391.223673 435.272249,390.228548 C434.757531,390.006614 434.260163,389.767497 433.757012,389.532677 C429.108644,387.331947 425.073312,384.472574 421.652461,380.954556 C421.26353,380.553643 420.871709,380.149865 420.497237,379.730338 C416.94626,375.759861 414.154348,371.152218 412.117163,365.921726 C411.855466,365.247332 411.602445,364.565779 411.363882,363.871339 C410.084315,360.127092 409.202355,356.16807 408.709324,352 L408.709324,352 Z M151.700155,352 C152.227885,354.978216 153.151775,357.733065 154.513754,360.235912 C155.530178,362.107319 156.753356,363.788293 158.14859,365.308901 C158.810783,366.030546 159.501893,366.726417 160.249391,367.370743 C160.941947,367.966386 161.676433,368.509051 162.429714,369.024512 C164.202311,370.237275 166.131058,371.23956 168.233306,372.005591 C171.230527,373.095217 174.505348,373.640746 178.053433,373.640746 C180.560515,373.640746 183.054585,373.400198 185.534196,372.913374 C187.783919,372.473801 189.941109,371.838066 192.012994,371.021921 C192.200953,370.948897 192.391803,370.881601 192.578316,370.804282 L192.578316,370.804282 L192.646271,370.778509 C194.909006,369.839225 197.018483,368.67228 198.979038,367.279105 C200.935257,365.885931 202.65002,364.250776 204.118991,362.370777 L204.118991,362.370777 L216.874168,376.004705 C215.285193,378.246957 213.217645,380.443391 210.680201,382.594007 C210.200183,383.00208 209.68691,383.391539 209.172192,383.780998 C206.973074,385.450516 204.487679,386.969693 201.687092,388.318481 C198.228649,389.986568 194.38995,391.335356 190.168105,392.363413 C189.241323,392.591075 188.292854,392.780077 187.334264,392.956193 C183.924979,393.583336 180.316169,393.908363 176.493375,393.908363 C171.174139,393.908363 166.204796,393.294106 161.566549,392.091365 C159.535148,391.565881 157.56158,390.94017 155.660303,390.182729 C149.797433,387.848839 144.729772,384.715985 140.432744,380.805646 C140.153697,380.553643 139.870313,380.308799 139.599941,380.049637 C135.495209,376.123547 132.2681,371.551699 129.89548,366.349845 C129.684388,365.888794 129.468958,365.432039 129.27377,364.960965 C127.556115,360.850169 126.461616,356.526029 125.965694,352 L125.965694,352 Z M858.82454,352 C859.353717,354.978216 860.276161,357.733065 861.63814,360.235912 C862.654564,362.107319 863.877742,363.788293 865.274421,365.308901 C865.936615,366.030546 866.626279,366.726417 867.373777,367.370743 C868.066333,367.966386 868.800819,368.509051 869.555546,369.024512 C871.326697,370.237275 873.255444,371.23956 875.359137,372.005591 C878.354912,373.095217 881.628288,373.640746 885.177819,373.640746 C887.684901,373.640746 890.180417,373.400198 892.658582,372.913374 C894.908305,372.473801 897.065495,371.838066 899.13738,371.021921 C899.326784,370.948897 899.516189,370.881601 899.702702,370.804282 L899.702702,370.804282 L899.770656,370.778509 C902.034838,369.839225 904.144315,368.67228 906.103424,367.279105 C908.061088,365.885931 909.774406,364.250776 911.243376,362.370777 L911.243376,362.370777 L924,376.004705 C922.408133,378.246957 920.343477,380.443391 917.804587,382.594007 C917.324569,383.00208 916.811296,383.391539 916.296578,383.780998 C914.097459,385.450516 911.612065,386.969693 908.810032,388.318481 C905.354481,389.986568 901.514336,391.335356 897.292491,392.363413 C896.365709,392.591075 895.41724,392.780077 894.460096,392.956193 C891.049365,393.583336 887.440555,393.908363 883.617761,393.908363 C878.299971,393.908363 873.329182,393.294106 868.690935,392.091365 C866.659533,391.565881 864.685965,390.94017 862.784689,390.182729 C856.921818,387.848839 851.854158,384.715985 847.557129,380.805646 C847.279529,380.553643 846.994699,380.308799 846.722881,380.049637 C842.619595,376.123547 839.392485,371.551699 837.019866,366.349845 C836.808774,365.888794 836.59479,365.432039 836.398156,364.960965 C834.680501,360.850169 833.586002,356.526029 833.09008,352 L833.09008,352 Z M25.5132473,352 L25.5132473,392.091365 L0,392.091365 L0,352 L25.5132473,352 Z M308.775933,352 L312.238713,362.916306 L313.522617,370.005318 L314.807967,363.188354 L318.328581,352 L340.922682,352 L325.546201,392.091365 L301.593012,392.091365 L286.139902,352 L308.775933,352 Z M612.861569,352 L612.861569,371.550268 L641.314204,371.550268 L641.314204,392.091365 L557.337074,392.091365 L557.337074,371.550268 L587.073613,371.550268 L587.073613,352 L612.861569,352 Z M732.480037,352 L735.942817,362.916306 L737.226721,370.005318 L738.512071,363.188354 L742.032685,352 L764.626786,352 L749.250305,392.091365 L725.297116,392.091365 L709.844006,352 L732.480037,352 Z" id="Combined-Shape" fill="#A84F97"></path>
                <path d="M433.93057,268 C433.822134,269.434673 433.748398,270.888185 433.748398,272.383724 L433.748398,272.383724 L433.748398,274.31546 C433.748398,276.668904 433.890087,278.93105 434.14455,281.119289 C434.312263,282.580047 434.539255,284.003127 434.819742,285.389978 C434.864562,285.605903 434.89637,285.830524 434.94119,286.043551 C435.736385,289.692548 436.991347,292.88216 438.70463,295.610937 C440.046341,297.748455 441.709021,299.525132 443.670983,300.967051 C444.213162,301.365571 444.766906,301.7496 445.358242,302.09595 C448.0807,303.690031 451.369915,304.485623 455.224441,304.485623 C458.954627,304.485623 462.16866,303.690031 464.860756,302.09595 C465.440525,301.752498 465.984149,301.371368 466.514761,300.975746 C468.459374,299.533827 470.100367,297.752803 471.421836,295.610937 C473.106203,292.88216 474.343815,289.692548 475.13901,286.043551 C475.186722,285.830524 475.218529,285.605903 475.26335,285.389978 C475.546728,283.995881 475.772274,282.564106 475.94288,281.096103 C476.193005,278.915109 476.333248,276.660209 476.333248,274.31546 L476.333248,274.31546 L476.333248,272.383724 C476.333248,270.888185 476.260958,269.434673 476.151076,268 L476.151076,268 L501.795385,268 C501.88358,269.439021 501.93852,270.89833 501.93852,272.383724 L501.93852,272.383724 L501.93852,274.31546 C501.93852,278.165891 501.640684,281.855465 501.060914,285.389978 C500.541869,288.553505 499.800169,291.595302 498.818465,294.506674 C498.05797,296.758676 497.165906,298.900542 496.152394,300.936618 C494.39429,304.469682 492.255939,307.679582 489.731557,310.557623 C485.959442,314.861643 481.354542,318.257036 475.932759,320.768439 C475.636368,320.90466 475.348652,321.051026 475.047924,321.1829 C472.073896,322.48425 468.887333,323.447944 465.495466,324.085577 C462.259746,324.691328 458.838963,325 455.224441,325 C451.528954,325 448.031542,324.685531 444.733653,324.060941 C441.370702,323.424758 438.21161,322.468309 435.263606,321.1829 C434.889141,321.020593 434.527689,320.840897 434.161899,320.669896 C428.805178,318.168637 424.237868,314.805125 420.488886,310.557623 C417.944263,307.678133 415.790008,304.465334 414.02323,300.929372 C413.006826,298.894745 412.116208,296.757227 411.355713,294.506674 C410.374009,291.595302 409.632309,288.553505 409.111818,285.389978 C408.533494,281.855465 408.235657,278.165891 408.235657,274.31546 L408.235657,274.31546 L408.235657,272.383724 C408.235657,270.89833 408.292044,269.439021 408.378793,268 L408.378793,268 Z M218.841945,268 C218.873752,268.899931 218.889656,269.807109 218.889656,270.727328 L218.889656,270.727328 L218.889656,281.581573 L151.526537,281.581573 C151.542441,281.688811 151.569911,281.790252 151.587261,281.897491 C151.77377,283.101747 152.038353,284.261078 152.354985,285.389978 C152.894272,287.305774 153.596935,289.127374 154.510686,290.827244 C156.008544,293.618336 157.918457,296.023949 160.246209,298.046983 C161.168635,298.85127 162.161906,299.56281 163.192767,300.220731 C164.754241,301.220654 166.42415,302.072763 168.229965,302.73793 C171.227126,303.843643 174.501883,304.394325 178.049898,304.394325 C180.55693,304.394325 183.05095,304.149417 185.530512,303.659599 C186.441371,303.479902 187.33199,303.25818 188.215379,303.01472 C189.730586,302.597361 191.209649,302.098848 192.642445,301.497445 C194.905136,300.546793 197.014571,299.367173 198.975087,297.955686 C200.931266,296.545649 202.645995,294.890702 204.114937,292.987949 L204.114937,292.987949 L215.805746,305.633361 L216.869862,306.786896 C216.716606,307.00572 216.53588,307.224544 216.373949,307.443368 C214.852958,309.485241 212.967624,311.490886 210.676017,313.457402 C208.137177,315.632599 205.137124,317.564335 201.683087,319.249714 C198.224712,320.937991 194.38609,322.301655 190.164329,323.343605 C188.527673,323.747922 186.824511,324.049348 185.086649,324.297155 C182.342504,324.68698 179.487031,324.907253 176.48987,324.907253 C172.466184,324.907253 168.64202,324.550759 165.007257,323.853711 C161.733946,323.226222 158.613891,322.326291 155.657212,321.136527 C149.415656,318.622226 144.063272,315.203646 139.597169,310.880787 C136.614466,307.992602 134.098758,304.756617 132.031252,301.185874 C131.001836,299.410648 130.075073,297.557166 129.271203,295.610937 C127.919372,292.335825 126.959355,288.924491 126.363682,285.389978 C125.89524,282.604683 125.646561,279.744032 125.646561,276.79788 L125.646561,276.79788 L125.646561,273.11845 C125.646561,271.376554 125.717405,269.673785 125.843191,268 L125.843191,268 Z M925.952288,268 C925.985542,268.899931 926,269.807109 926,270.727328 L926,270.727328 L926,281.581573 L858.63688,281.581573 C858.652784,281.688811 858.680255,281.790252 858.697604,281.897491 C858.884114,283.101747 859.148697,284.261078 859.466775,285.389978 C860.004615,287.305774 860.707278,289.127374 861.621029,290.827244 C863.118887,293.618336 865.028801,296.023949 867.356553,298.046983 C868.278979,298.85127 869.272249,299.56281 870.303111,300.220731 C871.864584,301.220654 873.534493,302.072763 875.341754,302.73793 C878.33747,303.843643 881.610781,304.394325 885.160241,304.394325 C887.667274,304.394325 890.162739,304.149417 892.640855,303.659599 C893.551715,303.479902 894.443779,303.25818 895.325722,303.01472 C896.84093,302.597361 898.321438,302.098848 899.752789,301.497445 C902.016925,300.546793 904.12636,299.367173 906.085431,297.955686 C908.043056,296.545649 909.756339,294.890702 911.225281,292.987949 L911.225281,292.987949 L922.91609,305.633361 L923.981651,306.786896 C923.826949,307.00572 923.646223,307.224544 923.484293,307.443368 C921.964748,309.485241 920.077967,311.490886 917.786361,313.457402 C915.247521,315.632599 912.247467,317.564335 908.791985,319.249714 C905.336502,320.937991 901.496434,322.301655 897.274672,323.343605 C895.639463,323.747922 893.9363,324.049348 892.196992,324.297155 C889.452847,324.68698 886.597375,324.907253 883.600214,324.907253 C879.576528,324.907253 875.750918,324.550759 872.116155,323.853711 C868.84429,323.226222 865.724235,322.326291 862.767556,321.136527 C856.526,318.622226 851.173616,315.203646 846.706067,310.880787 C843.724809,307.992602 841.210548,304.756617 839.141596,301.185874 C838.113626,299.410648 837.185416,297.557166 836.381547,295.610937 C835.029716,292.335825 834.069699,288.924491 833.474025,285.389978 C833.005583,282.604683 832.756904,279.744032 832.756904,276.79788 L832.756904,276.79788 L832.756904,273.11845 C832.756904,271.376554 832.827749,269.673785 832.953534,268 L832.953534,268 Z M25.5127406,268 L25.5127406,323.068263 L0,323.068263 L0,268 L25.5127406,268 Z M304.229962,268 L309.679215,285.389978 L312.232513,293.540081 L313.516391,300.714896 L314.801715,293.815422 L317.42152,285.389978 L322.825953,268 L346.408539,268 L342.389191,278.606437 L339.818543,285.389978 L325.539736,323.068263 L301.587023,323.068263 L287.238818,285.389978 L284.653712,278.606437 L280.615568,268 L304.229962,268 Z M612.849399,268 L612.849399,302.279994 L641.301468,302.279994 L641.301468,323.068263 L557.326006,323.068263 L557.326006,302.279994 L587.061954,302.279994 L587.061954,268 L612.849399,268 Z M727.925652,268 L733.374905,285.389978 L735.928203,293.540081 L737.212081,300.714896 L738.497405,293.815422 L741.11721,285.389978 L746.520198,268 L770.104229,268 L766.084881,278.606437 L763.514233,285.389978 L749.235426,323.068263 L725.282713,323.068263 L710.933062,285.389978 L708.349402,278.606437 L704.309812,268 L727.925652,268 Z" id="Combined-Shape" fill="#C1536D"></path>
                <path d="M437.488705,170 C436.385553,172.204853 435.535418,174.647173 434.94119,177.325522 C434.147441,180.919202 433.748398,184.724444 433.748398,188.744127 L433.748398,188.744127 L433.748398,190.662579 C433.748398,194.804593 434.147441,198.688991 434.94119,202.311455 C435.59325,205.276205 436.567725,207.920013 437.834253,210.271664 C438.116186,210.795532 438.393781,211.319401 438.70463,211.811607 C440.416468,214.521618 442.635784,216.668903 445.358242,218.252022 C448.0807,219.83658 451.369915,220.628139 455.224441,220.628139 C458.954627,220.628139 462.16866,219.83658 464.860756,218.252022 C467.552852,216.668903 469.738914,214.521618 471.421836,211.811607 C471.728347,211.319401 472.003051,210.795532 472.280646,210.271664 C473.525487,207.918574 474.489842,205.276205 475.13901,202.311455 C475.934205,198.688991 476.333248,194.804593 476.333248,190.662579 L476.333248,190.662579 L476.333248,188.744127 C476.333248,184.724444 475.934205,180.919202 475.13901,177.325522 C474.547674,174.647173 473.706214,172.204853 472.618965,170 L472.618965,170 L499.201604,170 C501.01754,175.787019 501.93852,182.030264 501.93852,188.744127 L501.93852,188.744127 L501.93852,190.662579 C501.93852,197.911824 500.897538,204.594024 498.818465,210.716376 C497.087832,215.809701 494.689235,220.335982 491.644362,224.311049 C491.548939,224.437699 491.456407,224.565788 491.360984,224.689559 C490.834709,225.358786 490.295423,226.017939 489.731557,226.656944 C485.754138,231.164515 480.860075,234.683356 475.047924,237.210589 C474.121161,237.612126 473.165481,237.971925 472.196789,238.310137 C467.098868,240.094744 461.445756,241 455.224441,241 C448.878786,241 443.124468,240.076034 437.949918,238.249691 C437.039059,237.92875 436.13832,237.587659 435.263606,237.210589 C429.421093,234.683356 424.493776,231.164515 420.488886,226.656944 C419.920683,226.017939 419.378505,225.358786 418.849339,224.689559 C418.743795,224.558592 418.649818,224.423307 418.545719,224.290901 C415.487834,220.320151 413.082008,215.799627 411.355713,210.716376 C409.275194,204.594024 408.235657,197.911824 408.235657,190.662579 L408.235657,190.662579 L408.235657,188.744127 C408.235657,182.030264 409.155192,175.787019 410.972573,170 L410.972573,170 Z M155.542993,170 C155.266844,170.510916 154.993586,171.027588 154.739124,171.570166 C153.513078,174.189508 152.596435,177.112521 151.986304,180.340644 L151.986304,180.340644 L193.835237,180.340644 L193.835237,178.330083 C193.710898,175.651734 193.193298,173.123062 192.27521,170.748383 C192.176895,170.490767 192.054001,170.250421 191.942674,170 L191.942674,170 L216.700702,170 C218.156631,175.251637 218.889656,180.949425 218.889656,187.100561 L218.889656,187.100561 L218.889656,197.880161 L151.526537,197.880161 C152.016666,201.230616 153.009936,204.290353 154.510686,207.06225 C155.146842,208.238076 155.872638,209.331867 156.659158,210.370969 C157.723273,211.778505 158.90739,213.076663 160.246209,214.232339 C162.569624,216.2429 165.232803,217.795796 168.229965,218.892465 C171.227126,219.987696 174.501883,220.53747 178.049898,220.53747 C180.55693,220.53747 183.05095,220.294245 185.530512,219.804918 C188.007182,219.319908 190.378308,218.604626 192.642445,217.659072 C194.884894,216.723593 196.974088,215.565038 198.917255,214.180528 C198.937496,214.166136 198.956292,214.154623 198.975087,214.14167 C200.931266,212.742769 202.645995,211.097764 204.114937,209.208096 L204.114937,209.208096 L216.869862,222.910709 C216.450577,223.506537 215.99081,224.100926 215.505018,224.689559 C214.543555,225.852431 213.447632,227.003791 212.228816,228.142197 C211.730012,228.608497 211.219641,229.073359 210.676017,229.535341 C208.137177,231.697018 205.137124,233.61547 201.683087,235.289259 C198.700383,236.737093 195.41406,237.92875 191.863154,238.89733 C191.299289,239.049885 190.742652,239.213954 190.164329,239.356435 C185.942567,240.38978 181.385378,240.90933 176.48987,240.90933 C169.181307,240.90933 162.523358,239.753654 156.500119,237.473963 C156.219632,237.368901 155.933362,237.273914 155.657212,237.163096 C149.415656,234.667525 144.063272,231.269576 139.597169,226.977885 C138.829445,226.239576 138.105094,225.472483 137.398094,224.689559 C137.270863,224.549956 137.146523,224.408915 137.020738,224.267873 C133.790801,220.596477 131.199912,216.450145 129.271203,211.811607 C126.853811,205.995804 125.646561,199.76983 125.646561,193.130805 L125.646561,193.130805 L125.646561,189.47524 C125.646561,182.407334 126.706338,175.922304 128.795532,170 L128.795532,170 Z M862.654783,170 C862.377187,170.510916 862.10393,171.027588 861.849467,171.570166 C860.624867,174.189508 859.706779,177.112521 859.096647,180.340644 L859.096647,180.340644 L900.945581,180.340644 L900.945581,178.330083 C900.822687,175.651734 900.303642,173.123062 899.385553,170.748383 C899.285792,170.490767 899.164344,170.250421 899.053017,170 L899.053017,170 L923.811046,170 C925.266975,175.251637 926,180.949425 926,187.100561 L926,187.100561 L926,197.880161 L858.63688,197.880161 C859.128455,201.230616 860.12028,204.290353 861.621029,207.06225 C862.257185,208.238076 862.982981,209.331867 863.768055,210.370969 C864.833616,211.778505 866.017734,213.076663 867.356553,214.232339 C869.681413,216.2429 872.343147,217.795796 875.341754,218.892465 C878.33747,219.987696 881.610781,220.53747 885.160241,220.53747 C887.667274,220.53747 890.162739,220.294245 892.640855,219.804918 C895.117526,219.319908 897.490098,218.604626 899.752789,217.659072 C901.995238,216.723593 904.085877,215.565038 906.027598,214.180528 C906.046394,214.166136 906.066635,214.154623 906.085431,214.14167 C908.043056,212.742769 909.756339,211.097764 911.225281,209.208096 L911.225281,209.208096 L923.981651,222.910709 C923.560921,223.506537 923.101154,224.100926 922.615362,224.689559 C921.653899,225.852431 920.557976,227.003791 919.339159,228.142197 C918.840355,228.608497 918.329985,229.073359 917.786361,229.535341 C915.247521,231.697018 912.247467,233.61547 908.791985,235.289259 C905.810727,236.737093 902.524404,237.92875 898.973498,238.89733 C898.409632,239.049885 897.852996,239.213954 897.274672,239.356435 C893.052911,240.38978 888.495722,240.90933 883.600214,240.90933 C876.291651,240.90933 869.633701,239.753654 863.610462,237.473963 C863.331421,237.368901 863.045151,237.273914 862.767556,237.163096 C856.526,234.667525 851.173616,231.269576 846.706067,226.977885 C845.939788,226.239576 845.215438,225.472483 844.508438,224.689559 C844.381206,224.549956 844.256867,224.408915 844.131081,224.267873 C840.901145,220.596477 838.310256,216.450145 836.381547,211.811607 C833.964155,205.995804 832.756904,199.76983 832.756904,193.130805 L832.756904,193.130805 L832.756904,189.47524 C832.756904,182.407334 833.816682,175.922304 835.905876,170 L835.905876,170 Z M0,170 L12.5062454,170.11977 L25.5127406,170.11977 L25.5127406,239.081548 L0,239.081548 L0,170 Z M299.688676,170 L312.232513,209.756431 L313.516391,216.881905 L314.801715,210.031318 L327.329648,170 L351.901167,170 L336.89801,209.316036 L335.488346,213.00902 L331.032364,224.689559 L325.539736,239.081548 L301.587023,239.081548 L296.068371,224.689559 L290.879364,211.15965 L290.173809,209.316036 L275.098362,170 L299.688676,170 Z M612.849399,170 L612.849399,218.4348 L641.301468,218.4348 L641.301468,239.081548 L557.326006,239.081548 L557.326006,218.4348 L587.061954,218.4348 L587.061954,170 L612.849399,170 Z M723.384367,170 L735.928203,209.756431 L737.212081,216.881905 L738.497405,210.031318 L751.025338,170 L775.596857,170 L760.5937,209.316036 L759.184036,213.00902 L754.728054,224.689559 L749.235426,239.081548 L725.282713,239.081548 L719.764062,224.689559 L714.575054,211.15965 L713.869499,209.316036 L698.792606,170 L723.384367,170 Z" id="Combined-Shape" fill="#DB5643"></path>
                <path d="M455.040823,39.860239 C462.504088,39.860239 469.143241,41.145073 474.955392,43.7176348 C480.768989,46.2887497 485.67751,49.8408528 489.686737,54.372497 C493.693073,58.9026944 496.737946,64.2445944 498.818465,70.3967501 C500.47247,75.2872219 501.457066,80.5220524 501.795385,86.0896664 C501.88358,87.5264234 501.93852,88.9834367 501.93852,90.466494 L501.93852,90.466494 L501.93852,92.3951919 C501.93852,99.6817055 500.897538,106.399593 498.818465,112.554643 C496.737946,118.706798 493.707531,124.051592 489.731557,128.580343 C488.167192,130.362905 486.455355,131.984863 484.607611,133.460686 C481.756476,135.733743 478.572806,137.647972 475.047924,139.188905 C469.232881,141.728188 462.625536,143 455.224441,143 C447.758285,143 441.106119,141.728188 435.263606,139.188905 C431.701133,137.640737 428.484209,135.71638 425.604158,133.427408 C423.762197,131.961713 422.053251,130.349883 420.488886,128.580343 C416.479659,124.051592 413.434786,118.706798 411.355713,112.554643 C409.275194,106.399593 408.235657,99.6817055 408.235657,92.3951919 L408.235657,92.3951919 L408.235657,90.466494 C408.235657,88.9834367 408.292044,87.5264234 408.378793,86.0896664 C408.717112,80.5220524 409.703153,75.2872219 411.355713,70.3967501 C413.434786,64.2445944 416.479659,58.9026944 420.488886,54.372497 C424.493776,49.8408528 429.389285,46.2887497 435.17252,43.7176348 C440.952863,41.145073 447.574667,39.860239 455.040823,39.860239 Z M173.644518,39.860239 C180.802717,39.860239 187.183071,41.0394504 192.779797,43.3949794 C198.379414,45.7534022 203.118775,49.0754505 207.005109,53.3611243 C210.889997,57.648245 213.842338,62.8063906 215.862133,68.8384548 C217.62602,74.1080105 218.620736,79.859379 218.841945,86.0896664 C218.873752,86.9867352 218.889656,87.8939322 218.889656,88.8127043 L218.889656,88.8127043 L218.889656,99.649874 L151.526537,99.649874 C152.016666,103.018223 153.009936,106.0943 154.510686,108.881001 C156.008544,111.667702 157.918457,114.069531 160.246209,116.089383 C162.569624,118.110682 165.232803,119.671871 168.229965,120.77295 C171.227126,121.876924 174.501883,122.42674 178.049898,122.42674 C180.55693,122.42674 183.05095,122.182216 185.530512,121.693169 C188.007182,121.202675 190.378308,120.48502 192.642445,119.534417 C194.905136,118.58526 197.014571,117.407495 198.975087,115.998229 C200.931266,114.59041 202.645995,112.938067 204.114937,111.038307 L204.114937,111.038307 L216.869862,124.815547 C215.280918,127.08137 213.213411,129.300891 210.676017,131.47556 C209.032133,132.881932 207.174268,134.175447 205.144353,135.377809 C204.038309,136.031801 202.900458,136.666984 201.683087,137.25876 C198.224712,138.944381 194.38609,140.3059 190.164329,141.34621 C185.942567,142.387968 181.385378,142.908846 176.48987,142.908846 C168.841542,142.908846 161.897323,141.651503 155.657212,139.142604 C151.647985,137.529327 148.007438,135.538413 144.731236,133.181437 C142.908071,131.867666 141.193342,130.446824 139.597169,128.902998 C135.12962,124.585493 131.688595,119.504032 129.271203,113.657169 C126.853811,107.810306 125.646561,101.549634 125.646561,94.8737062 L125.646561,94.8737062 L125.646561,91.2000648 C125.646561,89.4609088 125.717405,87.7608188 125.843191,86.0896664 C126.263921,80.4685176 127.385869,75.2365809 129.226383,70.3967501 C131.611967,64.1230561 134.946002,58.71894 139.228488,54.1887426 C143.510973,49.6585452 148.590099,46.1368268 154.462974,43.626481 C160.337295,41.1161353 166.729215,39.860239 173.644518,39.860239 Z M880.754862,39.860239 C887.913061,39.860239 894.293415,41.0394504 899.89014,43.3949794 C905.488312,45.7534022 910.229119,49.0754505 914.115452,53.3611243 C918.00034,57.648245 920.952682,62.8063906 922.972477,68.8384548 C924.737809,74.1080105 925.73108,79.859379 925.952288,86.0896664 C925.985542,86.9867352 926,87.8939322 926,88.8127043 L926,88.8127043 L926,99.649874 L858.63688,99.649874 C859.128455,103.018223 860.12028,106.0943 861.621029,108.881001 C863.118887,111.667702 865.028801,114.069531 867.356553,116.089383 C869.681413,118.110682 872.343147,119.671871 875.341754,120.77295 C878.33747,121.876924 881.610781,122.42674 885.160241,122.42674 C887.667274,122.42674 890.162739,122.182216 892.640855,121.693169 C895.117526,121.202675 897.490098,120.48502 899.752789,119.534417 C902.016925,118.58526 904.12636,117.407495 906.085431,115.998229 C908.043056,114.59041 909.756339,112.938067 911.225281,111.038307 L911.225281,111.038307 L923.981651,124.815547 C922.389816,127.08137 920.325201,129.300891 917.786361,131.47556 C916.142476,132.881932 914.283166,134.175447 912.254697,135.379256 C911.150099,136.031801 910.00791,136.666984 908.791985,137.25876 C905.336502,138.944381 901.496434,140.3059 897.274672,141.34621 C893.052911,142.387968 888.495722,142.908846 883.600214,142.908846 C875.953331,142.908846 869.007666,141.651503 862.767556,139.142604 C858.758328,137.529327 855.119228,135.538413 851.841579,133.181437 C850.01986,131.867666 848.303685,130.446824 846.706067,128.902998 C842.239964,124.585493 838.798939,119.504032 836.381547,113.657169 C833.964155,107.810306 832.756904,101.549634 832.756904,94.8737062 L832.756904,94.8737062 L832.756904,91.2000648 C832.756904,89.4609088 832.827749,87.7608188 832.953534,86.0896664 C833.374265,80.4685176 834.496212,75.2365809 836.336727,70.3967501 C838.722311,64.1230561 842.056346,58.71894 846.338831,54.1887426 C850.621317,49.6585452 855.700443,46.1368268 861.574764,43.626481 C867.447639,41.1161353 873.839559,39.860239 880.754862,39.860239 Z M57.9104223,39.860239 C61.7635025,39.860239 65.327421,40.1221252 68.600732,40.6401101 C71.8740429,41.1609887 74.5213187,41.7281677 76.5396676,42.3402001 L76.5396676,42.3402001 L72.7776733,67.7807817 C69.4118306,66.9849949 65.9708059,66.3888782 62.4531533,65.988091 C58.9340549,65.5916445 55.5826703,65.3919743 52.4033369,65.3919743 C45.245138,65.3919743 39.5096148,66.769409 35.1938758,69.5257252 C30.8824742,72.2805945 27.6554291,76.230591 25.5127406,81.3728208 L25.5127406,81.3728208 L25.5127406,141.071302 L-1.59161573e-12,141.071302 L-1.59161573e-12,41.6977831 L23.7690953,41.6977831 L24.9633333,57.9535378 C29.0000312,52.3208139 33.8333698,47.897686 39.4619031,44.6812603 C45.093328,41.4677284 51.2394609,39.860239 57.9104223,39.860239 Z M290.296703,41.6977831 L304.229962,86.0896664 L312.232513,111.58957 L313.516391,118.753099 L314.801715,111.864478 L322.825953,86.0896664 L336.644993,41.6977831 L363.257994,41.6977831 L346.408539,86.0896664 L325.539736,141.071302 L301.587023,141.071302 L280.615568,86.0896664 L263.683702,41.6977831 L290.296703,41.6977831 Z M612.849399,9.9475983e-14 L612.849399,120.315735 L641.301468,120.315735 L641.301468,141.071302 L557.326006,141.071302 L557.326006,120.315735 L587.061954,120.315735 L587.061954,20.8481681 L557.326006,20.8481681 L557.326006,9.9475983e-14 L612.849399,9.9475983e-14 Z M713.992393,41.6977831 L727.925652,86.0896664 L735.928203,111.58957 L737.212081,118.753099 L738.497405,111.864478 L746.520198,86.0896664 L760.339237,41.6977831 L786.953684,41.6977831 L770.104229,86.0896664 L749.235426,141.071302 L725.282713,141.071302 L704.309812,86.0896664 L687.379392,41.6977831 L713.992393,41.6977831 Z M455.040823,60.5246527 C451.247021,60.5246527 448.004072,61.3218864 445.313422,62.9134601 C442.618435,64.5050337 440.416468,66.6782552 438.70463,69.4331246 C436.991347,72.1879939 435.736385,75.374035 434.94119,78.9840134 C434.44094,81.2643044 434.117079,83.6400898 433.93057,86.0896664 C433.822134,87.5220827 433.748398,88.9733085 433.748398,90.466494 L433.748398,90.466494 L433.748398,92.3951919 C433.748398,96.5593274 434.147441,100.463023 434.94119,104.104833 C435.736385,107.74809 436.991347,110.932684 438.70463,113.657169 C440.416468,116.381654 442.635784,118.540407 445.358242,120.13198 C448.0807,121.723554 451.369915,122.517894 455.224441,122.517894 C458.954627,122.517894 462.16866,121.723554 464.860756,120.13198 C467.552852,118.540407 469.738914,116.381654 471.421836,113.657169 C473.106203,110.932684 474.343815,107.74809 475.13901,104.104833 C475.934205,100.463023 476.333248,96.5593274 476.333248,92.3951919 L476.333248,92.3951919 L476.333248,90.466494 C476.333248,88.9733085 476.260958,87.5220827 476.151076,86.0896664 C475.967458,83.6400898 475.640706,81.2643044 475.13901,78.9840134 C474.343815,75.374035 473.106203,72.1879939 471.421836,69.4331246 C469.738914,66.6782552 467.552852,64.5050337 464.860756,62.9134601 C462.16866,61.3218864 458.896795,60.5246527 455.040823,60.5246527 Z M173.460901,60.5246527 C170.585187,60.5246527 167.955261,61.0281687 165.568231,62.0409883 C163.182647,63.0494673 161.084778,64.5050337 159.2833,66.4033471 C157.477485,68.3016604 155.962278,70.5674825 154.739124,73.1993666 C153.513078,75.8326976 152.596435,78.7727682 151.986304,82.0166847 L151.986304,82.0166847 L193.835237,82.0166847 L193.835237,79.9953862 C193.710898,77.3027329 193.193298,74.7605557 192.27521,72.3717483 C191.357121,69.9843878 190.039989,67.9182358 188.329598,66.1718454 C186.614868,64.4283488 184.519892,63.0494673 182.043221,62.0409883 C179.563659,61.0281687 176.702404,60.5246527 173.460901,60.5246527 Z M880.57269,60.5246527 C877.695531,60.5246527 875.065605,61.0281687 872.678575,62.0409883 C870.294436,63.0494673 868.196568,64.5050337 866.393644,66.4033471 C864.587829,68.3016604 863.072621,70.5674825 861.849467,73.1993666 C860.624867,75.8326976 859.706779,78.7727682 859.096647,82.0166847 L859.096647,82.0166847 L900.945581,82.0166847 L900.945581,79.9953862 C900.822687,77.3027329 900.303642,74.7605557 899.385553,72.3717483 C898.467465,69.9843878 897.150333,67.9182358 895.439941,66.1718454 C893.725212,64.4283488 891.630235,63.0494673 889.153565,62.0409883 C886.675449,61.0281687 883.812747,60.5246527 880.57269,60.5246527 Z" id="Combined-Shape" fill="#F45919"></path>
            </g>
        </g>
    </g>
</svg>