<?xml version="1.0" encoding="UTF-8"?>
<svg width="214px" height="214px" viewBox="0 0 214 214" version="1.1" xmlns="http://www.w3.org/2000/svg" xmlns:xlink="http://www.w3.org/1999/xlink">
    <!-- Generator: Sketch 53.2 (72643) - https://sketchapp.com -->
    <title>3pg_logo</title>
    <desc>Created with Sketch.</desc>
    <defs>
        <polygon id="path-1" points="0.000329464619 0.132297003 149.805784 0.132297003 149.805784 50.3731343 0.000329464619 50.3731343"></polygon>
        <polygon id="path-3" points="0.000138549231 0.132190418 49.644347 0.132190418 49.644347 50.3731343 0.000138549231 50.3731343"></polygon>
        <polygon id="path-5" points="0.412155835 0.212568089 13.2386194 0.212568089 13.2386194 17.9373086 0.412155835 17.9373086"></polygon>
    </defs>
    <g id="Exports" stroke="none" stroke-width="1" fill="none" fill-rule="evenodd">
        <g id="Homepage-New" transform="translate(-969.000000, -4210.000000)">
            <g id="Group-58" transform="translate(1000.000000, 4291.000000)">
                <g id="Group-3" transform="translate(0.000000, 0.427500)">
                    <mask id="mask-2" fill="white">
                        <use xlink:href="#path-1"></use>
                    </mask>
                    <g id="Clip-2"></g>
                    <path d="M92.4292724,43.9887313 C91.6787127,43.9887313 90.9533396,43.9719403 90.2296455,43.9965672 C89.915653,44.0066418 89.8233022,43.9288433 89.8283396,43.6025373 C89.8484888,42.236306 89.8233022,40.8695149 89.8456903,39.5032836 C89.8512873,39.1646642 89.6816978,39.1674627 89.4561381,39.1864925 C89.2580037,39.2038433 88.9966231,39.0717537 89.0016604,39.4786567 C89.0195709,41.058694 89.0145336,42.639291 89.0027799,44.2187687 C89.0016604,44.4840672 89.0844963,44.5585075 89.3430784,44.5540299 C90.1826306,44.5400373 91.0227425,44.5249254 91.8617351,44.5585075 C92.2775933,44.5752985 92.4886007,44.4717537 92.4292724,43.9887313 M122.797556,41.8523507 C122.797556,42.6493657 122.795877,43.4463806 122.798116,44.2445149 C122.798675,44.3799627 122.760056,44.5473134 122.987295,44.5473134 C123.984123,44.5473134 124.980951,44.5512313 125.97722,44.5473134 C126.271063,44.5456343 126.192705,44.2803358 126.22125,44.1292164 C126.265466,43.8980597 126.051101,43.9965672 125.955951,43.9943284 C125.329086,43.983694 124.70166,43.9685821 124.076474,43.9971269 C123.721063,44.0127985 123.593451,43.9433955 123.601847,43.5448881 C123.632631,42.2066418 123.600728,40.8678358 123.623675,39.5295896 C123.629272,39.1898507 123.484869,39.1741791 123.224049,39.1786567 C122.960989,39.183694 122.77181,39.1674627 122.787481,39.5458209 C122.821623,40.3137313 122.798116,41.0833209 122.797556,41.8523507 M118.469944,44.5484328 C119.004459,44.5473134 119.006138,44.546194 118.811362,44.0782836 C118.19625,42.5967537 117.566026,41.1219403 116.975541,39.6303358 C116.836175,39.2782836 116.669384,39.1545896 116.297743,39.1758582 C115.948489,39.1971269 115.641213,39.1545896 115.529832,39.6213806 C115.442519,39.9891045 115.241586,40.329403 115.093825,40.683694 C114.601287,41.8618657 114.115466,43.0433955 113.614534,44.218209 C113.505951,44.4734328 113.529459,44.5473134 113.831138,44.5601866 C114.199422,44.5769776 114.373489,44.4667164 114.505578,44.1023507 C114.945504,42.885 114.965093,42.8894776 116.093451,42.8933955 C116.532817,42.8950746 117.079646,42.7590672 117.382444,42.9683955 C117.683563,43.1754851 117.761922,43.7312687 117.899608,44.1471269 C118.004832,44.4661567 118.166586,44.6312687 118.469944,44.5484328 M84.4451306,39.6627985 C83.8479291,39.2441418 83.1718097,39.103097 82.4637873,39.1361194 C81.028153,39.2027239 80.1108022,39.9963806 79.8785261,41.3340672 C79.6205037,42.8228731 80.28375,44.068209 81.5828172,44.4773507 C82.5259142,44.7734328 83.4622948,44.6855597 84.3858022,44.3514179 C84.5788993,44.2808955 84.6455037,44.180709 84.6410261,43.978097 C84.6287127,43.3372388 84.6253545,42.6963806 84.6415858,42.0560821 C84.6488619,41.8008582 84.5867351,41.7034701 84.3141604,41.7141045 C83.7886007,41.7348134 83.2608022,41.711306 82.7346828,41.7258582 C82.6177052,41.7286567 82.378153,41.5982463 82.4078172,41.8848134 C82.4285261,42.0874254 82.4503545,42.2984328 82.7727425,42.2900373 C83.1203172,42.279403 83.5977425,42.1198881 83.7869216,42.3616791 C83.9621082,42.5855597 83.8423321,43.040597 83.8524067,43.3943284 C83.8535261,43.464291 83.8440112,43.5370522 83.8535261,43.6070149 C83.88375,43.8297761 83.7886007,43.9322015 83.5736754,43.998806 C81.9617351,44.491903 80.7583769,43.6271642 80.7494216,41.9620522 C80.7471828,41.5601866 80.7913993,41.1695149 80.9178918,40.7866791 C81.1210634,40.1687687 81.5593097,39.8284701 82.1822575,39.7204478 C82.7122948,39.6275373 83.24625,39.6549627 83.7191978,39.9185821 C84.0941978,40.1273507 84.2861754,40.0025373 84.4451306,39.6627985 M101.390093,41.915597 C101.388414,40.1318284 100.398302,39.1014179 98.6889739,39.1025373 C97.00875,39.1036567 96.0175187,40.1228731 96.016959,41.8489925 C96.0158396,43.5941418 97.0697575,44.6838806 98.750541,44.6575746 C100.219198,44.6346269 101.482444,43.7038433 101.390093,41.915597 M108.755765,41.7202612 C108.91472,41.6323881 108.995877,41.583694 109.080392,41.5422761 C109.487854,41.3413433 109.791772,41.0475 109.804086,40.5706343 C109.816399,40.0635448 109.520877,39.7232463 109.10222,39.4820149 C108.916959,39.3762313 108.717146,39.3034701 108.50334,39.2704478 C107.641399,39.1372388 106.773302,39.2088806 105.908004,39.183694 C105.684683,39.1769776 105.702593,39.3213806 105.702593,39.4663433 C105.702593,41.0592537 105.707071,42.6516045 105.696996,44.2439552 C105.695317,44.4947015 105.785429,44.5568284 106.019384,44.551791 C106.70222,44.5394776 107.384496,44.5585075 108.066772,44.5445149 C108.449608,44.5372388 108.830205,44.4969403 109.190093,44.3368657 C110.186922,43.8924627 110.398489,42.6885448 109.585243,42.0538433 C109.368638,41.8848134 109.111735,41.8025373 108.755765,41.7202612 M49.8594963,25.2566418 C49.8594963,24.0762313 49.8471828,22.8952612 49.8678918,21.7154104 C49.8734888,21.3868657 49.7710634,21.3141045 49.4598694,21.3174627 C47.9945709,21.3331343 46.5292724,21.3303358 45.0645336,21.3191418 C44.7969963,21.316903 44.6968097,21.3790299 44.6984888,21.6695149 C44.7096828,24.0594403 44.7096828,26.4482463 44.6984888,28.8387313 C44.6968097,29.1269776 44.7886007,29.1958209 45.0611754,29.1941418 C46.5404664,29.1829478 48.0197575,29.1795896 49.4990485,29.1969403 C49.8197575,29.2002985 49.8678918,29.0749254 49.8650933,28.7984328 C49.8533396,27.6180224 49.8594963,26.4376119 49.8594963,25.2566418 M35.3150933,25.2700746 C35.3150933,26.465597 35.3223694,27.6616791 35.310056,28.8577612 C35.3072575,29.1180224 35.3805784,29.1975 35.6464366,29.1947015 C37.1413993,29.1823881 38.6363619,29.1829478 40.1307649,29.1947015 C40.4011007,29.1969403 40.4632276,29.1012313 40.4626679,28.8499254 C40.4553918,26.4583209 40.4537127,24.0667164 40.4637873,21.6751119 C40.4654664,21.3902239 40.3753545,21.316903 40.1016604,21.3191418 C38.62125,21.3308955 37.1408396,21.3320149 35.6604291,21.3180224 C35.3716231,21.3152239 35.3066978,21.4120522 35.3094963,21.6823881 C35.3229291,22.8784701 35.3150933,24.0745522 35.3150933,25.2700746 M30.8844963,25.2611194 C30.8844963,24.065597 30.879459,22.8695149 30.8889739,21.6739925 C30.890653,21.4355597 30.8537127,21.3157836 30.569944,21.3180224 C29.0609888,21.3314552 27.5520336,21.3297761 26.0430784,21.3197015 C25.7917724,21.3180224 25.7369216,21.4075746 25.7374813,21.6409701 C25.7441978,24.0471269 25.7453172,26.4527239 25.7369216,28.8588806 C25.7358022,29.1208209 25.8096828,29.1969403 26.0738619,29.1947015 C27.5548321,29.1829478 29.0352425,29.1801493 30.515653,29.1958209 C30.8251679,29.1997388 30.8940112,29.0939552 30.890653,28.8062687 C30.8761007,27.6252985 30.8844963,26.4426493 30.8844963,25.2611194 M87.9690112,25.2840672 C87.9690112,28.1178358 87.9734888,30.9504851 87.9634142,33.7842537 C87.9617351,34.0708209 88.0149067,34.1743657 88.3283396,34.1676493 C89.3391604,34.1463806 90.3494216,34.1514179 91.3602425,34.1648507 C91.6288993,34.1693284 91.7240485,34.1122388 91.7240485,33.8183955 C91.7145336,28.1519776 91.7150933,22.4855597 91.7223694,16.8191418 C91.7223694,16.5476866 91.6613619,16.453097 91.3719963,16.4581343 C90.3762873,16.4760448 89.379459,16.4788433 88.3831903,16.4575746 C88.0563246,16.4502985 87.9589366,16.5275373 87.9606157,16.8700746 C87.9762873,19.6752985 87.9690112,22.479403 87.9690112,25.2840672 M107.956511,25.3170896 C107.956511,28.1368657 107.959869,30.9572015 107.950354,33.7764179 C107.949795,34.0529104 107.990093,34.1693284 108.311362,34.1670896 C111.20222,34.1542164 114.093078,34.1553358 116.983937,34.1665299 C117.260989,34.1676493 117.341026,34.0752985 117.38972,33.8172761 C117.529646,33.0779104 117.69028,32.3407836 117.873862,31.6109328 C117.963974,31.2510448 117.882817,31.1676493 117.507817,31.1721269 C115.685429,31.1928358 113.861922,31.1698881 112.039534,31.190597 C111.672369,31.1950746 111.571623,31.0859328 111.601287,30.7366791 C111.631511,30.3835075 111.608004,30.0264179 111.608004,29.6698881 C111.608004,25.4256716 111.601287,21.1814552 111.617519,16.9377985 C111.619198,16.5359328 111.503899,16.4447015 111.123302,16.4558955 C110.198116,16.4833209 109.27181,16.4805224 108.346063,16.4570149 C108.023116,16.4486194 107.947556,16.539291 107.949235,16.8572015 C107.962108,19.6764179 107.956511,22.4973134 107.956511,25.3170896 M95.5764739,25.2958209 C95.5764739,28.1301493 95.5770336,30.9639179 95.5759142,33.7976866 C95.5747948,34.0008582 95.5395336,34.1693284 95.8641604,34.1676493 C98.7969963,34.1542164 101.730392,34.1592537 104.663787,34.1626119 C104.84569,34.1626119 104.943638,34.126791 104.985056,33.9219403 C105.141213,33.1271642 105.309683,32.3351866 105.496063,31.5465672 C105.569384,31.2387313 105.487108,31.1715672 105.178713,31.173806 C103.355205,31.1883582 101.532257,31.1670896 99.7104291,31.1922761 C99.3057649,31.1967537 99.2296455,31.0725 99.2302052,30.6975 C99.2430784,26.0973134 99.2346828,21.4976866 99.247556,16.8980597 C99.2486754,16.539291 99.1540858,16.4469403 98.8020336,16.4570149 C97.8628545,16.4816418 96.9214366,16.4822015 95.9828172,16.4558955 C95.6374813,16.4463806 95.566959,16.5532836 95.5686381,16.8790299 C95.5820709,19.6848134 95.5764739,22.490597 95.5764739,25.2958209 M56.7902799,31.8101866 C57.0555784,32.5864925 57.3057649,33.3101866 57.547556,34.0366791 C57.6046455,34.2079478 57.7305784,34.2286567 57.879459,34.243209 C59.953153,34.4497388 62.0033396,34.3540299 64.0014739,33.7187687 C65.5792724,33.2183955 66.9779664,32.4303358 67.9507276,31.0338806 C69.2979291,29.0978731 69.0119216,26.6262313 67.2886007,25.2314552 C66.8716231,24.8939552 66.3913993,24.6627985 65.8322575,24.4266045 C65.990653,24.343209 66.0734888,24.296194 66.1591231,24.2553358 C67.7358022,23.503097 68.6038993,21.8620522 68.3458769,20.1465672 C68.0665858,18.2933955 66.9242351,17.1364925 65.2322575,16.5913433 C62.1992351,15.6129851 59.4622948,16.4351866 56.9341231,18.204403 C56.7684515,18.3197015 56.7986754,18.403097 56.9128545,18.5385448 C57.4076306,19.126791 57.8996082,19.7178358 58.372556,20.3228731 C58.5583769,20.5607463 58.678153,20.4566418 58.8555784,20.3256716 C59.9766604,19.4933955 61.2214366,19.0389179 62.6346828,19.1139179 C63.7109888,19.1704478 64.4262873,19.7995522 64.5298321,20.7801493 C64.6428918,21.8469403 64.0966231,22.5947015 63.0163993,22.8779104 C62.1012873,23.1174627 61.1783396,23.0172761 60.2570709,22.9551493 C59.9951306,22.9372388 59.9083769,22.9982463 59.9139739,23.2691418 C59.9302052,24.0096269 59.9246082,24.7506716 59.915653,25.490597 C59.9128545,25.7295896 59.9425187,25.8420896 60.2436381,25.8174627 C61.066959,25.7502985 61.8941978,25.7676493 62.7147201,25.8784701 C63.1955037,25.9422761 63.665653,26.0435821 64.0417724,26.3978731 C64.8113619,27.1226866 64.9691978,28.3478731 64.4038993,29.4353731 C63.7882276,30.6180224 62.7259142,31.2208209 61.5080037,31.5913433 C59.9828172,32.0553358 58.4279664,32.064291 56.7902799,31.8101866 M73.3663993,25.2672761 C73.3663993,28.1010448 73.372556,30.9359328 73.3585634,33.7697015 C73.3568843,34.0960075 73.4458769,34.1749254 73.7615485,34.1670896 C74.6872948,34.1452612 75.613041,34.141903 76.5382276,34.1693284 C76.8858022,34.179403 76.9535261,34.0680224 76.9507276,33.7439552 C76.9356157,31.8644776 76.9524067,29.9844403 76.9356157,28.1049627 C76.9322575,27.7663433 76.989347,27.6269776 77.3665858,27.6538433 C77.8904664,27.691903 78.4193843,27.6695149 78.9460634,27.6622388 C79.87125,27.6493657 80.7986754,27.6359328 81.6930784,27.3605597 C83.8557649,26.6950746 85.2690112,24.8922761 85.4688246,22.4810821 C85.6037127,20.8450746 85.2684515,19.3372388 84.0589366,18.1232463 C82.8936381,16.9534701 81.4311381,16.5409701 79.8371082,16.4654104 C77.8300187,16.3702612 75.8218097,16.4508582 73.8152799,16.4088806 C73.4128545,16.4004851 73.357444,16.539291 73.3591231,16.8935821 C73.372556,19.6842537 73.3658396,22.4760448 73.3663993,25.2672761 M134.768451,34.1598134 C134.777966,34.1016045 134.785243,34.0859328 134.781325,34.0736194 C132.963974,28.2756716 131.144944,22.4777239 129.330951,16.6786567 C129.262108,16.4581343 129.135616,16.4122388 128.924049,16.4144776 C127.899795,16.4239925 126.873862,16.4340672 125.849049,16.41 C125.495317,16.4016045 125.336922,16.5034701 125.223302,16.854403 C123.560989,21.9723134 121.881325,27.0851866 120.206698,32.1997388 C119.99681,32.840597 119.795877,33.483694 119.579272,34.1592537 C120.742332,34.1592537 121.85222,34.1469403 122.962108,34.168209 C123.249235,34.1732463 123.35334,34.0685821 123.426101,33.8167164 C123.762481,32.6424627 124.12181,31.4743657 124.455951,30.2995522 C124.524795,30.0577612 124.616026,29.9609328 124.885243,29.964291 C126.380205,29.979403 127.875728,29.9805224 129.37069,29.9631716 C129.653899,29.9603731 129.760802,30.0549627 129.834683,30.3124254 C130.170504,31.4866791 130.524235,32.6553358 130.870131,33.8262313 C130.921623,34.0019776 130.937295,34.1698881 131.207071,34.1665299 C132.388601,34.1514179 133.569571,34.1598134 134.768451,34.1598134 M30.6315112,19.7855597 C28.4206903,15.0269776 22.8751679,11.5915299 16.6115485,12.9835075 C10.5091231,14.3402239 6.25259328,20.0872388 6.93710821,26.5299627 C7.54886194,32.2870522 12.1524067,37.1206343 18.3080037,37.6417164 C21.4328172,37.9064552 24.2878545,37.0976866 26.819944,35.2288433 C28.4464366,34.0288433 29.6990485,32.5159701 30.6113619,30.654403 C28.9731157,30.654403 27.4065112,30.6667164 25.8404664,30.6443284 C25.4884142,30.639291 25.2891604,30.7585075 25.072556,31.0271642 C22.657444,34.0299627 19.5119216,35.3189552 15.7154664,34.7127985 C10.4150933,33.8665299 6.86266791,28.848806 7.69046642,23.5394776 C8.55016791,18.0208209 14.0733022,14.2803358 19.5326306,15.5749254 C21.9309515,16.1441418 23.8378545,17.4482463 25.2913993,19.4312687 C25.4022201,19.5823881 25.4615485,19.7900373 25.72125,19.7889179 C27.3415858,19.7822015 28.9613619,19.7855597 30.6315112,19.7855597 M144.939907,26.5719403 C146.24625,26.4376119 147.189907,25.7889179 147.886735,24.7573881 C148.424608,23.9626119 148.691026,23.0754851 148.778899,22.1217537 C149.074981,18.8939552 146.90222,16.4777239 143.674422,16.4654104 C141.580019,16.4581343 139.486175,16.4614925 137.393451,16.4441418 C137.089534,16.441903 136.978153,16.4984328 136.979272,16.8353731 C136.990466,22.490597 136.989907,28.1447015 136.980392,33.8004851 C136.979832,34.1189552 137.091772,34.1704478 137.372743,34.1654104 C138.283937,34.1497388 139.19625,34.1424627 140.107444,34.168209 C140.436549,34.1777239 140.507631,34.0775373 140.505392,33.7646642 C140.492519,31.5997388 140.498675,29.4348134 140.498675,27.2693284 C140.498675,26.7482463 140.573116,26.7006716 141.05166,26.9525373 C141.578899,27.2301493 141.881138,27.7232463 142.186175,28.2023507 C143.350354,30.0252985 144.312481,31.9652239 145.410056,33.8273507 C145.560616,34.0814552 145.718451,34.1704478 146.008937,34.1665299 C147.162481,34.1497388 148.317146,34.1614925 149.470131,34.1570149 C149.571996,34.1564552 149.69569,34.2157836 149.805951,34.0495522 C148.869571,32.4958209 147.935989,30.9191418 146.973862,29.3603731 C146.379459,28.3960075 145.819198,27.3997388 144.939907,26.5719403 M37.5091231,19.7855597 L39.6029664,19.7855597 C40.1749813,19.7855597 40.1749813,19.7855597 39.9936381,19.239291 C37.0316978,10.3019776 27.9147201,4.91205224 18.6533396,6.6213806 C9.90576493,8.2366791 3.43281716,15.729403 3.19886194,24.5945149 C3.06341418,29.7314552 4.74755597,34.2342537 8.23001866,38.0256716 C13.9764739,44.2808955 23.3889739,45.8894776 30.8738619,41.8864925 C35.3111754,39.5127985 38.3341231,35.91 39.9830037,31.1564552 C40.1565112,30.6560821 40.1525933,30.654403 39.6007276,30.654403 C38.2048321,30.654403 36.8089366,30.6745522 35.4136007,30.6415299 C35.0122948,30.6320149 34.8622948,30.7769776 34.7218097,31.1234328 C31.7240485,38.5383582 23.7376679,42.5782836 16.0456903,40.5835075 C7.74475746,38.4303358 2.6968097,30.2710075 4.44923507,21.8385448 C6.67908582,11.1073881 19.2259142,5.82436567 28.4604291,11.7303358 C31.3927052,13.6058955 33.5117351,16.1581343 34.790653,19.3971269 C34.9081903,19.6960075 35.0486754,19.8068284 35.3733022,19.7945149 C36.0841231,19.7676493 36.7971828,19.7861194 37.5091231,19.7855597 M49.6445709,30.654403 C47.9542724,30.654403 46.303153,30.6611194 44.6520336,30.6482463 C44.3671455,30.6448881 44.3766604,30.8357463 44.3296455,31.0014179 C43.1302052,35.2366791 40.9003545,38.8355597 37.5561381,41.6956343 C32.5563246,45.9723134 26.7460634,47.6995522 20.2305784,46.8572015 C15.2973694,46.2191418 11.0441978,44.0810821 7.58580224,40.5023507 C2.61621269,35.3581343 0.587854478,29.176791 1.50800373,22.0954478 C2.13878731,17.2417164 4.22367537,13.0210075 7.76322761,9.63201493 C14.0162127,3.64656716 21.425541,1.74246269 29.6895336,4.26391791 C37.2785261,6.57996269 42.1048321,11.8433955 44.3581903,19.4491791 C44.4382276,19.7178358 44.5305784,19.8101866 44.8109888,19.8062687 C45.879459,19.7894776 46.9473694,19.7989925 48.0158396,19.7989925 L49.6339366,19.7989925 C47.2871082,8.6469403 36.5828172,-0.995037313 22.7917724,0.239104478 C10.1878545,1.36690299 0.417145522,11.7840672 0.0136007463,24.4204478 C-0.419608209,37.9372388 9.80501866,49.2135448 23.0525933,50.2876119 C36.2598694,51.3588806 47.1667724,42.2598134 49.6445709,30.654403" id="Fill-1" fill="#FFFFFF" mask="url(#mask-2)"></path>
                </g>
                <g id="Group-6" transform="translate(0.000000, 0.427500)">
                    <mask id="mask-4" fill="white">
                        <use xlink:href="#path-3"></use>
                    </mask>
                    <g id="Clip-5"></g>
                    <path d="M49.644347,30.654291 C47.1665485,42.2597015 36.2596455,51.3587687 23.0523694,50.2875 C9.80479478,49.2134328 -0.419272388,37.9376866 0.0133768657,24.4203358 C0.417481343,11.7839552 10.1876306,1.36679104 22.7915485,0.238992537 C36.5825933,-0.995149254 47.2868843,8.64738806 49.6337127,19.7988806 L48.0161754,19.7988806 C46.9477052,19.7988806 45.8792351,19.7893657 44.8107649,19.8061567 C44.5303545,19.8100746 44.4380037,19.7177239 44.3585261,19.4490672 C42.1046082,11.8438433 37.2783022,6.57985075 29.6898694,4.26436567 C21.4253172,1.74235075 14.0165485,3.64645522 7.76356343,9.63190299 C4.22401119,13.0208955 2.13856343,17.2416045 1.50777985,22.0953358 C0.588190299,29.1766791 2.61654851,35.3580224 7.58557836,40.5022388 C11.0439739,44.0809701 15.2977052,46.2195896 20.2303545,46.8570896 C26.7458396,47.6994403 32.5566604,45.9722015 37.5559142,41.6960821 C40.9001306,38.8354478 43.1299813,35.2371269 44.3294216,31.001306 C44.3764366,30.8356343 44.3669216,30.6447761 44.6518097,30.6481343 C46.3029291,30.6615672 47.9540485,30.654291 49.644347,30.654291" id="Fill-4" fill="#24418A" mask="url(#mask-4)"></path>
                </g>
                <path d="M37.5091231,20.2135075 C36.7971828,20.2135075 36.0841231,20.1950373 35.3733022,20.2224627 C35.0486754,20.2342164 34.9081903,20.1233955 34.790653,19.8250746 C33.5117351,16.5860821 31.3927052,14.0332836 28.4604291,12.1577239 C19.2259142,6.25231343 6.67908582,11.5347761 4.44923507,22.2659328 C2.6968097,30.6983955 7.74475746,38.8582836 16.0456903,41.0108955 C23.7382276,43.0062313 31.7240485,38.9657463 34.7223694,31.5508209 C34.8622948,31.2043657 35.0122948,31.059403 35.4136007,31.0694776 C36.8089366,31.1019403 38.2048321,31.081791 39.6007276,31.081791 C40.1525933,31.081791 40.1565112,31.0834701 39.9830037,31.5838433 C38.3341231,36.3379478 35.3111754,39.9401866 30.8744216,42.3138806 C23.3889739,46.3168657 13.9764739,44.7088433 8.23001866,38.4530597 C4.74755597,34.6616418 3.06341418,30.159403 3.19886194,25.021903 C3.43281716,16.156791 9.90576493,8.66406716 18.6533396,7.04876866 C27.9147201,5.3394403 37.0316978,10.7299254 39.9936381,19.6666791 C40.1749813,20.2129478 40.1749813,20.2129478 39.6029664,20.2129478 C38.9050187,20.2129478 38.2070709,20.2129478 37.5091231,20.2135075" id="Fill-7" fill="#24418A"></path>
                <g id="Group-11" transform="translate(136.567164, 16.658843)">
                    <mask id="mask-6" fill="white">
                        <use xlink:href="#path-5"></use>
                    </mask>
                    <g id="Clip-10"></g>
                    <path d="M3.96962687,5.49117537 L3.9433209,5.49117537 C3.93044776,6.18744403 3.93660448,6.88259328 3.92597015,7.57830224 C3.92261194,7.77755597 3.97018657,7.86375 4.18287313,7.85759328 C5.01962687,7.83072761 5.8591791,7.90684701 6.69145522,7.76300373 C7.61776119,7.6023694 8.20880597,7.06617537 8.39518657,6.15330224 C8.49817164,5.64845149 8.49257463,5.13688433 8.34481343,4.63483209 C8.13996269,3.93632463 7.68828358,3.49024254 6.98585821,3.30274254 C6.06794776,3.05703358 5.12652985,3.11468284 4.19126866,3.09229478 C3.9825,3.08725746 3.96738806,3.20087687 3.96850746,3.36039179 C3.97186567,4.07065299 3.96962687,4.78035448 3.96962687,5.49117537 M8.37279851,10.3404291 C9.25208955,11.1687873 9.81179104,12.1644963 10.4067537,13.1288619 C11.3688806,14.6881903 12.3024627,16.2643097 13.2388433,17.818041 C13.1285821,17.9842724 13.0048881,17.924944 12.9030224,17.9255037 C11.7494776,17.930541 10.5953731,17.9182276 9.44126866,17.9350187 C9.15134328,17.9389366 8.99350746,17.849944 8.84294776,17.5958396 C7.74537313,15.7337127 6.78324627,13.7937873 5.61906716,11.9708396 C5.31347015,11.4922948 5.01179104,10.9986381 4.48455224,10.7210261 C4.00544776,10.4697201 3.93156716,10.5167351 3.93156716,11.0378172 C3.93156716,13.2033022 3.92541045,15.3682276 3.93828358,17.5337127 C3.94052239,17.8460261 3.8694403,17.9462127 3.53977612,17.9366978 C2.62858209,17.9109515 1.71682836,17.9182276 0.805634328,17.9338993 C0.524664179,17.9389366 0.412723881,17.887444 0.413283582,17.5689739 C0.422798507,11.91375 0.423358209,6.25908582 0.412164179,0.604421642 C0.411044776,0.266921642 0.522425373,0.210391791 0.826343284,0.212630597 C2.91906716,0.230541045 5.01291045,0.226623134 7.10675373,0.233899254 C10.3351119,0.246212687 12.5078731,2.66244403 12.211791,5.89024254 C12.1233582,6.84397388 11.8575,7.73110075 11.3196269,8.52587687 C10.6227985,9.55796642 9.67914179,10.2061007 8.37279851,10.3404291" id="Fill-9" fill="#24418A" mask="url(#mask-6)"></path>
                </g>
                <path d="M30.6314552,20.2129478 C28.961306,20.2129478 27.3415299,20.2095896 25.7217537,20.216306 C25.4614925,20.2174254 25.4021642,20.0097761 25.2913433,19.8586567 C23.8377985,17.8756343 21.9308955,16.5715299 19.5325746,16.0028731 C14.0732463,14.7077239 8.55011194,18.448209 7.69041045,23.9668657 C6.86261194,29.276194 10.4150373,34.2939179 15.7154104,35.1401866 C19.5118657,35.7463433 22.6573881,34.4573507 25.0725,31.4545522 C25.2891045,31.1858955 25.4889179,31.0672388 25.8404104,31.0717164 C27.4064552,31.0941045 28.9730597,31.081791 30.611306,31.081791 C29.6989925,32.9433582 28.4463806,34.4562313 26.8198881,35.6562313 C24.2877985,37.5256343 21.4327612,38.3338433 18.3079478,38.0691045 C12.1523507,37.5485821 7.54880597,32.7144403 6.93705224,26.9573507 C6.25253731,20.5146269 10.5090672,14.7676119 16.6114925,13.4114552 C22.8751119,12.0189179 28.4206343,15.4543657 30.6314552,20.2129478" id="Fill-12" fill="#24418A"></path>
                <path d="M125.435821,27.4191092 L128.632276,27.4191045 C128.955784,27.4202239 128.782276,27.223209 128.747015,27.1051119 C128.293097,25.5950373 127.922575,24.063694 127.583955,22.5245149 C127.469776,22.0039925 127.343843,21.4862687 127.223507,20.9674254 C126.616231,23.1166791 126.13153,25.2704104 125.435821,27.4191092 M134.768843,34.5877612 C133.569403,34.5877612 132.388433,34.578806 131.207463,34.5939179 C130.937127,34.5972761 130.922015,34.4293657 130.869963,34.2536194 C130.524627,33.0827239 130.170336,31.9140672 129.834515,30.7403731 C129.761194,30.4829104 129.653731,30.3877612 129.370522,30.3911194 C127.87556,30.4079104 126.380037,30.406791 124.885634,30.3922388 C124.615858,30.3888806 124.524627,30.485709 124.455784,30.7269403 C124.121642,31.9017537 123.762873,33.0698507 123.425933,34.2441045 C123.353172,34.4965299 123.249627,34.6006343 122.96194,34.595597 C121.852612,34.5743284 120.742164,34.5872015 119.579104,34.5872015 C119.795709,33.9116418 119.996642,33.2679851 120.20653,32.6276866 C121.881157,27.5125746 123.560821,22.3997015 125.223134,17.281791 C125.336754,16.9308582 125.495149,16.8289925 125.848881,16.8373881 C126.873694,16.8614552 127.899627,16.8513806 128.923881,16.8424254 C129.135448,16.8401866 129.26194,16.8860821 129.330784,17.1060448 C131.144776,22.9056716 132.963806,28.7030597 134.781157,34.5010075 C134.785075,34.5133209 134.777799,34.5289925 134.768843,34.5877612" id="Fill-14" fill="#24418A"></path>
                <path d="M76.9434515,22.4561194 C76.9434515,23.2520149 76.9440112,24.0484701 76.9423321,24.8443657 C76.9423321,25.0167537 76.9121082,25.1835448 77.188041,25.1740299 C78.0684515,25.1426866 78.9499813,25.2171269 79.8287127,25.1029478 C80.353153,25.0352239 80.7628545,24.7995896 81.0645336,24.3630224 C81.6410261,23.5301866 81.6645336,22.5949254 81.5061381,21.6585448 C81.307444,20.4742164 80.600541,19.8445522 79.3904664,19.7516418 C78.6555784,19.6945522 77.9128545,19.7393284 77.1740485,19.7242164 C76.9311381,19.7191791 76.9417724,19.8602239 76.9423321,20.0247761 C76.9445709,20.8352239 76.9434515,21.6456716 76.9434515,22.4561194 M73.3663993,25.6945522 C73.3658396,22.9038806 73.372556,20.1120896 73.3591231,17.3208582 C73.357444,16.9665672 73.4128545,16.8277612 73.8152799,16.8361567 C75.8218097,16.8781343 77.8300187,16.798097 79.8371082,16.8932463 C81.4311381,16.9682463 82.8936381,17.381306 84.0589366,18.5505224 C85.2684515,19.7645149 85.6037127,21.2729104 85.4688246,22.9089179 C85.2690112,25.3195522 83.8557649,27.1223507 81.6930784,27.7878358 C80.7986754,28.0637687 79.8706903,28.0766418 78.9460634,28.0895149 C78.4193843,28.096791 77.8904664,28.1191791 77.3665858,28.0816791 C76.989347,28.0542537 76.9316978,28.1936194 76.9356157,28.5322388 C76.9524067,30.4117164 76.9356157,32.2917537 76.9507276,34.171791 C76.9535261,34.4958582 76.8852425,34.6066791 76.5382276,34.5966045 C75.613041,34.5697388 74.6872948,34.5725373 73.7615485,34.5949254 C73.4458769,34.6022015 73.3568843,34.5238433 73.3585634,34.1975373 C73.372556,31.363209 73.3663993,28.5288806 73.3663993,25.6945522" id="Fill-16" fill="#24418A"></path>
                <path d="M56.7903918,32.2377985 C58.4280784,32.491903 59.9829291,32.4823881 61.5081157,32.0183955 C62.7254664,31.6484328 63.7883396,31.0456343 64.4040112,29.8629851 C64.9693097,28.7749254 64.8114739,27.5502985 64.0418843,26.8254851 C63.6657649,26.471194 63.195056,26.3698881 62.7148321,26.3055224 C61.8943097,26.1952612 61.0670709,26.1779104 60.24375,26.2450746 C59.9426306,26.2697015 59.9129664,26.1572015 59.9157649,25.918209 C59.9247201,25.1782836 59.9297575,24.4366791 59.9140858,23.6967537 C59.9079291,23.4258582 59.9952425,23.364291 60.2566231,23.3827612 C61.1784515,23.4448881 62.1013993,23.5450746 63.0165112,23.3055224 C64.0967351,23.0223134 64.642444,22.2745522 64.529944,21.2077612 C64.4263993,20.2271642 63.7111007,19.5980597 62.6342351,19.5409701 C61.2215485,19.4665299 59.9762127,19.9210075 58.8551306,20.7527239 C58.6782649,20.8842537 58.5584888,20.9877985 58.3726679,20.7504851 C57.8991604,20.1454478 57.4077425,19.554403 56.9129664,18.9661567 C56.7987873,18.830709 56.7685634,18.7467537 56.9342351,18.6314552 C59.461847,16.8627985 62.199347,16.040597 65.2323694,17.0189552 C66.9237873,17.5641045 68.0661381,18.7210075 68.3459888,20.5741791 C68.6034515,22.2896642 67.7359142,23.930709 66.1592351,24.6829478 C66.0736007,24.723806 65.9902052,24.7708209 65.8318097,24.8542164 C66.3909515,25.0898507 66.8717351,25.3215672 67.2887127,25.6590672 C69.0120336,27.0532836 69.298041,29.5254851 67.9502799,31.4609328 C66.9780784,32.8573881 65.5793843,33.6460075 64.0015858,34.1463806 C62.0028918,34.7816418 59.9527052,34.8773507 57.8790112,34.6708209 C57.7306903,34.655709 57.6047575,34.6355597 57.5476679,34.464291 C57.3058769,33.7377985 57.0556903,33.0141045 56.7903918,32.2377985" id="Fill-18" fill="#F38621"></path>
                <path d="M95.5764739,25.723041 C95.5764739,22.9178172 95.5820709,20.1125933 95.5686381,17.3068097 C95.566959,16.9810634 95.6374813,16.8736007 95.9828172,16.8831157 C96.9214366,16.9099813 97.8628545,16.9088619 98.8020336,16.8842351 C99.1540858,16.8741604 99.2486754,16.9665112 99.247556,17.3252799 C99.2346828,21.9254664 99.2430784,26.5250933 99.2302052,31.1247201 C99.2296455,31.4997201 99.3057649,31.6245336 99.7104291,31.6194963 C101.532257,31.5943097 103.355205,31.6155784 105.178713,31.6015858 C105.487108,31.5987873 105.569384,31.6659515 105.496063,31.974347 C105.309683,32.7624067 105.141213,33.5543843 104.985056,34.3491604 C104.943638,34.5540112 104.84569,34.5903918 104.663787,34.5903918 C101.730392,34.5864739 98.7969963,34.5814366 95.8641604,34.5954291 C95.5395336,34.5971082 95.5747948,34.4286381 95.5759142,34.2249067 C95.5770336,31.3911381 95.5764739,28.5573694 95.5764739,25.723041" id="Fill-20" fill="#24418A"></path>
                <path d="M107.956623,25.7443657 C107.956623,22.9245896 107.96222,20.1042537 107.948787,17.2850373 C107.947108,16.9665672 108.023228,16.8758955 108.346175,16.884291 C109.271922,16.9077985 110.198228,16.9111567 111.123414,16.8831716 C111.504011,16.8719776 111.61931,16.9637687 111.617631,17.3650746 C111.601399,21.6087313 111.607556,25.8529478 111.607556,30.0971642 C111.607556,30.453694 111.631063,30.8113433 111.601399,31.1645149 C111.571735,31.5137687 111.672481,31.6223507 112.039646,31.6178731 C113.862034,31.5971642 115.685541,31.6201119 117.507369,31.599403 C117.882369,31.5949254 117.964086,31.6788806 117.873974,32.038209 C117.690392,32.7686194 117.529757,33.5051866 117.389832,34.2451119 C117.341138,34.5025746 117.261101,34.5949254 116.984049,34.5943657 C114.09319,34.5826119 111.202332,34.5814925 108.311474,34.5949254 C107.990205,34.5966045 107.949907,34.4801866 107.950466,34.203694 C107.959981,31.3844776 107.956623,28.5641418 107.956623,25.7443657" id="Fill-22" fill="#24418A"></path>
                <path d="M87.9691231,25.7115672 C87.9691231,22.906903 87.9763993,20.1027985 87.9601679,17.2975746 C87.9584888,16.9544776 88.0558769,16.8777985 88.3827425,16.8845149 C89.3795709,16.9063433 90.3763993,16.9035448 91.3721082,16.8850746 C91.6614739,16.880597 91.7224813,16.9751866 91.7224813,17.2466418 C91.7146455,22.9130597 91.7140858,28.5794776 91.7241604,34.2458955 C91.7241604,34.5391791 91.6290112,34.5968284 91.3603545,34.5923507 C90.3495336,34.5789179 89.3387127,34.5738806 88.3284515,34.5951493 C88.0150187,34.6018657 87.9612873,34.4983209 87.9629664,34.2117537 C87.9736007,31.3779851 87.9691231,28.5447761 87.9691231,25.7115672" id="Fill-24" fill="#24418A"></path>
                <path d="M30.8844963,25.6886194 C30.8844963,26.8701493 30.8761007,28.0527985 30.890653,29.2337687 C30.8940112,29.5214552 30.8251679,29.6272388 30.515653,29.6233209 C29.0352425,29.6076493 27.5548321,29.6104478 26.0738619,29.6222015 C25.8096828,29.6244403 25.7358022,29.5483209 25.7369216,29.2863806 C25.7453172,26.8802239 25.7441978,24.4746269 25.7374813,22.0684701 C25.7369216,21.8350746 25.7917724,21.7455224 26.0430784,21.7472015 C27.5520336,21.7572761 29.0609888,21.7589552 30.569944,21.7455224 C30.8537127,21.7432836 30.890653,21.8630597 30.8889739,22.1014925 C30.879459,23.2970149 30.8844963,24.493097 30.8844963,25.6886194" id="Fill-26" fill="#F38621"></path>
                <path d="M35.3151493,25.6973507 C35.3151493,24.5018284 35.3229851,23.306306 35.3095522,22.1102239 C35.3067537,21.8393284 35.3716791,21.7430597 35.6604851,21.7452985 C37.1408955,21.7598507 38.621306,21.7581716 40.1017164,21.7464179 C40.3754104,21.7447388 40.4655224,21.8175 40.4638433,22.1023881 C40.4537687,24.4945522 40.4554478,26.885597 40.4627239,29.2772015 C40.4632836,29.5290672 40.4011567,29.6247761 40.1308209,29.6225373 C38.6364179,29.6102239 37.1414552,29.6096642 35.6464925,29.6225373 C35.3806343,29.6253358 35.3073134,29.5452985 35.3101119,29.2850373 C35.3224254,28.0889552 35.3151493,26.8934328 35.3151493,25.6973507" id="Fill-28" fill="#F38621"></path>
                <path d="M49.8597201,25.6842537 C49.8597201,26.8646642 49.8530037,28.0456343 49.8653172,29.2260448 C49.8681157,29.5025373 49.8199813,29.6279104 49.4987127,29.6245522 C48.0199813,29.6072015 46.5401306,29.6105597 45.0613993,29.6217537 C44.7882649,29.6234328 44.6964739,29.5545896 44.698153,29.2657836 C44.7099067,26.8758582 44.7099067,24.4864925 44.698153,22.0971269 C44.6964739,21.8060821 44.7972201,21.7445149 45.0647575,21.7467537 C46.5294963,21.7573881 47.9947948,21.7607463 49.4595336,21.7450746 C49.7712873,21.7417164 49.873153,21.8144776 49.8681157,22.1430224 C49.8474067,23.3228731 49.8597201,24.5038433 49.8597201,25.6842537" id="Fill-30" fill="#F38621"></path>
                <path d="M106.504869,41.0274067 C106.504869,41.2261007 106.519422,41.4270336 106.500951,41.6234888 C106.476884,41.8787127 106.590504,41.938041 106.82166,41.926847 C107.261026,41.9055784 107.702071,41.9497948 108.139198,41.8742351 C108.595354,41.7964366 108.873526,41.5132276 108.895354,41.090653 C108.916623,40.6775933 108.617743,40.3137873 108.163825,40.2320709 C107.914198,40.1867351 107.656735,40.169944 107.402071,40.15875 C106.504869,40.1223694 106.504869,40.1257276 106.504869,41.0274067 M107.498899,44.4410261 C107.79722,44.4259142 108.09778,44.4320709 108.391623,44.3912127 C108.88416,44.3218097 109.220541,43.935056 109.235093,43.4654664 C109.248526,43.0154664 108.907108,42.6085634 108.411772,42.526847 C108.119049,42.4787127 107.819608,42.4596828 107.521847,42.4546455 C106.504869,42.4372948 106.504869,42.4417724 106.504869,43.4481157 C106.504869,44.4298321 106.504869,44.4298321 107.498899,44.4410261 M108.755429,42.1479291 C109.111399,42.2296455 109.368302,42.3124813 109.585466,42.4815112 C110.398713,43.115653 110.186586,44.3201306 109.190317,44.7645336 C108.829869,44.9246082 108.449832,44.9649067 108.066996,44.9721828 C107.38416,44.9856157 106.702444,44.9671455 106.019608,44.979459 C105.785653,44.9839366 105.695541,44.9223694 105.69722,44.6716231 C105.706735,43.0792724 105.702257,41.4863619 105.702257,39.8940112 C105.702257,39.7490485 105.684347,39.6046455 105.908228,39.6113619 C106.772966,39.6365485 107.641063,39.5649067 108.503004,39.6981157 C108.71681,39.7311381 108.917183,39.8033396 109.102444,39.9096828 C109.521101,40.1509142 109.816623,40.4912127 109.80431,40.9977425 C109.791996,41.4751679 109.487519,41.7684515 109.080616,41.969944 C108.995541,42.0113619 108.914944,42.060056 108.755429,42.1479291" id="Fill-32" fill="#24418A"></path>
                <path d="M100.479347,42.3922388 C100.456959,42.1090299 100.444646,41.8247015 100.408265,41.5437313 C100.385877,41.3769403 100.337743,41.2095896 100.278414,41.051194 C100.022631,40.3756343 99.3963246,40.0179851 98.5634888,40.0577239 C97.747444,40.0974627 97.2073321,40.4959701 97.0299067,41.2275 C96.8552799,41.945597 96.9341978,42.6592164 97.0735634,43.3812313 C97.334944,44.731791 99.3526679,44.8319776 99.9873694,44.1088433 C100.43625,43.5983955 100.47431,43.0118284 100.479347,42.3922388 M101.389981,42.3429851 C101.482332,44.1312313 100.219086,45.0625746 98.7504291,45.0855224 C97.0696455,45.1112687 96.0157276,44.0215299 96.016847,42.2763806 C96.0174067,40.5502612 97.0086381,39.5316045 98.6888619,39.5299254 C100.39819,39.528806 101.388302,40.5597761 101.389981,42.3429851" id="Fill-34" fill="#24418A"></path>
                <path d="M84.4452985,40.0900187 C84.2863433,40.4297575 84.0943657,40.5545709 83.7193657,40.3458022 C83.2458582,40.0821828 82.711903,40.0553172 82.1824254,40.1482276 C81.5594776,40.25625 81.1212313,40.5959888 80.9175,41.214459 C80.7915672,41.5967351 80.7473507,41.9879664 80.7490299,42.3892724 C80.7585448,44.0543843 81.961903,44.9196828 83.5732836,44.4260261 C83.788209,44.3599813 83.8839179,44.2569963 83.8531343,44.0347948 C83.8441791,43.9648321 83.8531343,43.8920709 83.8520149,43.8215485 C83.8425,43.4678172 83.9622761,43.0133396 83.7865299,42.7888993 C83.5973507,42.5476679 83.1204851,42.7071828 82.7729104,42.7172575 C82.4505224,42.7262127 82.4281343,42.5146455 82.4074254,42.3125933 C82.3783209,42.0254664 82.6173134,42.1558769 82.734291,42.1536381 C83.2609701,42.1385261 83.788209,42.1620336 84.3143284,42.1413246 C84.586903,42.1306903 84.6484701,42.2280784 84.6417537,42.4833022 C84.6249627,43.1241604 84.6288806,43.764459 84.641194,44.4058769 C84.6451119,44.6079291 84.5785075,44.7086754 84.3859701,44.7791978 C83.4624627,45.1133396 82.5255224,45.2012127 81.5829851,44.9051306 C80.2833582,44.4954291 79.6206716,43.2500933 79.878694,41.7612873 C80.1109701,40.4241604 81.0283209,39.6305037 82.4639552,39.5638993 C83.1719776,39.5308769 83.848097,39.6719216 84.4452985,40.0900187" id="Fill-36" fill="#24418A"></path>
                <path d="M117.212463,42.7786567 C116.883918,41.9402239 116.566007,41.1292164 116.207799,40.2152239 C115.84791,41.1353731 115.53,41.9441418 115.203134,42.7786567 L117.212463,42.7786567 Z M118.470112,44.9760448 C118.166754,45.0588806 118.005,44.893209 117.899776,44.5747388 C117.76153,44.1588806 117.683731,43.603097 117.382612,43.3960075 C117.079813,43.1866791 116.532985,43.3226866 116.093619,43.3210075 C114.964701,43.3170896 114.945672,43.3126119 114.505746,44.5299627 C114.373657,44.8943284 114.19959,45.0045896 113.831306,44.9877985 C113.529627,44.9749254 113.506119,44.9010448 113.614142,44.6458209 C114.115634,43.4704478 114.601455,42.2894776 115.093993,41.111306 C115.241754,40.7570149 115.442687,40.4167164 115.53,40.0489925 C115.640821,39.5822015 115.948097,39.6247388 116.297351,39.6034701 C116.668993,39.5822015 116.836343,39.7058955 116.975709,40.0579478 C117.566194,41.5495522 118.196418,43.023806 118.81097,44.5058955 C119.006306,44.973806 119.004627,44.9749254 118.470112,44.9760448 L118.470112,44.9760448 Z" id="Fill-38" fill="#24418A"></path>
                <path d="M122.797444,42.2796269 C122.798004,41.510597 122.821511,40.7410075 122.787369,39.973097 C122.771698,39.5947388 122.960877,39.6109701 123.223937,39.6064925 C123.485317,39.6020149 123.62916,39.6171269 123.624123,39.9574254 C123.601175,41.2951119 123.632519,42.6344776 123.601735,43.9721642 C123.59334,44.3706716 123.720951,44.4400746 124.076362,44.424403 C124.701549,44.3958582 125.328974,44.4115299 125.956399,44.4216045 C126.050989,44.4238433 126.265354,44.3253358 126.221138,44.5564925 C126.192593,44.7076119 126.270951,44.9729104 125.977668,44.9745896 C124.98084,44.9785075 123.984011,44.9745896 122.987183,44.9745896 C122.760504,44.9745896 122.798563,44.8077985 122.798004,44.671791 C122.795765,43.8742164 122.797444,43.0772015 122.797444,42.2796269" id="Fill-40" fill="#24418A"></path>
                <path d="M92.4292724,44.4162313 C92.4886007,44.8992537 92.2775933,45.0027985 91.8617351,44.9860075 C91.0227425,44.9524254 90.1826306,44.9675373 89.3430784,44.9815299 C89.0844963,44.9860075 89.0016604,44.9115672 89.0027799,44.6462687 C89.0145336,43.066791 89.0195709,41.486194 89.0016604,39.9061567 C88.9966231,39.4992537 89.2580037,39.6313433 89.4561381,39.6139925 C89.6816978,39.5949627 89.8512873,39.5921642 89.8456903,39.9307836 C89.8233022,41.2970149 89.8484888,42.663806 89.8283396,44.0300373 C89.8233022,44.3563433 89.915653,44.4341418 90.2296455,44.4240672 C90.9533396,44.3994403 91.6787127,44.4162313 92.4292724,44.4162313" id="Fill-42" fill="#24418A"></path>
                <path d="M140.536791,22.1500187 C140.536791,21.4391978 140.53903,20.7294963 140.535672,20.0192351 C140.534552,19.8597201 140.549664,19.7461007 140.758433,19.7511381 C141.693694,19.7735261 142.635112,19.7158769 143.553022,19.9615858 C144.255448,20.1490858 144.707127,20.5951679 144.911978,21.2936754 C145.059739,21.7957276 145.065336,22.3072948 144.962351,22.8121455 C144.77597,23.7250187 144.184925,24.2612127 143.258619,24.421847 C142.426343,24.5656903 141.586791,24.4895709 140.750037,24.5164366 C140.537351,24.5225933 140.489776,24.4363993 140.493134,24.2371455 C140.503769,23.5414366 140.497612,22.8462873 140.497612,22.1500187 L140.536791,22.1500187 Z" id="Fill-44" fill="#FFFFFF"></path>
                <path d="M125.435821,27.4191092 C126.13153,25.2704104 126.616231,23.1166791 127.223507,20.9674254 C127.343843,21.4862687 127.469776,22.0039925 127.583955,22.5245149 C127.922575,24.063694 128.293097,25.5950373 128.747015,27.1051119 C128.782276,27.223209 128.955784,27.4202239 128.632276,27.4191045 L125.435821,27.4191092 Z" id="Fill-46" fill="#FFFFFF"></path>
                <path d="M76.9434515,22.4561194 C76.9434515,21.6456716 76.9445709,20.8352239 76.9423321,20.0247761 C76.9417724,19.8602239 76.9311381,19.7191791 77.1740485,19.7242164 C77.9128545,19.7393284 78.6555784,19.6945522 79.3904664,19.7516418 C80.600541,19.8445522 81.307444,20.4742164 81.5061381,21.6585448 C81.6645336,22.5949254 81.6410261,23.5301866 81.0645336,24.3630224 C80.7628545,24.7995896 80.353153,25.0352239 79.8287127,25.1029478 C78.9499813,25.2171269 78.0684515,25.1426866 77.188041,25.1740299 C76.9121082,25.1835448 76.9423321,25.0167537 76.9423321,24.8443657 C76.9440112,24.0484701 76.9434515,23.2520149 76.9434515,22.4561194" id="Fill-48" fill="#FFFFFF"></path>
                <path d="M107.499123,44.4408022 C106.505093,44.4296082 106.505093,44.4296082 106.505093,43.4484515 C106.505093,42.4421082 106.505093,42.4370709 107.522071,42.4544216 C107.819272,42.459459 108.118713,42.4784888 108.411996,42.5266231 C108.907332,42.6088993 109.24875,43.0152425 109.235317,43.4658022 C109.220205,43.9353918 108.884384,44.3215858 108.391847,44.3909888 C108.097444,44.431847 107.796884,44.42625 107.499123,44.4408022" id="Fill-50" fill="#FFFFFF"></path>
                <path d="M106.504869,41.0274067 C106.504869,40.1257276 106.504869,40.1223694 107.402071,40.15875 C107.656735,40.169944 107.914198,40.1867351 108.163825,40.2320709 C108.617743,40.3137873 108.916623,40.6775933 108.895354,41.090653 C108.873526,41.5132276 108.595354,41.7964366 108.139198,41.8742351 C107.702071,41.9497948 107.261026,41.9055784 106.82166,41.926847 C106.590504,41.938041 106.476884,41.8787127 106.500951,41.6234888 C106.519422,41.4270336 106.504869,41.2261007 106.504869,41.0274067" id="Fill-52" fill="#FFFFFF"></path>
                <path d="M100.479347,42.3922388 C100.47431,43.0118284 100.43625,43.5983955 99.9873694,44.1088433 C99.3526679,44.8319776 97.334944,44.731791 97.0735634,43.3812313 C96.9341978,42.6592164 96.8552799,41.945597 97.0299067,41.2275 C97.2073321,40.4959701 97.747444,40.0974627 98.5634888,40.0577239 C99.3963246,40.0179851 100.022631,40.3756343 100.278414,41.051194 C100.337743,41.2095896 100.385877,41.3769403 100.408265,41.5437313 C100.444646,41.8247015 100.456959,42.1090299 100.479347,42.3922388" id="Fill-54" fill="#FFFFFF"></path>
                <path d="M117.212463,42.7786567 L115.203134,42.7786567 C115.53,41.9441418 115.84791,41.1353731 116.207799,40.2152239 C116.566007,41.1292164 116.883918,41.9402239 117.212463,42.7786567" id="Fill-56" fill="#FFFFFF"></path>
            </g>
        </g>
    </g>
</svg>