<?xml version="1.0" encoding="UTF-8"?>
<svg width="214px" height="214px" viewBox="0 0 214 214" version="1.1" xmlns="http://www.w3.org/2000/svg" xmlns:xlink="http://www.w3.org/1999/xlink">
    <!-- Generator: Sketch 56.3 (81716) - https://sketch.com -->
    <title>busy_machines_logo</title>
    <desc>Created with Sketch.</desc>
    <defs>
        <polygon id="path-1" points="0.575106195 0.267053377 129.997699 0.267053377 129.997699 19.2496331 0.575106195 19.2496331"></polygon>
        <path d="M17.3675556,0.879111111 L3.71705556,8.73361111 C1.52822222,10.1608889 0.1495,12.5439444 0,15.1518889 L0,15.1518889 L0,30.8442778 C0.146944444,33.4535 1.52694444,35.8378333 3.71705556,37.2651111 L3.71705556,37.2651111 L17.3675556,45.1170556 C19.7046111,46.2938889 22.4633333,46.2938889 24.8016667,45.1170556 L24.8016667,45.1170556 L38.4508889,37.2625556 C40.6397222,35.8365556 42.0197222,33.4522222 42.1666667,30.8442778 L42.1666667,30.8442778 L42.1666667,15.1518889 C42.0184444,12.5439444 40.6384444,10.1608889 38.4508889,8.73361111 L38.4508889,8.73361111 L24.8016667,0.879111111 C23.6325,0.293888889 22.3585556,0.00127777778 21.0846111,0.00127777778 L21.0846111,0.00127777778 C19.8106667,0.00127777778 18.538,0.293888889 17.3675556,0.879111111 M18.0307222,11.6443889 L17.6473889,9.48622222 C17.5426111,8.9125 17.9233889,8.3605 18.4983889,8.25572222 L18.4983889,8.25572222 C18.5073333,8.25444444 18.5162778,8.25316667 18.5239444,8.25188889 L18.5239444,8.25188889 C20.2182778,7.93627778 21.9573333,7.93627778 23.6503889,8.25188889 L23.6503889,8.25188889 C23.9340556,8.29788889 24.1857778,8.45505556 24.3518889,8.68761111 L24.3518889,8.68761111 C24.5141667,8.91888889 24.5780556,9.20638889 24.5307778,9.48622222 L24.5307778,9.48622222 L24.1474444,11.6443889 C26.0449444,12.1580556 27.7788889,13.1483333 29.187,14.5206667 L29.187,14.5206667 L30.8787778,13.1151111 C31.3387778,12.7381667 32.0147222,12.7982222 32.4006111,13.2492778 L32.4006111,13.2492778 C33.5046111,14.5551667 34.3709444,16.0450556 34.9574444,17.6499444 L34.9574444,17.6499444 C35.0571111,17.9157222 35.0443333,18.2096111 34.9216667,18.4664444 L34.9216667,18.4664444 C34.8015556,18.7245556 34.5830556,18.9226111 34.316,19.0197222 L34.316,19.0197222 L32.2357778,19.7672222 C32.4875,20.7051111 32.6152778,21.6711111 32.6152778,22.6422222 L32.6152778,22.6422222 L32.6203889,22.6435 C32.6203889,23.6158889 32.4913333,24.5831667 32.2370556,25.5210556 L32.2370556,25.5210556 L34.3172778,26.2698333 C34.5843333,26.3669444 34.8028333,26.5662778 34.9229444,26.8231111 L34.9229444,26.8231111 C35.0456111,27.0799444 35.0583889,27.3751111 34.9587222,27.6408889 L34.9587222,27.6408889 C34.3722222,29.2457778 33.5071667,30.7356667 32.4031667,32.0415556 L32.4031667,32.0415556 C32.0172778,32.4938889 31.3400556,32.5526667 30.8800556,32.1744444 L30.8800556,32.1744444 L29.1844444,30.7637778 C27.8236111,32.0926667 26.1573889,33.0676111 24.3288889,33.5978889 L24.3288889,33.5978889 L24.3288889,35.4877222 C24.3263333,36.0806111 23.8446111,36.5597778 23.2504444,36.5559673 L23.2504444,36.5559673 L18.9238889,36.5559673 C18.3297222,36.5597778 17.8454444,36.0818889 17.8416111,35.4877222 L17.8416111,35.4877222 L17.8416111,30.1964444 C14.7864444,28.9327222 12.7943889,25.9503889 12.7969444,22.6435 L12.7969444,22.6435 C12.7560556,18.0665 16.4309444,14.3226111 21.0079444,14.2804444 L21.0079444,14.2804444 C25.5849444,14.2395556 29.3301111,17.9144444 29.371,22.4914444 L29.371,22.4914444 C29.4055,26.1407778 27.0505556,29.3786667 23.5686111,30.4737222 L23.5686111,30.4737222 C23.0038333,30.6500556 22.4007222,30.3395556 22.2154444,29.7747778 L22.2154444,29.7747778 C22.0365556,29.2151111 22.3470556,28.6145556 22.908,28.4356667 L22.908,28.4356667 C22.9131111,28.4343889 22.9207778,28.4331111 22.9246111,28.4318333 L22.9246111,28.4318333 C26.1573889,27.4134444 27.9526667,23.9711111 26.9355556,20.7396111 L26.9355556,20.7396111 C25.9197222,17.5081111 22.4761111,15.7141111 19.2446111,16.7286667 L19.2446111,16.7286667 C16.0143889,17.7457778 14.2178333,21.1893889 15.2349444,24.4196111 L15.2349444,24.4196111 C15.8367778,26.3324444 17.3330556,27.83 19.2446111,28.4318333 L19.2446111,28.4318333 C19.6943889,28.5698333 20.0010556,28.9825556 20.0023333,29.4527778 L20.0023333,29.4527778 L20.0023333,34.4220556 L22.1668889,34.4220556 L22.1668889,32.7635 C22.1681667,32.2536667 22.5285,31.8179444 23.0281111,31.7182778 L23.0281111,31.7182778 C25.0674444,31.2851111 26.9074444,30.1926111 28.2606111,28.6056111 L28.2606111,28.6056111 C28.6465,28.152 29.3262778,28.0945 29.7837222,28.4778333 L29.7837222,28.4778333 L31.4026667,29.8207778 C31.8268889,29.2163889 32.1987222,28.5749444 32.5117778,27.9053889 L32.5117778,27.9053889 L30.5261111,27.1872778 C30.2565,27.0888889 30.038,26.8921111 29.9153333,26.6327222 L29.9153333,26.6327222 C29.7965,26.3746111 29.785,26.0781667 29.8833889,25.8123889 L29.8833889,25.8123889 C30.6462222,23.7717778 30.6462222,21.5228889 29.8833889,19.481 L29.8833889,19.481 C29.785,19.2139444 29.7965,18.9187778 29.9153333,18.6593889 L29.9153333,18.6593889 C30.0392778,18.4038333 30.2577778,18.2045 30.5261111,18.1061111 L30.5261111,18.1061111 L32.5117778,17.3918333 C32.1987222,16.721 31.8268889,16.0795556 31.4013889,15.4738889 L31.4013889,15.4738889 L29.7837222,16.8206667 C29.3262778,17.2014444 28.6477778,17.1439444 28.2606111,16.6928889 L28.2606111,16.6928889 C26.8358889,15.0241111 24.8732222,13.9035 22.7112222,13.5291111 L22.7112222,13.5291111 C22.4301111,13.4818333 22.1783889,13.3246667 22.0122778,13.0933889 L22.0122778,13.0933889 C21.8474444,12.8608333 21.7848333,12.5733333 21.8346667,12.2922222 L21.8346667,12.2922222 L22.2026667,10.2235 C21.459,10.1532222 20.7102222,10.1532222 19.9665556,10.2235 L19.9665556,10.2235 L20.3345556,12.2922222 C20.3843889,12.5733333 20.3217778,12.8608333 20.1569444,13.0933889 L20.1569444,13.0933889 C19.9921111,13.3233889 19.7403889,13.4818333 19.4592778,13.5291111 L19.4592778,13.5291111 C17.2972778,13.9047778 15.3333333,15.0241111 13.9086111,16.6941667 L13.9086111,16.6941667 C13.5201667,17.1452222 12.8429444,17.2027222 12.3855,16.8219444 L12.3855,16.8219444 L10.7678333,15.4726111 C10.3448889,16.0782778 9.97305556,16.7184444 9.65744444,17.388 L9.65744444,17.388 L11.6443889,18.1022778 C12.1989444,18.3054444 12.4851667,18.9213333 12.2832778,19.4771667 L12.2832778,19.4771667 C11.5191667,21.5190556 11.5191667,23.7666667 12.2832778,25.8098333 L12.2832778,25.8098333 C12.4851667,26.3643889 12.2002222,26.9802778 11.6443889,27.1834444 L11.6443889,27.1834444 L9.65744444,27.8977222 C9.9705,28.5685556 10.3436111,29.21 10.7678333,29.8143889 L10.7678333,29.8143889 L12.3842222,28.4701667 C12.8391111,28.0855556 13.5188889,28.1430556 13.9035,28.5966667 L13.9035,28.5966667 C13.9213889,28.6171111 13.9367222,28.6375556 13.9520556,28.658 L13.9520556,28.658 C14.6062778,29.4144444 15.3780556,30.0622778 16.2354444,30.5746667 L16.2354444,30.5746667 C16.7452778,30.8723889 16.9177778,31.5266111 16.6213333,32.0351667 L16.6213333,32.0351667 C16.6175,32.0415556 16.6136667,32.0453889 16.6111111,32.0530556 L16.6111111,32.0530556 C16.2955,32.5565 15.6348889,32.7149444 15.1250556,32.4095556 L15.1250556,32.4095556 C14.3481667,31.9508333 13.6313333,31.3975556 12.9886111,30.7663333 L12.9886111,30.7663333 L11.2981111,32.1718889 C10.8406667,32.5513889 10.1608889,32.4926111 9.77627778,32.0351667 L9.77627778,32.0351667 C8.67227778,30.7292778 7.80722222,29.2393889 7.22072222,27.6332222 L7.22072222,27.6332222 C7.11977778,27.3674444 7.13127778,27.0722778 7.25138889,26.8154444 L7.25138889,26.8154444 C7.37405556,26.5598889 7.59255556,26.3618333 7.85961111,26.2634444 L7.85961111,26.2634444 L9.93855556,25.5159444 C9.43127778,23.6337778 9.43127778,21.6493889 9.93855556,19.7659444 L9.93855556,19.7659444 L7.85961111,19.021 C7.59255556,18.9226111 7.37533333,18.7258333 7.25138889,18.4677222 L7.25138889,18.4677222 C7.13127778,18.2108889 7.11977778,17.9157222 7.22072222,17.6499444 L7.22072222,17.6499444 C7.80722222,16.0450556 8.67227778,14.5551667 9.77627778,13.2505556 L9.77627778,13.2505556 C10.1621667,12.7995 10.8381111,12.7381667 11.2981111,13.1151111 L11.2981111,13.1151111 L12.9924444,14.5206667 C14.3992778,13.1483333 16.1332222,12.1580556 18.0307222,11.6443889 M18.5354444,38.3780556 C18.5162778,37.7851667 18.9788333,37.2906667 19.5691667,37.2702222 L19.5691667,37.2702222 C19.5934444,37.2689444 19.6177222,37.2689444 19.6432778,37.2702222 L19.6432778,37.2702222 L22.5259444,37.2702222 C23.1162778,37.2497778 23.6133333,37.7123333 23.6337778,38.3039444 L23.6337778,38.3039444 C23.6529444,38.8942778 23.1903889,39.3913333 22.6000556,39.4105 L22.6000556,39.4105 C22.5757778,39.4117778 22.5502222,39.4117778 22.5259444,39.4105 L22.5259444,39.4105 L19.6432778,39.4105 C19.6305,39.4105 19.6177222,39.4117778 19.6049444,39.4117778 L19.6049444,39.4117778 C19.0312222,39.4117778 18.5558889,38.9556111 18.5354444,38.3780556 M19.2931667,41.1917222 C19.2931667,40.6013889 19.7723333,40.1209444 20.3639444,40.1209444 L20.3639444,40.1209444 L21.8065556,40.1209444 C22.3968889,40.1209444 22.8773333,40.6013889 22.8773333,41.1917222 L22.8773333,41.1917222 C22.8773333,41.7833333 22.3968889,42.2637778 21.8065556,42.2637778 L21.8065556,42.2637778 L21.8052778,42.2637778 L20.3639444,42.2637778 C19.7723333,42.2637778 19.2931667,41.7833333 19.2931667,41.1917222" id="path-3"></path>
        <linearGradient x1="7.98484115%" y1="-0.00197256849%" x2="92.0184545%" y2="99.9987233%" id="linearGradient-5">
            <stop stop-color="#A50024" offset="0%"></stop>
            <stop stop-color="#DB48AC" offset="100%"></stop>
        </linearGradient>
    </defs>
    <g id="Exports" stroke="none" stroke-width="1" fill="none" fill-rule="evenodd">
        <g id="Homepage-New" transform="translate(-736.000000, -3963.000000)">
            <g id="Group-7" transform="translate(778.000000, 4028.000000)">
                <g id="Group-3" transform="translate(0.000000, 59.000000)">
                    <mask id="mask-2" fill="white">
                        <use xlink:href="#path-1"></use>
                    </mask>
                    <g id="Clip-2"></g>
                    <path d="M95.3968761,3.1249469 C95.0770531,2.82353097 94.8964336,2.40131858 94.9010354,1.96184956 C94.8952832,1.51317699 95.0759027,1.08061062 95.3968761,0.767690265 C95.708646,0.442115044 96.1423628,0.260345133 96.5933363,0.267247788 C97.0420088,0.260345133 97.4734248,0.437513274 97.7874956,0.757336283 C98.1130708,1.07255752 98.2936903,1.50857522 98.2833363,1.96184956 C98.2879381,2.40246903 98.1073186,2.82353097 97.7874956,3.1249469 C97.1236903,3.77839823 96.0572301,3.77839823 95.3934248,3.1249469 L95.3968761,3.1249469 Z M3.38218584,6.79946018 L5.4069646,6.79946018 C5.95917699,6.83052212 6.50448673,6.65565487 6.93475221,6.30822124 C7.30979646,5.97344248 7.51457522,5.48680531 7.49156637,4.98406195 C7.51572566,4.48592035 7.31554867,4.00388496 6.94510619,3.66910619 C6.5010354,3.32397345 5.94767257,3.15255752 5.38625664,3.18822124 L3.38333628,3.18822124 L3.38218584,6.79946018 Z M3.38218584,12.9416726 L5.69457522,12.9416726 C6.27784956,12.9761858 6.85422124,12.7978673 7.31554867,12.4412301 C7.71475221,12.0960973 7.93218584,11.5864513 7.90457522,11.0606991 C7.92758407,10.5303451 7.72050442,10.0172478 7.33625664,9.65140708 C6.8910354,9.27521239 6.31811504,9.08538938 5.73714159,9.12220354 L3.38218584,9.12220354 L3.38218584,12.9416726 Z M0.782185841,15.2851239 C0.67059292,15.2851239 0.578557522,15.1965398 0.575106195,15.0849469 L0.575106195,1.0230885 C0.576256637,0.90919469 0.668292035,0.818309735 0.782185841,0.818309735 L5.84413274,0.818309735 C7.03138938,0.750433628 8.20023894,1.1369823 9.11138938,1.90087611 C9.90289381,2.61990265 10.3366106,3.64954867 10.298646,4.71715929 C10.3101504,5.41317699 10.1007699,6.09653982 9.70041593,6.66600885 C9.33112389,7.20671681 8.79386726,7.61052212 8.17262832,7.81645133 C8.90776106,7.98786726 9.56121239,8.41007965 10.0190885,9.01061062 C10.5137788,9.64910619 10.7726283,10.4383097 10.7519204,11.2459204 C10.7875841,12.3514956 10.3343097,13.4156549 9.51404425,14.1576903 C8.60634513,14.9411416 7.43059292,15.3472478 6.23183186,15.2897257 L0.782185841,15.2851239 Z M57.8832478,15.2851239 C57.7682035,15.2851239 57.6761681,15.1942389 57.6750177,15.0803451 L57.6750177,5.14627434 L53.5161681,15.163177 C53.4828053,15.2402566 53.4080265,15.2897257 53.3240442,15.2897257 L51.2279381,15.2897257 C51.1439558,15.2897257 51.069177,15.2402566 51.0369646,15.163177 L46.9609469,5.42468142 L46.9609469,15.0883982 C46.9597965,15.202292 46.8677611,15.293177 46.7538673,15.293177 L44.3597965,15.293177 C44.2459027,15.293177 44.1538673,15.202292 44.1527168,15.0883982 L44.1527168,1.0230885 C44.1538673,0.90919469 44.2459027,0.818298932 44.3597965,0.818298932 L47.7731593,0.818298932 C47.8559912,0.818298932 47.9307699,0.867778761 47.9641327,0.943707965 L52.1149292,10.8099027 C52.1597965,10.9145929 52.2805929,10.9640619 52.3852832,10.9203451 C52.4359027,10.8996372 52.4750177,10.8605221 52.4968761,10.8099027 L56.5487345,0.94600885 C56.5820973,0.868929204 56.6568761,0.818298932 56.7408584,0.818298932 L60.2761681,0.818298932 C60.3889115,0.817159292 60.4820973,0.908044248 60.4832478,1.02078761 L60.4832478,1.0230885 L60.4832478,15.0849469 C60.4832478,15.1976903 60.3912124,15.2897257 60.2796195,15.2897257 L60.2761681,15.2897257 L57.8832478,15.2851239 Z M90.6892655,15.2851239 C90.5765221,15.2851239 90.4833363,15.1942389 90.4833363,15.0803451 L90.4833363,9.43167257 C90.508646,8.90822124 90.3441327,8.39397345 90.0220088,7.98211504 C89.2466106,7.25043363 88.0363451,7.25043363 87.2609469,7.98211504 C86.9158142,8.3709646 86.7213894,8.87140708 86.7144867,9.39140708 L86.7144867,15.0849469 C86.7133363,15.1988407 86.6213009,15.2897257 86.5074071,15.2897257 L84.1651062,15.2897257 C84.0523628,15.2897257 83.959177,15.1988407 83.9580265,15.0849469 L83.9580265,0.717070796 C83.959177,0.603176991 84.0523628,0.512292035 84.1651062,0.512292035 L86.4970531,0.512292035 C86.6109469,0.512292035 86.7029823,0.603176991 86.7041327,0.717070796 L86.7041327,6.08388496 C87.4024513,5.31653982 88.4148407,4.91043363 89.4490885,4.98406195 C90.5074956,4.91158407 91.5428938,5.31999115 92.2665221,6.09653982 C92.9280265,6.90184956 93.269708,7.92344248 93.2259912,8.96459292 L93.2259912,15.0849469 C93.2248407,15.1988407 93.1328053,15.2897257 93.0200619,15.2897257 L90.6892655,15.2851239 Z M95.4394425,15.2851239 C95.3255487,15.2851239 95.2323628,15.1942389 95.2323628,15.0803451 L95.2323628,5.45229204 C95.2323628,5.33839823 95.3255487,5.24636283 95.4394425,5.24750261 L97.7702389,5.24750261 C97.8841327,5.24636283 97.9761681,5.33839823 97.9773186,5.45229204 L97.9773186,15.0849469 C97.9761681,15.1988407 97.8841327,15.2897257 97.7702389,15.2897257 L95.4394425,15.2851239 Z M106.695372,15.2851239 C106.582628,15.2851239 106.489442,15.1942389 106.489442,15.0803451 L106.489442,9.43167257 C106.514752,8.90822124 106.350239,8.39397345 106.028115,7.98211504 C105.240062,7.23202655 103.997584,7.25043363 103.23254,8.02353097 C102.878204,8.43999115 102.694133,8.97379646 102.714841,9.51910619 L102.714841,15.0849469 C102.71369,15.1988407 102.621655,15.2897257 102.507761,15.2897257 L100.171212,15.2897257 C100.057319,15.2897257 99.9652832,15.1988407 99.9641327,15.0849469 L99.9641327,5.45229204 C99.9652832,5.33839823 100.057319,5.24636283 100.171212,5.24751327 L102.626257,5.24751327 L102.626257,6.49229204 C102.916168,6.0010531 103.348735,5.6110531 103.865283,5.37061062 C104.392186,5.11406195 104.972009,4.98176106 105.558735,4.98406195 C106.591832,4.91618584 107.60077,5.32574336 108.293336,6.09653982 C108.943336,6.90760177 109.276965,7.92574336 109.233248,8.96459292 L109.233248,15.0849469 C109.232097,15.1988407 109.140062,15.2897257 109.026168,15.2897257 L106.695372,15.2851239 Z M13.2092655,14.4176903 C12.5132478,13.6445929 12.1416549,12.6322035 12.1738673,11.5910531 L12.1738673,5.45229204 C12.1750177,5.33839823 12.2670531,5.24636283 12.3809469,5.24751327 L14.7128938,5.24751327 C14.8267876,5.24636283 14.918823,5.33839823 14.9199735,5.45229204 L14.9199735,11.0445929 C14.8958142,11.572646 15.0649292,12.0914956 15.3939558,12.5045044 C15.7448407,12.8922035 16.2533363,13.0992832 16.7744867,13.0647699 C17.2979381,13.0912301 17.8087345,12.8945044 18.1780265,12.5240619 C18.5335133,12.1317611 18.719885,11.6152124 18.6934248,11.0860088 L18.6934248,5.44884071 C18.6945752,5.3349469 18.7866106,5.2429115 18.9005044,5.24405128 L21.2313009,5.24405128 C21.3451947,5.2429115 21.4372301,5.3349469 21.4383805,5.44884071 L21.4383805,15.0849469 C21.4383805,15.1976903 21.3463451,15.2897257 21.2336018,15.2897257 L21.2313009,15.2897257 L18.9269646,15.2897257 C18.8809469,14.9307876 18.8533363,14.5695487 18.8441327,14.2083097 C18.5772301,14.6650354 18.1665221,15.0216726 17.6775841,15.223 C17.159885,15.4484867 16.6019204,15.563531 16.0370531,15.5600796 C14.9728938,15.6118496 13.938646,15.1942389 13.2092655,14.4176903 L13.2092655,14.4176903 Z M66.0364336,11.1262743 C65.1966106,11.2493717 64.7766991,11.6715841 64.7755487,12.3917611 C64.7697965,12.7046814 64.8974956,13.0060973 65.1264336,13.2189292 C65.3933363,13.4547699 65.7419204,13.5767168 66.0974071,13.5560088 C66.6783805,13.5790177 67.2478496,13.3857434 67.6965221,13.0153009 C68.1636018,12.5436195 68.398292,11.8890177 68.3373186,11.2275133 L68.3373186,10.7788407 L66.0364336,11.1262743 Z M62.9958142,14.6765398 C62.3849292,14.1404336 62.0340514,13.3661858 62.0363451,12.5539735 C62.0041327,11.7762743 62.3124513,11.0227345 62.8830708,10.4923805 C63.4962566,9.95397345 64.259,9.61229204 65.0689115,9.51220354 L67.5676726,9.14521239 C68.0750177,9.07733628 68.3304159,8.84034513 68.3304159,8.43193805 C68.3373186,8.06724779 68.1739558,7.71981416 67.8874956,7.49317699 C67.0729823,6.96512389 66.0134248,7.00538938 65.2414779,7.59441593 C64.9642212,7.84521239 64.7755487,8.17884071 64.7042212,8.54583186 C64.6869646,8.65742478 64.5822743,8.73335398 64.4706814,8.7149469 L64.4637788,8.71379646 L62.238823,8.24786726 C62.3573186,7.34131858 62.8243982,6.51645133 63.5411239,5.9469823 C64.4016549,5.24981416 65.4876726,4.89432743 66.5943982,4.94724779 C67.808115,4.84485841 69.0103274,5.23140708 69.9387345,6.01946018 C70.6600619,6.74769027 71.0477611,7.74052212 71.0120973,8.76441593 L71.0120973,15.0918496 C71.0120973,15.2057434 70.9189115,15.2966283 70.8050177,15.2966283 L68.6203274,15.2966283 C68.5409469,14.8997257 68.5064336,14.4959204 68.5156372,14.092115 C67.8587345,15.0906991 66.7163451,15.6601681 65.5244867,15.5819381 C64.5960796,15.6222035 63.6883805,15.2977788 62.9958142,14.6765398 L62.9958142,14.6765398 Z M25.1715664,15.2793717 C24.6768761,15.1125575 24.229354,14.8341504 23.8612124,14.463708 C23.5782035,14.1691947 23.3412124,13.8309646 23.1594425,13.4639735 C23.009885,13.1591062 22.908646,12.8323805 22.8603274,12.4953009 L24.9978496,12.0351239 C25.108292,12.0132655 25.2164336,12.0845929 25.2394425,12.1961858 L25.2405929,12.2065398 C25.3050177,12.5447699 25.4810354,12.8530885 25.739885,13.0797257 C26.1126283,13.3903451 26.5877611,13.5468053 27.0720973,13.5191947 C27.4252832,13.5410531 27.7761681,13.4398142 28.0626283,13.2327345 C28.2869646,13.0636195 28.4158142,12.7978673 28.4135133,12.5183097 C28.4135133,12.0155664 28.048823,11.6888407 27.3194425,11.5392832 L25.9768761,11.2275133 C25.1658142,11.0975133 24.4168761,10.7109646 23.839354,10.1253894 C23.368823,9.60653982 23.1145752,8.92777876 23.1272301,8.22715929 C23.1226283,7.32981416 23.5206814,6.47733628 24.2120973,5.90441593 C24.9644867,5.25441593 25.9343097,4.91158407 26.9271416,4.9449469 C27.5460796,4.93344248 28.1615664,5.03353097 28.7436903,5.24176106 C29.2015664,5.39822124 29.6180265,5.65592035 29.9620088,5.99645133 C30.2289115,6.27025664 30.4509469,6.58317699 30.6223628,6.92485841 C30.7661681,7.21476991 30.8639558,7.52538938 30.9122743,7.84521239 L28.6205929,8.35485841 C28.5630708,7.99822124 28.3928053,7.67034513 28.1351062,7.41724779 C27.8118319,7.1250354 27.3827168,6.97662832 26.9478496,7.00884071 C26.6176726,6.99963717 26.2943982,7.09972566 26.0274956,7.29415044 C25.789354,7.45406195 25.6455487,7.72211504 25.6455487,8.00972566 C25.6455487,8.49866372 25.9550177,8.79777876 26.5739558,8.9070708 L28.0189115,9.2130885 C28.8633363,9.34884071 29.6444867,9.73999115 30.258823,10.3347699 C30.7661681,10.8582212 31.0445752,11.562292 31.0330708,12.2905221 C31.0365221,13.1775133 30.6603274,14.0253894 29.9976726,14.6167168 C29.1935133,15.3127345 28.1477611,15.6647699 27.0859027,15.5980442 C26.4336018,15.6072478 25.7859027,15.4991062 25.1715664,15.2793717 L25.1715664,15.2793717 Z M73.9733363,14.0725575 C72.9528938,13.072823 72.3960796,11.6934425 72.4351947,10.2657434 C72.3914779,8.83804425 72.9402389,7.45636283 73.9526283,6.44857522 C74.9408584,5.45114159 76.2960796,4.90468142 77.6996195,4.93804425 C78.8420088,4.88972566 79.9659912,5.23946018 80.878292,5.92857522 C81.6628938,6.52680531 82.2231593,7.37007965 82.4682035,8.32609735 L80.2041327,9.07848673 C80.1005929,9.10609735 79.9924513,9.05087611 79.9556372,8.95078761 C79.6680265,8.00167257 78.759177,7.37928319 77.7697965,7.45521239 C77.0772301,7.43910619 76.4099735,7.71176106 75.9290885,8.20990265 C75.4125398,8.76786726 75.1444867,9.51220354 75.1859027,10.2714956 C75.1456372,11.0353894 75.418292,11.7820265 75.9394425,12.342292 C76.4214779,12.843885 77.0921858,13.122292 77.7882035,13.1084867 C78.348469,13.1372478 78.899531,12.9589292 79.3366991,12.6080442 C79.6565221,12.3376903 79.9038673,11.9914071 80.0568761,11.6014071 C80.0925398,11.4967168 80.2052832,11.4414956 80.3099735,11.4760088 L82.5360796,12.2088407 C82.2737788,13.1591062 81.7077611,13.9966283 80.9254602,14.5971593 C80.0292655,15.2874248 78.9190885,15.6429115 77.7870531,15.5980442 C76.3605044,15.633708 74.9822743,15.082646 73.9733363,14.0725575 L73.9733363,14.0725575 Z M114.078912,7.75777876 C113.693513,8.11326549 113.459973,8.60335398 113.42431,9.12565487 L117.965106,9.12565487 C117.95015,8.59530088 117.731566,8.09140708 117.356522,7.71636283 C116.903248,7.30680531 116.305018,7.09972566 115.696434,7.14114159 C115.095903,7.1169823 114.513779,7.34016814 114.083513,7.75777876 L114.078912,7.75777876 Z M112.180681,14.1358319 C111.139531,13.1084867 110.583867,11.6853894 110.652894,10.2243274 C110.602274,8.80468142 111.139531,7.42645133 112.139265,6.41636283 C113.056168,5.46264602 114.325106,4.92653982 115.649265,4.93689381 C117.015991,4.8609646 118.352805,5.36485841 119.329531,6.32432743 C120.261389,7.37007965 120.739973,8.74255752 120.661743,10.1414956 C120.661743,10.2507876 120.661743,10.3715841 120.651389,10.5084867 C120.641035,10.6453894 120.641035,10.753531 120.641035,10.8340619 L120.620327,10.9767168 L113.362186,10.9767168 C113.379442,11.6083097 113.664752,12.2030885 114.146788,12.6103451 C114.635726,13.0429115 115.268469,13.2753009 115.92192,13.262646 C116.887142,13.3477788 117.794841,12.7978673 118.166434,11.9039735 C118.206699,11.8107876 118.311389,11.7613186 118.409177,11.7889292 L120.527142,12.4113186 C120.255637,13.3316726 119.685018,14.1358319 118.907319,14.6972478 C118.030681,15.3196372 116.975726,15.6348584 115.902363,15.5968938 C114.518381,15.6268053 113.179265,15.1010531 112.185283,14.1369823 L112.180681,14.1358319 Z M124.133779,15.2793717 C123.639088,15.1125575 123.189265,14.8341504 122.822274,14.463708 C122.539265,14.1680442 122.303425,13.8309646 122.120504,13.4639735 C121.972097,13.1591062 121.870858,12.8323805 121.821389,12.4953009 L123.958912,12.0351239 C124.070504,12.0144159 124.179796,12.0868938 124.200504,12.1984867 C124.200504,12.2007876 124.201655,12.2042389 124.201655,12.2065398 C124.26608,12.5447699 124.440947,12.8530885 124.700947,13.0797257 C125.07254,13.3903451 125.548823,13.5468053 126.032009,13.5191947 C126.386345,13.5410531 126.734929,13.4398142 127.02254,13.2327345 C127.246876,13.0636195 127.376876,12.7978673 127.373425,12.5183097 C127.373425,12.0155664 127.009885,11.6888407 126.279354,11.5392832 L124.937938,11.2275133 C124.126876,11.0975133 123.376788,10.7109646 122.800416,10.1253894 C122.329885,9.60653982 122.075637,8.92662832 122.089442,8.22715929 C122.085991,7.32866372 122.485195,6.47618584 123.177761,5.90441593 C123.93015,5.25441593 124.899973,4.91158407 125.892805,4.9449469 C126.511743,4.93344248 127.12723,5.03353097 127.710504,5.24176106 C128.168381,5.39822124 128.584841,5.65592035 128.927673,5.99645133 C129.193425,6.27025664 129.41546,6.58317699 129.588027,6.92485841 C129.732982,7.21476991 129.829619,7.52538938 129.876788,7.84521239 L127.585106,8.35485841 C127.528735,7.99822124 127.357319,7.67034513 127.099619,7.41724779 C126.776345,7.1250354 126.34723,6.97662832 125.912363,7.00884071 C125.582186,6.99848673 125.258912,7.09972566 124.993159,7.29415044 C124.753867,7.45406195 124.610062,7.72211504 124.611212,8.00972566 C124.611212,8.49866372 124.919531,8.79777876 125.538469,8.9070708 L126.983425,9.2130885 C127.826699,9.34884071 128.609,9.73999115 129.223336,10.3347699 C129.730681,10.8582212 130.009088,11.5611416 129.997584,12.2905221 C130.001035,13.1775133 129.62369,14.0253894 128.962186,14.6167168 C128.159177,15.3127345 127.112274,15.6647699 126.051566,15.5980442 C125.398115,15.6083982 124.748115,15.5002566 124.133779,15.2793717 L124.133779,15.2793717 Z M33.8746637,19.2496331 C33.7619204,19.2506991 33.6687345,19.1598142 33.6675841,19.0470708 C33.6675841,19.0160088 33.6744867,18.9872478 33.6859912,18.9607876 L35.7475841,14.4625575 C35.8752832,14.1853009 35.8706814,13.8666283 35.7360796,13.5939735 L31.7785575,5.54087611 C31.7302389,5.43848673 31.7728053,5.31653982 31.8751947,5.2670708 C31.9028053,5.25441593 31.9338673,5.24751327 31.9649292,5.24751327 L34.5775841,5.24751327 C34.6569646,5.24636283 34.7305929,5.29123009 34.7651062,5.36255752 L37.4111239,11.1205221 L39.8558142,5.36830973 C39.8880265,5.29238053 39.9639558,5.2429007 40.0467876,5.2429007 L42.5213894,5.2429007 C42.6352832,5.24176106 42.7273186,5.33264602 42.728469,5.44653982 C42.728469,5.47530088 42.7215664,5.50406195 42.7100619,5.53052212 L36.519531,19.1345044 C36.4850177,19.2069823 36.4113894,19.2518496 36.3308584,19.2496331 L33.8746637,19.2496331 Z" id="Fill-1" fill="#06183E" mask="url(#mask-2)"></path>
                </g>
                <g id="Group-6" transform="translate(44.000000, 0.000000)">
                    <mask id="mask-4" fill="white">
                        <use xlink:href="#path-3"></use>
                    </mask>
                    <g id="Clip-5"></g>
                    <path d="M17.3675556,0.879111111 L3.71705556,8.73361111 C1.52822222,10.1608889 0.1495,12.5439444 0,15.1518889 L0,15.1518889 L0,30.8442778 C0.146944444,33.4535 1.52694444,35.8378333 3.71705556,37.2651111 L3.71705556,37.2651111 L17.3675556,45.1170556 C19.7046111,46.2938889 22.4633333,46.2938889 24.8016667,45.1170556 L24.8016667,45.1170556 L38.4508889,37.2625556 C40.6397222,35.8365556 42.0197222,33.4522222 42.1666667,30.8442778 L42.1666667,30.8442778 L42.1666667,15.1518889 C42.0184444,12.5439444 40.6384444,10.1608889 38.4508889,8.73361111 L38.4508889,8.73361111 L24.8016667,0.879111111 C23.6325,0.293888889 22.3585556,0.00127777778 21.0846111,0.00127777778 L21.0846111,0.00127777778 C19.8106667,0.00127777778 18.538,0.293888889 17.3675556,0.879111111 M18.0307222,11.6443889 L17.6473889,9.48622222 C17.5426111,8.9125 17.9233889,8.3605 18.4983889,8.25572222 L18.4983889,8.25572222 C18.5073333,8.25444444 18.5162778,8.25316667 18.5239444,8.25188889 L18.5239444,8.25188889 C20.2182778,7.93627778 21.9573333,7.93627778 23.6503889,8.25188889 L23.6503889,8.25188889 C23.9340556,8.29788889 24.1857778,8.45505556 24.3518889,8.68761111 L24.3518889,8.68761111 C24.5141667,8.91888889 24.5780556,9.20638889 24.5307778,9.48622222 L24.5307778,9.48622222 L24.1474444,11.6443889 C26.0449444,12.1580556 27.7788889,13.1483333 29.187,14.5206667 L29.187,14.5206667 L30.8787778,13.1151111 C31.3387778,12.7381667 32.0147222,12.7982222 32.4006111,13.2492778 L32.4006111,13.2492778 C33.5046111,14.5551667 34.3709444,16.0450556 34.9574444,17.6499444 L34.9574444,17.6499444 C35.0571111,17.9157222 35.0443333,18.2096111 34.9216667,18.4664444 L34.9216667,18.4664444 C34.8015556,18.7245556 34.5830556,18.9226111 34.316,19.0197222 L34.316,19.0197222 L32.2357778,19.7672222 C32.4875,20.7051111 32.6152778,21.6711111 32.6152778,22.6422222 L32.6152778,22.6422222 L32.6203889,22.6435 C32.6203889,23.6158889 32.4913333,24.5831667 32.2370556,25.5210556 L32.2370556,25.5210556 L34.3172778,26.2698333 C34.5843333,26.3669444 34.8028333,26.5662778 34.9229444,26.8231111 L34.9229444,26.8231111 C35.0456111,27.0799444 35.0583889,27.3751111 34.9587222,27.6408889 L34.9587222,27.6408889 C34.3722222,29.2457778 33.5071667,30.7356667 32.4031667,32.0415556 L32.4031667,32.0415556 C32.0172778,32.4938889 31.3400556,32.5526667 30.8800556,32.1744444 L30.8800556,32.1744444 L29.1844444,30.7637778 C27.8236111,32.0926667 26.1573889,33.0676111 24.3288889,33.5978889 L24.3288889,33.5978889 L24.3288889,35.4877222 C24.3263333,36.0806111 23.8446111,36.5597778 23.2504444,36.5559673 L23.2504444,36.5559673 L18.9238889,36.5559673 C18.3297222,36.5597778 17.8454444,36.0818889 17.8416111,35.4877222 L17.8416111,35.4877222 L17.8416111,30.1964444 C14.7864444,28.9327222 12.7943889,25.9503889 12.7969444,22.6435 L12.7969444,22.6435 C12.7560556,18.0665 16.4309444,14.3226111 21.0079444,14.2804444 L21.0079444,14.2804444 C25.5849444,14.2395556 29.3301111,17.9144444 29.371,22.4914444 L29.371,22.4914444 C29.4055,26.1407778 27.0505556,29.3786667 23.5686111,30.4737222 L23.5686111,30.4737222 C23.0038333,30.6500556 22.4007222,30.3395556 22.2154444,29.7747778 L22.2154444,29.7747778 C22.0365556,29.2151111 22.3470556,28.6145556 22.908,28.4356667 L22.908,28.4356667 C22.9131111,28.4343889 22.9207778,28.4331111 22.9246111,28.4318333 L22.9246111,28.4318333 C26.1573889,27.4134444 27.9526667,23.9711111 26.9355556,20.7396111 L26.9355556,20.7396111 C25.9197222,17.5081111 22.4761111,15.7141111 19.2446111,16.7286667 L19.2446111,16.7286667 C16.0143889,17.7457778 14.2178333,21.1893889 15.2349444,24.4196111 L15.2349444,24.4196111 C15.8367778,26.3324444 17.3330556,27.83 19.2446111,28.4318333 L19.2446111,28.4318333 C19.6943889,28.5698333 20.0010556,28.9825556 20.0023333,29.4527778 L20.0023333,29.4527778 L20.0023333,34.4220556 L22.1668889,34.4220556 L22.1668889,32.7635 C22.1681667,32.2536667 22.5285,31.8179444 23.0281111,31.7182778 L23.0281111,31.7182778 C25.0674444,31.2851111 26.9074444,30.1926111 28.2606111,28.6056111 L28.2606111,28.6056111 C28.6465,28.152 29.3262778,28.0945 29.7837222,28.4778333 L29.7837222,28.4778333 L31.4026667,29.8207778 C31.8268889,29.2163889 32.1987222,28.5749444 32.5117778,27.9053889 L32.5117778,27.9053889 L30.5261111,27.1872778 C30.2565,27.0888889 30.038,26.8921111 29.9153333,26.6327222 L29.9153333,26.6327222 C29.7965,26.3746111 29.785,26.0781667 29.8833889,25.8123889 L29.8833889,25.8123889 C30.6462222,23.7717778 30.6462222,21.5228889 29.8833889,19.481 L29.8833889,19.481 C29.785,19.2139444 29.7965,18.9187778 29.9153333,18.6593889 L29.9153333,18.6593889 C30.0392778,18.4038333 30.2577778,18.2045 30.5261111,18.1061111 L30.5261111,18.1061111 L32.5117778,17.3918333 C32.1987222,16.721 31.8268889,16.0795556 31.4013889,15.4738889 L31.4013889,15.4738889 L29.7837222,16.8206667 C29.3262778,17.2014444 28.6477778,17.1439444 28.2606111,16.6928889 L28.2606111,16.6928889 C26.8358889,15.0241111 24.8732222,13.9035 22.7112222,13.5291111 L22.7112222,13.5291111 C22.4301111,13.4818333 22.1783889,13.3246667 22.0122778,13.0933889 L22.0122778,13.0933889 C21.8474444,12.8608333 21.7848333,12.5733333 21.8346667,12.2922222 L21.8346667,12.2922222 L22.2026667,10.2235 C21.459,10.1532222 20.7102222,10.1532222 19.9665556,10.2235 L19.9665556,10.2235 L20.3345556,12.2922222 C20.3843889,12.5733333 20.3217778,12.8608333 20.1569444,13.0933889 L20.1569444,13.0933889 C19.9921111,13.3233889 19.7403889,13.4818333 19.4592778,13.5291111 L19.4592778,13.5291111 C17.2972778,13.9047778 15.3333333,15.0241111 13.9086111,16.6941667 L13.9086111,16.6941667 C13.5201667,17.1452222 12.8429444,17.2027222 12.3855,16.8219444 L12.3855,16.8219444 L10.7678333,15.4726111 C10.3448889,16.0782778 9.97305556,16.7184444 9.65744444,17.388 L9.65744444,17.388 L11.6443889,18.1022778 C12.1989444,18.3054444 12.4851667,18.9213333 12.2832778,19.4771667 L12.2832778,19.4771667 C11.5191667,21.5190556 11.5191667,23.7666667 12.2832778,25.8098333 L12.2832778,25.8098333 C12.4851667,26.3643889 12.2002222,26.9802778 11.6443889,27.1834444 L11.6443889,27.1834444 L9.65744444,27.8977222 C9.9705,28.5685556 10.3436111,29.21 10.7678333,29.8143889 L10.7678333,29.8143889 L12.3842222,28.4701667 C12.8391111,28.0855556 13.5188889,28.1430556 13.9035,28.5966667 L13.9035,28.5966667 C13.9213889,28.6171111 13.9367222,28.6375556 13.9520556,28.658 L13.9520556,28.658 C14.6062778,29.4144444 15.3780556,30.0622778 16.2354444,30.5746667 L16.2354444,30.5746667 C16.7452778,30.8723889 16.9177778,31.5266111 16.6213333,32.0351667 L16.6213333,32.0351667 C16.6175,32.0415556 16.6136667,32.0453889 16.6111111,32.0530556 L16.6111111,32.0530556 C16.2955,32.5565 15.6348889,32.7149444 15.1250556,32.4095556 L15.1250556,32.4095556 C14.3481667,31.9508333 13.6313333,31.3975556 12.9886111,30.7663333 L12.9886111,30.7663333 L11.2981111,32.1718889 C10.8406667,32.5513889 10.1608889,32.4926111 9.77627778,32.0351667 L9.77627778,32.0351667 C8.67227778,30.7292778 7.80722222,29.2393889 7.22072222,27.6332222 L7.22072222,27.6332222 C7.11977778,27.3674444 7.13127778,27.0722778 7.25138889,26.8154444 L7.25138889,26.8154444 C7.37405556,26.5598889 7.59255556,26.3618333 7.85961111,26.2634444 L7.85961111,26.2634444 L9.93855556,25.5159444 C9.43127778,23.6337778 9.43127778,21.6493889 9.93855556,19.7659444 L9.93855556,19.7659444 L7.85961111,19.021 C7.59255556,18.9226111 7.37533333,18.7258333 7.25138889,18.4677222 L7.25138889,18.4677222 C7.13127778,18.2108889 7.11977778,17.9157222 7.22072222,17.6499444 L7.22072222,17.6499444 C7.80722222,16.0450556 8.67227778,14.5551667 9.77627778,13.2505556 L9.77627778,13.2505556 C10.1621667,12.7995 10.8381111,12.7381667 11.2981111,13.1151111 L11.2981111,13.1151111 L12.9924444,14.5206667 C14.3992778,13.1483333 16.1332222,12.1580556 18.0307222,11.6443889 M18.5354444,38.3780556 C18.5162778,37.7851667 18.9788333,37.2906667 19.5691667,37.2702222 L19.5691667,37.2702222 C19.5934444,37.2689444 19.6177222,37.2689444 19.6432778,37.2702222 L19.6432778,37.2702222 L22.5259444,37.2702222 C23.1162778,37.2497778 23.6133333,37.7123333 23.6337778,38.3039444 L23.6337778,38.3039444 C23.6529444,38.8942778 23.1903889,39.3913333 22.6000556,39.4105 L22.6000556,39.4105 C22.5757778,39.4117778 22.5502222,39.4117778 22.5259444,39.4105 L22.5259444,39.4105 L19.6432778,39.4105 C19.6305,39.4105 19.6177222,39.4117778 19.6049444,39.4117778 L19.6049444,39.4117778 C19.0312222,39.4117778 18.5558889,38.9556111 18.5354444,38.3780556 M19.2931667,41.1917222 C19.2931667,40.6013889 19.7723333,40.1209444 20.3639444,40.1209444 L20.3639444,40.1209444 L21.8065556,40.1209444 C22.3968889,40.1209444 22.8773333,40.6013889 22.8773333,41.1917222 L22.8773333,41.1917222 C22.8773333,41.7833333 22.3968889,42.2637778 21.8065556,42.2637778 L21.8065556,42.2637778 L21.8052778,42.2637778 L20.3639444,42.2637778 C19.7723333,42.2637778 19.2931667,41.7833333 19.2931667,41.1917222" id="Fill-4" fill="url(#linearGradient-5)" mask="url(#mask-4)"></path>
                </g>
            </g>
        </g>
    </g>
</svg>