<?xml version="1.0" encoding="UTF-8"?>
<svg width="214px" height="214px" viewBox="0 0 214 214" version="1.1" xmlns="http://www.w3.org/2000/svg" xmlns:xlink="http://www.w3.org/1999/xlink">
    <!-- Generator: Sketch 55.2 (78181) - https://sketchapp.com -->
    <title>Cognizant_Softvision_logo</title>
    <desc>Created with Sketch.</desc>
    <defs>
        <polygon id="path-1" points="0 49.6566036 153.992742 49.6566036 153.992742 0.0158695607 0 0.0158695607"></polygon>
    </defs>
    <g id="Exports" stroke="none" stroke-width="1" fill="none" fill-rule="evenodd">
        <g id="Homepage-New" transform="translate(-1774.000000, -4220.000000)">
            <g id="Group-26" transform="translate(1804.000000, 4302.000000)">
                <path d="M59.3907884,22.6189533 L56.8894464,22.6189533 L56.8894464,29.545754 L53.1695068,29.545754 L53.1695068,32.0470801 L56.8894464,32.0470801 L56.8894464,43.1107107 C56.8894464,46.545237 59.1342332,49.0433637 62.264118,49.0433637 L63.1107281,49.0433637 L63.1107281,46.5420217 L62.264118,46.5420217 C60.2919152,46.5420217 59.3779591,44.7622273 59.3779591,43.1107107 L59.3779591,32.0470801 L63.0978987,32.0470801 L63.0978987,29.545754 L59.3907884,29.545754 L59.3907884,22.6189533 Z" id="Fill-1" fill="#020303"></path>
                <path d="M44.8958452,26.050285 L44.8958452,29.5457587 L41.1758897,29.5457587 L41.1758897,32.0470848 L44.8958452,32.0470848 L44.8958452,49.0433685 L47.3971872,49.0433685 L47.3971872,32.0470848 L51.1171269,32.0470848 L51.1171269,29.5457587 L47.3971872,29.5457587 L47.3971872,26.050285 C47.3971872,24.3955531 48.2950988,22.6189581 50.2833462,22.6189581 L51.1299562,22.6189581 L51.1299562,20.1176161 L50.2833462,20.1176161 C47.1566767,20.1176161 44.8958452,22.6125434 44.8958452,26.050285" id="Fill-3" fill="#020303"></path>
                <mask id="mask-2" fill="white">
                    <use xlink:href="#path-1"></use>
                </mask>
                <g id="Clip-6"></g>
                <polygon id="Fill-5" fill="#020303" mask="url(#mask-2)" points="86.2064304 26.7237195 90.311187 26.7237195 90.311187 22.618947 86.2064304 22.618947"></polygon>
                <polygon id="Fill-7" fill="#020303" mask="url(#mask-2)" points="108.381778 26.7237195 112.486534 26.7237195 112.486534 22.618947 108.381778 22.618947"></polygon>
                <path d="M104.116665,38.8712586 C103.332451,38.4846111 102.524902,38.1472596 101.698714,37.8610982 C100.843541,37.5596561 100.040767,37.3084491 99.2903611,37.1074771 C98.6180138,36.9425419 97.9862716,36.6425005 97.4336066,36.2255943 C96.9673726,35.8934159 96.6921623,35.354981 96.6960302,34.7825307 C96.7082547,34.2098099 96.9929835,33.6772803 97.4624647,33.3490494 C98.0690735,32.9149684 98.8052651,32.7001005 99.5501157,32.7397665 C100.225073,32.7449237 100.890656,32.8981756 101.499891,33.1887143 C101.959249,33.3773504 102.390783,33.6276342 102.78262,33.9327054 C102.987857,34.1251139 103.144993,34.2758349 103.250827,34.3816691 L105.909289,31.7167926 L105.64955,31.4153347 C105.404933,31.1876216 105.147996,30.9735019 104.879901,30.7739625 C104.490802,30.4768499 104.080278,30.2088819 103.651689,29.9722552 C103.080401,29.6736146 102.47228,29.4515044 101.843021,29.3116389 C101.093236,29.1309934 100.324573,29.040583 99.553331,29.0422471 C97.5714983,29.0422471 95.9167663,29.622711 94.5891351,30.7835924 C93.2614879,31.944458 92.5987388,33.2806686 92.6008717,34.7921448 C92.5720455,35.7823608 92.8292374,36.7599226 93.3416475,37.6077582 C93.7881122,38.34777 94.4352942,38.9460063 95.208032,39.3330357 C95.9936947,39.7137301 96.8010685,40.0478186 97.6260151,40.3335662 C98.4854385,40.6350242 99.2903611,40.8915635 100.034352,41.0968013 C100.704996,41.2664799 101.335847,41.5661074 101.891123,41.9787 C102.357468,42.3067399 102.634047,42.8419755 102.631898,43.4121495 C102.657366,44.1059374 102.352852,44.7708354 101.810947,45.2047732 C101.265795,45.6537369 100.446977,45.8782188 99.354492,45.8782188 C98.4308262,45.8733481 97.5224411,45.6421332 96.7088436,45.2047732 C96.0983669,44.9255517 95.532204,44.5581961 95.0284688,44.1144373 C94.8186946,43.89255 94.6227206,43.6580084 94.4416293,43.4121495 L91.7831357,46.0770419 L92.0813784,46.4586595 C92.3539783,46.7801256 92.6591927,47.0724311 92.9921193,47.3309282 C93.456873,47.7023906 93.9476992,48.0399809 94.4608574,48.3410568 C95.1348283,48.724298 95.8576016,49.0144706 96.60944,49.2037115 C97.5038974,49.4479786 98.4273085,49.5698734 99.354492,49.5661707 C101.537297,49.5661707 103.311759,48.9642674 104.677878,47.760632 C105.980439,46.6932966 106.73309,45.0961376 106.727041,43.4121495 C106.756265,42.4253398 106.500172,41.451057 105.98948,40.6061502 C105.538495,39.8651038 104.889976,39.2643366 104.116665,38.8712586" id="Fill-8" fill="#020303" mask="url(#mask-2)"></path>
                <polygon id="Fill-9" fill="#020303" mask="url(#mask-2)" points="108.26313 49.0433732 112.367887 49.0433732 112.367887 29.5457476 108.26313 29.5457476"></polygon>
                <path d="M151.776815,31.3768482 C150.301662,29.8119217 148.377561,29.030509 146.004481,29.0326534 C145.317935,29.0334059 144.634414,29.1239595 143.971347,29.3020106 C143.397862,29.4455847 142.840262,29.646493 142.307,29.9016953 C141.879,30.1194601 141.467426,30.3681203 141.075573,30.6456864 C140.808163,30.8249631 140.553183,31.022099 140.312338,31.2357571 L140.084657,31.4602231 L140.084657,29.5521511 L135.970271,29.5521511 L135.970271,49.043378 L140.075027,49.043378 L140.075027,37.6943341 C140.19689,36.2576852 140.649053,35.1064178 141.434732,34.2533931 C142.364717,33.2421662 143.611106,32.7376192 145.173915,32.7397681 C146.440727,32.7121675 147.6602,33.2211395 148.531466,34.1411601 C149.438068,35.087715 149.926777,36.358585 149.887971,37.6686754 L149.887971,49.043378 L153.992743,49.043378 L153.992743,37.6686754 C153.992743,35.0390716 153.254116,32.9417906 151.776815,31.3768482" id="Fill-10" fill="#020303" mask="url(#mask-2)"></path>
                <polygon id="Fill-11" fill="#020303" mask="url(#mask-2)" points="74.6233081 43.697547 68.9568084 29.5457508 64.6500134 29.5457508 72.5837432 49.0433764 76.662857 49.0433764 84.5965868 29.5457508 80.2898077 29.5457508"></polygon>
                <path d="M124.169075,45.4517001 C120.76858,45.4517001 118.01194,42.6950444 118.01194,39.2945493 C118.01194,35.8940542 120.76858,33.1373985 124.169091,33.1373985 C127.569586,33.1373985 130.326225,35.8940542 130.326225,39.2945652 C130.326225,42.6950444 127.569586,45.4517001 124.169075,45.4517001 M124.169075,29.0326578 C118.545329,29.1368844 114.011426,33.6708035 113.907167,39.2945652 C113.851871,44.9617811 118.401245,49.6008023 124.068461,49.656115 C129.735693,49.7114117 134.374698,45.1620527 134.430011,39.4948209 C134.45715,36.714146 133.354637,34.0415337 131.374858,32.0887818 C129.499178,30.1170406 126.890378,29.0105964 124.169075,29.0326578" id="Fill-12" fill="#020303" mask="url(#mask-2)"></path>
                <polygon id="Fill-13" fill="#020303" mask="url(#mask-2)" points="86.1358849 49.0433732 90.2406414 49.0433732 90.2406414 29.5457476 86.1358849 29.5457476"></polygon>
                <path d="M30.9139934,47.055121 C26.6279546,47.055121 23.1534281,43.5805945 23.1534281,39.2945556 C23.1534281,35.0085168 26.6279546,31.5339903 30.9139934,31.5339903 C35.2000482,31.5339903 38.6745588,35.0085168 38.6745588,39.2945556 C38.6745588,43.5806104 35.2000482,47.055121 30.9139934,47.055121 M30.9139934,29.0326482 C28.1912575,29.0131018 25.5822349,30.1231115 23.7082101,32.0984023 C19.7321131,35.9382788 19.6216788,42.274388 23.4615713,46.2504849 C23.5423517,46.3341304 23.6245805,46.4163593 23.7082101,46.4971237 C27.5495351,50.4767702 33.8896714,50.5889077 37.8693179,46.7475985 C37.9542686,46.6655766 38.0377708,46.5820744 38.1197768,46.4971237 C42.0958737,42.6572471 42.2063081,36.321138 38.3664155,32.3450251 C38.2856352,32.2613955 38.2034223,32.1791667 38.1197768,32.0984023 C36.2455291,30.1234299 33.6366498,29.0134838 30.9139934,29.0326482" id="Fill-14" fill="#020303" mask="url(#mask-2)"></path>
                <path d="M13.4270618,34.3945001 C11.9038068,33.8749749 10.3613237,33.3747256 8.83485346,32.9097331 C7.46598049,32.5137741 6.18500291,31.8607663 5.06039702,30.9856166 C4.10467382,30.2996122 3.5538393,29.1822965 3.59165883,28.0064687 C3.55189739,26.5625456 4.17007806,25.1787103 5.27204953,24.2448416 C6.40085759,23.2827674 8.00748746,22.7344 10.0470523,22.7344 C10.8176253,22.7314076 11.5852696,22.8295219 12.3303272,23.026228 C12.9434143,23.1701205 13.537528,23.3853863 14.1005074,23.6676002 C14.5503625,23.9084292 14.9794137,24.1862499 15.3832359,24.4981815 C15.7808822,24.8188517 16.5441173,25.52757 16.6659803,25.639803 L18.4842627,23.7926626 C17.992163,23.2626479 17.4557496,22.7755781 16.8808322,22.3367696 C16.3597312,21.9697642 15.8155819,21.6366307 15.2517589,21.3394227 C14.5152967,20.9665278 13.7398848,20.6761323 12.939626,20.4735845 C11.997528,20.2265001 11.0273996,20.102552 10.053467,20.1047664 C7.38215992,20.1047664 5.17906059,20.9193329 3.50828395,22.4009005 C1.87695041,23.8043936 0.945708031,25.8545435 0.962055111,28.0064687 C0.906551442,29.6382479 1.51386059,31.2230233 2.64564519,32.399838 C3.75008384,33.5706359 5.12564209,34.451691 6.65099816,34.9653108 C8.16783847,35.4848201 9.71033749,35.9818859 11.2399912,36.453293 C12.6134006,36.84774 13.8988351,37.5007955 15.027277,38.3774096 C15.9912772,39.1104815 16.540918,40.2647572 16.5024299,41.4752211 C16.5024299,43.1491971 15.9316032,44.4479543 14.7579083,45.4485007 C13.5841975,46.4490311 11.8717494,46.955711 9.62694669,46.955711 C8.68663144,46.9602475 7.75010452,46.8361879 6.84340664,46.5869228 C6.10675341,46.394005 5.3953132,46.1152451 4.72368219,45.7563574 C4.19502049,45.4547403 3.6976363,45.1013282 3.23891527,44.7012943 C2.67771857,44.210659 1.88562534,43.4025371 1.80225046,43.2999022 L-3.18346253e-06,45.0829119 C0.532224,45.7007583 1.11465439,46.2735428 1.74131899,46.79536 C2.32019981,47.253126 2.93105852,47.6689499 3.56921542,48.0396323 C4.4134856,48.5080629 5.31453284,48.8658841 6.25013656,49.1043095 C7.35471847,49.4058948 8.49476416,49.5579847 9.63977604,49.5564837 C12.525935,49.5564837 14.8380679,48.7900381 16.5377027,47.2828118 C18.2173452,45.8204405 19.1578197,43.6855628 19.1031755,41.4591765 C19.1031755,39.6280806 18.5387795,38.1048257 17.4228007,36.9343142 C16.3171524,35.7754861 14.9456371,34.9036949 13.4270618,34.3945001" id="Fill-15" fill="#020303" mask="url(#mask-2)"></path>
                <polygon id="Fill-16" fill="#020303" mask="url(#mask-2)" points="61.7061287 12.4404224 56.4597188 12.4404224 61.7061287 7.19402842 61.7061287 4.83379339 52.7205351 4.83379339 52.7205351 7.19402842 57.966945 7.19402842 52.7205351 12.4404224 52.7205351 14.8038728 61.7061287 14.8038728"></polygon>
                <path d="M76.5955156,9.29131264 C76.5955156,7.58847853 77.4485403,6.86693083 78.5003882,6.86693083 C79.7446445,6.86693083 80.3346993,7.65260939 80.3346993,9.03155802 L80.3346993,14.8038759 L83.1567274,14.8038759 L83.1567274,8.71087192 C83.1567274,6.14538313 81.713632,4.58045662 79.2860508,4.58045662 C78.2055836,4.59291988 77.1904252,5.09991812 76.5313848,5.95618995 L76.5313848,4.8209513 L73.7767028,4.8209513 L73.7767028,14.7942619 L76.5955156,14.7942619 L76.5955156,9.29131264 Z" id="Fill-17" fill="#020303" mask="url(#mask-2)"></path>
                <path d="M41.3041753,9.29131264 C41.3041753,7.58847853 42.1572,6.86693083 43.2090478,6.86693083 C44.4533041,6.86693083 45.0433589,7.65260939 45.0433589,9.03155802 L45.0433589,14.8038759 L47.865387,14.8038759 L47.865387,8.71087192 C47.865387,6.14538313 46.4223076,4.58045662 43.9947264,4.58045662 C42.9142433,4.59291988 41.8991007,5.09991812 41.2400444,5.95618995 L41.2400444,4.8209513 L38.4821471,4.8209513 L38.4821471,14.7942619 L41.30096,14.7942619 L41.3041753,9.29131264 Z" id="Fill-18" fill="#020303" mask="url(#mask-2)"></path>
                <path d="M64.91939,9.82043913 C64.899764,8.42318559 66.0165704,7.27459231 67.413808,7.25495035 C67.437493,7.254632 67.4611779,7.254632 67.4848629,7.25495035 C68.9017425,7.25495035 70.0503517,8.40355955 70.0503517,9.82043913 C70.0263484,11.227259 68.8916827,12.3619246 67.4848629,12.385912 C66.0679992,12.385912 64.91939,11.2373187 64.91939,9.82043913 M69.9701762,13.7039292 L69.9701762,14.8038791 L72.7280575,14.8038791 L72.7280575,4.82095448 L69.9701762,4.82095448 L69.9701762,5.7252966 C69.1698537,4.95902125 68.0988414,4.54052327 66.9910123,4.56121577 C64.7237662,4.56121577 62.1005772,6.16463035 62.1005772,9.74346301 C62.1005772,13.3223116 64.787913,14.9898729 66.9108368,15.0540038 C68.0826216,15.0913776 69.2079916,14.5947256 69.9701762,13.7039292" id="Fill-19" fill="#020303" mask="url(#mask-2)"></path>
                <path d="M20.7739474,7.25817201 C22.190827,7.25817201 23.3394203,8.40676529 23.3394203,9.82364488 C23.3394203,11.2405085 22.190827,12.3891337 20.7739474,12.3891337 C19.3570678,12.3891337 18.2084745,11.2405085 18.2084745,9.82364488 C18.2084745,8.40676529 19.3570678,7.25817201 20.7739474,7.25817201 L20.7739474,7.25817201 Z M20.7739474,15.0636242 C23.6714554,15.0636242 26.0203573,12.7147382 26.0203573,9.81721428 C26.0203573,6.91972219 23.6714554,4.5708362 20.7739474,4.5708362 C17.8764394,4.5708362 15.5275524,6.91972219 15.5275524,9.81721428 C15.5257706,12.7129555 17.8717915,15.0618574 20.7675327,15.0636242 L20.7739474,15.0636242 Z" id="Fill-20" fill="#020303" mask="url(#mask-2)"></path>
                <polygon id="Fill-21" fill="#020303" mask="url(#mask-2)" points="48.9140132 14.8006654 51.6686952 14.8006654 51.6686952 4.83058605 48.9140132 4.83058605"></polygon>
                <polygon id="Fill-22" fill="#020303" mask="url(#mask-2)" points="48.9140132 4.04490749 51.6686952 4.04490749 51.6686952 1.29022553 48.9140132 1.29022553"></polygon>
                <path d="M89.7916825,14.8038791 L90.2502603,14.8038791 L90.2502603,12.0459819 L89.7916825,12.0459819 C88.7270053,12.0459819 88.348603,11.7605845 88.348603,10.1443246 L88.348603,7.19403479 L90.2502603,7.19403479 L90.2502603,4.82095448 L88.348603,4.82095448 L88.348603,1.29342332 L85.5939211,1.29342332 L85.5939211,4.82095448 L83.6986785,4.82095448 L83.6986785,7.19403479 L85.6003357,7.19403479 L85.6003357,10.1443246 C85.584307,13.9957413 87.8675818,14.8038791 89.7916825,14.8038791" id="Fill-23" fill="#020303" mask="url(#mask-2)"></path>
                <path d="M32.1839053,7.25817201 C33.6007849,7.25817201 34.7493781,8.40676529 34.7493781,9.82364488 C34.7253908,11.2304647 33.5907251,12.3651304 32.1839053,12.3891337 C30.7670257,12.3891337 29.6184324,11.2405085 29.6184324,9.82364488 C29.5988064,8.42639134 30.7155969,7.27778214 32.1128663,7.25817201 C32.1365354,7.25783775 32.1602203,7.25783775 32.1839053,7.25817201 M31.6355379,15.0636242 C32.8033434,15.0937079 33.9220758,14.5938566 34.6788326,13.7039196 L34.6788326,14.8038855 C34.6788326,16.2207492 33.5302393,17.3693424 32.1133598,17.3693424 C30.8938708,17.3690241 29.7710158,16.7056223 29.182298,15.6376503 L26.8092337,17.0069848 C27.8893984,18.9258965 29.920925,20.1126913 32.1229738,20.1111965 C35.0576647,20.1111965 37.436714,17.7321617 37.436714,14.7974549 L37.436714,4.82096085 L34.6788326,4.82096085 L34.6788326,5.72528705 C33.8785101,4.9590117 32.8074978,4.54052963 31.6996688,4.56120622 C29.4324386,4.56120622 26.8092337,6.16463671 26.8092337,9.74346937 C26.8092337,13.322318 29.5029841,14.9994934 31.6355379,15.0636242" id="Fill-24" fill="#020303" mask="url(#mask-2)"></path>
                <path d="M8.48531564,15.063625 C11.1728584,15.064818 13.656373,13.6304771 14.9984253,11.3019971 L12.673463,9.95190658 C11.3371728,12.266443 8.37760318,13.0594595 6.06308267,11.7231692 C3.74856215,10.386879 2.95554572,7.42730937 4.29183595,5.11278886 C5.62812618,2.79826834 8.58769579,2.00525191 10.9022163,3.34154214 C11.6378508,3.76626379 12.2487414,4.37713842 12.673463,5.11278886 L15.0016247,3.76591361 C12.9170457,0.17168891 8.31347233,-1.05211367 4.71924763,1.03246534 C1.12503884,3.11704436 -0.0987637416,7.7206177 1.98579936,11.3148265 C3.33012783,13.6327215 5.80581114,15.0606477 8.48531564,15.063625" id="Fill-25" fill="#020303" mask="url(#mask-2)"></path>
            </g>
        </g>
    </g>
</svg>