<?xml version="1.0" encoding="UTF-8"?>
<svg width="214px" height="214px" viewBox="0 0 214 214" version="1.1" xmlns="http://www.w3.org/2000/svg" xmlns:xlink="http://www.w3.org/1999/xlink">
    <!-- Generator: Sketch 53.2 (72643) - https://sketchapp.com -->
    <title>dream_production_logo</title>
    <desc>Created with Sketch.</desc>
    <g id="Exports" stroke="none" stroke-width="1" fill="none" fill-rule="evenodd">
        <g id="Homepage-New" transform="translate(-503.000000, -3963.000000)" fill="#DE484E">
            <g id="Group-30" transform="translate(539.000000, 4049.000000)">
                <path d="M57.9101827,8.31493401 C56.6160711,7.41061929 55.1261726,7.30473096 53.5836853,7.30473096 L51.6862234,7.30473096 L51.6862234,18.0499086 L53.8675939,18.0499086 C55.4097259,18.0499086 56.7930254,17.9255431 58.0878477,16.9856954 C59.4352589,16.0110254 60.1444975,14.2908731 60.1444975,12.6599086 C60.1444975,10.9397563 59.3286599,9.29067005 57.9101827,8.31493401 M58.4776447,18.1561523 C57.2894213,18.9190457 55.5873909,19.2377766 54.2044467,19.2377766 L50.3747005,19.2377766 L50.3747005,6.11650761 L54.2044467,6.11650761 C55.6051574,6.11650761 57.2894213,6.43594924 58.4776447,7.19848731 C60.3395736,8.38635533 61.456731,10.5137157 61.456731,12.7128528 C61.456731,14.893868 60.3040406,16.9686396 58.4776447,18.1561523" id="Fill-1"></path>
                <path d="M64.6489797,13.5636904 L64.6489797,19.2379543 L63.4078122,19.2379543 L63.4078122,9.53886802 L64.6489797,9.53886802 L64.6489797,10.9395787 L64.684868,10.9395787 C65.2164416,9.69805584 66.1566447,9.37932487 67.4152234,9.29084772 L67.4152234,10.6030812 C65.7128376,10.7445025 64.6489797,11.8261269 64.6489797,13.5636904" id="Fill-3"></path>
                <path d="M73.1959797,10.4076853 C71.2633401,10.4076853 69.7208528,11.8261624 69.419533,13.7236244 L76.9909036,13.7236244 C76.6711066,11.8261624 75.1467411,10.4076853 73.1959797,10.4076853 M78.2498376,14.8411371 L69.419533,14.8411371 C69.5080102,16.7552995 71.2807513,18.3514416 73.1782132,18.3514416 C74.6677563,18.3514416 76.1221218,17.5004264 76.6536954,16.0641827 L77.9659289,16.0641827 C77.2570457,18.0852995 75.3418173,19.468599 73.1959797,19.468599 C70.3945584,19.468599 68.1424772,17.1809848 68.1424772,14.3973299 C68.1424772,11.630731 70.3945584,9.29052792 73.1782132,9.29052792 C76.0155228,9.29052792 78.2672487,11.6840305 78.2672487,14.4858071 C78.2672487,14.6101726 78.2498376,14.7164162 78.2498376,14.8411371" id="Fill-5"></path>
                <path d="M84.9529239,10.4076853 C82.6478985,10.4076853 80.9810457,12.1278376 80.9810457,14.4147411 C80.9810457,16.6845888 82.6834315,18.3514416 84.9529239,18.3514416 C87.1517056,18.3514416 88.8363249,16.5605787 88.8363249,14.3973299 C88.8363249,12.2337259 87.1517056,10.4076853 84.9529239,10.4076853 L84.9529239,10.4076853 Z M88.7652589,19.2379898 L88.7652589,17.5359594 L88.7293706,17.5359594 C87.8783553,18.8126599 86.4598782,19.468599 84.9529239,19.468599 C82.0452589,19.468599 79.7402335,17.2872284 79.7402335,14.361797 C79.7402335,11.4537766 82.098203,9.29052792 84.9529239,9.29052792 C86.4776447,9.29052792 87.8961218,9.92870051 88.7293706,11.2412893 L88.7652589,11.2412893 L88.7652589,9.53890355 L90.0067817,9.53890355 L90.0067817,19.2379898 L88.7652589,19.2379898 Z" id="Fill-7"></path>
                <path d="M105.327294,19.2378477 L105.327294,13.6168832 C105.327294,11.8970863 104.600645,10.4075431 102.685416,10.4075431 C100.770188,10.4075431 100.042827,11.8970863 100.042827,13.6168832 L100.042827,19.2378477 L98.8020152,19.2378477 L98.8020152,13.6168832 C98.8020152,11.8970863 98.0753655,10.4075431 96.1601371,10.4075431 C94.245264,10.4075431 93.5186142,11.8970863 93.5186142,13.6168832 L93.5186142,19.2378477 L92.276736,19.2378477 L92.276736,9.53876142 L93.5186142,9.53876142 L93.5186142,10.6562741 C94.1034873,9.73419289 95.0962792,9.29074112 96.1601371,9.29074112 C97.5434365,9.29074112 98.7490711,9.9466802 99.4224213,11.1519594 C100.167548,9.96409137 101.266939,9.29074112 102.685416,9.29074112 C105.168107,9.29074112 106.568817,11.0990152 106.568817,13.4754619 L106.568817,19.2378477 L105.327294,19.2378477 Z" id="Fill-9"></path>
                <path d="M53.6368782,25.2090609 L52.7680964,25.2090609 L52.7680964,28.7900761 L53.548401,28.7900761 C54.8069797,28.7900761 56.2968782,28.6134772 56.2968782,26.9995685 C56.2968782,25.4034264 54.8961675,25.2090609 53.6368782,25.2090609 M57.4847462,30.0141878 C56.3501777,31.0066244 55.2330203,31.0599239 53.7967766,31.0599239 L52.7680964,31.0599239 L52.7680964,36.0604822 L50.3387056,36.0604822 L50.3387056,22.9392132 L53.7967766,22.9392132 C55.2330203,22.9392132 56.3501777,22.9925127 57.4847462,23.9853046 C58.3890609,24.7656091 58.7259137,25.829467 58.7259137,26.9995685 C58.7259137,28.1696701 58.3890609,29.2338832 57.4847462,30.0141878" id="Fill-11"></path>
                <path d="M62.4677157,30.528599 L62.4677157,36.0603756 L60.1097462,36.0603756 L60.1097462,26.2191574 L62.2729949,26.2191574 L62.2729949,27.0879391 L62.3085279,27.0879391 C62.9641117,26.1306802 63.4434518,25.8826599 64.6135533,25.8826599 L64.6135533,28.1695635 C63.0703553,28.2228629 62.4677157,29.0916447 62.4677157,30.528599" id="Fill-13"></path>
                <path d="M69.8800406,28.045802 C68.2131878,28.045802 66.9897868,29.5527563 66.9897868,31.1488985 C66.9897868,32.7983401 68.1776548,34.2161066 69.8800406,34.2161066 C71.5468934,34.2161066 72.7347614,32.7798629 72.7347614,31.166665 C72.7347614,29.5886447 71.5468934,28.045802 69.8800406,28.045802 M69.8800406,36.3793553 C67.0079086,36.3793553 64.6318173,34.0213858 64.6318173,31.1488985 C64.6318173,28.259 66.9720203,25.8825533 69.8800406,25.8825533 C72.7880609,25.8825533 75.092731,28.2227563 75.092731,31.1137208 C75.092731,34.0924518 72.8591269,36.3793553 69.8800406,36.3793553" id="Fill-15"></path>
                <path d="M81.4063756,28.045802 C79.8102335,28.045802 78.498,29.4998122 78.498,31.0597107 C78.498,32.6913858 79.6865787,34.2161066 81.4063756,34.2161066 C83.0732284,34.2161066 84.3143959,32.7446853 84.3143959,31.1314873 C84.3143959,29.517934 83.0732284,28.045802 81.4063756,28.045802 L81.4063756,28.045802 Z M84.3318071,36.0606244 L84.3318071,34.8549898 L84.2962741,34.8549898 C83.6406904,35.9003706 82.3636345,36.3793553 81.158,36.3793553 C78.2855127,36.3793553 76.1400305,33.9506751 76.1400305,31.1488985 C76.1400305,29.0385939 77.274599,27.1773756 79.2253604,26.3082386 C79.828,26.0420964 80.4839391,25.8825533 81.158,25.8825533 C82.3636345,25.8825533 83.3031269,26.2016396 84.136731,27.0881878 L84.136731,22.9393553 L86.4954112,22.9393553 L86.4954112,36.0606244 L84.3318071,36.0606244 Z" id="Fill-17"></path>
                <path d="M94.723467,36.0605178 L94.723467,35.0677259 L94.687934,35.0677259 C94.0323503,35.9720406 93.2872234,36.3792487 92.1522995,36.3792487 C90.8937208,36.3792487 89.581132,35.8828528 88.8544822,34.8197056 C88.1804213,33.8439695 88.1274772,32.5853909 88.1274772,31.4330558 L88.1274772,26.2192995 L90.4854467,26.2192995 L90.4854467,31.2376244 C90.4854467,32.6561015 90.7693553,34.2163553 92.5428071,34.2163553 C94.1737716,34.2163553 94.5287462,32.5676244 94.5287462,31.2553909 L94.5287462,26.2192995 L96.8867157,26.2192995 L96.8867157,36.0605178 L94.723467,36.0605178 Z" id="Fill-19"></path>
                <path d="M103.767183,36.3793909 C100.859162,36.3793909 98.5360152,33.9862437 98.5360152,31.0959898 C98.5360152,28.2227919 100.876929,25.8825888 103.749416,25.8825888 C106.054442,25.8825888 107.96967,27.301066 108.69632,29.4820812 L106.036675,29.4820812 C105.522513,28.5603553 104.848807,28.0458376 103.749416,28.0458376 C101.994086,28.0458376 100.894695,29.4465482 100.894695,31.1311675 C100.894695,32.8335533 102.10033,34.2161421 103.85566,34.2161421 C104.812919,34.2161421 105.540279,33.6486802 106.036675,32.8513198 L108.69632,32.8513198 C107.916015,35.0142132 106.089975,36.3793909 103.767183,36.3793909" id="Fill-21"></path>
                <polygon id="Fill-23" points="113.113 28.3119442 113.113 36.0606244 110.75432 36.0606244 110.75432 28.3119442 109.601629 28.3119442 109.601629 26.2190508 110.75432 26.2190508 110.75432 22.9393553 113.113 22.9393553 113.113 26.2190508 114.531477 26.2190508 114.531477 28.3119442"></polygon>
                <path d="M115.488629,36.0603046 L117.84731,36.0603046 L117.84731,26.2190863 L115.488629,26.2190863 L115.488629,36.0603046 Z M115.488629,25.1022843 L117.84731,25.1022843 L117.84731,22.9393909 L115.488629,22.9393909 L115.488629,25.1022843 Z" id="Fill-25"></path>
                <path d="M124.496563,28.045802 C122.829711,28.045802 121.60631,29.5527563 121.60631,31.1488985 C121.60631,32.7983401 122.794178,34.2161066 124.496563,34.2161066 C126.163416,34.2161066 127.351284,32.7798629 127.351284,31.166665 C127.351284,29.5886447 126.163416,28.045802 124.496563,28.045802 M124.496563,36.3793553 C121.624076,36.3793553 119.24834,34.0213858 119.24834,31.1488985 C119.24834,28.259 121.588543,25.8825533 124.496563,25.8825533 C127.404228,25.8825533 129.709254,28.2227563 129.709254,31.1137208 C129.709254,34.0924518 127.47565,36.3793553 124.496563,36.3793553" id="Fill-27"></path>
                <path d="M137.494391,36.0605178 L137.494391,31.2020914 C137.494391,29.8365584 137.263782,28.0456954 135.508452,28.0456954 C134.888046,28.0456954 134.249162,28.4003147 133.894898,28.9148325 C133.469569,29.5355939 133.469569,30.6523959 133.469569,31.3790457 L133.469569,36.0605178 L131.110888,36.0605178 L131.110888,26.2192995 L133.291904,26.2192995 L133.291904,27.0703147 C134.072208,26.3084873 134.852513,25.8824467 135.987437,25.8824467 C137.068706,25.8824467 138.256929,26.414731 138.948401,27.2479797 C139.710939,28.1697056 139.85236,29.4467614 139.85236,30.5994518 L139.85236,36.0605178 L137.494391,36.0605178 Z" id="Fill-28"></path>
                <path d="M21.2482335,7.10659898e-05 C9.51559391,7.10659898e-05 0.00021319797,9.51403046 0.00021319797,21.2480914 C0.00021319797,32.9803756 9.51559391,42.4946904 21.2482335,42.496467 L21.2482335,28.9981929 L28.9969137,21.2480914 L21.7794518,14.0341827 L24.3541726,11.4608832 L34.1396041,21.2466701 L24.8871675,30.5023046 L24.8871675,42.180934 C34.8868629,40.4529645 42.4962538,31.7413401 42.4962538,21.2480914 C42.4962538,9.51403046 32.9854924,7.10659898e-05 21.2482335,7.10659898e-05 L21.2482335,7.10659898e-05 Z M22.5643756,21.2480914 L12.7803655,31.0338782 L10.2056447,28.4623553 L17.4213299,21.2480914 L10.2056447,14.0306294 L12.7753909,11.4608832 L22.5643756,21.2480914 Z" id="Fill-29"></path>
            </g>
        </g>
    </g>
</svg>