<?xml version="1.0" encoding="UTF-8"?>
<svg width="214px" height="214px" viewBox="0 0 214 214" version="1.1" xmlns="http://www.w3.org/2000/svg" xmlns:xlink="http://www.w3.org/1999/xlink">
    <!-- Generator: Sketch 53.2 (72643) - https://sketchapp.com -->
    <title>e-spres-oh_logo</title>
    <desc>Created with Sketch.</desc>
    <defs>
        <polygon id="path-1" points="0 25.6 160 25.6 160 0.05568 0 0.05568"></polygon>
    </defs>
    <g id="Exports" stroke="none" stroke-width="1" fill="none" fill-rule="evenodd">
        <g id="Homepage-New" transform="translate(-270.000000, -4468.000000)">
            <g id="Group-16" transform="translate(297.000000, 4562.000000)">
                <polygon id="Fill-1" fill="#D62027" points="0 0.160016 0 25.420496 7.89552 25.420496 7.89552 22.530576 4.33488 22.530576 4.33488 3.062736 7.89552 3.062736 7.89552 0.160016"></polygon>
                <g id="Group-15" transform="translate(0.000000, 0.104320)">
                    <path d="M16.91344,8.505936 C16.13936,8.505936 15.51792,8.729616 15.04928,9.176816 C14.58032,9.624176 14.28592,10.307856 14.16544,11.228176 L19.81616,11.228176 C19.69568,10.419696 19.36672,9.763856 18.82928,9.260656 C18.29168,8.757456 17.65312,8.505936 16.91344,8.505936 M24.1768,13.627696 L14.06224,13.627696 C14.16544,14.668496 14.52448,15.492016 15.13952,16.098256 C15.75424,16.704656 16.54768,17.007856 17.51984,17.007856 C18.59488,17.007856 19.644,16.474576 20.66768,15.408016 L24.02192,16.491856 C23.28208,17.601296 22.36624,18.433296 21.27392,18.988176 C20.1816,19.542896 18.8872,19.820176 17.39072,19.820176 C15.89424,19.820176 14.57184,19.538416 13.42368,18.975216 C12.27552,18.412016 11.38528,17.614096 10.75312,16.582096 C10.12096,15.549936 9.8048,14.337296 9.8048,12.944016 C9.8048,11.568016 10.13376,10.320816 10.79184,9.202576 C11.44976,8.084656 12.34,7.209296 13.4624,6.577296 C14.5848,5.945136 15.80384,5.628976 17.11984,5.628976 C18.54736,5.628976 19.7904,5.957936 20.84832,6.615856 C21.90624,7.273936 22.72096,8.207216 23.29312,9.415536 C23.86496,10.624016 24.15936,12.028016 24.1768,13.627696" id="Fill-2" fill="#D62027"></path>
                    <mask id="mask-2" fill="white">
                        <use xlink:href="#path-1"></use>
                    </mask>
                    <g id="Clip-5"></g>
                    <polygon id="Fill-4" fill="#D62027" mask="url(#mask-2)" points="25.9184 14.63392 33.73648 14.63392 33.73648 10.85392 25.9184 10.85392"></polygon>
                    <path d="M43.88968,6.415936 L43.88968,5.938656 L46.97304,5.938656 L46.97304,9.912256 L43.88968,9.912256 C43.62296,8.957536 42.63384,8.480096 40.92248,8.480096 C39.6924,8.480096 39.07752,8.824256 39.07752,9.512256 C39.07752,9.813376 39.24088,10.036896 39.56776,10.183136 C39.89464,10.329376 40.37192,10.449696 40.99976,10.544256 C42.7628,10.768096 44.15192,11.088416 45.1668,11.505536 C46.18168,11.922656 46.89128,12.438816 47.2956,13.053536 C47.69976,13.668736 47.902,14.414656 47.902,15.291936 C47.902,16.719776 47.41368,17.831456 46.43768,18.626816 C45.46136,19.422656 44.1348,19.820256 42.45768,19.820256 C40.82344,19.820256 39.714,19.493536 39.1292,18.839776 L39.1292,19.497696 L35.98136,19.497696 L35.98136,14.827456 L39.1292,14.827456 C39.21496,15.472576 39.52696,15.980096 40.06456,16.349856 C40.60184,16.719776 41.26632,16.904576 42.05768,16.904576 C42.83176,16.904576 43.4036,16.816416 43.77352,16.640096 C44.14328,16.463936 44.3284,16.156256 44.3284,15.717696 C44.3284,15.416736 44.25096,15.182336 44.09608,15.014656 C43.94136,14.846816 43.64232,14.698496 43.19944,14.569376 C42.7564,14.440416 42.07912,14.294336 41.1676,14.130816 C39.13768,13.812736 37.67784,13.298816 36.7876,12.589216 C35.89736,11.879616 35.4524,10.922816 35.4524,9.718656 C35.4524,8.488896 35.91464,7.521216 36.83928,6.815936 C37.7636,6.110816 38.9828,5.758016 40.49672,5.758016 C41.71784,5.758016 42.84904,5.977376 43.88968,6.415936" id="Fill-6" fill="#D62027" mask="url(#mask-2)"></path>
                    <path d="M57.745552,16.401488 C58.597072,16.401488 59.250512,16.085328 59.706512,15.453168 C60.162192,14.821168 60.390192,13.924528 60.390192,12.763408 C60.390192,11.653808 60.158032,10.789488 59.693552,10.170288 C59.229072,9.550928 58.562512,9.241328 57.693872,9.241328 C56.868272,9.241328 56.208112,9.563888 55.713552,10.208848 C55.218832,10.853968 54.971792,11.722768 54.971792,12.814928 C54.971792,13.838608 55.227632,14.692048 55.739312,15.375728 C56.250992,16.059568 56.919792,16.401488 57.745552,16.401488 M64.828272,12.866608 C64.828272,14.191088 64.591632,15.380208 64.118672,16.433648 C63.645552,17.487408 62.964112,18.315248 62.073872,18.917168 C61.183632,19.519088 60.158032,19.820208 58.996912,19.820208 C57.569072,19.820208 56.248912,19.257008 55.036272,18.130288 L55.036272,22.477968 L57.719632,22.477968 L57.719632,25.600048 L48.430832,25.600048 L48.430832,22.477968 L50.727312,22.477968 L50.727312,9.112368 L48.792112,9.112368 L48.792112,5.938608 L55.036272,5.938608 L55.036272,7.628688 C56.231632,6.381648 57.569072,5.758128 59.048592,5.758128 C60.243952,5.758128 61.278352,6.069808 62.151312,6.693328 C63.024112,7.317008 63.688592,8.166288 64.144592,9.241328 C64.600272,10.316528 64.828272,11.524848 64.828272,12.866608" id="Fill-7" fill="#D62027" mask="url(#mask-2)"></path>
                    <path d="M77.858432,5.783824 L77.858432,9.847664 C76.671552,9.925104 75.727552,10.112144 75.026592,10.408944 C74.325472,10.705584 73.783712,11.215184 73.401152,11.937584 C73.018272,12.660144 72.826912,13.692144 72.826912,15.033904 L72.826912,16.375664 L75.523232,16.375664 L75.523232,19.497744 L66.015072,19.497744 L66.015072,16.375664 L68.505152,16.375664 L68.505152,9.112304 L66.144192,9.112304 L66.144192,5.938544 L72.465632,5.938544 L72.465632,9.383184 C72.783872,8.342704 73.372992,7.478224 74.233152,6.790064 C75.093152,6.102064 76.159712,5.758064 77.432672,5.758064 C77.621792,5.758064 77.763712,5.766704 77.858432,5.783824" id="Fill-8" fill="#D62027" mask="url(#mask-2)"></path>
                    <path d="M86.257024,8.505936 C85.482944,8.505936 84.861504,8.729616 84.392864,9.176816 C83.923904,9.624176 83.629504,10.307856 83.509184,11.228176 L89.159904,11.228176 C89.039264,10.419696 88.710304,9.763856 88.172864,9.260656 C87.635264,8.757456 86.996704,8.505936 86.257024,8.505936 M93.520384,13.627696 L83.405984,13.627696 C83.509184,14.668496 83.868064,15.492016 84.483104,16.098256 C85.097984,16.704656 85.891424,17.007856 86.863424,17.007856 C87.938464,17.007856 88.987584,16.474576 90.011264,15.408016 L93.365664,16.491856 C92.625824,17.601296 91.709824,18.433296 90.617664,18.988176 C89.525344,19.542896 88.230944,19.820176 86.734304,19.820176 C85.237824,19.820176 83.915424,19.538416 82.767264,18.975216 C81.619104,18.412016 80.728864,17.614096 80.096864,16.582096 C79.464544,15.549936 79.148544,14.337296 79.148544,12.944016 C79.148544,11.568016 79.477504,10.320816 80.135424,9.202576 C80.793504,8.084656 81.683584,7.209296 82.805984,6.577296 C83.928384,5.945136 85.147584,5.628976 86.463424,5.628976 C87.890944,5.628976 89.133984,5.957936 90.191904,6.615856 C91.249824,7.273936 92.064544,8.207216 92.636704,9.415536 C93.208544,10.624016 93.503104,12.028016 93.520384,13.627696" id="Fill-9" fill="#D62027" mask="url(#mask-2)"></path>
                    <path d="M103.37688,6.415936 L103.37688,5.938656 L106.46024,5.938656 L106.46024,9.912256 L103.37688,9.912256 C103.11016,8.957536 102.12104,8.480096 100.40968,8.480096 C99.1796,8.480096 98.56472,8.824256 98.56472,9.512256 C98.56472,9.813376 98.72808,10.036896 99.05496,10.183136 C99.38184,10.329376 99.85912,10.449696 100.48696,10.544256 C102.25,10.768096 103.63912,11.088416 104.654,11.505536 C105.66888,11.922656 106.37832,12.438816 106.7828,13.053536 C107.18696,13.668736 107.3892,14.414656 107.3892,15.291936 C107.3892,16.719776 106.90088,17.831456 105.92488,18.626816 C104.94856,19.422656 103.622,19.820256 101.94488,19.820256 C100.31064,19.820256 99.2012,19.493536 98.6164,18.839776 L98.6164,19.497696 L95.4684,19.497696 L95.4684,14.827456 L98.6164,14.827456 C98.70216,15.472576 99.014,15.980096 99.55176,16.349856 C100.08904,16.719776 100.75352,16.904576 101.54488,16.904576 C102.31896,16.904576 102.8908,16.816416 103.26072,16.640096 C103.63048,16.463936 103.8156,16.156256 103.8156,15.717696 C103.8156,15.416736 103.73816,15.182336 103.58328,15.014656 C103.42856,14.846816 103.12952,14.698496 102.68664,14.569376 C102.2436,14.440416 101.56632,14.294336 100.6548,14.130816 C98.62472,13.812736 97.16504,13.298816 96.2748,12.589216 C95.38456,11.879616 94.9396,10.922816 94.9396,9.718656 C94.9396,8.488896 95.40184,7.521216 96.32648,6.815936 C97.2508,6.110816 98.47,5.758016 99.98392,5.758016 C101.20504,5.758016 102.33624,5.977376 103.37688,6.415936" id="Fill-10" fill="#D62027" mask="url(#mask-2)"></path>
                    <polygon id="Fill-11" fill="#D62027" mask="url(#mask-2)" points="109.05328 14.63392 116.87136 14.63392 116.87136 10.85392 109.05328 10.85392"></polygon>
                    <path d="M125.992576,16.45304 C126.835456,16.45304 127.495616,16.12408 127.972896,15.46616 C128.450176,14.80808 128.688896,13.8644 128.688896,12.63432 C128.688896,11.48184 128.450176,10.58104 127.972896,9.9316 C127.495616,9.28232 126.826656,8.95752 125.966816,8.95752 C125.098016,8.95752 124.439936,9.278 123.992896,9.91864 C123.545696,10.55944 123.322016,11.52488 123.322016,12.81496 C123.322016,13.90728 123.565056,14.7868 124.050976,15.4532 C124.536736,16.11976 125.184096,16.45304 125.992576,16.45304 M133.126976,12.71176 C133.126976,14.06216 132.808736,15.27912 132.172256,16.3628 C131.535616,17.44648 130.675776,18.29368 129.592096,18.90424 C128.508256,19.5148 127.316896,19.82024 126.018336,19.82024 C124.642176,19.82024 123.412416,19.5148 122.328736,18.90424 C121.244896,18.29368 120.399936,17.44648 119.793536,16.3628 C119.187296,15.27912 118.884096,14.06216 118.884096,12.71176 C118.884096,11.37 119.195776,10.16168 119.819296,9.08648 C120.442816,8.01144 121.300896,7.16648 122.393056,6.55144 C123.485376,5.93656 124.693856,5.62904 126.018336,5.62904 C127.368576,5.62904 128.585696,5.93656 129.669376,6.55144 C130.753056,7.16648 131.600096,8.01144 132.210976,9.08648 C132.821536,10.16168 133.126976,11.37 133.126976,12.71176" id="Fill-12" fill="#D62027" mask="url(#mask-2)"></path>
                    <path d="M144.467024,5.628976 C145.843024,5.628976 146.877264,6.046256 147.569744,6.880336 C148.262064,7.714736 148.608304,8.927536 148.608304,10.518576 L148.608304,16.375696 L150.620944,16.375696 L150.620944,19.497776 L144.273424,19.497776 L144.273424,10.724976 C144.273424,10.165936 144.168144,9.765936 143.957424,9.525136 C143.746544,9.284496 143.396304,9.163856 142.905904,9.163856 C142.235184,9.163856 141.478224,9.439216 140.635344,9.989616 L140.635344,16.375696 L142.531824,16.375696 L142.531824,19.497776 L134.133264,19.497776 L134.133264,16.375696 L136.326384,16.375696 L136.326384,3.164816 L134.133264,3.164816 L134.133264,0.055696 L140.635344,0.055696 L140.635344,7.048176 C142.028784,6.102096 143.305904,5.628976 144.467024,5.628976" id="Fill-13" fill="#D62027" mask="url(#mask-2)"></path>
                    <polygon id="Fill-14" fill="#D62027" mask="url(#mask-2)" points="152.104528 25.316176 152.104528 22.426256 155.665168 22.426256 155.665168 2.958416 152.104528 2.958416 152.104528 0.055696 160.000048 0.055696 160.000048 25.316176"></polygon>
                </g>
            </g>
        </g>
    </g>
</svg>