<?xml version="1.0" encoding="UTF-8"?>
<svg width="214px" height="214px" viewBox="0 0 214 214" version="1.1" xmlns="http://www.w3.org/2000/svg" xmlns:xlink="http://www.w3.org/1999/xlink">
    <!-- Generator: Sketch 57.1 (83088) - https://sketch.com -->
    <title>ness_logo</title>
    <desc>Created with Sketch.</desc>
    <defs>
        <polygon id="path-1" points="3.1884058e-05 0.176637681 49.0176261 0.176637681 49.0176261 36.7763478 3.1884058e-05 36.7763478"></polygon>
        <polygon id="path-3" points="0.206289855 0.0198956522 17.8031014 0.0198956522 17.8031014 21.3623188 0.206289855 21.3623188"></polygon>
    </defs>
    <g id="Exports" stroke="none" stroke-width="1" fill="none" fill-rule="evenodd">
        <g id="Homepage-New" transform="translate(-2028.000000, -4468.000000)">
            <g id="Group-17" transform="translate(2051.000000, 4537.000000)">
                <g id="Group-3" transform="translate(0.000000, 0.142203)">
                    <mask id="mask-2" fill="white">
                        <use xlink:href="#path-1"></use>
                    </mask>
                    <g id="Clip-2"></g>
                    <path d="M25.0746116,5.8653913 C25.0746116,9.00724638 27.6211913,11.5544638 30.7630464,11.5544638 L30.7662348,11.5544638 L30.767829,11.5544638 L34.7367565,11.5544638 C34.7367565,11.5551014 34.7303797,11.5614783 34.7303797,11.5614783 C34.7303797,11.5614783 35.9304957,11.6246087 36.7645826,12.4583768 C37.4421188,13.1362319 37.609829,14.1986087 37.6388435,14.430087 L37.6388435,18.4493913 L37.6388435,18.4509855 L37.6388435,18.4544928 L37.6388435,18.4675652 L37.6388435,18.4784058 L37.6388435,18.481913 L37.6388435,18.4844638 L37.6388435,22.6150435 C37.5961188,22.9463188 37.4229884,23.8495942 36.7546986,24.5162899 C35.9923507,25.279913 34.7348435,25.3966087 34.7348435,25.3966087 L30.7614522,25.3966087 L30.7601768,25.3966087 L30.7579449,25.3966087 L30.7553942,25.3966087 L30.7531623,25.3966087 L30.7509304,25.3966087 L26.7271623,25.3966087 C26.435742,25.3548406 25.4026986,25.1664058 24.761829,24.5268116 C24.1292493,23.8951884 23.9239159,22.982029 23.8690754,22.6195072 L23.8690754,18.486058 L23.8690754,18.4844638 L23.8690754,18.4812754 C23.8690754,15.3394203 21.323771,12.7912464 18.1806406,12.7912464 C15.0387855,12.7912464 12.4909304,15.3394203 12.4909304,18.4812754 C12.4909304,21.624087 15.0387855,24.170029 18.1806406,24.170029 L18.1828725,24.170029 L18.1851043,24.170029 L22.1706116,24.170029 C22.1693362,24.1716232 22.1661478,24.1744928 22.1661478,24.1744928 C22.1661478,24.1744928 23.3624377,24.259942 24.195887,25.0949855 C24.8539739,25.7524348 25.0309304,26.774 25.0669594,27.0434203 L25.0669594,31.0808986 L25.0669594,31.0824928 L25.0669594,31.0863188 C25.0669594,31.4788116 25.1080899,31.862058 25.1836551,32.2328696 C25.713887,34.8256812 28.0073072,36.7763478 30.7553942,36.7763478 L30.7569884,36.7763478 C33.8988435,36.7763478 36.445742,34.2275362 36.445742,31.0863188 L36.445742,31.0824928 L36.445742,31.0808986 L36.445742,27.0906087 C36.4731623,26.8753913 36.6440609,25.7613623 37.3215971,25.0831884 C38.1263507,24.2784348 39.3876841,24.163971 39.3876841,24.1744928 C39.3876841,24.1744928 39.3822638,24.1684348 39.3809884,24.1684348 L43.3228145,24.1684348 L43.3260029,24.1684348 L43.3282348,24.1684348 C46.4700899,24.1684348 49.0176261,21.6215362 49.0176261,18.4784058 L49.0176261,18.4675652 L49.0176261,18.4544928 C49.0176261,15.312 46.4700899,12.7654203 43.3282348,12.7654203 L43.3260029,12.7654203 L43.3228145,12.7654203 L39.3232783,12.7654203 C39.0729884,12.7316232 37.9921188,12.5530725 37.3308435,11.8924348 C36.6874232,11.2486957 36.4973942,10.3269275 36.4527565,9.98194203 L36.4527565,5.87017391 L36.4527565,5.86889855 L36.4527565,5.8653913 C36.4527565,2.72257971 33.9049014,0.176637681 30.7630464,0.176637681 C27.6211913,0.176637681 25.0746116,2.72257971 25.0746116,5.8653913 M18.2536551,36.7763478 C15.1127565,36.7763478 12.5652203,34.2275362 12.5652203,31.0863188 L12.5652203,31.0837681 L12.5652203,31.0808986 L12.5652203,26.9684928 C12.5193072,26.6235072 12.3302348,25.7026957 11.6868145,25.0595942 C11.0255391,24.3986377 9.94435072,24.2204058 9.69342319,24.1866087 L5.69388696,24.1866087 L5.69229275,24.1866087 L5.68942319,24.1866087 C2.54756812,24.1866087 3.1884058e-05,21.6393913 3.1884058e-05,18.4965797 C3.1884058e-05,18.4921159 0.000669565217,18.4889275 0.000669565217,18.486058 C0.000669565217,18.4812754 3.1884058e-05,18.4758551 3.1884058e-05,18.472029 C3.1884058e-05,15.3304928 2.54756812,12.7835942 5.68942319,12.7835942 L5.69229275,12.7835942 L5.69388696,12.7835942 L9.63698841,12.7835942 C9.63635072,12.782 9.63061159,12.7775362 9.63061159,12.7775362 C9.63061159,12.7883768 10.8903507,12.6723188 11.6963797,11.8682029 C12.3729594,11.1916232 12.543858,10.076 12.5712783,9.86078261 L12.5712783,5.87017391 L12.5712783,5.86889855 L12.5712783,5.8653913 C12.5712783,2.72257971 15.1188145,0.176637681 18.2613072,0.176637681 C21.0109884,0.176637681 23.3028145,2.12571014 23.8340029,4.71947826 C23.9102058,5.08837681 23.9500609,5.47194203 23.9500609,5.8653913 L23.9500609,5.86889855 L23.9500609,5.87017391 L23.9500609,9.90701449 C23.9864087,10.1773913 24.1633652,11.2011884 24.8220899,11.8570435 C25.6552203,12.692087 26.8521478,12.7775362 26.8521478,12.7775362 C26.8521478,12.7775362 26.8483217,12.7804058 26.8476841,12.782 L30.8319159,12.782 L30.8335101,12.782 L30.8363797,12.782 C33.979829,12.782 36.5264087,15.3273043 36.5264087,18.4691594 C36.5264087,21.6110145 33.979829,24.1591884 30.8363797,24.1591884 C27.6945246,24.1591884 25.1476261,21.6110145 25.1476261,18.4691594 L25.1476261,18.4675652 L25.1476261,18.4646957 L25.1476261,14.3309275 C25.0943797,13.9693623 24.8884087,13.0584348 24.2551913,12.4236232 C23.6152783,11.784029 22.5825536,11.5965507 22.2895391,11.5544638 L18.2660899,11.5544638 L18.2644957,11.5544638 L18.2613072,11.5544638 L18.2568435,11.5544638 L18.2555681,11.5544638 L14.281858,11.5544638 C14.281858,11.5544638 13.0259449,11.6711594 12.2629594,12.4344638 C11.5946696,13.1024348 11.4205826,14.0041159 11.3781768,14.3385797 L11.3781768,18.4675652 L11.3781768,18.4691594 L11.3781768,18.472029 L11.3781768,18.486058 L11.3781768,18.4965797 L11.3781768,18.4997681 L11.3781768,18.5010435 L11.3781768,22.521942 C11.407829,22.7521449 11.5761768,23.8157971 12.2524377,24.4933333 C13.0871623,25.3267826 14.2863217,25.3905507 14.2863217,25.3905507 C14.2863217,25.3905507 14.281858,25.3966087 14.2802638,25.3966087 L18.2488725,25.3966087 L18.2507855,25.3966087 L18.2536551,25.3966087 C21.3961478,25.3966087 23.9440029,27.9441449 23.9440029,31.0863188 C23.9440029,34.2275362 21.3961478,36.7763478 18.2536551,36.7763478" id="Fill-1" fill="#F05C22" mask="url(#mask-2)"></path>
                </g>
                <g id="Group-6" transform="translate(40.811594, 29.794377)">
                    <mask id="mask-4" fill="white">
                        <use xlink:href="#path-3"></use>
                    </mask>
                    <g id="Clip-5"></g>
                    <path d="M8.90713043,3.64862029 C6.21484058,3.64862029 4.57663768,5.52117101 4.22463768,8.79885217 L13.7448986,8.79885217 C13.5504058,5.98954783 12.2237101,3.64862029 8.90713043,3.64862029 M17.6864058,12.1154319 L4.14684058,12.1154319 C4.57663768,16.0556638 6.80055072,17.7337217 9.29707246,17.7337217 C11.0143478,17.7337217 12.3793043,17.1100696 13.7448986,16.0948812 L16.1253623,18.6698377 C14.3309275,20.3861565 12.1844928,21.3624464 9.06336232,21.3624464 C4.26449275,21.3624464 0.206289855,17.4990551 0.206289855,10.7106203 C0.206289855,3.76531594 3.87391304,0.0198956522 9.18037681,0.0198956522 C14.9937971,0.0198956522 17.8031014,4.74096812 17.8031014,10.2817797 C17.8031014,11.0227652 17.7253043,11.6859536 17.6864058,12.1154319" id="Fill-4" fill="#525E65" mask="url(#mask-4)"></path>
                </g>
                <path d="M73.4110348,50.7270261 L73.4110348,39.1390841 C73.4110348,35.0034029 71.8509478,33.521113 69.1972377,33.521113 C66.5055855,33.521113 64.9834406,35.4328812 64.9834406,38.7494609 L64.9834406,50.7270261 L60.9647739,50.7270261 L60.9647739,30.2434319 L64.9834406,30.2434319 L64.9834406,32.1944174 C65.9973536,30.7118087 68.0267739,29.8142725 70.1336725,29.8142725 C74.8936435,29.8142725 77.4293826,32.9357217 77.4293826,38.9834899 L77.4293826,50.7270261 L73.4110348,50.7270261 Z" id="Fill-7" fill="#525E65"></path>
                <path d="M93.0676522,36.2129246 C92.1697971,35.0032435 90.2966087,33.5209536 88.2681449,33.5209536 C85.3813623,33.5209536 83.8212754,35.7053304 83.8212754,40.0364609 C83.8212754,45.1863739 85.4591594,47.4504609 88.4243768,47.4504609 C90.3364638,47.4504609 92.0138841,46.1623449 93.0676522,44.8356493 L93.0676522,36.2129246 Z M93.0277971,50.7268667 L93.0277971,48.7768377 C91.5458261,50.1427507 89.8295072,51.1566638 87.6827536,51.1566638 C83.2751014,51.1566638 79.8013333,47.9577362 79.8013333,40.1537942 C79.8013333,33.1306928 83.6258261,29.814113 87.8785217,29.814113 C89.9458841,29.814113 91.8968696,30.9067797 93.0277971,32.1553594 L93.0277971,24.3517362 L97.0075652,22.2837362 L97.0075652,50.7268667 L93.0277971,50.7268667 Z" id="Fill-9" fill="#525E65"></path>
                <path d="M129.59049,50.7270261 L125.572461,50.7270261 L118.237533,30.2434319 L122.450693,30.2434319 L126.119272,41.3633159 C126.781186,43.3532 127.367214,45.265287 127.64078,46.3968522 C127.874171,45.265287 128.420345,43.3532 129.044954,41.3633159 L132.557301,30.2434319 L136.809997,30.2434319 L129.59049,50.7270261 Z" id="Fill-11" fill="#525E65"></path>
                <path d="M112.724939,36.2129246 C111.827084,35.0032435 109.953896,33.5209536 107.924794,33.5209536 C105.038012,33.5209536 103.477287,35.7053304 103.477287,40.0364609 C103.477287,45.1863739 105.115809,47.4504609 108.081664,47.4504609 C109.993113,47.4504609 111.670533,46.1623449 112.724939,44.8356493 L112.724939,36.2129246 Z M112.685084,50.7268667 L112.685084,48.7768377 C111.203113,50.1427507 109.486157,51.1566638 107.339403,51.1566638 C102.931751,51.1566638 99.4583014,47.9577362 99.4583014,40.1537942 C99.4583014,33.1306928 103.282475,29.814113 107.535171,29.814113 C109.602533,29.814113 111.554157,30.9067797 112.685084,32.1553594 L112.685084,30.2317942 L116.664214,30.2317942 L116.664214,50.7268667 L112.685084,50.7268667 Z" id="Fill-13" fill="#525E65"></path>
                <path d="M149.834986,36.2129246 C148.93713,35.0032435 147.063942,33.5209536 145.034841,33.5209536 C142.148058,33.5209536 140.587333,35.7053304 140.587333,40.0364609 C140.587333,45.1863739 142.225855,47.4504609 145.191391,47.4504609 C147.103159,47.4504609 148.78058,46.1623449 149.834986,44.8356493 L149.834986,36.2129246 Z M149.79513,50.7268667 L149.79513,48.7768377 C148.313159,50.1427507 146.596203,51.1566638 144.449449,51.1566638 C140.041159,51.1566638 136.568348,47.9577362 136.568348,40.1537942 C136.568348,33.1306928 140.392522,29.814113 144.645217,29.814113 C146.71258,29.814113 148.664203,30.9067797 149.79513,32.1553594 L149.79513,30.2317942 L153.774261,30.2317942 L153.774261,50.7268667 L149.79513,50.7268667 Z" id="Fill-15" fill="#525E65"></path>
            </g>
        </g>
    </g>
</svg>