<?xml version="1.0" encoding="UTF-8"?>
<svg width="214px" height="214px" viewBox="0 0 214 214" version="1.1" xmlns="http://www.w3.org/2000/svg" xmlns:xlink="http://www.w3.org/1999/xlink">
    <!-- Generator: Sketch 54.1 (76490) - https://sketchapp.com -->
    <title>haufe_logo</title>
    <desc>Created with Sketch.</desc>
    <defs>
        <polygon id="path-1" points="0.142312997 0.217482759 8.97527851 0.217482759 8.97527851 13.5278515 0.142312997 13.5278515"></polygon>
    </defs>
    <g id="Exports" stroke="none" stroke-width="1" fill="none" fill-rule="evenodd">
        <g id="Homepage-New" transform="translate(-1511.000000, -4468.000000)">
            <g id="Group-24" transform="translate(1533.000000, 4568.000000)">
                <path d="M52.8810477,12.4518011 C46.1008886,12.4518011 44.0342838,10.664321 44.0342838,8.3501565 L44.0347347,0.131084881 L48.478634,0.131084881 L48.478634,7.87893634 C48.478634,9.7674244 50.4478382,10.2819337 53.0947878,10.2819337 C54.893992,10.2819337 56.2391114,10.2278223 57.2343103,10.1074244 L57.2343103,0.131084881 L61.6791114,0.131084881 L61.6791114,11.9111379 C60.0224005,12.188008 56.6936472,12.4518011 52.8810477,12.4518011" id="Fill-1" fill="#231F20"></path>
                <polygon id="Fill-3" fill="#231F20" points="13.200252 12.1602759 13.200252 7.19465252 4.44502653 7.19465252 4.44502653 12.1602759 0.000225464191 12.1602759 0.000225464191 0.130859416 4.44502653 0.130859416 4.44502653 5.05048806 13.200252 5.05048806 13.200252 0.130859416 17.6446021 0.130859416 17.6446021 12.1602759"></polygon>
                <path d="M71.9147347,2.53624668 L83.913939,2.53624668 L83.913939,0.130994695 L70.9822149,0.130994695 C67.4730902,0.130994695 66.2691114,0.756883289 66.2691114,2.5714191 L66.2691114,12.1604111 L70.7125597,12.1604111 L70.7134615,7.12714854 L83.913939,7.12714854 L83.913939,4.98884615 L70.7134615,4.98884615 L70.7125597,3.27667109 C70.7125597,2.83476127 70.9659814,2.53669761 71.9147347,2.53624668" id="Fill-5" fill="#231F20"></path>
                <path d="M93.0431645,2.53624668 C92.0944111,2.53669761 91.8409894,2.83476127 91.8414403,3.27667109 L91.8423422,5.03123342 L105.042369,5.03123342 L105.042369,7.08431034 L91.8423422,7.08431034 L91.8414403,9.0156366 C91.8405385,9.45709549 92.0944111,9.75515915 93.0431645,9.75515915 L105.042369,9.75561008 L105.042369,12.1604111 L92.1106446,12.1604111 C88.6015199,12.1604111 87.3970902,11.5345225 87.3970902,9.72088859 L87.3970902,2.5714191 C87.3970902,0.756883289 88.6015199,0.130994695 92.1106446,0.130994695 L105.042369,0.130994695 L105.042369,2.53624668 L93.0431645,2.53624668 Z" id="Fill-7" fill="#231F20"></path>
                <path d="M109.536411,9.89859947 C109.536411,9.29119894 109.888135,9.07790981 110.914448,9.07790981 L112.682088,9.07790981 C113.707499,9.07790981 114.059674,9.29119894 114.059674,9.89859947 L114.059674,11.3397666 C114.059674,11.9467162 113.707499,12.1604562 112.682088,12.1604562 L110.914448,12.1604562 C109.888135,12.1604562 109.536411,11.9467162 109.536411,11.3397666 L109.536411,9.89859947 Z" id="Fill-9" fill="#0066B2"></path>
                <path d="M30.927374,10.457435 C29.5299469,10.457435 28.1559682,10.3478594 27.26313,10.1688408 C26.6300265,10.0682838 26.3567639,9.83019363 26.3567639,9.29313793 L26.3567639,7.89345623 C26.3567639,7.35685146 26.6300265,7.11785942 27.26313,7.01820424 C28.1559682,6.83828382 29.5303979,6.73411936 30.9282759,6.73411936 L35.0912467,6.73411936 L35.0912467,10.2770637 C34.2511671,10.3938541 32.6034748,10.4520239 30.9287268,10.4520239 L30.927374,10.457435 Z M30.933687,4.7486817 C28.0991512,4.7486817 25.5302122,5.00120159 23.7585146,5.31414589 C22.4769761,5.51976923 21.9241379,5.99955703 21.9241379,7.08449072 L21.9241379,10.1079655 C21.9241379,11.1928992 22.4769761,11.6740398 23.7585146,11.8796631 C25.5302122,12.1921565 28.0982493,12.4401671 30.933687,12.4518912 C34.6570027,12.4667719 37.9438196,12.1799814 39.5685146,11.9094244 L39.5685146,4.12053846 C39.5685146,0.360246684 38.1151724,0.131175066 33.1919363,0.131175066 L23.3071353,0.131175066 L23.3071353,2.21040584 L33.0855172,2.21040584 C34.9221485,2.21040584 35.0912467,2.71228912 35.0912467,3.82382759 L35.0912467,4.7486817 L30.933687,4.7486817 Z" id="Fill-11" fill="#231F20"></path>
                <path d="M124.364199,12.334695 C120.883483,12.334695 118.076905,10.313634 118.076905,6.0803183 C118.076905,2.09050398 120.948416,0 124.364199,0 C125.996109,0 127.149133,0.261538462 127.867462,0.627241379 L127.279902,1.62018568 C126.77892,1.37623342 125.90908,1.13228117 124.581546,1.13228117 C121.818708,1.13228117 120.143509,2.73533156 120.143509,6.21920424 C120.143509,9.4771618 121.992767,11.2195491 124.342554,11.2195491 C125.36526,11.2195491 125.90908,11.0802122 126.213907,10.9408753 L126.213907,6.44557029 L123.668416,6.44557029 L123.668416,5.43549072 L128.150194,5.43549072 L128.150194,11.6722812 C127.236162,12.0907427 126.235101,12.334695 124.364199,12.334695" id="Fill-13" fill="#231F20"></path>
                <path d="M135.830316,3.7802679 C134.872995,3.55390186 133.784905,3.62334483 133.154056,3.95477719 L133.154056,12.160321 L131.239414,12.160321 L131.239414,3.27522812 C132.392438,2.80490981 133.502172,2.56095756 136.287106,2.61326525 L135.830316,3.7802679 Z" id="Fill-15" fill="#231F20"></path>
                <path d="M142.092223,3.57153316 C139.851109,3.57153316 139.415963,5.57455703 139.415963,7.47386737 C139.415963,9.37272679 139.894849,11.2715862 142.092223,11.2715862 C144.333337,11.2715862 144.746838,9.35514058 144.746838,7.47386737 C144.746838,5.59214324 144.333337,3.57153316 142.092223,3.57153316 M142.092223,12.3348753 C138.893788,12.3348753 137.501321,10.2267851 137.501321,7.47386737 C137.501321,4.66909284 138.915883,2.59572414 142.070578,2.59572414 C145.290658,2.59572414 146.661029,4.66909284 146.661029,7.47386737 C146.661029,10.2267851 145.268562,12.3348753 142.092223,12.3348753" id="Fill-17" fill="#231F20"></path>
                <path d="M153.44908,12.3518302 C150.512183,12.3518302 149.293775,11.1672414 149.293775,9.28551724 L149.293775,2.77005305 L151.208416,2.77005305 L151.208416,9.33782493 C151.208416,10.4353846 151.947939,11.2714058 153.557753,11.2714058 C154.472236,11.2714058 155.124729,11.1496552 155.668549,10.8885676 L155.668549,2.77005305 L157.583191,2.77005305 L157.583191,11.6028382 C156.712448,12.0037135 155.342077,12.3518302 153.44908,12.3518302" id="Fill-19" fill="#231F20"></path>
                <g id="Group-23" transform="translate(160.530504, 2.378151)">
                    <mask id="mask-2" fill="white">
                        <use xlink:href="#path-1"></use>
                    </mask>
                    <g id="Clip-22"></g>
                    <path d="M3.71005836,1.14098408 C2.99218037,1.14098408 2.4921008,1.24514854 2.03485942,1.40207162 L2.03485942,8.77159416 C2.40462069,8.89334483 2.88350663,8.98082493 3.47106631,8.98082493 C5.84249867,8.98082493 7.06090716,7.49997613 7.06090716,5.00859682 C7.06090716,2.62183289 6.19061538,1.14098408 3.71005836,1.14098408 M3.86247215,9.92191247 C3.18833422,9.92191247 2.47000531,9.81684615 2.03485942,9.69509549 L2.03485942,13.5279867 L0.142312997,13.5279867 L0.142312997,0.879896552 C0.925124668,0.513742706 2.12233952,0.217482759 3.79708753,0.217482759 C7.10419629,0.217482759 8.97554907,2.06448541 8.97554907,4.93915385 C8.97554907,8.05732361 6.95178249,9.92191247 3.86247215,9.92191247" id="Fill-21" fill="#231F20" mask="url(#mask-2)"></path>
                </g>
            </g>
        </g>
    </g>
</svg>