<?xml version="1.0" encoding="UTF-8"?>
<svg width="214px" height="214px" viewBox="0 0 214 214" version="1.1" xmlns="http://www.w3.org/2000/svg" xmlns:xlink="http://www.w3.org/1999/xlink">
    <!-- Generator: Sketch 55.2 (78181) - https://sketchapp.com -->
    <title>IBM_logo</title>
    <desc>Created with Sketch.</desc>
    <defs>
        <polygon id="path-1" points="0 52.2488038 139.362967 52.2488038 139.362967 0.362392344 0 0.362392344"></polygon>
    </defs>
    <g id="Exports" stroke="none" stroke-width="1" fill="none" fill-rule="evenodd">
        <g id="Homepage-New" transform="translate(-1511.000000, -4220.000000)">
            <g id="Group-42" transform="translate(1551.000000, 4301.000000)">
                <polygon id="Fill-1" fill="#000000" points="0 4.27951196 25.2475598 4.27951196 25.2475598 0.670325359 0 0.670325359"></polygon>
                <polygon id="Fill-2" fill="#000000" points="0 11.1663062 25.2475598 11.1663062 25.2475598 7.55644976 0 7.55644976"></polygon>
                <polygon id="Fill-3" fill="#000000" points="7.20899522 18.0584593 18.0372249 18.0584593 18.0372249 14.4365455 7.20899522 14.4365455"></polygon>
                <polygon id="Fill-4" fill="#000000" points="7.20899522 24.9204689 18.0372249 24.9204689 18.0372249 21.3233397 7.20899522 21.3233397"></polygon>
                <polygon id="Fill-5" fill="#000000" points="7.20899522 31.8092727 18.0372249 31.8092727 18.0372249 28.2128134 7.20899522 28.2128134"></polygon>
                <polygon id="Fill-6" fill="#000000" points="7.20899522 38.7027656 18.0372249 38.7027656 18.0372249 35.0949187 7.20899522 35.0949187"></polygon>
                <polygon id="Fill-7" fill="#000000" points="0 45.5935789 25.2475598 45.5935789 25.2475598 41.9843923 0 41.9843923"></polygon>
                <polygon id="Fill-8" fill="#000000" points="0 52.4703254 25.2475598 52.4703254 25.2475598 48.8618086 0 48.8618086"></polygon>
                <g id="Group-41" transform="translate(0.000000, 0.307263)">
                    <path d="M28.8378565,7.24945455 L67.7498182,7.24945455 C68.0807273,7.84428708 68.8390048,10.0909856 68.931445,10.859311 L28.8378565,10.859311 L28.8378565,7.24945455 Z" id="Fill-9" fill="#000000"></path>
                    <mask id="mask-2" fill="white">
                        <use xlink:href="#path-1"></use>
                    </mask>
                    <g id="Clip-12"></g>
                    <polygon id="Fill-11" fill="#000000" mask="url(#mask-2)" points="36.0664115 17.7511962 46.8705263 17.7511962 46.8705263 14.1292823 36.0664115 14.1292823"></polygon>
                    <path d="M57.6888421,14.1292823 L69.2264498,14.1292823 C69.2619522,14.8882297 68.9062584,17.0244019 68.6235789,17.7511962 L57.6888421,17.7511962 L57.6888421,14.1292823 Z" id="Fill-13" fill="#000000" mask="url(#mask-2)"></path>
                    <path d="M36.0669474,27.9058182 L63.8552727,27.9058182 C64.7575694,28.5301244 66.4194833,30.5812249 67.0900096,31.4995981 L36.0669474,31.4995981 L36.0669474,27.9058182 Z" id="Fill-14" fill="#000000" mask="url(#mask-2)"></path>
                    <polygon id="Fill-15" fill="#000000" mask="url(#mask-2)" points="36.0664115 38.3955024 46.8705263 38.3955024 46.8705263 34.7876555 36.0664115 34.7876555"></polygon>
                    <path d="M57.6888421,34.7878565 L68.6671196,34.7878565 C68.9062584,35.2969474 69.3182201,37.6943636 69.2934354,38.3957033 L57.6888421,38.3957033 L57.6888421,34.7878565 Z" id="Fill-16" fill="#000000" mask="url(#mask-2)"></path>
                    <path d="M28.8378565,41.6764593 L68.8369952,41.6764593 C68.7807273,42.5023923 68.0124019,44.7604785 67.652689,45.2863158 L28.8378565,45.2863158 L28.8378565,41.6764593 Z" id="Fill-17" fill="#000000" mask="url(#mask-2)"></path>
                    <path d="M28.8378565,48.5542775 L65.0040766,48.5542775 C61.7988134,51.2404019 58.968,52.1634641 54.0036938,52.1634641 L50.4246507,52.1634641 L28.8378565,52.1634641 L28.8378565,48.5542775 Z" id="Fill-18" fill="#000000" mask="url(#mask-2)"></path>
                    <polygon id="Fill-19" fill="#000000" mask="url(#mask-2)" points="79.3282871 21.0158756 99.8285742 21.0158756 100.97001 24.247933 102.116804 21.0158756 122.599675 21.0158756 122.599675 24.6130048 111.786852 24.6130048 111.786852 21.7011388 110.755943 24.6130048 91.177378 24.6130048 90.1444593 21.7011388 90.1444593 24.6130048 79.3282871 24.6130048"></polygon>
                    <polygon id="Fill-20" fill="#000000" mask="url(#mask-2)" points="79.3284211 31.5020096 90.1452632 31.5020096 90.1452632 27.9055502 79.3284211 27.9055502"></polygon>
                    <polygon id="Fill-21" fill="#000000" mask="url(#mask-2)" points="79.3284211 38.3955024 90.1452632 38.3955024 90.1452632 34.7876555 79.3284211 34.7876555"></polygon>
                    <polygon id="Fill-22" fill="#000000" mask="url(#mask-2)" points="72.1194258 45.2735885 90.1445933 45.2735885 90.1445933 41.6764593 72.1194258 41.6764593"></polygon>
                    <polygon id="Fill-23" fill="#000000" mask="url(#mask-2)" points="72.1194258 52.1637321 90.1445933 52.1637321 90.1445933 48.5545455 72.1194258 48.5545455"></polygon>
                    <polygon id="Fill-24" fill="#000000" mask="url(#mask-2)" points="109.468612 0.362526316 129.812153 0.362526316 129.812153 3.97171292 108.176459 3.97171292"></polygon>
                    <polygon id="Fill-25" fill="#000000" mask="url(#mask-2)" points="107.018144 7.24945455 129.812019 7.24945455 129.812019 10.859311 105.73001 10.859311"></polygon>
                    <polygon id="Fill-26" fill="#000000" mask="url(#mask-2)" points="104.576115 14.1292823 122.599943 14.1292823 122.599943 17.7511962 103.28999 17.7511962"></polygon>
                    <polygon id="Fill-27" fill="#000000" mask="url(#mask-2)" points="111.786316 31.5020096 122.599809 31.5020096 122.599809 27.9055502 111.786316 27.9055502"></polygon>
                    <polygon id="Fill-28" fill="#000000" mask="url(#mask-2)" points="111.786316 38.3955024 122.599809 38.3955024 122.599809 34.7876555 111.786316 34.7876555"></polygon>
                    <polygon id="Fill-29" fill="#000000" mask="url(#mask-2)" points="111.786316 45.2735885 129.812153 45.2735885 129.812153 41.6764593 111.786316 41.6764593"></polygon>
                    <polygon id="Fill-30" fill="#000000" mask="url(#mask-2)" points="111.786316 52.1637321 129.812153 52.1637321 129.812153 48.5545455 111.786316 48.5545455"></polygon>
                    <polygon id="Fill-31" fill="#000000" mask="url(#mask-2)" points="92.3237703 27.9058182 109.612096 27.9058182 108.372191 31.5022775 93.5784115 31.5022775"></polygon>
                    <polygon id="Fill-32" fill="#000000" mask="url(#mask-2)" points="94.7153589 34.7878565 107.226938 34.7878565 105.961579 38.3957033 95.9820574 38.3957033"></polygon>
                    <polygon id="Fill-33" fill="#000000" mask="url(#mask-2)" points="97.1357512 41.6764593 104.816325 41.6764593 103.567713 45.2735885 98.3903923 45.2735885"></polygon>
                    <polygon id="Fill-34" fill="#000000" mask="url(#mask-2)" points="99.5463636 48.5542775 102.418038 48.5542775 101.161388 52.1634641 100.794306 52.1634641"></polygon>
                    <path d="M36.0669474,24.6186316 L63.8552727,24.6186316 C64.7575694,23.9936555 66.4194833,21.9452344 67.0900096,21.0241818 L36.0669474,21.0241818 L36.0669474,24.6186316 Z" id="Fill-35" fill="#000000" mask="url(#mask-2)"></path>
                    <polygon id="Fill-36" fill="#000000" mask="url(#mask-2)" points="92.4775024 0.362526316 72.1332919 0.362526316 72.1332919 3.97171292 93.7669761 3.97171292"></polygon>
                    <polygon id="Fill-37" fill="#000000" mask="url(#mask-2)" points="94.9279713 7.24945455 72.1334258 7.24945455 72.1334258 10.859311 96.2161053 10.859311"></polygon>
                    <polygon id="Fill-38" fill="#000000" mask="url(#mask-2)" points="97.3679904 14.1292823 79.3448325 14.1292823 79.3448325 17.7511962 98.6561244 17.7511962"></polygon>
                    <path d="M28.8378565,3.97184689 L65.0040766,3.97184689 C61.7988134,1.28639234 58.968,0.362660287 54.0036938,0.362660287 L50.4246507,0.362660287 L28.8378565,0.362660287 L28.8378565,3.97184689 Z" id="Fill-39" fill="#000000" mask="url(#mask-2)"></path>
                    <path d="M134.488756,46.8632249 L134.488756,50.6653301 L135.163301,50.6653301 L135.163301,49.1742297 L135.691148,49.1742297 C136.048182,49.1742297 136.296029,49.2137512 136.438708,49.294134 C136.681196,49.4361435 136.798421,49.7255215 136.798421,50.1636077 L136.798421,50.4637033 L136.814498,50.5856172 L136.823206,50.6271483 L136.833254,50.6653301 L137.4589,50.6653301 L137.436124,50.6171005 C137.420048,50.5876268 137.41,50.521311 137.402632,50.4208325 C137.397943,50.3183445 137.393923,50.2259043 137.393923,50.1381531 L137.393923,49.858823 C137.393923,49.6685837 137.325598,49.4729856 137.188278,49.2720287 C137.052297,49.0697321 136.835263,48.9451388 136.541866,48.8982488 C136.776316,48.860067 136.959187,48.8004498 137.090478,48.7147081 C137.336316,48.5532727 137.4589,48.3034163 137.4589,47.963799 C137.4589,47.4848517 137.261962,47.1633206 136.867416,46.9998756 C136.645694,46.9067656 136.298038,46.8632249 135.82512,46.8632249 L134.488756,46.8632249 Z M136.812488,48.0274354 C136.812488,48.3161435 136.681196,48.5110718 136.417943,48.6142297 C136.273923,48.6704976 136.05823,48.6979617 135.772871,48.6979617 L135.163301,48.6979617 L135.163301,47.3381531 L135.739378,47.3381531 C136.114498,47.3381531 136.387799,47.3850431 136.557273,47.4768134 C136.728756,47.5699234 136.812488,47.754134 136.812488,48.0274354 L136.812488,48.0274354 Z M139.362632,48.7723158 C139.362632,47.8157608 139.023684,47.0005455 138.34512,46.3273397 C137.667895,45.6548038 136.85067,45.317866 135.888756,45.317866 C134.931531,45.317866 134.118995,45.6548038 133.44445,46.3273397 C132.767895,47.0032249 132.429617,47.8177703 132.429617,48.7723158 C132.429617,49.7342297 132.763206,50.5534641 133.434402,51.230689 C134.110957,51.9099234 134.926172,52.2488708 135.888756,52.2488708 C136.85067,52.2488708 137.667895,51.9099234 138.34512,51.230689 C139.023684,50.5507847 139.362632,49.7302105 139.362632,48.7723158 L139.362632,48.7723158 Z M135.886077,45.7921244 C136.712679,45.7921244 137.418038,46.0855215 138.000813,46.6696364 C138.582249,47.2504019 138.872297,47.9530813 138.872297,48.7763349 C138.872297,49.6062871 138.582249,50.3123158 138.000813,50.8964306 C137.420048,51.4832249 136.716699,51.7752823 135.886077,51.7752823 C135.056124,51.7752823 134.351435,51.4832249 133.77,50.8964306 C133.192584,50.3123158 132.905215,49.6062871 132.905215,48.7763349 C132.905215,47.9530813 133.194593,47.2504019 133.776699,46.6696364 C134.358804,46.0855215 135.063493,45.7921244 135.886077,45.7921244 L135.886077,45.7921244 Z" id="Fill-40" fill="#000000" mask="url(#mask-2)"></path>
                </g>
            </g>
        </g>
    </g>
</svg>