<?xml version="1.0" encoding="UTF-8"?>
<svg width="214px" height="214px" viewBox="0 0 214 214" version="1.1" xmlns="http://www.w3.org/2000/svg" xmlns:xlink="http://www.w3.org/1999/xlink">
    <!-- Generator: Sketch 53.2 (72643) - https://sketchapp.com -->
    <title>imobiliare_logo</title>
    <desc>Created with Sketch.</desc>
    <g id="Exports" stroke="none" stroke-width="1" fill="none" fill-rule="evenodd">
        <g id="Homepage-New" transform="translate(-1003.000000, -4468.000000)" fill="#B12226">
            <g id="Group-20" transform="translate(1040.000000, 4534.000000)">
                <path d="M1.870225,47.924975 C0.831308333,47.924975 5.83333333e-05,48.7048917 5.83333333e-05,49.769475 C5.83333333e-05,50.7821417 0.831308333,51.561475 1.870225,51.561475 C2.90914167,51.561475 3.74039167,50.7821417 3.74039167,49.769475 C3.74039167,48.7048917 2.90914167,47.924975 1.870225,47.924975" id="Fill-1"></path>
                <polygon id="Fill-3" points="0.389666667 66.49825 3.3775 66.49825 3.3775 54.2120833 0.389666667 54.2120833"></polygon>
                <path d="M21.2480917,53.822125 C19.222175,53.822125 17.9230917,54.445125 16.6245917,55.6922917 C15.6632583,54.4970417 14.234675,53.822125 12.6240917,53.822125 C11.065425,53.822125 10.1565917,54.289375 9.32534167,55.0687083 L9.32534167,54.2117917 L6.31184167,54.2117917 L6.31184167,66.4979583 L9.32534167,66.4979583 L9.32534167,58.1854583 C10.1565917,57.0427083 11.1173417,56.5492083 12.0005083,56.5492083 C13.8712583,56.5492083 14.9620917,57.7444583 14.9620917,59.9004583 L14.9620917,66.4979583 L17.9493417,66.4979583 L17.9493417,59.7184583 C17.9493417,59.1992917 17.897425,58.7052083 17.7935917,58.237375 C18.6505083,56.991375 19.689425,56.5492083 20.6245083,56.5492083 C22.520925,56.5492083 23.5860917,57.7444583 23.5860917,59.9004583 L23.5860917,66.4979583 L26.5990083,66.4979583 L26.5990083,59.7184583 C26.5990083,56.160125 24.2615917,53.822125 21.2480917,53.822125" id="Fill-5"></path>
                <path d="M35.0151083,64.1603083 C32.884775,64.1603083 31.4561917,62.4715583 31.4561917,60.367475 C31.4561917,58.290225 32.884775,56.6533917 35.0151083,56.6533917 C37.1186083,56.6533917 38.547775,58.290225 38.547775,60.367475 C38.547775,62.4715583 37.1186083,64.1603083 35.0151083,64.1603083 M35.0151083,53.925725 C31.2741917,53.925725 28.4689417,56.6533917 28.4689417,60.367475 C28.4689417,64.1083917 31.2741917,66.887975 35.0151083,66.887975 C38.7291917,66.887975 41.535025,64.1083917 41.535025,60.367475 C41.535025,56.6533917 38.7291917,53.925725 35.0151083,53.925725" id="Fill-6"></path>
                <path d="M49.8730167,64.1865 C48.6001833,64.1865 47.4311833,63.7186667 46.5736833,62.4720833 L46.5736833,58.212 C47.4311833,56.9910833 48.6001833,56.52325 49.8730167,56.52325 C52.0027667,56.52325 53.5095167,58.3158333 53.5095167,60.34175 C53.5095167,62.3939167 52.0027667,64.1865 49.8730167,64.1865 M50.3146,53.9256667 C48.8341,53.9256667 47.5612667,54.341 46.5736833,55.0684167 L46.5736833,48.321 L43.5607667,48.321 L43.5607667,66.49825 L46.5736833,66.49825 L46.5736833,65.64075 C47.5612667,66.3681667 48.8341,66.7840833 50.3146,66.7840833 C53.7434333,66.7840833 56.4967667,63.9269167 56.4967667,60.34175 C56.4967667,56.7834167 53.7434333,53.9256667 50.3146,53.9256667" id="Fill-7"></path>
                <polygon id="Fill-8" points="58.7305833 66.49825 61.7184167 66.49825 61.7184167 54.2120833 58.7305833 54.2120833"></polygon>
                <path d="M60.21155,47.924975 C59.1726333,47.924975 58.3413833,48.7048917 58.3413833,49.769475 C58.3413833,50.7821417 59.1726333,51.561475 60.21155,51.561475 C61.2504667,51.561475 62.0817167,50.7821417 62.0817167,49.769475 C62.0817167,48.7048917 61.2504667,47.924975 60.21155,47.924975" id="Fill-9"></path>
                <polygon id="Fill-10" points="64.6531667 66.49825 67.6660833 66.49825 67.6660833 48.321 64.6531667 48.321"></polygon>
                <path d="M72.1083417,47.924975 C71.069425,47.924975 70.238175,48.7048917 70.238175,49.769475 C70.238175,50.7821417 71.069425,51.561475 72.1083417,51.561475 C73.1472583,51.561475 73.9785083,50.7821417 73.9785083,49.769475 C73.9785083,48.7048917 73.1472583,47.924975 72.1083417,47.924975" id="Fill-11"></path>
                <polygon id="Fill-12" points="70.6276667 66.49825 73.6149167 66.49825 73.6149167 54.2120833 70.6276667 54.2120833"></polygon>
                <path d="M85.7716417,62.4456583 C84.9141417,63.719075 83.7188917,64.186325 82.4466417,64.186325 C80.341975,64.186325 78.8095583,62.3937417 78.8095583,60.3672417 C78.8095583,58.3156583 80.341975,56.5236583 82.4466417,56.5236583 C83.7188917,56.5236583 84.9141417,56.9909083 85.7716417,58.2637417 L85.7716417,62.4456583 Z M85.7716417,55.068825 C84.7583917,54.340825 83.4855583,53.926075 82.0050583,53.926075 C78.576225,53.926075 75.8223083,56.7832417 75.8223083,60.3672417 C75.8223083,63.9267417 78.576225,66.7839083 82.0050583,66.7839083 C83.4855583,66.7839083 84.7583917,66.368575 85.7716417,65.6411583 L85.7716417,66.498075 L88.7588917,66.498075 L88.7588917,54.2119083 L85.7716417,54.2119083 L85.7716417,55.068825 Z" id="Fill-13"></path>
                <path d="M94.5250833,54.2117333 L91.5121667,54.2117333 L91.5121667,66.4979 L94.5250833,66.4979 L94.5250833,58.8614833 C95.59025,57.5624 97.0445,56.8869 98.9928333,56.8087333 L98.9928333,53.9778167 C97.1226667,53.9778167 95.6421667,54.6270667 94.5250833,55.7698167 L94.5250833,54.2117333 Z" id="Fill-14"></path>
                <path d="M102.629683,59.3028333 C102.96685,57.7179167 104.083933,56.4713333 106.006017,56.4713333 C107.7986,56.4713333 108.889433,57.56275 109.097683,59.3028333 L102.629683,59.3028333 Z M106.16235,53.9256667 C102.240017,53.9256667 99.6424333,56.70525 99.6424333,60.3674167 C99.6424333,64.0045 102.240017,66.7840833 106.16235,66.7840833 C108.9676,66.7840833 111.227433,65.3555 111.9286,63.0956667 L108.734267,63.0956667 C108.2921,63.84875 107.4346,64.2384167 106.239933,64.2384167 C104.1621,64.2384167 103.01935,63.0694167 102.65535,61.5364167 L112.058683,61.5364167 L112.084933,61.5364167 C112.1631,61.0691667 112.1631,60.6019167 112.1631,60.1603333 C112.13685,56.4713333 109.565517,53.9256667 106.16235,53.9256667 L106.16235,53.9256667 Z" id="Fill-15"></path>
                <path d="M114.708183,63.3810333 C113.694933,63.3810333 112.863683,64.1341167 112.863683,65.1473667 C112.863683,66.1868667 113.694933,66.93995 114.708183,66.93995 C115.72085,66.93995 116.57835,66.1868667 116.57835,65.1473667 C116.57835,64.1341167 115.72085,63.3810333 114.708183,63.3810333" id="Fill-16"></path>
                <path d="M121.435883,54.2117333 L118.422967,54.2117333 L118.422967,66.4979 L121.435883,66.4979 L121.435883,58.8614833 C122.50105,57.5624 123.9553,56.8869 125.903633,56.8087333 L125.903633,53.9778167 C124.033467,53.9778167 122.552967,54.6270667 121.435883,55.7698167 L121.435883,54.2117333 Z" id="Fill-17"></path>
                <path d="M133.099167,64.1603083 C130.969417,64.1603083 129.54025,62.4715583 129.54025,60.367475 C129.54025,58.290225 130.969417,56.6533917 133.099167,56.6533917 C135.20325,56.6533917 136.632417,58.290225 136.632417,60.367475 C136.632417,62.4715583 135.20325,64.1603083 133.099167,64.1603083 M133.099167,53.925725 C129.358833,53.925725 126.553,56.6533917 126.553,60.367475 C126.553,64.1083917 129.358833,66.887975 133.099167,66.887975 C136.813833,66.887975 139.619083,64.1083917 139.619083,60.367475 C139.619083,56.6533917 136.813833,53.925725 133.099167,53.925725" id="Fill-18"></path>
                <path d="M83.794375,15.536325 L83.794375,32.4751583 L61.1435417,32.4751583 L61.1447083,26.694325 L70.664125,26.694325 L70.664125,11.007325 L68.1697917,8.51415833 L72.4689583,4.21499167 L83.794375,15.536325 Z M58.167375,14.3014083 L58.165625,20.7309083 L61.1464583,20.7309083 L61.147625,15.536325 L66.0627917,10.6211583 L67.683875,12.242825 L67.683875,23.7146583 L51.6235417,23.7146583 L51.625875,12.242825 L59.6537083,4.21499167 L61.8452917,6.40540833 L63.9522917,4.29724167 L59.653125,-0.000175 L48.645625,11.007325 L48.642125,26.694325 L58.1644583,26.694325 L58.1627083,35.4554083 L86.774625,35.4554083 L86.774625,14.3014083 L72.4689583,-0.000175 L58.167375,14.3014083 Z" id="Fill-19"></path>
            </g>
        </g>
    </g>
</svg>