<?xml version="1.0" encoding="utf-8"?>
<!-- Generator: Adobe Illustrator 24.0.3, SVG Export Plug-In . SVG Version: 6.00 Build 0)  -->
<svg version="1.1" id="Layer_1" xmlns="http://www.w3.org/2000/svg" xmlns:xlink="http://www.w3.org/1999/xlink" x="0px" y="0px"
	 viewBox="0 0 214 214" style="enable-background:new 0 0 214 214;" xml:space="preserve">
<style type="text/css">
	.st0{clip-path:url(#SVGID_2_);}
	.st1{fill:url(#SVGID_5_);}
	.st2{fill:url(#SVGID_6_);}
	.st3{fill:url(#SVGID_7_);}
	.st4{opacity:0.45;fill:url(#SVGID_8_);}
	.st5{fill:url(#SVGID_9_);}
	.st6{fill:url(#SVGID_10_);}
	.st7{fill:url(#SVGID_11_);}
	.st8{fill:url(#SVGID_12_);}
	.st9{opacity:0.45;fill:url(#SVGID_13_);}
	.st10{fill:url(#SVGID_14_);}
	.st11{fill:url(#SVGID_15_);}
	.st12{fill:url(#SVGID_16_);}
	.st13{fill:url(#SVGID_17_);}
	.st14{opacity:0.5;fill:url(#SVGID_18_);}
	.st15{fill:url(#SVGID_19_);}
	.st16{opacity:0.5;fill:url(#SVGID_20_);}
	.st17{fill:#808285;}
</style>
<g>
	<defs>
		<rect id="SVGID_1_" x="-1473.3" y="-3585.8" width="3717" height="7729"/>
	</defs>
	<clipPath id="SVGID_2_">
		<use xlink:href="#SVGID_1_"  style="overflow:visible;"/>
	</clipPath>
	<g class="st0">
		<defs>
			<rect id="SVGID_3_" x="298.7" y="2225.2" width="136" height="154"/>
		</defs>
		<clipPath id="SVGID_4_">
			<use xlink:href="#SVGID_3_"  style="overflow:visible;"/>
		</clipPath>
		<g style="clip-path:url(#SVGID_4_);">
			
				<image style="overflow:visible;" width="800" height="907" xlink:href="19003FBD713820D4.jpg"  transform="matrix(0.17 0 0 0.1698 298.6752 2225.2107)">
			</image>
		</g>
	</g>
</g>
<g>
	<g>
		<g>
			<path d="M52,136.5v-1.1h4.7v1.1h-1.5v13.8h1.5v1.1H52v-1.1h1.5v-13.8H52z"/>
			<path d="M70.2,136.5v-1.1h4.2v1.1h-1.3v14.9h-1.8L63.2,138v12.3h1.3v1.1h-4.2v-1.1h1.3v-13.8h-1.3v-1.1h3.1l8.1,13.4v-12.3H70.2z
				"/>
			<path d="M88.7,138.9h-1.2v-2.2h-3.7v13.6h1.8v1.1h-5.1v-1.1h1.8v-13.6h-3.7v2.2h-1.2v-3.5h11.4V138.9z"/>
			<path d="M91.8,151.4v-1.1h1.3v-13.8h-1.3v-1.1h10.3v3.5h-1.2v-2.2h-6.2v5.9h6.3v1.3h-6.3v6.2h6.6V148h1.2v3.5H91.8z"/>
			<path d="M110.8,144.7H109v5.6h1.3v1.1h-4.2v-1.1h1.3v-13.8h-1.3v-1.1h5.9c2.3,0,3.8,0.7,4.4,2c0.2,0.4,0.3,0.9,0.4,1.3
				c0.1,0.4,0.1,0.9,0.1,1.4c0,0.6,0,1-0.1,1.4c-0.1,0.4-0.2,0.8-0.4,1.3c-0.4,0.9-1.1,1.4-2.3,1.7c0.4,0.3,0.8,0.8,1.1,1.4l1.9,4.4
				h1.4v1.1h-2.6l-2.2-5.2c-0.3-0.6-0.6-1-1-1.2C112.1,144.8,111.5,144.7,110.8,144.7z M109,143.5h3c1.4,0,2.3-0.3,2.7-1
				c0.2-0.3,0.3-0.7,0.4-1c0.1-0.4,0.1-0.8,0.1-1.3c0-0.5,0-1-0.1-1.3c-0.1-0.4-0.2-0.7-0.4-1c-0.4-0.7-1.3-1-2.7-1h-3V143.5z"/>
			<path d="M134.4,150.3v1.1h-3.9v-1.1h1.3l-1.3-4.1h-6.2l-1.3,4.1h1.3v1.1h-3.9v-1.1h1l5-14.9h2.1l5,14.9H134.4z M127.3,136.8
				l-2.7,8.2h5.4L127.3,136.8z"/>
			<path d="M146.5,135.4h1.2v4.7h-1.2c-0.1-1.2-0.4-2.1-1-2.8c-0.6-0.6-1.6-1-3-1c-1.4,0-2.5,0.4-3.2,1.2c-0.6,0.7-0.9,1.8-1,3.4
				c-0.1,0.6-0.1,1.4-0.1,2.4c0,1,0,1.8,0.1,2.4c0,0.6,0.1,1.2,0.3,1.9c0.2,0.7,0.4,1.2,0.7,1.5c0.7,0.8,1.8,1.2,3.2,1.2
				c1.4,0,2.4-0.3,3-1c0.5-0.6,0.8-1.5,0.9-2.7l1.3,0.1c-0.1,0.8-0.2,1.5-0.3,2c-0.2,0.5-0.4,1.1-0.8,1.5c-0.7,0.9-2,1.4-3.9,1.4
				c-1.8,0-3.2-0.3-4-1c-0.4-0.4-0.8-0.8-1.1-1.2c-0.3-0.4-0.5-1-0.6-1.7c-0.2-1.1-0.4-2.5-0.4-4.1c0-1.6,0.1-2.9,0.2-3.8
				c0.1-0.9,0.4-1.8,0.8-2.5c0.4-0.8,1-1.3,1.8-1.7c0.8-0.4,1.8-0.5,3-0.5c1.9,0,3.2,0.6,4,1.9V135.4z"/>
			<path d="M162,138.9h-1.2v-2.2h-3.7v13.6h1.8v1.1h-5.1v-1.1h1.8v-13.6h-3.7v2.2h-1.2v-3.5H162V138.9z"/>
		</g>
		<g>
			<g>
				
					<linearGradient id="SVGID_5_" gradientUnits="userSpaceOnUse" x1="-8966.416" y1="61.6316" x2="-8966.416" y2="40.8646" gradientTransform="matrix(1 0 0 1 9042.7998 5.8188)">
					<stop  offset="0.2667" style="stop-color:#063A52"/>
					<stop  offset="0.3473" style="stop-color:#003E57"/>
					<stop  offset="0.4756" style="stop-color:#004B66"/>
					<stop  offset="0.6357" style="stop-color:#006180"/>
					<stop  offset="0.8195" style="stop-color:#0083AA"/>
					<stop  offset="0.9212" style="stop-color:#009BCB"/>
				</linearGradient>
				<polygon class="st1" points="69.3,54.5 83.4,46.5 83.4,62 69.4,68.8 				"/>
				
					<linearGradient id="SVGID_6_" gradientUnits="userSpaceOnUse" x1="-8955.3848" y1="58.7768" x2="-8950.04" y2="44.0938" gradientTransform="matrix(1 0 0 1 9042.7988 5.8188)">
					<stop  offset="0.2667" style="stop-color:#00283B"/>
					<stop  offset="0.3844" style="stop-color:#003346"/>
					<stop  offset="0.6146" style="stop-color:#004F65"/>
					<stop  offset="0.9321" style="stop-color:#0080A2"/>
					<stop  offset="1" style="stop-color:#008EB4"/>
				</linearGradient>
				<polygon class="st2" points="83.4,46.5 96.7,54.5 96.7,68 83.4,61.8 				"/>
				
					<linearGradient id="SVGID_7_" gradientUnits="userSpaceOnUse" x1="-8962.1133" y1="85.9898" x2="-8955.8115" y2="50.2499" gradientTransform="matrix(1 0 0 1 9042.7998 5.8188)">
					<stop  offset="0.1152" style="stop-color:#003D56"/>
					<stop  offset="0.1939" style="stop-color:#005A77"/>
					<stop  offset="0.2611" style="stop-color:#006A8C"/>
					<stop  offset="0.3212" style="stop-color:#00779E"/>
					<stop  offset="0.3255" style="stop-color:#00759B"/>
					<stop  offset="0.3593" style="stop-color:#006D8F"/>
					<stop  offset="0.396" style="stop-color:#006382"/>
					<stop  offset="0.4352" style="stop-color:#005976"/>
					<stop  offset="0.4776" style="stop-color:#00506B"/>
					<stop  offset="0.5245" style="stop-color:#004962"/>
					<stop  offset="0.5782" style="stop-color:#00435C"/>
					<stop  offset="0.6449" style="stop-color:#004057"/>
					<stop  offset="0.7636" style="stop-color:#003F56"/>
					<stop  offset="0.7932" style="stop-color:#00465E"/>
					<stop  offset="0.8489" style="stop-color:#005872"/>
					<stop  offset="0.9244" style="stop-color:#007590"/>
					<stop  offset="1" style="stop-color:#0092AD"/>
				</linearGradient>
				<polygon class="st3" points="96.7,54.5 69.3,83.6 69.3,101.5 69.6,101.4 96.7,73.3 				"/>
				
					<linearGradient id="SVGID_8_" gradientUnits="userSpaceOnUse" x1="150.7099" y1="78.8503" x2="155.4518" y2="84.5015" gradientTransform="matrix(-1 0 0 1 233.1729 0)">
					<stop  offset="3.030300e-02" style="stop-color:#000000"/>
					<stop  offset="0.7697" style="stop-color:#000000;stop-opacity:0"/>
				</linearGradient>
				<polygon class="st4" points="90.1,80.2 82.8,87.8 73.1,79.6 73.2,79.5 78.8,73.6 				"/>
			</g>
			
				<linearGradient id="SVGID_9_" gradientUnits="userSpaceOnUse" x1="56.2767" y1="66.5038" x2="86.5105" y2="66.3203" gradientTransform="matrix(1 0 0 1 14.1221 5.8188)">
				<stop  offset="0" style="stop-color:#00A0C8"/>
				<stop  offset="7.606477e-02" style="stop-color:#00A5CB"/>
				<stop  offset="0.2326" style="stop-color:#00AFD1"/>
				<stop  offset="0.3974" style="stop-color:#13B8D7"/>
				<stop  offset="0.5719" style="stop-color:#41C0DB"/>
				<stop  offset="0.7625" style="stop-color:#50C5DE"/>
				<stop  offset="1" style="stop-color:#55C7DF"/>
			</linearGradient>
			<polygon class="st5" points="106.3,72 106.3,89.9 69.3,72.4 69.3,54.5 			"/>
			<g>
				
					<linearGradient id="SVGID_10_" gradientUnits="userSpaceOnUse" x1="-8945.8945" y1="61.6316" x2="-8945.8945" y2="40.8646" gradientTransform="matrix(-1 0 0 1 -8809.627 5.8188)">
					<stop  offset="0.2667" style="stop-color:#063A52"/>
					<stop  offset="0.3473" style="stop-color:#003E57"/>
					<stop  offset="0.4756" style="stop-color:#004B66"/>
					<stop  offset="0.6357" style="stop-color:#006180"/>
					<stop  offset="0.8195" style="stop-color:#0083AA"/>
					<stop  offset="0.9212" style="stop-color:#009BCB"/>
				</linearGradient>
				<polygon class="st6" points="143.3,54.5 129.2,46.5 129.2,62 143.2,68.8 				"/>
				
					<linearGradient id="SVGID_11_" gradientUnits="userSpaceOnUse" x1="-8934.8633" y1="58.7768" x2="-8929.5195" y2="44.0938" gradientTransform="matrix(-1 0 0 1 -8809.627 5.8188)">
					<stop  offset="0.2667" style="stop-color:#00283B"/>
					<stop  offset="0.3844" style="stop-color:#003346"/>
					<stop  offset="0.6146" style="stop-color:#004F65"/>
					<stop  offset="0.9321" style="stop-color:#0080A2"/>
					<stop  offset="1" style="stop-color:#008EB4"/>
				</linearGradient>
				<polygon class="st7" points="129.2,46.5 115.9,54.5 115.9,68 129.2,61.8 				"/>
				
					<linearGradient id="SVGID_12_" gradientUnits="userSpaceOnUse" x1="-8941.5908" y1="85.9898" x2="-8935.2891" y2="50.2499" gradientTransform="matrix(-1 0 0 1 -8809.627 5.8188)">
					<stop  offset="0.1152" style="stop-color:#003D56"/>
					<stop  offset="0.1939" style="stop-color:#005A77"/>
					<stop  offset="0.2611" style="stop-color:#006A8C"/>
					<stop  offset="0.3212" style="stop-color:#00779E"/>
					<stop  offset="0.3255" style="stop-color:#00759B"/>
					<stop  offset="0.3593" style="stop-color:#006D8F"/>
					<stop  offset="0.396" style="stop-color:#006382"/>
					<stop  offset="0.4352" style="stop-color:#005976"/>
					<stop  offset="0.4776" style="stop-color:#00506B"/>
					<stop  offset="0.5245" style="stop-color:#004962"/>
					<stop  offset="0.5782" style="stop-color:#00435C"/>
					<stop  offset="0.6449" style="stop-color:#004057"/>
					<stop  offset="0.7636" style="stop-color:#003F56"/>
					<stop  offset="0.7932" style="stop-color:#00465E"/>
					<stop  offset="0.8489" style="stop-color:#005872"/>
					<stop  offset="0.9244" style="stop-color:#007590"/>
					<stop  offset="1" style="stop-color:#0092AD"/>
				</linearGradient>
				<polygon class="st8" points="115.9,54.5 143.3,83.6 143.3,101.5 143,101.4 115.9,73.3 				"/>
				<linearGradient id="SVGID_13_" gradientUnits="userSpaceOnUse" x1="130.1889" y1="78.8504" x2="134.9307" y2="84.5014">
					<stop  offset="3.030300e-02" style="stop-color:#000000"/>
					<stop  offset="0.7697" style="stop-color:#000000;stop-opacity:0"/>
				</linearGradient>
				<polygon class="st9" points="122.6,80.2 129.9,87.8 139.5,79.6 139.5,79.5 133.9,73.6 				"/>
			</g>
			
				<linearGradient id="SVGID_14_" gradientUnits="userSpaceOnUse" x1="96.7489" y1="58.3436" x2="124.651" y2="74.4529" gradientTransform="matrix(1 0 0 1 14.1221 5.8188)">
				<stop  offset="0" style="stop-color:#39BDBB"/>
				<stop  offset="8.927166e-03" style="stop-color:#37BCBC"/>
				<stop  offset="0.289" style="stop-color:#00ACC9"/>
				<stop  offset="0.555" style="stop-color:#00A3D2"/>
				<stop  offset="0.7989" style="stop-color:#009DD8"/>
				<stop  offset="1" style="stop-color:#009CDC"/>
			</linearGradient>
			<polygon class="st10" points="106.3,72 106.3,89.9 143.3,72.4 143.3,54.5 			"/>
			
				<linearGradient id="SVGID_15_" gradientUnits="userSpaceOnUse" x1="96.7476" y1="87.4044" x2="124.6496" y2="103.5137" gradientTransform="matrix(1 0 0 1 14.1221 5.8188)">
				<stop  offset="0" style="stop-color:#39BDBB"/>
				<stop  offset="8.927166e-03" style="stop-color:#37BCBC"/>
				<stop  offset="0.289" style="stop-color:#00ACC9"/>
				<stop  offset="0.555" style="stop-color:#00A3D2"/>
				<stop  offset="0.7989" style="stop-color:#009DD8"/>
				<stop  offset="1" style="stop-color:#009CDC"/>
			</linearGradient>
			<polygon class="st11" points="106.3,101.1 106.3,118.9 143.3,101.5 143.3,83.6 			"/>
			
				<linearGradient id="SVGID_16_" gradientUnits="userSpaceOnUse" x1="56.2504" y1="91.2042" x2="92.1895" y2="99.964" gradientTransform="matrix(1 0 0 1 14.1221 5.8188)">
				<stop  offset="0" style="stop-color:#00A0C8"/>
				<stop  offset="7.606477e-02" style="stop-color:#00A5CB"/>
				<stop  offset="0.2326" style="stop-color:#00AFD1"/>
				<stop  offset="0.3974" style="stop-color:#13B8D7"/>
				<stop  offset="0.5719" style="stop-color:#41C0DB"/>
				<stop  offset="0.7625" style="stop-color:#50C5DE"/>
				<stop  offset="1" style="stop-color:#55C7DF"/>
			</linearGradient>
			<polygon class="st12" points="106.3,101.1 106.3,118.9 69.3,101.5 69.3,83.6 			"/>
			<g>
				
					<linearGradient id="SVGID_17_" gradientUnits="userSpaceOnUse" x1="57.2157" y1="52.3519" x2="81.3008" y2="58.2224" gradientTransform="matrix(1 0 0 1 14.1221 5.8188)">
					<stop  offset="0" style="stop-color:#FFFFFF;stop-opacity:0.35"/>
					<stop  offset="1" style="stop-color:#FFFFFF;stop-opacity:0.35"/>
				</linearGradient>
				<polygon class="st13" points="69.3,54.5 69.3,55.2 93.1,66.1 96.7,67.5 				"/>
				
					<linearGradient id="SVGID_18_" gradientUnits="userSpaceOnUse" x1="106.2221" y1="52.9448" x2="125.4446" y2="57.6301" gradientTransform="matrix(1 0 0 1 14.1221 5.8188)">
					<stop  offset="0" style="stop-color:#FFFFFF;stop-opacity:0.35"/>
					<stop  offset="1" style="stop-color:#FFFFFF;stop-opacity:0.5"/>
				</linearGradient>
				<polygon class="st14" points="143.3,54.5 143.3,54.5 118.7,66.2 115.9,67.5 122.8,64.8 143.3,55.1 				"/>
			</g>
			<g>
				
					<linearGradient id="SVGID_19_" gradientUnits="userSpaceOnUse" x1="56.0878" y1="79.3708" x2="66.6105" y2="81.9355" gradientTransform="matrix(1 0 0 1 14.1221 5.8188)">
					<stop  offset="0" style="stop-color:#FFFFFF;stop-opacity:0.35"/>
					<stop  offset="1" style="stop-color:#FFFFFF;stop-opacity:0.35"/>
				</linearGradient>
				<polygon class="st15" points="69.3,83.6 69.3,84.2 74.1,86.4 81.3,89.3 				"/>
				
					<linearGradient id="SVGID_20_" gradientUnits="userSpaceOnUse" x1="119.1659" y1="79.6331" x2="127.6297" y2="81.696" gradientTransform="matrix(1 0 0 1 14.1221 5.8188)">
					<stop  offset="0" style="stop-color:#FFFFFF;stop-opacity:0.35"/>
					<stop  offset="1" style="stop-color:#FFFFFF;stop-opacity:0.5"/>
				</linearGradient>
				<polygon class="st16" points="143.3,83.6 143.3,83.6 131.3,89.3 137.1,87.2 143.3,84.2 				"/>
			</g>
		</g>
	</g>
	<g>
		<path class="st17" d="M53.3,163.9l-1.2-3.9h0.7l0.6,2.3l0.2,0.8c0,0,0.1-0.3,0.2-0.8l0.6-2.3h0.7l0.6,2.3L56,163l0.2-0.8l0.7-2.3
			h0.6l-1.2,3.9h-0.7l-0.6-2.4l-0.2-0.7l-0.8,3H53.3z"/>
		<path class="st17" d="M61.4,162.7l0.7,0.1c-0.1,0.4-0.3,0.7-0.6,0.9c-0.3,0.2-0.7,0.3-1.1,0.3c-0.6,0-1-0.2-1.4-0.5
			c-0.3-0.4-0.5-0.9-0.5-1.5c0-0.7,0.2-1.2,0.5-1.5c0.3-0.4,0.8-0.5,1.3-0.5c0.5,0,1,0.2,1.3,0.5c0.3,0.4,0.5,0.9,0.5,1.5
			c0,0,0,0.1,0,0.2h-2.9c0,0.4,0.1,0.8,0.4,1c0.2,0.2,0.5,0.3,0.8,0.3c0.2,0,0.5-0.1,0.6-0.2C61.2,163.2,61.3,163,61.4,162.7z
			 M59.2,161.6h2.2c0-0.3-0.1-0.6-0.3-0.7c-0.2-0.3-0.5-0.4-0.8-0.4c-0.3,0-0.6,0.1-0.8,0.3S59.3,161.2,59.2,161.6z"/>
		<path class="st17" d="M64.3,163.9h-0.6v-5.4h0.7v1.9c0.3-0.4,0.6-0.5,1.1-0.5c0.2,0,0.5,0,0.7,0.1c0.2,0.1,0.4,0.2,0.5,0.4
			c0.1,0.2,0.2,0.4,0.3,0.6c0.1,0.3,0.1,0.5,0.1,0.8c0,0.7-0.2,1.2-0.5,1.6c-0.3,0.4-0.7,0.6-1.2,0.6c-0.5,0-0.8-0.2-1.1-0.6V163.9z
			 M64.3,161.9c0,0.5,0.1,0.8,0.2,1c0.2,0.3,0.5,0.5,0.9,0.5c0.3,0,0.5-0.1,0.8-0.4c0.2-0.3,0.3-0.6,0.3-1.1c0-0.5-0.1-0.9-0.3-1.1
			c-0.2-0.2-0.5-0.4-0.7-0.4c-0.3,0-0.5,0.1-0.8,0.4C64.4,161.1,64.3,161.5,64.3,161.9z"/>
		<path class="st17" d="M74.6,163.3c-0.2,0.2-0.5,0.4-0.7,0.6c-0.3,0.1-0.5,0.2-0.8,0.2c-0.6,0-1-0.2-1.3-0.6
			c-0.3-0.3-0.4-0.6-0.4-1c0-0.3,0.1-0.6,0.3-0.9c0.2-0.3,0.5-0.5,1-0.7c-0.2-0.3-0.4-0.5-0.5-0.7c-0.1-0.2-0.1-0.3-0.1-0.5
			c0-0.3,0.1-0.6,0.4-0.9c0.3-0.2,0.6-0.4,1-0.4c0.4,0,0.7,0.1,0.9,0.3c0.2,0.2,0.4,0.5,0.4,0.8c0,0.5-0.3,1-1,1.3l1,1.2
			c0.1-0.2,0.2-0.5,0.3-0.8l0.7,0.1c-0.1,0.5-0.3,0.9-0.5,1.2c0.3,0.3,0.5,0.6,0.9,0.8l-0.4,0.5C75.2,163.9,74.9,163.6,74.6,163.3z
			 M74.2,162.8l-1.2-1.5c-0.4,0.2-0.6,0.4-0.7,0.6c-0.1,0.2-0.2,0.4-0.2,0.5c0,0.2,0.1,0.4,0.3,0.7c0.2,0.2,0.4,0.4,0.7,0.4
			c0.2,0,0.4-0.1,0.6-0.2C73.9,163.1,74.1,163,74.2,162.8z M73.3,160.5c0.3-0.2,0.5-0.3,0.6-0.4c0.1-0.1,0.1-0.3,0.1-0.4
			c0-0.2-0.1-0.3-0.2-0.5c-0.1-0.1-0.3-0.2-0.4-0.2c-0.2,0-0.3,0.1-0.5,0.2c-0.1,0.1-0.2,0.3-0.2,0.4c0,0.1,0,0.2,0.1,0.3
			c0,0.1,0.1,0.2,0.2,0.3L73.3,160.5z"/>
		<path class="st17" d="M80.2,163.9V160h0.6v0.6c0.1-0.2,0.3-0.3,0.5-0.5c0.2-0.1,0.4-0.2,0.7-0.2c0.3,0,0.5,0.1,0.7,0.2
			c0.2,0.1,0.3,0.3,0.4,0.5c0.3-0.5,0.7-0.7,1.2-0.7c0.4,0,0.7,0.1,0.9,0.3c0.2,0.2,0.3,0.6,0.3,1v2.7h-0.7v-2.5
			c0-0.3,0-0.5-0.1-0.6c0-0.1-0.1-0.2-0.2-0.3c-0.1-0.1-0.2-0.1-0.4-0.1c-0.3,0-0.5,0.1-0.7,0.3c-0.2,0.2-0.3,0.5-0.3,0.9v2.3h-0.7
			v-2.6c0-0.3-0.1-0.5-0.2-0.7c-0.1-0.1-0.3-0.2-0.5-0.2c-0.2,0-0.4,0-0.5,0.1c-0.2,0.1-0.3,0.2-0.3,0.4c-0.1,0.2-0.1,0.5-0.1,0.8v2
			H80.2z"/>
		<path class="st17" d="M90,162.7l0.7,0.1c-0.1,0.4-0.3,0.7-0.6,0.9c-0.3,0.2-0.7,0.3-1.1,0.3c-0.6,0-1-0.2-1.4-0.5
			c-0.3-0.4-0.5-0.9-0.5-1.5c0-0.7,0.2-1.2,0.5-1.5c0.3-0.4,0.8-0.5,1.3-0.5c0.5,0,1,0.2,1.3,0.5c0.3,0.4,0.5,0.9,0.5,1.5
			c0,0,0,0.1,0,0.2h-2.9c0,0.4,0.1,0.8,0.4,1c0.2,0.2,0.5,0.3,0.8,0.3c0.2,0,0.5-0.1,0.6-0.2C89.7,163.2,89.9,163,90,162.7z
			 M87.8,161.6H90c0-0.3-0.1-0.6-0.3-0.7c-0.2-0.3-0.5-0.4-0.8-0.4c-0.3,0-0.6,0.1-0.8,0.3C87.9,161,87.8,161.2,87.8,161.6z"/>
		<path class="st17" d="M94.8,163.9v-0.5c-0.3,0.4-0.6,0.6-1.1,0.6c-0.3,0-0.6-0.1-0.9-0.3c-0.3-0.2-0.5-0.4-0.6-0.7
			c-0.1-0.3-0.2-0.7-0.2-1.1c0-0.4,0.1-0.8,0.2-1.1c0.1-0.3,0.3-0.6,0.6-0.7c0.3-0.2,0.6-0.3,0.9-0.3c0.2,0,0.4,0,0.6,0.1
			c0.2,0.1,0.3,0.2,0.5,0.4v-2h0.7v5.4H94.8z M92.7,162c0,0.5,0.1,0.9,0.3,1.1c0.2,0.2,0.5,0.4,0.8,0.4c0.3,0,0.5-0.1,0.7-0.4
			c0.2-0.2,0.3-0.6,0.3-1.1c0-0.5-0.1-0.9-0.3-1.2c-0.2-0.3-0.5-0.4-0.8-0.4c-0.3,0-0.5,0.1-0.7,0.4C92.8,161.1,92.7,161.4,92.7,162
			z"/>
		<path class="st17" d="M97.1,159.3v-0.8h0.7v0.8H97.1z M97.1,163.9V160h0.7v3.9H97.1z"/>
		<path class="st17" d="M102.1,163.5c-0.2,0.2-0.5,0.4-0.7,0.4c-0.2,0.1-0.5,0.1-0.7,0.1c-0.4,0-0.8-0.1-1-0.3
			c-0.2-0.2-0.3-0.5-0.3-0.8c0-0.2,0-0.4,0.1-0.5c0.1-0.2,0.2-0.3,0.3-0.4c0.1-0.1,0.3-0.2,0.5-0.2c0.1,0,0.3-0.1,0.6-0.1
			c0.5-0.1,0.9-0.1,1.2-0.2c0-0.1,0-0.2,0-0.2c0-0.3-0.1-0.5-0.2-0.6c-0.2-0.2-0.4-0.2-0.8-0.2c-0.3,0-0.5,0.1-0.7,0.2
			c-0.1,0.1-0.3,0.3-0.3,0.6l-0.7-0.1c0.1-0.3,0.2-0.5,0.3-0.7c0.1-0.2,0.3-0.3,0.6-0.4c0.3-0.1,0.6-0.1,0.9-0.1
			c0.3,0,0.6,0,0.8,0.1c0.2,0.1,0.4,0.2,0.5,0.3c0.1,0.1,0.2,0.3,0.2,0.5c0,0.1,0,0.3,0,0.6v0.9c0,0.6,0,1,0,1.2
			c0,0.2,0.1,0.3,0.2,0.5h-0.7C102.1,163.8,102.1,163.6,102.1,163.5z M102,162c-0.2,0.1-0.6,0.2-1.1,0.3c-0.3,0-0.5,0.1-0.6,0.1
			c-0.1,0-0.2,0.1-0.3,0.2c-0.1,0.1-0.1,0.2-0.1,0.3c0,0.2,0.1,0.3,0.2,0.4c0.1,0.1,0.3,0.2,0.6,0.2c0.3,0,0.5-0.1,0.7-0.2
			c0.2-0.1,0.3-0.3,0.4-0.5c0.1-0.2,0.1-0.4,0.1-0.7V162z"/>
		<path class="st17" d="M109.9,163.9v-0.5c-0.3,0.4-0.6,0.6-1.1,0.6c-0.3,0-0.6-0.1-0.9-0.3c-0.3-0.2-0.5-0.4-0.6-0.7
			c-0.1-0.3-0.2-0.7-0.2-1.1c0-0.4,0.1-0.8,0.2-1.1s0.3-0.6,0.6-0.7c0.3-0.2,0.6-0.3,0.9-0.3c0.2,0,0.4,0,0.6,0.1
			c0.2,0.1,0.3,0.2,0.5,0.4v-2h0.7v5.4H109.9z M107.8,162c0,0.5,0.1,0.9,0.3,1.1c0.2,0.2,0.5,0.4,0.8,0.4c0.3,0,0.5-0.1,0.7-0.4
			c0.2-0.2,0.3-0.6,0.3-1.1c0-0.5-0.1-0.9-0.3-1.2c-0.2-0.3-0.5-0.4-0.8-0.4c-0.3,0-0.5,0.1-0.7,0.4
			C107.9,161.1,107.8,161.4,107.8,162z"/>
		<path class="st17" d="M115,162.7l0.7,0.1c-0.1,0.4-0.3,0.7-0.6,0.9c-0.3,0.2-0.7,0.3-1.1,0.3c-0.6,0-1-0.2-1.4-0.5
			c-0.3-0.4-0.5-0.9-0.5-1.5c0-0.7,0.2-1.2,0.5-1.5c0.3-0.4,0.8-0.5,1.3-0.5c0.5,0,1,0.2,1.3,0.5c0.3,0.4,0.5,0.9,0.5,1.5
			c0,0,0,0.1,0,0.2h-2.9c0,0.4,0.1,0.8,0.4,1c0.2,0.2,0.5,0.3,0.8,0.3c0.2,0,0.5-0.1,0.6-0.2C114.7,163.2,114.9,163,115,162.7z
			 M112.8,161.6h2.2c0-0.3-0.1-0.6-0.3-0.7c-0.2-0.3-0.5-0.4-0.8-0.4c-0.3,0-0.6,0.1-0.8,0.3C112.9,161,112.8,161.2,112.8,161.6z"/>
		<path class="st17" d="M117,162.8l0.7-0.1c0,0.3,0.1,0.5,0.3,0.6c0.2,0.1,0.4,0.2,0.7,0.2c0.3,0,0.5-0.1,0.7-0.2
			c0.1-0.1,0.2-0.3,0.2-0.4c0-0.2-0.1-0.3-0.2-0.4c-0.1-0.1-0.3-0.1-0.7-0.2c-0.5-0.1-0.8-0.2-1-0.3c-0.2-0.1-0.3-0.2-0.4-0.4
			c-0.1-0.2-0.1-0.3-0.1-0.5c0-0.2,0-0.3,0.1-0.5c0.1-0.1,0.2-0.3,0.3-0.4c0.1-0.1,0.2-0.1,0.4-0.2c0.2-0.1,0.4-0.1,0.6-0.1
			c0.3,0,0.6,0,0.8,0.1c0.2,0.1,0.4,0.2,0.5,0.4c0.1,0.2,0.2,0.4,0.2,0.6l-0.7,0.1c0-0.2-0.1-0.4-0.3-0.5c-0.1-0.1-0.3-0.2-0.6-0.2
			c-0.3,0-0.5,0.1-0.7,0.2c-0.1,0.1-0.2,0.2-0.2,0.4c0,0.1,0,0.2,0.1,0.2c0.1,0.1,0.1,0.1,0.3,0.2c0.1,0,0.3,0.1,0.6,0.2
			c0.5,0.1,0.8,0.2,1,0.3c0.2,0.1,0.3,0.2,0.4,0.4c0.1,0.2,0.2,0.3,0.2,0.6c0,0.2-0.1,0.4-0.2,0.6c-0.1,0.2-0.3,0.3-0.6,0.5
			c-0.2,0.1-0.5,0.2-0.8,0.2c-0.5,0-0.9-0.1-1.2-0.3C117.2,163.5,117,163.2,117,162.8z"/>
		<path class="st17" d="M121.7,159.3v-0.8h0.7v0.8H121.7z M121.7,163.9V160h0.7v3.9H121.7z"/>
		<path class="st17" d="M124,164.3l0.7,0.1c0,0.2,0.1,0.3,0.2,0.4c0.2,0.1,0.4,0.2,0.7,0.2c0.3,0,0.5-0.1,0.7-0.2
			c0.2-0.1,0.3-0.3,0.3-0.5c0-0.1,0.1-0.4,0-0.9c-0.3,0.3-0.7,0.5-1.1,0.5c-0.5,0-1-0.2-1.3-0.6c-0.3-0.4-0.4-0.9-0.4-1.4
			c0-0.4,0.1-0.7,0.2-1c0.1-0.3,0.3-0.6,0.6-0.7c0.3-0.2,0.6-0.3,0.9-0.3c0.5,0,0.8,0.2,1.2,0.6V160h0.6v3.4c0,0.6-0.1,1-0.2,1.3
			c-0.1,0.3-0.3,0.5-0.6,0.6c-0.3,0.1-0.6,0.2-1,0.2c-0.5,0-0.9-0.1-1.1-0.3C124.1,165,124,164.7,124,164.3z M124.5,161.9
			c0,0.5,0.1,0.9,0.3,1.1c0.2,0.2,0.5,0.4,0.8,0.4c0.3,0,0.6-0.1,0.8-0.4c0.2-0.2,0.3-0.6,0.3-1.1c0-0.5-0.1-0.8-0.3-1.1
			c-0.2-0.2-0.5-0.4-0.8-0.4c-0.3,0-0.5,0.1-0.8,0.4C124.7,161.1,124.5,161.4,124.5,161.9z"/>
		<path class="st17" d="M129,163.9V160h0.6v0.6c0.3-0.4,0.7-0.6,1.3-0.6c0.2,0,0.5,0,0.7,0.1c0.2,0.1,0.3,0.2,0.4,0.3
			c0.1,0.1,0.2,0.3,0.2,0.5c0,0.1,0,0.3,0,0.6v2.4h-0.7v-2.4c0-0.3,0-0.5-0.1-0.6c-0.1-0.1-0.1-0.2-0.3-0.3
			c-0.1-0.1-0.3-0.1-0.5-0.1c-0.3,0-0.5,0.1-0.7,0.3c-0.2,0.2-0.3,0.5-0.3,1v2.2H129z"/>
		<path class="st17" d="M136.6,162.8l0.7-0.1c0,0.3,0.1,0.5,0.3,0.6c0.2,0.1,0.4,0.2,0.7,0.2c0.3,0,0.5-0.1,0.7-0.2
			c0.1-0.1,0.2-0.3,0.2-0.4c0-0.2-0.1-0.3-0.2-0.4c-0.1-0.1-0.3-0.1-0.7-0.2c-0.5-0.1-0.8-0.2-1-0.3c-0.2-0.1-0.3-0.2-0.4-0.4
			c-0.1-0.2-0.1-0.3-0.1-0.5c0-0.2,0-0.3,0.1-0.5c0.1-0.1,0.2-0.3,0.3-0.4c0.1-0.1,0.2-0.1,0.4-0.2c0.2-0.1,0.4-0.1,0.6-0.1
			c0.3,0,0.6,0,0.8,0.1c0.2,0.1,0.4,0.2,0.5,0.4c0.1,0.2,0.2,0.4,0.2,0.6l-0.7,0.1c0-0.2-0.1-0.4-0.3-0.5c-0.1-0.1-0.3-0.2-0.6-0.2
			c-0.3,0-0.5,0.1-0.7,0.2c-0.1,0.1-0.2,0.2-0.2,0.4c0,0.1,0,0.2,0.1,0.2c0.1,0.1,0.1,0.1,0.3,0.2c0.1,0,0.3,0.1,0.6,0.2
			c0.5,0.1,0.8,0.2,1,0.3c0.2,0.1,0.3,0.2,0.4,0.4c0.1,0.2,0.2,0.3,0.2,0.6c0,0.2-0.1,0.4-0.2,0.6c-0.1,0.2-0.3,0.3-0.6,0.5
			c-0.2,0.1-0.5,0.2-0.8,0.2c-0.5,0-0.9-0.1-1.2-0.3C136.9,163.5,136.7,163.2,136.6,162.8z"/>
		<path class="st17" d="M142.8,163.3l0.1,0.6c-0.2,0-0.4,0.1-0.5,0.1c-0.2,0-0.4,0-0.6-0.1c-0.1-0.1-0.2-0.2-0.3-0.3
			c-0.1-0.1-0.1-0.4-0.1-0.8v-2.3H141V160h0.5v-1l0.7-0.4v1.4h0.7v0.5h-0.7v2.3c0,0.2,0,0.3,0,0.4c0,0.1,0.1,0.1,0.1,0.1
			c0.1,0,0.1,0,0.2,0C142.6,163.4,142.7,163.4,142.8,163.3z"/>
		<path class="st17" d="M146.7,163.9v-0.6c-0.3,0.4-0.7,0.7-1.3,0.7c-0.2,0-0.4,0-0.7-0.1c-0.2-0.1-0.4-0.2-0.4-0.3
			c-0.1-0.1-0.2-0.3-0.2-0.5c0-0.1,0-0.3,0-0.6V160h0.7v2.2c0,0.3,0,0.6,0,0.7c0,0.2,0.1,0.3,0.3,0.4c0.1,0.1,0.3,0.2,0.5,0.2
			c0.2,0,0.4-0.1,0.6-0.2c0.2-0.1,0.3-0.2,0.4-0.4c0.1-0.2,0.1-0.4,0.1-0.8V160h0.7v3.9H146.7z"/>
		<path class="st17" d="M151.6,163.9v-0.5c-0.3,0.4-0.6,0.6-1.1,0.6c-0.3,0-0.6-0.1-0.9-0.3c-0.3-0.2-0.5-0.4-0.6-0.7
			c-0.1-0.3-0.2-0.7-0.2-1.1c0-0.4,0.1-0.8,0.2-1.1c0.1-0.3,0.3-0.6,0.6-0.7c0.3-0.2,0.6-0.3,0.9-0.3c0.2,0,0.4,0,0.6,0.1
			c0.2,0.1,0.3,0.2,0.5,0.4v-2h0.7v5.4H151.6z M149.5,162c0,0.5,0.1,0.9,0.3,1.1c0.2,0.2,0.5,0.4,0.8,0.4c0.3,0,0.5-0.1,0.7-0.4
			c0.2-0.2,0.3-0.6,0.3-1.1c0-0.5-0.1-0.9-0.3-1.2c-0.2-0.3-0.5-0.4-0.8-0.4c-0.3,0-0.5,0.1-0.7,0.4
			C149.6,161.1,149.5,161.4,149.5,162z"/>
		<path class="st17" d="M154,159.3v-0.8h0.7v0.8H154z M154,163.9V160h0.7v3.9H154z"/>
		<path class="st17" d="M156.1,162c0-0.7,0.2-1.3,0.6-1.6c0.3-0.3,0.8-0.4,1.2-0.4c0.5,0,1,0.2,1.3,0.5c0.3,0.4,0.5,0.8,0.5,1.5
			c0,0.5-0.1,0.9-0.2,1.2c-0.2,0.3-0.4,0.5-0.7,0.7c-0.3,0.2-0.6,0.2-1,0.2c-0.6,0-1-0.2-1.3-0.5C156.3,163.1,156.1,162.6,156.1,162
			z M156.8,162c0,0.5,0.1,0.9,0.3,1.1c0.2,0.3,0.5,0.4,0.8,0.4c0.3,0,0.6-0.1,0.8-0.4c0.2-0.3,0.3-0.6,0.3-1.2
			c0-0.5-0.1-0.9-0.3-1.1c-0.2-0.3-0.5-0.4-0.8-0.4c-0.3,0-0.6,0.1-0.8,0.4C156.9,161.1,156.8,161.5,156.8,162z"/>
	</g>
</g>
</svg>
