<?xml version="1.0" encoding="utf-8"?>
<!-- Generator: Adobe Illustrator 24.0.3, SVG Export Plug-In . SVG Version: 6.00 Build 0)  -->
<svg version="1.1" id="Layer_1" xmlns="http://www.w3.org/2000/svg" xmlns:xlink="http://www.w3.org/1999/xlink" x="0px" y="0px"
	 viewBox="0 0 214 214" style="enable-background:new 0 0 214 214;" xml:space="preserve">
<style type="text/css">
	.st0{clip-path:url(#SVGID_2_);}
	.st1{clip-path:url(#SVGID_4_);}
	.st2{fill:url(#SVGID_5_);}
	.st3{fill:url(#SVGID_6_);}
	.st4{fill:url(#SVGID_7_);}
	.st5{opacity:0.45;fill:url(#SVGID_8_);enable-background:new    ;}
	.st6{fill:url(#SVGID_9_);}
	.st7{fill:url(#SVGID_10_);}
	.st8{fill:url(#SVGID_11_);}
	.st9{fill:url(#SVGID_12_);}
	.st10{opacity:0.45;fill:url(#SVGID_13_);enable-background:new    ;}
	.st11{fill:url(#SVGID_14_);}
	.st12{fill:url(#SVGID_15_);}
	.st13{fill:url(#SVGID_16_);}
	.st14{fill:url(#SVGID_17_);}
	.st15{opacity:0.5;fill:url(#SVGID_18_);enable-background:new    ;}
	.st16{fill:url(#SVGID_19_);}
	.st17{opacity:0.5;fill:url(#SVGID_20_);enable-background:new    ;}
	.st18{fill:#808285;}
</style>
<g>
	<g>
		<defs>
			<rect id="SVGID_1_" x="-1715.3" y="-3585.8" width="3717" height="7729"/>
		</defs>
		<clipPath id="SVGID_2_">
			<use xlink:href="#SVGID_1_"  style="overflow:visible;"/>
		</clipPath>
		<g class="st0">
			<g>
				<defs>
					<rect id="SVGID_3_" x="56.7" y="2225.2" width="136" height="154"/>
				</defs>
				<clipPath id="SVGID_4_">
					<use xlink:href="#SVGID_3_"  style="overflow:visible;"/>
				</clipPath>
				<g class="st1">
				</g>
			</g>
		</g>
	</g>
</g>
<g>
	<g>
		<g>
			<path d="M55.8,134.4v-1h4.4v1h-1.4v12.8h1.4v1h-4.4v-1h1.4v-12.8H55.8z"/>
			<path d="M72.8,134.4v-1h3.9v1h-1.2v13.9h-1.7l-7.5-12.5v11.4h1.2v1h-3.9v-1h1.2v-12.8h-1.2v-1h2.9l7.5,12.5v-11.4L72.8,134.4
				L72.8,134.4z"/>
			<path d="M90,136.6h-1.1v-2h-3.4v12.6h1.7v1h-4.7v-1H84v-12.6h-3.4v2h-1.1v-3.3h10.6L90,136.6L90,136.6z"/>
			<path d="M92.9,148.2v-1h1.2v-12.8h-1.2v-1h9.6v3.3h-1.1v-2h-5.8v5.5h5.9v1.2h-5.9v5.8h6.1v-2h1.1v3.3L92.9,148.2L92.9,148.2z"/>
			<path d="M110.5,142h-1.7v5.2h1.2v1h-3.9v-1h1.2v-12.8h-1.2v-1h5.5c2.1,0,3.5,0.7,4.1,1.9c0.2,0.4,0.3,0.8,0.4,1.2
				c0.1,0.4,0.1,0.8,0.1,1.3c0,0.6,0,0.9-0.1,1.3c-0.1,0.4-0.2,0.7-0.4,1.2c-0.4,0.8-1,1.3-2.1,1.6c0.4,0.3,0.7,0.7,1,1.3l1.8,4.1
				h1.3v1h-2.4l-2-4.8c-0.3-0.6-0.6-0.9-0.9-1.1C111.7,142.1,111.2,142,110.5,142z M108.9,140.9h2.8c1.3,0,2.1-0.3,2.5-0.9
				c0.2-0.3,0.3-0.7,0.4-0.9c0.1-0.4,0.1-0.7,0.1-1.2s0-0.9-0.1-1.2c-0.1-0.4-0.2-0.7-0.4-0.9c-0.4-0.7-1.2-0.9-2.5-0.9h-2.8V140.9z
				"/>
			<path d="M132.5,147.2v1h-3.6v-1h1.2l-1.2-3.8h-5.8l-1.2,3.8h1.2v1h-3.6v-1h0.9l4.7-13.9h2l4.7,13.9H132.5z M125.9,134.6l-2.5,7.6
				h5L125.9,134.6z"/>
			<path d="M143.7,133.3h1.1v4.4h-1.1c-0.1-1.1-0.4-2-0.9-2.6c-0.6-0.6-1.5-0.9-2.8-0.9c-1.3,0-2.3,0.4-3,1.1
				c-0.6,0.7-0.8,1.7-0.9,3.2c-0.1,0.6-0.1,1.3-0.1,2.2c0,0.9,0,1.7,0.1,2.2c0,0.6,0.1,1.1,0.3,1.8c0.2,0.7,0.4,1.1,0.7,1.4
				c0.7,0.7,1.7,1.1,3,1.1c1.3,0,2.2-0.3,2.8-0.9c0.5-0.6,0.7-1.4,0.8-2.5l1.2,0.1c-0.1,0.7-0.2,1.4-0.3,1.9c-0.2,0.5-0.4,1-0.7,1.4
				c-0.7,0.8-1.9,1.3-3.6,1.3c-1.7,0-3-0.3-3.7-0.9c-0.4-0.4-0.7-0.7-1-1.1s-0.5-0.9-0.6-1.6c-0.2-1-0.4-2.3-0.4-3.8
				s0.1-2.7,0.2-3.5c0.1-0.8,0.4-1.7,0.7-2.3c0.4-0.7,0.9-1.2,1.7-1.6s1.7-0.5,2.8-0.5c1.8,0,3,0.6,3.7,1.8L143.7,133.3L143.7,133.3
				z"/>
			<path d="M158.1,136.6H157v-2h-3.4v12.6h1.7v1h-4.7v-1h1.7v-12.6h-3.4v2h-1.1v-3.3h10.5V136.6z"/>
		</g>
		<g>
			<g>
				
					<linearGradient id="SVGID_5_" gradientUnits="userSpaceOnUse" x1="-8964.3047" y1="151.6699" x2="-8964.3047" y2="170.9832" gradientTransform="matrix(1 0 0 -1 9042.7998 221.8188)">
					<stop  offset="0.2667" style="stop-color:#063A52"/>
					<stop  offset="0.3473" style="stop-color:#003E57"/>
					<stop  offset="0.4756" style="stop-color:#004B66"/>
					<stop  offset="0.6357" style="stop-color:#006180"/>
					<stop  offset="0.8195" style="stop-color:#0083AA"/>
					<stop  offset="0.9212" style="stop-color:#009BCB"/>
				</linearGradient>
				<polygon class="st2" points="71.9,58.1 85.1,50.7 85.1,65.1 72,71.4 				"/>
				
					<linearGradient id="SVGID_6_" gradientUnits="userSpaceOnUse" x1="-8954.0449" y1="154.3362" x2="-8949.0742" y2="167.9914" gradientTransform="matrix(1 0 0 -1 9042.7988 221.8188)">
					<stop  offset="0.2667" style="stop-color:#00283B"/>
					<stop  offset="0.3844" style="stop-color:#003346"/>
					<stop  offset="0.6146" style="stop-color:#004F65"/>
					<stop  offset="0.9321" style="stop-color:#0080A2"/>
					<stop  offset="1" style="stop-color:#008EB4"/>
				</linearGradient>
				<polygon class="st3" points="85.1,50.7 97.4,58.1 97.4,70.7 85.1,64.9 				"/>
				
					<linearGradient id="SVGID_7_" gradientUnits="userSpaceOnUse" x1="-8960.3096" y1="129.0235" x2="-8954.4482" y2="162.2616" gradientTransform="matrix(1 0 0 -1 9042.7998 221.8188)">
					<stop  offset="0.1152" style="stop-color:#003D56"/>
					<stop  offset="0.1939" style="stop-color:#005A77"/>
					<stop  offset="0.2611" style="stop-color:#006A8C"/>
					<stop  offset="0.3212" style="stop-color:#00779E"/>
					<stop  offset="0.3255" style="stop-color:#00759B"/>
					<stop  offset="0.3593" style="stop-color:#006D8F"/>
					<stop  offset="0.396" style="stop-color:#006382"/>
					<stop  offset="0.4352" style="stop-color:#005976"/>
					<stop  offset="0.4776" style="stop-color:#00506B"/>
					<stop  offset="0.5245" style="stop-color:#004962"/>
					<stop  offset="0.5782" style="stop-color:#00435C"/>
					<stop  offset="0.6449" style="stop-color:#004057"/>
					<stop  offset="0.7636" style="stop-color:#003F56"/>
					<stop  offset="0.7932" style="stop-color:#00465E"/>
					<stop  offset="0.8489" style="stop-color:#005872"/>
					<stop  offset="0.9244" style="stop-color:#007590"/>
					<stop  offset="1" style="stop-color:#0092AD"/>
				</linearGradient>
				<polygon class="st4" points="97.4,58.1 71.9,85.2 71.9,101.8 72.2,101.7 97.4,75.6 				"/>
				
					<linearGradient id="SVGID_8_" gradientUnits="userSpaceOnUse" x1="-839.0174" y1="135.2411" x2="-834.6074" y2="129.9855" gradientTransform="matrix(-1 0 0 -1 -754.8271 216)">
					<stop  offset="3.030300e-02" style="stop-color:#000000"/>
					<stop  offset="0.7697" style="stop-color:#000000;stop-opacity:0"/>
				</linearGradient>
				<polygon class="st5" points="91.3,82 84.5,89.1 75.5,81.4 75.6,81.4 80.8,75.9 				"/>
			</g>
			
				<linearGradient id="SVGID_9_" gradientUnits="userSpaceOnUse" x1="58.8387" y1="147.1546" x2="86.9561" y2="147.3252" gradientTransform="matrix(1 0 0 -1 14.1221 221.8188)">
				<stop  offset="0" style="stop-color:#00A0C8"/>
				<stop  offset="7.606477e-02" style="stop-color:#00A5CB"/>
				<stop  offset="0.2326" style="stop-color:#00AFD1"/>
				<stop  offset="0.3974" style="stop-color:#13B8D7"/>
				<stop  offset="0.5719" style="stop-color:#41C0DB"/>
				<stop  offset="0.7625" style="stop-color:#50C5DE"/>
				<stop  offset="1" style="stop-color:#55C7DF"/>
			</linearGradient>
			<polygon class="st6" points="106.3,74.4 106.3,91 71.9,74.8 71.9,58.1 			"/>
			<g>
				
					<linearGradient id="SVGID_10_" gradientUnits="userSpaceOnUse" x1="-9931.8291" y1="151.6699" x2="-9931.8291" y2="170.9832" gradientTransform="matrix(-1 0 0 -1 -9797.627 221.8188)">
					<stop  offset="0.2667" style="stop-color:#063A52"/>
					<stop  offset="0.3473" style="stop-color:#003E57"/>
					<stop  offset="0.4756" style="stop-color:#004B66"/>
					<stop  offset="0.6357" style="stop-color:#006180"/>
					<stop  offset="0.8195" style="stop-color:#0083AA"/>
					<stop  offset="0.9212" style="stop-color:#009BCB"/>
				</linearGradient>
				<polygon class="st7" points="140.8,58.1 127.6,50.7 127.6,65.1 140.7,71.4 				"/>
				
					<linearGradient id="SVGID_11_" gradientUnits="userSpaceOnUse" x1="-9921.5781" y1="154.3157" x2="-9916.6084" y2="167.9708" gradientTransform="matrix(-1 0 0 -1 -9797.627 221.8188)">
					<stop  offset="0.2667" style="stop-color:#00283B"/>
					<stop  offset="0.3844" style="stop-color:#003346"/>
					<stop  offset="0.6146" style="stop-color:#004F65"/>
					<stop  offset="0.9321" style="stop-color:#0080A2"/>
					<stop  offset="1" style="stop-color:#008EB4"/>
				</linearGradient>
				<polygon class="st8" points="127.6,50.7 115.3,58.1 115.3,70.7 127.6,64.9 				"/>
				
					<linearGradient id="SVGID_12_" gradientUnits="userSpaceOnUse" x1="-9927.8359" y1="129.0155" x2="-9921.9756" y2="162.2536" gradientTransform="matrix(-1 0 0 -1 -9797.627 221.8188)">
					<stop  offset="0.1152" style="stop-color:#003D56"/>
					<stop  offset="0.1939" style="stop-color:#005A77"/>
					<stop  offset="0.2611" style="stop-color:#006A8C"/>
					<stop  offset="0.3212" style="stop-color:#00779E"/>
					<stop  offset="0.3255" style="stop-color:#00759B"/>
					<stop  offset="0.3593" style="stop-color:#006D8F"/>
					<stop  offset="0.396" style="stop-color:#006382"/>
					<stop  offset="0.4352" style="stop-color:#005976"/>
					<stop  offset="0.4776" style="stop-color:#00506B"/>
					<stop  offset="0.5245" style="stop-color:#004962"/>
					<stop  offset="0.5782" style="stop-color:#00435C"/>
					<stop  offset="0.6449" style="stop-color:#004057"/>
					<stop  offset="0.7636" style="stop-color:#003F56"/>
					<stop  offset="0.7932" style="stop-color:#00465E"/>
					<stop  offset="0.8489" style="stop-color:#005872"/>
					<stop  offset="0.9244" style="stop-color:#007590"/>
					<stop  offset="1" style="stop-color:#0092AD"/>
				</linearGradient>
				<polygon class="st9" points="115.3,58.1 140.8,85.2 140.8,101.8 140.5,101.7 115.3,75.6 				"/>
				
					<linearGradient id="SVGID_13_" gradientUnits="userSpaceOnUse" x1="128.5779" y1="135.2594" x2="132.9877" y2="130.0039" gradientTransform="matrix(1 0 0 -1 0 216)">
					<stop  offset="3.030300e-02" style="stop-color:#000000"/>
					<stop  offset="0.7697" style="stop-color:#000000;stop-opacity:0"/>
				</linearGradient>
				<polygon class="st10" points="121.5,82 128.3,89.1 137.2,81.4 137.2,81.4 132,75.9 				"/>
			</g>
			
				<linearGradient id="SVGID_14_" gradientUnits="userSpaceOnUse" x1="96.4797" y1="154.7308" x2="122.4482" y2="139.7378" gradientTransform="matrix(1 0 0 -1 14.1221 221.8188)">
				<stop  offset="0" style="stop-color:#39BDBB"/>
				<stop  offset="8.927166e-03" style="stop-color:#37BCBC"/>
				<stop  offset="0.289" style="stop-color:#00ACC9"/>
				<stop  offset="0.555" style="stop-color:#00A3D2"/>
				<stop  offset="0.7989" style="stop-color:#009DD8"/>
				<stop  offset="1" style="stop-color:#009CDC"/>
			</linearGradient>
			<polygon class="st11" points="106.3,74.4 106.3,91 140.8,74.8 140.8,58.1 			"/>
			
				<linearGradient id="SVGID_15_" gradientUnits="userSpaceOnUse" x1="96.4678" y1="127.7212" x2="122.4363" y2="112.7282" gradientTransform="matrix(1 0 0 -1 14.1221 221.8188)">
				<stop  offset="0" style="stop-color:#39BDBB"/>
				<stop  offset="8.927166e-03" style="stop-color:#37BCBC"/>
				<stop  offset="0.289" style="stop-color:#00ACC9"/>
				<stop  offset="0.555" style="stop-color:#00A3D2"/>
				<stop  offset="0.7989" style="stop-color:#009DD8"/>
				<stop  offset="1" style="stop-color:#009CDC"/>
			</linearGradient>
			<polygon class="st12" points="106.3,101.4 106.3,118 140.8,101.8 140.8,85.2 			"/>
			
				<linearGradient id="SVGID_16_" gradientUnits="userSpaceOnUse" x1="58.8188" y1="124.1857" x2="92.2421" y2="116.039" gradientTransform="matrix(1 0 0 -1 14.1221 221.8188)">
				<stop  offset="0" style="stop-color:#00A0C8"/>
				<stop  offset="7.606477e-02" style="stop-color:#00A5CB"/>
				<stop  offset="0.2326" style="stop-color:#00AFD1"/>
				<stop  offset="0.3974" style="stop-color:#13B8D7"/>
				<stop  offset="0.5719" style="stop-color:#41C0DB"/>
				<stop  offset="0.7625" style="stop-color:#50C5DE"/>
				<stop  offset="1" style="stop-color:#55C7DF"/>
			</linearGradient>
			<polygon class="st13" points="106.3,101.4 106.3,118 71.9,101.8 71.9,85.2 			"/>
			<g>
				
					<linearGradient id="SVGID_17_" gradientUnits="userSpaceOnUse" x1="59.7149" y1="160.3117" x2="82.114" y2="154.8521" gradientTransform="matrix(1 0 0 -1 14.1221 221.8188)">
					<stop  offset="0" style="stop-color:#FFFFFF;stop-opacity:0.35"/>
					<stop  offset="1" style="stop-color:#FFFFFF;stop-opacity:0.35"/>
				</linearGradient>
				<polygon class="st14" points="71.9,58.1 71.9,58.8 94.1,68.9 97.4,70.2 				"/>
				
					<linearGradient id="SVGID_18_" gradientUnits="userSpaceOnUse" x1="105.2922" y1="159.7659" x2="123.1691" y2="155.4085" gradientTransform="matrix(1 0 0 -1 14.1221 221.8188)">
					<stop  offset="0" style="stop-color:#FFFFFF;stop-opacity:0.35"/>
					<stop  offset="1" style="stop-color:#FFFFFF;stop-opacity:0.5"/>
				</linearGradient>
				<polygon class="st15" points="140.8,58.1 140.8,58.1 117.9,69 115.3,70.2 121.7,67.7 140.8,58.7 				"/>
			</g>
			<g>
				
					<linearGradient id="SVGID_19_" gradientUnits="userSpaceOnUse" x1="58.6589" y1="135.1551" x2="68.445" y2="132.7699" gradientTransform="matrix(1 0 0 -1 14.1221 221.8188)">
					<stop  offset="0" style="stop-color:#FFFFFF;stop-opacity:0.35"/>
					<stop  offset="1" style="stop-color:#FFFFFF;stop-opacity:0.35"/>
				</linearGradient>
				<polygon class="st16" points="71.9,85.2 71.9,85.7 76.4,87.8 83.1,90.5 				"/>
				
					<linearGradient id="SVGID_20_" gradientUnits="userSpaceOnUse" x1="117.3214" y1="134.9108" x2="125.1927" y2="132.9923" gradientTransform="matrix(1 0 0 -1 14.1221 221.8188)">
					<stop  offset="0" style="stop-color:#FFFFFF;stop-opacity:0.35"/>
					<stop  offset="1" style="stop-color:#FFFFFF;stop-opacity:0.5"/>
				</linearGradient>
				<polygon class="st17" points="140.8,85.2 140.8,85.2 129.6,90.5 135,88.5 140.8,85.7 				"/>
			</g>
		</g>
	</g>
	<g>
		<path class="st18" d="M57.1,159.8l-1.1-3.6h0.7l0.6,2.1l0.2,0.7c0,0,0.1-0.3,0.2-0.7l0.6-2.1h0.7l0.6,2.1l0.3,0.7l0.2-0.7l0.7-2.1
			H61l-1.1,3.6h-0.7l-0.6-2.2l-0.2-0.7l-0.7,2.8h-0.7V159.8z"/>
		<path class="st18" d="M64.6,158.7l0.7,0.1c-0.1,0.4-0.3,0.7-0.6,0.8c-0.3,0.2-0.7,0.3-1,0.3c-0.6,0-0.9-0.2-1.3-0.5
			c-0.3-0.4-0.5-0.8-0.5-1.4c0-0.7,0.2-1.1,0.5-1.4c0.3-0.4,0.7-0.5,1.2-0.5s0.9,0.2,1.2,0.5c0.3,0.4,0.5,0.8,0.5,1.4
			c0,0,0,0.1,0,0.2h-2.7c0,0.4,0.1,0.7,0.4,0.9c0.2,0.2,0.5,0.3,0.7,0.3c0.2,0,0.5-0.1,0.6-0.2C64.4,159.2,64.5,159,64.6,158.7z
			 M62.5,157.7h2c0-0.3-0.1-0.6-0.3-0.7c-0.2-0.3-0.5-0.4-0.7-0.4s-0.6,0.1-0.7,0.3C62.6,157.2,62.6,157.3,62.5,157.7z"/>
		<path class="st18" d="M67.3,159.8h-0.6v-5h0.7v1.8c0.3-0.4,0.6-0.5,1-0.5c0.2,0,0.5,0,0.7,0.1s0.4,0.2,0.5,0.4
			c0.1,0.2,0.2,0.4,0.3,0.6c0.1,0.3,0.1,0.5,0.1,0.7c0,0.7-0.2,1.1-0.5,1.5c-0.3,0.4-0.7,0.6-1.1,0.6c-0.5,0-0.7-0.2-1-0.6V159.8z
			 M67.3,158c0,0.5,0.1,0.7,0.2,0.9c0.2,0.3,0.5,0.5,0.8,0.5c0.3,0,0.5-0.1,0.7-0.4c0.2-0.3,0.3-0.6,0.3-1c0-0.5-0.1-0.8-0.3-1
			c-0.2-0.2-0.5-0.4-0.7-0.4c-0.3,0-0.5,0.1-0.7,0.4C67.4,157.2,67.3,157.6,67.3,158z"/>
		<path class="st18" d="M76.9,159.3c-0.2,0.2-0.5,0.4-0.7,0.6c-0.3,0.1-0.5,0.2-0.7,0.2c-0.6,0-0.9-0.2-1.2-0.6
			c-0.3-0.3-0.4-0.6-0.4-0.9c0-0.3,0.1-0.6,0.3-0.8c0.2-0.3,0.5-0.5,0.9-0.7c-0.2-0.3-0.4-0.5-0.5-0.7c-0.1-0.2-0.1-0.3-0.1-0.5
			c0-0.3,0.1-0.6,0.4-0.8c0.3-0.2,0.6-0.4,0.9-0.4s0.7,0.1,0.8,0.3c0.2,0.2,0.4,0.5,0.4,0.7c0,0.5-0.3,0.9-0.9,1.2l0.9,1.1
			c0.1-0.2,0.2-0.5,0.3-0.7l0.7,0.1c-0.1,0.5-0.3,0.8-0.5,1.1c0.3,0.3,0.5,0.6,0.8,0.7l-0.4,0.5C77.4,159.8,77.1,159.6,76.9,159.3z
			 M76.5,158.8l-1.1-1.4c-0.4,0.2-0.6,0.4-0.7,0.6c-0.1,0.2-0.2,0.4-0.2,0.5c0,0.2,0.1,0.4,0.3,0.7c0.2,0.2,0.4,0.4,0.7,0.4
			c0.2,0,0.4-0.1,0.6-0.2C76.2,159.1,76.4,159,76.5,158.8z M75.7,156.7c0.3-0.2,0.5-0.3,0.6-0.4c0.1-0.1,0.1-0.3,0.1-0.4
			c0-0.2-0.1-0.3-0.2-0.5c-0.1-0.1-0.3-0.2-0.4-0.2c-0.2,0-0.3,0.1-0.5,0.2c-0.1,0.1-0.2,0.3-0.2,0.4c0,0.1,0,0.2,0.1,0.3
			c0,0.1,0.1,0.2,0.2,0.3L75.7,156.7z"/>
		<path class="st18" d="M82.1,159.8v-3.6h0.6v0.6c0.1-0.2,0.3-0.3,0.5-0.5c0.2-0.1,0.4-0.2,0.7-0.2c0.3,0,0.5,0.1,0.7,0.2
			c0.2,0.1,0.3,0.3,0.4,0.5c0.3-0.5,0.7-0.7,1.1-0.7c0.4,0,0.7,0.1,0.8,0.3c0.2,0.2,0.3,0.6,0.3,0.9v2.5h-0.7v-2.3
			c0-0.3,0-0.5-0.1-0.6c0-0.1-0.1-0.2-0.2-0.3c-0.1-0.1-0.2-0.1-0.4-0.1c-0.3,0-0.5,0.1-0.7,0.3c-0.2,0.2-0.3,0.5-0.3,0.8v2.1h-0.7
			v-2.4c0-0.3-0.1-0.5-0.2-0.7c-0.1-0.1-0.3-0.2-0.5-0.2s-0.4,0-0.5,0.1c-0.2,0.1-0.3,0.2-0.3,0.4c-0.1,0.2-0.1,0.5-0.1,0.7v1.9
			h-0.6V159.8z"/>
		<path class="st18" d="M91.2,158.7l0.7,0.1c-0.1,0.4-0.3,0.7-0.6,0.8c-0.3,0.2-0.7,0.3-1,0.3c-0.6,0-0.9-0.2-1.3-0.5
			c-0.3-0.4-0.5-0.8-0.5-1.4c0-0.7,0.2-1.1,0.5-1.4c0.3-0.4,0.7-0.5,1.2-0.5c0.5,0,0.9,0.2,1.2,0.5c0.3,0.4,0.5,0.8,0.5,1.4
			c0,0,0,0.1,0,0.2h-2.7c0,0.4,0.1,0.7,0.4,0.9c0.2,0.2,0.5,0.3,0.7,0.3c0.2,0,0.5-0.1,0.6-0.2C90.9,159.2,91.1,159,91.2,158.7z
			 M89.1,157.7h2c0-0.3-0.1-0.6-0.3-0.7c-0.2-0.3-0.5-0.4-0.7-0.4c-0.3,0-0.6,0.1-0.7,0.3C89.2,157.1,89.1,157.3,89.1,157.7z"/>
		<path class="st18" d="M95.7,159.8v-0.5c-0.3,0.4-0.6,0.6-1,0.6c-0.3,0-0.6-0.1-0.8-0.3c-0.3-0.2-0.5-0.4-0.6-0.7
			c-0.1-0.3-0.2-0.7-0.2-1c0-0.4,0.1-0.7,0.2-1c0.1-0.3,0.3-0.6,0.6-0.7c0.3-0.2,0.6-0.3,0.8-0.3c0.2,0,0.4,0,0.6,0.1
			c0.2,0.1,0.3,0.2,0.5,0.4v-1.9h0.7v5h-0.7V159.8z M93.7,158.1c0,0.5,0.1,0.8,0.3,1c0.2,0.2,0.5,0.4,0.7,0.4c0.3,0,0.5-0.1,0.7-0.4
			c0.2-0.2,0.3-0.6,0.3-1s-0.1-0.8-0.3-1.1c-0.2-0.3-0.5-0.4-0.7-0.4c-0.3,0-0.5,0.1-0.7,0.4C93.8,157.2,93.7,157.5,93.7,158.1z"/>
		<path class="st18" d="M97.8,155.6v-0.7h0.7v0.7H97.8z M97.8,159.8v-3.6h0.7v3.6H97.8z"/>
		<path class="st18" d="M102.4,159.5c-0.2,0.2-0.5,0.4-0.7,0.4c-0.2,0.1-0.5,0.1-0.7,0.1c-0.4,0-0.7-0.1-0.9-0.3
			c-0.2-0.2-0.3-0.5-0.3-0.7c0-0.2,0-0.4,0.1-0.5c0.1-0.2,0.2-0.3,0.3-0.4c0.1-0.1,0.3-0.2,0.5-0.2c0.1,0,0.3-0.1,0.6-0.1
			c0.5-0.1,0.8-0.1,1.1-0.2c0-0.1,0-0.2,0-0.2c0-0.3-0.1-0.5-0.2-0.6c-0.2-0.2-0.4-0.2-0.7-0.2c-0.3,0-0.5,0.1-0.7,0.2
			c-0.1,0.1-0.3,0.3-0.3,0.6l-0.7-0.1c0.1-0.3,0.2-0.5,0.3-0.7c0.1-0.2,0.3-0.3,0.6-0.4c0.3-0.1,0.6-0.1,0.8-0.1
			c0.3,0,0.6,0,0.7,0.1c0.2,0.1,0.4,0.2,0.5,0.3c0.1,0.1,0.2,0.3,0.2,0.5c0,0.1,0,0.3,0,0.6v0.8c0,0.6,0,0.9,0,1.1
			c0,0.2,0.1,0.3,0.2,0.5h-0.7C102.4,159.8,102.4,159.6,102.4,159.5z M102.3,158.1c-0.2,0.1-0.6,0.2-1,0.3c-0.3,0-0.5,0.1-0.6,0.1
			c-0.1,0-0.2,0.1-0.3,0.2c-0.1,0.1-0.1,0.2-0.1,0.3c0,0.2,0.1,0.3,0.2,0.4c0.1,0.1,0.3,0.2,0.6,0.2s0.5-0.1,0.7-0.2
			c0.2-0.1,0.3-0.3,0.4-0.5C102.3,158.6,102.3,158.5,102.3,158.1L102.3,158.1L102.3,158.1z"/>
		<path class="st18" d="M109.7,159.8v-0.5c-0.3,0.4-0.6,0.6-1,0.6c-0.3,0-0.6-0.1-0.8-0.3c-0.3-0.2-0.5-0.4-0.6-0.7
			c-0.1-0.3-0.2-0.7-0.2-1c0-0.4,0.1-0.7,0.2-1c0.1-0.3,0.3-0.6,0.6-0.7c0.3-0.2,0.6-0.3,0.8-0.3c0.2,0,0.4,0,0.6,0.1
			c0.2,0.1,0.3,0.2,0.5,0.4v-1.9h0.7v5h-0.7V159.8z M107.7,158.1c0,0.5,0.1,0.8,0.3,1c0.2,0.2,0.5,0.4,0.7,0.4
			c0.3,0,0.5-0.1,0.7-0.4c0.2-0.2,0.3-0.6,0.3-1s-0.1-0.8-0.3-1.1c-0.2-0.3-0.5-0.4-0.7-0.4c-0.3,0-0.5,0.1-0.7,0.4
			C107.8,157.2,107.7,157.5,107.7,158.1z"/>
		<path class="st18" d="M114.4,158.7l0.7,0.1c-0.1,0.4-0.3,0.7-0.6,0.8c-0.3,0.2-0.7,0.3-1,0.3c-0.6,0-0.9-0.2-1.3-0.5
			c-0.3-0.4-0.5-0.8-0.5-1.4c0-0.7,0.2-1.1,0.5-1.4c0.3-0.4,0.7-0.5,1.2-0.5c0.5,0,0.9,0.2,1.2,0.5c0.3,0.4,0.5,0.8,0.5,1.4
			c0,0,0,0.1,0,0.2h-2.7c0,0.4,0.1,0.7,0.4,0.9c0.2,0.2,0.5,0.3,0.7,0.3c0.2,0,0.5-0.1,0.6-0.2C114.2,159.2,114.3,159,114.4,158.7z
			 M112.4,157.7h2c0-0.3-0.1-0.6-0.3-0.7c-0.2-0.3-0.5-0.4-0.7-0.4c-0.3,0-0.6,0.1-0.7,0.3C112.5,157.1,112.4,157.3,112.4,157.7z"/>
		<path class="st18" d="M116.3,158.8l0.7-0.1c0,0.3,0.1,0.5,0.3,0.6c0.2,0.1,0.4,0.2,0.7,0.2c0.3,0,0.5-0.1,0.7-0.2
			c0.1-0.1,0.2-0.3,0.2-0.4c0-0.2-0.1-0.3-0.2-0.4c-0.1-0.1-0.3-0.1-0.7-0.2c-0.5-0.1-0.7-0.2-0.9-0.3s-0.3-0.2-0.4-0.4
			c-0.1-0.2-0.1-0.3-0.1-0.5c0-0.2,0-0.3,0.1-0.5c0.1-0.1,0.2-0.3,0.3-0.4c0.1-0.1,0.2-0.1,0.4-0.2c0.2-0.1,0.4-0.1,0.6-0.1
			c0.3,0,0.6,0,0.7,0.1c0.2,0.1,0.4,0.2,0.5,0.4c0.1,0.2,0.2,0.4,0.2,0.6l-0.7,0.1c0-0.2-0.1-0.4-0.3-0.5c-0.1-0.1-0.3-0.2-0.6-0.2
			s-0.5,0.1-0.7,0.2c-0.1,0.1-0.2,0.2-0.2,0.4c0,0.1,0,0.2,0.1,0.2c0.1,0.1,0.1,0.1,0.3,0.2c0.1,0,0.3,0.1,0.6,0.2
			c0.5,0.1,0.7,0.2,0.9,0.3c0.2,0.1,0.3,0.2,0.4,0.4c0.1,0.2,0.2,0.3,0.2,0.6c0,0.2-0.1,0.4-0.2,0.6c-0.1,0.2-0.3,0.3-0.6,0.5
			c-0.2,0.1-0.5,0.2-0.7,0.2c-0.5,0-0.8-0.1-1.1-0.3C116.5,159.5,116.3,159.2,116.3,158.8z"/>
		<path class="st18" d="M120.7,155.6v-0.7h0.7v0.7H120.7z M120.7,159.8v-3.6h0.7v3.6H120.7z"/>
		<path class="st18" d="M122.8,160.2l0.7,0.1c0,0.2,0.1,0.3,0.2,0.4c0.2,0.1,0.4,0.2,0.7,0.2c0.3,0,0.5-0.1,0.7-0.2
			c0.2-0.1,0.3-0.3,0.3-0.5c0-0.1,0.1-0.4,0-0.8c-0.3,0.3-0.7,0.5-1,0.5c-0.5,0-0.9-0.2-1.2-0.6c-0.3-0.4-0.4-0.8-0.4-1.3
			c0-0.4,0.1-0.7,0.2-0.9c0.1-0.3,0.3-0.6,0.6-0.7c0.3-0.2,0.6-0.3,0.8-0.3c0.5,0,0.7,0.2,1.1,0.6v-0.5h0.6v3.2
			c0,0.6-0.1,0.9-0.2,1.2c-0.1,0.3-0.3,0.5-0.6,0.6c-0.3,0.1-0.6,0.2-0.9,0.2c-0.5,0-0.8-0.1-1-0.3
			C122.9,160.9,122.8,160.6,122.8,160.2z M123.3,158c0,0.5,0.1,0.8,0.3,1c0.2,0.2,0.5,0.4,0.7,0.4c0.3,0,0.6-0.1,0.7-0.4
			c0.2-0.2,0.3-0.6,0.3-1c0-0.5-0.1-0.7-0.3-1c-0.2-0.2-0.5-0.4-0.7-0.4c-0.3,0-0.5,0.1-0.7,0.4C123.5,157.2,123.3,157.5,123.3,158z
			"/>
		<path class="st18" d="M127.5,159.8v-3.6h0.6v0.6c0.3-0.4,0.7-0.6,1.2-0.6c0.2,0,0.5,0,0.7,0.1c0.2,0.1,0.3,0.2,0.4,0.3
			c0.1,0.1,0.2,0.3,0.2,0.5c0,0.1,0,0.3,0,0.6v2.2h-0.7v-2.2c0-0.3,0-0.5-0.1-0.6c-0.1-0.1-0.1-0.2-0.3-0.3
			c-0.1-0.1-0.3-0.1-0.5-0.1c-0.3,0-0.5,0.1-0.7,0.3c-0.2,0.2-0.3,0.5-0.3,0.9v2L127.5,159.8L127.5,159.8z"/>
		<path class="st18" d="M134.5,158.8l0.7-0.1c0,0.3,0.1,0.5,0.3,0.6c0.2,0.1,0.4,0.2,0.7,0.2c0.3,0,0.5-0.1,0.7-0.2
			c0.1-0.1,0.2-0.3,0.2-0.4c0-0.2-0.1-0.3-0.2-0.4c-0.1-0.1-0.3-0.1-0.7-0.2c-0.5-0.1-0.7-0.2-0.9-0.3c-0.2-0.1-0.3-0.2-0.4-0.4
			c-0.1-0.2-0.1-0.3-0.1-0.5c0-0.2,0-0.3,0.1-0.5c0.1-0.1,0.2-0.3,0.3-0.4s0.2-0.1,0.4-0.2c0.2-0.1,0.4-0.1,0.6-0.1
			c0.3,0,0.6,0,0.7,0.1c0.2,0.1,0.4,0.2,0.5,0.4c0.1,0.2,0.2,0.4,0.2,0.6l-0.7,0.1c0-0.2-0.1-0.4-0.3-0.5c-0.1-0.1-0.3-0.2-0.6-0.2
			s-0.5,0.1-0.7,0.2c-0.1,0.1-0.2,0.2-0.2,0.4c0,0.1,0,0.2,0.1,0.2c0.1,0.1,0.1,0.1,0.3,0.2c0.1,0,0.3,0.1,0.6,0.2
			c0.5,0.1,0.7,0.2,0.9,0.3c0.2,0.1,0.3,0.2,0.4,0.4c0.1,0.2,0.2,0.3,0.2,0.6c0,0.2-0.1,0.4-0.2,0.6c-0.1,0.2-0.3,0.3-0.6,0.5
			c-0.2,0.1-0.5,0.2-0.7,0.2c-0.5,0-0.8-0.1-1.1-0.3C134.8,159.5,134.6,159.2,134.5,158.8z"/>
		<path class="st18" d="M140.3,159.3l0.1,0.6c-0.2,0-0.4,0.1-0.5,0.1c-0.2,0-0.4,0-0.6-0.1c-0.1-0.1-0.2-0.2-0.3-0.3
			c-0.1-0.1-0.1-0.4-0.1-0.7v-2.1h-0.4v-0.5h0.5v-0.9l0.7-0.4v1.3h0.7v0.5h-0.7v2.1c0,0.2,0,0.3,0,0.4c0,0.1,0.1,0.1,0.1,0.1
			c0.1,0,0.1,0,0.2,0C140.1,159.4,140.2,159.4,140.3,159.3z"/>
		<path class="st18" d="M143.9,159.8v-0.6c-0.3,0.4-0.7,0.7-1.2,0.7c-0.2,0-0.4,0-0.7-0.1c-0.2-0.1-0.4-0.2-0.4-0.3
			c-0.1-0.1-0.2-0.3-0.2-0.5c0-0.1,0-0.3,0-0.6v-2.3h0.7v2c0,0.3,0,0.6,0,0.7c0,0.2,0.1,0.3,0.3,0.4c0.1,0.1,0.3,0.2,0.5,0.2
			c0.2,0,0.4-0.1,0.6-0.2c0.2-0.1,0.3-0.2,0.4-0.4c0.1-0.2,0.1-0.4,0.1-0.7v-2h0.7v3.6H143.9z"/>
		<path class="st18" d="M148.5,159.8v-0.5c-0.3,0.4-0.6,0.6-1,0.6c-0.3,0-0.6-0.1-0.8-0.3c-0.3-0.2-0.5-0.4-0.6-0.7
			c-0.1-0.3-0.2-0.7-0.2-1c0-0.4,0.1-0.7,0.2-1c0.1-0.3,0.3-0.6,0.6-0.7c0.3-0.2,0.6-0.3,0.8-0.3c0.2,0,0.4,0,0.6,0.1
			c0.2,0.1,0.3,0.2,0.5,0.4v-1.9h0.7v5h-0.7V159.8z M146.5,158.1c0,0.5,0.1,0.8,0.3,1c0.2,0.2,0.5,0.4,0.7,0.4s0.5-0.1,0.7-0.4
			c0.2-0.2,0.3-0.6,0.3-1s-0.1-0.8-0.3-1.1c-0.2-0.3-0.5-0.4-0.7-0.4s-0.5,0.1-0.7,0.4C146.6,157.2,146.5,157.5,146.5,158.1z"/>
		<path class="st18" d="M150.7,155.6v-0.7h0.7v0.7H150.7z M150.7,159.8v-3.6h0.7v3.6H150.7z"/>
		<path class="st18" d="M152.7,158.1c0-0.7,0.2-1.2,0.6-1.5c0.3-0.3,0.7-0.4,1.1-0.4c0.5,0,0.9,0.2,1.2,0.5c0.3,0.4,0.5,0.7,0.5,1.4
			c0,0.5-0.1,0.8-0.2,1.1c-0.2,0.3-0.4,0.5-0.7,0.7c-0.3,0.2-0.6,0.2-0.9,0.2c-0.6,0-0.9-0.2-1.2-0.5
			C152.8,159.1,152.7,158.6,152.7,158.1z M153.3,158.1c0,0.5,0.1,0.8,0.3,1c0.2,0.3,0.5,0.4,0.7,0.4s0.6-0.1,0.7-0.4
			c0.2-0.3,0.3-0.6,0.3-1.1c0-0.5-0.1-0.8-0.3-1c-0.2-0.3-0.5-0.4-0.7-0.4s-0.6,0.1-0.7,0.4C153.4,157.2,153.3,157.6,153.3,158.1z"
			/>
	</g>
</g>
</svg>
