<?xml version="1.0" encoding="UTF-8"?>
<svg width="214px" height="214px" viewBox="0 0 214 214" version="1.1" xmlns="http://www.w3.org/2000/svg" xmlns:xlink="http://www.w3.org/1999/xlink">
    <!-- Generator: Sketch 56.3 (81716) - https://sketch.com -->
    <title>ness_logo</title>
    <desc>Created with Sketch.</desc>
    <defs>
        <polygon id="path-1" points="0 0 96.9994379 0 96.9994379 97 0 97"></polygon>
    </defs>
    <g id="Exports" stroke="none" stroke-width="1" fill="none" fill-rule="evenodd">
        <g id="Homepage-New" transform="translate(-1774.000000, -4468.000000)">
            <g id="Group-10" transform="translate(1833.000000, 4527.000000)">
                <g id="Group-3">
                    <mask id="mask-2" fill="white">
                        <use xlink:href="#path-1"></use>
                    </mask>
                    <g id="Clip-2"></g>
                    <path d="M96.9994379,48.5003212 C96.9994379,39.9206391 94.7689197,31.863697 90.8600124,24.8716672 C79.2383204,27.5242318 67.3439363,31.7885381 58.1183369,38.2218543 C47.7049694,45.483043 40.4783088,54.5729387 38.1963998,62.2576192 L38.0337161,62.7806805 L37.607976,63.987399 L23.0921829,64.0012103 L21.536168,64.0090795 L19.1097227,44.8146424 L2.5824644,64.1529735 C9.09318791,83.2573162 27.1909147,97 48.4991167,97 C75.284928,97 96.9994379,75.2861325 96.9994379,48.5003212 L96.9994379,48.5003212 Z M61.0146863,64.0368626 L53.0610075,64.0368626 L53.0610075,49.7147483 L61.0146863,49.7147483 L61.0146863,51.3089851 L56.24113,51.3089851 L56.24113,56.0833444 L59.4296035,56.0833444 L59.4296035,57.6684272 L56.24113,57.6684272 L56.24113,62.4426258 L61.0146863,62.4426258 L61.0146863,64.0368626 Z M75.2860522,61.0244023 C75.2860522,61.9062351 74.9685538,62.6669785 74.3346813,63.3074354 C73.700327,63.9478924 72.9363717,64.2686026 72.0418518,64.2686026 L70.4150141,64.2686026 C69.3372541,64.2686026 68.5249594,63.9988013 67.9800571,63.4591987 C67.4406151,62.914457 67.1716167,62.1028046 67.1716167,61.0244023 L68.7978121,61.0244023 C68.7917094,61.1381043 68.7880157,61.2269139 68.7880157,61.2905099 C68.7880157,61.7343974 68.9563204,62.0706854 69.2926084,62.2993742 C69.6348386,62.5274205 70.0091879,62.6416043 70.4150141,62.6416043 C70.992678,62.6416043 71.4074975,62.5020464 71.6615604,62.2230911 C71.914981,61.9442964 72.0418518,61.5386308 72.0418518,61.0049702 C72.0418518,60.593202 71.8835041,60.2129106 71.5664876,59.863293 L68.122827,56.010755 C67.4884727,55.306702 67.1716167,54.5429073 67.1716167,53.7177649 L67.1716167,52.8996887 C67.1716167,52.0183377 67.4884727,51.256952 68.122827,50.616495 C68.7566995,49.9758775 69.5204942,49.6559702 70.4150141,49.6553278 L72.0418518,49.6553278 C74.0709826,49.6553278 75.1524363,50.7369421 75.2860522,52.8996887 L73.6688502,52.8996887 C73.5291316,51.8151838 73.0187575,51.2726904 72.1369247,51.2726904 C71.5664876,51.2726904 71.1352873,51.4093576 70.8431631,51.6820497 C70.5577839,51.9549023 70.4150141,52.3644222 70.4150141,52.9093245 C70.4150141,53.3149901 70.5735224,53.696245 70.8910207,54.0510017 L74.3346813,57.9133361 C74.9685538,58.6239735 75.2854098,59.3877682 75.2860522,60.2061656 L75.2860522,61.0244023 Z M89.6414098,61.0244023 C89.6414098,61.9062351 89.3245538,62.6669785 88.6906813,63.3074354 C88.056327,63.9478924 87.2918899,64.2686026 86.3978518,64.2686026 L84.7710141,64.2686026 C83.6927724,64.2686026 82.8809594,63.9988013 82.3355753,63.4591987 C81.7961333,62.914457 81.5269743,62.1028046 81.5269743,61.0244023 L83.1538121,61.0244023 C83.1472276,61.1381043 83.1441763,61.2269139 83.1441763,61.2905099 C83.1441763,61.7343974 83.3123204,62.0706854 83.6486084,62.2993742 C83.9908386,62.5274205 84.3647061,62.6416043 84.7710141,62.6416043 C85.3480356,62.6416043 85.7634975,62.5020464 86.0175604,62.2230911 C86.270981,61.9442964 86.3978518,61.5386308 86.3978518,61.0049702 C86.3978518,60.593202 86.2395041,60.2129106 85.9224876,59.863293 L82.4783452,56.010755 C81.8438303,55.306702 81.5269743,54.5429073 81.5269743,53.7177649 L81.5269743,52.8996887 C81.5269743,52.0183377 81.8438303,51.256952 82.4783452,50.616495 C83.1126995,49.9758775 83.8764942,49.6559702 84.7710141,49.6553278 L86.3978518,49.6553278 C88.4269826,49.6553278 89.5084363,50.7369421 89.6414098,52.8996887 L88.0248502,52.8996887 C87.8851316,51.8151838 87.3747575,51.2726904 86.4929247,51.2726904 C85.9224876,51.2726904 85.4906449,51.4093576 85.1991631,51.6820497 C84.9137839,51.9549023 84.7710141,52.3644222 84.7710141,52.9093245 C84.7710141,53.3149901 84.9295224,53.696245 85.2463783,54.0510017 L88.6906813,57.9133361 C89.3245538,58.6239735 89.6414098,59.3877682 89.6414098,60.2061656 L89.6414098,61.0244023 Z M40.501274,41.6322715 C56.0384578,29.1027301 78.3214776,24.8450083 90.6957227,24.5764917 C82.356774,9.90106623 66.5847988,0 48.4991167,0 C21.7139478,0 -8.02980132e-05,21.7145099 -8.02980132e-05,48.5003212 C-8.02980132e-05,52.9073974 0.590913079,57.1760397 1.69228063,61.2343013 L25.3178833,33.4747964 L27.0507144,33.4747964 L29.6700356,52.0909272 C32.7774081,48.4675596 36.4086449,44.9313957 40.501274,41.6322715 L40.501274,41.6322715 Z" id="Fill-1" fill="#0828CC" mask="url(#mask-2)"></path>
                </g>
            </g>
        </g>
    </g>
</svg>