<?xml version="1.0" encoding="UTF-8"?>
<svg width="214px" height="214px" viewBox="0 0 214 214" version="1.1" xmlns="http://www.w3.org/2000/svg" xmlns:xlink="http://www.w3.org/1999/xlink">
    <!-- Generator: Sketch 54.1 (76490) - https://sketchapp.com -->
    <title>plentymarkets_logo</title>
    <desc>Created with Sketch.</desc>
    <defs>
        <polygon id="path-1" points="0.000111125775 0.0462528302 37.9378021 0.0462528302 37.9378021 35.2830189 0.000111125775 35.2830189"></polygon>
    </defs>
    <g id="Exports" stroke="none" stroke-width="1" fill="none" fill-rule="evenodd">
        <g id="Homepage-New" transform="translate(-1257.000000, -4468.000000)">
            <g id="Group-10" transform="translate(1279.000000, 4556.000000)">
                <g id="Group-3" transform="translate(0.000000, 2.374932)">
                    <mask id="mask-2" fill="white">
                        <use xlink:href="#path-1"></use>
                    </mask>
                    <g id="Clip-2"></g>
                    <path d="M34.9876679,2.1247434 C34.8940075,2.01568679 34.9203094,2.05802642 34.9203094,2.05802642 C34.991517,2.65013962 35.0312906,3.25508302 35.0312906,3.8728566 C35.0312906,13.3004792 28.7656679,21.951234 19.3380453,21.951234 C17.1197057,21.951234 15.2343094,21.3969698 14.2912906,20.8427057 L14.1803094,20.8427057 L11.9754415,32.2493849 L12.0549887,32.3116113 C14.4959321,33.5978377 17.2075925,34.5376491 20.0975925,35.0745925 C25.2059321,35.8014226 28.7400075,34.6511962 31.6229509,31.268517 C34.5302717,28.0051585 36.6286491,22.6671585 37.6428755,16.2283283 C38.4114038,9.99478113 37.7294792,5.32395094 34.9876679,2.1247434 M26.6576679,4.48293208 C26.6576679,2.32040377 25.7704604,0.0462528302 23.1640075,0.0462528302 C20.170083,0.0462528302 17.3968377,3.42893208 16.3986491,8.75346038 L15.4004604,14.5758 C16.2876679,15.4078377 17.5071774,15.9062906 19.0602717,15.9062906 C23.3308,15.9062906 26.6576679,9.80681887 26.6576679,4.48293208 M9.91363019,0.823762264 C7.61830943,1.87070566 5.6508,3.1107434 4.14325283,4.48421509 C0.566837736,7.65263019 -0.48074717,11.5074604 0.191554717,16.4156491 C0.817026415,20.3673472 2.52600755,23.8802528 5.02981887,26.784366 C5.02981887,26.784366 5.08370566,26.8196491 5.07344151,26.8068189 L9.24517736,4.70489434 C9.46329057,3.5527434 9.91363019,0.823762264 9.91363019,0.823762264" id="Fill-1" fill="#D92128" mask="url(#mask-2)"></path>
                </g>
                <path d="M105.030875,26.2091887 L106.91563,26.2091887 L106.91563,18.5951132 C106.91563,18.2230377 106.941932,17.8759811 106.991328,17.5533019 C107.213932,16.2882453 108.006838,15.6185094 108.775366,15.6185094 C110.189894,15.6185094 110.437517,17.0073774 110.437517,18.3468491 L110.437517,26.2091887 L112.322913,26.2091887 L112.322913,18.4963208 C112.322913,18.0985849 112.347932,17.7271509 112.396687,17.4044717 C112.669328,16.2882453 113.364725,15.6185094 114.158272,15.6185094 C115.622196,15.6185094 115.8448,17.1318302 115.8448,18.6945472 L115.8448,26.2091887 L117.730196,26.2091887 L117.730196,18.2480566 C117.730196,15.1970377 116.465781,14.0063962 114.853026,14.0063962 C114.232687,14.0063962 113.662385,14.1545849 113.191517,14.4779057 C112.743743,14.775566 112.322913,15.2470755 112.000234,15.8423962 L111.951479,15.8423962 C111.504989,14.5523208 110.56197,14.0063962 109.446385,14.0063962 C108.181328,14.0063962 107.262687,14.7261698 106.742423,15.6929245 L106.693026,15.6929245 L106.594234,14.2046226 L104.932083,14.2046226 C104.955819,15.1726604 105.030875,15.8917925 105.030875,17.3050377 L105.030875,26.2091887 Z M126.758158,18.2974528 C126.758158,15.5947736 125.716989,14.0063962 123.310687,14.0063962 C122.120045,14.0063962 121.003819,14.4285094 120.508574,14.7999434 L120.929404,16.1400566 C121.499706,15.7673396 122.170083,15.519717 122.914875,15.519717 C124.427555,15.519717 124.824008,16.6353019 124.824008,18.2480566 L124.824008,18.6194906 C122.120045,18.6445094 119.713743,19.9833396 119.713743,22.9849623 C119.713743,25.0442075 120.955064,26.4093396 122.567177,26.4093396 C123.58397,26.4093396 124.427555,25.8627736 124.947819,24.9447736 L125.022234,24.9447736 L125.146687,26.2091887 L126.882611,26.2091887 C126.758158,25.4413019 126.758158,24.3994906 126.758158,23.4814906 L126.758158,18.2974528 Z M124.873404,22.4396792 C124.873404,22.6379057 124.873404,22.8861698 124.824008,23.1087736 C124.600762,24.2994151 123.882272,24.9197547 123.038045,24.9197547 C122.368309,24.9197547 121.574762,24.3500943 121.574762,22.7867358 C121.574762,20.1822075 123.882272,20.009 124.873404,20.009 L124.873404,22.4396792 Z M129.412725,26.2091887 L131.321857,26.2091887 L131.321857,19.5631509 C131.321857,19.1660566 131.346875,18.7933396 131.397555,18.4706604 C131.59514,17.082434 132.488762,15.9662075 133.70314,15.9662075 C133.85197,15.9662075 133.975781,15.9662075 134.100234,15.9912264 L134.100234,14.0314151 C133.975781,14.0314151 133.85197,14.0063962 133.70314,14.0063962 C132.587555,14.0063962 131.570121,14.9487736 131.173668,16.0900189 L131.12363,16.0900189 L131.025479,14.2046226 L129.313932,14.2046226 C129.338309,15.0982453 129.412725,16.2882453 129.412725,17.3050377 L129.412725,26.2091887 Z M137.97046,9.04560377 L136.058762,9.04560377 L136.058762,26.2091887 L137.97046,26.2091887 L137.97046,21.6711509 L138.638913,20.5549245 L141.243442,26.2091887 L143.375819,26.2091887 L139.928989,19.2648491 L143.103819,14.2046226 L141.044574,14.2046226 L138.663932,18.446283 C138.440045,18.8427358 138.24246,19.3136038 138.019215,19.7851132 L137.97046,19.7851132 L137.97046,9.04560377 Z M151.288196,20.3810755 C151.313215,20.0834151 151.313215,19.7613774 151.313215,19.3136038 C151.313215,16.5865472 150.34646,14.0063962 147.890762,14.0063962 C145.48446,14.0063962 143.847328,16.4370755 143.847328,20.3310377 C143.847328,24.0030377 145.33563,26.3586604 148.2128,26.3586604 C149.154536,26.3586604 150.17197,26.1597925 150.841706,25.7883585 L150.544045,24.3744717 C150.072536,24.6471132 149.378423,24.8453396 148.559857,24.8453396 C147.170989,24.8453396 145.732083,24.0517925 145.707706,20.3810755 L151.288196,20.3810755 Z M145.732083,18.9671887 C145.80714,17.3300566 146.452498,15.4946981 147.691894,15.4946981 C148.609253,15.4946981 149.526611,16.5615283 149.477857,18.9671887 L145.732083,18.9671887 Z M153.793291,12.1710377 L153.793291,14.2046226 L152.329366,14.2046226 L152.329366,15.6679057 L153.793291,15.6679057 L153.793291,22.6141698 C153.793291,24.2756792 154.040913,25.0936038 154.512423,25.6388868 C154.983932,26.1597925 155.653668,26.3586604 156.397177,26.3586604 C157.017517,26.3586604 157.464008,26.2842453 157.811064,26.1597925 L157.736649,24.6977925 C157.513404,24.7471887 157.266423,24.771566 156.968121,24.771566 C156.273366,24.771566 155.703064,24.3500943 155.703064,22.7867358 L155.703064,15.6679057 L158.009932,15.6679057 L158.009932,14.2046226 L155.703064,14.2046226 L155.703064,11.4018679 L153.793291,12.1710377 Z M158.902913,25.6645472 C159.423177,26.0860189 160.390574,26.3586604 161.283555,26.3586604 C163.243366,26.3586604 164.879857,25.1930377 164.879857,22.7867358 C164.879857,21.1252264 163.789291,20.0340189 162.400423,19.1403962 C161.20914,18.3224717 160.910838,17.8759811 160.910838,17.0574151 C160.910838,16.2882453 161.432385,15.5440943 162.474838,15.5440943 C163.095177,15.5440943 163.6148,15.7673396 164.061932,16.065 L164.581555,14.6267358 C164.086309,14.328434 163.367177,14.0063962 162.4248,14.0063962 C160.56314,14.0063962 159.125517,15.3959057 159.125517,17.3300566 C159.125517,18.719566 159.969102,19.735717 161.530536,20.7525094 C162.747479,21.571717 163.068875,22.1914151 163.068875,23.1087736 C163.068875,24.1762453 162.400423,24.8453396 161.308574,24.8453396 C160.540045,24.8453396 159.795253,24.498283 159.37314,24.225 L158.902913,25.6645472 Z M167.076385,11.5949623 L167.322725,11.5949623 C167.610762,11.5949623 167.75446,11.6963208 167.798083,11.9420189 C167.857102,12.2165849 167.900083,12.4045472 167.971932,12.4917925 L168.478083,12.4917925 C168.43446,12.4045472 168.392121,12.2749623 168.31963,11.9420189 C168.24714,11.6385849 168.145781,11.4506226 167.914838,11.3781321 L167.914838,11.3486226 C168.174649,11.2774151 168.392121,11.0894528 168.392121,10.8283585 C168.392121,10.6121698 168.290762,10.4383208 168.160536,10.3510755 C168.001442,10.2362453 167.812838,10.1637547 167.408687,10.1637547 C167.045592,10.1637547 166.786423,10.2067358 166.599102,10.2362453 L166.599102,12.4917925 L167.076385,12.4917925 L167.076385,11.5949623 Z M167.089857,10.5679057 C167.147592,10.5679057 167.234838,10.5537925 167.379819,10.5537925 C167.712121,10.5537925 167.857102,10.6840189 167.857102,10.8867358 C167.857102,11.1176792 167.625517,11.2196792 167.336196,11.2196792 L167.089857,11.2196792 L167.089857,10.5679057 Z M167.436913,9.06420755 C166.178272,9.06420755 165.16597,10.0623962 165.16597,11.3203962 C165.16597,12.5783962 166.178272,13.5906981 167.436913,13.5906981 C168.709668,13.5906981 169.707215,12.5783962 169.707215,11.3203962 C169.707215,10.0623962 168.709668,9.06420755 167.452309,9.06420755 L167.436913,9.06420755 Z M167.436913,9.52737736 C168.420347,9.52737736 169.143328,10.3222075 169.143328,11.3203962 C169.143328,12.3179434 168.420347,13.1275283 167.436913,13.1134151 C166.453479,13.1134151 165.716385,12.3179434 165.716385,11.3203962 C165.716385,10.3222075 166.453479,9.52737736 167.422158,9.52737736 L167.436913,9.52737736 Z" id="Fill-4" fill="#82B2D4"></path>
                <path d="M47.4889547,30.9722679 L50.7382,30.9722679 L50.7382,25.2172868 L50.7882377,25.2172868 C51.1352943,25.7882302 51.8050302,26.4085698 52.7968038,26.4085698 C54.8303887,26.4085698 56.7401623,24.4487585 56.7401623,20.132683 C56.7401623,16.7840038 55.6495962,13.8824566 52.9706528,13.8824566 C51.8544264,13.8824566 50.9370679,14.4777774 50.4405396,15.4701925 L50.3905019,15.4701925 L50.2172943,14.0813245 L47.3901623,14.0813245 C47.4395585,15.2219283 47.4889547,16.461966 47.4889547,17.9252491 L47.4889547,30.9722679 Z M50.7382,18.5205698 C50.7382,18.2229094 50.7632189,17.9008717 50.8870302,17.6526075 C51.011483,17.0816642 51.4823509,16.6107962 51.9788792,16.6107962 C52.945634,16.6107962 53.490917,17.850834 53.490917,20.1583434 C53.490917,22.066834 53.0944642,23.7540038 51.9532189,23.7540038 C51.5817849,23.7540038 51.1603132,23.5551358 50.9120491,22.8109849 C50.7882377,22.5633623 50.7382,22.1912868 50.7382,21.7704566 L50.7382,18.5205698 Z M58.6005396,26.2090604 L61.8497849,26.2090604 L61.8497849,9.04547547 L58.6005396,9.04547547 L58.6005396,26.2090604 Z M72.6393321,21.2995887 C72.7137472,20.9518906 72.7381245,20.4803811 72.7381245,19.6117774 C72.7381245,15.9410604 71.2248038,13.8824566 68.620917,13.8824566 C65.8675585,13.8824566 63.758917,16.3131358 63.758917,20.3809472 C63.758917,24.176117 65.5698981,26.3585321 68.8685396,26.3585321 C70.1092189,26.3585321 71.3742755,26.1359283 72.2172189,25.8132491 L71.7707283,23.4813623 C71.2004264,23.6795887 70.3818604,23.8778151 69.4645019,23.8778151 C68.0255962,23.8778151 66.9343887,23.1837019 66.8849925,21.2995887 L72.6393321,21.2995887 Z M66.9093698,19.0164566 C66.9343887,17.8020792 67.3558604,16.2387208 68.4226906,16.2387208 C69.3900868,16.2387208 69.7858981,17.4543811 69.7858981,19.0164566 L66.9093698,19.0164566 Z M74.573483,26.2090604 L77.8227283,26.2090604 L77.8227283,18.8182302 C77.8227283,18.3473623 77.8971434,17.9502679 77.9965774,17.7020038 C78.2198226,16.9822302 78.6656717,16.6107962 79.2115962,16.6107962 C80.1539736,16.6107962 80.4028792,17.6032113 80.4028792,18.6200038 L80.4028792,26.2090604 L83.651483,26.2090604 L83.651483,18.4211358 C83.651483,15.7184566 82.733483,13.8824566 80.4272566,13.8824566 C79.1622,13.8824566 78.1203887,14.5027962 77.4756717,15.4701925 L77.4262755,15.4701925 L77.2768038,14.0813245 L74.4740491,14.0813245 C74.4990679,15.2219283 74.573483,16.3875509 74.573483,17.7270226 L74.573483,26.2090604 Z M86.503634,11.9226453 L86.503634,14.0813245 L85.0653698,14.0813245 L85.0653698,16.3875509 L86.503634,16.3875509 L86.503634,22.1175132 C86.503634,24.0266453 86.8757094,24.9446453 87.5454453,25.5900038 C88.1157472,26.1359283 88.9343132,26.3585321 89.8773321,26.3585321 C90.7446528,26.3585321 91.4143887,26.2590981 91.8602377,26.1359283 L91.8365019,23.6051736 C91.5632189,23.6552113 91.3143132,23.6795887 90.992917,23.6795887 C90.3482,23.6795887 89.7528792,23.3325321 89.7528792,21.9192868 L89.7528792,16.3875509 L92.1335208,16.3875509 L92.1335208,14.0813245 L89.7528792,14.0813245 L89.7528792,10.9064943 L86.503634,11.9226453 Z M93.6218226,14.0813245 L96.945483,25.3173623 C96.9948792,25.4649094 97.0442755,25.6137396 97.0442755,25.7638528 C97.0442755,25.9370604 96.9705019,26.0615132 96.8710679,26.284117 C96.6471811,26.8056642 96.299483,27.3002679 95.853634,27.7236642 C95.3590302,28.1701547 94.8124642,28.5409472 94.2421623,28.7398151 L95.2345774,31.5432113 C95.7304642,31.3937396 96.9705019,30.8227962 97.9866528,29.6315132 C99.3011057,28.0707208 100.095936,25.7138151 100.690615,23.4326075 L103.170049,14.0813245 L99.9958604,14.0813245 L98.9784264,20.4297019 C98.879634,21.0994377 98.7808415,21.7941925 98.6820491,22.4145321 L98.6320113,22.4145321 C98.5319358,21.7704566 98.4331434,21.0994377 98.3093321,20.3809472 L97.1186906,14.0813245 L93.6218226,14.0813245 Z" id="Fill-6" fill="#0F90C0"></path>
                <path d="M35.031483,6.24817358 C35.031483,5.62975849 34.9917094,5.0254566 34.9205019,4.43398491 C34.8454453,4.34866415 34.7768038,4.25885283 34.6985396,4.17609811 C31.8303509,0.871683019 26.9632189,-0.596732075 20.2222377,0.223116981 C16.4206528,0.805607547 12.8852943,1.8429283 9.90355849,3.20356981 C9.68865283,4.58281509 9.46348302,5.92741887 9.24536981,7.07956981 L5.07299245,29.1821358 C6.96480377,31.367117 9.30438868,33.2044 11.975634,34.6259849 L14.1805019,23.2180226 L14.2908415,23.2180226 C15.2338604,23.7716453 17.1198981,24.3265509 19.3382377,24.3265509 C28.7652189,24.3265509 35.031483,15.6757962 35.031483,6.24817358 M26.6578604,6.85824906 C26.6578604,12.1814943 23.3309925,18.2816075 19.0604642,18.2816075 C17.5073698,18.2816075 16.2878604,17.7825132 15.4006528,16.9504755 L16.399483,11.1274943 C17.3970302,5.80424906 20.169634,2.42156981 23.1642,2.42156981 C25.7706528,2.42156981 26.6578604,4.69572075 26.6578604,6.85824906" id="Fill-8" fill="#FEFEFE"></path>
            </g>
        </g>
    </g>
</svg>