<?xml version="1.0" encoding="UTF-8"?>
<svg width="214px" height="214px" viewBox="0 0 214 214" version="1.1" xmlns="http://www.w3.org/2000/svg" xmlns:xlink="http://www.w3.org/1999/xlink">
    <!-- Generator: Sketch 53.2 (72643) - https://sketchapp.com -->
    <title>steadforce_white_logo</title>
    <desc>Created with Sketch.</desc>
    <defs>
        <polygon id="path-1" points="0.000171428571 0.366428571 12.7668857 0.366428571 12.7668857 17.1426857 0.000171428571 17.1426857"></polygon>
        <polygon id="path-3" points="0.2265 0.366428571 16.9806429 0.366428571 16.9806429 17.1428143 0.2265 17.1428143"></polygon>
        <polygon id="path-5" points="0.299657143 0.366428571 16.2468 0.366428571 16.2468 17.1427714 0.299657143 17.1427714"></polygon>
    </defs>
    <g id="Exports" stroke="none" stroke-width="1" fill="none" fill-rule="evenodd">
        <g id="Homepage-New" transform="translate(-270.000000, -4210.000000)">
            <g id="Group-24" transform="translate(302.000000, 4309.000000)">
                <g id="Group-3" transform="translate(0.000000, 0.062357)">
                    <mask id="mask-2" fill="white">
                        <use xlink:href="#path-1"></use>
                    </mask>
                    <g id="Clip-2"></g>
                    <path d="M9.49474286,5.5974 C9.12617143,3.98382857 7.8126,3.15454286 6.3606,3.15454286 C4.88588571,3.15454286 3.87145714,3.77682857 3.87145714,4.88297143 C3.87145714,6.08125714 5.66931429,6.56511429 7.72002857,7.2564 C10.0707429,8.08654286 12.7668857,9.05382857 12.7668857,12.2115429 C12.7668857,15.0919714 10.2781714,17.1426857 6.59117143,17.1426857 C3.20331429,17.1426857 0.875742857,15.2304 0.000171428571,12.3032571 L3.13431429,11.4508286 C3.45702857,12.9486857 4.8396,14.2391143 6.82131429,14.2391143 C8.43445714,14.2391143 9.42531429,13.4098286 9.42531429,12.3726857 C9.42531429,10.8285429 7.14402857,10.3215429 4.86274286,9.49182857 C2.92688571,8.80054286 0.576171429,7.83282857 0.576171429,5.02097143 C0.576171429,2.50911429 3.06531429,0.366257143 6.47588571,0.366257143 C9.51788571,0.366257143 11.8913143,2.20997143 12.5826,4.74454286 L9.49474286,5.5974 Z" id="Fill-1" fill="#32BBAD" mask="url(#mask-2)"></path>
                </g>
                <polygon id="Fill-4" fill="#32BBAD" points="26.2937571 0.750857143 26.2937571 3.747 21.2237571 3.747 21.2237571 16.8827143 18.0206143 16.8827143 18.0206143 3.747 12.9969 3.747 12.9969 0.750857143"></polygon>
                <polygon id="Fill-6" fill="#32BBAD" points="39.4058143 13.8867429 39.4058143 16.8824571 27.8601 16.8824571 27.8601 0.751028571 39.2673857 0.751028571 39.2673857 3.74717143 31.0636714 3.74717143 31.0636714 7.18088571 37.5621 7.18088571 37.5621 10.0844571 31.0636714 10.0844571 31.0636714 13.8867429"></polygon>
                <path d="M51.8726571,11.1445714 L49.4760857,6.07457143 L49.2686571,5.49814286 L49.0612286,6.07457143 L46.6642286,11.1445714 L51.8726571,11.1445714 Z M53.2783714,14.1634286 L45.2585143,14.1634286 L43.9680857,16.8827143 L40.3959429,16.8827143 L48.1625143,0.750857143 L50.3748,0.750857143 L58.1409429,16.8827143 L54.5688,16.8827143 L53.2783714,14.1634286 Z" id="Fill-8" fill="#32BBAD"></path>
                <path d="M66.1371,13.8867429 C68.7873857,13.8867429 71.0918143,12.0203143 71.0918143,8.88617143 C71.0918143,5.75202857 68.7873857,3.74717143 66.0676714,3.74717143 L62.3116714,3.74717143 L62.3116714,13.8867429 L66.1371,13.8867429 Z M66.0676714,0.751028571 C70.6769571,0.751028571 74.4329571,4.04631429 74.4329571,8.88617143 C74.4329571,13.7024571 70.6996714,16.8824571 66.1371,16.8824571 L59.1081,16.8824571 L59.1081,0.751028571 L66.0676714,0.751028571 Z" id="Fill-10" fill="#32BBAD"></path>
                <polygon id="Fill-12" fill="#32BBAD" points="79.7329286 3.74708571 79.7329286 7.66465714 86.0007857 7.66465714 86.0007857 10.5682286 79.7329286 10.5682286 79.7329286 16.8823714 76.5293571 16.8823714 76.5293571 0.750942857 87.7060714 0.750942857 87.7060714 3.74708571"></polygon>
                <g id="Group-16" transform="translate(88.285714, 0.062357)">
                    <mask id="mask-4" fill="white">
                        <use xlink:href="#path-3"></use>
                    </mask>
                    <g id="Clip-15"></g>
                    <path d="M8.59178571,13.9859571 C11.5647857,13.9859571 13.6386429,11.8426714 13.6386429,8.75438571 C13.6386429,5.64338571 11.5647857,3.52324286 8.59178571,3.52324286 C5.64192857,3.52324286 3.56807143,5.64338571 3.56807143,8.75438571 C3.56807143,11.8426714 5.64192857,13.9859571 8.59178571,13.9859571 M8.59178571,0.366385714 C13.2242143,0.366385714 16.9806429,3.89181429 16.9806429,8.75438571 C16.9806429,13.6173857 13.2242143,17.1428143 8.59178571,17.1428143 C3.95978571,17.1428143 0.2265,13.6173857 0.2265,8.75438571 C0.2265,3.89181429 3.95978571,0.366385714 8.59178571,0.366385714" id="Fill-14" fill="#32BBAD" mask="url(#mask-4)"></path>
                </g>
                <path d="M110.588829,8.37895714 L113.446114,8.37895714 C115.243971,8.37895714 116.050114,7.29595714 116.050114,6.05138571 C116.050114,4.80681429 115.198114,3.74695714 113.446114,3.74695714 L110.588829,3.74695714 L110.588829,8.37895714 Z M116.5344,16.8826714 L113.123829,11.3746714 L113.031686,11.3746714 L110.588829,11.3746714 L110.588829,16.8826714 L107.385257,16.8826714 L107.385257,0.750814286 L113.031686,0.750814286 C116.995114,0.750814286 119.392114,2.80195714 119.392114,6.05138571 C119.392114,8.28681429 118.2624,9.94581429 116.303829,10.7759571 L120.082971,16.8826714 L116.5344,16.8826714 Z" id="Fill-17" fill="#32BBAD"></path>
                <g id="Group-21" transform="translate(120.428571, 0.062357)">
                    <mask id="mask-6" fill="white">
                        <use xlink:href="#path-5"></use>
                    </mask>
                    <g id="Clip-20"></g>
                    <path d="M12.7209429,5.50534286 C11.8680857,4.28348571 10.2549429,3.5232 8.66451429,3.5232 C5.64608571,3.5232 3.6408,5.68962857 3.6408,8.75434286 C3.6408,11.9116286 5.78408571,13.9396286 8.66451429,13.9396286 C10.5086571,13.9396286 12.2135143,12.9719143 13.0205143,11.5662 L16.2468,12.4186286 C14.9096571,15.2763429 12.0523714,17.1427714 8.66451429,17.1427714 C4.03294286,17.1427714 0.299657143,13.6173429 0.299657143,8.75434286 C0.299657143,3.89177143 4.03294286,0.366342857 8.66451429,0.366342857 C11.8449429,0.366342857 14.5642286,2.04848571 15.9930857,4.62934286 L12.7209429,5.50534286 Z" id="Fill-19" fill="#32BBAD" mask="url(#mask-6)"></path>
                </g>
                <polygon id="Fill-22" fill="#32BBAD" points="149.856257 13.8867429 149.856257 16.8824571 138.310971 16.8824571 138.310971 0.751028571 149.718257 0.751028571 149.718257 3.74717143 141.514114 3.74717143 141.514114 7.18088571 148.012971 7.18088571 148.012971 10.0844571 141.514114 10.0844571 141.514114 13.8867429"></polygon>
            </g>
        </g>
    </g>
</svg>