<?xml version="1.0" encoding="UTF-8"?>
<svg width="214px" height="214px" viewBox="0 0 214 214" version="1.1" xmlns="http://www.w3.org/2000/svg" xmlns:xlink="http://www.w3.org/1999/xlink">
    <!-- Generator: Sketch 63.1 (92452) - https://sketch.com -->
    <title>syneto_logo</title>
    <desc>Created with Sketch.</desc>
    <g id="Exports" stroke="none" stroke-width="1" fill="none" fill-rule="evenodd">
        <g id="Homepage-New" transform="translate(-270.000000, -3963.000000)" fill="#AB206D">
            <g id="Group-18" transform="translate(270.000000, 3963.000000)">
                <path d="M61.1967857,95.0871429 L67.7753571,105.03 L74.2896429,95.0871429 L79.4217857,95.0871429 L70.2182143,108.715714 L70.2182143,119.826429 L65.3003571,124.905 L65.3003571,108.726429 L56.0646429,95.0871429 L61.1967857,95.0871429 Z M160.156071,95.0732143 L160.156071,95.0839286 C163.798929,95.1482143 166.841786,96.3482143 169.273929,98.7267857 C171.770357,101.169643 173.034643,104.233929 173.034643,107.930357 C173.034643,111.508929 171.759643,114.476786 169.220357,116.844643 C166.691786,119.201786 163.488214,120.401786 159.641786,120.401786 C155.913214,120.401786 152.806071,119.191071 150.298929,116.791071 C147.791786,114.391071 146.548929,111.391071 146.548929,107.791071 C146.548929,104.669643 147.483731,102.010696 149.334477,99.7859398 L149.581071,99.4982143 L138.448929,99.4982143 L138.448929,95.0732143 L160.156071,95.0732143 Z M47.1214286,94.6403571 C49.5535714,94.6403571 52.05,95.3260714 54.6,96.6867857 L54.6,96.6867857 L54.6,101.551071 C51.6857143,99.7832143 49.3071429,98.9046429 47.4428571,98.9046429 C46.4892857,98.9046429 45.7285714,99.1082143 45.1392857,99.5153571 C44.55,99.9225 44.2607143,100.458214 44.2607143,101.1225 C44.2607143,101.701071 44.5178571,102.258214 45.0535714,102.761786 C45.5892857,103.286786 46.5214286,103.918929 47.85,104.658214 L47.85,104.658214 L49.6071429,105.654643 C53.7428571,108.001071 55.8107143,110.583214 55.8107143,113.433214 C55.8107143,115.468929 55.0178571,117.129643 53.4214286,118.436786 C51.8357143,119.733214 49.7892857,120.3975 47.2821429,120.3975 C45.8142857,120.3975 44.4857143,120.236786 43.3392857,119.926071 C42.1928571,119.604643 40.7464286,119.026071 39,118.179643 L39,118.179643 L39,112.886786 C40.3821429,113.861786 41.7964286,114.654643 43.2428571,115.254643 C44.7,115.854643 45.9107143,116.143929 46.9071429,116.143929 C47.9357143,116.143929 48.8142857,115.8975 49.5535714,115.393929 C50.2821429,114.890357 50.6571429,114.290357 50.6571429,113.593929 C50.6678571,112.876071 50.4214286,112.265357 49.9392857,111.793929 C49.4678571,111.311786 48.4392857,110.636786 46.8535714,109.736786 C43.6821429,107.968929 41.6142857,106.458214 40.6285714,105.204643 C39.6535714,103.961786 39.1607143,102.601071 39.1607143,101.111786 C39.1607143,99.2046429 39.9,97.6510714 41.3785714,96.4510714 C42.8678571,95.2403571 44.7857143,94.6403571 47.1214286,94.6403571 Z M135.311786,90 L135.3225,95.0892857 L135.3225,111.717857 C135.3225,114.546429 136.490357,115.971429 138.858214,115.971429 C140.615357,115.971429 142.479643,115.371429 144.440357,114.214286 L144.440357,114.214286 L144.440357,118.8 C142.554643,119.860714 140.486786,120.396429 138.258214,120.396429 C136.008214,120.396429 134.143929,119.742857 132.643929,118.425 C132.1725,118.017857 131.786786,117.578571 131.486786,117.085714 C131.176071,116.592857 130.918929,115.95 130.715357,115.146429 C130.511786,114.342857 130.404643,112.821429 130.404643,110.571429 L130.404643,110.571429 L130.404643,99.5571429 L126.086786,99.5571429 L126.086786,99.075 L130.1475,95.0892857 L135.311786,90 Z M115.374643,94.6339286 C118.674643,94.6339286 121.299643,95.7910714 123.260357,98.0946429 C125.145659,100.309615 126.129519,103.247723 126.202412,106.908966 L126.206786,107.351786 L126.206786,107.973214 L108.731786,107.973214 C108.860357,110.351786 109.653214,112.248214 111.131786,113.651786 C112.599643,115.055357 114.485357,115.751786 116.810357,115.751786 C119.905388,115.751786 122.774953,114.830317 125.409676,112.987378 L125.7675,112.730357 L125.7675,117.530357 C124.256786,118.548214 122.7675,119.255357 121.278214,119.694643 C119.788929,120.123214 118.0425,120.348214 116.049643,120.348214 C113.3175,120.348214 111.099643,119.769643 109.4175,118.644643 C107.724643,117.508929 106.374643,115.976786 105.346071,114.069643 C104.328214,112.141071 103.824643,109.933929 103.824643,107.416071 C103.824643,103.633929 104.896071,100.558929 107.038929,98.1803571 C109.171071,95.8339286 111.956786,94.6339286 115.374643,94.6339286 Z M93.6921429,94.6403571 C95.235,94.6403571 96.6814286,95.0475 98.01,95.8403571 C99.3492857,96.6439286 100.356429,97.7367857 101.042143,99.1403571 C101.749286,100.5225 102.092143,102.740357 102.092143,105.761786 L102.092143,105.761786 L102.092143,119.958214 L97.1742857,119.958214 L97.185,105.826071 C97.185,103.276071 96.7885714,101.465357 96.0064286,100.383214 C95.235,99.2796429 93.9492857,98.7439286 92.1278571,98.7439286 C89.8028571,98.7439286 87.8421429,99.9117857 86.2135714,102.226071 L86.2135714,102.226071 L86.2135714,119.958214 L81.1992857,119.958214 L81.1992857,95.1332143 L86.2135714,95.1332143 L86.2135714,98.2939286 C88.41,95.8510714 90.9064286,94.6403571 93.6921429,94.6403571 Z M159.598929,99.4982143 L159.5775,99.4982143 C157.220357,99.4982143 155.291786,100.280357 153.781071,101.823214 C152.270357,103.376786 151.520357,105.3375 151.520357,107.726786 C151.520357,110.116071 152.291786,112.044643 153.845357,113.555357 C155.3775,115.055357 157.381071,115.805357 159.8025,115.805357 C162.213214,115.805357 164.184643,115.044643 165.7275,113.523214 C167.270357,112.001786 168.041786,110.051786 168.041786,107.673214 C168.031071,105.316071 167.238214,103.376786 165.631071,101.823214 C164.034643,100.280357 162.020357,99.4982143 159.598929,99.4982143 Z M115.374643,98.9089286 C113.6175,98.9089286 112.171071,99.4446429 111.046071,100.494643 C109.991384,101.499107 109.275703,102.880246 108.916686,104.673371 L108.849643,105.0375 L121.3425,105.0375 C121.213929,103.066071 120.635357,101.566071 119.585357,100.494643 C118.546071,99.4446429 117.131786,98.9089286 115.374643,98.9089286 Z" id="Combined-Shape"></path>
            </g>
        </g>
    </g>
</svg>