<?xml version="1.0" encoding="UTF-8"?>
<svg width="214px" height="214px" viewBox="0 0 214 214" version="1.1" xmlns="http://www.w3.org/2000/svg" xmlns:xlink="http://www.w3.org/1999/xlink">
    <!-- Generator: Sketch 53.2 (72643) - https://sketchapp.com -->
    <title>syneto_logo</title>
    <desc>Created with Sketch.</desc>
    <g id="Exports" stroke="none" stroke-width="1" fill="none" fill-rule="evenodd">
        <g id="Homepage-New" transform="translate(-270.000000, -3963.000000)">
            <g id="Group-43" transform="translate(305.000000, 4047.000000)">
                <path d="M44.6060714,46.3248214 C44.6060714,47.09625 43.9739286,47.7283929 43.2025,47.7283929 C42.4310714,47.7283929 41.7989286,47.09625 41.7989286,46.3248214 C41.7989286,45.5533929 42.4310714,44.92125 43.2025,44.92125 C43.9739286,44.92125 44.6060714,45.5533929 44.6060714,46.3248214" id="Fill-1" fill="#AB206D"></path>
                <path d="M101.242857,46.3248214 C101.242857,47.09625 100.610714,47.7283929 99.8392857,47.7283929 C99.0678571,47.7283929 98.4357143,47.09625 98.4357143,46.3248214 C98.4357143,45.5533929 99.0678571,44.92125 99.8392857,44.92125 C100.610714,44.92125 101.242857,45.5533929 101.242857,46.3248214" id="Fill-4" fill="#AB206D"></path>
                <path d="M7.44035714,46.0323214 C7.0225,45.6894643 6.40107143,45.4001786 5.60821429,45.2073214 C4.8475,45.0144643 4.31178571,44.7894643 4.00107143,44.5323214 C3.67964286,44.2858929 3.52964286,43.9858929 3.52964286,43.6001786 C3.52964286,43.20375 3.69035714,42.8716071 4.03321429,42.6144643 C4.37607143,42.3358929 4.83678571,42.2073214 5.43678571,42.2073214 C6.03678571,42.2073214 6.51892857,42.3680357 6.8725,42.6894643 C7.22607143,43.0108929 7.3975,43.4180357 7.3975,43.9216071 L7.96535714,43.9216071 L7.98678571,43.8894643 C7.9975,43.2680357 7.76178571,42.7430357 7.29035714,42.3251786 C6.81892857,41.8966071 6.20821429,41.6823214 5.43678571,41.6823214 C4.6975,41.6823214 4.0975,41.8644643 3.62607143,42.22875 C3.15464286,42.5823214 2.91892857,43.05375 2.91892857,43.6108929 C2.91892857,44.1680357 3.13321429,44.6180357 3.55107143,44.9394643 C3.96892857,45.2716071 4.57964286,45.5394643 5.40464286,45.7430357 C6.16535714,45.9358929 6.69035714,46.1716071 6.99035714,46.42875 C7.29035714,46.6858929 7.45107143,47.0180357 7.45107143,47.4251786 C7.45107143,47.8430357 7.26892857,48.1858929 6.90464286,48.45375 C6.54035714,48.7108929 6.05821429,48.8394643 5.46892857,48.8394643 C4.89035714,48.8394643 4.37607143,48.7001786 3.93678571,48.4216071 C3.50821429,48.1323214 3.28321429,47.70375 3.28321429,47.1358929 L2.72607143,47.1358929 L2.71535714,47.1573214 C2.70464286,47.8858929 2.96178571,48.4323214 3.51892857,48.7966071 C4.08678571,49.1716071 4.72964286,49.3644643 5.46892857,49.3644643 C6.22964286,49.3644643 6.84035714,49.1823214 7.33321429,48.8394643 C7.81535714,48.4858929 8.0725,48.0144643 8.0725,47.4144643 C8.0725,46.8358929 7.85821429,46.3858929 7.44035714,46.0323214" id="Fill-7" fill="#231F20"></path>
                <polygon id="Fill-10" fill="#231F20" points="9.4 42.1173214 10.0107143 42.1173214 10.0107143 41.2601786 9.4 41.2601786"></polygon>
                <polygon id="Fill-12" fill="#231F20" points="9.4 49.2530357 10.0107143 49.2530357 10.0107143 43.7030357 9.4 43.7030357"></polygon>
                <path d="M17.5685714,43.6044643 C17.1185714,43.6044643 16.7435714,43.7223214 16.4435714,43.9366071 C16.1221429,44.1616071 15.8864286,44.4616071 15.715,44.8473214 C15.5971429,44.4294643 15.3935714,44.11875 15.115,43.9044643 C14.8257143,43.7116071 14.4721429,43.6044643 14.0435714,43.6044643 C13.6364286,43.6044643 13.2828571,43.7008929 12.9828571,43.8723214 C12.6935714,44.0544643 12.4471429,44.3008929 12.2757143,44.6330357 L12.2221429,43.7116071 L11.665,43.7116071 L11.665,49.2508929 L12.2971429,49.2508929 L12.2971429,45.3508929 C12.4042857,44.9758929 12.5757143,44.6866071 12.8328571,44.4616071 C13.0792857,44.2473214 13.4221429,44.1294643 13.8614286,44.1294643 C14.2792857,44.1294643 14.6328571,44.26875 14.8685714,44.56875 C15.115,44.8473214 15.2328571,45.3294643 15.2328571,46.0044643 L15.2328571,49.2508929 L15.8542857,49.2508929 L15.8542857,45.91875 L15.8542857,45.8223214 L15.8542857,45.7151786 C15.9185714,45.2544643 16.0685714,44.86875 16.3364286,44.5794643 C16.5828571,44.26875 16.9578571,44.1294643 17.4292857,44.1294643 C17.8578571,44.1294643 18.2007143,44.26875 18.4364286,44.5580357 C18.6828571,44.8366071 18.8007143,45.31875 18.8007143,46.0044643 L18.8007143,49.2508929 L19.4221429,49.2508929 L19.4221429,46.0258929 C19.4221429,45.1901786 19.2507143,44.5901786 18.9292857,44.19375 C18.6185714,43.8080357 18.1578571,43.6044643 17.5685714,43.6044643" id="Fill-13" fill="#231F20"></path>
                <path d="M24.8510714,46.6291071 C24.8510714,47.2933929 24.7117857,47.8291071 24.4332143,48.2255357 C24.1653571,48.6326786 23.7475,48.83625 23.2117857,48.83625 C22.8260714,48.83625 22.4832143,48.7505357 22.2260714,48.5791071 C21.9475,48.3969643 21.7546429,48.1719643 21.6153571,47.8505357 L21.6153571,45.1933929 C21.7439286,44.8719643 21.9475,44.6255357 22.1939286,44.4219643 C22.4510714,44.2183929 22.7939286,44.1326786 23.2010714,44.1326786 C23.7367857,44.1326786 24.1546429,44.3469643 24.4332143,44.7969643 C24.7117857,45.23625 24.8510714,45.8148214 24.8510714,46.5219643 L24.8510714,46.6291071 Z M23.3403571,43.6076786 C22.9439286,43.6076786 22.6010714,43.6933929 22.3117857,43.8541071 C22.0117857,44.0255357 21.7760714,44.26125 21.5939286,44.5719643 L21.5082143,43.7148214 L21.0046429,43.7148214 L21.0046429,51.38625 L21.6153571,51.38625 L21.6153571,48.5148214 C21.7975,48.7826786 22.0332143,48.9969643 22.3332143,49.13625 C22.6225,49.28625 22.9546429,49.36125 23.3510714,49.36125 C24.0153571,49.36125 24.5296429,49.1148214 24.9046429,48.6219643 C25.2796429,48.1291071 25.4725,47.4648214 25.4725,46.6398214 L25.4725,46.5219643 C25.4725,45.6433929 25.2796429,44.93625 24.9046429,44.4005357 C24.5296429,43.8648214 24.0046429,43.6076786 23.3403571,43.6076786 L23.3403571,43.6076786 Z" id="Fill-14" fill="#231F20"></path>
                <polygon id="Fill-15" fill="#231F20" points="26.9178571 49.2530357 27.5285714 49.2530357 27.5285714 41.2601786 26.9178571 41.2601786"></polygon>
                <polygon id="Fill-16" fill="#231F20" points="29.3071429 42.1173214 29.9178571 42.1173214 29.9178571 41.2601786 29.3071429 41.2601786"></polygon>
                <polygon id="Fill-17" fill="#231F20" points="29.3071429 49.2530357 29.9178571 49.2530357 29.9178571 43.7030357 29.3071429 43.7030357"></polygon>
                <path d="M33.6507143,41.1455357 C33.1471429,41.1455357 32.7507143,41.30625 32.4828571,41.60625 C32.1935714,41.90625 32.065,42.3348214 32.065,42.8919643 L32.065,43.70625 L31.1435714,43.70625 L31.1435714,44.2098214 L32.065,44.2098214 L32.065,49.25625 L32.6757143,49.25625 L32.6757143,44.2098214 L33.9935714,44.2098214 L33.9935714,43.70625 L32.6757143,43.70625 L32.6757143,42.8919643 C32.6757143,42.5169643 32.7614286,42.2276786 32.9435714,42.0026786 C33.115,41.7991071 33.3828571,41.6919643 33.715,41.6919643 C33.8328571,41.6919643 33.9185714,41.6919643 34.015,41.7133929 C34.1007143,41.7241071 34.1864286,41.7348214 34.2721429,41.75625 L34.3364286,41.2526786 C34.2292857,41.2205357 34.1114286,41.1991071 33.9828571,41.1776786 C33.8757143,41.15625 33.7578571,41.1455357 33.6507143,41.1455357" id="Fill-18" fill="#231F20"></path>
                <path d="M36.8628571,48.4076786 L36.8307143,48.4076786 L36.6378571,47.7433929 L35.1164286,43.7148214 L34.4307143,43.7148214 L36.5735714,49.1791071 L36.2735714,49.9291071 C36.1771429,50.2291071 36.0378571,50.4648214 35.8664286,50.6576786 C35.7164286,50.8505357 35.4914286,50.93625 35.2342857,50.93625 C35.1914286,50.93625 35.1271429,50.93625 35.0307143,50.9255357 C34.9342857,50.9148214 34.87,50.9148214 34.8378571,50.9041071 L34.7628571,51.4183929 C34.8164286,51.4398214 34.8807143,51.4505357 34.9878571,51.4719643 C35.095,51.4826786 35.1807143,51.4933929 35.2557143,51.4933929 C35.695,51.4933929 36.0271429,51.3541071 36.2521429,51.0969643 C36.4878571,50.8398214 36.67,50.5076786 36.8092857,50.1433929 L39.22,43.7148214 L38.5342857,43.7148214 L36.8628571,48.4076786 Z" id="Fill-19" fill="#231F20"></path>
                <path d="M48.8125,46.6291071 L50.3125,42.5898214 L50.3446429,42.5898214 L51.8232143,46.6291071 L48.8125,46.6291071 Z M50.0339286,41.7969643 L47.2160714,49.2541071 L47.8375,49.2541071 L48.6089286,47.1755357 L52.0267857,47.1755357 L52.7982143,49.2541071 L53.4410714,49.2541071 L50.6232143,41.7969643 L50.0339286,41.7969643 Z" id="Fill-20" fill="#231F20"></path>
                <path d="M55.1317857,44.7658929 C55.4210714,44.3373214 55.8603571,44.1230357 56.4603571,44.1230357 C56.8889286,44.1230357 57.2532143,44.2623214 57.5639286,44.5301786 C57.8532143,44.7873214 58.0139286,45.1408929 58.0139286,45.5908929 L58.5496429,45.5908929 L58.5603571,45.55875 C58.5710714,44.9801786 58.3889286,44.50875 57.9817857,44.1444643 C57.5746429,43.7801786 57.0710714,43.60875 56.4603571,43.60875 C55.7103571,43.60875 55.1317857,43.8658929 54.7139286,44.3908929 C54.3067857,44.9051786 54.0925,45.5694643 54.0925,46.3730357 L54.0925,46.5873214 C54.0925,47.4016071 54.2960714,48.0658929 54.7139286,48.5801786 C55.1210714,49.0944643 55.7103571,49.3623214 56.4603571,49.3623214 C57.0282143,49.3623214 57.5210714,49.1908929 57.9496429,48.8480357 C58.3675,48.5051786 58.5710714,48.0766071 58.5496429,47.5623214 L58.5389286,47.5301786 L58.0139286,47.5301786 C58.0139286,47.9373214 57.8532143,48.25875 57.5425,48.4944643 C57.2210714,48.7194643 56.8675,48.8373214 56.4603571,48.8373214 C55.8603571,48.8373214 55.4103571,48.6230357 55.1317857,48.1944643 C54.8532143,47.7766071 54.7139286,47.2408929 54.7139286,46.5873214 L54.7139286,46.3623214 C54.7139286,45.7301786 54.8532143,45.1944643 55.1317857,44.7658929" id="Fill-21" fill="#231F20"></path>
                <path d="M60.5725,44.7658929 C60.8510714,44.3373214 61.2903571,44.1230357 61.8903571,44.1230357 C62.3296429,44.1230357 62.6939286,44.2623214 62.9939286,44.5301786 C63.2939286,44.7873214 63.4439286,45.1408929 63.4439286,45.5908929 L63.9903571,45.5908929 L64.0010714,45.55875 C64.0117857,44.9801786 63.8189286,44.50875 63.4117857,44.1444643 C63.0153571,43.7801786 62.5010714,43.60875 61.8903571,43.60875 C61.1510714,43.60875 60.5617857,43.8658929 60.1546429,44.3908929 C59.7367857,44.9051786 59.5225,45.5694643 59.5225,46.3730357 L59.5225,46.5873214 C59.5225,47.4016071 59.7367857,48.0658929 60.1439286,48.5801786 C60.5617857,49.0944643 61.1510714,49.3623214 61.9010714,49.3623214 C62.4582143,49.3623214 62.9510714,49.1908929 63.3796429,48.8480357 C63.8082143,48.5051786 64.0117857,48.0766071 63.9903571,47.5623214 L63.9796429,47.5301786 L63.4439286,47.5301786 C63.4439286,47.9373214 63.2832143,48.25875 62.9832143,48.4944643 C62.6617857,48.7194643 62.3082143,48.8373214 61.9010714,48.8373214 C61.2903571,48.8373214 60.8510714,48.6230357 60.5725,48.1944643 C60.2939286,47.7766071 60.1439286,47.2408929 60.1439286,46.5873214 L60.1439286,46.3623214 C60.1439286,45.7301786 60.2939286,45.1944643 60.5725,44.7658929" id="Fill-22" fill="#231F20"></path>
                <path d="M68.86,45.9691071 L65.6135714,45.9691071 L65.6028571,45.9476786 C65.6564286,45.4226786 65.8385714,44.9941071 66.1385714,44.65125 C66.4492857,44.3083929 66.835,44.12625 67.2957143,44.12625 C67.7671429,44.12625 68.1635714,44.2976786 68.4421429,44.6083929 C68.7207143,44.9298214 68.86,45.3369643 68.86,45.8191071 L68.86,45.9691071 Z M67.2957143,43.60125 C66.6314286,43.60125 66.085,43.8691071 65.6242857,44.3941071 C65.1635714,44.9083929 64.9492857,45.5726786 64.9492857,46.3655357 L64.9492857,46.6441071 C64.9492857,47.4369643 65.1742857,48.0798214 65.635,48.5941071 C66.085,49.1083929 66.6742857,49.3548214 67.36,49.3548214 C67.7992857,49.3548214 68.185,49.30125 68.5064286,49.1726786 C68.8171429,49.0333929 69.085,48.8726786 69.2885714,48.6476786 L69.0421429,48.2191071 C68.8385714,48.4226786 68.6135714,48.5726786 68.335,48.6798214 C68.0778571,48.7869643 67.7457143,48.8405357 67.36,48.8405357 C66.8242857,48.8405357 66.3957143,48.62625 66.0528571,48.2083929 C65.7207143,47.7905357 65.5492857,47.2655357 65.5492857,46.6333929 L65.5492857,46.4941071 L69.4814286,46.4941071 L69.4814286,45.9691071 C69.4814286,45.2619643 69.2778571,44.6833929 68.8921429,44.2548214 C68.5064286,43.82625 67.96,43.60125 67.2957143,43.60125 L67.2957143,43.60125 Z" id="Fill-23" fill="#231F20"></path>
                <polygon id="Fill-24" fill="#231F20" points="70.7607143 49.2530357 71.3714286 49.2530357 71.3714286 41.2601786 70.7607143 41.2601786"></polygon>
                <path d="M76.6546429,45.9691071 L73.3975,45.9691071 L73.3867857,45.9476786 C73.4403571,45.4226786 73.6225,44.9941071 73.9332143,44.65125 C74.2332143,44.3083929 74.6296429,44.12625 75.0796429,44.12625 C75.5510714,44.12625 75.9475,44.2976786 76.2260714,44.6083929 C76.5046429,44.9298214 76.6546429,45.3369643 76.6546429,45.8191071 L76.6546429,45.9691071 Z M75.0796429,43.60125 C74.4260714,43.60125 73.8689286,43.8691071 73.4189286,44.3941071 C72.9582143,44.9083929 72.7332143,45.5726786 72.7332143,46.3655357 L72.7332143,46.6441071 C72.7332143,47.4369643 72.9582143,48.0798214 73.4189286,48.5941071 C73.8796429,49.1083929 74.4582143,49.3548214 75.1439286,49.3548214 C75.5832143,49.3548214 75.9796429,49.30125 76.2903571,49.1726786 C76.6117857,49.0333929 76.8796429,48.8726786 77.0832143,48.6476786 L76.8260714,48.2191071 C76.6332143,48.4226786 76.4082143,48.5726786 76.1296429,48.6798214 C75.8617857,48.7869643 75.5403571,48.8405357 75.1439286,48.8405357 C74.6189286,48.8405357 74.1796429,48.62625 73.8367857,48.2083929 C73.5153571,47.7905357 73.3439286,47.2655357 73.3439286,46.6333929 L73.3439286,46.4941071 L77.2653571,46.4941071 L77.2653571,45.9691071 C77.2653571,45.2619643 77.0617857,44.6833929 76.6760714,44.2548214 C76.2903571,43.82625 75.7546429,43.60125 75.0796429,43.60125 L75.0796429,43.60125 Z" id="Fill-25" fill="#231F20"></path>
                <path d="M80.7035714,43.6044643 C80.3285714,43.6044643 80.0071429,43.7008929 79.7392857,43.89375 C79.4714286,44.0866071 79.2464286,44.34375 79.0964286,44.6973214 L79.0964286,44.6330357 L79.0214286,43.7116071 L78.475,43.7116071 L78.475,49.2508929 L79.0964286,49.2508929 L79.0964286,45.4258929 C79.1928571,45.0508929 79.375,44.7401786 79.6214286,44.5258929 C79.8678571,44.3116071 80.1892857,44.2044643 80.5642857,44.2044643 L81.025,44.2366071 L81.1107143,43.6580357 C81.0571429,43.6473214 81.0035714,43.6366071 80.9285714,43.6258929 C80.8535714,43.6151786 80.7785714,43.6044643 80.7035714,43.6044643" id="Fill-26" fill="#231F20"></path>
                <path d="M85.4435714,47.7166071 C85.2935714,48.0380357 85.0578571,48.3058929 84.715,48.5094643 C84.3721429,48.7130357 83.9864286,48.8201786 83.5471429,48.8201786 C83.1828571,48.8201786 82.8935714,48.72375 82.69,48.5308929 C82.4864286,48.34875 82.3792857,48.0916071 82.3792857,47.8023214 C82.3792857,47.44875 82.54,47.14875 82.8828571,46.9130357 C83.2042857,46.6773214 83.6542857,46.5594643 84.2114286,46.5594643 L85.4435714,46.5594643 L85.4435714,47.7166071 Z M86.065,48.1344643 L86.065,45.4023214 C86.065,44.82375 85.8721429,44.37375 85.4971429,44.07375 C85.1328571,43.7630357 84.64,43.6023214 84.0185714,43.6023214 C83.4078571,43.6023214 82.9042857,43.77375 82.5078571,44.0951786 C82.1007143,44.4166071 81.9185714,44.7916071 81.94,45.2094643 L81.9507143,45.2416071 L82.5185714,45.2416071 C82.5185714,44.9308929 82.6471429,44.6630357 82.9364286,44.44875 C83.215,44.2344643 83.5685714,44.1273214 83.9971429,44.1273214 C84.4471429,44.1273214 84.8007143,44.2451786 85.0685714,44.4594643 C85.315,44.6951786 85.4435714,45.0058929 85.4435714,45.4023214 L85.4435714,46.0880357 L84.2221429,46.0880357 C83.4614286,46.0880357 82.8721429,46.2380357 82.4328571,46.54875 C81.9935714,46.8594643 81.7685714,47.2666071 81.7685714,47.7808929 C81.7685714,48.2630357 81.9185714,48.64875 82.2078571,48.9273214 C82.5185714,49.2166071 82.9364286,49.3558929 83.4721429,49.3558929 C83.9007143,49.3558929 84.2864286,49.2701786 84.6292857,49.0773214 C84.9721429,48.87375 85.24,48.6380357 85.4435714,48.3594643 C85.4435714,48.4880357 85.4542857,48.6273214 85.4757143,48.7666071 C85.4864286,48.8951786 85.5185714,49.0666071 85.5614286,49.2594643 L86.1935714,49.2594643 C86.14,49.0773214 86.1078571,48.8844643 86.0971429,48.7023214 C86.0757143,48.5201786 86.065,48.3380357 86.065,48.1344643 L86.065,48.1344643 Z" id="Fill-27" fill="#231F20"></path>
                <path d="M89.6703571,48.8051786 C89.5739286,48.8158929 89.4667857,48.8266071 89.3810714,48.8266071 C89.1560714,48.8266071 88.9846429,48.7408929 88.8560714,48.5908929 C88.7167857,48.4408929 88.6525,48.18375 88.6525,47.8194643 L88.6525,44.20875 L89.8739286,44.20875 L89.8739286,43.7051786 L88.6525,43.7051786 L88.6525,42.2908929 L88.0417857,42.2908929 L88.0417857,43.7051786 L87.0775,43.7051786 L87.0775,44.20875 L88.0417857,44.20875 L88.0417857,47.8194643 C88.0417857,48.3551786 88.1382143,48.7408929 88.3632143,48.9980357 C88.5667857,49.23375 88.8775,49.3623214 89.2739286,49.3623214 C89.4239286,49.3623214 89.5632143,49.3516071 89.7132143,49.3301786 C89.8632143,49.2980357 89.9810714,49.2658929 90.0882143,49.2230357 L89.9917857,48.7623214 C89.8739286,48.78375 89.7667857,48.8051786 89.6703571,48.8051786" id="Fill-28" fill="#231F20"></path>
                <path d="M94.7553571,45.9691071 L91.5089286,45.9691071 L91.4982143,45.9476786 C91.5517857,45.4226786 91.7339286,44.9941071 92.0339286,44.65125 C92.3339286,44.3083929 92.7303571,44.12625 93.1803571,44.12625 C93.6625,44.12625 94.0482143,44.2976786 94.3375,44.6083929 C94.6160714,44.9298214 94.7553571,45.3369643 94.7553571,45.8191071 L94.7553571,45.9691071 Z M93.1803571,43.60125 C92.5267857,43.60125 91.9696429,43.8691071 91.5196429,44.3941071 C91.0589286,44.9083929 90.8339286,45.5726786 90.8339286,46.3655357 L90.8339286,46.6441071 C90.8339286,47.4369643 91.0589286,48.0798214 91.5196429,48.5941071 C91.9803571,49.1083929 92.5589286,49.3548214 93.2553571,49.3548214 C93.6946429,49.3548214 94.0803571,49.30125 94.4017857,49.1726786 C94.7125,49.0333929 94.9803571,48.8726786 95.1839286,48.6476786 L94.9267857,48.2191071 C94.7339286,48.4226786 94.5089286,48.5726786 94.2303571,48.6798214 C93.9625,48.7869643 93.6410714,48.8405357 93.2553571,48.8405357 C92.7196429,48.8405357 92.2803571,48.62625 91.9482143,48.2083929 C91.6160714,47.7905357 91.4446429,47.2655357 91.4446429,46.6333929 L91.4446429,46.4941071 L95.3660714,46.4941071 L95.3660714,45.9691071 C95.3660714,45.2619643 95.1732143,44.6833929 94.7875,44.2548214 C94.3910714,43.82625 93.8553571,43.60125 93.1803571,43.60125 L93.1803571,43.60125 Z" id="Fill-29" fill="#231F20"></path>
                <path d="M108.358214,45.1633929 C108.058214,45.4741071 107.5975,45.6348214 106.976071,45.6348214 L105.015357,45.6348214 L105.015357,42.3133929 L106.976071,42.3133929 C107.5975,42.3133929 108.058214,42.4741071 108.368929,42.7848214 C108.668929,43.10625 108.829643,43.5026786 108.829643,43.9848214 C108.829643,44.45625 108.668929,44.8526786 108.358214,45.1633929 M106.976071,41.7991071 L104.404643,41.7991071 L104.404643,49.25625 L105.015357,49.25625 L105.015357,46.1598214 L106.976071,46.1598214 C107.758214,46.1598214 108.358214,45.95625 108.786786,45.5598214 C109.215357,45.1633929 109.440357,44.6276786 109.440357,43.9741071 C109.440357,43.3098214 109.215357,42.7848214 108.786786,42.3883929 C108.358214,41.9919643 107.758214,41.7991071 106.976071,41.7991071" id="Fill-30" fill="#231F20"></path>
                <path d="M112.951429,43.6044643 C112.587143,43.6044643 112.265714,43.7008929 111.987143,43.89375 C111.719286,44.0866071 111.505,44.34375 111.355,44.6973214 L111.355,44.6330357 L111.269286,43.7116071 L110.733571,43.7116071 L110.733571,49.2508929 L111.355,49.2508929 L111.355,45.4258929 C111.451429,45.0508929 111.633571,44.7401786 111.869286,44.5258929 C112.126429,44.3116071 112.437143,44.2044643 112.822857,44.2044643 L113.283571,44.2366071 L113.369286,43.6580357 C113.315714,43.6473214 113.251429,43.6366071 113.176429,43.6258929 C113.112143,43.6151786 113.037143,43.6044643 112.951429,43.6044643" id="Fill-31" fill="#231F20"></path>
                <path d="M118.151071,46.5658929 C118.151071,47.20875 117.979643,47.7444643 117.658214,48.18375 C117.336786,48.6123214 116.886786,48.8373214 116.318929,48.8373214 C115.729643,48.8373214 115.279643,48.6123214 114.958214,48.18375 C114.636786,47.7444643 114.465357,47.20875 114.465357,46.5658929 L114.465357,46.3944643 C114.465357,45.7623214 114.636786,45.2266071 114.958214,44.7873214 C115.279643,44.3480357 115.729643,44.1230357 116.308214,44.1230357 C116.886786,44.1230357 117.336786,44.3480357 117.658214,44.7873214 C117.979643,45.2266071 118.151071,45.7623214 118.151071,46.3944643 L118.151071,46.5658929 Z M116.308214,43.60875 C115.568929,43.60875 114.968929,43.8658929 114.529643,44.3908929 C114.079643,44.9158929 113.865357,45.5801786 113.865357,46.3944643 L113.865357,46.5658929 C113.865357,47.3908929 114.079643,48.0658929 114.529643,48.5694643 C114.968929,49.0944643 115.568929,49.3623214 116.318929,49.3623214 C117.0475,49.3623214 117.6475,49.0944643 118.086786,48.5694643 C118.536786,48.0658929 118.761786,47.3908929 118.761786,46.5658929 L118.761786,46.3944643 C118.761786,45.5801786 118.536786,44.9158929 118.086786,44.3908929 C117.636786,43.8658929 117.0475,43.60875 116.308214,43.60875 L116.308214,43.60875 Z" id="Fill-32" fill="#231F20"></path>
                <path d="M122.023214,48.8051786 C121.926786,48.8158929 121.819643,48.8266071 121.733929,48.8266071 C121.508929,48.8266071 121.3375,48.7408929 121.208929,48.5908929 C121.069643,48.4408929 121.005357,48.18375 121.005357,47.8194643 L121.005357,44.20875 L122.226786,44.20875 L122.226786,43.7051786 L121.005357,43.7051786 L121.005357,42.2908929 L120.394643,42.2908929 L120.394643,43.7051786 L119.430357,43.7051786 L119.430357,44.20875 L120.394643,44.20875 L120.394643,47.8194643 C120.394643,48.3551786 120.491071,48.7408929 120.716071,48.9980357 C120.919643,49.23375 121.230357,49.3623214 121.626786,49.3623214 C121.776786,49.3623214 121.916071,49.3516071 122.066071,49.3301786 C122.216071,49.2980357 122.333929,49.2658929 122.430357,49.2230357 L122.344643,48.7623214 C122.226786,48.78375 122.119643,48.8051786 122.023214,48.8051786" id="Fill-33" fill="#231F20"></path>
                <path d="M127.108214,45.9691071 L123.861786,45.9691071 L123.851071,45.9476786 C123.904643,45.4226786 124.086786,44.9941071 124.386786,44.65125 C124.686786,44.3083929 125.083214,44.12625 125.533214,44.12625 C126.015357,44.12625 126.401071,44.2976786 126.679643,44.6083929 C126.968929,44.9298214 127.108214,45.3369643 127.108214,45.8191071 L127.108214,45.9691071 Z M125.533214,43.60125 C124.879643,43.60125 124.3225,43.8691071 123.8725,44.3941071 C123.411786,44.9083929 123.186786,45.5726786 123.186786,46.3655357 L123.186786,46.6441071 C123.186786,47.4369643 123.411786,48.0798214 123.8725,48.5941071 C124.333214,49.1083929 124.911786,49.3548214 125.608214,49.3548214 C126.0475,49.3548214 126.433214,49.30125 126.754643,49.1726786 C127.065357,49.0333929 127.333214,48.8726786 127.536786,48.6476786 L127.279643,48.2191071 C127.086786,48.4226786 126.861786,48.5726786 126.583214,48.6798214 C126.315357,48.7869643 125.993929,48.8405357 125.608214,48.8405357 C125.0725,48.8405357 124.633214,48.62625 124.301071,48.2083929 C123.968929,47.7905357 123.7975,47.2655357 123.7975,46.6333929 L123.7975,46.4941071 L127.718929,46.4941071 L127.718929,45.9691071 C127.718929,45.2619643 127.526071,44.6833929 127.140357,44.2548214 C126.743929,43.82625 126.208214,43.60125 125.533214,43.60125 L125.533214,43.60125 Z" id="Fill-34" fill="#231F20"></path>
                <path d="M129.661429,44.7658929 C129.950714,44.3373214 130.39,44.1230357 130.979286,44.1230357 C131.418571,44.1230357 131.782857,44.2623214 132.082857,44.5301786 C132.382857,44.7873214 132.532857,45.1408929 132.532857,45.5908929 L133.079286,45.5908929 L133.09,45.55875 C133.100714,44.9801786 132.907857,44.50875 132.511429,44.1444643 C132.104286,43.7801786 131.600714,43.60875 130.979286,43.60875 C130.24,43.60875 129.650714,43.8658929 129.243571,44.3908929 C128.825714,44.9051786 128.622143,45.5694643 128.622143,46.3730357 L128.622143,46.5873214 C128.622143,47.4016071 128.825714,48.0658929 129.243571,48.5801786 C129.650714,49.0944643 130.24,49.3623214 130.99,49.3623214 C131.547143,49.3623214 132.050714,49.1908929 132.468571,48.8480357 C132.897143,48.5051786 133.100714,48.0766071 133.079286,47.5623214 L133.068571,47.5301786 L132.532857,47.5301786 C132.532857,47.9373214 132.372143,48.25875 132.072143,48.4944643 C131.750714,48.7194643 131.397143,48.8373214 130.99,48.8373214 C130.379286,48.8373214 129.94,48.6230357 129.661429,48.1944643 C129.382857,47.7766071 129.232857,47.2408929 129.232857,46.5873214 L129.232857,46.3623214 C129.232857,45.7301786 129.382857,45.1944643 129.661429,44.7658929" id="Fill-35" fill="#231F20"></path>
                <path d="M136.671786,48.7633929 C136.543214,48.7848214 136.446786,48.80625 136.350357,48.80625 C136.253929,48.8169643 136.1575,48.8276786 136.050357,48.8276786 C135.836071,48.8276786 135.664643,48.7419643 135.536071,48.5919643 C135.396786,48.4419643 135.3325,48.1848214 135.3325,47.8205357 L135.3325,44.2098214 L136.553929,44.2098214 L136.553929,43.70625 L135.3325,43.70625 L135.3325,42.2919643 L134.711071,42.2919643 L134.711071,43.70625 L133.7575,43.70625 L133.7575,44.2098214 L134.711071,44.2098214 L134.711071,47.8205357 C134.711071,48.35625 134.818214,48.7419643 135.043214,48.9883929 C135.2575,49.2348214 135.5575,49.3633929 135.953929,49.3633929 C136.093214,49.3633929 136.243214,49.3526786 136.393214,49.33125 C136.5325,49.2991071 136.661071,49.2669643 136.768214,49.2241071 L136.671786,48.7633929 Z" id="Fill-36" fill="#231F20"></path>
                <path d="M13.3310714,15.6573214 L11.5739286,14.6608929 C10.2453571,13.9216071 9.31321429,13.2894643 8.7775,12.7644643 C8.24178571,12.2608929 7.98464286,11.70375 7.98464286,11.1251786 C7.98464286,10.4608929 8.27392857,9.92517857 8.86321429,9.51803571 C9.4525,9.11089286 10.2132143,8.90732143 11.1667857,8.90732143 C13.0310714,8.90732143 15.4096429,9.78589286 18.3239286,11.55375 L18.3239286,6.68946429 C15.7739286,5.32875 13.2775,4.64303571 10.8453571,4.64303571 C8.50964286,4.64303571 6.59178571,5.24303571 5.1025,6.45375 C3.62392857,7.65375 2.88464286,9.20732143 2.88464286,11.1144643 C2.88464286,12.60375 3.3775,13.9644643 4.3525,15.2073214 C5.33821429,16.4608929 7.40607143,17.9716071 10.5775,19.7394643 C12.1632143,20.6394643 13.1917857,21.3144643 13.6632143,21.7966071 C14.1453571,22.2680357 14.3917857,22.87875 14.3810714,23.5966071 C14.3810714,24.2930357 14.0060714,24.8930357 13.2775,25.3966071 C12.5382143,25.9001786 11.6596429,26.1466071 10.6310714,26.1466071 C9.63464286,26.1466071 8.42392857,25.8573214 6.96678571,25.2573214 C5.52035714,24.6573214 4.10607143,23.8644643 2.72392857,22.8894643 L2.72392857,28.1823214 C4.47035714,29.02875 5.91678571,29.6073214 7.06321429,29.92875 C8.20964286,30.2394643 9.53821429,30.4001786 11.0060714,30.4001786 C13.5132143,30.4001786 15.5596429,29.7358929 17.1453571,28.4394643 C18.7417857,27.1323214 19.5346429,25.4716071 19.5346429,23.4358929 C19.5346429,20.5858929 17.4667857,18.00375 13.3310714,15.6573214" id="Fill-37" fill="#AB206D"></path>
                <path d="M61.7339286,5.84303571 C60.4053571,5.05017857 58.9589286,4.64303571 57.4160714,4.64303571 C54.6303571,4.64303571 52.1339286,5.85375 49.9375,8.29660714 L49.9375,5.13589286 L44.9232143,5.13589286 L44.9232143,29.9608929 L49.9375,29.9608929 L49.9375,12.22875 C51.5660714,9.91446429 53.5267857,8.74660714 55.8517857,8.74660714 C57.6732143,8.74660714 58.9589286,9.28232143 59.7303571,10.3858929 C60.5125,11.4680357 60.9089286,13.27875 60.9089286,15.82875 L60.8982143,29.9608929 L65.8160714,29.9608929 L65.8160714,15.7644643 C65.8160714,12.7430357 65.4732143,10.5251786 64.7660714,9.14303571 C64.0803571,7.73946429 63.0732143,6.64660714 61.7339286,5.84303571" id="Fill-38" fill="#AB206D"></path>
                <path d="M72.5735714,15.0401786 C72.9057143,13.06875 73.645,11.56875 74.77,10.4973214 C75.895,9.44732143 77.3414286,8.91160714 79.0985714,8.91160714 C80.8557143,8.91160714 82.27,9.44732143 83.3092857,10.4973214 C84.3592857,11.56875 84.9378571,13.06875 85.0664286,15.0401786 L72.5735714,15.0401786 Z M79.0985714,4.63660714 C75.6807143,4.63660714 72.895,5.83660714 70.7628571,8.18303571 C68.62,10.5616071 67.5485714,13.6366071 67.5485714,17.41875 C67.5485714,19.9366071 68.0521429,22.14375 69.07,24.0723214 C70.0985714,25.9794643 71.4485714,27.5116071 73.1414286,28.6473214 C74.8235714,29.7723214 77.0414286,30.3508929 79.7735714,30.3508929 C81.7664286,30.3508929 83.5128571,30.1258929 85.0021429,29.6973214 C86.4914286,29.2580357 87.9807143,28.5508929 89.4914286,27.5330357 L89.4914286,22.7330357 C86.7592857,24.7473214 83.77,25.7544643 80.5342857,25.7544643 C78.2092857,25.7544643 76.3235714,25.0580357 74.8557143,23.6544643 C73.3771429,22.2508929 72.5842857,20.3544643 72.4557143,17.9758929 L89.9307143,17.9758929 L89.9307143,17.3544643 C89.9307143,13.4866071 88.945,10.4008929 86.9842857,8.09732143 C85.0235714,5.79375 82.3985714,4.63660714 79.0985714,4.63660714 L79.0985714,4.63660714 Z" id="Fill-39" fill="#AB206D"></path>
                <path d="M102.582143,25.9741071 C100.214286,25.9741071 99.0464286,24.5491071 99.0464286,21.7205357 L99.0464286,5.09196429 L99.0357143,0.00267857143 L93.8714286,5.09196429 L89.8107143,9.07767857 L89.8107143,9.55982143 L94.1285714,9.55982143 L94.1285714,20.5741071 C94.1285714,22.8241071 94.2357143,24.3455357 94.4392857,25.1491071 C94.6428571,25.9526786 94.9,26.5955357 95.2107143,27.0883929 C95.5107143,27.58125 95.8964286,28.0205357 96.3678571,28.4276786 C97.8678571,29.7455357 99.7321429,30.3991071 101.982143,30.3991071 C104.210714,30.3991071 106.278571,29.8633929 108.164286,28.8026786 L108.164286,24.2169643 C106.203571,25.3741071 104.339286,25.9741071 102.582143,25.9741071" id="Fill-40" fill="#AB206D"></path>
                <path d="M129.451429,23.5258929 C127.908571,25.0473214 125.937143,25.8080357 123.526429,25.8080357 C121.105,25.8080357 119.101429,25.0580357 117.569286,23.5580357 C116.015714,22.0473214 115.244286,20.11875 115.244286,17.7294643 C115.244286,15.3401786 115.994286,13.3794643 117.505,11.8258929 C119.015714,10.2830357 120.944286,9.50089286 123.301429,9.50089286 L123.322857,9.50089286 C125.744286,9.50089286 127.758571,10.2830357 129.355,11.8258929 C130.962143,13.3794643 131.755,15.31875 131.765714,17.6758929 C131.765714,20.0544643 130.994286,22.0044643 129.451429,23.5258929 M132.997857,8.72946429 C130.565714,6.35089286 127.522857,5.15089286 123.88,5.08660714 L123.88,5.07589286 L102.172857,5.07589286 L102.172857,9.50089286 L113.305,9.50089286 C111.290714,11.7830357 110.272857,14.5366071 110.272857,17.79375 C110.272857,21.39375 111.515714,24.39375 114.022857,26.79375 C116.53,29.19375 119.637143,30.4044643 123.365714,30.4044643 C127.212143,30.4044643 130.415714,29.2044643 132.944286,26.8473214 C135.483571,24.4794643 136.758571,21.5116071 136.758571,17.9330357 C136.758571,14.2366071 135.494286,11.1723214 132.997857,8.72946429" id="Fill-41" fill="#AB206D"></path>
                <polygon id="Fill-42" fill="#AB206D" points="38.0135714 5.08982143 31.4992857 15.0326786 24.9207143 5.08982143 19.7885714 5.08982143 29.0242857 18.7291071 29.0242857 34.9076786 33.9421429 29.8291071 33.9421429 18.7183929 43.1457143 5.08982143"></polygon>
            </g>
        </g>
    </g>
</svg>