<svg id="Layer_1" data-name="Layer 1" xmlns="http://www.w3.org/2000/svg" viewBox="0 0 214 214"><defs><style>.cls-1{fill:none;}.cls-2{fill:#ee7900;}.cls-3{fill:#465059;}</style></defs><title>asd</title><rect class="cls-1" width="214" height="214"/><rect class="cls-2" x="30.95" y="93.07" width="3.83" height="5.32" transform="translate(-53.54 43.68) rotate(-40.1)"/><rect class="cls-2" x="35.37" y="88.39" width="3.16" height="4.53" transform="translate(-0.8 0.5) rotate(-0.76)"/><rect class="cls-2" x="38.52" y="93.59" width="3.39" height="2.37" transform="translate(-47.67 41.81) rotate(-36.04)"/><rect class="cls-2" x="35.68" y="102.5" width="1.58" height="2.03" transform="matrix(0.32, -0.95, 0.95, 0.32, -72.87, 105.26)"/><rect class="cls-2" x="29.01" y="100.33" width="3.77" height="2.9" transform="translate(-53.56 37.65) rotate(-36.03)"/><rect class="cls-2" x="60.81" y="91.8" width="5.83" height="4.19" transform="translate(-48.9 83.69) rotate(-50.68)"/><rect class="cls-2" x="66.26" y="96.24" width="3.39" height="2.36" transform="translate(-27.65 27.47) rotate(-19.03)"/><rect class="cls-2" x="64.22" y="100.87" width="2.52" height="3.26" transform="matrix(0.58, -0.81, 0.81, 0.58, -55.58, 95.89)"/><rect class="cls-2" x="57.8" y="103.95" width="2.64" height="3.67" transform="translate(-54.58 64.95) rotate(-41.11)"/><rect class="cls-2" x="54.44" y="92.71" width="2.9" height="3.77" transform="translate(-53.14 84.78) rotate(-54.3)"/><circle class="cls-3" cx="47.5" cy="96.92" r="3.35"/><path class="cls-3" d="M42.17,119l2.31,0.07c0-.69.68-16.86,14.67-17.52L59,99.25C42.9,100,42.17,118.82,42.17,119Z" transform="translate(0.4)"/><path class="cls-3" d="M35.37,100.43c0.07,0,7.36.09,9.24,6.32l1.49-2.15C43.61,98,35.83,98.14,35.5,98.12Z" transform="translate(0.4)"/><path class="cls-3" d="M71.24,100.78v11.48c0,2.37,1.17,4.09,3.42,4.09s3.44-1.72,3.44-4.09V100.78h2.35v11.73a5.78,5.78,0,1,1-11.55,0V100.78h2.35Z" transform="translate(0.4)"/><path class="cls-3" d="M82.75,118.25v-7a5.12,5.12,0,1,1,10.23,0v7h-2.2v-7a2.93,2.93,0,1,0-5.84,0v7h-2.2Z" transform="translate(0.4)"/><path class="cls-3" d="M97.57,102.27a1.32,1.32,0,1,1-1.32,1.32A1.28,1.28,0,0,1,97.57,102.27Zm-1.1,16v-12h2.2v12h-2.2Z" transform="translate(0.4)"/><path class="cls-3" d="M102.34,118.25v-13.1a4.06,4.06,0,0,1,4.24-4.37h1.85v2.1h-1.55a2,2,0,0,0-2.35,2.22v1.17h3.59v2.1h-3.59v9.88h-2.2Zm8.54-16a1.32,1.32,0,1,1-1.32,1.32A1.28,1.28,0,0,1,110.87,102.27Zm-1.1,16v-12H112v12h-2.2Z" transform="translate(0.4)"/><path class="cls-3" d="M118.19,114.3l-0.9-1.75,5.91-3.29a3.31,3.31,0,0,0-2.72-1.15,4.15,4.15,0,0,0,0,8.29c2.6,0,3.57-1.55,4-3.74l2.22,0.27a6,6,0,0,1-6.24,5.57,6.24,6.24,0,1,1,5.79-8.69Z" transform="translate(0.4)"/><path class="cls-3" d="M140.27,100.78v11.13c0,3.94-2.52,6.59-6,6.59-3.89,0-6.19-3-6.19-6.54a5.89,5.89,0,0,1,5.77-5.94,6.72,6.72,0,0,1,3.39.85v2.3a5.94,5.94,0,0,0-3-1,3.81,3.81,0,0,0-3.94,4.12,3.91,3.91,0,0,0,4,4.17c2.1,0,3.84-1.6,3.84-4.89V100.78h2.2Z" transform="translate(0.4)"/><path class="cls-3" d="M142.27,118.25V106.57c0-3.77,2.6-6.09,5.59-6.09a5.55,5.55,0,0,1,5.77,5.62c0,3.07-2.15,5.57-4.92,5.57h-3.17v-2.2H148a3.14,3.14,0,0,0,3.24-3.37,3.34,3.34,0,1,0-6.66.17v12h-2.35Z" transform="translate(0.4)"/><path class="cls-3" d="M160.69,106a6.24,6.24,0,1,1-6.21,6.24A6.14,6.14,0,0,1,160.69,106Zm0,10.38a4.15,4.15,0,1,0-3.92-4.14A3.88,3.88,0,0,0,160.69,116.4Z" transform="translate(0.4)"/><path class="cls-3" d="M168.32,116.15h6.14c1,0,1.42-.4,1.42-1.15,0-2.2-7.56-1.35-7.56-5.49,0-2.12,1.47-3.24,4.09-3.24h5.17v2.1H172c-1.07,0-1.4.3-1.42,1,0,2.07,7.56,1.2,7.56,5.49,0,2.27-1.6,3.34-3.72,3.34h-6.14v-2.1Z" transform="translate(0.4)"/><path class="cls-3" d="M186.67,108.36h-4.29v6.29c0,1.12.52,1.5,1.65,1.5h2.65v2.1h-2.94c-2.25,0-3.54-1.5-3.54-3.87V103.27h2.2v3h4.29v2.1Z" transform="translate(0.4)"/></svg>