<?xml version="1.0" encoding="UTF-8"?>
<svg width="214px" height="214px" viewBox="0 0 214 214" version="1.1" xmlns="http://www.w3.org/2000/svg" xmlns:xlink="http://www.w3.org/1999/xlink">
    <!-- Generator: Sketch 53.2 (72643) - https://sketchapp.com -->
    <title>unifiedpost</title>
    <desc>Created with Sketch.</desc>
    <defs>
        <polygon id="path-1" points="0.0440890208 0.382525223 18.2931098 0.382525223 18.2931098 21.6913947 0.0440890208 21.6913947"></polygon>
    </defs>
    <g id="Exports" stroke="none" stroke-width="1" fill="none" fill-rule="evenodd">
        <g id="Homepage-New" transform="translate(-769.000000, -4468.000000)">
            <g id="Group-32" transform="translate(788.000000, 4552.000000)">
                <polygon id="Fill-1" fill="#EB7A24" points="4.94478042 11.9320831 1.25875668 7.55496142 4.40804451 4.90356677 8.0935638 9.28068843"></polygon>
                <polygon id="Fill-2" fill="#EB7A24" points="10.7363323 0.504551929 7.33835015 0.550456973 7.40241543 5.41891395 10.801911 5.37351335"></polygon>
                <polygon id="Fill-3" fill="#EB7A24" points="10.3511335 7.43934125 13.2981365 5.29441543 14.7958516 7.35207122 11.8478398 9.49649258"></polygon>
                <polygon id="Fill-4" fill="#EB7A24" points="9.31095549 17.9352522 7.23917507 17.2421365 7.77792878 15.6314243 9.84920475 16.3240356"></polygon>
                <polygon id="Fill-5" fill="#EB7A24" points="0 14.8588576 1.83620178 17.3806083 5.11462908 14.9945549 3.2804451 12.4728042"></polygon>
                <polygon id="Fill-6" fill="#EB7A24" points="34.1110297 7.44473887 38.0815638 2.59797329 41.5683294 5.45518398 37.5982997 10.3009407"></polygon>
                <polygon id="Fill-7" fill="#EB7A24" points="40.250905 9.63395549 43.6907567 8.44748665 44.5185608 10.849178 41.0787092 12.0351424"></polygon>
                <polygon id="Fill-8" fill="#EB7A24" points="39.0947033 13.5745252 41.9433383 15.6205786 40.359362 17.8240208 37.510727 15.776454"></polygon>
                <polygon id="Fill-9" fill="#EB7A24" points="30.5331098 18.6717507 32.6729911 16.8047774 35.2638516 19.7754896 33.1239703 21.6424629"></polygon>
                <polygon id="Fill-10" fill="#EB7A24" points="28.6879792 4.74955786 31.9810356 7.11593769 30.1599674 9.6482819 26.8674154 7.28139763"></polygon>
                <g id="Group-31" transform="translate(7.000000, 5.217469)">
                    <path d="M16.5816231,4.47611276 C16.5816231,6.46566766 14.9668754,8.07890208 12.976816,8.07890208 C10.9862522,8.07890208 9.37251335,6.46566766 9.37251335,4.47611276 C9.37251335,2.48605341 10.9862522,0.871305638 12.976816,0.871305638 C14.9668754,0.871305638 16.5816231,2.48605341 16.5816231,4.47611276" id="Fill-11" fill="#47515A"></path>
                    <g id="Group-15" transform="translate(7.629080, 6.602374)">
                        <mask id="mask-2" fill="white">
                            <use xlink:href="#path-1"></use>
                        </mask>
                        <g id="Clip-14"></g>
                        <path d="M0.0440890208,21.6184006 L2.52296142,21.691546 C2.54465282,20.9510119 3.24886647,3.56611573 18.2931098,2.85887537 L18.1765816,0.382525223 C0.828510386,1.1977181 0.0506468843,21.4146024 0.0440890208,21.6184006" id="Fill-13" fill="#47515A" mask="url(#mask-2)"></path>
                    </g>
                    <path d="M0.365540059,8.2491543 C0.436667656,8.25419881 8.27180119,8.34449555 10.298181,15.0461276 L11.9018309,12.7387685 C9.2257181,5.68250742 0.861919881,5.79550445 0.505777448,5.77532641 L0.365540059,8.2491543 Z" id="Fill-16" fill="#47515A"></path>
                    <path d="M38.9191187,8.62602967 L38.9191187,20.9638932 C38.9191187,23.5123798 40.1797418,25.3627062 42.5935401,25.3627062 C45.0078427,25.3627062 46.2952018,23.5123798 46.2952018,20.9638932 L46.2952018,8.62602967 L48.8164481,8.62602967 L48.8164481,21.2322611 C48.8164481,24.880451 46.107546,27.7230326 42.5935401,27.7230326 C39.0800386,27.7230326 36.3978724,24.880451 36.3978724,21.2322611 L36.3978724,8.62602967 L38.9191187,8.62602967 Z" id="Fill-18" fill="#47515A"></path>
                    <path d="M51.2843234,27.4010415 L51.2843234,19.8907745 C51.2843234,16.5109525 53.6446499,14.2580742 56.7823353,14.2580742 C59.9210297,14.2580742 62.2813561,16.5109525 62.2813561,19.8907745 L62.2813561,27.4010415 L59.9210297,27.4010415 L59.9210297,19.8907745 C59.9210297,17.9062641 58.4727507,16.5109525 56.7823353,16.5109525 C55.0929288,16.5109525 53.6446499,17.9062641 53.6446499,19.8907745 L53.6446499,27.4010415 L51.2843234,27.4010415 Z" id="Fill-20" fill="#47515A"></path>
                    <path d="M66.0369436,27.4008902 L68.39727,27.4008902 L68.39727,14.5267953 L66.0369436,14.5267953 L66.0369436,27.4008902 Z M67.2168546,10.2354303 C68.1289021,10.2354303 68.6383976,10.9325816 68.6383976,11.6564688 C68.6383976,12.3808605 68.1289021,13.0780119 67.2168546,13.0780119 C66.3048071,13.0780119 65.7953116,12.3808605 65.7953116,11.6564688 C65.7953116,10.9325816 66.3048071,10.2354303 67.2168546,10.2354303 L67.2168546,10.2354303 Z" id="Fill-22" fill="#47515A"></path>
                    <path d="M80.3325816,27.4008902 L82.692908,27.4008902 L82.692908,14.5267953 L80.3325816,14.5267953 L80.3325816,27.4008902 Z M81.5135015,10.2354303 C82.4250445,10.2354303 82.9350445,10.9325816 82.9350445,11.6564688 C82.9350445,12.3808605 82.4250445,13.0780119 81.5135015,13.0780119 C80.6009496,13.0780119 80.091454,12.3808605 80.091454,11.6564688 C80.091454,10.9325816 80.6009496,10.2354303 81.5135015,10.2354303 L81.5135015,10.2354303 Z M72.3395549,27.4008902 L72.3395549,13.3191395 C72.3395549,10.3958457 74.244362,8.62623145 76.8992878,8.62623145 L78.8843027,8.62623145 L78.8843027,10.8786053 L77.221632,10.8786053 C75.665905,10.8786053 74.7003858,11.6302374 74.7003858,13.2661721 L74.7003858,14.5267953 L78.5624629,14.5267953 L78.5624629,16.7796736 L74.7003858,16.7796736 L74.7003858,27.4008902 L72.3395549,27.4008902 Z" id="Fill-24" fill="#47515A"></path>
                    <path d="M89.372092,23.163451 L88.4070772,21.2858843 L94.7636647,17.7456469 C93.9585608,16.940543 93.2881454,16.5107507 91.8403709,16.5107507 C89.3993323,16.5107507 87.6287092,18.3353501 87.6287092,20.9640445 C87.6287092,23.5927389 89.3993323,25.4168338 91.8403709,25.4168338 C94.6294807,25.4168338 95.6752077,23.7536588 96.1584718,21.3928279 L98.5455341,21.6879318 C98.2771662,25.0944896 95.5410237,27.6697122 91.8403709,27.6697122 C88.2723887,27.6697122 85.1609347,24.9335697 85.1609347,20.9640445 C85.1609347,16.9945193 88.2723887,14.2583769 91.8403709,14.2583769 C94.8443769,14.2583769 96.8556231,15.8408398 98.0627745,18.3353501 L89.372092,23.163451 Z" id="Fill-25" fill="#47515A"></path>
                    <path d="M113.110347,8.62602967 L113.110347,20.5880772 C113.110347,24.8259703 110.400941,27.6695608 106.619071,27.6695608 C102.43465,27.6695608 99.9668754,24.4511632 99.9668754,20.6420534 C99.9668754,17.0473353 102.863938,14.2582255 106.163552,14.2582255 C107.450911,14.2582255 108.684294,14.5265935 109.810733,15.1707774 L109.810733,17.6380475 C108.952662,17.0473353 107.638062,16.5111039 106.565095,16.5111039 C104.017617,16.5111039 102.327202,18.281727 102.327202,20.9371573 C102.327202,23.5653472 104.097825,25.4166825 106.619071,25.4166825 C108.872454,25.4166825 110.750021,23.7000356 110.750021,20.1587893 L110.750021,8.62602967 L113.110347,8.62602967 Z" id="Fill-26" fill="#47515A"></path>
                    <path d="M115.255979,27.4010415 L115.255979,14.8482819 C115.255979,10.798549 118.045593,8.30403858 121.263991,8.30403858 C125.073101,8.30403858 127.460163,11.1466202 127.460163,14.3387864 C127.460163,17.6378961 125.153813,20.3200623 122.176543,20.3200623 L118.769985,20.3200623 L118.769985,17.9597359 L121.452151,17.9597359 C123.437166,17.9597359 124.938917,16.5916647 124.938917,14.3387864 C124.938917,12.0591721 123.356454,10.664365 121.291231,10.664365 C119.279481,10.664365 117.77773,12.1393798 117.77773,14.5269466 L117.77773,27.4010415 L115.255979,27.4010415 Z" id="Fill-27" fill="#47515A"></path>
                    <path d="M135.051243,25.4167329 C137.491777,25.4167329 139.262401,23.592638 139.262401,20.9639436 C139.262401,18.3352493 137.491777,16.5111543 135.051243,16.5111543 C132.610205,16.5111543 130.839582,18.3352493 130.839582,20.9639436 C130.839582,23.592638 132.610205,25.4167329 135.051243,25.4167329 M135.051243,14.258276 C138.618721,14.258276 141.729671,16.9944184 141.729671,20.9639436 C141.729671,24.9334688 138.618721,27.6696113 135.051243,27.6696113 C131.483766,27.6696113 128.372312,24.9334688 128.372312,20.9639436 C128.372312,16.9944184 131.483766,14.258276 135.051243,14.258276" id="Fill-28" fill="#47515A"></path>
                    <path d="M143.258712,25.1482641 L149.856932,25.1482641 C150.956635,25.1482641 151.385923,24.7189763 151.385923,23.9148813 C151.385923,21.5545549 143.258712,22.4660979 143.258712,18.0128042 C143.258712,15.7336944 144.841175,14.526543 147.657525,14.526543 L153.209513,14.526543 L153.209513,16.7794214 L147.254973,16.7794214 C146.101294,16.7794214 145.752718,17.1017656 145.726487,17.906365 C145.699246,20.1325074 153.853193,19.1932196 153.853193,23.8074332 C153.853193,26.2479674 152.13705,27.4011424 149.856932,27.4011424 L143.258712,27.4011424 L143.258712,25.1482641 Z" id="Fill-29" fill="#47515A"></path>
                    <path d="M162.972659,16.7795223 L158.359454,16.7795223 L158.359454,23.5386617 C158.359454,24.7458131 158.922421,25.148365 160.129573,25.148365 L162.972659,25.148365 L162.972659,27.4012433 L159.808237,27.4012433 C157.393935,27.4012433 155.999128,25.7920445 155.999128,23.2435579 L155.999128,11.3077418 L158.359454,11.3077418 L158.359454,14.5266439 L162.972659,14.5266439 L162.972659,16.7795223 Z" id="Fill-30" fill="#47515A"></path>
                </g>
            </g>
        </g>
    </g>
</svg>