<?xml version="1.0" encoding="UTF-8"?>
<svg width="214px" height="214px" viewBox="0 0 214 214" version="1.1" xmlns="http://www.w3.org/2000/svg" xmlns:xlink="http://www.w3.org/1999/xlink">
    <!-- Generator: Sketch 53.2 (72643) - https://sketchapp.com -->
    <title>visma_logo</title>
    <desc>Created with Sketch.</desc>
    <g id="Exports" stroke="none" stroke-width="1" fill="none" fill-rule="evenodd">
        <g id="Homepage-New" transform="translate(-969.000000, -3963.000000)">
            <g id="Group-6" transform="translate(1003.000000, 4054.000000)">
                <path d="M35.6887221,14.2700044 C30.8286632,8.74081324 22.3018103,4.84841618 14.5741632,4.19421029 L27.9000897,24.5146809 L3.23644265,6.43659265 C-1.06366029,9.42273971 -1.20141029,14.8406221 3.56183971,20.2585044 C9.78916324,27.3379162 22.0288691,31.7369603 30.8994574,30.0796956 C39.7734574,28.4262691 41.9164721,21.3481368 35.6887221,14.2700044" id="Fill-1" fill="#D91C52"></path>
                <path d="M141.521535,6.028375 C140.117168,6.028375 138.991285,4.89311029 138.991285,3.50921324 C138.991285,2.12531618 140.117168,1.00753676 141.521535,1.00753676 C142.898609,1.00753676 144.035579,2.12531618 144.035579,3.50921324 C144.035579,4.89311029 142.898609,6.028375 141.521535,6.028375 L141.521535,6.028375 Z M141.521535,0.426257353 C139.789212,0.426257353 138.405741,1.79565441 138.405741,3.50921324 C138.405741,5.22447794 139.789212,6.60965441 141.521535,6.60965441 C143.241065,6.60965441 144.618565,5.22447794 144.618565,3.50921324 C144.618565,1.79565441 143.241065,0.426257353 141.521535,0.426257353 L141.521535,0.426257353 Z M141.492962,3.302375 L141.12705,3.302375 L141.12705,2.30016912 L141.492962,2.30016912 C141.752256,2.30016912 141.921138,2.43322794 141.921138,2.77227206 C141.921138,3.00469853 141.821771,3.302375 141.492962,3.302375 L141.492962,3.302375 Z M142.01155,3.54247794 L142.01155,3.52755147 C142.547624,3.44311029 142.739962,3.10449265 142.739962,2.64731618 C142.739962,2.03447794 142.3813,1.70311029 141.821771,1.70311029 L140.310359,1.70311029 L140.310359,5.29271324 L141.12705,5.29271324 L141.12705,3.80774265 L141.337726,3.80774265 C141.970609,3.80774265 141.906212,4.17408088 141.906212,4.59543382 C141.906212,4.83511029 141.906212,5.07777206 142.01155,5.29271324 L142.817153,5.29271324 C142.739962,5.14259559 142.725035,4.47218382 142.725035,4.23933088 C142.725035,3.59322794 142.18555,3.55313971 142.01155,3.54247794 L142.01155,3.54247794 Z M88.9650059,14.9202868 C87.6971088,12.7469926 86.2586235,10.2811397 87.5998735,7.07280147 C88.0566235,5.97634559 88.7330059,4.90675735 89.6140941,4.29221324 L83.4805941,4.29221324 C83.4805941,4.29221324 83.0374912,5.12084559 82.8340647,5.60488971 C80.6974471,10.7302132 82.7125206,14.4695074 84.6593588,18.0855515 C86.2799471,21.0913162 87.9551235,24.196875 86.5341235,27.5954191 C86.1174618,28.5950662 85.3481088,29.4740221 84.6482706,30.0245956 L90.8274029,30.0245956 C90.8274029,30.0245956 91.1685794,29.3631397 91.3161382,29.0125809 C93.3836676,24.0680809 92.2855059,20.5983162 89.5194176,15.888375 C89.3420059,15.5651103 89.1483882,15.2397132 88.9650059,14.9202868 L88.9650059,14.9202868 Z M110.529065,4.29221324 L108.467932,19.4856544 L108.399697,19.4856544 L105.888212,4.29221324 L99.1410206,4.29221324 L96.8700647,30.0373897 L102.377932,30.0373897 L103.133638,11.4974338 L103.199315,11.4974338 L103.199315,11.9742279 L104.061638,17.7094044 L106.574403,30.0373897 L110.529065,30.0373897 L112.732638,17.8467279 L113.559991,11.4974338 L113.628226,11.4974338 L114.869256,30.0373897 L120.134035,30.0373897 L117.414006,4.29221324 L110.529065,4.29221324 Z M71.7714176,30.0373897 L76.9005794,30.0373897 L76.9005794,4.29221324 L71.7714176,4.29221324 L71.7714176,30.0373897 Z M59.4216824,16.5830956 C59.0088588,18.0855515 58.9022412,19.5555956 58.6293,21.057625 L58.5610647,21.057625 C58.2501676,19.5875809 58.0791529,18.1200956 57.6322118,16.6526103 L54.5339029,4.29221324 L49.0298735,4.29221324 L56.5297853,30.0373897 L60.7300941,30.0373897 L67.9191088,4.29221324 L62.5506971,4.29221324 L59.4216824,16.5830956 Z M130.247359,4.29221324 L123.055785,30.0373897 L128.422491,30.0373897 L131.555344,17.744375 C131.967315,16.2423456 132.071374,14.7748603 132.344315,13.2728309 L132.412976,13.2728309 C132.725579,14.7398897 132.896594,16.2090809 133.344815,17.6765662 L136.439285,30.0373897 L141.947153,30.0373897 L134.443829,4.29221324 L130.247359,4.29221324 Z" id="Fill-3" fill="#323232"></path>
            </g>
        </g>
    </g>
</svg>