<?xml version="1.0" encoding="UTF-8"?>
<svg width="214px" height="214px" viewBox="0 0 214 214" version="1.1" xmlns="http://www.w3.org/2000/svg" xmlns:xlink="http://www.w3.org/1999/xlink">
    <!-- Generator: Sketch 53.2 (72643) - https://sketchapp.com -->
    <title>wevideo_logo</title>
    <desc>Created with Sketch.</desc>
    <defs>
        <polygon id="path-1" points="0.107596923 0.288030769 9.50227385 0.288030769 9.50227385 9.35585538 0.107596923 9.35585538"></polygon>
        <polygon id="path-3" points="0 0.306774096 22.4665552 0.306774096 22.4665552 23.5885692 0 23.5885692"></polygon>
    </defs>
    <g id="Exports" stroke="none" stroke-width="1" fill="none" fill-rule="evenodd">
        <g id="Homepage-New" transform="translate(-736.000000, -4210.000000)">
            <g id="Group-15" transform="translate(766.000000, 4297.000000)">
                <g id="Group-3" transform="translate(87.323077, 0.050532)">
                    <mask id="mask-2" fill="white">
                        <use xlink:href="#path-1"></use>
                    </mask>
                    <g id="Clip-2"></g>
                    <path d="M9.14452,3.04185538 C8.90928923,2.49388615 8.58233538,2.01564 8.16873538,1.60914769 C7.75208923,1.20197846 7.25861231,0.880778462 6.68559692,0.643516923 C6.11122769,0.406593846 5.49082769,0.287793846 4.81661231,0.287793846 C4.14442769,0.287793846 3.51928923,0.406593846 2.94762769,0.643516923 C2.37495077,0.880778462 1.87605846,1.20265538 1.45399692,1.61490154 C1.02990462,2.02579385 0.700581538,2.50945538 0.461627692,3.06080923 C0.227073846,3.61317846 0.107596923,4.20108615 0.107596923,4.82419385 L0.107596923,4.84754769 C0.107596923,5.47065538 0.227073846,6.05653231 0.461627692,6.60450154 C0.700581538,7.15280923 1.02516615,7.63004 1.44181231,8.03653231 C1.85541231,8.44404 2.35024308,8.76557846 2.92190462,9.00216308 C3.49762769,9.23874769 4.11972,9.35585538 4.79088923,9.35585538 C5.46476615,9.35585538 6.08821231,9.23874769 6.66055077,9.00216308 C7.23424308,8.76557846 7.73381231,8.44336308 8.15485846,8.03111692 C8.57928923,7.62022462 8.90928923,7.13791692 9.14452,6.58622462 C9.38212,6.03487077 9.50227385,5.44628615 9.50227385,4.82419385 L9.50227385,4.79914769 C9.50227385,4.17604 9.38212,3.59016308 9.14452,3.04185538" id="Fill-1" fill="#0089CC" mask="url(#mask-2)"></path>
                </g>
                <path d="M94.5916738,11.6167446 L85.0622892,11.6167446 C84.91032,11.6167446 84.7756123,11.7111754 84.7268738,11.8529908 L80.1613662,24.5703446 L75.5992431,11.8529908 C75.54712,11.7111754 75.4117354,11.6167446 75.2614585,11.6167446 L69.6897046,11.6167446 C69.5712431,11.6167446 69.4592123,11.6752985 69.3918585,11.7734523 C69.3275508,11.8726215 69.3136738,11.9964985 69.3566585,12.1068369 L77.3795508,32.1109292 C77.43472,32.2463138 77.5640123,32.3360062 77.7105662,32.3360062 L82.4960738,32.3360062 C82.6402585,32.3360062 82.77192,32.2463138 82.8287815,32.1109292 L89.1373662,16.3775446 L89.2429662,16.3981908 L89.2429662,31.9789292 C89.2429662,32.1765908 89.4020431,32.3360062 89.6013969,32.3360062 L94.5916738,32.3360062 C94.7900123,32.3360062 94.9501046,32.1765908 94.9501046,31.9789292 L94.9501046,11.9744985 C94.9501046,11.77616 94.7900123,11.6167446 94.5916738,11.6167446" id="Fill-4" fill="#0089CC"></path>
                <path d="M148.047105,21.9953631 C148.047105,22.7291477 147.919843,23.4345015 147.668705,24.0901015 C147.41452,24.7473938 147.062182,25.3305631 146.617443,25.8199785 C146.172028,26.31244 145.623382,26.7091169 144.985382,26.9985015 C144.342982,27.2882246 143.627135,27.43444 142.856797,27.43444 C142.08172,27.43444 141.36452,27.2845015 140.727197,26.9832708 C140.085474,26.6823785 139.531074,26.2762246 139.080582,25.7776708 C138.625351,25.2774246 138.26692,24.6908708 138.012735,24.0305323 C137.761258,23.3756092 137.634335,22.6722862 137.634335,21.93884 L137.634335,21.8802862 C137.634335,21.1434554 137.756858,20.4387785 137.999197,19.7845323 C138.240858,19.1275785 138.593197,18.5450862 139.048428,18.0546554 C139.50332,17.5642246 140.05332,17.1668708 140.682182,16.8757938 C141.311043,16.5864092 142.021812,16.4398554 142.796889,16.4398554 C143.570612,16.4398554 144.287812,16.5911477 144.926489,16.8886554 C145.564489,17.1895477 146.125997,17.5957015 146.588335,18.0986554 C147.053382,18.59924 147.415874,19.1878246 147.668705,19.8430862 C147.919843,20.4976708 148.047105,21.20404 148.047105,21.93884 L148.047105,21.9953631 Z M110.963228,22.0007785 C110.963228,23.66804 110.433535,24.97044 109.38972,25.8727785 C108.346243,26.7751169 106.94772,27.2333938 105.235782,27.2333938 L102.892612,27.2333938 L102.892612,16.7085938 L105.235782,16.7085938 C106.94772,16.7085938 108.344889,17.1716092 109.38972,18.0837631 C110.433535,18.9982862 110.963228,20.2959477 110.963228,21.9418862 L110.963228,22.0007785 Z M122.025166,17.5862246 C122.621874,16.9282554 123.402705,16.5948708 124.345658,16.5948708 C125.312643,16.5948708 126.120212,16.9282554 126.742305,17.5862246 C127.361012,18.2452092 127.737043,19.1455169 127.861935,20.2600708 L120.82972,20.2600708 C121.026366,19.1465323 121.42812,18.24724 122.025166,17.5862246 L122.025166,17.5862246 Z M152.984582,17.7754246 C152.434582,16.5024708 151.666951,15.3757323 150.698951,14.42804 C149.733658,13.4800092 148.568674,12.7218554 147.236489,12.1701631 C145.903966,11.6201631 144.434705,11.3422862 142.870674,11.3422862 C141.304951,11.3422862 139.837382,11.6201631 138.503843,12.1701631 C137.171658,12.7218554 135.99652,13.48644 135.012951,14.44124 C134.348212,15.0863477 133.77452,15.8238554 133.297289,16.6439477 C132.842397,15.79644 132.735105,15.5013015 132.041258,14.6622554 C131.209997,13.65804 130.14012,12.8447169 128.857689,12.2459785 C127.575597,11.6499477 126.043382,11.3487169 124.307751,11.3487169 C122.815812,11.3487169 121.430828,11.62524 120.189689,12.1718554 C118.948889,12.7171169 117.860058,13.4789938 116.949935,14.4378554 C116.353905,15.0653631 115.852982,15.7754554 115.431935,16.5447785 C114.967566,15.7649631 114.405382,15.0714554 113.761966,14.4855785 C112.767566,13.5825631 111.534551,12.87044 110.092705,12.3701938 C108.649843,11.8699477 106.984612,11.6167785 105.139997,11.6167785 L97.5093815,11.6167785 C97.3103662,11.6167785 97.1509508,11.7761938 97.1509508,11.9745323 L97.1509508,31.9684708 C97.1509508,32.1654554 97.3103662,32.3238554 97.5093815,32.3238554 L105.02052,32.3238554 C106.866489,32.3238554 108.54492,32.0601938 110.005043,31.5409938 C111.468551,31.0207785 112.717135,30.2886862 113.715597,29.3663785 C114.354612,28.7788092 115.387258,27.3494862 115.406889,27.3217323 C116.131874,28.4945015 116.705566,29.1869938 116.705566,29.1869938 L116.801351,29.2892092 C116.909997,29.4083477 117.018643,29.5278246 117.136766,29.6405323 C118.091228,30.5482862 119.244705,31.2661631 120.565382,31.7755477 C121.879628,32.2859477 123.352612,32.54284 124.945074,32.54284 C127.744151,32.54284 130.693166,30.9067169 130.811628,30.84004 L131.723782,30.3414862 C131.884889,30.2538246 131.953935,30.0619169 131.885566,29.89404 L130.313074,25.9983477 C130.274828,25.9042554 130.198335,25.8297938 130.103228,25.7956092 C130.00812,25.7607477 129.901843,25.7685323 129.812151,25.8159169 L129.020151,26.2366246 C128.934182,26.2779169 126.868551,27.2222246 125.320766,27.2222246 C124.202151,27.2222246 123.250735,26.9450246 122.493935,26.3997631 C121.737474,25.8528092 121.214212,25.01004 120.942089,23.8948092 L132.050397,23.8948092 C132.19052,24.6671785 132.408828,25.4297323 132.696858,26.1009015 C133.249905,27.3755477 134.015843,28.5002554 134.982489,29.4469323 C135.947782,30.3922554 137.112428,31.1521015 138.446305,31.7034554 C139.778828,32.2527785 141.249105,32.5320092 142.810766,32.5320092 C144.373443,32.5320092 145.842366,32.2527785 147.177935,31.7034554 C148.511135,31.1521015 149.685597,30.3888708 150.671197,29.4330554 C151.654766,28.4769015 152.431535,27.3403477 152.984582,26.0565631 C153.533905,24.7710862 153.813135,23.3861015 153.813135,21.93884 L153.813135,21.8802862 C153.813135,20.42964 153.533905,19.0490554 152.984582,17.7754246 L152.984582,17.7754246 Z" id="Fill-6" fill="#0089CC"></path>
                <path d="M64.1005538,17.5857508 C64.6959077,16.9284585 65.4764,16.5947354 66.4193538,16.5947354 C67.3866769,16.5947354 68.1939077,16.9284585 68.8143077,17.5857508 C69.2881538,18.0890431 69.6195077,18.7334738 69.8049846,19.5058431 C69.8973846,19.8896585 69.6100308,20.2599354 69.2153846,20.2599354 L63.6663077,20.2599354 C63.2659077,20.2599354 62.9684,19.8764585 63.0807692,19.4916277 C63.3044923,18.7263662 63.646,18.0873508 64.1005538,17.5857508 L64.1005538,17.5857508 Z M72.3867692,25.9982123 C72.3485231,25.90412 72.2720308,25.8296585 72.1769231,25.7954738 C72.0821538,25.7606123 71.9755385,25.7687354 71.8858462,25.8157815 L71.0955385,26.2368277 C71.0082154,26.27812 68.9422462,27.2224277 67.3941231,27.2224277 C66.2758462,27.2224277 65.3247692,26.9448892 64.5693231,26.3996277 C64.0139077,25.9988892 63.5854154,25.4397508 63.2885846,24.7306738 C63.1220615,24.3336585 63.4209231,23.8950123 63.8514462,23.8950123 L72.9364308,23.8950123 C73.3662769,23.8950123 73.6600615,23.4600892 73.4996308,23.06172 L69.0075692,11.8955354 C68.9300615,11.7029508 68.7601538,11.56012 68.5557231,11.5252585 C67.8730462,11.4081508 67.1477231,11.3485815 66.3817846,11.3485815 C64.8908615,11.3485815 63.5062154,11.6254431 62.2637231,12.17172 C61.0246154,12.7169815 59.9337538,13.47852 59.0236308,14.43772 C58.1152,15.3952277 57.4027385,16.5311046 56.9082462,17.80812 C56.7779385,18.14692 56.6550769,18.5320892 56.5403385,18.9690431 L55.6968923,21.6882431 C55.5222462,22.2511046 54.7285538,22.2599046 54.5413846,21.7007662 L51.2505231,11.8542431 C51.2014462,11.7090431 51.0636923,11.6091969 50.9090154,11.6091969 L46.5398154,11.6091969 C46.3844615,11.6091969 46.2477231,11.7090431 46.1996615,11.8542431 L42.9602462,21.6591354 C42.7740923,22.2226738 41.9732923,22.2115046 41.8023692,21.6432277 L38.8662154,11.8596585 C38.8201846,11.7090431 38.6807385,11.6047969 38.5230154,11.6047969 L33.2836308,11.6047969 C33.1688923,11.6047969 33.0602462,11.6599662 32.9925538,11.7527046 C32.9252,11.84612 32.9069231,11.9662738 32.9428,12.0752585 L39.5478769,32.0908585 C39.5969538,32.2363969 39.7333538,32.3359046 39.8880308,32.3359046 L44.3215385,32.3359046 C44.4731692,32.3359046 44.6095692,32.2387662 44.66,32.0962738 L48.1021538,22.1431354 C48.2906769,21.5985508 49.06,21.5978738 49.2492,22.14212 L52.7072615,32.0962738 C52.7580308,32.2387662 52.8937538,32.3359046 53.0460615,32.3359046 L57.4795692,32.3359046 C57.6349231,32.3359046 57.772,32.2363969 57.8210769,32.0908585 L58.7792615,29.1868585 L58.8750462,29.2890738 C58.9836923,29.4085508 59.0926769,29.5276892 59.2104615,29.6403969 C60.1662769,30.5481508 61.3200923,31.2660277 62.6390769,31.7754123 C63.9533231,32.2861508 65.4263077,32.5427046 67.0204615,32.5427046 C69.8178462,32.5427046 72.7668615,30.9065815 72.8863385,30.8399046 L73.7978154,30.3416892 C73.9585846,30.2540277 74.0276308,30.0617815 73.9592615,29.8939046 L72.3867692,25.9982123 Z" id="Fill-8" fill="#555555"></path>
                <g id="Group-12" transform="translate(0.000000, 8.850532)">
                    <mask id="mask-4" fill="white">
                        <use xlink:href="#path-3"></use>
                    </mask>
                    <g id="Clip-11"></g>
                    <path d="M21.5811538,7.39758462 C20.0932769,6.86924615 2.66453846,0.700107692 1.793,0.395830769 C0.705861538,0.0157384615 -0.155184615,0.916723077 0.0235230769,1.87863077 C0.161615385,2.62053846 3.63829231,21.5016154 3.87115385,22.5701385 C4.0238,23.2707538 4.29321538,23.5455846 4.69632308,23.5885692 C4.7278,23.5882308 4.75826154,23.5872154 4.79075385,23.5872154 C6.90072308,23.5872154 10.7426,9.30346154 12.9629077,9.30346154 C14.4981692,9.30346154 15.8144462,13.3081385 16.3844154,14.6406615 C19.2413692,12.1113385 21.6546,9.93841538 21.9978,9.63921538 C22.7701692,8.96635385 22.5582923,7.74450769 21.5811538,7.39758462" id="Fill-10" fill="#0089CC" mask="url(#mask-4)"></path>
                </g>
                <path d="M13.0141508,19.4829969 C12.3131969,19.4829969 9.25350462,28.2670892 7.24608923,31.5701354 C8.92655077,30.0426585 12.3670123,27.0377969 15.4107969,24.3521046 C15.0936585,23.0158585 13.6947969,19.4829969 13.0141508,19.4829969" id="Fill-13" fill="#444444"></path>
            </g>
        </g>
    </g>
</svg>