<?xml version="1.0" encoding="UTF-8"?>
<svg width="40px" height="48px" viewBox="0 0 40 48" version="1.1" xmlns="http://www.w3.org/2000/svg" xmlns:xlink="http://www.w3.org/1999/xlink">
    <!-- Generator: Sketch 63.1 (92452) - https://sketch.com -->
    <title>calendar</title>
    <desc>Created with Sketch.</desc>
    <g id="Final" stroke="none" stroke-width="1" fill="none" fill-rule="evenodd">
        <g id="Add-to-calendar-320" transform="translate(-98.000000, -280.000000)">
            <g id="Group-18" transform="translate(98.000000, 280.000000)">
                <g id="calendar">
                    <path d="M40,8 L40,48 L0,48 L0,8 L40,8 Z M38,10 L2,10 L2,46 L38,46 L38,10 Z" id="Rectangle" fill="#747B8B" fill-rule="nonzero"></path>
                    <g id="Group-15" transform="translate(4.965517, 13.241379)">
                        <path d="M2.48275862,24.8275862 C3.85394834,24.8275862 4.96551724,25.9391551 4.96551724,27.3103448 C4.96551724,28.6815346 3.85394834,29.7931034 2.48275862,29.7931034 C1.1115689,29.7931034 -2.13349338e-11,28.6815346 -2.13349338e-11,27.3103448 C-2.13349338e-11,25.9391551 1.1115689,24.8275862 2.48275862,24.8275862 Z M10.7586207,24.8275862 C12.1298104,24.8275862 13.2413793,25.9391551 13.2413793,27.3103448 C13.2413793,28.6815346 12.1298104,29.7931034 10.7586207,29.7931034 C9.38743097,29.7931034 8.27586207,28.6815346 8.27586207,27.3103448 C8.27586207,25.9391551 9.38743097,24.8275862 10.7586207,24.8275862 Z M2.48275862,16.5517241 C3.85394834,16.5517241 4.96551724,17.663293 4.96551724,19.0344828 C4.96551724,20.4056725 3.85394834,21.5172414 2.48275862,21.5172414 C1.1115689,21.5172414 -2.13349338e-11,20.4056725 -2.13349338e-11,19.0344828 C-2.13349338e-11,17.663293 1.1115689,16.5517241 2.48275862,16.5517241 Z M10.7586207,16.5517241 C12.1298104,16.5517241 13.2413793,17.663293 13.2413793,19.0344828 C13.2413793,20.4056725 12.1298104,21.5172414 10.7586207,21.5172414 C9.38743097,21.5172414 8.27586207,20.4056725 8.27586207,19.0344828 C8.27586207,17.663293 9.38743097,16.5517241 10.7586207,16.5517241 Z M19.0344828,16.5517241 C20.4056725,16.5517241 21.5172414,17.663293 21.5172414,19.0344828 C21.5172414,20.4056725 20.4056725,21.5172414 19.0344828,21.5172414 C17.663293,21.5172414 16.5517241,20.4056725 16.5517241,19.0344828 C16.5517241,17.663293 17.663293,16.5517241 19.0344828,16.5517241 Z M27.3103448,16.5517241 C28.6815346,16.5517241 29.7931034,17.663293 29.7931034,19.0344828 C29.7931034,20.4056725 28.6815346,21.5172414 27.3103448,21.5172414 C25.9391551,21.5172414 24.8275862,20.4056725 24.8275862,19.0344828 C24.8275862,17.663293 25.9391551,16.5517241 27.3103448,16.5517241 Z M2.48275862,8.27586207 C3.85394834,8.27586207 4.96551724,9.38743097 4.96551724,10.7586207 C4.96551724,12.1298104 3.85394834,13.2413793 2.48275862,13.2413793 C1.1115689,13.2413793 -2.13349338e-11,12.1298104 -2.13349338e-11,10.7586207 C-2.13349338e-11,9.38743097 1.1115689,8.27586207 2.48275862,8.27586207 Z M10.7586207,8.27586207 C12.1298104,8.27586207 13.2413793,9.38743097 13.2413793,10.7586207 C13.2413793,12.1298104 12.1298104,13.2413793 10.7586207,13.2413793 C9.38743097,13.2413793 8.27586207,12.1298104 8.27586207,10.7586207 C8.27586207,9.38743097 9.38743097,8.27586207 10.7586207,8.27586207 Z M19.0344828,8.27586207 C20.4056725,8.27586207 21.5172414,9.38743097 21.5172414,10.7586207 C21.5172414,12.1298104 20.4056725,13.2413793 19.0344828,13.2413793 C17.663293,13.2413793 16.5517241,12.1298104 16.5517241,10.7586207 C16.5517241,9.38743097 17.663293,8.27586207 19.0344828,8.27586207 Z M27.3103448,8.27586207 C28.6815346,8.27586207 29.7931034,9.38743097 29.7931034,10.7586207 C29.7931034,12.1298104 28.6815346,13.2413793 27.3103448,13.2413793 C25.9391551,13.2413793 24.8275862,12.1298104 24.8275862,10.7586207 C24.8275862,9.38743097 25.9391551,8.27586207 27.3103448,8.27586207 Z M27.3103448,-5.87352389e-12 C28.6815346,-5.87352389e-12 29.7931034,1.1115689 29.7931034,2.48275862 C29.7931034,3.85394834 28.6815346,4.96551724 27.3103448,4.96551724 C25.9391551,4.96551724 24.8275862,3.85394834 24.8275862,2.48275862 C24.8275862,1.1115689 25.9391551,-5.87352389e-12 27.3103448,-5.87352389e-12 Z" id="Combined-Shape" fill="#747B8B"></path>
                        <circle id="Oval" fill="#747B8B" cx="19.0344828" cy="2.48275862" r="2.48275862"></circle>
                        <circle id="Oval" fill="#F45919" cx="10.7586207" cy="2.48275862" r="2.48275862"></circle>
                        <circle id="Oval" fill="#7549EB" cx="19.0344828" cy="27.3103448" r="2.48275862"></circle>
                    </g>
                    <rect id="Rectangle" fill="#747B8B" x="6" y="0" width="2" height="8"></rect>
                    <rect id="Rectangle" fill="#747B8B" x="32" y="0" width="2" height="8"></rect>
                </g>
            </g>
        </g>
    </g>
</svg>