<?xml version="1.0" encoding="UTF-8"?>
<svg width="40px" height="40px" viewBox="0 0 40 40" version="1.1" xmlns="http://www.w3.org/2000/svg" xmlns:xlink="http://www.w3.org/1999/xlink">
    <!-- Generator: sketchtool 53 (72520) - https://sketchapp.com -->
    <title>0D866E39-1C88-42B6-A5DD-77BE4171E476</title>
    <desc>Created with sketchtool.</desc>
    <g id="Page-1" stroke="none" stroke-width="1" fill="none" fill-rule="evenodd">
        <g id="06" transform="translate(-788.000000, -1168.000000)">
            <g id="Group" transform="translate(732.000000, 863.000000)">
                <g id="contact" transform="translate(0.000000, 262.000000)">
                    <g id="Group-7" transform="translate(0.000000, 43.000000)">
                        <g id="twitter" transform="translate(56.000000, 0.000000)">
                            <path d="M40,20 C40,31.0457 31.0457,40 20,40 C8.9543,40 0,31.0457 0,20 C0,8.9543 8.9543,0 20,0 C31.0457,0 40,8.9543 40,20" id="Fill-1" fill="#FFFFFF"></path>
                            <path d="M16.34058,30.54932 C25.20888,30.54932 30.05858,23.20222 30.05858,16.83142 C30.05858,16.62262 30.05428,16.41482 30.04478,16.20812 C30.98608,15.52762 31.80438,14.67852 32.44998,13.71172 C31.58608,14.09542 30.65648,14.35412 29.68118,14.47072 C30.67658,13.87392 31.44078,12.92942 31.80128,11.80362 C30.86948,12.35592 29.83808,12.75762 28.73988,12.97392 C27.86008,12.03682 26.60708,11.45072 25.22048,11.45072 C22.55768,11.45072 20.39848,13.60992 20.39848,16.27172 C20.39848,16.65012 20.44078,17.01802 20.52358,17.37102 C16.51658,17.16962 12.96328,15.25092 10.58568,12.33372 C10.17118,13.04602 9.93268,13.87392 9.93268,14.75692 C9.93268,16.42972 10.78388,17.90632 12.07818,18.77012 C11.28738,18.74582 10.54428,18.52852 9.89448,18.16702 C9.89338,18.18712 9.89338,18.20742 9.89338,18.22852 C9.89338,20.56382 11.55558,22.51322 13.76148,22.95532 C13.35658,23.06542 12.93038,23.12492 12.49058,23.12492 C12.17998,23.12492 11.87788,23.09412 11.58418,23.03792 C12.19798,24.95342 13.97778,26.34732 16.08828,26.38662 C14.43788,27.67992 12.35908,28.45052 10.10018,28.45052 C9.71108,28.45052 9.32738,28.42822 8.94998,28.38372 C11.08388,29.75122 13.61738,30.54932 16.34058,30.54932" id="Fill-3" fill="#15161A"></path>
                        </g>
                    </g>
                </g>
            </g>
        </g>
    </g>
</svg>